<svg xmlns="http://www.w3.org/2000/svg" width="167.59" height="167.59" viewBox="0 0 167.59 167.59">
  <g id="Grupo_1204" data-name="Grupo 1204" transform="translate(-3435.27 -1542.215)">
    <rect id="Rectángulo_312" data-name="Rectángulo 312" width="167.59" height="167.59" rx="8.821" transform="translate(3435.27 1542.215)" fill="#fff"/>
    <g id="Grupo_1203" data-name="Grupo 1203">
      <path id="Trazado_1875" data-name="Trazado 1875" d="M3467.07,1654.18v-62.841a3.79,3.79,0,0,1,3.795-3.8h100.048a3.8,3.8,0,0,1,3.8,3.8v62.841Z" fill="#343b43"/>
      <path id="Trazado_1876" data-name="Trazado 1876" d="M3584.039,1656.086a6.333,6.333,0,0,1-6.329,6.328H3464.074a6.333,6.333,0,0,1-6.334-6.328V1654.2h126.3Z" fill="#b2b2b2"/>
      <path id="Trazado_1877" data-name="Trazado 1877" d="M3534.415,1654.771a2.349,2.349,0,0,1-2.354,2.349h-22.343a2.357,2.357,0,0,1-2.354-2.349v-.591h27.051Z" fill="#cccbca"/>
      <rect id="Rectángulo_313" data-name="Rectángulo 313" width="93.719" height="52.717" transform="translate(3474.03 1594.503)" fill="#fff"/>
      <g id="Grupo_1202" data-name="Grupo 1202">
        <g id="Grupo_1201" data-name="Grupo 1201">
          <rect id="Rectángulo_314" data-name="Rectángulo 314" width="6.333" height="40.05" transform="translate(3480.364 1600.836)" fill="#f2f2f2"/>
          <rect id="Rectángulo_315" data-name="Rectángulo 315" width="6.333" height="40.05" transform="translate(3491.038 1600.836)" fill="#f2f2f2"/>
          <rect id="Rectángulo_316" data-name="Rectángulo 316" width="6.333" height="40.05" transform="translate(3501.713 1600.836)" fill="#f2f2f2"/>
          <rect id="Rectángulo_317" data-name="Rectángulo 317" width="6.328" height="40.05" transform="translate(3512.388 1600.836)" fill="#f2f2f2"/>
          <rect id="Rectángulo_318" data-name="Rectángulo 318" width="6.338" height="40.05" transform="translate(3523.057 1600.836)" fill="#f2f2f2"/>
          <rect id="Rectángulo_319" data-name="Rectángulo 319" width="6.328" height="40.055" transform="translate(3533.738 1600.831)" fill="#f2f2f2"/>
          <rect id="Rectángulo_320" data-name="Rectángulo 320" width="6.333" height="40.05" transform="translate(3544.407 1600.836)" fill="#f2f2f2"/>
          <rect id="Rectángulo_321" data-name="Rectángulo 321" width="6.333" height="40.05" transform="translate(3555.082 1600.836)" fill="#f2f2f2"/>
        </g>
        <path id="Trazado_1878" data-name="Trazado 1878" d="M3525.488,1640.886l-10.675-26.725-6.767,9.865h-27.683V1617.7h24.351l11.576-16.866,10.675,26.73,6.772-9.865h27.677v6.328h-24.351Z" fill="#fd8369"/>
      </g>
    </g>
  </g>
</svg>
