<svg xmlns="http://www.w3.org/2000/svg" width="110.081" height="78.196" viewBox="0 0 110.081 78.196">
  <g id="Grupo_2700" data-name="Grupo 2700" transform="translate(-340.793 -1120.943)">
    <g id="Grupo_2670" data-name="Grupo 2670">
      <path id="Trazado_3527" data-name="Trazado 3527" d="M450.874,1177.092l-72.006,22.047-36.4-25.995,67.354-18.6Z" fill="#29363e"/>
    </g>
    <g id="Grupo_2699" data-name="Grupo 2699">
      <g id="Grupo_2685" data-name="Grupo 2685">
        <g id="Grupo_2671" data-name="Grupo 2671">
          <path id="Trazado_3528" data-name="Trazado 3528" d="M377.917,1193.618,346,1173.76a7.207,7.207,0,0,1-3.273-4.7,10.762,10.762,0,0,1,.057-4.938v0a6.461,6.461,0,0,1,2.482-3.551l33.837,19.317a30.53,30.53,0,0,0-1.81,8.787A14.045,14.045,0,0,0,377.917,1193.618Z" fill="#d76233"/>
        </g>
        <g id="Grupo_2672" data-name="Grupo 2672">
          <path id="Trazado_3529" data-name="Trazado 3529" d="M379.1,1179.883a30.53,30.53,0,0,0-1.81,8.787L346.093,1169a7.219,7.219,0,0,1-3.274-4.7c-.012-.06-.022-.12-.034-.18v0a6.461,6.461,0,0,1,2.482-3.551Z" fill="#bc461d"/>
        </g>
        <g id="Grupo_2673" data-name="Grupo 2673">
          <path id="Trazado_3530" data-name="Trazado 3530" d="M393.018,1165.991a12.719,12.719,0,0,1-1.6,5.42L351.11,1160.42l-.994-.272v-8.431l41.854,8.617A11.923,11.923,0,0,1,393.018,1165.991Z" fill="#fff"/>
        </g>
        <g id="Grupo_2674" data-name="Grupo 2674">
          <path id="Trazado_3531" data-name="Trazado 3531" d="M394,1149.4a8.3,8.3,0,0,1-1.757,5.148l-36.906-7.136v-11.27l37.853,6.968A19.627,19.627,0,0,1,394,1149.4Z" fill="#fff"/>
        </g>
        <g id="Grupo_2675" data-name="Grupo 2675">
          <path id="Trazado_3532" data-name="Trazado 3532" d="M422.639,1140.008l-27.893,13.435c.852-2.039,1.412-5.417.01-10.6l24.331-11.706a.791.791,0,1,0-.687-1.425L393.7,1141.6l-21.261-3.916-17.148-3.156,30.235-11.887L411.382,1127l10.507,1.769C422.6,1129.539,425.406,1133.167,422.639,1140.008Z" fill="#e6b54a"/>
        </g>
        <g id="Grupo_2676" data-name="Grupo 2676">
          <path id="Trazado_3533" data-name="Trazado 3533" d="M425.773,1150.673a5.9,5.9,0,0,1-2.935,3.862l-29.222,15.907a13.734,13.734,0,0,0,.823-7.334,13.331,13.331,0,0,0-.89-3.112l5.654-2.827a.791.791,0,1,0-.709-1.415l-6.1,3.051-40.708-8.382,2.979-1.529,37.687,7.284a.5.5,0,0,0,.115.009.12.12,0,0,0,.037.007h.01a.6.6,0,0,0,.079-.01.657.657,0,0,0,.253-.069l30.248-14.569a10.388,10.388,0,0,1,2.723,4.923A9.558,9.558,0,0,1,425.773,1150.673Z" fill="#35454f"/>
        </g>
        <g id="Grupo_2677" data-name="Grupo 2677">
          <path id="Trazado_3534" data-name="Trazado 3534" d="M431.566,1180.56l-51.186,14.432c-2.459-3.368-1.4-9.114-.446-12.482.294-1.051.582-1.871.744-2.314l50.8-12.764.048,6.847Z" fill="#e6f5fb"/>
        </g>
        <g id="Grupo_2678" data-name="Grupo 2678">
          <path id="Trazado_3535" data-name="Trazado 3535" d="M431.522,1174.279,381.444,1188.4a9.7,9.7,0,0,1-1.51-5.888c.294-1.051.582-1.871.744-2.314l50.8-12.764Z" fill="#fff"/>
        </g>
        <g id="Grupo_2679" data-name="Grupo 2679">
          <path id="Trazado_3536" data-name="Trazado 3536" d="M432.145,1165.631l-32.42,8.148-19.525,4.907-.007,0-29.152-16.642,40.542,11.057a.8.8,0,0,0,.21.029c.012,0,.025-.006.037-.006a1.04,1.04,0,0,0,.159-.019l.082-.032a.564.564,0,0,0,.1-.041h0l0,0L413.9,1161.2l3.79-2.064Z" fill="#d76233"/>
        </g>
        <g id="Grupo_2680" data-name="Grupo 2680">
          <path id="Trazado_3537" data-name="Trazado 3537" d="M413.9,1161.2l-14.176,12.574-19.525,4.907-.007,0-29.152-16.642,40.542,11.057a.8.8,0,0,0,.21.029c.012,0,.025-.006.037-.006a1.04,1.04,0,0,0,.159-.019l.082-.032a.564.564,0,0,0,.1-.041h0l0,0Z" fill="#bc461d"/>
        </g>
        <g id="Grupo_2681" data-name="Grupo 2681">
          <path id="Trazado_3538" data-name="Trazado 3538" d="M425.773,1150.673a5.9,5.9,0,0,1-2.935,3.862l-29.222,15.907a13.734,13.734,0,0,0,.823-7.334l31.375-16.639A9.558,9.558,0,0,1,425.773,1150.673Z" fill="#29363e"/>
        </g>
        <g id="Grupo_2682" data-name="Grupo 2682">
          <path id="Trazado_3539" data-name="Trazado 3539" d="M393.018,1165.991a12.719,12.719,0,0,1-1.6,5.42L351.11,1160.42l-.994-.959V1155.9Z" fill="#e6f5fb"/>
        </g>
        <g id="Grupo_2683" data-name="Grupo 2683">
          <path id="Trazado_3540" data-name="Trazado 3540" d="M422.639,1140.008l-27.893,13.435c.852-2.039,1.412-5.417.01-10.6l24.331-11.706a.791.791,0,1,0-.687-1.425L393.7,1141.6l-21.261-3.916c8.753-.76,24.553-3.156,38.938-10.684l10.507,1.769C422.6,1129.539,425.406,1133.167,422.639,1140.008Z" fill="#ce9d3a"/>
        </g>
        <g id="Grupo_2684" data-name="Grupo 2684">
          <path id="Trazado_3541" data-name="Trazado 3541" d="M394,1149.4a8.3,8.3,0,0,1-1.757,5.148l-36.906-7.136v-4.391Z" fill="#e6f5fb"/>
        </g>
      </g>
      <g id="Grupo_2698" data-name="Grupo 2698">
        <g id="Grupo_2696" data-name="Grupo 2696">
          <g id="Grupo_2686" data-name="Grupo 2686">
            <path id="Trazado_3542" data-name="Trazado 3542" d="M380.083,1196.775a.875.875,0,0,1-.463-.132l-34.5-21.465a8.893,8.893,0,0,1-4.028-5.795c-.654-3.317-.547-7.829,3.674-10.49a.877.877,0,0,1,.9-.02l34.852,19.895a.878.878,0,0,1,.378,1.091c-.043.107-4.259,10.713-.15,15.464a.877.877,0,0,1-.664,1.452Zm-34.811-36.106c-2.954,2.168-2.983,5.719-2.459,8.374a7.127,7.127,0,0,0,3.233,4.645l31.717,19.732c-1.539-4.917.466-11.348,1.236-13.5Z" fill="#29363e"/>
          </g>
          <g id="Grupo_2687" data-name="Grupo 2687">
            <path id="Trazado_3543" data-name="Trazado 3543" d="M380.083,1180.408a.878.878,0,0,1-.213-1.729l52.012-13.07-14.344-6.443a.878.878,0,0,1,.719-1.6l16.65,7.478a.878.878,0,0,1-.146,1.652L380.3,1180.381A.882.882,0,0,1,380.083,1180.408Z" fill="#29363e"/>
          </g>
          <g id="Grupo_2688" data-name="Grupo 2688">
            <path id="Trazado_3544" data-name="Trazado 3544" d="M380.083,1196.776a.878.878,0,0,1-.238-1.723l51.633-14.558-.1-14.07a.879.879,0,0,1,.872-.884.87.87,0,0,1,.884.872l.1,14.739a.877.877,0,0,1-.64.851l-52.276,14.739A.86.86,0,0,1,380.083,1196.776Z" fill="#29363e"/>
          </g>
          <g id="Grupo_2689" data-name="Grupo 2689">
            <path id="Trazado_3545" data-name="Trazado 3545" d="M349.324,1160.513h-4.092a.878.878,0,1,1,0-1.756h4.092a.878.878,0,1,1,0,1.756Z" fill="#29363e"/>
          </g>
          <g id="Grupo_2690" data-name="Grupo 2690">
            <path id="Trazado_3546" data-name="Trazado 3546" d="M391.794,1173.212a.879.879,0,0,1-.751-1.332,12.16,12.16,0,0,0,.866-11.47l-41.707-8.587v8.928a.878.878,0,1,1-1.756,0v-10.005a.879.879,0,0,1,1.055-.86l43.176,8.889a.878.878,0,0,1,.585.425,13.805,13.805,0,0,1-.716,13.588A.877.877,0,0,1,391.794,1173.212Z" fill="#29363e"/>
          </g>
          <g id="Grupo_2691" data-name="Grupo 2691">
            <path id="Trazado_3547" data-name="Trazado 3547" d="M392.5,1160.513a.878.878,0,0,1-.393-1.663l6.349-3.175a.878.878,0,1,1,.785,1.571l-6.349,3.174A.875.875,0,0,1,392.5,1160.513Z" fill="#29363e"/>
          </g>
          <g id="Grupo_2692" data-name="Grupo 2692">
            <path id="Trazado_3548" data-name="Trazado 3548" d="M391.8,1173.212a.863.863,0,0,1-.231-.031l-43.459-11.852a.878.878,0,1,1,.462-1.694l43.118,11.76,31.111-16.934a5.822,5.822,0,0,0,2.893-3.808,9.667,9.667,0,0,0-3.043-9.439.875.875,0,0,1-.2-.967c2.909-6.911.137-10.586-.6-11.4l-36.306-6.121-29.932,11.768,38.367,7.063a.878.878,0,0,1,.683.615c3,10.193-1.43,13.775-1.62,13.923a.878.878,0,0,1-.7.168l-37.657-7.279-4.951,2.542a.878.878,0,1,1-.8-1.562l5.221-2.681a.881.881,0,0,1,.567-.081l37.5,7.249c.758-.878,2.875-4.114.91-11.266l-40.852-7.521a.878.878,0,0,1-.162-1.68L385.124,1121a.886.886,0,0,1,.467-.049l36.827,6.209a.877.877,0,0,1,.441.212c.2.181,4.778,4.433,1.431,13.006a11.249,11.249,0,0,1,3.11,10.663,7.572,7.572,0,0,1-3.765,4.957l-31.421,17.1A.87.87,0,0,1,391.8,1173.212Z" fill="#29363e"/>
          </g>
          <g id="Grupo_2693" data-name="Grupo 2693">
            <path id="Trazado_3549" data-name="Trazado 3549" d="M392.5,1156.28a.877.877,0,0,1-.382-1.668l30.76-14.816a.878.878,0,0,1,.762,1.582l-30.76,14.815A.879.879,0,0,1,392.5,1156.28Z" fill="#29363e"/>
          </g>
          <g id="Grupo_2694" data-name="Grupo 2694">
            <path id="Trazado_3550" data-name="Trazado 3550" d="M393.817,1143.3a.878.878,0,0,1-.381-1.669l24.928-11.993a.878.878,0,0,1,.761,1.582L394.2,1143.212A.878.878,0,0,1,393.817,1143.3Z" fill="#29363e"/>
          </g>
          <g id="Grupo_2695" data-name="Grupo 2695">
            <path id="Trazado_3551" data-name="Trazado 3551" d="M354.545,1148.943a.878.878,0,0,1-.878-.878v-12.874a.878.878,0,0,1,1.755,0v12.874A.878.878,0,0,1,354.545,1148.943Z" fill="#29363e"/>
          </g>
        </g>
        <g id="Grupo_2697" data-name="Grupo 2697">
          <path id="Trazado_3552" data-name="Trazado 3552" d="M432.36,1182.036a.878.878,0,0,1-.2-1.731l2.681-.641a.878.878,0,0,1,.408,1.708l-2.681.64A.9.9,0,0,1,432.36,1182.036Z" fill="#29363e"/>
        </g>
      </g>
    </g>
  </g>
</svg>
