<svg xmlns="http://www.w3.org/2000/svg" width="36" height="36" viewBox="0 0 36 36">
  <g id="Grupo_3408" data-name="Grupo 3408" transform="translate(-418.493 -1453.044)">
    <circle id="Elipse_284" data-name="Elipse 284" cx="18" cy="18" r="18" transform="translate(418.493 1453.044)" fill="#dd503e" opacity="0.8"/>
    <g id="Grupo_3407" data-name="Grupo 3407">
      <path id="Trazado_14883" data-name="Trazado 14883" d="M424.081,1466.719a13.14,13.14,0,0,0,0,8.649.93.93,0,0,0,.041.119,13.145,13.145,0,0,0,24.742,0,.8.8,0,0,0,.042-.119,13.14,13.14,0,0,0,0-8.649.975.975,0,0,0-.042-.118,13.145,13.145,0,0,0-24.742,0,.971.971,0,0,0-.041.118Zm12.412-6.936c.5,0,1.308.906,1.983,2.93a20.731,20.731,0,0,1,.775,3.321h-5.516a20.516,20.516,0,0,1,.776-3.321c.675-2.024,1.482-2.93,1.982-2.93Zm2.987,8.135c.091,1.005.139,2.053.139,3.126s-.048,2.121-.139,3.125h-5.974c-.09-1-.138-2.052-.138-3.125s.048-2.121.138-3.126Zm8.273,3.126a11.231,11.231,0,0,1-.441,3.125H441.37c.088-1.025.133-2.076.133-3.125s-.045-2.1-.133-3.126h5.942a11.244,11.244,0,0,1,.441,3.126Zm-11.26,11.26c-.5,0-1.307-.906-1.982-2.93a20.47,20.47,0,0,1-.776-3.321h5.516a20.577,20.577,0,0,1-.775,3.321c-.675,2.024-1.482,2.93-1.983,2.93Zm-4.877-8.135h-5.941a11.272,11.272,0,0,1,0-6.251h5.941c-.088,1.026-.132,2.077-.132,3.126s.044,2.1.132,3.125Zm-5.2,1.884h5.421a18.09,18.09,0,0,0,1.717,5.86,11.307,11.307,0,0,1-7.138-5.86Zm13.026,5.86a18.066,18.066,0,0,0,1.717-5.86h5.422a11.311,11.311,0,0,1-7.139,5.86Zm7.139-15.879h-5.422a18.067,18.067,0,0,0-1.717-5.859,11.313,11.313,0,0,1,7.139,5.859Zm-13.027-5.859a18.091,18.091,0,0,0-1.717,5.859h-5.421a11.308,11.308,0,0,1,7.138-5.859Zm0,0" fill="#fff"/>
    </g>
  </g>
</svg>
