<svg xmlns="http://www.w3.org/2000/svg" width="231" height="135.397" viewBox="0 0 231 135.397">
  <g id="Grupo_3424" data-name="Grupo 3424" transform="translate(-282.95 -2280.04)">
    <rect id="Rectángulo_2761" data-name="Rectángulo 2761" width="1.364" height="24.777" transform="translate(397.301 2390.659)" fill="#363636"/>
    <circle id="Elipse_286" data-name="Elipse 286" cx="43.16" cy="43.16" r="43.16" transform="translate(354.824 2287.119)" fill="#fff"/>
    <g id="Grupo_3414" data-name="Grupo 3414" transform="translate(-78 -28.5)">
      <g id="Grupo_3413" data-name="Grupo 3413">
        <path id="Trazado_14886" data-name="Trazado 14886" d="M476.711,2356.782q0,4.434-1.425,6.586a5.382,5.382,0,0,1-8.662-.07,11.886,11.886,0,0,1-1.466-6.516q0-4.5,1.425-6.637a5.386,5.386,0,0,1,8.662.1A11.974,11.974,0,0,1,476.711,2356.782Zm-8.784,0a12.4,12.4,0,0,0,.715,4.969,2.5,2.5,0,0,0,4.584-.024,17.176,17.176,0,0,0,0-9.9,2.491,2.491,0,0,0-4.584-.029A12.485,12.485,0,0,0,467.927,2356.782Z" fill="#4c1000"/>
        <path id="Trazado_14887" data-name="Trazado 14887" d="M486.81,2365.287h-2.735V2354.3q0-1.967.093-3.118-.267.279-.657.616t-2.612,2.141l-1.373-1.734,5-3.932h2.281Z" fill="#4c1000"/>
      </g>
    </g>
    <circle id="Elipse_287" data-name="Elipse 287" cx="54.7" cy="54.7" r="54.7" transform="translate(343.284 2280.04)" fill="#414651"/>
    <circle id="Elipse_288" data-name="Elipse 288" cx="43.16" cy="43.16" r="43.16" transform="translate(354.824 2291.58)" fill="#fff"/>
    <text id="_01_" data-name="01



  






" transform="translate(380.505 2340.792)" fill="#161d28" font-size="23" font-family="OpenSans, Open Sans"><tspan x="4.328" y="25">01</tspan></text>
    <rect id="Rectángulo_2762" data-name="Rectángulo 2762" width="152.149" height="29.333" rx="12" transform="translate(321.909 2313.598)" fill="#e6b54a"/>
    <text id="PARÁGRAFO_" data-name="PARÁGRAFO


  






" transform="translate(282.95 2316.511)" fill="#161d28" font-size="16" font-family="OpenSans-Bold, Open Sans" font-weight="700"><tspan x="66.338" y="17">PARÁGRAFO</tspan></text>
  </g>
</svg>
