<svg xmlns="http://www.w3.org/2000/svg" width="231" height="135.397" viewBox="0 0 231 135.397">
  <g id="Grupo_3425" data-name="Grupo 3425" transform="translate(-771.142 -2280.04)">
    <rect id="Rectángulo_2764" data-name="Rectángulo 2764" width="1.364" height="24.777" transform="translate(885.493 2390.659)" fill="#363636"/>
    <circle id="Elipse_289" data-name="Elipse 289" cx="43.16" cy="43.16" r="43.16" transform="translate(843.016 2287.119)" fill="#fff"/>
    <g id="Grupo_3416" data-name="Grupo 3416" transform="translate(-78 -28.5)">
      <g id="Grupo_3415" data-name="Grupo 3415">
        <path id="Trazado_14889" data-name="Trazado 14889" d="M964.9,2356.782q0,4.434-1.425,6.586a5.382,5.382,0,0,1-8.662-.07,11.877,11.877,0,0,1-1.466-6.516q0-4.5,1.425-6.637a5.386,5.386,0,0,1,8.662.1A11.974,11.974,0,0,1,964.9,2356.782Zm-8.784,0a12.4,12.4,0,0,0,.715,4.969,2.5,2.5,0,0,0,4.584-.024,17.2,17.2,0,0,0,0-9.9,2.491,2.491,0,0,0-4.584-.029A12.486,12.486,0,0,0,956.119,2356.782Z" fill="#4c1000"/>
        <path id="Trazado_14890" data-name="Trazado 14890" d="M975,2365.287h-2.734V2354.3q0-1.967.093-3.118-.267.279-.657.616t-2.612,2.141l-1.373-1.734,5-3.932H975Z" fill="#4c1000"/>
      </g>
    </g>
    <circle id="Elipse_290" data-name="Elipse 290" cx="54.7" cy="54.7" r="54.7" transform="translate(831.476 2280.04)" fill="#414651"/>
    <circle id="Elipse_291" data-name="Elipse 291" cx="43.16" cy="43.16" r="43.16" transform="translate(843.016 2291.58)" fill="#fff"/>
    <text id="_02_" data-name="02



  






" transform="translate(868.697 2340.792)" fill="#161d28" font-size="23" font-family="OpenSans, Open Sans"><tspan x="4.328" y="25">02</tspan></text>
    <rect id="Rectángulo_2765" data-name="Rectángulo 2765" width="152.149" height="29.333" rx="12" transform="translate(810.101 2313.598)" fill="#e6b54a"/>
    <text id="PARÁGRAFO_" data-name="PARÁGRAFO


  






" transform="translate(771.142 2316.511)" fill="#161d28" font-size="16" font-family="OpenSans-Bold, Open Sans" font-weight="700"><tspan x="66.338" y="17">PARÁGRAFO</tspan></text>
  </g>
</svg>
