<svg xmlns="http://www.w3.org/2000/svg" width="231" height="135.397" viewBox="0 0 231 135.397">
  <g id="Grupo_3426" data-name="Grupo 3426" transform="translate(-282.95 -2685.019)">
    <rect id="Rectángulo_2767" data-name="Rectángulo 2767" width="1.364" height="24.777" transform="translate(397.301 2795.639)" fill="#363636"/>
    <circle id="Elipse_292" data-name="Elipse 292" cx="43.16" cy="43.16" r="43.16" transform="translate(354.824 2692.099)" fill="#fff"/>
    <g id="Grupo_3418" data-name="Grupo 3418" transform="translate(-78 -28.5)">
      <g id="Grupo_3417" data-name="Grupo 3417">
        <path id="Trazado_14892" data-name="Trazado 14892" d="M476.711,2761.762q0,4.434-1.425,6.585a5.381,5.381,0,0,1-8.662-.069,11.89,11.89,0,0,1-1.466-6.516q0-4.5,1.425-6.637a5.386,5.386,0,0,1,8.662.1A11.972,11.972,0,0,1,476.711,2761.762Zm-8.784,0a12.393,12.393,0,0,0,.715,4.968,2.5,2.5,0,0,0,4.584-.023,17.176,17.176,0,0,0,0-9.9,2.491,2.491,0,0,0-4.584-.029A12.486,12.486,0,0,0,467.927,2761.762Z" fill="#4c1000"/>
        <path id="Trazado_14893" data-name="Trazado 14893" d="M486.81,2770.267h-2.735v-10.983q0-1.967.093-3.118-.267.279-.657.617t-2.612,2.141l-1.373-1.734,5-3.932h2.281Z" fill="#4c1000"/>
      </g>
    </g>
    <circle id="Elipse_293" data-name="Elipse 293" cx="54.7" cy="54.7" r="54.7" transform="translate(343.284 2685.019)" fill="#414651"/>
    <circle id="Elipse_294" data-name="Elipse 294" cx="43.16" cy="43.16" r="43.16" transform="translate(354.824 2696.56)" fill="#fff"/>
    <text id="_03_" data-name="03



  






" transform="translate(380.505 2745.772)" fill="#161d28" font-size="23" font-family="OpenSans, Open Sans"><tspan x="4.328" y="25">03</tspan></text>
    <rect id="Rectángulo_2768" data-name="Rectángulo 2768" width="152.149" height="29.333" rx="12" transform="translate(321.909 2718.578)" fill="#e6b54a"/>
    <text id="PARÁGRAFO_" data-name="PARÁGRAFO


  






" transform="translate(282.95 2721.491)" fill="#161d28" font-size="16" font-family="OpenSans-Bold, Open Sans" font-weight="700"><tspan x="66.338" y="17">PARÁGRAFO</tspan></text>
  </g>
</svg>
