<svg xmlns="http://www.w3.org/2000/svg" width="231" height="135.397" viewBox="0 0 231 135.397">
  <g id="Grupo_3427" data-name="Grupo 3427" transform="translate(-771.142 -2685.019)">
    <rect id="Rectángulo_2770" data-name="Rectángulo 2770" width="1.364" height="24.777" transform="translate(885.493 2795.639)" fill="#363636"/>
    <circle id="Elipse_295" data-name="Elipse 295" cx="43.16" cy="43.16" r="43.16" transform="translate(843.016 2692.099)" fill="#fff"/>
    <g id="Grupo_3420" data-name="Grupo 3420" transform="translate(-78 -28.5)">
      <g id="Grupo_3419" data-name="Grupo 3419">
        <path id="Trazado_14895" data-name="Trazado 14895" d="M964.9,2761.762q0,4.434-1.425,6.585a5.381,5.381,0,0,1-8.662-.069,11.882,11.882,0,0,1-1.466-6.516q0-4.5,1.425-6.637a5.386,5.386,0,0,1,8.662.1A11.972,11.972,0,0,1,964.9,2761.762Zm-8.784,0a12.394,12.394,0,0,0,.715,4.968,2.5,2.5,0,0,0,4.584-.023,17.2,17.2,0,0,0,0-9.9,2.491,2.491,0,0,0-4.584-.029A12.486,12.486,0,0,0,956.119,2761.762Z" fill="#4c1000"/>
        <path id="Trazado_14896" data-name="Trazado 14896" d="M975,2770.267h-2.734v-10.983q0-1.967.093-3.118-.267.279-.657.617t-2.612,2.141l-1.373-1.734,5-3.932H975Z" fill="#4c1000"/>
      </g>
    </g>
    <circle id="Elipse_296" data-name="Elipse 296" cx="54.7" cy="54.7" r="54.7" transform="translate(831.476 2685.019)" fill="#414651"/>
    <circle id="Elipse_297" data-name="Elipse 297" cx="43.16" cy="43.16" r="43.16" transform="translate(843.016 2696.56)" fill="#fff"/>
    <text id="_04_" data-name="04



  






" transform="translate(868.697 2745.772)" fill="#161d28" font-size="23" font-family="OpenSans, Open Sans"><tspan x="4.328" y="25">04</tspan></text>
    <rect id="Rectángulo_2771" data-name="Rectángulo 2771" width="152.149" height="29.333" rx="12" transform="translate(810.101 2718.578)" fill="#e6b54a"/>
    <text id="PARÁGRAFO_" data-name="PARÁGRAFO


  






" transform="translate(771.142 2721.491)" fill="#161d28" font-size="16" font-family="OpenSans-Bold, Open Sans" font-weight="700"><tspan x="66.338" y="17">PARÁGRAFO</tspan></text>
  </g>
</svg>
