<svg xmlns="http://www.w3.org/2000/svg" width="231" height="135.397" viewBox="0 0 231 135.397">
  <g id="Grupo_3428" data-name="Grupo 3428" transform="translate(-521.149 -3089.999)">
    <rect id="Rectángulo_2773" data-name="Rectángulo 2773" width="1.364" height="24.777" transform="translate(635.5 3200.618)" fill="#363636"/>
    <circle id="Elipse_298" data-name="Elipse 298" cx="43.16" cy="43.16" r="43.16" transform="translate(593.023 3097.079)" fill="#fff"/>
    <g id="Grupo_3422" data-name="Grupo 3422" transform="translate(-78 -28.5)">
      <g id="Grupo_3421" data-name="Grupo 3421">
        <path id="Trazado_14898" data-name="Trazado 14898" d="M714.91,3166.742q0,4.433-1.426,6.585a5.38,5.38,0,0,1-8.661-.07,11.875,11.875,0,0,1-1.466-6.515q0-4.5,1.425-6.637a5.386,5.386,0,0,1,8.662.1A11.972,11.972,0,0,1,714.91,3166.742Zm-8.785,0a12.393,12.393,0,0,0,.716,4.968,2.5,2.5,0,0,0,4.584-.023,17.2,17.2,0,0,0,0-9.9,2.491,2.491,0,0,0-4.584-.029A12.479,12.479,0,0,0,706.125,3166.742Z" fill="#4c1000"/>
        <path id="Trazado_14899" data-name="Trazado 14899" d="M725.008,3175.247h-2.734v-10.983q0-1.967.093-3.118-.267.279-.657.617t-2.612,2.14l-1.373-1.733,5-3.933h2.28Z" fill="#4c1000"/>
      </g>
    </g>
    <circle id="Elipse_299" data-name="Elipse 299" cx="54.7" cy="54.7" r="54.7" transform="translate(581.482 3089.999)" fill="#414651"/>
    <circle id="Elipse_300" data-name="Elipse 300" cx="43.16" cy="43.16" r="43.16" transform="translate(593.023 3101.539)" fill="#fff"/>
    <text id="_05_" data-name="05



  






" transform="translate(618.703 3150.752)" fill="#161d28" font-size="23" font-family="OpenSans, Open Sans"><tspan x="4.328" y="25">05</tspan></text>
    <rect id="Rectángulo_2774" data-name="Rectángulo 2774" width="152.149" height="29.333" rx="12" transform="translate(560.108 3123.558)" fill="#e6b54a"/>
    <text id="PARÁGRAFO_" data-name="PARÁGRAFO


  






" transform="translate(521.149 3126.471)" fill="#161d28" font-size="16" font-family="OpenSans-Bold, Open Sans" font-weight="700"><tspan x="66.338" y="17">PARÁGRAFO</tspan></text>
  </g>
</svg>
