<svg xmlns="http://www.w3.org/2000/svg" width="167.59" height="167.59" viewBox="0 0 167.59 167.59">
  <g id="Grupo_1199" data-name="Grupo 1199" transform="translate(-3433.267 -1314.528)">
    <rect id="Rectángulo_311" data-name="Rectángulo 311" width="167.59" height="167.59" rx="8.821" transform="translate(3433.267 1314.528)" fill="#fff"/>
    <g id="Grupo_1198" data-name="Grupo 1198">
      <g id="Grupo_1191" data-name="Grupo 1191">
        <g id="Grupo_1183" data-name="Grupo 1183">
          <g id="Grupo_1181" data-name="Grupo 1181">
            <path id="Trazado_1844" data-name="Trazado 1844" d="M3485.453,1456.26l-2.768,8.84-8.113-.867,5.075-30.221a4.211,4.211,0,0,1,5.517-.083C3487.278,1442.3,3486.95,1454.781,3485.453,1456.26Z" fill="#b5b8be"/>
            <path id="Trazado_1845" data-name="Trazado 1845" d="M3490.188,1467.072c.6-7.346-7.7-7.426-8.136-3.167-8.463-1.146-9.664,0-9.664,3.167Z" fill="#027275"/>
          </g>
          <g id="Grupo_1182" data-name="Grupo 1182">
            <path id="Trazado_1846" data-name="Trazado 1846" d="M3492.947,1432.8l2.264,32.364H3486.2l-2.62-31.151C3484.127,1431.979,3492.263,1430.981,3492.947,1432.8Z" fill="#d9dbdc"/>
            <path id="Trazado_1847" data-name="Trazado 1847" d="M3493.292,1463.405c.293-4.873,9.909-7.3,9.126,3.667h-18.4C3483.2,1462.359,3487.233,1463.636,3493.292,1463.405Z" fill="#108a90"/>
          </g>
        </g>
        <g id="Grupo_1184" data-name="Grupo 1184">
          <path id="Trazado_1848" data-name="Trazado 1848" d="M3473.807,1346.841c1.9-18.9,12.338-26.08,32.815-17.581,4.766,1.978,3.231,10.122.819,10.811-6.442,14.578-23.369,21.677-29.047,18.837C3473.152,1358.034,3473.3,1351.858,3473.807,1346.841Z" fill="#352836"/>
          <path id="Trazado_1849" data-name="Trazado 1849" d="M3485.983,1353.885s-4.149-1.311-3.931-4.477c.494-7.166,8.19-5.3,5.46-.983,8.572,3.6,3.713-17.2,19.929-8.354,2.939,8.817-2.2,8.1-1.583,18.018.1,1.54.126,3.064-2.839,2.075-3.8,9.254-5.512,8.758-10.975,5.9-.089,1.7-.122,2.548.873,3.876-5.146-.617-4.2-2.441-10.592-2.621,2.324-5.467,2.173-3.11-3.931-8.408C3483.786,1358.137,3485.757,1355.7,3485.983,1353.885Z" fill="#ffa48f"/>
          <path id="Trazado_1850" data-name="Trazado 1850" d="M3487.512,1348.425c2.194,1.34,8.711,1.127,14.033,1.092-1.88,5.9,3.106,5.445,3.849,1.2l1.2.409c.7.061,1.115-.781.512-1.416l-1.194-.331c.5-4.057-2.792-3.77-3.822-1.419-3.173.1-11.131.483-14.05-.8C3487.717,1347.21,3487.267,1348.275,3487.512,1348.425Zm17-.692c1.243.515-.369,5.4-1.893,4.987C3500.926,1352.265,3502.738,1347,3504.511,1347.733Z" fill="#ed334b"/>
        </g>
        <g id="Grupo_1188" data-name="Grupo 1188">
          <g id="Grupo_1185" data-name="Grupo 1185">
            <path id="Trazado_1851" data-name="Trazado 1851" d="M3497.654,1382.931c4.558,10.3,5.813,13.1,8.586,16.914,1.252,1.664-3.6,7.442-5.611,6.913a13.9,13.9,0,0,1-2.524-4.006C3495.909,1396.293,3496.52,1385.091,3497.654,1382.931Z" fill="#d9dbdc"/>
            <path id="Trazado_1852" data-name="Trazado 1852" d="M3507.321,1404.6c3.574,2.3,3.495,2.183,4.1,3.777,1.389,3.657,2.155,8-1.413,6.44-1.78-.779.465-4.721-5.591-6.675C3504.285,1407.345,3505.6,1405.135,3507.321,1404.6Z" fill="#ffa48f"/>
            <path id="Trazado_1853" data-name="Trazado 1853" d="M3506.24,1399.845c.819,0,1.965,1.433,1.965,2.58-1,2.784-1.6,4.085-5.275,6.934a2.542,2.542,0,0,1-2.3-2.6C3503.885,1404.553,3505.215,1402.914,3506.24,1399.845Z" fill="#d9dbdc"/>
          </g>
          <path id="Trazado_1854" data-name="Trazado 1854" d="M3482.325,1367.316c-8.095,6.336-4.681,32.263-6.879,66.341,6.865.967,17.872.241,23.969-3.277-3.691-46.4,1.523-54.347-6.5-60.443C3491.3,1368.709,3485.02,1365.207,3482.325,1367.316Z" fill="#b5b8be"/>
          <g id="Grupo_1187" data-name="Grupo 1187">
            <g id="Grupo_1186" data-name="Grupo 1186">
              <path id="Trazado_1855" data-name="Trazado 1855" d="M3477.2,1381.852c4.528-16.719,12.555-10.967,12.118-5.8-.413,4.89-5.081,12.267-10.081,31.045-1.583.909-8.873-1.67-8.873-3.011C3471.983,1399.173,3475.161,1389.363,3477.2,1381.852Z" fill="#d9dbdc"/>
              <path id="Trazado_1856" data-name="Trazado 1856" d="M3475.936,1409.527c-1.07,3.416-.881,5.492-5.077,6.548-1.736.437-3.422-1.128-2.579-1.6,2.44-1.368,3.771-3.307,3.2-6.533C3472.035,1406.654,3476.378,1408.116,3475.936,1409.527Z" fill="#ffa48f"/>
              <path id="Trazado_1857" data-name="Trazado 1857" d="M3479.233,1407.1a2.69,2.69,0,0,1-.853,3.3l-9.05-3.222c-.417-.655-.263-2.675,1.03-3.088C3472.984,1404.972,3477.142,1406.376,3479.233,1407.1Z" fill="#d9dbdc"/>
            </g>
            <path id="Trazado_1858" data-name="Trazado 1858" d="M3485.164,1409.77v-4.561c3.017,1.743,5.195,2.756,7.7,2.347l.09,3.849C3491.826,1412.854,3486.256,1411.632,3485.164,1409.77Z" fill="#d9dbdc"/>
            <path id="Trazado_1859" data-name="Trazado 1859" d="M3492.953,1411.405l.293,12.478c-1.1.9-6.4,1.444-8.082-.109v-14A16.464,16.464,0,0,0,3492.953,1411.405Z" fill="#d9dbdc"/>
          </g>
        </g>
        <g id="Grupo_1190" data-name="Grupo 1190">
          <path id="Trazado_1860" data-name="Trazado 1860" d="M3492.655,1381.791c-.755-5.805-2.4-10.366-6.208-14.893a2.529,2.529,0,0,1,2.2.717c4.064,4.832,4.545,8.052,5.332,14.23,2.7,1.543,2.321,7.44.977,9.769l-1.135-.656c1.148-1.986,1.291-7.023-.513-7.995-2.988.911-3.23,9.9-.443,11.314l-.593,1.169C3488.579,1393.571,3488.727,1383.435,3492.655,1381.791Z" fill="#483c49"/>
          <g id="Grupo_1189" data-name="Grupo 1189">
            <path id="Trazado_1861" data-name="Trazado 1861" d="M3493.545,1393.989c-1.137-.9-2.243,1.263-1.474,1.829C3493.409,1396.8,3494.473,1394.726,3493.545,1393.989Z" fill="#352836"/>
            <path id="Trazado_1862" data-name="Trazado 1862" d="M3495.285,1391.832c.946-1.1-1.178-2.29-1.772-1.542C3492.48,1391.589,3494.513,1392.732,3495.285,1391.832Z" fill="#352836"/>
          </g>
        </g>
      </g>
      <g id="Grupo_1197" data-name="Grupo 1197">
        <g id="Grupo_1192" data-name="Grupo 1192">
          <path id="Trazado_1863" data-name="Trazado 1863" d="M3564.464,1410.752l-5.28,54.56h-7.81l-2.86-54.56Z" fill="#d9dbdc"/>
          <path id="Trazado_1864" data-name="Trazado 1864" d="M3554.124,1463.882c8.784,0,8.56-.966,7.7,3.19H3544C3542.767,1455.944,3552.448,1456.619,3554.124,1463.882Z" fill="#be293c"/>
        </g>
        <g id="Grupo_1193" data-name="Grupo 1193">
          <path id="Trazado_1865" data-name="Trazado 1865" d="M3533.7,1336.5c-.587-9.606,10.99-10.78,15.326-10.78,15.246,0,19.673,17.88,24.567,48.253-2.86,1.541-5,1.716-9.313,1.467-.6-6.127-1.366-13.918-6.307-15.4C3555.114,1360.592,3533.719,1342.277,3533.7,1336.5Z" fill="#352836"/>
          <path id="Trazado_1866" data-name="Trazado 1866" d="M3533.7,1336.5c6.484,5.439,9.106,6.054,13.232,6.174.98.028,1.372-.344,2.594-.313,2.742-2.733,6.958,2.639,3.974,5.506.094,2.166,1.422,4.654,4.473,12.173a14.421,14.421,0,0,0-6.6,4.474l-2.053-4.62s-3.154,1.828-4.693,1.98c-3.741.366-5.145-4.137-6.014-6.454-3.706,1.455-2.888.242-2.888-3.82C3535.726,1343.176,3533.289,1344.739,3533.7,1336.5Z" fill="#ffa48f"/>
          <path id="Trazado_1867" data-name="Trazado 1867" d="M3535.581,1348.445l1.493-.356c1.705,4.2,5.665,3.153,4.034-2.127,6.753-2.886,6.717-2.856,9.4-4.018,1.088-.471,3.371.134,3.987,3,1.616-1.4-.981-5.906-4.913-3.981-.893.437-8.28,3.488-9.207,3.9-1.87-3.41-5.445-1.925-3.667,2.274l-1.243.379C3534.948,1347.759,3535.165,1348.547,3535.581,1348.445Zm2.157-4.335c.739-.338,1.783.727,2.365,2s.61,3.219-.128,3.557-1.785-.984-2.366-2.255S3537,1344.448,3537.738,1344.11Z" fill="#be293c"/>
        </g>
        <g id="Grupo_1196" data-name="Grupo 1196">
          <g id="Grupo_1194" data-name="Grupo 1194">
            <path id="Trazado_1868" data-name="Trazado 1868" d="M3544.444,1380.832c-2.775-7.772,6.489-20.268,14.3-21.12,8.829,2.74,7.858,29.631,8.36,49.72-.889,4.3-19.826,4.766-22.44.99-.145-10.587-.185-13.739.11-18.59C3544.774,1391.832,3544.774,1386.882,3544.444,1380.832Z" fill="#b5b8be"/>
            <path id="Trazado_1869" data-name="Trazado 1869" d="M3555.994,1394.692l.55,13.42c-2.75,1.1-6.559,1.2-8.36.22l-.55-13.53C3549.81,1395.648,3552.8,1395.572,3555.994,1394.692Z" fill="#d9dbdc"/>
          </g>
          <g id="Grupo_1195" data-name="Grupo 1195">
            <path id="Trazado_1870" data-name="Trazado 1870" d="M3535.205,1395.535l-21.23-6.049,8.8-10.891,19.8,6.49C3538.558,1390.626,3540.339,1388.1,3535.205,1395.535Z" fill="#b5b8be"/>
            <path id="Trazado_1871" data-name="Trazado 1871" d="M3524.766,1387.811l1.78-.7,7.69-13.691c-.183-.95-.711-1.3-1.6-.913l-7.9,14.172Z" fill="#f6be1f"/>
            <path id="Trazado_1872" data-name="Trazado 1872" d="M3533.151,1387.065s-3.623-.8-3.887-1.246c-1.1-1.87-2.643-2.937-3.446-.953-1.042-1.375-1.133-5.348,1.87-6.38,3.664-1.26,3.577,2.8,7,3.483Z" fill="#ffa48f"/>
            <path id="Trazado_1873" data-name="Trazado 1873" d="M3535.094,1379.622l9.35,2.09c2.6.037,7.3-10.01,9.35-12.723,3.6-4.762,9.007,1.359,8.14,4.473-2.346,8.433-11.55,18.682-13.75,18.095-.882-.235-12.32-2.42-15.95-3.465A17.388,17.388,0,0,1,3535.094,1379.622Z" fill="#d9dbdc"/>
          </g>
        </g>
      </g>
    </g>
  </g>
</svg>
