<svg xmlns="http://www.w3.org/2000/svg" width="152.443" height="152.443" viewBox="0 0 152.443 152.443">
  <g id="Grupo_2739" data-name="Grupo 2739" transform="translate(-852.044 -796.268)">
    <path id="Trazado_1217" data-name="Trazado 1217" d="M4044.077,3111.832q3.744,0,7.471.367t7.4,1.1q3.672.73,7.256,1.817t7.043,2.52q3.459,1.433,6.761,3.2t6.416,3.846q3.114,2.079,6.008,4.455t5.543,5.024q2.647,2.648,5.023,5.542t4.456,6.008q2.08,3.114,3.845,6.416t3.2,6.762q1.434,3.459,2.52,7.042t1.818,7.256q.73,3.673,1.1,7.4t.367,7.471q0,3.746-.367,7.471t-1.1,7.4q-.73,3.672-1.818,7.255t-2.52,7.043q-1.433,3.459-3.2,6.762t-3.845,6.416q-2.081,3.113-4.456,6.008t-5.023,5.542q-2.649,2.649-5.543,5.024t-6.008,4.455q-3.113,2.08-6.416,3.846t-6.761,3.2q-3.461,1.433-7.043,2.52t-7.256,1.817q-3.673.732-7.4,1.1t-7.471.367q-3.744,0-7.471-.367t-7.4-1.1q-3.673-.731-7.256-1.817t-7.043-2.52q-3.459-1.434-6.762-3.2t-6.416-3.846q-3.112-2.079-6.008-4.455t-5.542-5.024q-2.647-2.647-5.023-5.542t-4.456-6.008q-2.08-3.114-3.846-6.416t-3.2-6.762q-1.433-3.459-2.52-7.043t-1.817-7.255q-.731-3.673-1.1-7.4t-.367-7.471q0-3.744.367-7.471t1.1-7.4q.73-3.672,1.817-7.256t2.52-7.042q1.434-3.461,3.2-6.762t3.846-6.416q2.08-3.114,4.456-6.008t5.023-5.542q2.648-2.649,5.542-5.024t6.008-4.455q3.114-2.08,6.416-3.846t6.762-3.2q3.459-1.434,7.043-2.52t7.256-1.817q3.672-.732,7.4-1.1T4044.077,3111.832Z" transform="translate(-3115.811 -2315.564)" fill="#d76233"/>
    <circle id="Elipse_32" data-name="Elipse 32" cx="71.597" cy="71.597" r="71.597" transform="translate(856.669 800.893)" fill="#fff"/>
    <g id="Grupo_590" data-name="Grupo 590" transform="translate(-3115.811 -2315.564)">
      <path id="Trazado_1218" data-name="Trazado 1218" d="M4109.218,3188.128a65.034,65.034,0,1,1-65.033-65.032A65.033,65.033,0,0,1,4109.218,3188.128Z" fill="#495057"/>
      <path id="Trazado_1219" data-name="Trazado 1219" d="M4063.377,3153.346a2.273,2.273,0,0,0-1.89-.528l-3.383.574a2.81,2.81,0,0,1-.859.008l-4.734-4.73-.019-.019-.061-.057a1.89,1.89,0,0,0-.186-.178l-.057-.057c-.019-.016-.038-.027-.057-.042a1.863,1.863,0,0,0-.2-.141,1.126,1.126,0,0,0-.17-.095c-.061-.031-.119-.064-.179-.087a2.139,2.139,0,0,0-.369-.118,1.06,1.06,0,0,0-.107-.016,2.1,2.1,0,0,0-.3-.034c-.049,0-.106,0-.156,0-.087,0-.171.012-.254.023-.057.008-.114.019-.171.03-.084.02-.168.046-.251.073-.054.019-.1.034-.149.053a2.29,2.29,0,0,0-.38.2l-2.863,1.9a3.872,3.872,0,0,1-3.93,0l-2.867-1.9a2.311,2.311,0,0,0-3.231.688l-1.841,2.9a3.839,3.839,0,0,1-3.593,1.6l-3.379-.574a2.313,2.313,0,0,0-2.677,1.947l-.5,3.391a3.858,3.858,0,0,1-2.638,2.919l-3.315.86a2.309,2.309,0,0,0-1.654,2.862l.916,3.3a3.879,3.879,0,0,1-1.209,3.748l-2.7,2.137a2.315,2.315,0,0,0-.342,3.288l2.193,2.647a3.863,3.863,0,0,1,.407,3.912l-1.589,3.033a2.31,2.31,0,0,0-.2.574c-.012.054-.019.1-.027.156a2.43,2.43,0,0,0-.023.495c0,.034,0,.064,0,.1a2.313,2.313,0,0,0,.133.551c.015.042.038.088.057.13a2.478,2.478,0,0,0,.262.452c.008.012.015.027.023.039l.015.015a2.182,2.182,0,0,0,.4.4l5.41,5.421h0l-.2,3.171a2.319,2.319,0,0,0,2.209,2.467l3.357.141-10.094,21.149,30.968,30.964c.407-.009.809-.035,1.214-.051a65.045,65.045,0,0,0,60.276-54.653Z" fill="#343b43"/>
      <g id="Grupo_589" data-name="Grupo 589">
        <g id="Grupo_587" data-name="Grupo 587">
          <g id="Grupo_586" data-name="Grupo 586">
            <path id="Trazado_1220" data-name="Trazado 1220" d="M4029.94,3192.783l-13.987,29.331,10.831-3.84,3.84,10.835,13.983-29.331Z" fill="#ea6552"/>
            <path id="Trazado_1221" data-name="Trazado 1221" d="M4059.274,3192.783l13.991,29.331-10.831-3.84-3.836,10.835-13.99-29.331Z" fill="#ea6552"/>
          </g>
        </g>
        <path id="Trazado_1222" data-name="Trazado 1222" d="M4042.646,3150.1a3.862,3.862,0,0,0,3.934,0l2.859-1.9a2.308,2.308,0,0,1,3.232.687l1.836,2.9a3.856,3.856,0,0,0,3.6,1.6l3.383-.57a2.3,2.3,0,0,1,2.673,1.939l.5,3.391a3.865,3.865,0,0,0,2.634,2.927l3.319.86a2.312,2.312,0,0,1,1.654,2.866l-.92,3.293a3.863,3.863,0,0,0,1.213,3.744l2.7,2.141a2.312,2.312,0,0,1,.342,3.288l-2.189,2.643a3.866,3.866,0,0,0-.411,3.912l1.589,3.037a2.315,2.315,0,0,1-1.023,3.148l-3.071,1.525a3.864,3.864,0,0,0-1.97,3.41l.213,3.422a2.307,2.307,0,0,1-2.213,2.456l-3.425.144a3.865,3.865,0,0,0-3.186,2.319l-1.19,3.209a2.312,2.312,0,0,1-3.023,1.346l-3.193-1.263a3.865,3.865,0,0,0-3.847.822l-2.4,2.448a2.313,2.313,0,0,1-3.308,0l-2.4-2.448a3.864,3.864,0,0,0-3.847-.822l-3.193,1.263a2.306,2.306,0,0,1-3.019-1.346l-1.194-3.209a3.865,3.865,0,0,0-3.186-2.319l-3.425-.144a2.312,2.312,0,0,1-2.213-2.456l.217-3.422a3.865,3.865,0,0,0-1.97-3.41l-3.075-1.525a2.315,2.315,0,0,1-1.023-3.148l1.593-3.037a3.858,3.858,0,0,0-.414-3.912l-2.19-2.647a2.3,2.3,0,0,1,.346-3.284l2.7-2.141a3.856,3.856,0,0,0,1.217-3.741l-.924-3.3a2.31,2.31,0,0,1,1.654-2.862l3.323-.86a3.86,3.86,0,0,0,2.63-2.927l.5-3.391a2.307,2.307,0,0,1,2.677-1.939l3.383.57a3.85,3.85,0,0,0,3.593-1.6l1.836-2.9a2.311,2.311,0,0,1,3.236-.687Z" fill="#fece66"/>
        <path id="Trazado_1223" data-name="Trazado 1223" d="M4067.449,3179.214a22.838,22.838,0,1,1-22.838-22.834A22.841,22.841,0,0,1,4067.449,3179.214Z" fill="#f5b540"/>
        <g id="Grupo_588" data-name="Grupo 588">
          <rect id="Rect치ngulo_161" data-name="Rect치ngulo 161" width="5.163" height="21.305" transform="translate(4042.03 3168.565)" fill="#fff"/>
          <path id="Trazado_1224" data-name="Trazado 1224" d="M4038.152,3177.6v-5.163a3.881,3.881,0,0,0,3.878-3.874h5.162A9.048,9.048,0,0,1,4038.152,3177.6Z" fill="#fff"/>
          <rect id="Rect치ngulo_162" data-name="Rect치ngulo 162" width="12.914" height="5.163" transform="translate(4038.152 3187.289)" fill="#fff"/>
        </g>
      </g>
    </g>
  </g>
</svg>
