<svg xmlns="http://www.w3.org/2000/svg" width="152.443" height="152.443" viewBox="0 0 152.443 152.443">
  <g id="Grupo_2738" data-name="Grupo 2738" transform="translate(-438.891 -796.268)">
    <path id="Trazado_1201" data-name="Trazado 1201" d="M3630.923,3111.832q3.745,0,7.471.367t7.4,1.1q3.673.73,7.256,1.817t7.043,2.52q3.459,1.433,6.762,3.2t6.416,3.846q3.112,2.079,6.008,4.455t5.542,5.024q2.647,2.648,5.023,5.542t4.456,6.008q2.08,3.114,3.846,6.416t3.2,6.762q1.433,3.459,2.52,7.042t1.817,7.256q.731,3.673,1.1,7.4t.367,7.471q0,3.746-.367,7.471t-1.1,7.4q-.73,3.672-1.817,7.255t-2.52,7.043q-1.434,3.459-3.2,6.762t-3.846,6.416q-2.08,3.113-4.456,6.008t-5.023,5.542q-2.648,2.649-5.542,5.024t-6.008,4.455q-3.114,2.08-6.416,3.846t-6.762,3.2q-3.459,1.433-7.043,2.52t-7.256,1.817q-3.672.732-7.4,1.1t-7.471.367q-3.744,0-7.471-.367t-7.4-1.1q-3.672-.731-7.256-1.817t-7.043-2.52q-3.459-1.434-6.761-3.2t-6.416-3.846q-3.114-2.079-6.008-4.455t-5.543-5.024q-2.647-2.647-5.023-5.542t-4.456-6.008q-2.081-3.114-3.845-6.416t-3.2-6.762q-1.434-3.459-2.52-7.043t-1.818-7.255q-.731-3.673-1.1-7.4t-.367-7.471q0-3.744.367-7.471t1.1-7.4q.731-3.672,1.818-7.256t2.52-7.042q1.433-3.461,3.2-6.762t3.845-6.416q2.08-3.114,4.456-6.008t5.023-5.542q2.649-2.649,5.543-5.024t6.008-4.455q3.113-2.08,6.416-3.846t6.761-3.2q3.461-1.434,7.043-2.52t7.256-1.817q3.673-.732,7.4-1.1T3630.923,3111.832Z" transform="translate(-3115.811 -2315.564)" fill="#d76233"/>
    <g id="Grupo_2737" data-name="Grupo 2737">
      <circle id="Elipse_31" data-name="Elipse 31" cx="71.597" cy="71.597" r="71.597" transform="translate(443.515 800.893)" fill="#fff"/>
      <g id="Grupo_585" data-name="Grupo 585" transform="translate(-3115.811 -2315.564)">
        <path id="Trazado_1202" data-name="Trazado 1202" d="M3696.064,3188.052a65.129,65.129,0,1,1-65.128-65.129A65.132,65.132,0,0,1,3696.064,3188.052Z" fill="#495057"/>
        <path id="Trazado_1203" data-name="Trazado 1203" d="M3696.044,3188.917l-32.892-32.888c-.034-.034-.061-.061-.092-.095a.648.648,0,0,0-.094-.085,6.916,6.916,0,0,0-1.234-.967l-.741,1.194-2.36-2.36h0a13.968,13.968,0,0,0-3.185-.186l.091,1.856h0l8.051,8.054q-.036.756-.149,1.569l-11.077-11.077c-.943.2-1.944.457-2.968.775l.554,1.764,12.558,12.558c-.2.649-.423,1.316-.683,2l-15.293-15.3c-.91.362-1.843.774-2.783,1.211l.791,1.68c.017-.007.031-.014.048-.02l-.028.04,15.8,15.8c-.328.7-.68,1.4-1.052,2.117l-18.258-18.259c-.866.463-1.748.957-2.621,1.488l.94,1.586,2.942,2.941a26.019,26.019,0,0,0-5.393-1.893l-1.052-1.055c-.321.209-.649.419-.973.649a26.25,26.25,0,0,0-3.953-.3,26.561,26.561,0,0,0-3.08.2l-.014-.014c-.274.034-.561.068-.838.112a69.547,69.547,0,0,0-9.6-5.407c-8.548-3.881-15.155-4.125-18.6-.679a7.453,7.453,0,0,0-1.048,1.318l13.416,13.421c-.433.493-.852,1-1.251,1.531l-11.5-11.506h0l-1.822-.335a13.071,13.071,0,0,0-.21,2.36c0,.271.007.538.024.815l11.594,11.594c-.061.1-.125.21-.183.315l-9.193-9.194-1.815.372a29.055,29.055,0,0,0,.774,2.972l2.336,2.34-1.312.528c.362.9.764,1.839,1.211,2.772h0l2.235,2.235-.873.474c.463.855.957,1.737,1.478,2.62l2.177,2.177-.588.386c.21.328.419.656.646.984a26.558,26.558,0,0,0,0,7.881c-.227.335-.443.673-.663,1l1.072,1.072a26.044,26.044,0,0,0,1.9,5.386l-2.955-2.955-1.6-.94c-.52.883-1.018,1.765-1.481,2.62l18.252,18.252q-1.076.558-2.13,1.055l-15.811-15.81h0l-1.67-.791c-.447.933-.849,1.876-1.211,2.775l15.283,15.287c-.683.257-1.345.48-2,.68l-12.551-12.548-1.764-.545c-.318,1.025-.579,2.026-.771,2.966l11.056,11.06c-.541.074-1.065.125-1.569.145l-8.034-8.03v0h0l-1.849-.095c-.017.271-.024.541-.024.8a13.214,13.214,0,0,0,.21,2.38h0l2.35,2.35-1.19.74a7.482,7.482,0,0,0,1.048,1.322l32.99,32.987A65.11,65.11,0,0,0,3696.044,3188.917Z" fill="#343b43"/>
        <g id="Grupo_584" data-name="Grupo 584">
          <path id="Trazado_1204" data-name="Trazado 1204" d="M3663.057,3220.176l-1.312-1.311c2.82-2.82,2.431-8.839-1.058-16.521-3.669-8.074-10.279-17.109-18.607-25.436s-17.362-14.935-25.433-18.6c-7.682-3.493-13.7-3.878-16.521-1.062l-1.312-1.311c3.446-3.443,10.049-3.2,18.6.686,8.274,3.756,17.5,10.5,25.981,18.982s15.222,17.707,18.982,25.978C3666.259,3210.124,3666.5,3216.731,3663.057,3220.176Z" fill="#fff"/>
          <g id="Grupo_579" data-name="Grupo 579">
            <path id="Trazado_1205" data-name="Trazado 1205" d="M3598.814,3220.176a7.5,7.5,0,0,1-1.048-1.325l1.572-.98a5.741,5.741,0,0,0,.788.994Z" fill="#fff"/>
            <path id="Trazado_1206" data-name="Trazado 1206" d="M3596.6,3215.764a12.939,12.939,0,0,1-.21-2.383c0-.261.007-.525.021-.8l1.852.095c-.013.237-.016.473-.016.7a11.093,11.093,0,0,0,.175,2.042Zm2.029-5.9-1.819-.365a29.753,29.753,0,0,1,.771-2.972l1.771.551A27.72,27.72,0,0,0,3598.632,3209.867Zm1.7-5.518-1.721-.69c.362-.9.767-1.835,1.214-2.775l1.673.791C3601.07,3202.581,3600.677,3203.48,3600.329,3204.349Zm2.485-5.291-1.633-.873c.46-.865.961-1.748,1.481-2.627l1.6.944C3603.751,3197.36,3603.264,3198.219,3602.814,3199.058ZM3605.8,3194l-1.558-1q.8-1.242,1.673-2.5l1.525,1.058C3606.872,3192.376,3606.324,3193.2,3605.8,3194Zm3.358-4.839-1.488-1.1q.882-1.187,1.823-2.384l1.457,1.149C3610.334,3187.6,3609.739,3188.387,3609.161,3189.164Zm3.651-4.632-1.423-1.187q.948-1.141,1.954-2.275l1.39,1.224Q3613.749,3183.415,3612.812,3184.532Zm3.9-4.426-1.36-1.261q1.01-1.091,2.066-2.174l1.329,1.3Q3617.7,3179.031,3616.715,3180.106Zm4.121-4.23-1.295-1.325c.72-.7,1.447-1.393,2.171-2.069l1.261,1.359Q3621.9,3174.84,3620.836,3175.876Zm4.328-4.013-1.227-1.39c.757-.67,1.518-1.322,2.275-1.954l1.19,1.42C3626.655,3170.564,3625.908,3171.2,3625.164,3171.863Zm4.527-3.784-1.149-1.454q1.2-.943,2.383-1.826l1.106,1.488Q3630.865,3167.154,3629.691,3168.079Zm4.734-3.51-1.058-1.521q1.257-.878,2.5-1.677l1.005,1.559Q3635.652,3163.716,3634.425,3164.569Zm4.943-3.185-.946-1.6c.882-.52,1.764-1.021,2.627-1.481l.876,1.634C3641.086,3160.39,3640.227,3160.874,3639.368,3161.384Zm5.17-2.762-.791-1.677c.94-.443,1.873-.852,2.776-1.214l.69,1.721C3646.344,3157.8,3645.444,3158.192,3644.538,3158.622Zm5.407-2.147-.551-1.768a29.264,29.264,0,0,1,2.972-.771l.365,1.815A28.222,28.222,0,0,0,3649.945,3156.475Zm8.345-.937a11.935,11.935,0,0,0-2.749-.155l-.091-1.85a13.566,13.566,0,0,1,3.178.183Z" fill="#fff"/>
            <path id="Trazado_1207" data-name="Trazado 1207" d="M3661.745,3157.242a5.684,5.684,0,0,0-.99-.788l.98-1.572a7.371,7.371,0,0,1,1.322,1.049Z" fill="#fff"/>
          </g>
          <g id="Grupo_582" data-name="Grupo 582">
            <path id="Trazado_1208" data-name="Trazado 1208" d="M3657.265,3188.062a26.329,26.329,0,1,1-26.329-26.34A26.321,26.321,0,0,1,3657.265,3188.062Z" fill="#fece66"/>
            <path id="Trazado_1209" data-name="Trazado 1209" d="M3651.987,3188.062A21.055,21.055,0,1,1,3630.936,3167,21.038,21.038,0,0,1,3651.987,3188.062Z" fill="#f5b540"/>
            <g id="Grupo_581" data-name="Grupo 581">
              <g id="Grupo_580" data-name="Grupo 580">
                <path id="Trazado_1210" data-name="Trazado 1210" d="M3633.147,3189.8h-4.423a6.921,6.921,0,0,1-6.894-6.9,6.875,6.875,0,0,1,6.894-6.9h9.572v3.483h-9.572a3.422,3.422,0,0,0,0,6.844h4.423Z" fill="#fece66"/>
                <path id="Trazado_1211" data-name="Trazado 1211" d="M3633.147,3200.112h-9.576v-3.468h9.576a3.441,3.441,0,0,0,3.429-3.422,3.32,3.32,0,0,0-1-2.4,3.414,3.414,0,0,0-2.431-1.025h-4.423v-3.468h4.423a6.9,6.9,0,0,1,4.879,11.776A6.932,6.932,0,0,1,3633.147,3200.112Z" fill="#fece66"/>
                <rect id="Rectángulo_160" data-name="Rectángulo 160" width="3.472" height="26.519" transform="translate(3629.201 3174.804)" fill="#fece66"/>
              </g>
            </g>
          </g>
          <g id="Grupo_583" data-name="Grupo 583">
            <path id="Trazado_1212" data-name="Trazado 1212" d="M3661.735,3221.225l-.98-1.576a5.487,5.487,0,0,0,.99-.784l1.312,1.311A7.5,7.5,0,0,1,3661.735,3221.225Z" fill="#fff"/>
            <path id="Trazado_1213" data-name="Trazado 1213" d="M3656.264,3222.594c-.26,0-.527-.007-.8-.02l.092-1.85a11.839,11.839,0,0,0,2.745-.162l.345,1.826A13.344,13.344,0,0,1,3656.264,3222.594Zm-3.881-.419a30.208,30.208,0,0,1-2.973-.768l.555-1.771a27.7,27.7,0,0,0,2.786.72Zm-5.84-1.8c-.9-.358-1.832-.764-2.779-1.21l.791-1.677c.913.429,1.812.822,2.675,1.167Zm-5.477-2.569c-.863-.463-1.745-.961-2.627-1.481l.946-1.6c.856.507,1.718.994,2.557,1.44Zm-5.187-3.067c-.825-.531-1.657-1.092-2.495-1.674l1.055-1.521q1.232.852,2.448,1.636Zm-4.937-3.425c-.791-.589-1.589-1.2-2.383-1.826l1.146-1.454c.784.615,1.562,1.214,2.343,1.792Zm-4.713-3.72c-.761-.632-1.518-1.284-2.279-1.954l1.228-1.39c.747.66,1.491,1.3,2.238,1.925Zm-4.5-3.962q-1.085-1.014-2.17-2.07l1.3-1.325q1.065,1.035,2.14,2.035Zm-4.29-4.19q-1.056-1.08-2.066-2.17l1.359-1.262q.995,1.071,2.035,2.137Zm-4.078-4.4q-1-1.136-1.954-2.276l1.423-1.19q.933,1.121,1.921,2.238Zm-3.848-4.6c-.629-.8-1.237-1.593-1.826-2.384l1.488-1.106q.867,1.167,1.8,2.34Zm-3.581-4.822q-.872-1.257-1.673-2.5l1.558-1.008q.781,1.217,1.64,2.448Zm-3.256-5.058c-.524-.883-1.024-1.768-1.484-2.627l1.636-.876c.447.835.934,1.7,1.441,2.556Zm-2.843-5.326c-.443-.94-.852-1.873-1.214-2.779l1.721-.686c.348.869.74,1.768,1.17,2.674Zm-2.239-5.646a28.7,28.7,0,0,1-.77-2.969l1.815-.368a28.085,28.085,0,0,0,.724,2.786Zm-1.176-6.053c-.014-.277-.021-.551-.021-.818a12.957,12.957,0,0,1,.207-2.36l1.822.338a11.16,11.16,0,0,0-.172,2.022c0,.237,0,.481.016.724Z" fill="#fff"/>
            <path id="Trazado_1214" data-name="Trazado 1214" d="M3599.338,3158.236l-1.572-.984a7.508,7.508,0,0,1,1.048-1.321l1.312,1.311A5.581,5.581,0,0,0,3599.338,3158.236Z" fill="#fff"/>
          </g>
          <path id="Trazado_1215" data-name="Trazado 1215" d="M3605.61,3222.591a9.24,9.24,0,0,1-6.8-2.418l1.312-1.308c2.817,2.816,8.839,2.427,16.521-1.062,8.071-3.672,17.1-10.279,25.433-18.607s14.938-17.362,18.607-25.433c3.492-7.682,3.878-13.7,1.062-16.521l1.308-1.311c3.445,3.445,3.2,10.048-.683,18.6-3.76,8.271-10.5,17.495-18.982,25.978s-17.707,15.222-25.981,18.982C3612.866,3221.556,3608.873,3222.591,3605.61,3222.591Z" fill="#fff"/>
        </g>
      </g>
    </g>
  </g>
</svg>
