<svg xmlns="http://www.w3.org/2000/svg" xmlns:xlink="http://www.w3.org/1999/xlink" width="393.151" height="275.143" viewBox="0 0 393.151 275.143">
  <defs>
    <linearGradient id="linear-gradient" x1="320.386" y1="-190.736" x2="320.559" y2="-190.736" gradientUnits="objectBoundingBox">
      <stop offset="0.357" stop-color="#5f5b69"/>
      <stop offset="0.682"/>
    </linearGradient>
    <radialGradient id="radial-gradient" cx="-828.166" cy="-354.788" r="0.82" gradientTransform="matrix(0.399, 0.708, -0.402, 0.71, 0.563, -0.168)" gradientUnits="objectBoundingBox">
      <stop offset="0.318"/>
      <stop offset="0.655" stop-color="#5f5b69"/>
    </radialGradient>
    <linearGradient id="linear-gradient-2" x1="-0.009" y1="1.016" x2="0.994" y2="1.016" gradientUnits="objectBoundingBox">
      <stop offset="0" stop-color="#e8e6eb"/>
      <stop offset="0.157" stop-color="#fbfbfd"/>
    </linearGradient>
    <linearGradient id="linear-gradient-3" x1="0.495" y1="0.524" x2="0.558" y2="0.37" gradientUnits="objectBoundingBox">
      <stop offset="0" stop-color="#e0906b"/>
      <stop offset="1" stop-color="#bf7451"/>
    </linearGradient>
    <linearGradient id="linear-gradient-4" x1="-0.017" y1="1.27" x2="0.985" y2="1.27" gradientUnits="objectBoundingBox">
      <stop offset="0.278" stop-color="#e8e6eb"/>
      <stop offset="0.475" stop-color="#b2c2b7"/>
    </linearGradient>
    <linearGradient id="linear-gradient-5" x1="750.417" y1="-114.022" x2="750.639" y2="-114.022" gradientUnits="objectBoundingBox">
      <stop offset="0" stop-color="#9698a2"/>
      <stop offset="0.196" stop-color="#bfc2cd"/>
      <stop offset="0.698" stop-color="#bfc2cd"/>
      <stop offset="0.922" stop-color="#d5d7e2"/>
    </linearGradient>
    <linearGradient id="linear-gradient-6" x1="6789.543" y1="26.145" x2="6791.168" y2="26.145" gradientUnits="objectBoundingBox">
      <stop offset="0.357" stop-color="#5f5b69"/>
      <stop offset="0.824"/>
    </linearGradient>
    <linearGradient id="linear-gradient-7" x1="6778.445" y1="25.46" x2="6780.068" y2="25.46" xlink:href="#linear-gradient-6"/>
    <linearGradient id="linear-gradient-8" x1="6783.729" y1="25.576" x2="6785.352" y2="25.576" xlink:href="#linear-gradient-6"/>
    <linearGradient id="linear-gradient-9" x1="6780.834" y1="24.074" x2="6782.457" y2="24.074" xlink:href="#linear-gradient-6"/>
    <linearGradient id="linear-gradient-10" x1="6780.858" y1="22.447" x2="6782.481" y2="22.447" xlink:href="#linear-gradient-6"/>
    <linearGradient id="linear-gradient-11" x1="6786.668" y1="22.61" x2="6788.293" y2="22.61" xlink:href="#linear-gradient-6"/>
    <linearGradient id="linear-gradient-12" x1="6454.059" y1="24.237" x2="6455.604" y2="24.237" xlink:href="#linear-gradient-6"/>
    <linearGradient id="linear-gradient-13" x1="6775.664" y1="24.993" x2="6777.287" y2="24.993" xlink:href="#linear-gradient-6"/>
    <linearGradient id="linear-gradient-14" x1="6775.521" y1="22.836" x2="6777.145" y2="22.836" xlink:href="#linear-gradient-6"/>
    <linearGradient id="linear-gradient-15" x1="6775.892" y1="25.228" x2="6777.515" y2="25.228" xlink:href="#linear-gradient-6"/>
    <linearGradient id="linear-gradient-16" x1="6773.021" y1="22.918" x2="6774.644" y2="22.918" xlink:href="#linear-gradient-6"/>
    <linearGradient id="linear-gradient-17" x1="0.31" y1="-0.037" x2="0.907" y2="0.951" gradientUnits="objectBoundingBox">
      <stop offset="0.196" stop-color="#e7f5fa"/>
      <stop offset="0.604" stop-color="#a8b9be"/>
    </linearGradient>
    <linearGradient id="linear-gradient-18" x1="0.335" y1="0.026" x2="0.833" y2="1.116" gradientUnits="objectBoundingBox">
      <stop offset="0.196" stop-color="#666"/>
      <stop offset="0.604"/>
    </linearGradient>
    <linearGradient id="linear-gradient-19" x1="343.868" y1="-134.3" x2="344.056" y2="-134.3" xlink:href="#linear-gradient"/>
  </defs>
  <g id="Grupo_3434" data-name="Grupo 3434" transform="translate(-527.398 -4878.892)">
    <g id="Grupo_1860" data-name="Grupo 1860" transform="translate(-3071.29)">
      <path id="Trazado_11894" data-name="Trazado 11894" d="M3894.957,4915.327q3.054-1.779,3.055-4.257t-3.055-4.257a14.613,14.613,0,0,0-7.387-1.753,14.229,14.229,0,0,0-7.363,1.753q-3.054,1.753-3.054,4.257a4.6,4.6,0,0,0,2.078,3.556,8.527,8.527,0,0,0,1.027.676,13.436,13.436,0,0,0,5.384,1.678,18.865,18.865,0,0,0,1.952.1A14.571,14.571,0,0,0,3894.957,4915.327Zm-1.9-7.287a1.148,1.148,0,0,1,.7.976,1.2,1.2,0,0,1-.7,1l-1.829,1.052,1.829,1.052a1.015,1.015,0,0,1-.025,1.953l-.226.15a3.672,3.672,0,0,1-1.7.426,3.62,3.62,0,0,1-1.727-.426l-1.828-1.052-1.8,1.052a3.983,3.983,0,0,1-3.431.025l-.25-.15a1.226,1.226,0,0,1-.727-1,1.262,1.262,0,0,1,.752-.976l1.8-1.052-1.828-1.077a1.134,1.134,0,0,1-.7-.951,1.163,1.163,0,0,1,.726-1l.225-.15a3.524,3.524,0,0,1,1.728-.4,3.383,3.383,0,0,1,1.7.4l1.828,1.077,1.828-1.052a3.165,3.165,0,0,1,1.677-.426,3.434,3.434,0,0,1,1.728.4Zm10.392.776,2.3-1.327q2.1-1.227,0-2.454l-7.737-4.457a3.911,3.911,0,0,0-4.207,0l-2.3,1.327Zm4.256-4.908q4.058,2.353,0,4.708l-2.3,1.327,4.432,2.554q3.079,1.778,0,3.556l-13.6,7.838a1.214,1.214,0,0,0-.2.125,5.756,5.756,0,0,1-5.96-.125l-24.74-14.274q-3.081-1.778,0-3.555l13.6-7.838a5.781,5.781,0,0,1,6.16,0l4.458,2.554,2.3-1.327a7.581,7.581,0,0,1,8.114,0Zm12.521,33.355q-.5-.352-1.027-.677a1.054,1.054,0,0,1-.526-.9,1.1,1.1,0,0,1,.726-.851,2.274,2.274,0,0,1,.827-.251,2.752,2.752,0,0,1,.751-.05,2.607,2.607,0,0,1,1.478.4q2.052,1.351,4.006,2.7a.9.9,0,0,1,.45.926q-.074.5-.8.827a3.109,3.109,0,0,1-1.552.275,2.684,2.684,0,0,1-1.428-.475Q3921.7,4938.215,3920.223,4937.263Zm37.135,35.107q-2.178.075-4.256.325a1.124,1.124,0,0,0-.051-.125.735.735,0,0,1,.2-.927,2.344,2.344,0,0,1,1.3-.55,3.116,3.116,0,0,1,1.627.125,1.523,1.523,0,0,1,1,.751A3.926,3.926,0,0,1,3957.358,4972.37Zm-9.816-10.518a1.85,1.85,0,0,1,1.177-.626,3,3,0,0,1,1.628,0,1.747,1.747,0,0,1,1.127.677q1.152,1.627,2.153,3.305a.743.743,0,0,1-.1.951,2.294,2.294,0,0,1-1.227.626,3.44,3.44,0,0,1-1.653-.05,1.8,1.8,0,0,1-1.077-.7q-1-1.677-2.053-3.23A.715.715,0,0,1,3947.542,4961.852Zm-3.856-9.565q1.5,1.552,2.855,3.18a.654.654,0,0,1,.075.9,1.762,1.762,0,0,1-1.077.726,3.452,3.452,0,0,1-1.653.05,2.181,2.181,0,0,1-1.227-.6q-1.276-1.553-2.729-3.1a.723.723,0,0,1-.15-.9,1.625,1.625,0,0,1,1.026-.751,3.463,3.463,0,0,1,1.6-.075A1.95,1.95,0,0,1,3943.686,4952.287Zm-13.3-7.588a.857.857,0,0,1-.325-.926q.125-.527.9-.776a3.112,3.112,0,0,1,1.578-.2,2.141,2.141,0,0,1,1.4.526q1.777,1.428,3.431,2.905a.765.765,0,0,1,.325.9,1.554,1.554,0,0,1-.926.8,3.193,3.193,0,0,1-1.6.15,2.421,2.421,0,0,1-1.377-.526Q3932.117,4946.127,3930.389,4944.7Zm22.838,50.658,15.475-8.939,7.512,4.332q3.205,1.852,3.2,4.457,0,2.654-3.2,4.507a15.1,15.1,0,0,1-7.763,1.828,15.689,15.689,0,0,1-6.786-1.377q-.476-.225-.926-.476Zm5.884-14.474,7.513,4.333-15.476,8.939-7.512-4.332q-3.205-1.853-3.23-4.457.024-2.6,3.23-4.457a15.375,15.375,0,0,1,7.738-1.878A15.217,15.217,0,0,1,3959.111,4980.883Zm-1.327,38.313-.5,1.1a1.675,1.675,0,0,1-1,.726,2.961,2.961,0,0,1-1.628.15,2.778,2.778,0,0,1-1.328-.551.735.735,0,0,1-.2-.926l.351-.8Q3955.556,5019.121,3957.784,5019.2ZM3908.6,5052.9a20.739,20.739,0,0,1,1.928,1.126,2.326,2.326,0,0,1,1.177,1.378q.2.576-.6.951a2.8,2.8,0,0,1-1.027.226,6.127,6.127,0,0,1-1.452-.025,11.4,11.4,0,0,1-1.427-.251l-3.281,1.828a30.541,30.541,0,0,0-3.956,2.58,18.49,18.49,0,0,0-1.9,1.6,7.651,7.651,0,0,0-1.453,1.753,2.479,2.479,0,0,0-.475,1.027,16.392,16.392,0,0,0-.3,3.38v.075q0,1.452.075,2.98v.1a5.7,5.7,0,0,1-.951,3.206,4.527,4.527,0,0,1-2.1,1.627,9.674,9.674,0,0,1-1.953.551,10.208,10.208,0,0,1-2.379.075,17.236,17.236,0,0,1-3.205-.626q-.475-.15-.926-.3l-.351-.15a25.961,25.961,0,0,1-3.206-1.5c-.283-.15-.559-.309-.826-.476q-1.953-1.176-3.981-2.328-2-1.178-4.032-2.305a20.859,20.859,0,0,1-3.43-2.328,5.224,5.224,0,0,1-1.853-2.579,1.867,1.867,0,0,1,.125-1.378q.927-1.727,3.781-2.329a26.832,26.832,0,0,1,5.735-.55l5.308.05q2.93,0,5.809-.2a18.065,18.065,0,0,0,1.8-.251,24.844,24.844,0,0,0,3.029-.851q1.4-.5,2.755-1.1a48.879,48.879,0,0,0,4.482-2.279l3.155-1.9a3.549,3.549,0,0,1-.425-.826,1.364,1.364,0,0,1-.076-.852.883.883,0,0,1,.4-.576,2.247,2.247,0,0,1,1.7-.325,5.522,5.522,0,0,1,2.379.676A18.835,18.835,0,0,1,3908.6,5052.9Zm-3.256-.977-.15.075a12.48,12.48,0,0,0,1.6,1.227q1.2.852,1.653,1.1l1.552.9a1.526,1.526,0,0,0,.7,0l-.025-.376q-1.7-.951-4.156-2.529Q3905.625,5051.749,3905.348,5051.924Zm-12.269,9.941a6.243,6.243,0,0,0-2.73-.451q-1.5.076-2.979.176-1.428.075-2.906.125-2.127.026-4.281.025l13.121,7.588q0-1.252.05-2.479a10.748,10.748,0,0,1,.225-1.679q.175-.85.276-1.727A1.763,1.763,0,0,0,3893.079,5061.865Zm-.852,8.614a3.784,3.784,0,0,0-.726.326,7.617,7.617,0,0,0-.375,1.477,3.389,3.389,0,0,1-1.7,2.229,4.532,4.532,0,0,1-3.03.376,14.082,14.082,0,0,1-3.431-1.127q-.775-.351-1.653-.827.828.627,1.328.952c.117.067.217.125.3.175a15.835,15.835,0,0,0,3.08,1.4,6.884,6.884,0,0,0,2.7.325,8.217,8.217,0,0,0,3.005-1.177,3.319,3.319,0,0,0,1.628-2.7v-.2Q3893.429,5070.1,3892.227,5070.479Zm28.522-12.72a14.765,14.765,0,0,0-1.3-2,.3.3,0,0,1,.074-.05q1.98-1.277,3.857-2.629a2.542,2.542,0,0,1,1.427-.451,3.519,3.519,0,0,1,1.578.276,1.189,1.189,0,0,1,.8.851q.1.5-.5.9-1.905,1.328-3.957,2.705a3.156,3.156,0,0,1-1.478.4Zm10.367-8.414a1.377,1.377,0,0,1-.877-.776.872.872,0,0,1,.376-.927q1.728-1.427,3.33-2.88a2.5,2.5,0,0,1,1.352-.525,3.213,3.213,0,0,1,1.6.15,1.567,1.567,0,0,1,.952.8.791.791,0,0,1-.3.9q-1.653,1.478-3.406,2.929a2.371,2.371,0,0,1-1.377.526A3.835,3.835,0,0,1,3931.116,5049.345Zm21.309-23.839a1.994,1.994,0,0,1,1.2.651.714.714,0,0,1,.075.952q-.976,1.627-2.128,3.28a1.832,1.832,0,0,1-1.127.7,3.556,3.556,0,0,1-1.628.025,1.94,1.94,0,0,1-1.177-.651.753.753,0,0,1-.024-.951q1.05-1.6,2.053-3.231a1.633,1.633,0,0,1,1.077-.726A3.558,3.558,0,0,1,3952.425,5025.506Zm-12.545,14.274a.8.8,0,0,1,.175-.927q1.428-1.529,2.705-3.055a2.088,2.088,0,0,1,1.227-.626,3.359,3.359,0,0,1,1.677.075,1.925,1.925,0,0,1,1.1.676.81.81,0,0,1-.125.977q-1.353,1.553-2.805,3.1a2.155,2.155,0,0,1-1.277.626,3.767,3.767,0,0,1-1.628-.1A1.642,1.642,0,0,1,3939.88,5039.78Zm-113.86-135.346a3.171,3.171,0,0,1,1.627-.225q3.03.275,6.06.6a2.476,2.476,0,0,1,1.352.526.834.834,0,0,1,.326.951,1.479,1.479,0,0,1-.9.776,3.429,3.429,0,0,1-1.6.176q-2.9-.351-5.884-.6a2.484,2.484,0,0,1-1.377-.5.812.812,0,0,1-.426-.877A1.342,1.342,0,0,1,3826.02,4904.434Zm-9.391,1.077a3.372,3.372,0,0,1-1.577.3q-2.981-.176-5.985-.25a2.854,2.854,0,0,1-1.5-.4.964.964,0,0,1-.525-.876,1.1,1.1,0,0,1,.726-.877,3.273,3.273,0,0,1,1.527-.325q3.13.1,6.135.275a2.836,2.836,0,0,1,1.453.426.955.955,0,0,1,.526.9A1.246,1.246,0,0,1,3816.629,4905.511Zm34.932,2a2.119,2.119,0,0,1,1.227.651.69.69,0,0,1,.125.927,1.721,1.721,0,0,1-1.051.7,3.976,3.976,0,0,1-1.653.1q-2.829-.551-5.734-1.027a2.327,2.327,0,0,1-1.277-.576.753.753,0,0,1-.176-.926,1.433,1.433,0,0,1,1-.751,3.183,3.183,0,0,1,1.627-.126Q3848.606,4906.964,3851.561,4907.514Zm-34.531,59.146,20.959,12.02-1.6.926-20.959-12.019Zm-1.8,3.231,17.328,9.941-1.627.926-17.329-9.941Zm-42.219-84.212,11.043,6.385q2.079,1.176.025,2.354l-3.881,2.253a3.963,3.963,0,0,1-4.157,0L3765,4890.286q-2.054-1.178.025-2.354l3.882-2.253A3.873,3.873,0,0,1,3773.008,4885.679Zm21.886,19.807v-2.454q.8-.026,1.6-.025a2.941,2.941,0,0,1,1.5.35c.45.217.668.509.651.877q.05.475-.551.876a2.994,2.994,0,0,1-1.528.351Q3795.72,4905.485,3794.894,4905.486Zm-21.085-7.512q2.079,1.176.026,2.353l-16,9.24a3.927,3.927,0,0,1-4.156.026l-11.043-6.386q-2.054-1.178.025-2.379l16-9.24a3.877,3.877,0,0,1,4.107,0Zm2.4,1-15.174-8.739,1.477-.877,15.175,8.74Zm-29.9,1.352a2.824,2.824,0,0,0-1.478.376.882.882,0,0,0,0,1.7l1.453.851,3-1.728-1.453-.851A3.075,3.075,0,0,0,3746.315,4900.327Zm1.853,4.007a2.82,2.82,0,0,0,1.477.376,3.03,3.03,0,0,0,1.5-.351,1.058,1.058,0,0,0,.626-.877.994.994,0,0,0-.6-.876l-1.453-.826-3,1.727Zm14.2-2.254a2.649,2.649,0,0,0-1.377-.5,3.259,3.259,0,0,0-1.578.176,1.371,1.371,0,0,0-.9.8l-.376,1.152,4.157.476.375-1.177A.869.869,0,0,0,3762.366,4902.08Zm-.576,3.606.4-1.177-4.182-.476-.426,1.177a.717.717,0,0,0,.175.726,1.173,1.173,0,0,0,.2.2,2.386,2.386,0,0,0,1.352.526,3.515,3.515,0,0,0,1.577-.2,1.583,1.583,0,0,0,.852-.676Zm-4.232-2.679a.994.994,0,0,0-.6-.877l-1.452-.826-3,1.728,1.452.826a3.19,3.19,0,0,0,3.005,0Q3757.583,4903.507,3757.558,4903.007Zm-5.434-3.155a3.02,3.02,0,0,0-1.5.35.94.94,0,0,0,0,1.753l1.477.851,3-1.727-1.477-.852A2.875,2.875,0,0,0,3752.124,4899.852Zm-1.027,5.684a1.056,1.056,0,0,0,.626.876l1.478.827,3.005-1.728-1.478-.827a2.869,2.869,0,0,0-1.5-.375,2.817,2.817,0,0,0-1.477.375A1.072,1.072,0,0,0,3751.1,4905.536Zm6.962,1.052-1.453-.827-3,1.728,1.453.826a2.773,2.773,0,0,0,1.377.376h.125a3.374,3.374,0,0,0,1.2-.2l.3-.151a.926.926,0,0,0,0-1.752Zm-16.978,64.955,10.968-6.335a14.668,14.668,0,0,1,15.625,0l16.6,9.591q4.158,2.4,3.907,4.807-.25,2.1-3.907,4.207l-10.992,6.361,26.392,15.249a.3.3,0,0,0-.074.05,18.872,18.872,0,0,0-2.63,4.132q-1.051,2.529-1.752,3.957a13.985,13.985,0,0,1-3.056,4.081,66.825,66.825,0,0,1-8.639,6.836,43.061,43.061,0,0,1-5.584,3.506l-4.858,2.78a70.8,70.8,0,0,0-25.641,10.091l-65.682-37.937,56.792-32.8,2.5,1.452Zm16.051-.05-1.627.927,17.328,9.941,1.628-.927Zm1.8-3.23-1.6.927,20.959,12.019,1.6-.926Zm20.208-7.187a6.542,6.542,0,0,1-2.153-1.828c-.134-.284-.084-.484.15-.6q2.5-1.452,7.462-1.052a33.039,33.039,0,0,1,7.212,1.278,15.454,15.454,0,0,1,2.93,1.352c.183.1.476.284.876.551q.777.5,1.052.726,2.628,3.1,2.829,5.409a3.257,3.257,0,0,1-1.8,3.33q-1.126.65-3.906-.751-.45-.226-7.587-4.332Q3780.62,4961.978,3779.143,4961.076Zm26.919-1.327a8.861,8.861,0,0,1-2.88.977,9.556,9.556,0,0,1-2.98.075,17.055,17.055,0,0,1-2.228-.451,13.176,13.176,0,0,1-1.853-.926,8.121,8.121,0,0,1-1.753-1.227,3.086,3.086,0,0,1-.576-2.48,10.475,10.475,0,0,1,.626-1.076,3.533,3.533,0,0,1,1.127-.952,9.742,9.742,0,0,1,5.734-1.152,10.676,10.676,0,0,1,4.583,1.252,4.7,4.7,0,0,1,1.828,1.778,2.608,2.608,0,0,1,.426,1.578,2.565,2.565,0,0,1-.527,1.177A4.763,4.763,0,0,1,3806.062,4959.749Zm-24.089,52.06,1.628-.927-21.26-12.194-1.628.926Zm-3.731,2.128,1.627-.926-21.259-12.2-1.628.927Zm7.462-4.257,1.6-.926-21.259-12.195-1.6.927Zm-11.193,6.386,1.627-.927-21.259-12.2-1.628.927Zm-21.035-23.964a2.9,2.9,0,0,1-1.652,2.053,10.859,10.859,0,0,1-3.706,1.027,24.583,24.583,0,0,1-6.085-.125,44.665,44.665,0,0,0-7.062-.276,9.046,9.046,0,0,0-.551-4.107,4.886,4.886,0,0,1-.2-3.53,4.593,4.593,0,0,1,1.778-2.129,7.31,7.31,0,0,1,3.556-.951,8.8,8.8,0,0,1,4.457.876q2.053.976,1.628,2.78a10.4,10.4,0,0,1-.326,1.076q.827-.1,1.828-.2a7.368,7.368,0,0,1,4.833.926Q3753.751,4990.749,3753.476,4992.1Zm-3.956,13.9,16.1,9.24,1.628-.926-16.1-9.24Zm-17.5,10.067-1.628.926,21.259,12.195,1.628-.926Zm3.73-2.129-1.627.927,21.26,12.2,1.627-.927Zm3.732-2.128-1.628.926,21.259,12.2,1.628-.926Zm3.706-2.129-1.6.927,21.26,12.195,1.6-.927Zm19.556-18.68-21.259-12.22-21.26,12.2,21.26,12.22Zm-19.907,37.411,1.628-.927-16.177-9.29-1.627.927Zm-70.715,21.46-1.127,3.055a2.392,2.392,0,0,1-.651-.326q-1.9-1.4-3.706-2.855a.814.814,0,0,1-.376-.9,1.374,1.374,0,0,1,.9-.8,3.1,3.1,0,0,1,1.552-.225,2.5,2.5,0,0,1,1.378.475Q3671.092,5049.094,3672.119,5049.871Zm207.212,15.3a1.071,1.071,0,0,0,.6.852h.025a3.287,3.287,0,0,0,2.855,0h.025a1,1,0,0,0,.576-.852q.025-.45-.576-.8h-.025a2.914,2.914,0,0,0-1.452-.375,2.762,2.762,0,0,0-1.377.375h-.026A1.053,1.053,0,0,0,3879.331,5065.17Zm-.551,2.329h-.025a1.34,1.34,0,0,0-.726-.175,1.291,1.291,0,0,0-.7.175h-.025a.444.444,0,0,0-.275.426.5.5,0,0,0,.275.426h.025a1.418,1.418,0,0,0,.726.175,1.366,1.366,0,0,0,.7-.175h.025a.5.5,0,0,0,.276-.426A.445.445,0,0,0,3878.78,5067.5Zm2.6,1a1.782,1.782,0,0,0,1,.226,1.973,1.973,0,0,0,.977-.226.778.778,0,0,0,.45-.6c0-.2-.141-.384-.425-.551h-.025a1.977,1.977,0,0,0-.977-.275,2.119,2.119,0,0,0-1,.275.608.608,0,0,0-.025,1.152Zm-152.9-153.976a1.651,1.651,0,0,1-1.052.727q-2.655.8-5.259,1.677a3.906,3.906,0,0,1-1.652.1,2.115,2.115,0,0,1-1.277-.55.837.837,0,0,1-.226-.977,1.474,1.474,0,0,1,1-.726q2.7-.9,5.434-1.728a3.531,3.531,0,0,1,1.627-.075,1.944,1.944,0,0,1,1.252.626A.714.714,0,0,1,3728.486,4914.525Zm-24.766,6.887a1.267,1.267,0,0,1,.827-.827q2.5-1.075,5.033-2.028a3.005,3.005,0,0,1,1.6-.175,2.391,2.391,0,0,1,1.377.5.792.792,0,0,1,.325.926,1.305,1.305,0,0,1-.9.776q-2.479.953-4.883,2a3.534,3.534,0,0,1-1.578.2,2.521,2.521,0,0,1-1.4-.5Q3703.57,4921.887,3703.72,4921.412Zm-27.069,10.617-2.8-.526-6.686,17.729-2.028-.376-.551,1.428-4.232-.751-3.857,7.462,1.778-7.838-4.181-.776.551-1.428-2.054-.375,6.686-17.754-2.8-.5.475-1.227,8.915,1.6.8-2.1-5.859-1.077.475-1.227,14.1,2.58-.476,1.226-5.909-1.076-.777,2.128,8.94,1.628Zm-15.55-1.978-4.482,11.869,10.341,1.878,4.483-11.844Zm-12.9,38.412a.8.8,0,0,1,.15.952q-.85,1.653-1.577,3.33a1.86,1.86,0,0,1-1,.751,3.423,3.423,0,0,1-1.653.151,2.489,2.489,0,0,1-1.3-.576.755.755,0,0,1-.25-.927q.775-1.728,1.652-3.455a1.656,1.656,0,0,1,1.052-.7,3.193,3.193,0,0,1,1.678-.1A2.1,2.1,0,0,1,3648.205,4968.463Zm49.681-43.245a.886.886,0,0,1,.476.876,1.145,1.145,0,0,1-.7.852q-2.28,1.126-4.533,2.3a3.09,3.09,0,0,1-1.527.35,3.487,3.487,0,0,1-1.528-.4.934.934,0,0,1-.551-.876,1.15,1.15,0,0,1,.7-.876q2.255-1.227,4.633-2.379a3.073,3.073,0,0,1,1.577-.3A2.882,2.882,0,0,1,3697.886,4925.218Zm-58.846,57.594a1.238,1.238,0,0,1,.025-.226q.376-1.778.9-3.5a1.665,1.665,0,0,1,.9-.8,3.325,3.325,0,0,1,1.6-.225,2.552,2.552,0,0,1,1.4.526.767.767,0,0,1,.326.9q-.452,1.679-.852,3.331a.186.186,0,0,0-.025.075,1.335,1.335,0,0,1-.826.826,3.315,3.315,0,0,1-1.6.225,2.5,2.5,0,0,1-1.4-.45A.982.982,0,0,1,3639.04,4982.812Zm5.384,36.684a3.567,3.567,0,0,1,1.627.125,1.535,1.535,0,0,1,1,.727q.8,1.677,1.7,3.33a.749.749,0,0,1-.15.952,2.2,2.2,0,0,1-1.252.6,3.311,3.311,0,0,1-1.628-.1,1.586,1.586,0,0,1-1.077-.7q-.925-1.7-1.728-3.405a.748.748,0,0,1,.226-.927A1.966,1.966,0,0,1,3644.424,5019.5Zm-3.356-10.266a3.239,3.239,0,0,1,1.578.225,1.263,1.263,0,0,1,.826.826q.452,1.7.977,3.406a.82.82,0,0,1-.326.926,2.762,2.762,0,0,1-1.377.5,3.789,3.789,0,0,1-1.6-.175,1.441,1.441,0,0,1-.9-.826q-.576-1.728-1-3.481a.863.863,0,0,1,.4-.927A3,3,0,0,1,3641.068,5009.23Zm.852-9.215q.1,1.7.3,3.43a.884.884,0,0,1-.5.877,2.811,2.811,0,0,1-1.477.45,3.174,3.174,0,0,1-1.578-.325,1.241,1.241,0,0,1-.726-.852q-.2-1.727-.3-3.505a.924.924,0,0,1,.576-.9,2.969,2.969,0,0,1,1.477-.375,2.756,2.756,0,0,1,1.528.3A1.212,1.212,0,0,1,3641.92,5000.015Zm-4.382-6.812q.1-1.827.325-3.58a1.1,1.1,0,0,1,.726-.852,3.4,3.4,0,0,1,3,.1.951.951,0,0,1,.551.9q-.225,1.728-.3,3.481a1.127,1.127,0,0,1-.677.876,3.371,3.371,0,0,1-1.527.326,3.224,3.224,0,0,1-1.5-.376A.99.99,0,0,1,3637.538,4993.2Zm69.913,5.96q0-.976,2.279-.2,2.254.751,2.254,1.9a6.8,6.8,0,0,1-.526,1.728q-.426,1.077-.7,1.627l6.561-2.278a28.551,28.551,0,0,1,6.034-1.678.961.961,0,0,1,1,.551,1.075,1.075,0,0,1,.075.6q0,1.152-2.8,5.183l-.1.075a7.717,7.717,0,0,0,1.077-.25,8.993,8.993,0,0,1,2.479-.275,3.429,3.429,0,0,1,2.7,1.2,3.75,3.75,0,0,1,.726,1.252.96.96,0,0,1-.226.626,1.091,1.091,0,0,1-.876.35,2,2,0,0,1-1.227-.7,4.633,4.633,0,0,0-.8-.7,11.37,11.37,0,0,0-3.506.7,12.165,12.165,0,0,1-2.529.7,1.393,1.393,0,0,1-1.2-.45.928.928,0,0,1-.15-.526,11.023,11.023,0,0,1,1.452-2.529q.775-1.178,2.179-3.231-1.929.475-7.237,2.2-4.884,1.627-4.908,1.627a.8.8,0,0,1-.827-.475q-.075-.476-.075-.5a12.075,12.075,0,0,1,.676-2.3q.477-1.427.8-2.229a8.477,8.477,0,0,0-1.753-1.076Q3707.451,4999.69,3707.451,4999.163Zm8.389-5.96-21.259,12.195,21.259,12.22,21.26-12.2Zm-59.271,46.651a1.526,1.526,0,0,1,1-.751,3.363,3.363,0,0,1,1.628-.1,2.157,2.157,0,0,1,1.3.576q1.478,1.5,3.055,3a.818.818,0,0,1,.2.926,1.7,1.7,0,0,1-.951.777,3.711,3.711,0,0,1-1.6.1,2.168,2.168,0,0,1-1.327-.526q-1.653-1.527-3.13-3.055A.742.742,0,0,1,3656.569,5039.854Zm-5.384-5.458q-1.227-1.627-2.379-3.281a.682.682,0,0,1,.025-.926,1.854,1.854,0,0,1,1.152-.651,3.094,3.094,0,0,1,1.653,0,1.972,1.972,0,0,1,1.176.676q1.1,1.627,2.3,3.205a.767.767,0,0,1,.075.926,2.186,2.186,0,0,1-1.151.7,3.791,3.791,0,0,1-1.678.025A2.293,2.293,0,0,1,3651.185,5034.4Zm209.666,46.3a17.338,17.338,0,0,0,1.6,1.778,2.724,2.724,0,0,1-.5-.1,2.053,2.053,0,0,1-1.177-.651.778.778,0,0,1,0-.952C3860.793,5080.754,3860.818,5080.73,3860.851,5080.7Zm-25.892,4.658a1.393,1.393,0,0,1,.926.776.815.815,0,0,1-.3.926,2.835,2.835,0,0,1-1.4.526q-2.955.325-6.01.626a3.462,3.462,0,0,1-1.628-.225,1.446,1.446,0,0,1-.851-.8.892.892,0,0,1,.376-.926,2.8,2.8,0,0,1,1.4-.5q2.955-.276,5.884-.6A3.126,3.126,0,0,1,3834.959,5085.354Zm17.4-2.73a1.586,1.586,0,0,1,1.077.7.784.784,0,0,1-.125.927,2.036,2.036,0,0,1-1.252.626q-2.93.551-5.885,1.051a4.346,4.346,0,0,1-1.627-.1,1.771,1.771,0,0,1-1.027-.751.757.757,0,0,1,.2-.951,1.875,1.875,0,0,1,1.277-.576q2.906-.5,5.71-1.027A3.078,3.078,0,0,1,3852.362,5082.624Zm-98.009,1.2a3.43,3.43,0,0,1,1.6-.125q2.88.45,5.81.876a2.453,2.453,0,0,1,1.327.526.775.775,0,0,1,.25.952,1.513,1.513,0,0,1-.951.751,3.554,3.554,0,0,1-1.628.175q-3-.426-5.934-.9a2.158,2.158,0,0,1-1.3-.576.772.772,0,0,1-.2-.927A1.628,1.628,0,0,1,3754.353,5083.826Zm24.615,4.958q-3.079-.2-6.11-.476a2.6,2.6,0,0,1-1.377-.476.854.854,0,0,1-.426-.9,1.346,1.346,0,0,1,.851-.826,3.063,3.063,0,0,1,1.6-.226q2.981.25,5.96.451a2.639,2.639,0,0,1,1.452.476.863.863,0,0,1,.426.9q-.075.5-.827.8A3.118,3.118,0,0,1,3778.968,5088.784Zm12.646-1.9q2.928.1,5.984.15a2.658,2.658,0,0,1,1.5.351.957.957,0,0,1,.6.876,1.077,1.077,0,0,1-.651.877,3.493,3.493,0,0,1-1.527.35q-3.079-.049-6.16-.125a3.3,3.3,0,0,1-1.5-.4.984.984,0,0,1-.526-.9,1.1,1.1,0,0,1,.726-.852A3.355,3.355,0,0,1,3791.614,5086.881Zm24.014-.25a3.179,3.179,0,0,1,1.577.275,1.24,1.24,0,0,1,.751.827.927.927,0,0,1-.5.9,2.726,2.726,0,0,1-1.427.45q-3.054.152-6.11.251a3.867,3.867,0,0,1-1.578-.3,1.02,1.02,0,0,1-.65-.877.881.881,0,0,1,.5-.876,2.671,2.671,0,0,1,1.478-.426Q3812.647,5086.756,3815.628,5086.631Z" fill="#d9d9d9" fill-rule="evenodd"/>
      <path id="Trazado_11895" data-name="Trazado 11895" d="M3907.7,4903.908l-7.737-4.457a7.581,7.581,0,0,0-8.114,0l-2.3,1.327-4.458-2.554a5.781,5.781,0,0,0-6.16,0l-13.6,7.838q-3.081,1.778,0,3.555l24.74,14.274a5.756,5.756,0,0,0,5.96.125,1.214,1.214,0,0,1,.2-.125l13.6-7.838q3.079-1.778,0-3.556l-4.432-2.554,2.3-1.327Q3911.76,4906.262,3907.7,4903.908Zm-4.256,4.908L3891.5,4901.9l2.3-1.327a3.911,3.911,0,0,1,4.207,0l7.737,4.457q2.1,1.227,0,2.454Zm-10.392-.776-.251-.15a3.434,3.434,0,0,0-1.728-.4,3.165,3.165,0,0,0-1.677.426l-1.828,1.052-1.828-1.077a3.383,3.383,0,0,0-1.7-.4,3.524,3.524,0,0,0-1.728.4l-.225.15a1.163,1.163,0,0,0-.726,1,1.134,1.134,0,0,0,.7.951l1.828,1.077-1.8,1.052a1.262,1.262,0,0,0-.752.976,1.226,1.226,0,0,0,.727,1l.25.15a3.983,3.983,0,0,0,3.431-.025l1.8-1.052,1.828,1.052a3.62,3.62,0,0,0,1.727.426,3.672,3.672,0,0,0,1.7-.426l.226-.15a1.015,1.015,0,0,0,.025-1.953l-1.829-1.052,1.829-1.052a1.2,1.2,0,0,0,.7-1A1.148,1.148,0,0,0,3893.054,4908.04Zm1.9,7.287a14.571,14.571,0,0,1-7.363,1.753,18.865,18.865,0,0,1-1.952-.1,13.436,13.436,0,0,1-5.384-1.678,8.527,8.527,0,0,1-1.027-.676,4.6,4.6,0,0,1-2.078-3.556q0-2.5,3.054-4.257a14.229,14.229,0,0,1,7.363-1.753,14.613,14.613,0,0,1,7.387,1.753q3.054,1.778,3.055,4.257T3894.957,4915.327Zm25.166-3.306q-1,6.711-9.315,11.519a.32.32,0,0,1-.126.075q-1.627.927-3.255,1.728a47.944,47.944,0,0,1-19.281,3.581q-11.844,0-20.609-4.482a15.853,15.853,0,0,1-1.653-.9,1.594,1.594,0,0,1-.175-.1q-8.563-5.034-9.465-11.669c-.05-.4-.092-.8-.126-1.2v-.826c.034-.234.067-.476.1-.727q.9-6.836,9.39-11.769,9.416-5.383,22.537-5.384,13.345,0,22.762,5.46,8.088,4.756,9.215,11.118a10.837,10.837,0,0,1,.175,1.953Q3920.2,4911.2,3920.123,4912.021Zm7.537,79v-.826c.033-.234.067-.476.1-.726q.9-6.837,9.39-11.77a41.186,41.186,0,0,1,15.952-5.008q2.078-.25,4.256-.325,1.152-.051,2.329-.05,13.347,0,22.762,5.458,8.088,4.759,9.215,11.118a10.764,10.764,0,0,1,.175,1.954q-.1.8-.175,1.627-.977,6.636-9.14,11.419a2.721,2.721,0,0,1-.3.175q-1.628.927-3.256,1.728a47.159,47.159,0,0,1-18.029,3.581h-1.252q-1.578,0-3.08-.075a43.227,43.227,0,0,1-17.528-4.407q-.927-.451-1.828-1-8.565-5.034-9.466-11.669Q3927.71,4991.626,3927.66,4991.025Zm31.451-10.142a15.217,15.217,0,0,0-7.737-1.852,15.375,15.375,0,0,0-7.738,1.878q-3.205,1.852-3.23,4.457.024,2.6,3.23,4.457l7.512,4.332,15.476-8.939Zm-5.884,14.474,7.512,4.332q.45.25.926.476a15.689,15.689,0,0,0,6.786,1.377,15.1,15.1,0,0,0,7.763-1.828q3.205-1.852,3.2-4.507,0-2.6-3.2-4.457l-7.512-4.332ZM3908.6,5052.9a18.835,18.835,0,0,0-1.928-1.1,5.522,5.522,0,0,0-2.379-.676,2.247,2.247,0,0,0-1.7.325.883.883,0,0,0-.4.576,1.364,1.364,0,0,0,.076.852,3.549,3.549,0,0,0,.425.826l-3.155,1.9a48.879,48.879,0,0,1-4.482,2.279q-1.353.6-2.755,1.1a24.844,24.844,0,0,1-3.029.851,18.065,18.065,0,0,1-1.8.251q-2.878.2-5.809.2l-5.308-.05a26.832,26.832,0,0,0-5.735.55q-2.854.6-3.781,2.329a1.867,1.867,0,0,0-.125,1.378,5.224,5.224,0,0,0,1.853,2.579,20.859,20.859,0,0,0,3.43,2.328q2.03,1.128,4.032,2.305,2.028,1.151,3.981,2.328c.267.167.543.326.826.476a25.961,25.961,0,0,0,3.206,1.5l.351.15q.45.152.926.3a17.236,17.236,0,0,0,3.205.626,10.208,10.208,0,0,0,2.379-.075,9.674,9.674,0,0,0,1.953-.551,4.527,4.527,0,0,0,2.1-1.627,5.7,5.7,0,0,0,.951-3.206v-.1q-.075-1.526-.075-2.98v-.075a16.392,16.392,0,0,1,.3-3.38,2.479,2.479,0,0,1,.475-1.027,7.651,7.651,0,0,1,1.453-1.753,18.49,18.49,0,0,1,1.9-1.6,30.541,30.541,0,0,1,3.956-2.58l3.281-1.828a11.4,11.4,0,0,0,1.427.251,6.127,6.127,0,0,0,1.452.025,2.8,2.8,0,0,0,1.027-.226q.8-.375.6-.951a2.326,2.326,0,0,0-1.177-1.378A20.739,20.739,0,0,0,3908.6,5052.9Zm-3.256-.977q.276-.175,1.178.4,2.454,1.576,4.156,2.529l.025.376a1.526,1.526,0,0,1-.7,0l-1.552-.9q-.452-.25-1.653-1.1a12.48,12.48,0,0,1-1.6-1.227Zm-12.269,9.941a1.763,1.763,0,0,1,.776,1.578q-.1.876-.276,1.727a10.748,10.748,0,0,0-.225,1.679q-.049,1.225-.05,2.479l-13.121-7.588q2.152,0,4.281-.025,1.477-.049,2.906-.125,1.476-.1,2.979-.176A6.243,6.243,0,0,1,3893.079,5061.865Zm-.852,8.614q1.2-.375,1.127,1.228v.2a3.319,3.319,0,0,1-1.628,2.7,8.217,8.217,0,0,1-3.005,1.177,6.884,6.884,0,0,1-2.7-.325,15.835,15.835,0,0,1-3.08-1.4c-.083-.05-.183-.108-.3-.175q-.5-.325-1.328-.952.877.477,1.653.827a14.082,14.082,0,0,0,3.431,1.127,4.532,4.532,0,0,0,3.03-.376,3.389,3.389,0,0,0,1.7-2.229,7.617,7.617,0,0,1,.375-1.477A3.784,3.784,0,0,1,3892.227,5070.479Zm28.522-12.72a11.634,11.634,0,0,1,1.252,3.581,10.834,10.834,0,0,1,.175,1.952q-.1.8-.175,1.628-1,6.737-9.34,11.544l-.1.05q-1.627.927-3.255,1.728a47.95,47.95,0,0,1-19.281,3.581q-11.844,0-20.609-4.482-.827-.4-1.6-.877a.962.962,0,0,1-.225-.125q-8.563-5.032-9.465-11.669c-.05-.4-.092-.8-.125-1.2v-.827c.033-.233.067-.475.1-.726q.9-6.836,9.39-11.769,9.415-5.383,22.537-5.384,13.347,0,22.762,5.459a23.343,23.343,0,0,1,6.661,5.534A14.765,14.765,0,0,1,3920.749,5057.759ZM3794.894,4899.05a12.189,12.189,0,0,1-1.328,4.007,16.539,16.539,0,0,1-1.7,2.5,24,24,0,0,1-6.31,5.033l-.1.05q-1.627.927-3.255,1.728a47.949,47.949,0,0,1-19.281,3.581q-11.844,0-20.609-4.482a.96.96,0,0,0-.125-.051q-.852-.424-1.7-.951-.827-.476-1.552-.977-7.088-4.683-7.913-10.692-.075-.6-.125-1.2v-.826q.05-.351.1-.727.9-6.836,9.39-11.769,9.416-5.383,22.537-5.384,13.345,0,22.762,5.459,8.088,4.758,9.215,11.118a10.759,10.759,0,0,1,.175,1.954Q3794.968,4898.224,3794.894,4899.05Zm-21.886-13.371a3.873,3.873,0,0,0-4.106,0l-3.882,2.253q-2.078,1.177-.025,2.354l11.043,6.385a3.963,3.963,0,0,0,4.157,0l3.881-2.253q2.054-1.178-.025-2.354Zm.8,12.295-11.042-6.386a3.877,3.877,0,0,0-4.107,0l-16,9.24q-2.079,1.2-.025,2.379l11.043,6.386a3.927,3.927,0,0,0,4.156-.026l16-9.24Q3775.887,4899.151,3773.809,4897.974Zm-25.641,6.36-1.453-.827,3-1.727,1.453.826a.994.994,0,0,1,.6.876,1.058,1.058,0,0,1-.626.877,3.03,3.03,0,0,1-1.5.351A2.82,2.82,0,0,1,3748.168,4904.334Zm-1.853-4.007a3.075,3.075,0,0,1,1.527.351l1.453.851-3,1.728-1.453-.851a.882.882,0,0,1,0-1.7A2.824,2.824,0,0,1,3746.315,4900.327Zm29.9-1.352,1.478-.876-15.175-8.74-1.477.877Zm-18.154,7.613a.926.926,0,0,1,0,1.752l-.3.151a3.374,3.374,0,0,1-1.2.2h-.125a2.773,2.773,0,0,1-1.377-.376l-1.453-.826,3-1.728Zm-6.962-1.052a1.072,1.072,0,0,1,.652-.852,2.817,2.817,0,0,1,1.477-.375,2.869,2.869,0,0,1,1.5.375l1.478.827-3.005,1.728-1.478-.827A1.056,1.056,0,0,1,3751.1,4905.536Zm1.027-5.684a2.875,2.875,0,0,1,1.5.375l1.477.852-3,1.727-1.477-.851a.94.94,0,0,1,0-1.753A3.02,3.02,0,0,1,3752.124,4899.852Zm5.434,3.155q.025.5-.6.851a3.19,3.19,0,0,1-3.005,0l-1.452-.826,3-1.728,1.452.826A.994.994,0,0,1,3757.558,4903.007Zm4.232,2.679-.05.1a1.583,1.583,0,0,1-.852.676,3.515,3.515,0,0,1-1.577.2,2.386,2.386,0,0,1-1.352-.526,1.173,1.173,0,0,1-.2-.2.717.717,0,0,1-.175-.726l.426-1.177,4.182.476Zm.576-3.606a.869.869,0,0,1,.3.927l-.375,1.177-4.157-.476.376-1.152a1.371,1.371,0,0,1,.9-.8,3.259,3.259,0,0,1,1.578-.176A2.649,2.649,0,0,1,3762.366,4902.08ZM3881.385,5068.5h-.025a.608.608,0,0,1,.025-1.152,2.119,2.119,0,0,1,1-.275,1.977,1.977,0,0,1,.977.275h.025c.284.167.425.351.425.551a.778.778,0,0,1-.45.6,1.973,1.973,0,0,1-.977.226A1.782,1.782,0,0,1,3881.385,5068.5Zm-2.6-1a.445.445,0,0,1,.276.426.5.5,0,0,1-.276.426h-.025a1.366,1.366,0,0,1-.7.175,1.418,1.418,0,0,1-.726-.175h-.025a.5.5,0,0,1-.275-.426.444.444,0,0,1,.275-.426h.025a1.291,1.291,0,0,1,.7-.175,1.34,1.34,0,0,1,.726.175Zm.551-2.329a1.053,1.053,0,0,1,.626-.8h.026a2.762,2.762,0,0,1,1.377-.375,2.914,2.914,0,0,1,1.452.375h.025q.6.351.576.8a1,1,0,0,1-.576.852h-.025a3.287,3.287,0,0,1-2.855,0h-.025A1.071,1.071,0,0,1,3879.331,5065.17Zm-202.68-133.141.5-1.252-8.94-1.628.777-2.128,5.909,1.076.476-1.226-14.1-2.58-.475,1.227,5.859,1.077-.8,2.1-8.915-1.6-.475,1.227,2.8.5-6.686,17.754,2.054.375-.551,1.428,4.181.776-1.778,7.838,3.857-7.462,4.232.751.551-1.428,2.028.376,6.686-17.729Zm-15.55-1.978,10.342,1.9-4.483,11.844-10.341-1.878Zm-30.85,9.34v-.827c.033-.233.067-.475.1-.726q.9-6.836,9.39-11.769,9.416-5.383,22.537-5.383,13.347,0,22.762,5.458,8.088,4.758,9.215,11.119a10.718,10.718,0,0,1,.175,1.953q-.1.8-.175,1.627-1,6.711-9.315,11.519a.313.313,0,0,1-.125.075q-1.629.927-3.256,1.728a47.949,47.949,0,0,1-19.281,3.581q-11.844,0-20.609-4.483a15.856,15.856,0,0,1-1.652-.9,1.617,1.617,0,0,1-.176-.1q-8.563-5.032-9.465-11.669Q3630.3,4939.991,3630.251,4939.391Z" fill="#d62a6b" fill-rule="evenodd"/>
      <path id="Trazado_11896" data-name="Trazado 11896" d="M3919.772,4923.54a11.28,11.28,0,0,1-1.027,2.529q-2.3,4.032-7.962,7.312-9.291,5.384-22.537,5.384-13.4,0-22.637-5.484-7.287-4.257-8.914-9.741a5.084,5.084,0,0,1-.2-.726q-.15-.551-.25-1.1l-.126-11.143c.034.4.076.8.126,1.2q.9,6.636,9.465,11.669a1.594,1.594,0,0,0,.175.1,15.853,15.853,0,0,0,1.653.9q8.764,4.482,20.609,4.482a47.944,47.944,0,0,0,19.281-3.581q1.627-.8,3.255-1.728a.32.32,0,0,0,.126-.075q8.313-4.808,9.315-11.519v9.791A10.255,10.255,0,0,1,3919.772,4923.54Zm8.439,80.356c-.067-.2-.125-.409-.176-.626q-.148-.551-.25-1.1l-.125-11.143q.05.6.125,1.2.9,6.636,9.466,11.669.9.551,1.828,1a43.227,43.227,0,0,0,17.528,4.407q1.5.075,3.08.075h1.252a47.159,47.159,0,0,0,18.029-3.581q1.629-.8,3.256-1.728a2.721,2.721,0,0,0,.3-.175q8.163-4.783,9.14-11.419v9.791a13.478,13.478,0,0,1-.3,1.628,12.347,12.347,0,0,1-1.077,2.629q-2.3,4.032-7.963,7.312-9.289,5.383-22.537,5.384-1.026,0-2-.025-2.229-.075-4.307-.3a40.344,40.344,0,0,1-16.327-5.158Q3929.788,5009.454,3928.211,5003.9Zm-67.36,76.8a12.606,12.606,0,0,1-2.278-4.232,6.151,6.151,0,0,1-.2-.751c-.1-.367-.183-.735-.25-1.1l-.125-11.143c.033.4.075.8.125,1.2q.9,6.636,9.465,11.669a.962.962,0,0,0,.225.125q.777.475,1.6.877,8.765,4.481,20.609,4.482a47.95,47.95,0,0,0,19.281-3.581q1.627-.8,3.255-1.728l.1-.05q8.339-4.808,9.34-11.544v9.791a10.2,10.2,0,0,1-.351,1.753,13.314,13.314,0,0,1-1.027,2.5q-2.3,4.032-7.962,7.312-9.291,5.384-22.537,5.384-13.4,0-22.637-5.484a26.422,26.422,0,0,1-5.033-3.706A17.338,17.338,0,0,1,3860.851,5080.7Zm-66.308-170.1a13.485,13.485,0,0,1-1.026,2.5q-2.3,4.032-7.963,7.312-9.291,5.383-22.537,5.384-13.4,0-22.637-5.484-7.261-4.232-8.914-9.716a6.159,6.159,0,0,1-.2-.751c-.1-.367-.183-.735-.25-1.1l-.125-11.143q.05.6.125,1.2.827,6.01,7.913,10.692.726.5,1.552.977.852.524,1.7.951a.96.96,0,0,1,.125.051q8.764,4.482,20.609,4.482a47.949,47.949,0,0,0,19.281-3.581q1.627-.8,3.255-1.728l.1-.05a24,24,0,0,0,6.31-5.033,16.539,16.539,0,0,0,1.7-2.5,12.189,12.189,0,0,0,1.328-4.007v9.791A10.217,10.217,0,0,1,3794.543,4910.594Zm-100.288,30.249v9.791a10.2,10.2,0,0,1-.351,1.728,11.281,11.281,0,0,1-1.026,2.529q-2.3,4.032-7.963,7.312-9.291,5.383-22.537,5.384-13.4,0-22.637-5.484-7.161-4.182-8.864-9.541a8.514,8.514,0,0,1-.251-.926c-.1-.367-.183-.735-.25-1.1l-.125-11.143q.049.6.125,1.2.9,6.636,9.465,11.669a1.617,1.617,0,0,0,.176.1,15.856,15.856,0,0,0,1.652.9q8.765,4.483,20.609,4.483a47.949,47.949,0,0,0,19.281-3.581q1.627-.8,3.256-1.728a.313.313,0,0,0,.125-.075Q3693.253,4947.555,3694.255,4940.843Z" fill="#90234d" fill-rule="evenodd"/>
      <path id="Trazado_11897" data-name="Trazado 11897" d="M3828.173,4950.133a1.525,1.525,0,0,0-1.077-.275,1.274,1.274,0,0,0-.977.275c-.3.151-.45.334-.45.551s.15.4.45.551l9.716,5.584a1.888,1.888,0,0,0,1.052.251,1.992,1.992,0,0,0,1.027-.251q.45-.225.45-.551t-.45-.6Zm-2.179,1.252a.888.888,0,0,1-.5-.7.808.808,0,0,1,.5-.7,2.257,2.257,0,0,1,1.1-.275,2.465,2.465,0,0,1,1.2.275l9.716,5.559a.9.9,0,0,1,.5.726.887.887,0,0,1-.5.7,2.6,2.6,0,0,1-1.127.226,2.669,2.669,0,0,1-1.152-.226Zm26.569,14.4a2.544,2.544,0,0,0-1.152.25.676.676,0,0,0-.426.6.613.613,0,0,0,.426.551,2.348,2.348,0,0,0,1.152.276,2.241,2.241,0,0,0,1.1-.276.732.732,0,0,0,.426-.551.812.812,0,0,0-.426-.6A2.424,2.424,0,0,0,3852.563,4965.784Zm2.128,3.38q0-.6.776-.976a2.792,2.792,0,0,1,1.628-.451,3.081,3.081,0,0,1,1.7.451,1.111,1.111,0,0,1,.651.976,1.19,1.19,0,0,1-.7.977,3.278,3.278,0,0,1-1.653.376,3.222,3.222,0,0,1-1.628-.376Q3854.691,4969.766,3854.691,4969.164Zm-3.33-3.28a2.458,2.458,0,0,1,1.2-.275,2.352,2.352,0,0,1,1.152.275.911.911,0,0,1,.55.751.821.821,0,0,1-.55.726,2.348,2.348,0,0,1-1.152.276,2.453,2.453,0,0,1-1.2-.276.82.82,0,0,1-.551-.726A.91.91,0,0,1,3851.361,4965.884Zm4.156,2.4a.915.915,0,0,0,0,1.753,3.453,3.453,0,0,0,3.13,0,.915.915,0,0,0,0-1.753,2.971,2.971,0,0,0-1.552-.376A3.115,3.115,0,0,0,3855.517,4968.288Zm-157.932,54.564a2.616,2.616,0,0,0,.927.876l11.644,6.711a4.159,4.159,0,0,0,4.307,0l3.28-1.9a2.565,2.565,0,0,0,1-.876.148.148,0,0,0,.05-.1q.1-.6-1.052-1.277l-11.569-6.711q-.45-.225-.826-.375a2.892,2.892,0,0,0-1.1-.225,3.813,3.813,0,0,0-2.4.6l-3.33,1.9a3.1,3.1,0,0,0-.6.45.861.861,0,0,0-.326.877Zm21.636,4.808v.05q-.15.6-1.2,1.2l-3.331,1.928a4.522,4.522,0,0,1-4.757,0l-11.644-6.736a2.178,2.178,0,0,1-1.2-1.2.044.044,0,0,1-.05-.05,1.037,1.037,0,0,1,.275-.927,3.077,3.077,0,0,1,.977-.826l3.33-1.9a4.931,4.931,0,0,1,2.579-.676,3.257,3.257,0,0,1,.927.125,3.793,3.793,0,0,1,1.252.551l11.644,6.711Q3719.5,5026.733,3719.221,5027.66Zm-42.795-9.666a.2.2,0,0,0,.05.15.931.931,0,0,1,.225.6.616.616,0,0,1-.05.276.872.872,0,0,1-.175.175c-.1.067-.267.042-.5-.075a.569.569,0,0,1-.2-.2.6.6,0,0,0,.1.151,1.28,1.28,0,0,1,.175.6.469.469,0,0,1-.225.45.513.513,0,0,1-.5-.075,1.054,1.054,0,0,1-.426-.426,1.288,1.288,0,0,1-.175-.6.6.6,0,0,1,.226-.5.514.514,0,0,1,.425.125.716.716,0,0,1,.276.138.174.174,0,0,1-.05-.138.868.868,0,0,1-.226-.551.47.47,0,0,1,.226-.451.17.17,0,0,1,.125-.05.4.4,0,0,1,.325.05A1.482,1.482,0,0,1,3676.426,5017.994Zm-.05.2a.679.679,0,0,0-.4-.375.247.247,0,0,0-.25-.05h-.075c-.067.033-.1.141-.1.325a.954.954,0,0,0,.175.5c.066.1.133.209.2.325a.8.8,0,0,0,.125.1.539.539,0,0,0,.326,0q.15-.051.15-.276A1.143,1.143,0,0,0,3676.376,5018.194Zm.551.726a.488.488,0,0,1,.2-.45.454.454,0,0,1,.451.05,1.107,1.107,0,0,1,.476.451,1.287,1.287,0,0,1,.175.6.416.416,0,0,1-.225.426.367.367,0,0,1-.476,0,1.353,1.353,0,0,1-.226-.15l.05.05a1.312,1.312,0,0,1,.226.651q0,.326-.226.376c-.066.05-.125.091-.175.125a.571.571,0,0,1-.325-.125.764.764,0,0,1-.426-.476,1.019,1.019,0,0,1-.175-.551.6.6,0,0,1,.225-.5.388.388,0,0,1,.276,0,.6.6,0,0,1,.175.05c.1.082.181.157.25.226a.631.631,0,0,1-.1-.151A1.236,1.236,0,0,1,3676.927,5018.92Zm.25-.275c-.066.033-.1.125-.1.275a.7.7,0,0,0,.175.476.984.984,0,0,0,.326.5.537.537,0,0,0,.325,0q.151-.05.151-.326a1.054,1.054,0,0,0-.151-.5,1.609,1.609,0,0,0-.375-.426A.276.276,0,0,0,3677.177,5018.645Zm-2.729-1.653c-.1-.1-.192-.133-.276-.1a.362.362,0,0,0-.15.326,1.041,1.041,0,0,0,.225.551.881.881,0,0,0,.326.375.288.288,0,0,0,.325,0c.067-.033.1-.125.1-.275a1.923,1.923,0,0,0-.1-.551A.667.667,0,0,0,3674.448,5016.992Zm-.376-.225a.514.514,0,0,1,.5.075,2.586,2.586,0,0,1,.426.426,1.279,1.279,0,0,1,.175.6.468.468,0,0,1-.225.45c-.117.067-.284.042-.5-.075a.963.963,0,0,1-.376-.425,1.082,1.082,0,0,1-.225-.6A.47.47,0,0,1,3674.072,5016.767Zm.927,1.928a.447.447,0,0,0-.1.326,1.138,1.138,0,0,0,.151.55.734.734,0,0,0,.325.326.484.484,0,0,0,.4.1v-.05c.067-.033.1-.125.1-.275a1.05,1.05,0,0,0-.1-.476.656.656,0,0,0-.451-.4C3675.191,5018.695,3675.082,5018.662,3675,5018.695Zm0,1.3a1.282,1.282,0,0,1,.175.6.471.471,0,0,1-.225.451c-.117.1-.284.083-.5-.05a1.171,1.171,0,0,1-.376-.451.931.931,0,0,1-.225-.6.483.483,0,0,1,.225-.426.469.469,0,0,1,.5.05A2.626,2.626,0,0,1,3675,5020Zm0,.6a1.429,1.429,0,0,0-.1-.476,1.453,1.453,0,0,0-.45-.45.214.214,0,0,0-.276,0q-.15.05-.15.275a.872.872,0,0,0,.225.551.616.616,0,0,0,.326.376.294.294,0,0,0,.325.05C3674.965,5020.89,3675,5020.782,3675,5020.6Zm.551.225a1.015,1.015,0,0,0,.175.551.931.931,0,0,0,.325.376c.134.084.242.1.326.05a.361.361,0,0,0,.15-.325l-.1-.376a.312.312,0,0,0-.05-.175.686.686,0,0,0-.4-.376.288.288,0,0,0-.325,0C3675.583,5020.582,3675.55,5020.673,3675.55,5020.823Zm.05.6a.921.921,0,0,1-.226-.6.414.414,0,0,1,.226-.425.379.379,0,0,1,.45.05,1,1,0,0,1,.326.2c.033.084.067.159.1.226a1.079,1.079,0,0,1,.225.6.76.76,0,0,1-.05.325,1.019,1.019,0,0,0-.175.125.623.623,0,0,1-.5,0A3.826,3.826,0,0,1,3675.6,5021.424Zm1.8-.876a1.142,1.142,0,0,0-.15-.551.945.945,0,0,0-.4-.376.044.044,0,0,1-.05-.05.4.4,0,0,0-.276,0,.365.365,0,0,0-.15.326.886.886,0,0,0,.2.5,1.221,1.221,0,0,0,.351.425.44.44,0,0,0,.2.051h.125v-.051Q3677.4,5020.773,3677.4,5020.548Zm.877-.1a.546.546,0,0,0-.326,0c-.066.033-.1.125-.1.275a1,1,0,0,0,.151.526.887.887,0,0,0,.325.4.588.588,0,0,0,.4.05c.066-.033.1-.142.1-.326a.959.959,0,0,0-.175-.5A1.169,1.169,0,0,0,3678.279,5020.448Zm-.426-.175a.5.5,0,0,1,.476.05,2.062,2.062,0,0,1,.275.225.546.546,0,0,0-.1-.15,1.4,1.4,0,0,1-.175-.6.438.438,0,0,1,.226-.451c.116-.1.283-.083.5.05a.867.867,0,0,1,.426.451,1.279,1.279,0,0,1,.175.6q0,.375-.225.426a.534.534,0,0,1-.5,0,1.285,1.285,0,0,1-.2-.276.671.671,0,0,0,.1.225,1.6,1.6,0,0,1,.1.551.485.485,0,0,1-.15.426.4.4,0,0,1-.5,0,1.512,1.512,0,0,1-.426-.476,1.292,1.292,0,0,1-.175-.6A.518.518,0,0,1,3677.853,5020.273Zm-.676,1.1a.453.453,0,0,0-.1.326.8.8,0,0,0,.175.5.846.846,0,0,0,.326.425.379.379,0,0,0,.15.051c.084.033.142.033.175,0v-.051c.1-.033.151-.125.151-.275a1.137,1.137,0,0,0-.151-.551,1.017,1.017,0,0,0-.375-.376.633.633,0,0,0-.226-.05Zm-.25.326a.491.491,0,0,1,.2-.451.169.169,0,0,1,.125-.05c.1-.033.209.009.326.125a1.024,1.024,0,0,1,.476.376,1.37,1.37,0,0,1,.175.651.471.471,0,0,1-.225.451.5.5,0,0,1-.226.05.435.435,0,0,1-.25-.125,1.228,1.228,0,0,1-.451-.426A1.451,1.451,0,0,1,3676.927,5021.7Zm1.677-2.254a.556.556,0,0,0-.1.351,1.04,1.04,0,0,0,.151.476,1.759,1.759,0,0,0,.4.45.377.377,0,0,0,.326.051v-.051a.323.323,0,0,0,.1-.275,1.374,1.374,0,0,0-.15-.551.946.946,0,0,0-.4-.376A.342.342,0,0,0,3678.6,5019.446Zm.326,2.805a.242.242,0,0,0-.326,0c-.066.033-.1.125-.1.275a1.145,1.145,0,0,0,.151.551,1.213,1.213,0,0,0,.4.376.38.38,0,0,0,.326.05.448.448,0,0,0,.1-.326,1.063,1.063,0,0,0-.15-.5A1.413,1.413,0,0,0,3678.93,5022.251Zm-.375-.176a.556.556,0,0,1,.5.051,1.215,1.215,0,0,1,.426.45,1.282,1.282,0,0,1,.175.6.521.521,0,0,1-.225.5.513.513,0,0,1-.5-.075,6.324,6.324,0,0,1-.426-.476,1.278,1.278,0,0,1-.175-.6A.545.545,0,0,1,3678.555,5022.075Zm15.374,7.112a.676.676,0,0,1,.8.1l9.791,5.584a2.329,2.329,0,0,1,.776.827c.134.283.242.534.325.751a1.839,1.839,0,0,1,.051.4.824.824,0,0,1-.376.8.954.954,0,0,1-.876-.1l-9.741-5.634a2.446,2.446,0,0,1-.752-.827,2.057,2.057,0,0,1-.4-1.127A.815.815,0,0,1,3693.929,5029.187Zm.1,1.8a2.028,2.028,0,0,0,.7.826l9.791,5.635a.66.66,0,0,0,.651.049.712.712,0,0,0,.275-.651,2.034,2.034,0,0,0-.05-.45,1.529,1.529,0,0,0-.225-.551,1.763,1.763,0,0,0-.751-.8l-9.741-5.634a.671.671,0,0,0-.7-.051.622.622,0,0,0-.276.6A2.032,2.032,0,0,0,3694.03,5030.99Z" fill="#fcfcfc" fill-rule="evenodd"/>
      <path id="Trazado_11898" data-name="Trazado 11898" d="M3828.173,4950.133l9.741,5.535q.45.275.45.6t-.45.551a1.992,1.992,0,0,1-1.027.251,1.888,1.888,0,0,1-1.052-.251l-9.716-5.584q-.45-.225-.45-.551c0-.217.15-.4.45-.551a1.274,1.274,0,0,1,.977-.275A1.525,1.525,0,0,1,3828.173,4950.133Z" fill-rule="evenodd" fill="url(#linear-gradient)"/>
      <path id="Trazado_11899" data-name="Trazado 11899" d="M3825.994,4951.385l9.741,5.584a2.669,2.669,0,0,0,1.152.226,2.6,2.6,0,0,0,1.127-.226.887.887,0,0,0,.5-.7.9.9,0,0,0-.5-.726l-9.716-5.559a2.465,2.465,0,0,0-1.2-.275,2.257,2.257,0,0,0-1.1.275.808.808,0,0,0-.5.7A.888.888,0,0,0,3825.994,4951.385Zm25.367,14.5a.91.91,0,0,0-.551.751.82.82,0,0,0,.551.726,2.453,2.453,0,0,0,1.2.276,2.348,2.348,0,0,0,1.152-.276.821.821,0,0,0,.55-.726.911.911,0,0,0-.55-.751,2.352,2.352,0,0,0-1.152-.275A2.458,2.458,0,0,0,3851.361,4965.884Zm3.33,3.28q0,.6.776.977a3.222,3.222,0,0,0,1.628.376,3.278,3.278,0,0,0,1.653-.376,1.19,1.19,0,0,0,.7-.977,1.111,1.111,0,0,0-.651-.976,3.081,3.081,0,0,0-1.7-.451,2.792,2.792,0,0,0-1.628.451Q3854.691,4968.563,3854.691,4969.164Zm18.6,2.83a2.121,2.121,0,0,1,.6,1.427,2.652,2.652,0,0,1-1.6,2.254l-42.9,24.815v-.1l.05-.6a9.6,9.6,0,0,0,0-1.377l4.833-2.78.05.025,25.717-14.849-.05-.025.451-.275-69.989-40.416-.051.025-.651-.376-108.8,62.778,66.433,38.362q-.5.276-1,.6a92.71,92.71,0,0,0-11.644,8.914l-66.033-37.836a2.958,2.958,0,0,1-1.7-2.279,2.385,2.385,0,0,1,1.2-2.128l6.636-3.831,5.359-3.08,6.711-3.932.7-.375.075-.05,9.716-5.585,5.96-3.5,5.208-3,4.257-2.454,10.217-5.86v-.05l1.1-.6,11.193-6.435,1.427-.877,47.528-27.469,10.617-6.135,3.155-1.828a7.485,7.485,0,0,1,3.931-.877,12.422,12.422,0,0,1,1.628.1,7.774,7.774,0,0,1,2.354.827l1.377.776,64.781,37.236A4.464,4.464,0,0,1,3873.3,4971.994Zm-154.551,55.666a2.565,2.565,0,0,1-1,.876l-3.28,1.9a4.159,4.159,0,0,1-4.307,0l-11.644-6.711a2.616,2.616,0,0,1-.927-.876,2.36,2.36,0,0,1,.927-.877l3.33-1.928a4.4,4.4,0,0,1,2.529-.6,4.717,4.717,0,0,1,1.252.351,4,4,0,0,1,.551.25l11.569,6.736A2.312,2.312,0,0,1,3718.745,5027.66Zm-21.71-4.808a1.044,1.044,0,0,0,.325,1.077,2.709,2.709,0,0,0,.927.675l11.644,6.712a4.453,4.453,0,0,0,4.757,0l3.331-1.9q1.477-.877,1.2-1.753.275-.927-1.2-1.753l-11.644-6.711a3.793,3.793,0,0,0-1.252-.551,3.257,3.257,0,0,0-.927-.125,4.931,4.931,0,0,0-2.579.676l-3.33,1.9a3.077,3.077,0,0,0-.977.826A1.037,1.037,0,0,0,3697.035,5022.852Z" fill="#f2f2f2" fill-rule="evenodd"/>
      <path id="Trazado_11900" data-name="Trazado 11900" d="M3852.563,4965.784a2.424,2.424,0,0,1,1.1.25.812.812,0,0,1,.426.6.732.732,0,0,1-.426.551,2.241,2.241,0,0,1-1.1.276,2.348,2.348,0,0,1-1.152-.276.613.613,0,0,1-.426-.551.676.676,0,0,1,.426-.6A2.544,2.544,0,0,1,3852.563,4965.784Z" fill="#626163" fill-rule="evenodd"/>
      <path id="Trazado_11901" data-name="Trazado 11901" d="M3855.517,4968.288a3.115,3.115,0,0,1,1.578-.376,2.971,2.971,0,0,1,1.552.376.915.915,0,0,1,0,1.753,3.453,3.453,0,0,1-3.13,0,.915.915,0,0,1,0-1.753Z" fill-rule="evenodd" fill="url(#radial-gradient)"/>
      <path id="Trazado_11902" data-name="Trazado 11902" d="M3735.522,4966.435a1.978,1.978,0,0,1,.175.326q.475.75,1.077,1.752l-1.427.877a39.854,39.854,0,0,0-2.679-6.511A20.025,20.025,0,0,1,3735.522,4966.435Zm-12.47,9.991q-.475-1.8-1.352-5.133a1.622,1.622,0,0,1-.176-.5,5.257,5.257,0,0,1-.275-1.352,10.756,10.756,0,0,1,0-2.079,12.861,12.861,0,0,1,1.377-4.056,23.131,23.131,0,0,0-.551,2.9,8.169,8.169,0,0,0,.15,2.9q1.1,4.358,1.653,5.96a4.54,4.54,0,0,0,.276.751Zm-14.474,8.364a19.568,19.568,0,0,0,.326-9.115,13.163,13.163,0,0,0-2.079-4.883.146.146,0,0,1-.05-.1,8.565,8.565,0,0,1,1.077.926,10.572,10.572,0,0,1,2.254,3.231.521.521,0,0,1,.1.175,3.29,3.29,0,0,0,.275.526q.452,1.2,1.753,4.557a.144.144,0,0,0,.05.1q.227.927.551,2.129Zm-12.795-5.559a9.032,9.032,0,0,1,1.752-6.135,10.04,10.04,0,0,0,.7,9.841,11.126,11.126,0,0,0,5.134,4.858l-5.96,3.5a.5.5,0,0,1-.05-.225,14.1,14.1,0,0,1-.426-2.729v-.326c-.05-.15-.091-.292-.125-.425q-.7-4.759-.976-7.237v-.326l-.05-.275Zm-8.865,18.079q-.15-.6-.376-1.252.376.325,1.077.877Zm-10.392,2.579q.5-.977,1.2-2.253a7.944,7.944,0,0,1,2.128-1.678,9.786,9.786,0,0,1,1.878-.726,4.581,4.581,0,0,1,.652-.15h.05a6.571,6.571,0,0,1,3.13.1,5.571,5.571,0,0,1,.851.275,1.381,1.381,0,0,0-.375.05,26.142,26.142,0,0,0-2.78.451,3.95,3.95,0,0,0-2.629,1.678,3.821,3.821,0,0,0-.426,3.606l-5.359,3.08a12.18,12.18,0,0,1,.6-2.029.146.146,0,0,1,.05-.1A24.725,24.725,0,0,1,3676.526,4999.889Zm51.008,106.5a51.585,51.585,0,0,0,.175-6.185v-.05q.7-1.653,1.578-3.656a144.5,144.5,0,0,1,7.062-14.4q.4-.727.8-1.352l.3-.451a48.2,48.2,0,0,1,12.821-12.67,106.908,106.908,0,0,1,23.889-12.1,41.062,41.062,0,0,0,11.043-5.885,23.258,23.258,0,0,0,5.409-6.16,1.235,1.235,0,0,0,.125-.2q.426-.8,3.23-6.711a30.878,30.878,0,0,1,4.257-6.936q1.2-1.428,5.459-3.08a22.17,22.17,0,0,0,5.484-2.78q2.4-2.4,3.1-3.28a7.77,7.77,0,0,0,1.8-3.33q.276-1.327.5-2.68c.033-.334.067-.667.1-1v-.2q.126-1.2.225-2.454v-.35a10.738,10.738,0,0,0,.05-1.127v-.5q.051-.927.051-2.1v-2.6q0-3.33.776-3l.05.051q.776.45,1.9,3.555a2.017,2.017,0,0,0,.175.326q.276.826.6,1.7a1.353,1.353,0,0,0,.176.425q.15.5.325,1.052a.2.2,0,0,0,.05.15q.15.727.376,1.478l.926,2.153a.374.374,0,0,1,.05.15q.126.226.226.451,1.6-1.878,2.629-3.18.7-.927,1.2-1.653h.05a.88.88,0,0,1,.225-.325q1.478-2.128,2.354-3.706c.033-.067.084-.159.15-.276.051-.117.109-.242.176-.375a12.592,12.592,0,0,0,.6-1.328q.15-.375.275-.651c.1-.333.175-.626.226-.876q.149-.927.25-1.477a17.7,17.7,0,0,0-.1-2.73,3.949,3.949,0,0,1,.651,1.853q.075.276.125.5a9.6,9.6,0,0,1,0,1.377l-.05.6v.1a5.447,5.447,0,0,0-.125.6,8.545,8.545,0,0,1-.5,1.528.515.515,0,0,0-.1.175.142.142,0,0,1-.051.1q-.55,1.252-1.2,2.454a.045.045,0,0,0-.051.05,2.4,2.4,0,0,0-.175.276.823.823,0,0,0-.1.125,2.641,2.641,0,0,0-.325.476c-.05.083-.092.159-.125.225l-.051.05v.05a.5.5,0,0,0-.15.176,9.2,9.2,0,0,0-.776,1.3q-.7,1.152-1.578,2.754a.044.044,0,0,1-.05.05q-1.426,2.6-2.253,3.932-.426.7-.776,1.2-.252.424-.752,1.252l-1.3,2.353a2.23,2.23,0,0,0-.175.276q-.276.5-.5.926l-.426.827-.05.05q-.55.976-1,1.753l-.375.7q-.827,1.251-1.528,2.2l-.275.326c-.117.134-.242.275-.375.426a28.174,28.174,0,0,1-4.333,3.981q-1.8,1.378-4.908,3.406a11.408,11.408,0,0,0-1.052.7l-5.959,6.135-1.027,1.677c-.083.151-.159.3-.225.451v.05a.18.18,0,0,0-.1.176l-.4.8q-.351.651-.651,1.327a26.488,26.488,0,0,1-1.077,2.454,11.982,11.982,0,0,1-1.327,2.254,26.2,26.2,0,0,1-2.279,3q-.776.8-1.552,1.577-1.2,1.028-2.454,2.029a1.287,1.287,0,0,0-.226.15q-1.527,1-2.829,1.8l-.05.05h-.05a.2.2,0,0,0-.075.125.208.208,0,0,0-.151.05l-3.606,2.4q-2.353,1.578-3.931,2.78a76.909,76.909,0,0,0-7.387,5.959q-2.028,1.753-7.612,6.411-.6.475-1.2.926l-6.386,5.509-.275.275c-.034,0-.05.026-.05.076h-.05a2.677,2.677,0,0,0-.226.2,8.238,8.238,0,0,1-.826.6l-1.7,1.2a11.8,11.8,0,0,0-1.026.676,27.412,27.412,0,0,0-4.107,3q-1.678,1.529-7.387,8.088a36.966,36.966,0,0,1-8.013,7.362A24.988,24.988,0,0,0,3727.534,5106.388Zm72.142-100.965a91.635,91.635,0,0,1,6.737-6.711q.574-.55,1.227-1.151c.1-.1.208-.2.325-.3a23.789,23.789,0,0,1,7.187-4.833l.45-.2a11.469,11.469,0,0,1,3.957-.876,11.881,11.881,0,0,1,4.583.45l1.351.376h-.1a39.854,39.854,0,0,0-4.758.175,21.8,21.8,0,0,0-4.533.877,15.99,15.99,0,0,0-3.23,1.352,7.157,7.157,0,0,0-.7.375,17.125,17.125,0,0,0-2.905,2.2l-.851.851q-.7.65-1.2,1.152c-.3.284-.559.526-.777.726q-1.05.976-3.555,3.706-1.553,1.678-2.2,2.4a6.527,6.527,0,0,1-.476.451,10.606,10.606,0,0,0-1.8,3.431,19.728,19.728,0,0,1-1.879,4.106,40.272,40.272,0,0,1-5.734,6.411q-.6.475-1.152.976l-.3.251a41.043,41.043,0,0,0-3.08,2.754,20.293,20.293,0,0,1-6.886,4.032q-3.13,1.126-4.833,1.778c-.251.083-.484.167-.7.25-.318.15-.568.259-.752.326l4.858-2.78a43.061,43.061,0,0,0,5.584-3.506,66.825,66.825,0,0,0,8.639-6.836,13.985,13.985,0,0,0,3.056-4.081q.7-1.428,1.752-3.957a18.872,18.872,0,0,1,2.63-4.132A.3.3,0,0,1,3799.676,5005.423Z" fill="#e0906b" fill-rule="evenodd"/>
      <path id="Trazado_11903" data-name="Trazado 11903" d="M3724.154,4975.825a4.54,4.54,0,0,1-.276-.751q-.55-1.6-1.653-5.96a8.169,8.169,0,0,1-.15-2.9,23.131,23.131,0,0,1,.551-2.9,12.861,12.861,0,0,0-1.377,4.056,10.44,10.44,0,0,1,1.152-3.731,5.731,5.731,0,0,1,9.24-1.953,22.38,22.38,0,0,1,3.38,3.982q.227.325.5.776a20.025,20.025,0,0,0-2.854-3.556,39.854,39.854,0,0,1,2.679,6.511Zm-1.1.651q-.751-2.5-1.352-5.183.876,3.33,1.352,5.133Zm-16.227-5.684a13.163,13.163,0,0,1,2.079,4.883,19.568,19.568,0,0,1-.326,9.115l-5.208,3a11.126,11.126,0,0,1-5.134-4.858,10.04,10.04,0,0,1-.7-9.841,9.032,9.032,0,0,0-1.752,6.135q-.051-.5-.051-.827a8.245,8.245,0,0,1,1.578-5.083,6.324,6.324,0,0,1,4.758-3.4A6.026,6.026,0,0,1,3706.825,4970.792Zm-19.131,26.093-.075.05q-.7-.552-1.077-.877.227.651.376,1.252l-6.711,3.932a3.821,3.821,0,0,1,.426-3.606,3.95,3.95,0,0,1,2.629-1.678,26.142,26.142,0,0,1,2.78-.451,14.522,14.522,0,0,1,1.577,1.327C3687.669,4996.834,3687.694,4996.851,3687.694,4996.885Zm-11.168,3q.276-.6.551-1.327a5.748,5.748,0,0,1,2.629-2.554.378.378,0,0,0,.15-.05,7.944,7.944,0,0,0-2.128,1.678Q3677.027,4998.912,3676.526,4999.889Zm144.11-7.537a13.617,13.617,0,0,0-2.68,2.329q-.275.325-.526.676a9.2,9.2,0,0,0-1.727,3.606,7.274,7.274,0,0,0-.2,1.477v.2l.1.45a.407.407,0,0,1,.176.05q-.777-.324-.776,3v2.6q0,1.176-.051,2.1v.5a10.738,10.738,0,0,1-.05,1.127v.35q-.1,1.252-.225,2.454v.2c-.033.334-.067.667-.1,1q-.225,1.354-.5,2.68a7.77,7.77,0,0,1-1.8,3.33q-.7.876-3.1,3.28a22.17,22.17,0,0,1-5.484,2.78q-4.257,1.653-5.459,3.08a30.878,30.878,0,0,0-4.257,6.936q-2.805,5.91-3.23,6.711a1.235,1.235,0,0,1-.125.2,23.258,23.258,0,0,1-5.409,6.16,41.062,41.062,0,0,1-11.043,5.885,106.908,106.908,0,0,0-23.889,12.1,48.2,48.2,0,0,0-12.821,12.67l-.3.451q-.4.625-.8,1.352a144.5,144.5,0,0,0-7.062,14.4q-.876,2-1.578,3.656a42.831,42.831,0,0,0-32.1-39.139,44.947,44.947,0,0,0-9.44-1.5,42.093,42.093,0,0,0-5.434.1,39.694,39.694,0,0,0-6.661,1.126,19.007,19.007,0,0,1-.275-3.13,8.7,8.7,0,0,1,3.055-5.509,12.992,12.992,0,0,1,5.634-2.955q8.863-2.027,20.934,3.331a7.27,7.27,0,0,0,2.153.651,10.925,10.925,0,0,0,.526,1.277,12.7,12.7,0,0,1,1.427,4.482,7.268,7.268,0,0,1-.425,1.853,7.968,7.968,0,0,0-.4,1.9,2.434,2.434,0,0,0,.276,1.428,3.343,3.343,0,0,0,2.529.976,135.786,135.786,0,0,1,18.3-7.862l.326-.326.125-.05q.751-.876,1.578-1.7a10.351,10.351,0,0,0,.976-1.427l.276.175q1.578-1.6,3.23-3.08a2.223,2.223,0,0,0,.426-.376,92.71,92.71,0,0,1,11.644-8.914,7.193,7.193,0,0,0,1.928,2.905,9.968,9.968,0,0,0,2.354,1.627,2.71,2.71,0,0,1,.376.176q.5.225,1.051.45a20.346,20.346,0,0,0,5.058,1.027q1.378.1,2.955.1,6.46,0,14.549-5.033,1.7-1.1,3.506-2.4a104.366,104.366,0,0,0,14.748-13.321q1.378-1.528,2.8-3.13,2.955-3.331,5.684-6.711c.218-.3.451-.593.7-.877q1.426-1.852,2.854-3.681c.034-.05.067-.1.1-.15q1.028-1.377,2.028-2.78v-.025q1-1.377,1.954-2.779,2.73-3.932,4.082-6.185a7.98,7.98,0,0,0,1.226-2.73q0-2.878-2.178-3a7.157,7.157,0,0,1,.7-.375,15.99,15.99,0,0,1,3.23-1.352A21.8,21.8,0,0,1,3820.636,4992.352Zm-141.581,38.738q.15.677.326,1.327a1.042,1.042,0,0,1,.05.326Q3679.206,5031.867,3679.055,5031.09Zm104.621,28.171a.2.2,0,0,1,.075-.125h.05A.455.455,0,0,1,3783.676,5059.261Zm43.42-53.462c-.083.134-.175.292-.275.476-.05.067-.109.142-.175.225.033-.066.075-.142.125-.225A2.641,2.641,0,0,1,3827.1,5005.8Zm-12.2,20.558q.7-.951,1.528-2.2c-.1.183-.209.367-.326.551Q3815.553,5025.531,3814.9,5026.357Zm-102.667-46.25q-1.3-3.355-1.753-4.557.6,1.427,1.653,4.107C3712.168,4979.807,3712.2,4979.957,3712.234,4980.107Zm-15.3,8.189c-.05-.251-.091-.485-.125-.7.034.133.075.275.125.425Zm-11.368,6.886a6.571,6.571,0,0,0-3.13-.1,5.42,5.42,0,0,1,2.854-.126C3685.391,4995.04,3685.482,4995.115,3685.566,4995.182Zm-7.663,27.995,21.636,12.471a97.6,97.6,0,0,0-13.923.1l.15-4.383a21.531,21.531,0,0,1-5.233-.375Q3678.88,5026.183,3677.9,5023.177Zm49.306,28.422c-.217.116-.434.242-.652.375a1.674,1.674,0,0,0-.375.276q.15-.376.326-.8c.033-.083.066-.158.1-.225Z" fill="#e9a585" fill-rule="evenodd"/>
      <path id="Trazado_11904" data-name="Trazado 11904" d="M3747.442,5040.856a.072.072,0,0,0-.051.025l-66.433-38.362,108.8-62.778.651.376-51.884,29.949,2.554,1.477-.025.025-2.5-1.452-56.792,32.8Zm11.493-72.593,20.959,12.02-1.6.926-20.959-12.019Zm-1.8,3.23,17.329,9.941-1.628.927-17.328-9.941Zm21.11,42.444-21.26-12.194,1.628-.927,21.259,12.2Zm3.731-2.128-21.26-12.2,1.628-.926,21.26,12.194Zm-7.462,4.257-21.26-12.195,1.628-.927,21.259,12.2Zm11.193-6.386-21.26-12.194,1.6-.927,21.259,12.195Zm-42.519,0,21.259,12.195-1.6.927-21.26-12.195Zm-3.706,2.129L3760.738,5024l-1.628.926-21.259-12.2Zm-3.732,2.128,21.26,12.195-1.627.927-21.26-12.2Zm-3.73,2.129,21.259,12.2-1.628.926-21.259-12.195Zm17.5-10.067,1.628-.926,16.1,9.24-1.628.926Zm-6.686,22.412-16.176-9.29,1.627-.927,16.177,9.29Z" fill="#979797" fill-rule="evenodd"/>
      <path id="Trazado_11905" data-name="Trazado 11905" d="M3788.183,4979.606q.25-2.4-3.907-4.807l-16.6-9.591a14.668,14.668,0,0,0-15.625,0l-10.968,6.335-2.554-1.477,51.884-29.949.051-.025,69.989,40.416-.451.275-.025-.025-69.939-40.391-25.717,14.85,69.964,40.415-4.833,2.78q-.049-.225-.125-.5a3.949,3.949,0,0,0-.651-1.853,10.212,10.212,0,0,0-.977-1.7,9.9,9.9,0,0,0-.926-1.077,4.524,4.524,0,0,0-1.377-1.1h.1l-1.351-.376a11.881,11.881,0,0,0-4.583-.45,11.469,11.469,0,0,0-3.957.876l-.45.2a15.53,15.53,0,0,0-1.578-1.027l-16.6-9.59A15.184,15.184,0,0,0,3788.183,4979.606Zm-2.053,9.892,17.328,9.941-1.628.926-17.328-9.941Zm21.51,8.063q-.652.6-1.227,1.151l-20.083-11.518,1.6-.927Z" fill="#ad9ba2" fill-rule="evenodd"/>
      <path id="Trazado_11906" data-name="Trazado 11906" d="M3803.633,4932.3a7.11,7.11,0,0,1,2.529.877l1.2.726-1.377-.776A7.774,7.774,0,0,0,3803.633,4932.3Zm-69.313,118.468-65.982-38.037a2.8,2.8,0,0,1-1.7-2.3v-.225a2.705,2.705,0,0,1,1.577-2.053,2.385,2.385,0,0,0-1.2,2.128,2.958,2.958,0,0,0,1.7,2.279l66.033,37.836A2.223,2.223,0,0,1,3734.32,5050.772Zm94.955-49.681a5.447,5.447,0,0,1,.125-.6l42.9-24.815a2.652,2.652,0,0,0,1.6-2.254,2.121,2.121,0,0,0-.6-1.427,2.253,2.253,0,0,1,.927,1.6v.375a2.513,2.513,0,0,1-1.6,2.079Z" fill-rule="evenodd" fill="url(#linear-gradient-2)"/>
      <path id="Trazado_11907" data-name="Trazado 11907" d="M3815.227,4969.891l-1.628.926,17.329,9.941,1.627-.926Zm1.8-3.231-1.6.927,20.959,12.019,1.6-.926Zm17.253,28.972-69.964-40.415,25.717-14.85,69.939,40.391.025.025.05.025-25.717,14.849Zm-55.14-34.556q1.477.9,7.062,4.082,7.135,4.107,7.587,4.332,2.78,1.4,3.906.751a3.257,3.257,0,0,0,1.8-3.33q-.2-2.3-2.829-5.409-.276-.225-1.052-.726c-.4-.267-.693-.451-.876-.551a15.454,15.454,0,0,0-2.93-1.352,33.039,33.039,0,0,0-7.212-1.278q-4.957-.4-7.462,1.052c-.234.117-.284.317-.15.6A6.542,6.542,0,0,0,3779.143,4961.076Zm26.919-1.327a4.763,4.763,0,0,0,1.527-1.427,2.565,2.565,0,0,0,.527-1.177,2.608,2.608,0,0,0-.426-1.578,4.7,4.7,0,0,0-1.828-1.778,10.676,10.676,0,0,0-4.583-1.252,9.742,9.742,0,0,0-5.734,1.152,3.533,3.533,0,0,0-1.127.952,10.475,10.475,0,0,0-.626,1.076,3.086,3.086,0,0,0,.576,2.48,8.121,8.121,0,0,0,1.753,1.227,13.176,13.176,0,0,0,1.853.926,17.055,17.055,0,0,0,2.228.451,9.556,9.556,0,0,0,2.98-.075A8.861,8.861,0,0,0,3806.062,4959.749Zm-52.586,32.353q.276-1.353-1.5-2.58a7.368,7.368,0,0,0-4.833-.926q-1,.1-1.828.2a10.4,10.4,0,0,0,.326-1.076q.425-1.8-1.628-2.78a8.8,8.8,0,0,0-4.457-.876,7.31,7.31,0,0,0-3.556.951,4.593,4.593,0,0,0-1.778,2.129,4.886,4.886,0,0,0,.2,3.53,9.046,9.046,0,0,1,.551,4.107,44.665,44.665,0,0,1,7.062.276,24.583,24.583,0,0,0,6.085.125,10.859,10.859,0,0,0,3.706-1.027A2.9,2.9,0,0,0,3753.476,4992.1Zm9.265-1.1-21.259,12.195-21.26-12.22,21.26-12.2Zm-55.29,8.163q0,.527.852.927a8.477,8.477,0,0,1,1.753,1.076q-.325.8-.8,2.229a12.075,12.075,0,0,0-.676,2.3q0,.025.075.5a.8.8,0,0,0,.827.475q.024,0,4.908-1.627,5.309-1.728,7.237-2.2-1.4,2.053-2.179,3.231a11.023,11.023,0,0,0-1.452,2.529.928.928,0,0,0,.15.526,1.393,1.393,0,0,0,1.2.45,12.165,12.165,0,0,0,2.529-.7,11.37,11.37,0,0,1,3.506-.7,4.633,4.633,0,0,1,.8.7,2,2,0,0,0,1.227.7,1.091,1.091,0,0,0,.876-.35.96.96,0,0,0,.226-.626,3.75,3.75,0,0,0-.726-1.252,3.429,3.429,0,0,0-2.7-1.2,8.993,8.993,0,0,0-2.479.275,7.717,7.717,0,0,1-1.077.25l.1-.075q2.8-4.031,2.8-5.183a1.075,1.075,0,0,0-.075-.6.961.961,0,0,0-1-.551,28.551,28.551,0,0,0-6.034,1.678l-6.561,2.278q.274-.551.7-1.627a6.8,6.8,0,0,0,.526-1.728q0-1.152-2.254-1.9Q3707.451,4998.186,3707.451,4999.163Zm8.389-5.96,21.26,12.22-21.26,12.2-21.259-12.22Z" fill="#e384aa" fill-rule="evenodd"/>
      <path id="Trazado_11908" data-name="Trazado 11908" d="M3786.13,4989.5l-1.628.926,17.328,9.941,1.628-.926Zm2.053-9.892a15.184,15.184,0,0,1,8.789,2.2l16.6,9.59a15.53,15.53,0,0,1,1.578,1.027,23.789,23.789,0,0,0-7.187,4.833c-.117.1-.225.2-.325.3l-19.707-11.294-1.6.927,20.083,11.518a91.635,91.635,0,0,0-6.737,6.711l-26.392-15.249,10.992-6.361Q3787.933,4981.71,3788.183,4979.606Z" fill="#847c80" fill-rule="evenodd"/>
      <path id="Trazado_11909" data-name="Trazado 11909" d="M3747.391,5040.881a.072.072,0,0,1,.051-.025,70.8,70.8,0,0,1,25.641-10.091c.184-.067.434-.176.752-.326.217-.083.45-.167.7-.25q1.7-.651,4.833-1.778a20.293,20.293,0,0,0,6.886-4.032,41.043,41.043,0,0,1,3.08-2.754l.3-.251q.552-.5,1.152-.976a40.272,40.272,0,0,0,5.734-6.411,19.728,19.728,0,0,0,1.879-4.106,10.606,10.606,0,0,1,1.8-3.431,6.527,6.527,0,0,0,.476-.451q.651-.726,2.2-2.4,2.5-2.729,3.555-3.706c.218-.2.476-.442.777-.726q.5-.5,1.2-1.152l.851-.851a17.125,17.125,0,0,1,2.905-2.2q2.178.126,2.178,3a7.98,7.98,0,0,1-1.226,2.73q-1.353,2.253-4.082,6.185-.953,1.4-1.954,2.779v.025q-1,1.4-2.028,2.78c-.033.05-.066.1-.1.15q-1.426,1.829-2.854,3.681c-.251.284-.484.576-.7.877q-2.729,3.379-5.684,6.711-1.426,1.6-2.8,3.13a104.366,104.366,0,0,1-14.748,13.321q-1.8,1.3-3.506,2.4-8.088,5.034-14.549,5.033-1.577,0-2.955-.1a20.346,20.346,0,0,1-5.058-1.027q-.551-.225-1.051-.45a2.71,2.71,0,0,0-.376-.176,9.968,9.968,0,0,1-2.354-1.627,7.193,7.193,0,0,1-1.928-2.905Q3746.891,5041.157,3747.391,5040.881Z" fill="#ebb296" fill-rule="evenodd"/>
      <path id="Trazado_11910" data-name="Trazado 11910" d="M3727.209,5051.6l3.6,2.078a10.351,10.351,0,0,1-.976,1.427q-.826.826-1.578,1.7l-.125.05-.326.326a135.786,135.786,0,0,0-18.3,7.862,3.343,3.343,0,0,1-2.529-.976,2.434,2.434,0,0,1-.276-1.428,7.968,7.968,0,0,1,.4-1.9,7.268,7.268,0,0,0,.425-1.853,12.7,12.7,0,0,0-1.427-4.482,10.925,10.925,0,0,1-.526-1.277,7.27,7.27,0,0,1-2.153-.651q-12.07-5.36-20.934-3.331a12.992,12.992,0,0,0-5.634,2.955,8.7,8.7,0,0,0-3.055,5.509,19.007,19.007,0,0,0,.275,3.13q-2.178.552-4.257,1.3l-.225-.826a12.632,12.632,0,0,1-.1-1.577v-2.029a.628.628,0,0,0,.05-.275l.1-.751,1.352-3.656,1.127-3.055.7-1.928q.375-.653.751-1.377c.05-.034.075-.068.075-.1a16.182,16.182,0,0,1,.877-1.427l4.582-8.314a6.1,6.1,0,0,0,.326-.8,3.95,3.95,0,0,0,.275-1.753q-.049-.45-.225-1.377a.044.044,0,0,1-.05-.05,1.042,1.042,0,0,0-.05-.326q-.176-.651-.326-1.327l-1-3.606q-.475-1.852-.877-3.33l-.425-1.628,1.151.651q.978,3.007,2.63,7.813a21.531,21.531,0,0,0,5.233.375l-.15,4.383a97.6,97.6,0,0,1,13.923-.1l27.069,15.575c-.034.067-.067.142-.1.225q-.175.426-.326.8a1.674,1.674,0,0,1,.375-.276C3726.775,5051.841,3726.992,5051.715,3727.209,5051.6Z" fill-rule="evenodd" fill="url(#linear-gradient-3)"/>
      <path id="Trazado_11911" data-name="Trazado 11911" d="M3730.814,5053.677l-3.6-2.078-.6-.376-27.069-15.575-21.636-12.471-1.151-.651-8.414-4.883a2.839,2.839,0,0,1-1.653-2.078h-.05v-5.134a2.8,2.8,0,0,0,1.7,2.3l65.982,38.037q-1.653,1.477-3.23,3.08Zm143.409-79.7V4979a2.676,2.676,0,0,1-1.6,1.9l-46.951,27.169a9.2,9.2,0,0,1,.776-1.3.5.5,0,0,1,.15-.176l9.842-5.734q1.2-.7,1.2-1.252v-1.477a.374.374,0,0,0-.1-.276.544.544,0,0,0-.325,0,2.007,2.007,0,0,0-.877.376l-7.562,4.382a8.545,8.545,0,0,0,.5-1.528l43.345-25.04A2.513,2.513,0,0,0,3874.223,4973.972Zm-197.8,44.022a1.482,1.482,0,0,0-.376-.351.4.4,0,0,0-.325-.05.17.17,0,0,0-.125.05.47.47,0,0,0-.226.451.868.868,0,0,0,.226.551.174.174,0,0,0,.05.138.716.716,0,0,0-.276-.138.514.514,0,0,0-.425-.125.6.6,0,0,0-.226.5,1.288,1.288,0,0,0,.175.6,1.054,1.054,0,0,0,.426.426.513.513,0,0,0,.5.075.469.469,0,0,0,.225-.45,1.28,1.28,0,0,0-.175-.6.6.6,0,0,1-.1-.151.569.569,0,0,0,.2.2c.234.117.4.142.5.075a.872.872,0,0,0,.175-.175.616.616,0,0,0,.05-.276.931.931,0,0,0-.225-.6A.2.2,0,0,1,3676.426,5017.994Zm.5.926a1.236,1.236,0,0,0,.15.6.631.631,0,0,0,.1.151c-.069-.069-.152-.144-.25-.226a.6.6,0,0,0-.175-.05.388.388,0,0,0-.276,0,.6.6,0,0,0-.225.5,1.019,1.019,0,0,0,.175.551.764.764,0,0,0,.426.476.571.571,0,0,0,.325.125c.05-.034.109-.075.175-.125q.226-.051.226-.376a1.312,1.312,0,0,0-.226-.651l-.05-.05a1.353,1.353,0,0,0,.226.15.367.367,0,0,0,.476,0,.416.416,0,0,0,.225-.426,1.287,1.287,0,0,0-.175-.6,1.107,1.107,0,0,0-.476-.451.454.454,0,0,0-.451-.05A.488.488,0,0,0,3676.927,5018.92Zm-2.855-2.153a.47.47,0,0,0-.225.451,1.082,1.082,0,0,0,.225.6.963.963,0,0,0,.376.425c.217.117.384.142.5.075a.468.468,0,0,0,.225-.45,1.279,1.279,0,0,0-.175-.6,2.586,2.586,0,0,0-.426-.426A.514.514,0,0,0,3674.072,5016.767ZM3675,5020a2.626,2.626,0,0,0-.426-.426.469.469,0,0,0-.5-.05.483.483,0,0,0-.225.426.931.931,0,0,0,.225.6,1.171,1.171,0,0,0,.376.451c.217.133.384.15.5.05a.471.471,0,0,0,.225-.451A1.282,1.282,0,0,0,3675,5020Zm.6,1.427a3.826,3.826,0,0,0,.375.5.623.623,0,0,0,.5,0,1.019,1.019,0,0,1,.175-.125.76.76,0,0,0,.05-.325,1.079,1.079,0,0,0-.225-.6c-.033-.067-.067-.142-.1-.226a1,1,0,0,0-.326-.2.379.379,0,0,0-.45-.05.414.414,0,0,0-.226.425A.921.921,0,0,0,3675.6,5021.424Zm2.253-1.151a.518.518,0,0,0-.175.45,1.292,1.292,0,0,0,.175.6,1.512,1.512,0,0,0,.426.476.4.4,0,0,0,.5,0,.485.485,0,0,0,.15-.426,1.6,1.6,0,0,0-.1-.551.671.671,0,0,1-.1-.225,1.285,1.285,0,0,0,.2.276.534.534,0,0,0,.5,0q.225-.051.225-.426a1.279,1.279,0,0,0-.175-.6.867.867,0,0,0-.426-.451c-.217-.133-.384-.15-.5-.05a.438.438,0,0,0-.226.451,1.4,1.4,0,0,0,.175.6.546.546,0,0,1,.1.15,2.062,2.062,0,0,0-.275-.225A.5.5,0,0,0,3677.853,5020.273Zm-.926,1.427a1.451,1.451,0,0,0,.15.6,1.228,1.228,0,0,0,.451.426.435.435,0,0,0,.25.125.5.5,0,0,0,.226-.05.471.471,0,0,0,.225-.451,1.37,1.37,0,0,0-.175-.651,1.024,1.024,0,0,0-.476-.376c-.117-.116-.226-.158-.326-.125a.169.169,0,0,0-.125.05A.491.491,0,0,0,3676.927,5021.7Zm1.628.375a.545.545,0,0,0-.226.451,1.278,1.278,0,0,0,.175.6,6.324,6.324,0,0,0,.426.476.513.513,0,0,0,.5.075.521.521,0,0,0,.225-.5,1.282,1.282,0,0,0-.175-.6,1.215,1.215,0,0,0-.426-.45A.556.556,0,0,0,3678.555,5022.075Zm15.374,7.112a.815.815,0,0,0-.4.776,2.057,2.057,0,0,0,.4,1.127,2.446,2.446,0,0,0,.752.827l9.741,5.634a.954.954,0,0,0,.876.1.824.824,0,0,0,.376-.8,1.839,1.839,0,0,0-.051-.4c-.083-.217-.191-.468-.325-.751a2.329,2.329,0,0,0-.776-.827l-9.791-5.584A.676.676,0,0,0,3693.929,5029.187Z" fill-rule="evenodd" fill="url(#linear-gradient-4)"/>
      <path id="Trazado_11912" data-name="Trazado 11912" d="M3820.41,5012.184h.075a3.631,3.631,0,0,0,.6-1.151c.034-.134.067-.259.1-.376a5.224,5.224,0,0,0,.225-1.052.562.562,0,0,1,.05-.25v-.877a9.042,9.042,0,0,0-.1-1.377v-.175q-.125-.6-.276-1.127a1.951,1.951,0,0,1-.175-.4,8.974,8.974,0,0,0-.8-1.6l-.025-.025a8.2,8.2,0,0,0-3.055-2.78,6.832,6.832,0,0,0-1.527-.551,7.274,7.274,0,0,1,.2-1.477,9.2,9.2,0,0,1,1.727-3.606q.25-.351.526-.676a13.617,13.617,0,0,1,2.68-2.329,39.854,39.854,0,0,1,4.758-.175,4.524,4.524,0,0,1,1.377,1.1,9.9,9.9,0,0,1,.926,1.077,10.212,10.212,0,0,1,.977,1.7,17.7,17.7,0,0,1,.1,2.73q-.1.55-.25,1.477c-.051.25-.125.543-.226.876q-.125.276-.275.651a12.592,12.592,0,0,1-.6,1.328c-.067.133-.125.258-.176.375-.066.117-.117.209-.15.276q-.876,1.576-2.354,3.706a.88.88,0,0,0-.225.325h-.05q-.5.727-1.2,1.653-1.027,1.3-2.629,3.18Q3820.536,5012.41,3820.41,5012.184Z" fill="#eabaa2" fill-rule="evenodd"/>
      <path id="Trazado_11913" data-name="Trazado 11913" d="M3826.595,5006.6v-.05l.051-.05c.066-.083.125-.158.175-.225l9.515-5.509q1.152-.651,1.152-1.152v-1.477c0-.067-.025-.1-.075-.1a.331.331,0,0,0-.2-.075,4.992,4.992,0,0,0-.776.4l-7.814,4.532a.142.142,0,0,0,.051-.1.515.515,0,0,1,.1-.175l7.562-4.382a2.007,2.007,0,0,1,.877-.376.544.544,0,0,1,.325,0,.374.374,0,0,1,.1.276v1.477q0,.551-1.2,1.252Z" fill="#979aa7" fill-rule="evenodd"/>
      <path id="Trazado_11914" data-name="Trazado 11914" d="M3820.41,5012.184a.374.374,0,0,0-.05-.15l-.926-2.153q-.225-.751-.376-1.478a.2.2,0,0,1-.05-.15q-.175-.55-.325-1.052a1.353,1.353,0,0,1-.176-.425q-.326-.877-.6-1.7a2.017,2.017,0,0,1-.175-.326q-1.126-3.105-1.9-3.555l-.05-.051a.407.407,0,0,0-.176-.05l-.1-.45v-.2a6.832,6.832,0,0,1,1.527.551,8.2,8.2,0,0,1,3.055,2.78l.025.025a8.974,8.974,0,0,1,.8,1.6,1.951,1.951,0,0,0,.175.4q.152.527.276,1.127v.175a9.042,9.042,0,0,1,.1,1.377v.877a.562.562,0,0,0-.05.25,5.224,5.224,0,0,1-.225,1.052c-.034.117-.067.242-.1.376a3.631,3.631,0,0,1-.6,1.151Z" fill="#f1cbb8" fill-rule="evenodd"/>
      <path id="Trazado_11915" data-name="Trazado 11915" d="M3826.821,5006.275c.1-.184.192-.342.275-.476a.823.823,0,0,1,.1-.125,2.4,2.4,0,0,1,.175-.276.045.045,0,0,1,.051-.05q.651-1.2,1.2-2.454l7.814-4.532a4.992,4.992,0,0,1,.776-.4.331.331,0,0,1,.2.075c.05,0,.075.034.075.1v1.477q0,.5-1.152,1.152Z" fill-rule="evenodd" fill="url(#linear-gradient-5)"/>
      <path id="Trazado_11916" data-name="Trazado 11916" d="M3697.035,5022.852a.044.044,0,0,0,.05.05,2.178,2.178,0,0,0,1.2,1.2l11.644,6.736a4.522,4.522,0,0,0,4.757,0l3.331-1.928q1.051-.6,1.2-1.2v-.05q.275.876-1.2,1.753l-3.331,1.9a4.453,4.453,0,0,1-4.757,0l-11.644-6.712a2.709,2.709,0,0,1-.927-.675A1.044,1.044,0,0,1,3697.035,5022.852Zm21.71,4.808a2.312,2.312,0,0,0-1-.877l-11.569-6.736a4,4,0,0,0-.551-.25,4.717,4.717,0,0,0-1.252-.351,4.4,4.4,0,0,0-2.529.6l-3.33,1.928a2.36,2.36,0,0,0-.927.877v-.05a.861.861,0,0,1,.326-.877,3.1,3.1,0,0,1,.6-.45l3.33-1.9a3.813,3.813,0,0,1,2.4-.6,2.892,2.892,0,0,1,1.1.225q.377.15.826.375l11.569,6.711q1.152.676,1.052,1.277A.148.148,0,0,1,3718.745,5027.66Z" fill="#b2b3bf" fill-rule="evenodd"/>
      <path id="Trazado_11917" data-name="Trazado 11917" d="M3676.376,5018.194a1.143,1.143,0,0,1,.15.551q0,.225-.15.276a.539.539,0,0,1-.326,0,.8.8,0,0,1-.125-.1c-.067-.116-.134-.225-.2-.325a.954.954,0,0,1-.175-.5c0-.184.033-.292.1-.325h.075a.247.247,0,0,1,.25.05A.679.679,0,0,1,3676.376,5018.194Z" fill-rule="evenodd" fill="url(#linear-gradient-6)"/>
      <path id="Trazado_11918" data-name="Trazado 11918" d="M3677.177,5018.645a.276.276,0,0,1,.351,0,1.609,1.609,0,0,1,.375.426,1.054,1.054,0,0,1,.151.5q0,.276-.151.326a.537.537,0,0,1-.325,0,.984.984,0,0,1-.326-.5.7.7,0,0,1-.175-.476C3677.077,5018.77,3677.111,5018.678,3677.177,5018.645Z" fill-rule="evenodd" fill="url(#linear-gradient-7)"/>
      <path id="Trazado_11919" data-name="Trazado 11919" d="M3674.448,5016.992a.667.667,0,0,1,.45.326,1.923,1.923,0,0,1,.1.551c0,.15-.034.242-.1.275a.288.288,0,0,1-.325,0,.881.881,0,0,1-.326-.375,1.041,1.041,0,0,1-.225-.551.362.362,0,0,1,.15-.326C3674.256,5016.859,3674.347,5016.892,3674.448,5016.992Z" fill-rule="evenodd" fill="url(#linear-gradient-8)"/>
      <path id="Trazado_11920" data-name="Trazado 11920" d="M3675,5018.695c.083-.033.192,0,.325.1a.656.656,0,0,1,.451.4,1.05,1.05,0,0,1,.1.476c0,.15-.033.242-.1.275v.05a.484.484,0,0,1-.4-.1.734.734,0,0,1-.325-.326,1.138,1.138,0,0,1-.151-.55A.447.447,0,0,1,3675,5018.695Z" fill-rule="evenodd" fill="url(#linear-gradient-9)"/>
      <path id="Trazado_11921" data-name="Trazado 11921" d="M3675,5020.6c0,.184-.034.292-.1.326a.294.294,0,0,1-.325-.05.616.616,0,0,1-.326-.376.872.872,0,0,1-.225-.551q0-.225.15-.275a.214.214,0,0,1,.276,0,1.453,1.453,0,0,1,.45.45A1.429,1.429,0,0,1,3675,5020.6Z" fill-rule="evenodd" fill="url(#linear-gradient-10)"/>
      <path id="Trazado_11922" data-name="Trazado 11922" d="M3675.55,5020.823c0-.15.033-.241.1-.275a.288.288,0,0,1,.325,0,.686.686,0,0,1,.4.376.312.312,0,0,1,.05.175l.1.376a.361.361,0,0,1-.15.325c-.084.05-.192.034-.326-.05a.931.931,0,0,1-.325-.376A1.015,1.015,0,0,1,3675.55,5020.823Z" fill-rule="evenodd" fill="url(#linear-gradient-11)"/>
      <path id="Trazado_11923" data-name="Trazado 11923" d="M3677.4,5020.548q0,.226-.15.275v.051h-.125a.44.44,0,0,1-.2-.051,1.221,1.221,0,0,1-.351-.425.886.886,0,0,1-.2-.5.365.365,0,0,1,.15-.326.4.4,0,0,1,.276,0,.044.044,0,0,0,.05.05.945.945,0,0,1,.4.376A1.142,1.142,0,0,1,3677.4,5020.548Z" fill-rule="evenodd" fill="url(#linear-gradient-12)"/>
      <path id="Trazado_11924" data-name="Trazado 11924" d="M3678.279,5020.448a1.169,1.169,0,0,1,.376.426.959.959,0,0,1,.175.5c0,.184-.034.293-.1.326a.588.588,0,0,1-.4-.05.887.887,0,0,1-.325-.4,1,1,0,0,1-.151-.526c0-.15.034-.242.1-.275A.546.546,0,0,1,3678.279,5020.448Z" fill-rule="evenodd" fill="url(#linear-gradient-13)"/>
      <path id="Trazado_11925" data-name="Trazado 11925" d="M3677.177,5021.374h.125a.633.633,0,0,1,.226.05,1.017,1.017,0,0,1,.375.376,1.137,1.137,0,0,1,.151.551c0,.15-.05.242-.151.275v.051c-.033.033-.091.033-.175,0a.379.379,0,0,1-.15-.051.846.846,0,0,1-.326-.425.8.8,0,0,1-.175-.5A.453.453,0,0,1,3677.177,5021.374Z" fill-rule="evenodd" fill="url(#linear-gradient-14)"/>
      <path id="Trazado_11926" data-name="Trazado 11926" d="M3678.6,5019.446a.342.342,0,0,1,.326.075.946.946,0,0,1,.4.376,1.374,1.374,0,0,1,.15.551.323.323,0,0,1-.1.275v.051a.377.377,0,0,1-.326-.051,1.759,1.759,0,0,1-.4-.45,1.04,1.04,0,0,1-.151-.476A.556.556,0,0,1,3678.6,5019.446Z" fill-rule="evenodd" fill="url(#linear-gradient-15)"/>
      <path id="Trazado_11927" data-name="Trazado 11927" d="M3678.93,5022.251a1.413,1.413,0,0,1,.4.426,1.063,1.063,0,0,1,.15.5.448.448,0,0,1-.1.326.38.38,0,0,1-.326-.05,1.213,1.213,0,0,1-.4-.376,1.145,1.145,0,0,1-.151-.551c0-.15.034-.242.1-.275A.242.242,0,0,1,3678.93,5022.251Z" fill-rule="evenodd" fill="url(#linear-gradient-16)"/>
      <path id="Trazado_11928" data-name="Trazado 11928" d="M3727.709,5100.153v.05a45.916,45.916,0,0,1-1.527,13.672,48.832,48.832,0,0,1-2.254,6.385c-.067.184-.142.367-.225.551a185.736,185.736,0,0,1-17.278,14.274q-.2-8.415-.927-15.3a1.213,1.213,0,0,1-.05-.326v-.275q-.225-1.7-.426-3.281-1.752-13.071-5.684-19.857a55.031,55.031,0,0,0-8.864-11.594q-1.178-1.152-2.379-2.2a50.061,50.061,0,0,0-8.063-5.66,46.106,46.106,0,0,0-6.285-2.955,61.043,61.043,0,0,0-6.511-2.178,55.22,55.22,0,0,0-11.744-1.878l7.362-4.257a47.1,47.1,0,0,1,6.961-3.281q2.079-.75,4.257-1.3a39.694,39.694,0,0,1,6.661-1.126,42.093,42.093,0,0,1,5.434-.1,44.947,44.947,0,0,1,9.44,1.5,43.662,43.662,0,0,1,32.1,39.139Zm-7.662,2.754a5.14,5.14,0,0,0-4.157-2.2,5.076,5.076,0,0,0-4.132,2.2,9.023,9.023,0,0,0,0,10.618,5.077,5.077,0,0,0,4.132,2.2,5.142,5.142,0,0,0,4.157-2.2,9.127,9.127,0,0,0,0-10.618Z" fill-rule="evenodd" fill="url(#linear-gradient-17)"/>
      <path id="Trazado_11929" data-name="Trazado 11929" d="M3600.3,5095.458a16.338,16.338,0,0,1,5.008-6.123l21.811-12.595a50.887,50.887,0,0,1,28.371-7.162,55.22,55.22,0,0,1,11.744,1.878,61.043,61.043,0,0,1,6.511,2.178,46.106,46.106,0,0,1,6.285,2.955,50.061,50.061,0,0,1,8.063,5.66q1.2,1.05,2.379,2.2a55.031,55.031,0,0,1,8.864,11.594q3.932,6.786,5.684,19.857.2,1.578.426,3.281v.275a1.213,1.213,0,0,0,.05.326q.726,6.885.927,15.3.075,2.078.075,4.306a200.354,200.354,0,0,1-27.77,10.392,67.678,67.678,0,0,1-12.2,2.8q-3.03.525-5.91.877a50.862,50.862,0,0,0,.7-8.715q0-13.5-10.767-28.1a77.9,77.9,0,0,0-7.262-8.54,65.427,65.427,0,0,0-16.4-12.244q-14.324-7.463-23.663-2.5a13.921,13.921,0,0,0-2.855,1.953Zm48.3,34.693a19.013,19.013,0,0,1,1.778,3.406,13.332,13.332,0,0,1-1.5-2.3q-1.227-2.2-1.7-3.055v-.225A22.169,22.169,0,0,1,3648.606,5130.151Z" fill-rule="evenodd" fill="url(#linear-gradient-18)"/>
      <path id="Trazado_11930" data-name="Trazado 11930" d="M3694.03,5030.99a2.032,2.032,0,0,1-.326-1.027.622.622,0,0,1,.276-.6.671.671,0,0,1,.7.051l9.741,5.634a1.763,1.763,0,0,1,.751.8,1.529,1.529,0,0,1,.225.551,2.034,2.034,0,0,1,.05.45.712.712,0,0,1-.275.651.66.66,0,0,1-.651-.049l-9.791-5.635A2.028,2.028,0,0,1,3694.03,5030.99Z" fill-rule="evenodd" fill="url(#linear-gradient-19)"/>
      <path id="Trazado_11931" data-name="Trazado 11931" d="M3720.047,5102.907a9.127,9.127,0,0,1,0,10.618,5.142,5.142,0,0,1-4.157,2.2,5.077,5.077,0,0,1-4.132-2.2,9.023,9.023,0,0,1,0-10.618,5.076,5.076,0,0,1,4.132-2.2A5.14,5.14,0,0,1,3720.047,5102.907Z" fill="#80949a" fill-rule="evenodd"/>
      <path id="Trazado_11932" data-name="Trazado 11932" d="M3648.606,5130.151a22.169,22.169,0,0,0-1.428-2.178v.225q.476.852,1.7,3.055a13.332,13.332,0,0,0,1.5,2.3A19.013,19.013,0,0,0,3648.606,5130.151Zm-48.3-34.693.075-.138a13.921,13.921,0,0,1,2.855-1.953q9.341-4.959,23.663,2.5a65.427,65.427,0,0,1,16.4,12.244,77.9,77.9,0,0,1,7.262,8.54q10.767,14.6,10.767,28.1a50.862,50.862,0,0,1-.7,8.715q-33.88,3.932-50.332-19.232a64.68,64.68,0,0,1-7.187-13.422q-1.251-2.854-2.153-5.484a1.469,1.469,0,0,1-.075-.25q-3.981-11.821-.726-19.281C3600.2,5095.683,3600.251,5095.571,3600.3,5095.458Z" fill-rule="evenodd"/>
    </g>
  </g>
</svg>
