<svg xmlns="http://www.w3.org/2000/svg" width="1106.436" height="781.256" viewBox="0 0 1106.436 781.256">
  <g id="Grupo_2737" data-name="Grupo 2737" transform="translate(-119.834 -2258.551)">
    <text id="Mejora_la_productividad_de_los_empleados_Los_trabajadores_se_esfuerzan_para_alcanzar_los_objetivos_marcados_y_de_esta_manera_obtener_los_incentivos_correspondientes._Por_lo_tanto_al_aumentar_su_rendimiento_crece_también_su_productividad._Además_como_t" data-name="Mejora la productividad de los empleados
Los trabajadores se esfuerzan para alcanzar los objetivos marcados y, de esta manera, obtener los incentivos correspondientes. Por lo tanto, al aumentar su rendimiento, crece también su productividad.
Además, como t" transform="translate(209.115 2396.651)" fill="#444242" font-size="16" font-family="OpenSans-Bold, Open Sans" font-weight="700"><tspan x="59.308" y="17">Mejora la productividad de los empleados</tspan><tspan font-family="OpenSans, Open Sans" font-weight="400"><tspan x="13.156" y="39">Los trabajadores se esfuerzan para alcanzar los objetivos </tspan><tspan x="34.378" y="61">marcados y, de esta manera, obtener los incentivos </tspan><tspan x="2.015" y="83">correspondientes. Por lo tanto, al aumentar su rendimiento, </tspan><tspan x="106.101" y="105">crece también su productividad.</tspan><tspan x="24.109" y="127">Además, como todos los trabajadores “juegan” con las </tspan><tspan x="12.503" y="149">mismas condiciones y tienen las mismas posibilidades de </tspan><tspan x="2.382" y="171">promocionar, ganar incentivos y crecer, fomenta la igualdad </tspan><tspan x="184.476" y="193">entre ellos.</tspan><tspan x="225.843" y="215"></tspan></tspan></text>
    <text id="Atrae_profesionales_cualificados_Si_una_empresa_cuida_a_sus_trabajadores_más_candidatos_querrán_formar_parte_de_ella_y_profesionales_más_capacitados_acudirán_a_los_procesos_de_selección.promocionar_ganar_incentivos_y_crecer_fomenta_la_igualdad_entre_ell" data-name="Atrae profesionales cualificados
Si una empresa cuida a sus trabajadores, más candidatos querrán formar parte de ella y profesionales más capacitados acudirán a los procesos de selección.promocionar, ganar incentivos y crecer, fomenta la igualdad entre ell" transform="translate(798.956 2399.278)" fill="#444242" font-size="16" font-family="OpenSans-Bold, Open Sans" font-weight="700"><tspan x="43.741" y="17">Atrae profesionales cualificados</tspan><tspan font-family="OpenSans, Open Sans" font-weight="400"><tspan x="1.214" y="39">Si una empresa cuida a sus trabajadores, más </tspan><tspan x="15.839" y="61">candidatos querrán formar parte de ella y </tspan><tspan x="2.956" y="83">profesionales más capacitados acudirán a los </tspan><tspan x="14.022" y="105">procesos de selección.promocionar, ganar </tspan><tspan x="2.339" y="127">incentivos y crecer, fomenta la igualdad entre </tspan><tspan x="152.405" y="149">ellos.</tspan></tspan></text>
    <g id="Grupo_930" data-name="Grupo 930" transform="translate(-3163.811 -2296.564)">
      <g id="Grupo_927" data-name="Grupo 927">
        <path id="Trazado_1463" data-name="Trazado 1463" d="M3818.613,4916.061H3374.448a34.172,34.172,0,0,1-34.129-34.138V4589.374a34.172,34.172,0,0,1,34.129-34.138h444.165a34.172,34.172,0,0,1,34.128,34.138v96.207a3.1,3.1,0,0,1-6.206,0v-96.207a27.959,27.959,0,0,0-27.922-27.932H3374.448a27.959,27.959,0,0,0-27.923,27.932v292.549a27.959,27.959,0,0,0,27.923,27.932h444.165a27.958,27.958,0,0,0,27.922-27.932V4709.788a3.1,3.1,0,0,1,3.1-3.1h47.516a3.1,3.1,0,0,1,0,6.206h-44.413v169.032A34.172,34.172,0,0,1,3818.613,4916.061Z" fill="#f3ae4b"/>
      </g>
      <g id="Grupo_928" data-name="Grupo 928">
        <path id="Trazado_1464" data-name="Trazado 1464" d="M3880.607,4729.443a3.1,3.1,0,0,1-2.194-5.3l16.547-16.552a3.1,3.1,0,1,1,4.389,4.388l-16.547,16.552A3.093,3.093,0,0,1,3880.607,4729.443Z" fill="#f3ae4b"/>
      </g>
      <g id="Grupo_929" data-name="Grupo 929">
        <path id="Trazado_1465" data-name="Trazado 1465" d="M3897.154,4712.891a3.094,3.094,0,0,1-2.194-.909l-16.547-16.552a3.1,3.1,0,0,1,4.389-4.388l16.547,16.552a3.1,3.1,0,0,1-2.2,5.3Z" fill="#f3ae4b"/>
      </g>
    </g>
    <g id="Grupo_934" data-name="Grupo 934" transform="translate(-3163.811 -2296.564)">
      <g id="Grupo_931" data-name="Grupo 931">
        <path id="Trazado_1466" data-name="Trazado 1466" d="M4214.634,4944.037a3.1,3.1,0,0,1,5.3-2.2l16.552,16.547a3.1,3.1,0,1,1-4.388,4.389l-16.552-16.547A3.093,3.093,0,0,1,4214.634,4944.037Z" fill="#f3ae4b"/>
      </g>
      <g id="Grupo_932" data-name="Grupo 932">
        <path id="Trazado_1467" data-name="Trazado 1467" d="M4231.186,4960.583a3.091,3.091,0,0,1,.909-2.194l16.552-16.547a3.1,3.1,0,0,1,4.388,4.389l-16.552,16.547a3.1,3.1,0,0,1-5.3-2.195Z" fill="#f3ae4b"/>
      </g>
      <g id="Grupo_933" data-name="Grupo 933">
        <path id="Trazado_1468" data-name="Trazado 1468" d="M4234.29,4909.964H3961.621a27.957,27.957,0,0,1-27.931-27.922V4730.436h-6.206v151.606a34.172,34.172,0,0,0,34.137,34.128h269.566v44.414a3.1,3.1,0,1,0,6.205,0v-47.517A3.1,3.1,0,0,0,4234.29,4909.964Z" fill="#f3ae4b"/>
        <path id="Trazado_1469" data-name="Trazado 1469" d="M4305.349,4555.115H4154.915a3.09,3.09,0,0,0-.949.163H3961.621a34.172,34.172,0,0,0-34.137,34.129v99.724h6.206v-99.724a27.958,27.958,0,0,1,27.931-27.923h143.723a3.067,3.067,0,0,0,.783-.112h62.089v-.052h137.133a27.96,27.96,0,0,1,27.932,27.923v292.636a27.959,27.959,0,0,1-27.932,27.922H4258.5a3.1,3.1,0,0,0,0,6.206h46.853a34.171,34.171,0,0,0,34.137-34.128V4589.243A34.17,34.17,0,0,0,4305.349,4555.115Z" fill="#f3ae4b"/>
      </g>
    </g>
    <text id="Aumenta_la_motivación_de_los_empleados_Tener_objetivos_claramente_marcados_y_que_la_consecución_de_estos_les_aporte_beneficios_directos_de_algún_tipo_supone_un_extra_de_motivación_para_cualquier_trabajador._Además_al_ver_recompensado_su_esfuerzo_el_trab" data-name="Aumenta la motivación de los empleados
Tener objetivos claramente marcados y que la consecución de estos les aporte beneficios directos de algún tipo, supone un extra de motivación para cualquier trabajador. Además, al ver recompensado su esfuerzo, el trab" transform="translate(890.505 2800.807)" fill="#444242" font-size="16" font-family="OpenSans-Bold, Open Sans" font-weight="700"><tspan x="40.175" y="17">Aumenta la motivación de los </tspan><tspan x="115.077" y="39">empleados</tspan><tspan font-family="OpenSans, Open Sans" font-weight="400"><tspan x="11.929" y="61">Tener objetivos claramente marcados y </tspan><tspan x="15.066" y="83">que la consecución de estos les aporte </tspan><tspan x="5.89" y="105">beneficios directos de algún tipo, supone </tspan><tspan x="16.894" y="127">un extra de motivación para cualquier </tspan><tspan x="2.417" y="149">trabajador. Además, al ver recompensado </tspan><tspan x="6.191" y="171">su esfuerzo, el trabajador será más leal a </tspan><tspan x="115.183" y="193">la empresa.</tspan><tspan x="158.714" y="215"></tspan></tspan></text>
    <text id="Evaluación_de_los_resultados_Gracias_al_plan_de_incentivos_en_todo_momento_la_compañía_tendrá_un_feedback_sobre_el_rendimiento_de_sus_empleados_lo_que_permitirá_observar_las_fortalezas_y_debilidades_de_cada_trabajador_pero_además_situarles_en_el_puest" data-name="Evaluación de los resultados
Gracias al plan de incentivos, en todo momento, la compañía tendrá un feedback sobre el rendimiento de sus empleados lo que permitirá observar las fortalezas y debilidades de cada trabajador, pero, además, situarles en el puest" transform="translate(519.782 2784.807)" fill="#444242" font-size="16" font-family="OpenSans-Bold, Open Sans" font-weight="700"><tspan x="23.613" y="17">Evaluación de los resultados</tspan><tspan font-family="OpenSans, Open Sans" font-weight="400"><tspan x="17.32" y="39">Gracias al plan de incentivos, en </tspan><tspan x="3.938" y="61">todo momento, la compañía tendrá </tspan><tspan x="10.492" y="83">un feedback sobre el rendimiento </tspan><tspan x="6.992" y="105">de sus empleados lo que permitirá </tspan><tspan x="1.316" y="127">observar las fortalezas y debilidades </tspan><tspan x="8.906" y="149">de cada trabajador, pero, además, </tspan><tspan x="12.418" y="171">situarles en el puesto que más se </tspan><tspan x="34.992" y="193">adecúe a sus posibilidades.</tspan><tspan x="136.5" y="215"></tspan></tspan></text>
    <text id="Fomenta_el_trabajo_en_equipo_Si_el_plan_de_incentivos_está_orientado_al_logro_de_objetivos_comunes_mejorará_el_clima_laboral_y_el_rendimiento_en_general_de_todo_el_departamento._Bizneo_12_" data-name="Fomenta el trabajo en equipo
Si el plan de incentivos está orientado al logro de objetivos comunes, mejorará el clima laboral y el rendimiento en general de todo el departamento. (Bizneo, 12)" transform="translate(150.105 2825.517)" fill="#444242" font-size="16" font-family="OpenSans-Bold, Open Sans" font-weight="700"><tspan x="18.611" y="17">Fomenta el trabajo en equipo</tspan><tspan font-family="OpenSans, Open Sans" font-weight="400"><tspan x="34.08" y="39">Si el plan de incentivos está </tspan><tspan x="22.506" y="61">orientado al logro de objetivos </tspan><tspan x="5.396" y="83">comunes, mejorará el clima laboral </tspan><tspan x="2.986" y="105">y el rendimiento en general de todo </tspan><tspan x="26.619" y="127">el departamento. (Bizneo, 12)</tspan></tspan></text>
    <g id="Grupo_938" data-name="Grupo 938" transform="translate(-3163.811 -2296.564)">
      <g id="Grupo_935" data-name="Grupo 935">
        <path id="Trazado_1470" data-name="Trazado 1470" d="M4001.159,5138.982a3.1,3.1,0,0,1,2.194,5.3l-16.546,16.551a3.1,3.1,0,1,1-4.389-4.388l16.546-16.551A3.1,3.1,0,0,1,4001.159,5138.982Z" fill="#f3ae4b"/>
      </g>
      <g id="Grupo_936" data-name="Grupo 936">
        <path id="Trazado_1471" data-name="Trazado 1471" d="M3984.612,5155.534a3.1,3.1,0,0,1,2.195.908l16.546,16.552a3.1,3.1,0,1,1-4.389,4.388l-16.546-16.552a3.1,3.1,0,0,1,2.194-5.3Z" fill="#f3ae4b"/>
      </g>
      <g id="Grupo_937" data-name="Grupo 937">
        <path id="Trazado_1472" data-name="Trazado 1472" d="M4035.231,5158.637V4999.948a27.959,27.959,0,0,1,27.923-27.931h151.6v-6.206h-151.6a34.172,34.172,0,0,0-34.129,34.137v155.586h-44.413a3.1,3.1,0,0,0,0,6.206h47.516A3.1,3.1,0,0,0,4035.231,5158.637Z" fill="#f3ae4b"/>
        <path id="Trazado_1473" data-name="Trazado 1473" d="M4390.081,5288.871v-95.629a3.048,3.048,0,0,0-.164-.949V4999.948a34.171,34.171,0,0,0-34.128-34.137h-99.725v6.206h99.725a27.958,27.958,0,0,1,27.923,27.931v143.723a3.086,3.086,0,0,0,.111.783v62.089h.052v82.328a27.96,27.96,0,0,1-27.923,27.932H4063.317a27.959,27.959,0,0,1-27.922-27.932v-96.207a3.1,3.1,0,0,0-6.206,0v96.207a34.171,34.171,0,0,0,34.128,34.137h292.635A34.171,34.171,0,0,0,4390.081,5288.871Z" fill="#f3ae4b"/>
      </g>
    </g>
    <g id="Grupo_939" data-name="Grupo 939" transform="translate(-3163.811 -2296.564)">
      <path id="Trazado_1474" data-name="Trazado 1474" d="M3690.811,5323.008h256.381a36.389,36.389,0,0,0,36.343-36.352V5184.822a3.3,3.3,0,1,0-6.608,0v101.834a29.774,29.774,0,0,1-29.735,29.744H3690.811a29.774,29.774,0,0,1-29.735-29.744V5158.427a3.3,3.3,0,0,0-3.3-3.3h-50.6a3.3,3.3,0,0,0,0,6.609h47.3v124.924A36.389,36.389,0,0,0,3690.811,5323.008Z" fill="#f3ae4b"/>
    </g>
    <g id="Grupo_940" data-name="Grupo 940" transform="translate(-3163.811 -2296.564)">
      <path id="Trazado_1475" data-name="Trazado 1475" d="M3657.772,5135.954a3.3,3.3,0,0,0,3.3-3.3V5002.164a29.775,29.775,0,0,1,29.735-29.745h256.381a29.775,29.775,0,0,1,29.735,29.745v129.87a3.3,3.3,0,0,0,6.608,0v-129.87a36.389,36.389,0,0,0-36.343-36.353H3690.811a36.389,36.389,0,0,0-36.343,36.353V5132.65A3.3,3.3,0,0,0,3657.772,5135.954Z" fill="#f3ae4b"/>
    </g>
    <g id="Grupo_941" data-name="Grupo 941" transform="translate(-3163.811 -2296.564)">
      <path id="Trazado_1476" data-name="Trazado 1476" d="M3624.793,5179.358a3.3,3.3,0,0,0,2.337-5.64l-17.62-17.626a3.3,3.3,0,1,0-4.674,4.672l17.62,17.626A3.291,3.291,0,0,0,3624.793,5179.358Z" fill="#f3ae4b"/>
    </g>
    <g id="Grupo_942" data-name="Grupo 942" transform="translate(-3163.811 -2296.564)">
      <path id="Trazado_1477" data-name="Trazado 1477" d="M3607.173,5161.732a3.292,3.292,0,0,0,2.337-.968l17.62-17.626a3.3,3.3,0,1,0-4.674-4.672l-17.62,17.626a3.3,3.3,0,0,0,2.337,5.64Z" fill="#f3ae4b"/>
    </g>
    <g id="Grupo_943" data-name="Grupo 943" transform="translate(-3163.811 -2296.564)">
      <path id="Trazado_1478" data-name="Trazado 1478" d="M3320.2,5323.008h257.9a36.6,36.6,0,0,0,36.557-36.567V5184.612a3.323,3.323,0,0,0-6.647,0v101.829a29.949,29.949,0,0,1-29.91,29.92H3320.2a29.949,29.949,0,0,1-29.91-29.92V5002.378a29.95,29.95,0,0,1,29.91-29.92h257.9a29.95,29.95,0,0,1,29.91,29.92v129.087a3.323,3.323,0,1,0,6.647,0V5002.378a36.6,36.6,0,0,0-36.557-36.567H3320.2a36.6,36.6,0,0,0-36.558,36.567v284.063A36.6,36.6,0,0,0,3320.2,5323.008Z" fill="#f3ae4b"/>
    </g>
    <g id="Grupo_956" data-name="Grupo 956" transform="translate(-3163.811 -2296.564)">
      <g id="Grupo_946" data-name="Grupo 946">
        <g id="Grupo_944" data-name="Grupo 944">
          <path id="Trazado_1479" data-name="Trazado 1479" d="M4160.107,4642.979a1.051,1.051,0,0,1-.631-.21,10.047,10.047,0,0,0-3.767-1.841l-12.461-3.616a3.76,3.76,0,0,1-2.687-3.175l-.572-4.9a1.062,1.062,0,0,1,.4-.961,20.16,20.16,0,0,0,6.894-10.856,1.06,1.06,0,0,1,.932-.788c1.652-.146,2.945-2.213,2.945-4.706,0-2.319-1.1-4.278-2.613-4.657a1.06,1.06,0,0,1,.516-2.057c2.483.623,4.218,3.384,4.218,6.714,0,3.305-1.728,6.025-4.128,6.683a22.3,22.3,0,0,1-6.993,10.965l.5,4.321a1.637,1.637,0,0,0,.712,1.169,1.667,1.667,0,0,0,.461.217l12.392,3.6a12.034,12.034,0,0,1,4.509,2.193,1.061,1.061,0,0,1-.634,1.911Z" fill="#344154"/>
        </g>
        <g id="Grupo_945" data-name="Grupo 945">
          <path id="Trazado_1480" data-name="Trazado 1480" d="M4156.689,4674.406H4094.2a1.059,1.059,0,0,1-1.052-1.194l2.9-22.734c0-.024.007-.049.012-.072a15.335,15.335,0,0,1,5.271-8.809,12.718,12.718,0,0,1,5.291-2.753l12.284-3.568a1.635,1.635,0,0,0,1.17-1.384l.5-4.323a22.4,22.4,0,0,1-7-10.966c-2.391-.663-4.114-3.383-4.114-6.681,0-3.244,1.676-5.989,4.077-6.674a1.06,1.06,0,0,1,.582,2.039c-1.471.42-2.539,2.369-2.539,4.635,0,2.488,1.29,4.556,2.936,4.707a1.059,1.059,0,0,1,.928.785,20.248,20.248,0,0,0,6.9,10.859,1.06,1.06,0,0,1,.4.959l-.567,4.9a3.759,3.759,0,0,1-2.684,3.177l-12.353,3.586a10.717,10.717,0,0,0-4.464,2.334,13.21,13.21,0,0,0-4.534,7.551l-2.742,21.5h61.281a1.06,1.06,0,1,1,0,2.12Z" fill="#344154"/>
        </g>
      </g>
      <g id="Grupo_947" data-name="Grupo 947">
        <path id="Trazado_1481" data-name="Trazado 1481" d="M4113.834,4607.328a1.062,1.062,0,0,1-1.057-.986c-.021-.295-.473-7.26,2.314-11.344a1.06,1.06,0,0,1,1.751,1.2c-2.376,3.481-1.954,9.935-1.95,10a1.06,1.06,0,0,1-.983,1.132Z" fill="#344154"/>
      </g>
      <g id="Grupo_948" data-name="Grupo 948">
        <path id="Trazado_1482" data-name="Trazado 1482" d="M4148.809,4607.3h-.053a1.061,1.061,0,0,1-1.007-1.11,26.825,26.825,0,0,0-1.077-7.966,1.06,1.06,0,0,1,2.032-.606,28.534,28.534,0,0,1,1.163,8.676A1.06,1.06,0,0,1,4148.809,4607.3Z" fill="#344154"/>
      </g>
      <g id="Grupo_949" data-name="Grupo 949">
        <path id="Trazado_1483" data-name="Trazado 1483" d="M4131.374,4642.978a1.058,1.058,0,0,1-.707-.271l-10.11-9.051a1.06,1.06,0,0,1,1.415-1.58l9.4,8.418,9.4-8.418a1.06,1.06,0,0,1,1.415,1.58l-10.109,9.051A1.058,1.058,0,0,1,4131.374,4642.978Z" fill="#344154"/>
      </g>
      <g id="Grupo_950" data-name="Grupo 950">
        <path id="Trazado_1484" data-name="Trazado 1484" d="M4140.944,4596.825a16.331,16.331,0,0,1-2.128-.158,53.742,53.742,0,0,1-5.316-1.071c-1.086-.257-2.21-.523-3.312-.736a16.707,16.707,0,0,0-8.156.042,1.06,1.06,0,1,1-.623-2.027,18.7,18.7,0,0,1,9.18-.1c1.147.221,2.292.493,3.4.755,1.672.4,3.4.806,5.106,1.032a9.348,9.348,0,0,0,3.863-.129,6.94,6.94,0,0,0,4.083-3.943c.655-1.487.743-4.672.735-6.9a15.07,15.07,0,0,1-9.132.284,1.059,1.059,0,0,1-.705-1.426,1.581,1.581,0,0,0,.114-.679,49.266,49.266,0,0,1-8.9,1.833l-.312.041c-5.646.744-11.752,4.8-11.815,11.963a1.061,1.061,0,0,1-2.121-.018c.075-8.424,7.133-13.187,13.659-14.047l.317-.041a42.649,42.649,0,0,0,9.4-2.077,1.059,1.059,0,0,1,1.295.417,3.8,3.8,0,0,1,.59,2.217,13.313,13.313,0,0,0,8.24-.972,1.06,1.06,0,0,1,1.47.96c.038,2.273.117,7-.9,9.3a8.351,8.351,0,0,1-8.038,5.478Z" fill="#344154"/>
      </g>
      <g id="Grupo_951" data-name="Grupo 951">
        <path id="Trazado_1485" data-name="Trazado 1485" d="M4144.447,4587.544a18.773,18.773,0,0,1-6.628-.6c-4.326-1.163-10.874-.471-14.388,2.272C4134.249,4587.927,4143.6,4596.129,4144.447,4587.544Z" fill="#ffc524"/>
      </g>
      <g id="Grupo_952" data-name="Grupo 952">
        <path id="Trazado_1486" data-name="Trazado 1486" d="M4168.543,4674.406a15.547,15.547,0,1,1,15.547-15.547A15.564,15.564,0,0,1,4168.543,4674.406Zm0-28.973a13.427,13.427,0,1,0,13.427,13.426A13.441,13.441,0,0,0,4168.543,4645.433Z" fill="#344154"/>
      </g>
      <g id="Grupo_954" data-name="Grupo 954">
        <g id="Grupo_953" data-name="Grupo 953">
          <path id="Trazado_1487" data-name="Trazado 1487" d="M4167.283,4665.091a1.059,1.059,0,0,1-.706-.269l-4.951-4.415a1.06,1.06,0,1,1,1.411-1.583l4.126,3.679,7.314-8.945a1.06,1.06,0,0,1,1.641,1.343l-8.014,9.8a1.064,1.064,0,0,1-.738.386Z" fill="#344154"/>
        </g>
      </g>
      <g id="Grupo_955" data-name="Grupo 955">
        <path id="Trazado_1488" data-name="Trazado 1488" d="M4107.9,4643.991l-.136.03a7.666,7.666,0,0,0-3.057,1.664,10.024,10.024,0,0,0-3.419,5.622l-2.269,17.8h44.415c-.182-.088-.363-.181-.546-.265-6.886-3.154-14.53-4.181-22.059-5a18.617,18.617,0,0,1-7.1-1.725c-2.145-1.188-3.843-3.552-3.464-5.975.26-1.66,1.4-3.021,2.451-4.334a61.123,61.123,0,0,0,7.1-11.275l-11.785,3.421Z" fill="#a3bd31"/>
      </g>
    </g>
    <g id="Grupo_975" data-name="Grupo 975" transform="translate(-3163.811 -2296.564)">
      <g id="Grupo_957" data-name="Grupo 957">
        <path id="Trazado_1489" data-name="Trazado 1489" d="M3494.832,5086.3h-12.469a4.392,4.392,0,0,1-4.387-4.387v-.259a7.65,7.65,0,0,0-7.641-7.641h-42.37a7.649,7.649,0,0,0-7.64,7.641v.259a4.392,4.392,0,0,1-4.388,4.387h-12.468a1.06,1.06,0,0,1-1.06-1.06v-24.754a8.779,8.779,0,0,1,8.769-8.769h75.945a8.779,8.779,0,0,1,8.769,8.769v24.754A1.06,1.06,0,0,1,3494.832,5086.3Zm-66.867-14.407h42.37a9.772,9.772,0,0,1,9.761,9.761v.259a2.27,2.27,0,0,0,2.267,2.267h11.408v-23.694a6.655,6.655,0,0,0-6.648-6.648h-75.945a6.656,6.656,0,0,0-6.649,6.648v23.694h11.408a2.27,2.27,0,0,0,2.268-2.267v-.259A9.771,9.771,0,0,1,3427.965,5071.894Z" fill="#344154"/>
      </g>
      <g id="Grupo_963" data-name="Grupo 963">
        <g id="Grupo_958" data-name="Grupo 958">
          <path id="Trazado_1490" data-name="Trazado 1490" d="M3459.226,5053.839a1.061,1.061,0,0,1-1.06-1.061V5036.1a1.06,1.06,0,1,1,2.12,0v16.677A1.06,1.06,0,0,1,3459.226,5053.839Z" fill="#344154"/>
        </g>
        <g id="Grupo_959" data-name="Grupo 959">
          <path id="Trazado_1491" data-name="Trazado 1491" d="M3438.8,5053.839a1.06,1.06,0,0,1-1.06-1.061V5036.1a1.06,1.06,0,1,1,2.12,0v16.677A1.061,1.061,0,0,1,3438.8,5053.839Z" fill="#344154"/>
        </g>
        <g id="Grupo_960" data-name="Grupo 960">
          <path id="Trazado_1492" data-name="Trazado 1492" d="M3449.15,5017.833a10.542,10.542,0,1,1,10.543-10.542A10.554,10.554,0,0,1,3449.15,5017.833Zm0-18.964a8.422,8.422,0,1,0,8.422,8.422A8.432,8.432,0,0,0,3449.15,4998.869Z" fill="#344154"/>
        </g>
        <g id="Grupo_961" data-name="Grupo 961">
          <path id="Trazado_1493" data-name="Trazado 1493" d="M3467.2,5053.839a1.061,1.061,0,0,1-1.06-1.061v-23.955a5.114,5.114,0,0,0-5.107-5.108h-23.765a5.114,5.114,0,0,0-5.107,5.108v23.955a1.06,1.06,0,1,1-2.121,0v-23.955a7.235,7.235,0,0,1,7.228-7.228h23.765a7.235,7.235,0,0,1,7.227,7.228v23.955A1.06,1.06,0,0,1,3467.2,5053.839Z" fill="#344154"/>
        </g>
        <g id="Grupo_962" data-name="Grupo 962">
          <path id="Trazado_1494" data-name="Trazado 1494" d="M3449.15,5034.705a1.06,1.06,0,0,1-1.06-1.06v-10.99a1.06,1.06,0,0,1,2.121,0v10.99A1.06,1.06,0,0,1,3449.15,5034.705Z" fill="#344154"/>
        </g>
      </g>
      <g id="Grupo_968" data-name="Grupo 968">
        <g id="Grupo_964" data-name="Grupo 964">
          <path id="Trazado_1495" data-name="Trazado 1495" d="M3482.968,5044.3a1.06,1.06,0,0,1-1.06-1.06v-12.886a1.06,1.06,0,0,1,2.12,0v12.886A1.059,1.059,0,0,1,3482.968,5044.3Z" fill="#344154"/>
        </g>
        <g id="Grupo_965" data-name="Grupo 965">
          <path id="Trazado_1496" data-name="Trazado 1496" d="M3475.183,5016.479a8.386,8.386,0,1,1,8.387-8.386A8.4,8.4,0,0,1,3475.183,5016.479Zm0-14.653a6.266,6.266,0,1,0,6.266,6.267A6.273,6.273,0,0,0,3475.183,5001.826Z" fill="#344154"/>
        </g>
        <g id="Grupo_966" data-name="Grupo 966">
          <path id="Trazado_1497" data-name="Trazado 1497" d="M3489.129,5044.3a1.06,1.06,0,0,1-1.06-1.06V5024.73a3.71,3.71,0,0,0-3.705-3.706h-17.178a1.06,1.06,0,1,1,0-2.12h17.178a5.833,5.833,0,0,1,5.826,5.826v18.509A1.06,1.06,0,0,1,3489.129,5044.3Z" fill="#344154"/>
        </g>
        <g id="Grupo_967" data-name="Grupo 967">
          <path id="Trazado_1498" data-name="Trazado 1498" d="M3475.183,5029.516a1.061,1.061,0,0,1-1.06-1.061v-8.491a1.06,1.06,0,1,1,2.12,0v8.491A1.061,1.061,0,0,1,3475.183,5029.516Z" fill="#344154"/>
        </g>
      </g>
      <g id="Grupo_973" data-name="Grupo 973">
        <g id="Grupo_969" data-name="Grupo 969">
          <path id="Trazado_1499" data-name="Trazado 1499" d="M3415.136,5044.3a1.06,1.06,0,0,1-1.061-1.06v-12.886a1.061,1.061,0,0,1,2.121,0v12.886A1.06,1.06,0,0,1,3415.136,5044.3Z" fill="#344154"/>
        </g>
        <g id="Grupo_970" data-name="Grupo 970">
          <path id="Trazado_1500" data-name="Trazado 1500" d="M3423.134,5016.479a8.386,8.386,0,1,1,8.386-8.386A8.4,8.4,0,0,1,3423.134,5016.479Zm0-14.653a6.266,6.266,0,1,0,6.266,6.267A6.274,6.274,0,0,0,3423.134,5001.826Z" fill="#344154"/>
        </g>
        <g id="Grupo_971" data-name="Grupo 971">
          <path id="Trazado_1501" data-name="Trazado 1501" d="M3409.187,5044.3a1.06,1.06,0,0,1-1.06-1.06V5024.73a5.832,5.832,0,0,1,5.825-5.826h17.86a1.06,1.06,0,0,1,0,2.12h-17.86a3.71,3.71,0,0,0-3.7,3.706v18.509A1.059,1.059,0,0,1,3409.187,5044.3Z" fill="#344154"/>
        </g>
        <g id="Grupo_972" data-name="Grupo 972">
          <path id="Trazado_1502" data-name="Trazado 1502" d="M3423.133,5029.516a1.061,1.061,0,0,1-1.06-1.061v-8.491a1.061,1.061,0,0,1,2.121,0v8.491A1.061,1.061,0,0,1,3423.133,5029.516Z" fill="#344154"/>
        </g>
      </g>
      <g id="Grupo_974" data-name="Grupo 974">
        <path id="Trazado_1503" data-name="Trazado 1503" d="M3490.591,5060.487a3.472,3.472,0,0,0-3.468-3.468h-75.945a3.472,3.472,0,0,0-3.468,3.468v2.705h82.881Z" fill="#a3bd31"/>
      </g>
    </g>
    <g id="Grupo_994" data-name="Grupo 994" transform="translate(-3163.811 -2296.564)">
      <g id="Grupo_976" data-name="Grupo 976">
        <path id="Trazado_1504" data-name="Trazado 1504" d="M3580.732,4655.067a1.025,1.025,0,0,1-.3-.045,38.905,38.905,0,1,1,49.771-32.131,1.06,1.06,0,1,1-2.1-.278,37.226,37.226,0,0,0,.32-4.881,36.8,36.8,0,1,0-47.381,35.259,1.06,1.06,0,0,1-.3,2.076Z" fill="#344154"/>
      </g>
      <g id="Grupo_977" data-name="Grupo 977">
        <path id="Trazado_1505" data-name="Trazado 1505" d="M3580.719,4632.678a1.055,1.055,0,0,1-.655-.227,18.71,18.71,0,1,1,30.261-14.719,18.852,18.852,0,0,1-.38,3.77,1.06,1.06,0,1,1-2.077-.425,16.591,16.591,0,1,0-32.841-3.345,16.5,16.5,0,0,0,6.347,13.052,1.061,1.061,0,0,1-.655,1.894Z" fill="#344154"/>
      </g>
      <g id="Grupo_978" data-name="Grupo 978">
        <path id="Trazado_1506" data-name="Trazado 1506" d="M3644.65,4658.5h-8.607a1.06,1.06,0,0,1,0-2.12h8.607a1.06,1.06,0,0,1,0,2.12Z" fill="#344154"/>
      </g>
      <g id="Grupo_979" data-name="Grupo 979">
        <path id="Trazado_1507" data-name="Trazado 1507" d="M3609.946,4673.649a5.343,5.343,0,1,1,5.342-5.342A5.348,5.348,0,0,1,3609.946,4673.649Zm0-8.564a3.221,3.221,0,1,0,3.222,3.222A3.226,3.226,0,0,0,3609.946,4665.085Z" fill="#344154"/>
      </g>
      <g id="Grupo_980" data-name="Grupo 980">
        <path id="Trazado_1508" data-name="Trazado 1508" d="M3600.96,4673.649a5.343,5.343,0,1,1,3.709-9.184,1.061,1.061,0,0,1-1.473,1.526,3.221,3.221,0,1,0,0,4.632,1.06,1.06,0,1,1,1.473,1.525A5.315,5.315,0,0,1,3600.96,4673.649Z" fill="#344154"/>
      </g>
      <g id="Grupo_981" data-name="Grupo 981">
        <path id="Trazado_1509" data-name="Trazado 1509" d="M3644.918,4667.307h-5.1a1.06,1.06,0,0,1,0-2.12h4.039v-2.014a53.651,53.651,0,0,0-2.781-17.052,5.418,5.418,0,0,0-5.034-3.376h-4.1v12.705a4.294,4.294,0,0,1-4.289,4.289h-41.631v3.477a1.974,1.974,0,0,0,1.972,1.971h5.118a1.06,1.06,0,0,1,0,2.12H3588a4.1,4.1,0,0,1-4.092-4.091v-4.538a1.06,1.06,0,0,1,1.06-1.06h42.691a2.171,2.171,0,0,0,2.169-2.168v-13.765a1.059,1.059,0,0,1,1.06-1.06h5.159a7.481,7.481,0,0,1,7.031,4.784,55.85,55.85,0,0,1,2.9,17.764v3.074A1.06,1.06,0,0,1,3644.918,4667.307Z" fill="#344154"/>
      </g>
      <g id="Grupo_982" data-name="Grupo 982">
        <path id="Trazado_1510" data-name="Trazado 1510" d="M3636.063,4673.649a5.343,5.343,0,1,1,5.343-5.342A5.349,5.349,0,0,1,3636.063,4673.649Zm0-8.564a3.221,3.221,0,1,0,3.223,3.222A3.226,3.226,0,0,0,3636.063,4665.085Z" fill="#344154"/>
      </g>
      <g id="Grupo_983" data-name="Grupo 983">
        <path id="Trazado_1511" data-name="Trazado 1511" d="M3628.607,4667.307h-11.265a1.06,1.06,0,1,1,0-2.12h11.265a1.06,1.06,0,0,1,0,2.12Z" fill="#344154"/>
      </g>
      <g id="Grupo_984" data-name="Grupo 984">
        <path id="Trazado_1512" data-name="Trazado 1512" d="M3630.884,4642.745a1.06,1.06,0,0,1-1.06-1.06v-4.452a1.06,1.06,0,0,1,2.12,0v4.452A1.061,1.061,0,0,1,3630.884,4642.745Z" fill="#344154"/>
      </g>
      <g id="Grupo_985" data-name="Grupo 985">
        <path id="Trazado_1513" data-name="Trazado 1513" d="M3625.8,4655.727h-39.71a2.191,2.191,0,0,1-2.188-2.189v-26.6a2.191,2.191,0,0,1,2.188-2.188h39.71a2.191,2.191,0,0,1,2.188,2.188v26.6A2.191,2.191,0,0,1,3625.8,4655.727Zm-39.71-28.852a.069.069,0,0,0-.068.068v26.6a.068.068,0,0,0,.068.068h39.71a.068.068,0,0,0,.068-.068v-26.6a.069.069,0,0,0-.068-.068Z" fill="#344154"/>
      </g>
      <g id="Grupo_986" data-name="Grupo 986">
        <path id="Trazado_1514" data-name="Trazado 1514" d="M3591.616,4588.893a1.06,1.06,0,0,1-1.06-1.06v-7.962a1.06,1.06,0,0,1,2.12,0v7.962A1.061,1.061,0,0,1,3591.616,4588.893Z" fill="#344154"/>
      </g>
      <g id="Grupo_987" data-name="Grupo 987">
        <path id="Trazado_1515" data-name="Trazado 1515" d="M3561.716,4618.793h-7.962a1.061,1.061,0,0,1,0-2.121h7.962a1.061,1.061,0,0,1,0,2.121Z" fill="#344154"/>
      </g>
      <g id="Grupo_988" data-name="Grupo 988">
        <path id="Trazado_1516" data-name="Trazado 1516" d="M3629.478,4618.793h-7.962a1.061,1.061,0,0,1,0-2.121h7.962a1.061,1.061,0,0,1,0,2.121Z" fill="#344154"/>
      </g>
      <g id="Grupo_989" data-name="Grupo 989">
        <path id="Trazado_1517" data-name="Trazado 1517" d="M3591.616,4588.893a1.06,1.06,0,0,1-1.06-1.06v-7.962a1.06,1.06,0,0,1,2.12,0v7.962A1.061,1.061,0,0,1,3591.616,4588.893Z" fill="#344154"/>
      </g>
      <g id="Grupo_990" data-name="Grupo 990">
        <path id="Trazado_1518" data-name="Trazado 1518" d="M3602.1,4618.793H3595a1.061,1.061,0,0,1,0-2.121h7.1a1.061,1.061,0,0,1,0,2.121Z" fill="#344154"/>
      </g>
      <g id="Grupo_991" data-name="Grupo 991">
        <path id="Trazado_1519" data-name="Trazado 1519" d="M3591.616,4615.768a1.059,1.059,0,0,1-1.06-1.06v-9.383a1.06,1.06,0,0,1,2.12,0v9.383A1.06,1.06,0,0,1,3591.616,4615.768Z" fill="#344154"/>
      </g>
      <g id="Grupo_992" data-name="Grupo 992">
        <path id="Trazado_1520" data-name="Trazado 1520" d="M3591.616,4621.817a4.084,4.084,0,1,1,4.084-4.085A4.089,4.089,0,0,1,3591.616,4621.817Zm0-6.048a1.963,1.963,0,1,0,1.964,1.963A1.966,1.966,0,0,0,3591.616,4615.769Z" fill="#344154"/>
      </g>
      <g id="Grupo_993" data-name="Grupo 993">
        <path id="Trazado_1521" data-name="Trazado 1521" d="M3595.921,4641.085c.793-1.88,1.466-4.011,3.194-5.1,1.393-.875,3.144-.85,4.788-.91a35.851,35.851,0,0,0,7.8-1.154,11.8,11.8,0,0,0,5.567-2.8,5.918,5.918,0,0,0,.817-1.071h-28.88v20.036A24.154,24.154,0,0,0,3595.921,4641.085Z" fill="#a3bd31"/>
      </g>
    </g>
    <g id="Grupo_1003" data-name="Grupo 1003" transform="translate(-3163.811 -2296.564)">
      <g id="Grupo_995" data-name="Grupo 995">
        <path id="Trazado_1522" data-name="Trazado 1522" d="M3816.27,5060.9a39.3,39.3,0,1,1,39.3-39.3A39.349,39.349,0,0,1,3816.27,5060.9Zm0-76.49a37.185,37.185,0,1,0,37.184,37.185A37.227,37.227,0,0,0,3816.27,4984.41Z" fill="#344154"/>
      </g>
      <g id="Grupo_996" data-name="Grupo 996">
        <path id="Trazado_1523" data-name="Trazado 1523" d="M3862.143,5073.585a6.1,6.1,0,0,1-4.327-1.789l-13.957-13.958a1.06,1.06,0,0,1,1.5-1.5l13.957,13.957a4,4,0,1,0,5.656-5.657l-13.957-13.956a1.06,1.06,0,0,1,1.5-1.5l13.958,13.956a6.117,6.117,0,0,1-4.328,10.445Z" fill="#344154"/>
      </g>
      <g id="Grupo_997" data-name="Grupo 997">
        <path id="Trazado_1524" data-name="Trazado 1524" d="M3832.137,5064.878a1.06,1.06,0,0,1-.359-2.058A42.616,42.616,0,0,0,3857.5,5037.1a1.06,1.06,0,1,1,1.994.719,44.728,44.728,0,0,1-26.993,26.992A1.051,1.051,0,0,1,3832.137,5064.878Z" fill="#344154"/>
      </g>
      <g id="Grupo_998" data-name="Grupo 998">
        <path id="Trazado_1525" data-name="Trazado 1525" d="M3826.346,5049.123a1.06,1.06,0,0,1-1.061-1.06v-16.677a1.061,1.061,0,1,1,2.121,0v16.677A1.06,1.06,0,0,1,3826.346,5049.123Z" fill="#344154"/>
      </g>
      <g id="Grupo_999" data-name="Grupo 999">
        <path id="Trazado_1526" data-name="Trazado 1526" d="M3805.919,5049.123a1.06,1.06,0,0,1-1.061-1.06v-16.677a1.061,1.061,0,1,1,2.121,0v16.677A1.06,1.06,0,0,1,3805.919,5049.123Z" fill="#344154"/>
      </g>
      <g id="Grupo_1000" data-name="Grupo 1000">
        <path id="Trazado_1527" data-name="Trazado 1527" d="M3816.27,5013.118a10.542,10.542,0,1,1,10.542-10.543A10.555,10.555,0,0,1,3816.27,5013.118Zm0-18.965a8.422,8.422,0,1,0,8.422,8.422A8.432,8.432,0,0,0,3816.27,4994.153Z" fill="#344154"/>
      </g>
      <g id="Grupo_1001" data-name="Grupo 1001">
        <path id="Trazado_1528" data-name="Trazado 1528" d="M3798.22,5049.123a1.059,1.059,0,0,1-1.06-1.06v-23.955a7.236,7.236,0,0,1,7.227-7.228h23.765a7.236,7.236,0,0,1,7.228,7.228v21.64a1.06,1.06,0,1,1-2.12,0v-21.64a5.114,5.114,0,0,0-5.108-5.108h-23.765a5.113,5.113,0,0,0-5.107,5.108v23.955A1.06,1.06,0,0,1,3798.22,5049.123Z" fill="#344154"/>
      </g>
      <g id="Grupo_1002" data-name="Grupo 1002">
        <path id="Trazado_1529" data-name="Trazado 1529" d="M3828.152,5022.181h-23.764a1.926,1.926,0,0,0-1.927,1.926v4.68h0a13.369,13.369,0,0,1,7.683-2.428H3822.4a13.369,13.369,0,0,1,7.683,2.428h0v-4.68A1.927,1.927,0,0,0,3828.152,5022.181Z" fill="#a3bd31"/>
      </g>
    </g>
    <g id="Grupo_1026" data-name="Grupo 1026" transform="translate(-3163.811 -2296.564)">
      <g id="Grupo_1004" data-name="Grupo 1004">
        <path id="Trazado_1530" data-name="Trazado 1530" d="M4239.708,5018.992a13.787,13.787,0,1,1,13.787-13.786A13.8,13.8,0,0,1,4239.708,5018.992Zm0-25.452a11.666,11.666,0,1,0,11.666,11.666A11.679,11.679,0,0,0,4239.708,4993.54Z" fill="#344154"/>
      </g>
      <g id="Grupo_1005" data-name="Grupo 1005">
        <path id="Trazado_1531" data-name="Trazado 1531" d="M4239.708,5006.869a8.494,8.494,0,0,1-7.764-5.074,8.486,8.486,0,1,0,15.528,0A8.495,8.495,0,0,1,4239.708,5006.869Z" fill="#a3bd31"/>
      </g>
      <g id="Grupo_1006" data-name="Grupo 1006">
        <path id="Trazado_1532" data-name="Trazado 1532" d="M4252.015,5026.7a1.058,1.058,0,0,1-.75-.311l-8.15-8.15a1.06,1.06,0,0,1,1.5-1.5l6.341,6.341v-5.563a1.059,1.059,0,0,1,1.06-1.06h5.563l-6.34-6.341a1.06,1.06,0,1,1,1.5-1.5l8.15,8.15a1.06,1.06,0,0,1-.749,1.81h-7.063v7.062a1.061,1.061,0,0,1-.654.98A1.074,1.074,0,0,1,4252.015,5026.7Z" fill="#344154"/>
      </g>
      <g id="Grupo_1007" data-name="Grupo 1007">
        <path id="Trazado_1533" data-name="Trazado 1533" d="M4227.4,5026.7a1.06,1.06,0,0,1-1.06-1.061v-7.062h-7.063a1.06,1.06,0,0,1-.749-1.81l8.15-8.15a1.06,1.06,0,0,1,1.5,1.5l-6.34,6.341h5.563a1.059,1.059,0,0,1,1.06,1.06v5.563l6.341-6.341a1.06,1.06,0,0,1,1.5,1.5l-8.15,8.15A1.059,1.059,0,0,1,4227.4,5026.7Z" fill="#344154"/>
      </g>
      <g id="Grupo_1015" data-name="Grupo 1015">
        <g id="Grupo_1008" data-name="Grupo 1008">
          <path id="Trazado_1534" data-name="Trazado 1534" d="M4238.229,5052.446H4212.8a1.06,1.06,0,0,1,0-2.12h25.427a1.06,1.06,0,1,1,0,2.12Z" fill="#344154"/>
        </g>
        <g id="Grupo_1009" data-name="Grupo 1009">
          <path id="Trazado_1535" data-name="Trazado 1535" d="M4247.218,5053.807a1.06,1.06,0,0,1-1.06-1.06v-22.069a1.06,1.06,0,1,1,2.12,0v22.069A1.06,1.06,0,0,1,4247.218,5053.807Z" fill="#344154"/>
        </g>
        <g id="Grupo_1010" data-name="Grupo 1010">
          <path id="Trazado_1536" data-name="Trazado 1536" d="M4223.048,4998.1h-34.79a1.06,1.06,0,0,1,0-2.12h34.79a1.06,1.06,0,0,1,0,2.12Z" fill="#344154"/>
        </g>
        <g id="Grupo_1011" data-name="Grupo 1011">
          <path id="Trazado_1537" data-name="Trazado 1537" d="M4188.258,5028.622a1.06,1.06,0,0,1-1.06-1.061v-24.39a1.06,1.06,0,1,1,2.12,0v24.39A1.06,1.06,0,0,1,4188.258,5028.622Z" fill="#344154"/>
        </g>
        <g id="Grupo_1012" data-name="Grupo 1012">
          <path id="Trazado_1538" data-name="Trazado 1538" d="M4247.218,5077.9h-46.2a1.06,1.06,0,0,1,0-2.12h46.2a1.06,1.06,0,0,1,0,2.12Z" fill="#344154"/>
        </g>
        <g id="Grupo_1013" data-name="Grupo 1013">
          <path id="Trazado_1539" data-name="Trazado 1539" d="M4247.218,5077.9a1.06,1.06,0,0,1,0-2.12,9.421,9.421,0,0,0,6.99-15.737h-38.316a1.061,1.061,0,0,1,0-2.121h38.772a1.065,1.065,0,0,1,.753.314,11.541,11.541,0,0,1-8.2,19.663Z" fill="#344154"/>
        </g>
        <g id="Grupo_1014" data-name="Grupo 1014">
          <path id="Trazado_1540" data-name="Trazado 1540" d="M4188.258,5014.835h-11.822a1.06,1.06,0,0,1-1.059-1.107c.27-6.141,3.311-17.753,12.881-17.753a1.06,1.06,0,0,1,0,2.12c-8.382,0-10.274,11.037-10.667,14.62h10.667a1.06,1.06,0,0,1,0,2.12Z" fill="#344154"/>
        </g>
      </g>
      <g id="Grupo_1019" data-name="Grupo 1019">
        <g id="Grupo_1016" data-name="Grupo 1016">
          <path id="Trazado_1541" data-name="Trazado 1541" d="M4194.579,5069.173a23.339,23.339,0,0,1-2.448-.118,1.06,1.06,0,0,1,.243-2.106c1.775.2,7,.3,9.828-1.663a1.244,1.244,0,0,0,.309-1.7,1.208,1.208,0,0,0-1.743-.408,9.844,9.844,0,0,1-8.007.3.813.813,0,0,1-.118-.064c-5.653-3.546-11.446-3.59-16.312-.126a1.06,1.06,0,1,1-1.23-1.726c5.592-3.982,12.195-3.975,18.6.013a7.723,7.723,0,0,0,6.137-.3,3.333,3.333,0,0,1,4.5,1.239,3.37,3.37,0,0,1-.926,4.519C4200.813,5068.836,4197.036,5069.173,4194.579,5069.173Z" fill="#344154"/>
        </g>
        <g id="Grupo_1017" data-name="Grupo 1017">
          <path id="Trazado_1542" data-name="Trazado 1542" d="M4195.15,5074.4q-.481,0-.976-.028c-10.844-.618-18.457-1.153-18.532-1.158a1.06,1.06,0,1,1,.149-2.115c.075,0,7.675.539,18.5,1.156,5.933.335,10.007-2.587,16.9-9.268a1.024,1.024,0,0,0-1.1-1.684l-5.7,4.118a1.06,1.06,0,0,1-1.242-1.719l5.787-4.179a1,1,0,0,1,.152-.091,3.144,3.144,0,0,1,3.577,5.078C4206.725,5070.274,4201.921,5074.4,4195.15,5074.4Z" fill="#344154"/>
        </g>
        <g id="Grupo_1018" data-name="Grupo 1018">
          <path id="Trazado_1543" data-name="Trazado 1543" d="M4173.333,5077.9h-3.952a1.06,1.06,0,0,1,0-2.12h3.952a1.155,1.155,0,0,0,1.154-1.154v-15.239a1.156,1.156,0,0,0-1.154-1.154h-3.952a1.061,1.061,0,0,1,0-2.121h3.952a3.279,3.279,0,0,1,3.275,3.275v15.239A3.279,3.279,0,0,1,4173.333,5077.9Z" fill="#344154"/>
        </g>
      </g>
      <g id="Grupo_1025" data-name="Grupo 1025">
        <g id="Grupo_1023" data-name="Grupo 1023">
          <g id="Grupo_1020" data-name="Grupo 1020">
            <path id="Trazado_1544" data-name="Trazado 1544" d="M4197.757,5050.4a4.588,4.588,0,0,1-4.583-4.583,1.061,1.061,0,0,1,2.121,0,2.463,2.463,0,0,0,4.925,0c0-.99-.467-1.756-2.792-2.514-1.052-.344-4.254-1.389-4.254-4.531a4.583,4.583,0,0,1,9.166,0,1.06,1.06,0,1,1-2.12,0,2.463,2.463,0,1,0-4.925,0c0,.747.317,1.707,2.791,2.515,1.981.646,4.254,1.745,4.254,4.53A4.588,4.588,0,0,1,4197.757,5050.4Z" fill="#344154"/>
          </g>
          <g id="Grupo_1021" data-name="Grupo 1021">
            <path id="Trazado_1545" data-name="Trazado 1545" d="M4197.757,5036.331a1.06,1.06,0,0,1-1.06-1.06v-1.987a1.06,1.06,0,1,1,2.12,0v1.987A1.059,1.059,0,0,1,4197.757,5036.331Z" fill="#344154"/>
          </g>
          <g id="Grupo_1022" data-name="Grupo 1022">
            <path id="Trazado_1546" data-name="Trazado 1546" d="M4197.757,5052.385a1.06,1.06,0,0,1-1.06-1.06v-1.987a1.06,1.06,0,1,1,2.12,0v1.987A1.059,1.059,0,0,1,4197.757,5052.385Z" fill="#344154"/>
          </g>
        </g>
        <g id="Grupo_1024" data-name="Grupo 1024">
          <path id="Trazado_1547" data-name="Trazado 1547" d="M4197.757,5056.672a14.367,14.367,0,1,1,14.367-14.367A14.383,14.383,0,0,1,4197.757,5056.672Zm0-26.614A12.246,12.246,0,1,0,4210,5042.305,12.261,12.261,0,0,0,4197.757,5030.058Z" fill="#344154"/>
        </g>
      </g>
    </g>
  </g>
</svg>
