<svg xmlns="http://www.w3.org/2000/svg" width="367.771" height="301.718" viewBox="0 0 367.771 301.718">
  <g id="Grupo_1188" data-name="Grupo 1188" transform="translate(-3602.135 -9834.77)">
    <g id="Grupo_1148" data-name="Grupo 1148">
      <path id="Trazado_6044" data-name="Trazado 6044" d="M3857.17,9996.764s-1.662-2.06-1.432-3.13c.422-1.961,2.1-3.918,3.934-4.09.967-.091,2.377,1.234,2.377,1.234s-3.794,1.573-4.234,3.893S3857.17,9996.764,3857.17,9996.764Z" fill="#cf865f"/>
      <path id="Trazado_6045" data-name="Trazado 6045" d="M3944.763,10096.213l-5.17,23.334-34.963-7.748c-.091-.337-.182-.676-.272-1.014-2.512-9.34-5.188-18.84-6.179-20.8-2.064-4.089-8.04-5.412-14.055-14-.024-.032-.048-.066-.072-.1l-.129-.186-.731-1.039c-.057-.08-.113-.161-.171-.241s-.115-.165-.174-.248l-.015-.022q-.215-.3-.439-.62-.429-.606-.9-1.267l-.3-.418-.3-.428c-.215-.3-.435-.61-.658-.925-.1-.137-.194-.273-.293-.41-.731-1.026-1.506-2.112-2.313-3.24l-.277-.386,0,0c-.06-.085-.121-.169-.182-.254-.147-.206-.295-.414-.445-.621l-.626-.875-.243-.337-.607-.847c-.143-.2-.286-.4-.43-.6-1.439-2-2.924-4.056-4.4-6.087l-.011-.017c-.073-.1-.145-.2-.217-.3-.058-.078-.114-.155-.17-.232l0-.006c-.855-1.177-1.7-2.343-2.533-3.479-2.862-3.923-5.507-7.506-7.448-10.062-1.509-1.987-2.592-3.354-3.021-3.774-2.168-2.13,4.886-10.137,4.886-10.137l.26.282c.02.023.042.049.066.073l.036.04.078.084,0,0,.118.129.172.189c.06.063.122.132.186.2.025.025.05.054.076.082.066.071.135.147.206.226.427.467.95,1.036,1.533,1.671l.005,0c.1.107.2.215.3.324l.232.254c.085.092.171.188.257.281.332.362.681.741,1.041,1.135q.191.209.386.42a.141.141,0,0,0,.015.018l.376.407c1.974,2.147,4.066,4.416,5.461,5.908,1.436,1.538,2.13,2.25,1.189,1.153-.292-.339-.64-.772-1.032-1.277-2.167-2.787-5.695-7.813-8.663-12-2.3-3.244-4.259-5.986-4.992-6.8-1.854-2.062,6.111-5.245,6.111-5.245l0,0,0,0c.116.126,1.763,1.905,4.083,4.345,3.806,4,9.423,9.783,13.073,12.966a14.17,14.17,0,0,0,3.056,2.246c.947.37.271-1.081-1.238-3.419-3.811-5.9-12.935-17.439-14.614-19.467-.317-.382-.718-.874-1.178-1.44-1.491-1.838-3.6-4.472-5.475-6.769-.015-.017-.029-.034-.041-.05-1.811-2.219-4.262-5.3-4.792-5.893-2.907-3.271-2.239-6.965,1.952-8.807,1.706-.75,5.094,1.846,8.075,4.431q.513.445,1.041.937l0,0c.773.718,1.569,1.506,2.379,2.353,9.551,9.96,21.254,27.75,23.309,30.03h0a3.432,3.432,0,0,0,.377.371c1.979,1.6-2.459-9.282-3.764-12.689-2.026-5.289-6.691-13.788-7.345-16.05-1.65-5.7-7.66-16.342-1.179-18.4,5.5-1.75,9.269,10.092,15.917,23.006,7.209,14.006,10.538,22.979,11.85,24.884a19.452,19.452,0,0,0,2.361,1.007c1.047.353,1.829.434,2.222.138,1.1-.826-.7-2.071-.493-6.708.238-5.372,2.432-14.534,3.272-20.724,1.552-11.435,5.722-11.259,5.793-11.255h0l.444.1a2.35,2.35,0,0,1,1.84,2.171c.111,2.074.35,5.776.811,10.107h0a112.5,112.5,0,0,0,3.283,18.4,121.078,121.078,0,0,1,3.5,14.169c.86,5.347.722,9.772.08,17.313-.777,9.134-1.586,14.682.242,20.114a20.883,20.883,0,0,0,1.485,3.366A161.452,161.452,0,0,1,3944.763,10096.213Z" fill="#e8b199"/>
      <path id="Trazado_6046" data-name="Trazado 6046" d="M3927.072,10003.8c-.026-.021-2.18-.636-2.093-3.936.137-5.209-1.782-8.212-.279-8.655.943-.278,1.212-.4,1.363.676A53.725,53.725,0,0,1,3927.072,10003.8Z" fill="#cf865f"/>
      <path id="Trazado_6047" data-name="Trazado 6047" d="M3918.183,10002.681c-.84,6.189-3.035,15.352-3.272,20.724-.2,4.637,1.593,5.883.494,6.709l-2.223-.138a19.865,19.865,0,0,1-2.362-1.008c-1.311-1.9-4.639-10.878-11.849-24.884-6.648-12.915-10.415-24.756-15.917-23.006-6.481,2.062-.471,12.706,1.179,18.4.654,2.262,5.318,10.761,7.345,16.051,1.305,3.406,5.743,14.285,3.764,12.688a3.345,3.345,0,0,1-.377-.371h0c-2.055-2.282-13.758-20.071-23.309-30.03-.81-.847-1.606-1.636-2.379-2.354l0,0-1.041-.937c-.954,4.956-5.235,10.269-5.235,10.269.012.016.026.033.041.05,1.874,2.3,3.985,4.931,5.475,6.769.46.566.861,1.059,1.178,1.441,1.678,2.027,10.8,13.565,14.614,19.466,1.509,2.337,2.185,3.789,1.238,3.42a14.22,14.22,0,0,1-3.056-2.247c-3.65-3.183-9.267-8.964-13.073-12.966-2.32-2.439-3.967-4.219-4.083-4.345l0,0,0,0s-7.965,3.185-6.112,5.246l13.567,18.877-.068.054-.027.021-5.81-6.337-.015-.018q-.195-.211-.386-.42l-1.041-1.135-.257-.281-.232-.254-.3-.323-.005-.006-1.533-1.672-.206-.225c-.026-.028-.051-.057-.076-.082-.065-.071-.126-.14-.186-.2l-.172-.189-.118-.128,0,0-.078-.085-.036-.039c-.024-.024-.046-.05-.067-.073l-.259-.282s-7.054,8.007-4.886,10.137c.429.421,1.512,1.787,3.021,3.774,1.941,2.556,4.586,6.139,7.447,10.062.831,1.136,1.679,2.3,2.533,3.481l0,0,.168.232.218.3.011.017c1.289,1.777,9.8,2.715,11.345,2.053,4.613-1.979,17.7,3.48,23.689,3.6,1.664.033,5.531-1.381,4.864-4.543-.519-2.464,1.541-12.471,2.637-18.273.161-.854,1.989-6.623,2.594-7.246.66-.68,3.341-1.609,3.379-2.361.13-2.568-3.283-10.443-1-23.861,1.959-11.526,5.991-14.72,6.048-14.765C3923.905,9991.421,3919.735,9991.246,3918.183,10002.681Z" fill="#cf865f"/>
      <path id="Trazado_6048" data-name="Trazado 6048" d="M3944.763,10096.213l-5.17,23.334-34.963-7.748c-.091-.337-.182-.676-.272-1.014,9.5-2.038,34.336-8.074,34.336-15.458,0-9.131-6.774-13.254-11.61-17.083s-19.021,8.541-18.076,5.6,13.782-5.6,18.989-14.621,5.861-32.843,5.861-32.843c.86,5.347.722,9.772.08,17.313-.777,9.134-1.586,14.682.242,20.114a20.883,20.883,0,0,0,1.485,3.366A161.452,161.452,0,0,1,3944.763,10096.213Z" fill="#cf865f"/>
    </g>
    <g id="Grupo_1149" data-name="Grupo 1149">
      <path id="Trazado_6049" data-name="Trazado 6049" d="M3741.127,10014.848s1.977-1.759,1.926-2.852c-.094-2-1.431-4.21-3.209-4.681-.938-.248-2.547.826-2.547.826s3.483,2.177,3.537,4.536S3741.127,10014.848,3741.127,10014.848Z" fill="#cf865f"/>
      <path id="Trazado_6050" data-name="Trazado 6050" d="M3638.4,10098.567l1.269,23.865,35.761-1.9c4.138-9.1,8.6-18.625,9.945-20.464,2.707-3.693,8.82-4.019,16.164-11.507l.087-.088c.053-.053.1-.106.158-.162l.892-.9c.068-.07.138-.142.208-.211s.141-.145.212-.215l.019-.02.535-.541,1.093-1.1.361-.363.37-.372.8-.8.356-.357c.89-.892,1.833-1.836,2.814-2.815.112-.111.223-.224.336-.335l0,0,.221-.22c.179-.18.359-.36.541-.54l.762-.76.294-.292.738-.735.523-.519c1.747-1.736,3.55-3.522,5.335-5.284l.014-.013.264-.262.2-.2,0,0c1.037-1.022,2.065-2.033,3.07-3.019,3.467-3.4,6.664-6.5,9-8.7,1.815-1.713,3.108-2.883,3.6-3.228,2.488-1.745-3.155-10.8-3.155-10.8l-.3.236-.077.061-.042.032c-.029.023-.059.048-.091.071l0,0-.138.108c-.063.049-.13.1-.2.158l-.217.169c-.029.021-.058.045-.088.068l-.24.188-1.787,1.4-.005,0-.347.271-.271.212-.3.235c-.388.3-.793.62-1.214.948l-.449.352-.018.013-.437.342c-2.3,1.793-4.737,3.688-6.357,4.932-1.669,1.281-2.471,1.87-1.362.941.343-.286.757-.655,1.227-1.09,2.595-2.394,6.9-6.772,10.517-10.42,2.8-2.823,5.183-5.206,6.041-5.89,2.167-1.729-5.167-6.178-5.167-6.178l0,0-.005,0c-.134.1-2.051,1.589-4.741,3.614-4.41,3.323-10.9,8.1-15.023,10.644a14.171,14.171,0,0,1-3.384,1.715c-.994.209-.09-1.113,1.782-3.169,4.729-5.2,15.624-15.08,17.612-16.8.375-.325.852-.745,1.4-1.229,1.772-1.568,4.286-3.818,6.511-5.776l.05-.043c2.15-1.893,5.073-4.526,5.693-5.026,3.4-2.749,3.353-6.5-.479-9.008-1.559-1.02-5.328.983-8.693,3.045q-.579.354-1.181.753l-.005,0c-.881.582-1.795,1.229-2.733,1.93-11.056,8.257-25.522,23.883-27.923,25.8h0a3.448,3.448,0,0,1-.432.3c-2.215,1.25,3.949-8.753,5.795-11.9,2.868-4.884,8.864-12.5,9.881-14.626,2.562-5.351,10.239-14.863,4.184-17.961-5.14-2.63-10.8,8.432-19.477,20.08-9.412,12.633-14.168,20.938-15.775,22.6a19.793,19.793,0,0,1-2.495.606c-1.091.175-1.875.127-2.215-.229-.949-1,1.029-1.929,1.589-6.536.647-5.339-.014-14.736.174-20.979.347-11.535-3.8-12.046-3.867-12.053h0l-.454.023a2.352,2.352,0,0,0-2.172,1.84c-.451,2.029-1.293,5.642-2.459,9.839h0a112.372,112.372,0,0,1-6.26,17.613c-6.68,13.905-7.669,17.585-8.7,30.467-.734,9.138-.846,14.743-3.542,19.8a20.8,20.8,0,0,1-2.016,3.076A161.429,161.429,0,0,0,3638.4,10098.567Z" fill="#e8b199"/>
      <path id="Trazado_6051" data-name="Trazado 6051" d="M3671.018,10010.316c.029-.019,2.254-.271,2.71-3.54.72-5.16,3.107-7.809,1.7-8.491-.885-.429-1.13-.6-1.456.442A53.648,53.648,0,0,0,3671.018,10010.316Z" fill="#cf865f"/>
      <path id="Trazado_6052" data-name="Trazado 6052" d="M3670.736,10111.443c1.55-2.167,5.155-7.262,7.626-10.774,0,0,1.545-6.937-3.079-10.166s-10.668-9.2-11.617-10.869,3.927,3.837,10.067,6.21,7.408,8.543,13.943,6.033h0a13.328,13.328,0,0,1,2.68-.829c2.477-.479,7.833-3.984,13.228-7.9a28.858,28.858,0,0,0,2.267-3.06c1.711-2.672,3.368-6.37.815-8.008-4.226-2.71-18.031.527-23.958-.339-1.647-.24-5.229-2.271-4.053-5.279.917-2.345.528-12.555.4-18.459-.019-.869-.875-6.86-1.37-7.575-.54-.778-3.031-2.135-2.946-2.883.294-2.555,4.953-9.763,4.907-23.374-.041-11.69-3.493-15.5-3.543-15.556.071.007,4.214.518,3.867,12.053-.188,6.243.473,15.641-.174,20.979-.56,4.607-2.538,5.541-1.589,6.536l2.215.229a19.793,19.793,0,0,0,2.495-.606c1.607-1.663,6.363-9.968,15.775-22.6,8.677-11.648,14.337-22.71,19.477-20.08,6.055,3.1-1.622,12.61-4.184,17.961-1.017,2.123-7.013,9.742-9.881,14.626-1.846,3.146-8.01,13.149-5.795,11.9a3.448,3.448,0,0,0,.432-.3h0c2.4-1.914,16.867-17.54,27.923-25.8.938-.7,1.852-1.348,2.733-1.93l.005,0,1.181-.753c.127,5.045,3.479,10.989,3.479,10.989l-.05.043c-2.225,1.958-4.739,4.208-6.511,5.776-.547.484-1.024.9-1.4,1.229-1.988,1.723-12.883,11.606-17.612,16.8-1.872,2.056-2.776,3.378-1.782,3.169a14.171,14.171,0,0,0,3.384-1.715c4.122-2.54,10.613-7.32,15.023-10.644,2.69-2.025,4.607-3.51,4.741-3.614l.005,0,0,0s7.334,4.448,5.167,6.178l-16.481,16.394.058.064.023.024c2.261-1.768,4.673-3.654,6.771-5.3l.018-.013.449-.352c.421-.328.826-.646,1.214-.948l.3-.235.271-.212.347-.271.005,0c.688-.539,1.294-1.013,1.787-1.4l.24-.188c.03-.023.059-.047.088-.068l.217-.169c.071-.058.138-.109.2-.158l.138-.108,0,0,.091-.071.042-.032.077-.061.3-.236s5.643,9.056,3.155,10.8c-.492.345-1.785,1.515-3.6,3.228-2.334,2.2-5.531,5.3-9,8.7-1,.985-2.033,2-3.07,3.019l0,0-.2.2-.264.262-.014.013c-1.785,1.762-3.588,3.548-5.335,5.284l-.523.519-.738.735-.294.292-.762.76c-.182.18-.362.36-.541.54l-.21.208-.011.012,0,0c-.113.111-.224.224-.336.335-.981.979-1.924,1.924-2.814,2.815l-.356.357-.8.8-.37.372-.361.363-1.093,1.1-.535.541-.019.02c-.071.07-.142.143-.212.215s-.14.141-.208.211l-.892.9c-.053.056-.1.109-.158.162l-.087.088c-7.344,7.488-13.457,7.813-16.164,11.507-1.348,1.839-5.807,11.363-9.945,20.464l-16.412.873S3666.331,10117.6,3670.736,10111.443Z" fill="#cf865f"/>
    </g>
    <g id="Grupo_1171" data-name="Grupo 1171">
      <path id="Trazado_6053" data-name="Trazado 6053" d="M3742.521,9841.294a7.175,7.175,0,0,0-14.291,1.3c.018.2.044.4.08.6a6.992,6.992,0,0,0,.375,1.346,6.886,6.886,0,0,0,.48,1h0a6.977,6.977,0,0,0,.686.982,7.178,7.178,0,0,0,12.283-2.165,6.953,6.953,0,0,0,.291-1.07,7.054,7.054,0,0,0,.125-1.392C3742.549,9841.7,3742.539,9841.5,3742.521,9841.294Zm-4.535,3.443a3.822,3.822,0,0,1-4.673.426h0a3.829,3.829,0,0,1-1.641-2.274,3.741,3.741,0,0,1-.1-.6,3.822,3.822,0,1,1,7.612-.694,3.722,3.722,0,0,1,.008.605,3.8,3.8,0,0,1-.376,1.414A3.843,3.843,0,0,1,3737.986,9844.737Z" fill="#121f63"/>
      <path id="Trazado_6054" data-name="Trazado 6054" d="M3828.227,10052.722a6.062,6.062,0,0,1-5.125,3.9l-132.872,12.113a6.066,6.066,0,0,1-6.592-5.49l-.176-1.923v0l-18.582-203.822a6.067,6.067,0,0,1,5.343-6.578l.126-.013,35.327-3.222,2.894-.264,20.595-1.878,4.147-.377h0l4.673-.426,4.148-.379,20.194-1.841,3.3-.3,35.381-3.225,2.238-.205a6.069,6.069,0,0,1,6.593,5.492l3.183,34.909,15.575,170.84A6.034,6.034,0,0,1,3828.227,10052.722Z" fill="#83a2c9"/>
      <rect id="Rectángulo_1124" data-name="Rectángulo 1124" width="143.231" height="216.724" rx="5.99" transform="translate(3664.33 9851.452) rotate(-5.209)" fill="#a6bfe2"/>
      <rect id="Rectángulo_1125" data-name="Rectángulo 1125" width="120.164" height="184.537" transform="matrix(0.99, -0.139, 0.139, 0.99, 3674.298, 9869.041)" fill="#bfc6da"/>
      <rect id="Rectángulo_1126" data-name="Rectángulo 1126" width="120.164" height="184.537" transform="translate(3678.682 9869.047) rotate(-5.209)" fill="#fff"/>
      <g id="Grupo_1150" data-name="Grupo 1150">
        <path id="Trazado_6055" data-name="Trazado 6055" d="M3703.338,9862.036l-2.137.2-.986-10.818a1.073,1.073,0,0,1,.971-1.166l13.222-1.206.2,2.137-12.154,1.108Z" fill="#121f63"/>
      </g>
      <g id="Grupo_1151" data-name="Grupo 1151">
        <path id="Trazado_6056" data-name="Trazado 6056" d="M3770.517,9855.911l2.137-.2-.986-10.817a1.073,1.073,0,0,0-1.166-.972l-13.222,1.206.2,2.137,12.154-1.107Z" fill="#121f63"/>
      </g>
      <rect id="Rectángulo_1127" data-name="Rectángulo 1127" width="60.35" height="11.265" rx="3.107" transform="translate(3705.38 9845.285) rotate(-5.209)" fill="#cfd7ed"/>
      <path id="Trazado_6057" data-name="Trazado 6057" d="M3752.881,9869.887l-7.826.714a6.918,6.918,0,0,0-13.617,1.241l-7.827.714a1.073,1.073,0,1,0,.195,2.137l8.8-.8a1.073,1.073,0,0,0,.971-1.166,4.782,4.782,0,1,1,9.525-.867,1.074,1.074,0,0,0,1.166.971l8.8-.8a1.073,1.073,0,0,0-.195-2.138Z" fill="#121f63"/>
      <g id="Grupo_1152" data-name="Grupo 1152">
        <path id="Trazado_6058" data-name="Trazado 6058" d="M3722.866,9876.82l-19.232,1.753a2.952,2.952,0,0,1-3.207-2.67l-1.363-14.959a2.95,2.95,0,1,1,5.876-.535l1.1,12.02,16.294-1.485a2.951,2.951,0,0,1,.536,5.877Z" fill="#414651"/>
      </g>
      <g id="Grupo_1153" data-name="Grupo 1153">
        <path id="Trazado_6059" data-name="Trazado 6059" d="M3753.985,9873.983l19.232-1.755a2.948,2.948,0,0,0,2.67-3.205l-1.363-14.958a2.951,2.951,0,1,0-5.877.534l1.1,12.021-16.294,1.485a2.951,2.951,0,0,0,.536,5.877Z" fill="#414651"/>
      </g>
      <rect id="Rectángulo_1128" data-name="Rectángulo 1128" width="37.73" height="37.73" rx="2.414" transform="matrix(0.996, -0.091, 0.091, 0.996, 3689.432, 9886.512)" fill="#cfd7ed"/>
      <g id="Grupo_1155" data-name="Grupo 1155">
        <path id="Trazado_6060" data-name="Trazado 6060" d="M3706.86,9888.579c.408.252.675-.965,2.167-1.1s3.672-.706,5.829,3.136,1.826,4.3,3.2,4.756,2.611.665,2.875,2.395-.584,2.922.345,3.794,2.9.32,3.388,2.773-.662,2.754.389,3.949a1.876,1.876,0,0,1-.8,3.021,1.385,1.385,0,0,1-1.25-.165s-.1,1.484-1.207,1.625-1.473-.424-1.473-.424-.649,1.062-1.211,1.146c-1.3.2-1.5-.3-1.832-.709,0,0-.487,1.17-1.261,1.31-.668.121-1.617-1.127-1.617-1.127s.266,1.6-.883,1.676c-1.458.091-1.492-1.061-1.492-1.061s-.469,1.41-1.553,1.319a1.37,1.37,0,0,1-1.24-1.135s-.453,1.525-1.569,1.359a1.685,1.685,0,0,1-1.408-1.019s-.237,1.336-1.343,1a1.991,1.991,0,0,1-1.294-1.516s-1,1.668-2.24.992a2.289,2.289,0,0,1-.937-2.177,3.447,3.447,0,0,1-1.933.653c-1.092-.114-2-1.19-.888-2.748,1.308-1.833-.9-3.783-.4-4.864s1.749-1.355,1.86-2.761-.817-3.285.492-4.215,1.616-.2,2.068-2.234-.626-5.123,1.655-6.766S3706.3,9888.232,3706.86,9888.579Z" fill="#7f5e40"/>
        <g id="Grupo_1154" data-name="Grupo 1154">
          <path id="Trazado_6061" data-name="Trazado 6061" d="M3715.113,9916a6.919,6.919,0,0,1-6.512.714,96.478,96.478,0,0,0,0-9.677c-.062-1.56-.122-2.626-.122-2.626l4.371-.4c.088.735.239,1.688.422,2.734C3713.962,9910.7,3715.113,9916,3715.113,9916Z" fill="#e9c0ad"/>
          <path id="Trazado_6062" data-name="Trazado 6062" d="M3713.271,9906.747a4.647,4.647,0,0,1-1.879,1.3,3.294,3.294,0,0,1-2.792-1.014c-.062-1.56-.122-2.626-.122-2.626l4.371-.4C3712.937,9904.748,3713.088,9905.7,3713.271,9906.747Z" fill="#be8b7d"/>
          <path id="Trazado_6063" data-name="Trazado 6063" d="M3714.517,9901.031c-.417,1.037.376,1.353-.052,2.19h0a6.286,6.286,0,0,1-1.175,1.547,4.3,4.3,0,0,1-2.576,1.222,4.237,4.237,0,0,1-2.551-.609,5.671,5.671,0,0,1-1.094-.841v0c-.021-.063.111-1.828-.994-2.625-.976-.7-.044-1.824-.106-2.5-.058-.633-.406-.6-.377-1.645.024-.841-.422-1.608-.423-2.391,0-.836,1.138-1.512,1.32-1.847.273-.5.284-1.014.475-.989a.286.286,0,0,0,.252-.094c.191-.229,2.215-1.254,2.64-.447.534,1.015.238,1.561.64,2.068.676.85,1.7.724,2.511,1.311s.916,1.9.991,2.943C3714.055,9899.126,3715,9899.817,3714.517,9901.031Z" fill="#e9c0ad"/>
        </g>
      </g>
      <path id="Trazado_6064" data-name="Trazado 6064" d="M3708.7,9910.571s-6.543,3.549-7.538,5.188-3.924,7.926-3.924,7.926l29.784-2.715s-3.192-5.584-5.626-7.056-7.566-3.812-7.566-3.812A6.728,6.728,0,0,1,3708.7,9910.571Z" fill="#121f63"/>
      <g id="Grupo_1169" data-name="Grupo 1169">
        <g id="Grupo_1156" data-name="Grupo 1156">
          <path id="Trazado_6065" data-name="Trazado 6065" d="M3762.378,9879.971l-2.306.21-1.239,6.525-2.4-6.194-2.294.209.742,8.144,1.32-.12-.61-6.681.179-.017,2.5,6.172,1.379-.125,1.347-6.523.178-.017.61,6.681,1.33-.121Z" fill="#121f63"/>
          <path id="Trazado_6066" data-name="Trazado 6066" d="M3769.284,9886.436l-.33.066q-.884.152-1.729.23a1.522,1.522,0,0,1-1.184-.24,1.624,1.624,0,0,1-.419-1.052l3.684-.337v-.935q-.248-2.723-2.745-2.494-2.578.234-2.29,3.4a3.737,3.737,0,0,0,.787,2.265,2.293,2.293,0,0,0,1.962.553,12.347,12.347,0,0,0,2.377-.492Zm-3.561-3.233a1.183,1.183,0,0,1,.935-.457,1.145,1.145,0,0,1,.978.265,2.039,2.039,0,0,1,.391,1.2l-2.508.229A1.962,1.962,0,0,1,3765.723,9883.2Z" fill="#121f63"/>
          <path id="Trazado_6067" data-name="Trazado 6067" d="M3775,9878.544l-1.3.118.229,2.5a9.211,9.211,0,0,0-1.37-.03,2.265,2.265,0,0,0-1.8.919,3.857,3.857,0,0,0-.381,2.456,3.938,3.938,0,0,0,.755,2.3,2.024,2.024,0,0,0,1.77.546,3.577,3.577,0,0,0,1.553-.585l.027.31,1.284-.117Zm-.843,7.316a3.156,3.156,0,0,1-1.133.318.991.991,0,0,1-.925-.341,2.933,2.933,0,0,1-.417-1.49q-.183-2,1.018-2.105a8.049,8.049,0,0,1,1.331,0l.321,3.519Z" fill="#121f63"/>
          <path id="Trazado_6068" data-name="Trazado 6068" d="M3778.151,9880.75l-1.295.118.541,5.942,1.3-.117Zm-.217-2.378-1.3.118.125,1.368,1.3-.119Z" fill="#121f63"/>
          <path id="Trazado_6069" data-name="Trazado 6069" d="M3784.19,9885.065l-1.383.223a1.43,1.43,0,0,1-1.274-.316,2.877,2.877,0,0,1-.439-1.518,2.655,2.655,0,0,1,.171-1.549,1.462,1.462,0,0,1,1.175-.516q.452-.041,1.4-.031l-.045-1.027-.3-.032a8.1,8.1,0,0,0-1.5-.031,2.342,2.342,0,0,0-1.838.881,3.776,3.776,0,0,0-.366,2.425,4.049,4.049,0,0,0,.771,2.345,2.25,2.25,0,0,0,1.974.557,11.328,11.328,0,0,0,1.788-.378Z" fill="#121f63"/>
          <path id="Trazado_6070" data-name="Trazado 6070" d="M3790.479,9884.755a.661.661,0,0,1-.4-.124.571.571,0,0,1-.172-.374l-.247-2.711a2.015,2.015,0,0,0-.617-1.447,2.2,2.2,0,0,0-1.612-.325,10.256,10.256,0,0,0-2.356.525l.131.911.379-.059q1.132-.2,1.893-.269a.722.722,0,0,1,.9.781l.04.427-1.523.271a2.626,2.626,0,0,0-1.435.622,1.625,1.625,0,0,0-.361,1.352q.171,1.89,1.943,1.729a4.549,4.549,0,0,0,1.873-.615,2.516,2.516,0,0,0,1.621.3Zm-2.046-.077a4.625,4.625,0,0,1-1.242.307q-.726.066-.8-.754a.8.8,0,0,1,.739-.968l1.367-.256.144,1.581Z" fill="#121f63"/>
          <path id="Trazado_6071" data-name="Trazado 6071" d="M3792.32,9876.964l-1.3.119.767,8.416,1.3-.118Z" fill="#121f63"/>
        </g>
        <g id="Grupo_1157" data-name="Grupo 1157">
          <path id="Trazado_6072" data-name="Trazado 6072" d="M3717.787,9927.469l-24.418,2.227a1.341,1.341,0,0,1-.244-2.671l24.419-2.227a1.341,1.341,0,1,1,.243,2.671Z" fill="#91a5e9"/>
        </g>
        <g id="Grupo_1158" data-name="Grupo 1158">
          <path id="Trazado_6073" data-name="Trazado 6073" d="M3723.38,9988.816l-24.418,2.226a1.341,1.341,0,1,1-.244-2.671l24.419-2.227a1.341,1.341,0,0,1,.243,2.672Z" fill="#91a5e9"/>
        </g>
        <g id="Grupo_1159" data-name="Grupo 1159">
          <path id="Trazado_6074" data-name="Trazado 6074" d="M3766.139,9928.268l-72.3,6.592a1.341,1.341,0,1,1-.244-2.671l72.3-6.592a1.341,1.341,0,0,1,.244,2.671Z" fill="#91a5e9"/>
        </g>
        <g id="Grupo_1160" data-name="Grupo 1160">
          <path id="Trazado_6075" data-name="Trazado 6075" d="M3794.1,9925.719l-10.684.975a1.341,1.341,0,0,1-.244-2.671l10.685-.975a1.341,1.341,0,1,1,.243,2.671Z" fill="#91a5e9"/>
        </g>
        <rect id="Rectángulo_1129" data-name="Rectángulo 1129" width="8.583" height="8.583" rx="4.292" transform="translate(3768.921 9919.396) rotate(-5.209)" fill="#cfd7ed"/>
        <g id="Grupo_1161" data-name="Grupo 1161">
          <path id="Trazado_6076" data-name="Trazado 6076" d="M3735.544,9939.317l-40.958,3.733a1.341,1.341,0,1,1-.243-2.671l40.957-3.733a1.341,1.341,0,1,1,.244,2.671Z" fill="#91a5e9"/>
        </g>
        <g id="Grupo_1162" data-name="Grupo 1162">
          <path id="Trazado_6077" data-name="Trazado 6077" d="M3783.269,9934.966l-33.123,3.021a1.341,1.341,0,1,1-.243-2.671l33.122-3.021a1.341,1.341,0,0,1,.244,2.671Z" fill="#91a5e9"/>
        </g>
        <g id="Grupo_1163" data-name="Grupo 1163">
          <path id="Trazado_6078" data-name="Trazado 6078" d="M3798.2,9970.773l-100.257,9.14a1.341,1.341,0,1,1-.243-2.671l100.256-9.142a1.342,1.342,0,0,1,.244,2.673Z" fill="#91a5e9"/>
        </g>
        <g id="Grupo_1164" data-name="Grupo 1164">
          <path id="Trazado_6079" data-name="Trazado 6079" d="M3798.711,9976.337l-100.257,9.14a1.341,1.341,0,1,1-.243-2.671l100.257-9.14a1.341,1.341,0,1,1,.243,2.671Z" fill="#91a5e9"/>
        </g>
        <g id="Grupo_1165" data-name="Grupo 1165">
          <path id="Trazado_6080" data-name="Trazado 6080" d="M3801.447,10021.112l-98.922,9.019a1.341,1.341,0,0,1-.243-2.672l98.921-9.018a1.341,1.341,0,1,1,.244,2.671Z" fill="#91a5e9"/>
        </g>
        <g id="Grupo_1166" data-name="Grupo 1166">
          <path id="Trazado_6081" data-name="Trazado 6081" d="M3803.659,10030.606l-48.793,4.448a.8.8,0,0,1-.146-1.6l48.793-4.448a.8.8,0,0,1,.146,1.6Z" fill="#91a5e9"/>
        </g>
        <g id="Grupo_1167" data-name="Grupo 1167">
          <path id="Trazado_6082" data-name="Trazado 6082" d="M3804.016,10034.524l-22.749,2.073a.8.8,0,0,1-.146-1.6l22.749-2.074a.805.805,0,0,1,.146,1.6Z" fill="#91a5e9"/>
        </g>
        <rect id="Rectángulo_1130" data-name="Rectángulo 1130" width="29.326" height="4.47" rx="2.235" transform="translate(3693.6 9947.002) rotate(-5.209)" fill="#cfd7ed"/>
        <rect id="Rectángulo_1131" data-name="Rectángulo 1131" width="29.326" height="4.47" rx="1.386" transform="matrix(0.996, -0.091, 0.091, 0.996, 3694.355, 9955.282)" fill="#cfd7ed"/>
        <rect id="Rectángulo_1132" data-name="Rectángulo 1132" width="40.055" height="4.47" rx="1.386" transform="translate(3698.198 9997.441) rotate(-5.209)" fill="#cfd7ed"/>
        <rect id="Rectángulo_1133" data-name="Rectángulo 1133" width="40.055" height="4.47" rx="1.386" transform="matrix(0.996, -0.091, 0.091, 0.996, 3698.954, 10005.722)" fill="#cfd7ed"/>
        <rect id="Rectángulo_1134" data-name="Rectángulo 1134" width="40.055" height="4.47" rx="1.386" transform="translate(3746.411 10001.395) rotate(-5.209)" fill="#cfd7ed"/>
        <rect id="Rectángulo_1135" data-name="Rectángulo 1135" width="40.055" height="4.47" rx="1.386" transform="translate(3699.737 10014.313) rotate(-5.209)" fill="#cfd7ed"/>
        <rect id="Rectángulo_1136" data-name="Rectángulo 1136" width="18.597" height="4.47" rx="1.386" transform="translate(3747.194 10009.987) rotate(-5.209)" fill="#cfd7ed"/>
        <rect id="Rectángulo_1137" data-name="Rectángulo 1137" width="26.308" height="4.47" rx="1.386" transform="translate(3775.13 10007.44) rotate(-5.209)" fill="#cfd7ed"/>
        <rect id="Rectángulo_1138" data-name="Rectángulo 1138" width="29.326" height="4.47" rx="1.386" transform="matrix(0.996, -0.091, 0.091, 0.996, 3750.495, 9941.814)" fill="#cfd7ed"/>
        <rect id="Rectángulo_1139" data-name="Rectángulo 1139" width="29.326" height="4.47" rx="1.386" transform="translate(3751.25 9950.095) rotate(-5.209)" fill="#cfd7ed"/>
        <rect id="Rectángulo_1140" data-name="Rectángulo 1140" width="29.326" height="4.47" rx="1.386" transform="translate(3695.11 9963.563) rotate(-5.209)" fill="#cfd7ed"/>
        <g id="Grupo_1168" data-name="Grupo 1168">
          <path id="Trazado_6083" data-name="Trazado 6083" d="M3764.235,9898.682a4.269,4.269,0,0,0-.635-2.178,1.8,1.8,0,0,0-1.684-.522,3.7,3.7,0,0,0-1.589.588l-.254-2.781-1.295.117.767,8.417,1.3-.118-.426-4.661.185-.087a3.6,3.6,0,0,1,1.124-.294.861.861,0,0,1,.892.326,3.3,3.3,0,0,1,.327,1.348l.287,3.15,1.3-.118Z" fill="#121f63"/>
          <path id="Trazado_6084" data-name="Trazado 6084" d="M3766.849,9895.662l-1.3.119.542,5.943,1.295-.117Zm-.218-2.376-1.3.118.125,1.367,1.3-.118Z" fill="#121f63"/>
          <path id="Trazado_6085" data-name="Trazado 6085" d="M3773.192,9899.376a1.7,1.7,0,0,0-.535-1.27,2.917,2.917,0,0,0-1.458-.412,6.024,6.024,0,0,1-1.288-.189.463.463,0,0,1-.309-.427.512.512,0,0,1,.2-.491,1.826,1.826,0,0,1,.86-.229,17.342,17.342,0,0,1,2.05,0l-.074-1.083-.375-.039a11.3,11.3,0,0,0-1.884-.02,2.67,2.67,0,0,0-1.557.6,1.58,1.58,0,0,0-.5,1.424,1.507,1.507,0,0,0,.566,1.219,3.263,3.263,0,0,0,1.468.375,5.035,5.035,0,0,1,1.251.187.513.513,0,0,1,.3.47.548.548,0,0,1-.222.536,1.91,1.91,0,0,1-.884.234,17.524,17.524,0,0,1-2.072,0l.05,1.086.374.025a10.454,10.454,0,0,0,1.85.036,2.96,2.96,0,0,0,1.712-.6A1.6,1.6,0,0,0,3773.192,9899.376Z" fill="#121f63"/>
          <path id="Trazado_6086" data-name="Trazado 6086" d="M3777.743,9899.6l-.972.124c-.292.027-.482-.035-.567-.187a2.731,2.731,0,0,1-.2-.954l-.239-2.615,1.64-.148-.1-1.106-1.641.15-.157-1.724-1.284.116.158,1.724-.761.069.1,1.106.76-.07.252,2.758a2.929,2.929,0,0,0,.533,1.714,1.715,1.715,0,0,0,1.427.337,6.848,6.848,0,0,0,1.2-.265Z" fill="#121f63"/>
          <path id="Trazado_6087" data-name="Trazado 6087" d="M3783.712,9897.11a3.7,3.7,0,0,0-.822-2.263,3.088,3.088,0,0,0-4.078.372,3.7,3.7,0,0,0-.4,2.373,3.835,3.835,0,0,0,.807,2.276,3.1,3.1,0,0,0,4.113-.374A3.843,3.843,0,0,0,3783.712,9897.11Zm-1.439,1.689a1.447,1.447,0,0,1-2.14.2,3.3,3.3,0,0,1-.415-1.533,2.99,2.99,0,0,1,.151-1.56,1.461,1.461,0,0,1,2.105-.192,3,3,0,0,1,.43,1.507A3.294,3.294,0,0,1,3782.273,9898.8Z" fill="#121f63"/>
          <path id="Trazado_6088" data-name="Trazado 6088" d="M3786.5,9895.574a8.421,8.421,0,0,1,1.7-.683l-.118-1.3a5.671,5.671,0,0,0-1.943,1.028l-.065-.713-1.285.116.542,5.944,1.3-.119-.378-4.147Z" fill="#121f63"/>
          <path id="Trazado_6089" data-name="Trazado 6089" d="M3792.7,9893.306l-.819,4.953-.321.029-1.7-4.723-1.272.115,2.1,5.8,1.023-.093-.481,2.62,1.272-.116,1.484-8.705Z" fill="#121f63"/>
        </g>
      </g>
      <path id="Trazado_6090" data-name="Trazado 6090" d="M3766,9845.528l.219,2.4a3.1,3.1,0,0,1-2.811,3.375l-53.914,4.916a3.105,3.105,0,0,1-3.376-2.812l-.219-2.4a3.105,3.105,0,0,0,3.375,2.812l53.915-4.915A3.1,3.1,0,0,0,3766,9845.528Z" fill="#b2b8c9"/>
      <g id="Grupo_1170" data-name="Grupo 1170">
        <path id="Trazado_6091" data-name="Trazado 6091" d="M3761.387,9843.648l-51.687,4.712a1.04,1.04,0,0,1-.189-2.071l51.687-4.712a1.04,1.04,0,0,1,.189,2.071Z" fill="#fff"/>
      </g>
    </g>
    <path id="Trazado_6092" data-name="Trazado 6092" d="M3828.227,10052.722l-3.085-.577-40.077-7.494-2.886-.539.735-3.932.71-3.8.307-1.643.445-2.376.306-1.645,1.538-8.22.512-2.74,1.691-9.042.854-4.566,5.508-29.456.512-2.74.555-2.968.512-2.741,7.521-40.217.563-3.01,7-37.44,1.569-8.391,15.575,170.84A6.034,6.034,0,0,1,3828.227,10052.722Z" fill="#6d6e70" opacity="0.3"/>
    <g id="Grupo_1187" data-name="Grupo 1187">
      <rect id="Rectángulo_1141" data-name="Rectángulo 1141" width="120.164" height="184.537" transform="translate(3822.858 9858.029) rotate(10.591)" fill="#f0f1f1"/>
      <g id="Grupo_1172" data-name="Grupo 1172">
        <path id="Trazado_6093" data-name="Trazado 6093" d="M3892.534,9889.451l1.5-8.038,2.265.424.621,6.613,2.969-5.942,2.276.426-1.5,8.037-1.314-.246,1.233-6.594-.176-.033-3.072,5.91-1.361-.254-.729-6.621-.177-.033-1.233,6.595Z" fill="#121f63"/>
        <path id="Trazado_6094" data-name="Trazado 6094" d="M3906.717,9891.009l.335.027-.154.955a12.469,12.469,0,0,1-2.421-.173,2.292,2.292,0,0,1-1.737-1.066,3.744,3.744,0,0,1-.141-2.394q.583-3.122,3.129-2.646,2.465.461,1.962,3.148l-.253.9-3.638-.68a1.629,1.629,0,0,0,.118,1.127,1.521,1.521,0,0,0,1.074.553Q3905.823,9890.917,3906.717,9891.009Zm-.269-2.454a2.034,2.034,0,0,0-.049-1.266,1.148,1.148,0,0,0-.868-.521,1.188,1.188,0,0,0-1.024.186,1.973,1.973,0,0,0-.535,1.139Z" fill="#121f63"/>
        <path id="Trazado_6095" data-name="Trazado 6095" d="M3914.7,9885l-1.553,8.307-1.267-.236.057-.306a3.576,3.576,0,0,1-1.654.142,2.031,2.031,0,0,1-1.554-1.008,3.954,3.954,0,0,1-.1-2.424,3.856,3.856,0,0,1,1.035-2.259,2.268,2.268,0,0,1,1.987-.394,9.444,9.444,0,0,1,1.309.4l.461-2.464Zm-2.8,6.81.215-.044.649-3.473a8.136,8.136,0,0,0-1.281-.361q-1.183-.221-1.553,1.749a2.937,2.937,0,0,0,0,1.548.987.987,0,0,0,.8.58A3.144,3.144,0,0,0,3911.9,9891.808Z" fill="#121f63"/>
        <path id="Trazado_6096" data-name="Trazado 6096" d="M3916.04,9886.742l.253-1.351,1.278.24-.252,1.35Zm-1.283,6.864,1.1-5.867,1.278.238-1.1,5.867Z" fill="#121f63"/>
        <path id="Trazado_6097" data-name="Trazado 6097" d="M3920.958,9888.56a8.022,8.022,0,0,1,1.436.439l.282.113-.235,1c-.607-.179-1.058-.294-1.356-.351a1.473,1.473,0,0,0-1.271.175,2.679,2.679,0,0,0-.586,1.445,2.89,2.89,0,0,0,.009,1.58q.213.478,1.141.65l1.39.163-.156,1.027a11.384,11.384,0,0,1-1.823-.122,2.256,2.256,0,0,1-1.748-1.073,4.056,4.056,0,0,1-.1-2.467,3.782,3.782,0,0,1,1.012-2.233A2.344,2.344,0,0,1,3920.958,9888.56Z" fill="#121f63"/>
        <path id="Trazado_6098" data-name="Trazado 6098" d="M3927.988,9891.878l-.5,2.675a.569.569,0,0,0,.063.407.677.677,0,0,0,.352.23l-.217.967a2.509,2.509,0,0,1-1.48-.727,4.522,4.522,0,0,1-1.97.081,1.937,1.937,0,0,1-.683-3.394,2.629,2.629,0,0,1,1.551-.208l1.538.154.079-.424a.876.876,0,0,0-.082-.694.892.892,0,0,0-.57-.3q-.75-.139-1.894-.257l-.38-.046.121-.913a10.323,10.323,0,0,1,2.41.136,2.2,2.2,0,0,1,1.462.753A2.014,2.014,0,0,1,3927.988,9891.878Zm-2.9.964a.8.8,0,0,0-.975.729q-.15.809.565.942a4.62,4.62,0,0,0,1.279.045l.224-.03.292-1.562Z" fill="#121f63"/>
        <path id="Trazado_6099" data-name="Trazado 6099" d="M3928.965,9896.263l1.554-8.307,1.278.239-1.553,8.307Z" fill="#121f63"/>
      </g>
      <g id="Grupo_1173" data-name="Grupo 1173">
        <path id="Trazado_6100" data-name="Trazado 6100" d="M3844.578,9924.892l-24.1-4.506a1.341,1.341,0,1,1,.493-2.637l24.1,4.507a1.341,1.341,0,0,1-.493,2.636Z" fill="#91a5e9"/>
      </g>
      <g id="Grupo_1174" data-name="Grupo 1174">
        <path id="Trazado_6101" data-name="Trazado 6101" d="M3833.255,9985.445l-24.1-4.507a1.342,1.342,0,0,1,.493-2.638l24.1,4.507a1.342,1.342,0,0,1-.493,2.638Z" fill="#91a5e9"/>
      </g>
      <g id="Grupo_1175" data-name="Grupo 1175">
        <path id="Trazado_6102" data-name="Trazado 6102" d="M3890.884,9938.826l-71.361-13.343a1.342,1.342,0,0,1,.493-2.638l71.361,13.345a1.341,1.341,0,1,1-.493,2.636Z" fill="#91a5e9"/>
      </g>
      <g id="Grupo_1176" data-name="Grupo 1176">
        <path id="Trazado_6103" data-name="Trazado 6103" d="M3918.48,9943.987l-10.546-1.973a1.341,1.341,0,1,1,.493-2.637l10.546,1.972a1.342,1.342,0,0,1-.493,2.638Z" fill="#91a5e9"/>
      </g>
      <rect id="Rectángulo_1142" data-name="Rectángulo 1142" width="8.583" height="8.583" rx="4.292" transform="translate(3895.977 9931.047) rotate(10.591)" fill="#cfd7ed"/>
      <g id="Grupo_1177" data-name="Grupo 1177">
        <path id="Trazado_6104" data-name="Trazado 6104" d="M3858.437,9941.128l-40.426-7.56a1.341,1.341,0,1,1,.493-2.637l40.426,7.56a1.341,1.341,0,1,1-.493,2.637Z" fill="#91a5e9"/>
      </g>
      <g id="Grupo_1178" data-name="Grupo 1178">
        <path id="Trazado_6105" data-name="Trazado 6105" d="M3905.543,9949.936l-32.693-6.112a1.342,1.342,0,0,1,.493-2.638l32.693,6.113a1.341,1.341,0,1,1-.493,2.637Z" fill="#91a5e9"/>
      </g>
      <g id="Grupo_1179" data-name="Grupo 1179">
        <path id="Trazado_6106" data-name="Trazado 6106" d="M3910.165,9988.456l-98.958-18.5a1.341,1.341,0,1,1,.493-2.636l98.958,18.5a1.341,1.341,0,0,1-.493,2.636Z" fill="#91a5e9"/>
      </g>
      <g id="Grupo_1180" data-name="Grupo 1180">
        <path id="Trazado_6107" data-name="Trazado 6107" d="M3909.138,9993.949l-98.958-18.5a1.342,1.342,0,0,1,.493-2.638l98.958,18.5a1.342,1.342,0,0,1-.493,2.638Z" fill="#91a5e9"/>
      </g>
      <g id="Grupo_1181" data-name="Grupo 1181">
        <path id="Trazado_6108" data-name="Trazado 6108" d="M3899.578,10037.777l-97.639-18.259a1.341,1.341,0,1,1,.493-2.636l97.639,18.257a1.342,1.342,0,0,1-.493,2.638Z" fill="#91a5e9"/>
      </g>
      <g id="Grupo_1182" data-name="Grupo 1182">
        <path id="Trazado_6109" data-name="Trazado 6109" d="M3899.121,10047.515l-48.16-9.006a.8.8,0,0,1,.3-1.582l48.16,9.006a.8.8,0,1,1-.3,1.582Z" fill="#91a5e9"/>
      </g>
      <g id="Grupo_1183" data-name="Grupo 1183">
        <path id="Trazado_6110" data-name="Trazado 6110" d="M3898.4,10051.381l-22.454-4.2a.8.8,0,0,1,.3-1.582l22.454,4.2a.8.8,0,0,1-.3,1.582Z" fill="#91a5e9"/>
      </g>
      <rect id="Rectángulo_1143" data-name="Rectángulo 1143" width="4.47" height="29.326" rx="1.386" transform="matrix(0.184, -0.983, 0.983, 0.184, 3815.164, 9941.495)" fill="#cfd7ed"/>
      <rect id="Rectángulo_1144" data-name="Rectángulo 1144" width="29.326" height="4.47" rx="2.235" transform="matrix(0.983, 0.184, -0.184, 0.983, 3814.458, 9945.273)" fill="#cfd7ed"/>
      <rect id="Rectángulo_1145" data-name="Rectángulo 1145" width="40.055" height="4.47" rx="2.235" transform="matrix(0.983, 0.184, -0.184, 0.983, 3806.676, 9986.888)" fill="#cfd7ed"/>
      <rect id="Rectángulo_1146" data-name="Rectángulo 1146" width="40.055" height="4.47" rx="2.235" transform="translate(3805.148 9995.061) rotate(10.591)" fill="#cfd7ed"/>
      <rect id="Rectángulo_1147" data-name="Rectángulo 1147" width="4.47" height="40.055" rx="1.386" transform="matrix(0.184, -0.983, 0.983, 0.184, 3851.168, 10008.214)" fill="#cfd7ed"/>
      <rect id="Rectángulo_1148" data-name="Rectángulo 1148" width="4.47" height="40.055" rx="1.386" transform="matrix(0.184, -0.983, 0.983, 0.184, 3802.741, 10007.936)" fill="#cfd7ed"/>
      <rect id="Rectángulo_1149" data-name="Rectángulo 1149" width="4.47" height="18.597" rx="1.386" transform="translate(3849.583 10016.694) rotate(-79.409)" fill="#cfd7ed"/>
      <rect id="Rectángulo_1150" data-name="Rectángulo 1150" width="4.47" height="26.308" rx="1.386" transform="translate(3877.156 10021.851) rotate(-79.409)" fill="#cfd7ed"/>
      <rect id="Rectángulo_1151" data-name="Rectángulo 1151" width="29.326" height="4.47" rx="2.235" transform="matrix(0.983, 0.184, -0.184, 0.983, 3872.144, 9947.602)" fill="#cfd7ed"/>
      <rect id="Rectángulo_1152" data-name="Rectángulo 1152" width="29.326" height="4.47" rx="2.235" transform="matrix(0.983, 0.184, -0.184, 0.983, 3870.615, 9955.774)" fill="#cfd7ed"/>
      <rect id="Rectángulo_1153" data-name="Rectángulo 1153" width="29.326" height="4.47" rx="2.235" transform="matrix(0.983, 0.184, -0.184, 0.983, 3812.929, 9953.447)" fill="#cfd7ed"/>
      <g id="Grupo_1184" data-name="Grupo 1184">
        <path id="Trazado_6111" data-name="Trazado 6111" d="M3894.635,9903.908l-1.279-.239,1.553-8.307,1.279.238-.513,2.746a3.688,3.688,0,0,1,1.689-.133,1.792,1.792,0,0,1,1.477.962,4.271,4.271,0,0,1,.019,2.269l-.588,3.145-1.279-.24.582-3.108a3.331,3.331,0,0,0,.053-1.387c-.084-.29-.34-.477-.771-.557a3.551,3.551,0,0,0-1.161-.022l-.2.034Z" fill="#121f63"/>
        <path id="Trazado_6112" data-name="Trazado 6112" d="M3901.1,9898.014l.253-1.349,1.278.239-.252,1.35Zm-1.283,6.864,1.1-5.867,1.278.239-1.1,5.867Z" fill="#121f63"/>
        <path id="Trazado_6113" data-name="Trazado 6113" d="M3907.649,9901.521a17.049,17.049,0,0,0-1.971-.563,1.815,1.815,0,0,0-.89-.014.513.513,0,0,0-.327.418.463.463,0,0,0,.181.5,6.048,6.048,0,0,0,1.187.531,2.924,2.924,0,0,1,1.291.794,1.7,1.7,0,0,1,.17,1.368,1.6,1.6,0,0,1-.848,1.25,2.963,2.963,0,0,1-1.812.11,10.614,10.614,0,0,1-1.769-.537l-.353-.127.247-1.059a17.561,17.561,0,0,0,2,.566,1.894,1.894,0,0,0,.914.013.543.543,0,0,0,.358-.453.514.514,0,0,0-.161-.535,5.159,5.159,0,0,0-1.154-.52,3.268,3.268,0,0,1-1.309-.761,1.508,1.508,0,0,1-.213-1.327,1.583,1.583,0,0,1,.869-1.233,2.66,2.66,0,0,1,1.661-.151,11.337,11.337,0,0,1,1.807.532l.351.139Z" fill="#121f63"/>
        <path id="Trazado_6114" data-name="Trazado 6114" d="M3912.318,9902.272l-1.619-.3-.483,2.581a2.8,2.8,0,0,0-.072.971c.041.17.207.281.5.336l.969.145-.133,1.031a6.879,6.879,0,0,1-1.225-.071,1.712,1.712,0,0,1-1.281-.713,2.925,2.925,0,0,1-.047-1.794l.509-2.722-.751-.142.2-1.091.751.141.318-1.7,1.267.236-.318,1.7,1.619.3Z" fill="#121f63"/>
        <path id="Trazado_6115" data-name="Trazado 6115" d="M3913.828,9902.082a3.089,3.089,0,0,1,4.025.752,3.7,3.7,0,0,1,.177,2.4,3.847,3.847,0,0,1-1.017,2.189,3.1,3.1,0,0,1-4.06-.759,3.831,3.831,0,0,1-.156-2.409A3.707,3.707,0,0,1,3913.828,9902.082Zm.244,3.992a1.448,1.448,0,0,0,2.112.395,3.3,3.3,0,0,0,.557-1.486,2.987,2.987,0,0,0,0-1.567,1.459,1.459,0,0,0-2.077-.389,2.987,2.987,0,0,0-.571,1.46A3.3,3.3,0,0,0,3914.072,9906.074Z" fill="#121f63"/>
        <path id="Trazado_6116" data-name="Trazado 6116" d="M3918.8,9908.428l1.1-5.867,1.267.237-.132.705a5.665,5.665,0,0,1,2.151-.461l-.239,1.279a8.418,8.418,0,0,0-1.822.193l-.278.058-.766,4.095Z" fill="#121f63"/>
        <path id="Trazado_6117" data-name="Trazado 6117" d="M3923.656,9903.263l1.256.235.35,5.008.317.06,2.137-4.543,1.267.236-3.8,7.974-1.255-.235,1.175-2.391-1.009-.189Z" fill="#121f63"/>
      </g>
      <rect id="Rectángulo_1154" data-name="Rectángulo 1154" width="37.73" height="37.73" rx="2.414" transform="translate(3823.261 9906.452) rotate(-79.409)" fill="#a6bfe2"/>
      <g id="Grupo_1186" data-name="Grupo 1186">
        <path id="Trazado_6118" data-name="Trazado 6118" d="M3840.646,9886.124a2.266,2.266,0,0,1-.316-1.733s-.53-.062-.7.269a2.437,2.437,0,0,1,.82-2.062s-.491-.288-.753.143c0,0-.331-1.145,1.52-2.687a10.022,10.022,0,0,1,2.312-1.674,1.824,1.824,0,0,0-1.895-1.335,3.368,3.368,0,0,1,3.558.593s.98-1.747,4.608.023,5.364,3.367,5.764,5.113c0,0-1.389-.732-2.049.27a2.489,2.489,0,0,1,1.445,2.958s-.572-.63-.909-.577c0,0,.031,3.609-2.345,4.327s-10.9-2.441-10.9-2.441Z"/>
        <g id="Grupo_1185" data-name="Grupo 1185">
          <path id="Trazado_6119" data-name="Trazado 6119" d="M3847.467,9904.507a13.023,13.023,0,0,1-8.548-1.489,59.871,59.871,0,0,0,2.736-8.308c.363-1.359.586-2.294.586-2.294l5.716,1.068c-.095.659-.171,1.525-.233,2.483C3847.491,9899.586,3847.467,9904.507,3847.467,9904.507Z" fill="#e9c0ad"/>
          <path id="Trazado_6120" data-name="Trazado 6120" d="M3847.724,9895.968a7.324,7.324,0,0,1-2.777.514,5.374,5.374,0,0,1-3.292-1.771c.363-1.359.586-2.294.586-2.294l5.716,1.068C3847.862,9894.144,3847.786,9895.01,3847.724,9895.968Z" fill="#be8b7d"/>
          <path id="Trazado_6121" data-name="Trazado 6121" d="M3850.854,9890.787l0-.018c-1.193,1.978-1.537,2.95-2.823,3.615-.065.034-.13.066-.2.1a5.189,5.189,0,0,1-3.215.655,4.922,4.922,0,0,1-2.637-1.7l-.05-.053c-1.026-1.088-1.212-2.162-1.546-4.553,0,0-1.513-.721-1.156-2.054s1.41-.652,1.41-.652a2.875,2.875,0,0,0,1.272.852,6.528,6.528,0,0,1,.019-2.828,5.063,5.063,0,0,1,.761-1.346c-.018.043-.289.755.7,1.327,0,0,.487-3,1.079-3.249,0,0-.059,4.783,3.317,5.959,0,0,.276-1.474.837-1.369,0,0,.118,2.13,2.958,2.7a.836.836,0,0,1,.5-.03c.342.054.677.313.586,1.15C3852.526,9890.66,3850.854,9890.787,3850.854,9890.787Z" fill="#e9c0ad"/>
        </g>
      </g>
      <path id="Trazado_6122" data-name="Trazado 6122" d="M3840.867,9897.515s-8.348,2.1-9.881,3.384-5.571,5.957-5.571,5.957l32.781,6.13s-1.025-6.157-3.226-8.285-7.382-5.928-7.382-5.928A12.276,12.276,0,0,1,3840.867,9897.515Z" fill="#121f63"/>
    </g>
    <path id="Trazado_6123" data-name="Trazado 6123" d="M3681.978,10119.6l-8.148,16.864H3633.6l-31.467.02,37.088-41.349s.774,3.155,15.6,13.571C3664.914,10115.8,3681.978,10119.6,3681.978,10119.6Z" fill="#414651"/>
    <path id="Trazado_6124" data-name="Trazado 6124" d="M3969.906,10136.487l-19.6-.02h-44.875l-5.375-28.232s8.148,3.185,33.371-5.107c4.839-1.591,10.312-6.3,12.851-8.691C3946.274,10094.437,3968.8,10132.686,3969.906,10136.487Z" fill="#414651"/>
  </g>
</svg>
