<svg xmlns="http://www.w3.org/2000/svg" xmlns:xlink="http://www.w3.org/1999/xlink" width="334.707" height="287.323" viewBox="0 0 334.707 287.323">
  <defs>
    <linearGradient id="linear-gradient" x1="-200.657" y1="553.371" x2="-200.657" y2="552.107" gradientUnits="objectBoundingBox">
      <stop offset="0" stop-color="#4470b3"/>
      <stop offset="1" stop-color="#68a7dd"/>
    </linearGradient>
    <linearGradient id="linear-gradient-2" x1="-153.937" y1="166.439" x2="-153.937" y2="165.174" xlink:href="#linear-gradient"/>
    <linearGradient id="linear-gradient-3" x1="-202.924" y1="279.123" x2="-202.924" y2="277.771" xlink:href="#linear-gradient"/>
    <linearGradient id="linear-gradient-4" x1="-205.03" y1="551.615" x2="-205.03" y2="550.294" xlink:href="#linear-gradient"/>
  </defs>
  <g id="Grupo_758" data-name="Grupo 758" transform="translate(-5211.271 -941.798)">
    <rect id="Rectángulo_940" data-name="Rectángulo 940" width="118.408" height="82.75" transform="translate(5280.12 941.798)" fill="#d8d8d8"/>
    <rect id="Rectángulo_941" data-name="Rectángulo 941" width="110.989" height="76.943" rx="3.571" transform="translate(5283.682 944.498)" fill="#fff"/>
    <path id="Trazado_4347" data-name="Trazado 4347" d="M5352.269,993.292l-.009,2.018,31.522.055.009-2.02Z" fill="#858585"/>
    <rect id="Rectángulo_942" data-name="Rectángulo 942" width="2.021" height="31.517" transform="translate(5352.248 998.43) rotate(-89.687)" fill="#858585"/>
    <path id="Trazado_4348" data-name="Trazado 4348" d="M5352.242,999.645l-.009,2.02,31.522.055.009-2.017Z" fill="#858585"/>
    <rect id="Rectángulo_943" data-name="Rectángulo 943" width="2.021" height="31.522" transform="translate(5352.221 1004.799) rotate(-89.748)" fill="#858585"/>
    <path id="Trazado_4349" data-name="Trazado 4349" d="M5352.215,1006l-.007,2.021,31.52.056.009-2.021Z" fill="#858585"/>
    <path id="Trazado_4350" data-name="Trazado 4350" d="M5432.233,1045.294l4.988-1.58,2.387,7.336a5.12,5.12,0,0,1,3.049,2.445l3.545,1.1a1.224,1.224,0,0,1,.848,1.51l-.133.473a1.223,1.223,0,0,1-1.511.845l-1.828-.647c.41,2.7,1.257,6.733-2.361,7.551-4.007.9-6.669-4.411-7.211-7.281a5.583,5.583,0,0,1,.74-4.036Z" fill="#f8e8c9"/>
    <g id="Grupo_572" data-name="Grupo 572">
      <path id="Trazado_4351" data-name="Trazado 4351" d="M5414.876,1105.381a3.981,3.981,0,0,1-3.357,1.565c-2.871-.032-3.54-.319-4.113-1.565l-1.933-42.852H5416.1Z" fill="#5e4f44"/>
      <path id="Trazado_4352" data-name="Trazado 4352" d="M5401.658,1105.381a11.181,11.181,0,0,1-3.524.646c-2.581.025-3.155-.452-3.946-1.886l-.2-41.612h11.42Z" fill="#5e4f44"/>
    </g>
    <g id="Grupo_573" data-name="Grupo 573">
      <path id="Trazado_4353" data-name="Trazado 4353" d="M5432.893,1030.684l-4.713-18.854-2.08-2.356-8.671-2.295-17.313-1.538-9.428,2.692-8.8,11.823-5.423-13.806-8.546,3.288,10.848,21.861,3.848-.769,10.77-12.97.465,24.5-1.9,26.088,11.245.192,1.538-3.269.962,2.884,14.621.385-1.638-31.43,3.807-17.609,4.375,18.347,4.956,14.01,8.412-3.349Z" fill="#fff"/>
      <path id="Trazado_4354" data-name="Trazado 4354" d="M5420.739,1068.952l-15.337-.4-.734-2.2-1.222,2.6-11.929-.2,1.928-26.494-.445-23.4-10.171,12.248-4.288.857-11.181-22.531,9.33-3.589,5.305,13.5,8.452-11.352,9.63-2.751,17.455,1.557,8.789,2.326,2.225,2.521,4.73,18.92,7.477,18.173-9.178,3.654-5.106-14.444-3.966-16.629-3.422,15.83Zm-28.359-1,10.56.18,1.855-3.941,1.191,3.567,13.905.367-1.618-31.049,4.192-19.389,4.78,20.046,4.809,13.6,7.647-3.045-7.19-17.476-.007-.028-4.69-18.759-1.934-2.191-8.521-2.255-17.205-1.528-9.225,2.634-9.153,12.294-5.542-14.107-7.762,2.986,10.514,21.19,3.407-.681,11.369-13.691.487,25.6,0,.018Z" fill="#d8d8d8"/>
    </g>
    <path id="Trazado_4355" data-name="Trazado 4355" d="M5403.769,1004.294l-2.692,1.538,5.115,22.024,9.7-19.138Z" fill="#fff"/>
    <rect id="Rectángulo_944" data-name="Rectángulo 944" width="8.85" height="11.157" transform="translate(5403.769 997.56)" fill="#f5debc"/>
    <path id="Trazado_4356" data-name="Trazado 4356" d="M5406.464,1012.373h3.077l2.116-3.463h-7.117Z" fill="#436589"/>
    <path id="Trazado_4357" data-name="Trazado 4357" d="M5406.464,1012.373h3.077l.883,5.477-4.232,10.776-1.364-8.061Z" fill="#436589"/>
    <g id="Grupo_574" data-name="Grupo 574">
      <path id="Trazado_4358" data-name="Trazado 4358" d="M5412.813,1004.294l2.692,1.538-1.347,5.966-5.964-2.694Z" fill="#fff"/>
      <path id="Trazado_4359" data-name="Trazado 4359" d="M5414.339,1012.16l-6.58-2.972,5.007-5.216,3.03,1.731Zm-5.709-3.141,5.348,2.416,1.235-5.475-2.354-1.345Z" fill="#b0b0af"/>
    </g>
    <g id="Grupo_575" data-name="Grupo 575">
      <path id="Trazado_4360" data-name="Trazado 4360" d="M5403.769,1004.294l-2.692,1.538,1.154,5.772,6.156-2.5Z" fill="#fff"/>
      <path id="Trazado_4361" data-name="Trazado 4361" d="M5402.04,1011.957l-1.251-6.256,3.026-1.729,5.018,5.227Zm-.676-5.995,1.057,5.288,5.52-2.241-4.219-4.394Z" fill="#b0b0af"/>
    </g>
    <g id="Grupo_576" data-name="Grupo 576">
      <path id="Trazado_4362" data-name="Trazado 4362" d="M5418.583,1007.179l-.69,4.365-2.986,3.053,2.044,3.223-10.511,11.188,8.665-23.524Z" fill="#fff"/>
      <path id="Trazado_4363" data-name="Trazado 4363" d="M5406.44,1029.41a.4.4,0,0,1-.211-.06.4.4,0,0,1-.166-.48l8.666-23.524a.4.4,0,0,1,.552-.222l3.478,1.694a.4.4,0,0,1,.22.424l-.689,4.365a.41.41,0,0,1-.11.218l-2.764,2.825,1.874,2.955a.4.4,0,0,1-.046.49l-10.511,11.189A.4.4,0,0,1,5406.44,1029.41Zm8.889-23.37-7.829,21.254,8.945-9.522-1.877-2.96a.4.4,0,0,1,.052-.5l2.9-2.961.624-3.945Z" fill="#d8d8d8"/>
    </g>
    <g id="Grupo_577" data-name="Grupo 577">
      <path id="Trazado_4364" data-name="Trazado 4364" d="M5398.383,1006.218l.226,4.329,2.379,3.381-2.438,2.807,7.891,12-4.257-23.621Z" fill="#fff"/>
      <path id="Trazado_4365" data-name="Trazado 4365" d="M5406.441,1029.139a.4.4,0,0,1-.336-.181l-7.891-12a.4.4,0,0,1,.033-.484l2.231-2.57-2.2-3.124a.393.393,0,0,1-.073-.21l-.225-4.329a.4.4,0,0,1,.289-.406l3.8-1.1a.4.4,0,0,1,.507.315l4.257,23.621a.4.4,0,0,1-.247.444A.384.384,0,0,1,5406.441,1029.139Zm-7.388-12.37,6.644,10.106-3.83-21.249-3.066.889.2,3.9,2.313,3.286a.4.4,0,0,1-.025.495Z" fill="#d8d8d8"/>
    </g>
    <path id="Trazado_4366" data-name="Trazado 4366" d="M5403.985,1033.085a1.328,1.328,0,1,0,1.329-1.328A1.329,1.329,0,0,0,5403.985,1033.085Z" fill="#9a9a9a"/>
    <path id="Trazado_4367" data-name="Trazado 4367" d="M5403.985,1042.264a1.328,1.328,0,1,0,1.329-1.33A1.329,1.329,0,0,0,5403.985,1042.264Z" fill="#9a9a9a"/>
    <path id="Trazado_4368" data-name="Trazado 4368" d="M5403.985,1051.44a1.328,1.328,0,1,0,1.329-1.327A1.329,1.329,0,0,0,5403.985,1051.44Z" fill="#9a9a9a"/>
    <g id="Grupo_578" data-name="Grupo 578">
      <rect id="Rectángulo_945" data-name="Rectángulo 945" width="6.118" height="2.255" transform="translate(5411.915 1042.584)" fill="#fff"/>
      <path id="Trazado_4369" data-name="Trazado 4369" d="M5418.434,1045.241h-6.921v-3.059h6.921Zm-6.118-.8h5.315v-1.452h-5.315Z" fill="#d8d8d8"/>
    </g>
    <g id="Grupo_579" data-name="Grupo 579">
      <rect id="Rectángulo_946" data-name="Rectángulo 946" width="6.12" height="2.255" transform="translate(5394.042 1042.584)" fill="#fff"/>
      <path id="Trazado_4370" data-name="Trazado 4370" d="M5400.563,1045.241h-6.923v-3.059h6.923Zm-6.12-.8h5.317v-1.452h-5.317Z" fill="#d8d8d8"/>
    </g>
    <g id="Grupo_580" data-name="Grupo 580">
      <path id="Trazado_4371" data-name="Trazado 4371" d="M5422.937,1020.681h-1.354v-5.147a3.69,3.69,0,0,0-7.381,0v5.147h-1.354v-5.147a5.044,5.044,0,0,1,10.089,0Z" fill="#9a9a9a"/>
      <path id="Trazado_4372" data-name="Trazado 4372" d="M5420.745,1020.86A1.256,1.256,0,1,0,5422,1019.6,1.256,1.256,0,0,0,5420.745,1020.86Z" fill="#9a9a9a"/>
      <path id="Trazado_4373" data-name="Trazado 4373" d="M5412.13,1020.86a1.256,1.256,0,1,0,1.256-1.256A1.255,1.255,0,0,0,5412.13,1020.86Z" fill="#9a9a9a"/>
    </g>
    <path id="Trazado_4374" data-name="Trazado 4374" d="M5418.5,1011.467l-1.214-.6.607.3-.608-.3a4.42,4.42,0,0,0,.069-3.6c-.666-1.228-2.223-2-4.625-2.3l.167-1.343c2.868.358,4.77,1.371,5.654,3.012A5.727,5.727,0,0,1,5418.5,1011.467Z" fill="#9a9a9a"/>
    <path id="Trazado_4375" data-name="Trazado 4375" d="M5397.277,1020.368l-1.353-.034.179-7.071c0-9.823,7.3-10.632,7.374-10.639l.129,1.348-.064-.674.067.673c-.252.026-6.152.736-6.152,9.309Z" fill="#9a9a9a"/>
    <rect id="Rectángulo_947" data-name="Rectángulo 947" width="1.329" height="7.049" transform="translate(5394.476 1012.539)" fill="#222221"/>
    <g id="Grupo_581" data-name="Grupo 581">
      <rect id="Rectángulo_948" data-name="Rectángulo 948" width="5.93" height="1.952" transform="translate(5393.563 1019.05)" fill="#fff"/>
      <path id="Trazado_4376" data-name="Trazado 4376" d="M5399.9,1021.4h-6.733v-2.756h6.733Zm-5.93-.8h5.127v-1.149h-5.127Z" fill="#d8d8d8"/>
    </g>
    <rect id="Rectángulo_949" data-name="Rectángulo 949" width="1.015" height="5.854" transform="matrix(0.892, -0.452, 0.452, 0.892, 5440.04, 1058.168)" fill="#eecb8f"/>
    <rect id="Rectángulo_950" data-name="Rectángulo 950" width="1.014" height="6.085" transform="translate(5438.066 1059.097) rotate(-26.301)" fill="#eecb8f"/>
    <rect id="Rectángulo_951" data-name="Rectángulo 951" width="1.014" height="4.746" transform="matrix(0.91, -0.415, 0.415, 0.91, 5436.663, 1060.146)" fill="#eecb8f"/>
    <path id="Trazado_4377" data-name="Trazado 4377" d="M5436.619,1058.6l-.415-.926,3.849-1.723-1.825-2.645.835-.576,2.518,3.649Z" fill="#eecb8f"/>
    <path id="Trazado_4378" data-name="Trazado 4378" d="M5370.561,957.468l-67.942-.662-.01-7.6,67.941.664Z" fill="#9a9a9a"/>
    <path id="Trazado_4379" data-name="Trazado 4379" d="M5293.629,1001.992l0,2.021,17.236.169v-2.022Z" fill="#858585"/>
    <path id="Trazado_4380" data-name="Trazado 4380" d="M5293.632,1005.169l0,2.019,17.236.169,0-2.02Z" fill="#858585"/>
    <path id="Trazado_4381" data-name="Trazado 4381" d="M5293.637,1008.342l0,2.025,17.237.167,0-2.022Z" fill="#858585"/>
    <path id="Trazado_4382" data-name="Trazado 4382" d="M5293.643,1011.521v2.021l17.237.17,0-2.022Z" fill="#858585"/>
    <path id="Trazado_4383" data-name="Trazado 4383" d="M5313.968,1001.992l0,2.021,17.236.169v-2.022Z" fill="#858585"/>
    <path id="Trazado_4384" data-name="Trazado 4384" d="M5313.971,1005.169l0,2.019,17.236.169,0-2.02Z" fill="#858585"/>
    <path id="Trazado_4385" data-name="Trazado 4385" d="M5313.976,1008.342l0,2.025,17.237.167,0-2.022Z" fill="#858585"/>
    <path id="Trazado_4386" data-name="Trazado 4386" d="M5313.981,1011.521v2.021l17.237.17,0-2.022Z" fill="#858585"/>
    <g id="Grupo_582" data-name="Grupo 582">
      <path id="Trazado_4387" data-name="Trazado 4387" d="M5311.5,962.758a14.754,14.754,0,0,0-6.26,1.313l6.416,14.748Z" fill="#afc5e7"/>
      <path id="Trazado_4388" data-name="Trazado 4388" d="M5305.235,964.071a14.91,14.91,0,0,0-4.473,3.124,15.38,15.38,0,0,0-3.009,4.354l13.9,7.27Z" fill="#d4dae0"/>
      <path id="Trazado_4389" data-name="Trazado 4389" d="M5297.753,971.549a15.6,15.6,0,0,0-1.422,6.575,15.831,15.831,0,0,0,4.458,11.015l10.862-10.32Z" fill="#899aa7"/>
      <path id="Trazado_4390" data-name="Trazado 4390" d="M5311.651,978.819l-10.862,10.32a15.17,15.17,0,0,0,10.746,4.651,14.835,14.835,0,0,0,10.732-4.443Z" fill="#839cd0"/>
      <path id="Trazado_4391" data-name="Trazado 4391" d="M5322.267,989.347a15.453,15.453,0,0,0,4.431-10.927,15.793,15.793,0,0,0-4.461-11.011,15.133,15.133,0,0,0-10.742-4.651l.156,16.061Z" fill="#1a5492"/>
    </g>
    <g id="Grupo_586" data-name="Grupo 586">
      <path id="Trazado_4392" data-name="Trazado 4392" d="M5360.112,989.465l-4.382-.043-.015-11.755,4.381.044Z" fill="#569f98"/>
      <path id="Trazado_4393" data-name="Trazado 4393" d="M5366.686,989.526l-4.381-.042-.008-7.276,4.382.043Z" fill="#c52170"/>
      <path id="Trazado_4394" data-name="Trazado 4394" d="M5373.259,989.59l-4.38-.039-.016-12.874,4.381.043Z" fill="#59287f"/>
      <path id="Trazado_4395" data-name="Trazado 4395" d="M5379.835,989.655l-4.381-.042-.013-8.209,4.385.043Z" fill="#4d8b3f"/>
      <path id="Trazado_4396" data-name="Trazado 4396" d="M5384.082,990.479l-32.963-.323-.031-22.087,32.963.323Zm-31.774-1.5,30.582.3-.027-19.707-30.583-.3Z" fill="#858585"/>
      <g id="Grupo_583" data-name="Grupo 583">
        <rect id="Rectángulo_952" data-name="Rectángulo 952" width="0.297" height="0.595" transform="translate(5382.868 974.099) rotate(-89.447)" fill="#858585"/>
        <path id="Trazado_4397" data-name="Trazado 4397" d="M5381.644,974.086l-1.223-.012,0-.3,1.223.012Zm-2.446-.023-1.223-.012,0-.3,1.224.012Zm-2.447-.024-1.223-.012,0-.3,1.223.012Zm-2.446-.024-1.223-.012,0-.3,1.224.012Zm-2.447-.024-1.223-.012,0-.3,1.223.012Zm-2.446-.024-1.224-.012,0-.3,1.224.011Zm-2.447-.024-1.223-.012,0-.3,1.223.012Zm-2.446-.024-1.224-.012,0-.3,1.224.012Zm-2.447-.024-1.223-.012,0-.3,1.223.012Zm-2.446-.024-1.224-.012,0-.3,1.224.012Zm-2.447-.023-1.223-.012,0-.3,1.223.012Zm-2.446-.024-1.224-.012,0-.3,1.224.012Z" fill="#858585"/>
        <rect id="Rectángulo_953" data-name="Rectángulo 953" width="0.298" height="0.595" transform="translate(5351.691 973.794) rotate(-89.447)" fill="#858585"/>
      </g>
      <g id="Grupo_584" data-name="Grupo 584">
        <rect id="Rectángulo_954" data-name="Rectángulo 954" width="0.297" height="0.595" transform="translate(5382.875 979.727) rotate(-89.447)" fill="#858585"/>
        <path id="Trazado_4398" data-name="Trazado 4398" d="M5381.651,979.715l-1.223-.012,0-.3,1.223.012Zm-2.446-.024-1.223-.012,0-.3,1.223.012Zm-2.447-.024-1.223-.012,0-.3,1.223.012Zm-2.446-.024-1.223-.012,0-.3,1.223.012Zm-2.446-.024-1.224-.012,0-.3,1.224.012Zm-2.447-.024-1.223-.011,0-.3,1.223.012Zm-2.446-.023-1.223-.012,0-.3,1.223.012Zm-2.447-.024-1.223-.012,0-.3,1.223.012Zm-2.446-.024-1.223-.012,0-.3,1.223.012Zm-2.446-.024-1.224-.012,0-.3,1.223.012Zm-2.447-.024-1.223-.012,0-.3,1.223.012Zm-2.446-.024-1.223-.012,0-.3,1.224.012Z" fill="#858585"/>
        <rect id="Rectángulo_955" data-name="Rectángulo 955" width="0.297" height="0.595" transform="translate(5351.699 979.422) rotate(-89.445)" fill="#858585"/>
      </g>
      <g id="Grupo_585" data-name="Grupo 585">
        <rect id="Rectángulo_956" data-name="Rectángulo 956" width="0.297" height="0.595" transform="translate(5382.881 985.356) rotate(-89.447)" fill="#858585"/>
        <path id="Trazado_4399" data-name="Trazado 4399" d="M5381.658,985.344l-1.223-.012,0-.3,1.223.012Zm-2.446-.024-1.223-.012,0-.3,1.223.012Zm-2.447-.024-1.223-.012,0-.3,1.223.012Zm-2.446-.023-1.223-.012,0-.3,1.223.012Zm-2.446-.024-1.224-.012,0-.3,1.224.012Zm-2.447-.024-1.223-.012,0-.3,1.223.012Zm-2.446-.024-1.223-.012,0-.3,1.224.011Zm-2.447-.024-1.223-.012,0-.3,1.223.012Zm-2.446-.024-1.223-.012,0-.3,1.223.012Zm-2.446-.024-1.224-.012,0-.3,1.223.012Zm-2.447-.024-1.223-.012,0-.3,1.223.012Zm-2.446-.024-1.224-.011,0-.3,1.224.012Z" fill="#858585"/>
        <rect id="Rectángulo_957" data-name="Rectángulo 957" width="0.298" height="0.595" transform="matrix(0.01, -1, 1, 0.01, 5351.706, 985.052)" fill="#858585"/>
      </g>
    </g>
    <g id="Grupo_587" data-name="Grupo 587">
      <path id="Trazado_4400" data-name="Trazado 4400" d="M5428.833,978.426l0,.018c-1.587-.96-3.67.5-4.4,1.664-.414.663-.42,1.421-.859,2.079a7.662,7.662,0,0,1-2.069,2.307c1.108-3.145.351-7.716.262-11.045a11.883,11.883,0,0,1-1.79-1.222,7.654,7.654,0,0,1-1.341-2.423,21.177,21.177,0,0,1-.913-4.938c.083.626-7.67,2.4-8.576,2.123a2.092,2.092,0,0,0,.443-1.262c-1.635,1.358-5.949,1.942-8.048,1.788a3.237,3.237,0,0,0,.522-2.011c-1.4.925-4.73,2.7-6.378,1.871a16.009,16.009,0,0,0,.659-1.835,28.126,28.126,0,0,1-4.518,1.726,25.548,25.548,0,0,1-3.051.355c.143,2.285.721,4.581.721,6.962v5.062a15.65,15.65,0,0,1-.252,2.616c-.464,2.734-1.376,5.461-.968,8.147.946,6.224,7.414,9.034,14.182,9.555a31,31,0,0,0,8.905-.6,18.521,18.521,0,0,0,4.6-1.61,16.428,16.428,0,0,0,4.508-3.513,17.1,17.1,0,0,0,3.946-7.7,4.461,4.461,0,0,0,2.038.5,4.6,4.6,0,0,0,4.548-4.647A4.66,4.66,0,0,0,5428.833,978.426Z" fill="#f8e8c9"/>
      <path id="Trazado_4401" data-name="Trazado 4401" d="M5396.348,965.54a16.009,16.009,0,0,1-.659,1.835c1.648.827,4.982-.946,6.378-1.871a3.237,3.237,0,0,1-.522,2.011c2.1.154,6.413-.43,8.048-1.788a2.092,2.092,0,0,1-.443,1.262c.906.28,8.659-1.5,8.576-2.123a21.177,21.177,0,0,0,.913,4.938,7.654,7.654,0,0,0,1.341,2.423,11.883,11.883,0,0,0,1.79,1.222c.089,3.329.846,7.9-.262,11.045a7.662,7.662,0,0,0,2.069-2.307c.439-.658.445-1.416.859-2.079.725-1.162,2.808-2.624,4.4-1.664l0-.018c.318-2.416.886-3.905.886-6.436a27.373,27.373,0,0,0-1.306-9.571,9.019,9.019,0,0,0-2.836-4.07,54.278,54.278,0,0,0-5.909-4.637,15.075,15.075,0,0,0-2.755-1.3c-8.224-2.9-22.5-4.149-27.661,4.652-.906,1.544-2.537,3.258-3.044,4.89.066-.215,1.014-.471,1.214-.879.286,1.741-1.516,2.928-1.527,4.631a7.1,7.1,0,0,0,1.367-.785,8.23,8.23,0,0,0,.494,2.872,8.255,8.255,0,0,1,1.023-.175,25.548,25.548,0,0,0,3.051-.355A28.126,28.126,0,0,0,5396.348,965.54Z" fill="#3f2d1f"/>
    </g>
    <path id="Trazado_4402" data-name="Trazado 4402" d="M5420.48,994.239a22.958,22.958,0,0,0,2.231-1.317,10.333,10.333,0,0,0,2.017-2.935,22.42,22.42,0,0,0,1.2-2.987,4.452,4.452,0,0,1-1.5-.464A17.1,17.1,0,0,1,5420.48,994.239Z" fill="#3f2d1f"/>
    <path id="Trazado_4403" data-name="Trazado 4403" d="M5417.012,976.081a5.216,5.216,0,0,0-1.524-1.428,4.026,4.026,0,0,0-1.8-.522,6.922,6.922,0,0,0-1.969.2c-.675.154-1.352.389-2.089.632a4.745,4.745,0,0,1,1.766-1.505,4.649,4.649,0,0,1,2.367-.5,3.623,3.623,0,0,1,2.294.97A3.054,3.054,0,0,1,5417.012,976.081Z" fill="#222221"/>
    <path id="Trazado_4404" data-name="Trazado 4404" d="M5397.53,974.775a6.1,6.1,0,0,0-1.516-.915,3.13,3.13,0,0,0-1.536-.194,4.257,4.257,0,0,0-1.508.516,12.9,12.9,0,0,0-1.5,1.013,3.587,3.587,0,0,1,1.03-1.655,3.364,3.364,0,0,1,1.869-.879,2.906,2.906,0,0,1,3.161,2.114Z" fill="#222221"/>
    <path id="Trazado_4405" data-name="Trazado 4405" d="M5399.717,987.24l.8-8.925,1.017.091-.7,7.763,3.869-.168.044,1.02Z" fill="#eecb8f"/>
    <path id="Trazado_4406" data-name="Trazado 4406" d="M5392.521,979.568c0,1.793,1.163,3.246,2.6,3.246s2.6-1.453,2.6-3.246-1.163-3.246-2.6-3.246S5392.521,977.776,5392.521,979.568Z" fill="#fff"/>
    <path id="Trazado_4407" data-name="Trazado 4407" d="M5393.265,980.109c0,1.076.62,1.948,1.385,1.948s1.385-.872,1.385-1.948-.619-1.947-1.385-1.947S5393.265,979.033,5393.265,980.109Z" fill="#222221"/>
    <path id="Trazado_4408" data-name="Trazado 4408" d="M5409.588,979.568c0,1.793,1.162,3.246,2.6,3.246s2.6-1.453,2.6-3.246-1.163-3.246-2.6-3.246S5409.588,977.776,5409.588,979.568Z" fill="#fff"/>
    <path id="Trazado_4409" data-name="Trazado 4409" d="M5410.331,980.109c0,1.076.62,1.948,1.386,1.948s1.384-.872,1.384-1.948-.62-1.947-1.384-1.947S5410.331,979.033,5410.331,980.109Z" fill="#222221"/>
    <path id="Trazado_4410" data-name="Trazado 4410" d="M5377.173,1006.841a10.27,10.27,0,0,0-1.684-2.386c-.119-.16-.23-.327-.337-.5a18.133,18.133,0,0,0-1.11-1.761c-.2-.245-.628-.339-.965-.488l.187-.057-4.828-2.1a1.233,1.233,0,0,0-1.616.655l-.194.454a1.231,1.231,0,0,0,.654,1.614l1.811.633c-.613.322-1.217.654-1.84.967-.563.282-1.143.436-1.7.748a5.247,5.247,0,0,0-2.476,3.947c-.342,2.373.263,4.978,2.7,5.836a8.509,8.509,0,0,0,5.614-.3,12.043,12.043,0,0,0,2.138-1.387,7.559,7.559,0,0,0,2.584-2.78C5376.646,1008.9,5377.624,1008.062,5377.173,1006.841Z" fill="#f8e8c9"/>
    <rect id="Rectángulo_958" data-name="Rectángulo 958" width="4.904" height="1.021" transform="translate(5362.89 1008.09) rotate(-21.436)" fill="#eecb8f"/>
    <rect id="Rectángulo_959" data-name="Rectángulo 959" width="5.738" height="1.021" transform="matrix(0.893, -0.449, 0.449, 0.893, 5363.034, 1011.211)" fill="#eecb8f"/>
    <rect id="Rectángulo_960" data-name="Rectángulo 960" width="5.405" height="1.021" transform="translate(5364.929 1013.706) rotate(-33.086)" fill="#eecb8f"/>
    <path id="Trazado_4411" data-name="Trazado 4411" d="M5404.864,991.455a5.78,5.78,0,0,1-3.495-1.126,2.918,2.918,0,0,0-.578,1.726c0,1.858,1.824,3.363,4.073,3.363s4.073-1.505,4.073-3.363a2.924,2.924,0,0,0-.577-1.726A5.786,5.786,0,0,1,5404.864,991.455Z" fill="#e0a28f"/>
    <path id="Trazado_4412" data-name="Trazado 4412" d="M5250.453,1118.72s4.851,10.4,16.632,10.049l6.238-19.751Z" fill="#5e4f44"/>
    <path id="Trazado_4413" data-name="Trazado 4413" d="M5240.064,1153.444l-9.785-2.709c.338.941.672,1.882,1.014,2.821a28.507,28.507,0,0,1,1.283,2.811c.314,1.309-.22,2.96-.435,4.258a26.178,26.178,0,0,0-.458,4.3c0,1.536-.086,3.049.752,4.408,1.082,1.758,3.46,1.795,5.324,1.636,5.032-.43,5.633-8.373,3.911-11.89a16.266,16.266,0,0,1-.857-3.177A11.3,11.3,0,0,0,5240.064,1153.444Z" fill="#f1d5b7"/>
    <path id="Trazado_4414" data-name="Trazado 4414" d="M5237.245,1167.227c.012-.1.1-.191.268-.3s.749-.132.994-.239a7.583,7.583,0,0,0,.993-.526,6.154,6.154,0,0,0,2.029-2.264c.265-.482.841-2.858,1.261-3.023.856-.335.97,3.143,1.071,3.635.322,1.585.8,4.006-.31,5.427-1.072,1.369-2.928.959-4.136-.13a17.087,17.087,0,0,1-1.837-1.986C5237.353,1167.537,5237.228,1167.369,5237.245,1167.227Z" fill="#d06a66"/>
    <rect id="Rectángulo_961" data-name="Rectángulo 961" width="119.773" height="8.937" transform="translate(5312.586 1112.352)" fill="#7c6245"/>
    <path id="Trazado_4415" data-name="Trazado 4415" d="M5317.252,1114.143v7.225l-23,107.753v-7.226Z" fill="#604427"/>
    <path id="Trazado_4416" data-name="Trazado 4416" d="M5427.664,1121.313l32.949,107.758v-7.165l-32.949-107.758Z" fill="#604427"/>
    <path id="Trazado_4417" data-name="Trazado 4417" d="M5234.061,1204.864a8.731,8.731,0,0,0,3.161,6.83c3.543,3.282,7.5,5.983,9.9,1.234,2.766-5.475,3.923-12.422,5.776-18.29-4.969,2.108-10.313,3.65-15.183,5.665A5.393,5.393,0,0,0,5234.061,1204.864Z" fill="#724f2b"/>
    <path id="Trazado_4418" data-name="Trazado 4418" d="M5252.407,1198.909c-3.113,1.889-6.639,3.263-9.667,5.1-2.386,1.451-6.924,8.412-9.774,4.292-2.458-3.554-.246-8.621-.072-12.476.157-3.472-.851-5.26-2.431-8.392l-4.6-9.121c-.622-1.233-1.8-2.766-2-4.121-.205-1.432.508-2.8.964-4.109q.544-1.566,1.088-3.13l3.281-5.49,3.627-2.32a5.131,5.131,0,0,0-1.488,1.694c-.119.339,3.37,3.24,3.665,3.524l3.388,3.255c.851.818,1.951,2.533,3.347,1.982,1.029-.405,1.095-1.708,1.106-2.651a16.96,16.96,0,0,0-.269-3.883c-.1-.45-1.578-6.1-1.525-6.1a31.082,31.082,0,0,1,4.14.016l5.092,12.594c.645,1.6,2.047,3.581,1.78,5.379a13.583,13.583,0,0,1-1.393,3.279c-.228.5-1.052,1.649-1.012,2.208l.484,6.786Z" fill="#cba862"/>
    <path id="Trazado_4419" data-name="Trazado 4419" d="M5497.8,1119.883s-4.851,10.4-16.633,10.049l-6.237-19.751Z" fill="#222221"/>
    <path id="Trazado_4420" data-name="Trazado 4420" d="M5488.105,1068.961l-1.238,5.19,7.591,1.258,1.067-7.141Z" fill="#f1d5b7"/>
    <path id="Trazado_4421" data-name="Trazado 4421" d="M5528.963,1201.506s-4.851,10.4-16.633,10.049l-6.237-19.752Z" fill="#585857"/>
    <path id="Trazado_4422" data-name="Trazado 4422" d="M5515.3,1160.392l1.423-.924,3.831.844,2.339,2.306,1.931.278-.348,1.239-4.66,4.175-7.4.7Z" fill="#96a5b1"/>
    <path id="Trazado_4423" data-name="Trazado 4423" d="M5516.492,1162.773l.6-2.992,2.079.2,1.986.562,1.742,2.077-2.4,1.508-.673,4.184-5.481,4.91-5.011,4.5.271-1.056.008-.037,1.73-5.168.666-1.99Z" fill="#4470b3"/>
    <g id="Grupo_588" data-name="Grupo 588">
      <path id="Trazado_4424" data-name="Trazado 4424" d="M5519.151,1160.031l7.91-4,1.407,1.972.191.779-6.479,6.563-1.6-4.8Z" fill="#c0c7cd"/>
      <path id="Trazado_4425" data-name="Trazado 4425" d="M5517.784,1155.419l.03.048,1.336,4.565-1.738.118-2.577,1.611Z" fill="#c0c7cd"/>
    </g>
    <path id="Trazado_4426" data-name="Trazado 4426" d="M5507.653,1168.455l6.15-14.306,4.537-.284-9.011,23.859,18.829-19.256c-.278-.789-1.1-2.438-1.1-2.438l2.733,2.6,3.281,5.49,2.361,6.79-4.111,29.613a49.563,49.563,0,0,1-7.83,9.432l-16.906-13.881Z" fill="#4d4d4d"/>
    <path id="Trazado_4427" data-name="Trazado 4427" d="M5465.092,1078.408H5278.2l-36.874,143.5h52.921l23-107.764h110.4l32.922,107.764h59.254Z" fill="#bda283"/>
    <g id="Grupo_589" data-name="Grupo 589">
      <path id="Trazado_4428" data-name="Trazado 4428" d="M5464.389,1173.735l9.412-.631,16.553-1.113,5.2,20.834-.6.049C5483.22,1188.781,5471.763,1182.44,5464.389,1173.735Z" fill="#858585"/>
      <path id="Trazado_4429" data-name="Trazado 4429" d="M5494.953,1192.874l-18.241,1.469-7.381.595-5.434-21.17.492-.033C5471.763,1182.44,5483.22,1188.781,5494.953,1192.874Z" fill="#9a9a9a"/>
      <path id="Trazado_4430" data-name="Trazado 4430" d="M5463.748,1175.147l.149-1.379,5.434,21.17-.462.488Z" fill="#585857"/>
      <path id="Trazado_4431" data-name="Trazado 4431" d="M5495.307,1193.28l.225-.5-26.2,2.153-.462.488Z" fill="#3e3e3d"/>
      <path id="Trazado_4432" data-name="Trazado 4432" d="M5471.185,1192.554l20.487-1.532-4.279-16.667-20.144,1.68Z" fill="url(#linear-gradient)"/>
    </g>
    <g id="Grupo_626" data-name="Grupo 626">
      <g id="Grupo_590" data-name="Grupo 590">
        <path id="Trazado_4433" data-name="Trazado 4433" d="M5488.751,1189l-3.333-12.776-15.306,1.166,3.333,12.776Z" fill="#fff"/>
      </g>
      <g id="Grupo_591" data-name="Grupo 591">
        <path id="Trazado_4434" data-name="Trazado 4434" d="M5475.75,1189.032l-2.782-10.665-1.276.1,2.782,10.665Z" fill="#9a9a9a"/>
      </g>
      <g id="Grupo_592" data-name="Grupo 592">
        <path id="Trazado_4435" data-name="Trazado 4435" d="M5475.78,1185.348l.425-.032.885,3.388-.426.032Z" fill="#858585"/>
      </g>
      <g id="Grupo_593" data-name="Grupo 593">
        <path id="Trazado_4436" data-name="Trazado 4436" d="M5476.448,1185.3l.425-.032.884,3.388-.425.033Z" fill="#858585"/>
      </g>
      <g id="Grupo_594" data-name="Grupo 594">
        <path id="Trazado_4437" data-name="Trazado 4437" d="M5477.117,1185.246l.425-.033.883,3.389-.425.032Z" fill="#858585"/>
      </g>
      <g id="Grupo_595" data-name="Grupo 595">
        <path id="Trazado_4438" data-name="Trazado 4438" d="M5477.784,1185.195l.426-.032.883,3.388-.424.032Z" fill="#858585"/>
      </g>
      <g id="Grupo_596" data-name="Grupo 596">
        <path id="Trazado_4439" data-name="Trazado 4439" d="M5478.453,1185.144l.426-.033.883,3.389-.426.033Z" fill="#858585"/>
      </g>
      <g id="Grupo_597" data-name="Grupo 597">
        <path id="Trazado_4440" data-name="Trazado 4440" d="M5479.377,1178.036l.425-.033.884,3.389-.425.033Z" fill="#858585"/>
      </g>
      <g id="Grupo_598" data-name="Grupo 598">
        <path id="Trazado_4441" data-name="Trazado 4441" d="M5480.045,1177.985l.425-.033.884,3.389-.425.032Z" fill="#858585"/>
      </g>
      <g id="Grupo_599" data-name="Grupo 599">
        <path id="Trazado_4442" data-name="Trazado 4442" d="M5480.713,1177.934l.426-.033.884,3.389-.425.033Z" fill="#858585"/>
      </g>
      <g id="Grupo_600" data-name="Grupo 600">
        <path id="Trazado_4443" data-name="Trazado 4443" d="M5481.382,1177.883l.425-.033.884,3.389-.424.032Z" fill="#858585"/>
      </g>
      <g id="Grupo_601" data-name="Grupo 601">
        <path id="Trazado_4444" data-name="Trazado 4444" d="M5482.05,1177.832l.425-.032.884,3.388-.425.033Z" fill="#858585"/>
      </g>
      <g id="Grupo_607" data-name="Grupo 607">
        <g id="Grupo_602" data-name="Grupo 602">
          <path id="Trazado_4445" data-name="Trazado 4445" d="M5474.724,1181.385a1.767,1.767,0,0,1-.021-.847l2.31.69Z" fill="#afc5e7"/>
        </g>
        <g id="Grupo_603" data-name="Grupo 603">
          <path id="Trazado_4446" data-name="Trazado 4446" d="M5474.7,1180.538a1.614,1.614,0,0,1,.294-.631,1.746,1.746,0,0,1,.52-.447l1.5,1.768Z" fill="#d4dae0"/>
        </g>
        <g id="Grupo_604" data-name="Grupo 604">
          <path id="Trazado_4447" data-name="Trazado 4447" d="M5475.517,1179.46a2.089,2.089,0,0,1,.887-.262,2.718,2.718,0,0,1,1.715.472l-1.106,1.558Z" fill="#899aa7"/>
        </g>
        <g id="Grupo_605" data-name="Grupo 605">
          <path id="Trazado_4448" data-name="Trazado 4448" d="M5477.013,1181.228l1.106-1.558a2.451,2.451,0,0,1,1.019,1.378,1.678,1.678,0,0,1-.274,1.476Z" fill="#839cd0"/>
        </g>
        <g id="Grupo_606" data-name="Grupo 606">
          <path id="Trazado_4449" data-name="Trazado 4449" d="M5478.864,1182.524a1.921,1.921,0,0,1-1.407.711,2.726,2.726,0,0,1-1.714-.472,2.448,2.448,0,0,1-1.019-1.378l2.289-.157Z" fill="#1a5492"/>
        </g>
      </g>
      <g id="Grupo_625" data-name="Grupo 625">
        <g id="Grupo_608" data-name="Grupo 608">
          <path id="Trazado_4450" data-name="Trazado 4450" d="M5485.217,1183.322l-.226-.862-2.472.189.224.861Z" fill="#569f98"/>
        </g>
        <g id="Grupo_609" data-name="Grupo 609">
          <path id="Trazado_4451" data-name="Trazado 4451" d="M5485.554,1184.614l-.224-.862-1.531.117.225.861Z" fill="#c52170"/>
        </g>
        <g id="Grupo_610" data-name="Grupo 610">
          <path id="Trazado_4452" data-name="Trazado 4452" d="M5485.891,1185.906l-.224-.861-2.708.207.225.86Z" fill="#59287f"/>
        </g>
        <g id="Grupo_611" data-name="Grupo 611">
          <path id="Trazado_4453" data-name="Trazado 4453" d="M5486.229,1187.2l-.225-.862-1.728.132.225.862Z" fill="#4d8b3f"/>
        </g>
        <g id="Grupo_612" data-name="Grupo 612">
          <path id="Trazado_4454" data-name="Trazado 4454" d="M5481.967,1188.378l-1.693-6.486,4.644-.354,1.692,6.486Zm-1.383-6.265,1.568,6.006,4.148-.316-1.567-6.006Z" fill="#858585"/>
        </g>
        <g id="Grupo_616" data-name="Grupo 616">
          <g id="Grupo_613" data-name="Grupo 613">
            <path id="Trazado_4455" data-name="Trazado 4455" d="M5483.075,1188.176l-.031-.118.059-.015.031.118Z" fill="#858585"/>
          </g>
          <g id="Grupo_614" data-name="Grupo 614">
            <path id="Trazado_4456" data-name="Trazado 4456" d="M5482.982,1187.817l-.063-.24.059-.016.063.241Zm-.126-.48-.062-.241.059-.015.062.24Zm-.125-.481-.063-.24.059-.016.063.24Zm-.125-.481-.063-.24.059-.016.063.241Zm-.126-.481-.062-.24.059-.015.062.24Zm-.125-.48-.063-.241.059-.015.063.24Zm-.125-.481-.063-.24.059-.016.063.241Zm-.126-.481-.063-.24.059-.015.063.24Zm-.125-.481-.063-.24.059-.015.063.24Zm-.125-.48-.063-.241.059-.015.063.241Zm-.126-.481-.063-.24.059-.016.063.241Zm-.125-.481-.063-.24.059-.015.063.24Z" fill="#858585"/>
          </g>
          <g id="Grupo_615" data-name="Grupo 615">
            <rect id="Rectángulo_962" data-name="Rectángulo 962" width="0.061" height="0.122" transform="matrix(0.968, -0.253, 0.253, 0.968, 5481.447, 1181.93)" fill="#858585"/>
          </g>
        </g>
        <g id="Grupo_620" data-name="Grupo 620">
          <g id="Grupo_617" data-name="Grupo 617">
            <path id="Trazado_4457" data-name="Trazado 4457" d="M5484.26,1188.086l-.031-.118.059-.015.031.118Z" fill="#858585"/>
          </g>
          <g id="Grupo_618" data-name="Grupo 618">
            <path id="Trazado_4458" data-name="Trazado 4458" d="M5484.166,1187.727l-.063-.24.059-.016.063.241Zm-.125-.481-.063-.24.059-.015.063.24Zm-.126-.48-.062-.241.058-.015.063.24Zm-.125-.481-.063-.24.059-.016.063.241Zm-.125-.481-.063-.24.059-.015.063.24Zm-.126-.48-.063-.24.059-.016.063.24Zm-.125-.481-.063-.24.059-.016.063.241Zm-.126-.481-.062-.24.059-.015.062.24Zm-.125-.48-.063-.241.059-.015.063.24Zm-.126-.481-.062-.24.059-.016.062.241Zm-.125-.481-.062-.24.059-.015.062.24Zm-.125-.48-.063-.241.059-.015.063.24Z" fill="#858585"/>
          </g>
          <g id="Grupo_619" data-name="Grupo 619">
            <path id="Trazado_4459" data-name="Trazado 4459" d="M5482.661,1181.959l-.031-.118.059-.015.031.118Z" fill="#858585"/>
          </g>
        </g>
        <g id="Grupo_624" data-name="Grupo 624">
          <g id="Grupo_621" data-name="Grupo 621">
            <path id="Trazado_4460" data-name="Trazado 4460" d="M5485.444,1188l-.031-.118.059-.015.031.118Z" fill="#858585"/>
          </g>
          <g id="Grupo_622" data-name="Grupo 622">
            <path id="Trazado_4461" data-name="Trazado 4461" d="M5485.35,1187.637l-.062-.241.059-.015.062.241Zm-.125-.481-.063-.24.059-.015.063.24Zm-.125-.481-.063-.24.059-.015.063.24Zm-.126-.48-.062-.241.059-.015.062.24Zm-.125-.481-.063-.24.059-.016.063.241Zm-.126-.48-.062-.241.059-.015.062.24Zm-.125-.481-.063-.24.059-.016.063.24Zm-.125-.481-.063-.24.059-.016.063.241Zm-.126-.481-.063-.24.059-.015.063.24Zm-.125-.48-.063-.241.059-.015.063.24Zm-.126-.481-.062-.24.059-.016.062.241Zm-.125-.481-.063-.24.059-.015.063.24Z" fill="#858585"/>
          </g>
          <g id="Grupo_623" data-name="Grupo 623">
            <path id="Trazado_4462" data-name="Trazado 4462" d="M5483.846,1181.868l-.031-.118.059-.015.031.118Z" fill="#858585"/>
          </g>
        </g>
      </g>
    </g>
    <g id="Grupo_628" data-name="Grupo 628">
      <g id="Grupo_627" data-name="Grupo 627">
        <path id="Trazado_4463" data-name="Trazado 4463" d="M5503.042,1168.7l-1.488,1.389a5.876,5.876,0,0,1-1.068,4.364l.577,4.228a1.409,1.409,0,0,1-1.166,1.616l-.557.091a1.4,1.4,0,0,1-1.613-1.164l-.215-2.218c-2.615,1.737-5.505,3.773-8.548-.1-3.228-4.113-.24-6.356,2.112-8.517a16.532,16.532,0,0,1,1.512-1.229,6.4,6.4,0,0,1,4.563-1.186l1.541-1.437Z" fill="#f8e8c9"/>
      </g>
      <rect id="Rectángulo_963" data-name="Rectángulo 963" width="6.465" height="1.166" transform="matrix(0.685, -0.728, 0.728, 0.685, 5490.977, 1178.082)" fill="#eecb8f"/>
      <rect id="Rectángulo_964" data-name="Rectángulo 964" width="6.778" height="1.167" transform="matrix(0.709, -0.705, 0.705, 0.709, 5489.013, 1176.861)" fill="#eecb8f"/>
      <rect id="Rectángulo_965" data-name="Rectángulo 965" width="7.063" height="1.166" transform="matrix(0.771, -0.637, 0.637, 0.771, 5487.404, 1174.189)" fill="#eecb8f"/>
    </g>
    <path id="Trazado_4464" data-name="Trazado 4464" d="M5501.194,1159.4l7.127-3.912,5.481-1.337-4.145,11.632-2.659.7-3.936,5.287-7.17-5.81Z" fill="#6f6e6e"/>
    <path id="Trazado_4465" data-name="Trazado 4465" d="M5510.738,1177.945l-.551-.885,13.076-8.134-.691-2.913,3.467-.452,3.021-6.375.942.446-3.264,6.889-2.884.376.6,2.518Z" fill="#585857"/>
    <path id="Trazado_4466" data-name="Trazado 4466" d="M5509.737,1175.956l-1.034-.129,1.983-15.863,3.6-.483-.534-2.259,3.073-3,.729.746-2.651,2.588.663,2.8-3.947.529Z" fill="#585857"/>
    <g id="Grupo_630" data-name="Grupo 630">
      <g id="Grupo_629" data-name="Grupo 629">
        <path id="Trazado_4467" data-name="Trazado 4467" d="M5503.736,1190.053l-1.977-.483a5.875,5.875,0,0,0-3.065-3.286l-1.564-3.97a1.407,1.407,0,0,0-1.806-.84l-.53.193a1.4,1.4,0,0,0-.838,1.8l.9,2.04c-3.13-.238-6.647-.6-7.407,4.268-.806,5.165,2.9,5.662,6.005,6.4a16.624,16.624,0,0,0,1.921.333,6.4,6.4,0,0,0,4.56-1.2l2.046.5Z" fill="#f8e8c9"/>
      </g>
      <rect id="Rectángulo_966" data-name="Rectángulo 966" width="1.166" height="6.464" transform="translate(5488.625 1187.769) rotate(-72.524)" fill="#eecb8f"/>
      <rect id="Rectángulo_967" data-name="Rectángulo 967" width="1.166" height="6.778" transform="translate(5487.509 1189.793) rotate(-74.451)" fill="#eecb8f"/>
      <rect id="Rectángulo_968" data-name="Rectángulo 968" width="1.166" height="7.063" transform="matrix(0.179, -0.984, 0.984, 0.179, 5487.412, 1192.911)" fill="#eecb8f"/>
    </g>
    <path id="Trazado_4468" data-name="Trazado 4468" d="M5525.695,1172.878l-7.577,16.728-15.35-1.082-1.771,9.052,20.958.689,11.166-21.708Z" fill="#6f6e6e"/>
    <path id="Trazado_4469" data-name="Trazado 4469" d="M5522.268,1198.8l-11.531-.379.034-1.042,10.873.357,11.015-21.415.927.477Z" fill="#585857"/>
    <path id="Trazado_4470" data-name="Trazado 4470" d="M5518.443,1190.151l-11.428-.806.074-1.04,10.7.755,7.426-16.4.95.43Z" fill="#585857"/>
    <path id="Trazado_4471" data-name="Trazado 4471" d="M5262.441,1075.218l-1.423-.924-3.831.843-2.339,2.306-1.931.278.348,1.239,4.66,4.176,7.4.7Z" fill="#f5f5f5"/>
    <path id="Trazado_4472" data-name="Trazado 4472" d="M5261.252,1077.6l-.6-2.992-2.079.2-1.986.562-1.742,2.077,2.4,1.509.673,4.184,5.481,4.91,5.011,4.5-.271-1.056-.008-.037-1.73-5.168-.666-1.99Z" fill="#2e435a"/>
    <g id="Grupo_631" data-name="Grupo 631">
      <path id="Trazado_4473" data-name="Trazado 4473" d="M5258.593,1074.858l-8.039-3.554-1.278,1.524-.191.778,6.281,7.308,1.8-5.548Z" fill="#f5f5f5"/>
      <path id="Trazado_4474" data-name="Trazado 4474" d="M5259.96,1070.245l-.03.048-1.336,4.565,1.738.118,2.578,1.611Z" fill="#f5f5f5"/>
    </g>
    <path id="Trazado_4475" data-name="Trazado 4475" d="M5252.294,1068.464a23.365,23.365,0,0,1-2.485-.111l.952,3.089,7.832,3.416,1.337-4.565-.8-2.6c-.253.061-.507.12-.77.174A32.237,32.237,0,0,1,5252.294,1068.464Z" fill="#f1d5b7"/>
    <path id="Trazado_4476" data-name="Trazado 4476" d="M5272.842,1055.166l-2.556-6.723a43.711,43.711,0,0,0-.305-4.743c-.448-4.187-.024-7.491-3.284-10.738a16.56,16.56,0,0,0-12.181-4.587c-4.4.2-9.649,2.761-13.052,5.516-3.748,3.033-6.5,7.448-6.572,12.371-.028,1.866.816,3.146,1.3,4.891.534,1.911.78,3.9,1.343,5.81,1.107,3.76,2.916,7.828,6.475,9.623,2.958,1.492,4.48,2.429,7.2,2.62a15.523,15.523,0,0,0,4.524,0l6.194-.923a10.457,10.457,0,0,0,6.378-5.547c1.041-1.991,1.023-4.011,1.072-6.05Z" fill="#f8e8c9"/>
    <path id="Trazado_4477" data-name="Trazado 4477" d="M5249.388,1050.972c-.358-1.926-4.475-3.594-5.556-1-.935,2.242-.051,4.358.885,6.4.967,2.108,2.789,2.53,1.8,5.863l-.714,5.486a32.107,32.107,0,0,1-6.447-4.336c-7.531-6.536-13.545-18.914-8.014-28.591a17.617,17.617,0,0,1,4.889-5.505c1.538-1.091,2.958-.885,4.83-.97,1.63-5.611,7.3-5.7,12.452-5.711,3.756-.005,8.4.474,11.259,3.2,1.177,1.125,2.233,3.194,3.494,4.959,1.335,1.867,2.9,3.394,5.079,3.1-4.16,5.07-11.639,2.959-17.5,3.289.226,3.512,1.479,10.173-3.647,10.516,0,0-1.34,6.073-.429,7.826Z" fill="#3f2d1f"/>
    <path id="Trazado_4478" data-name="Trazado 4478" d="M5266.029,1050.958c-.258,1.673-1.552,2.863-2.891,2.656s-2.215-1.729-1.957-3.4,1.552-2.862,2.891-2.656S5266.286,1049.285,5266.029,1050.958Z" fill="#fff"/>
    <path id="Trazado_4479" data-name="Trazado 4479" d="M5265.745,1049.913c-.155,1-.859,1.728-1.573,1.618s-1.168-1.012-1.013-2.017.859-1.728,1.573-1.618S5265.9,1048.908,5265.745,1049.913Z" fill="#222221"/>
    <path id="Trazado_4480" data-name="Trazado 4480" d="M5269.279,1080.324l-5.338-11.349-4.537-.284,9.012,23.86-18.484-19.069c.278-.789.734-2.372.734-2.372l-.276-.875-2.44,3.222-3.28,5.49c-.795,2.285-1.962,4.757-2.246,7.17a15.084,15.084,0,0,0,.426,3.526q.511,3.686,1.023,7.368,1,7.221,2,14.442c.39,2.808.665,4.55,2.486,6.72a69.994,69.994,0,0,0,5.885,6.609l16.907-13.881Z" fill="#584210"/>
    <g id="Grupo_632" data-name="Grupo 632">
      <path id="Trazado_4481" data-name="Trazado 4481" d="M5313.356,1088.562l-9.413-.633-16.553-1.111-5.2,20.833.6.049C5294.525,1103.608,5305.982,1097.266,5313.356,1088.562Z" fill="#858585"/>
      <path id="Trazado_4482" data-name="Trazado 4482" d="M5282.792,1107.7l18.24,1.469,7.381.6,5.434-21.17-.491-.032C5305.982,1097.266,5294.525,1103.608,5282.792,1107.7Z" fill="#9a9a9a"/>
      <path id="Trazado_4483" data-name="Trazado 4483" d="M5314,1089.974l-.149-1.379-5.434,21.169.462.488Z" fill="#585857"/>
      <path id="Trazado_4484" data-name="Trazado 4484" d="M5282.438,1108.106l-.225-.495,26.2,2.152.462.488Z" fill="#3e3e3d"/>
      <path id="Trazado_4485" data-name="Trazado 4485" d="M5306.56,1107.38l-20.487-1.532,4.279-16.667,20.144,1.681Z" fill="url(#linear-gradient-2)"/>
    </g>
    <g id="Grupo_669" data-name="Grupo 669">
      <g id="Grupo_633" data-name="Grupo 633">
        <path id="Trazado_4486" data-name="Trazado 4486" d="M5288.993,1103.831l3.333-12.776,15.307,1.167L5304.3,1105Z" fill="#fff"/>
      </g>
      <g id="Grupo_634" data-name="Grupo 634">
        <path id="Trazado_4487" data-name="Trazado 4487" d="M5301.994,1103.858l2.782-10.665,1.276.1-2.782,10.665Z" fill="#9a9a9a"/>
      </g>
      <g id="Grupo_635" data-name="Grupo 635">
        <path id="Trazado_4488" data-name="Trazado 4488" d="M5301.965,1100.174l-.425-.033-.885,3.388.426.033Z" fill="#858585"/>
      </g>
      <g id="Grupo_636" data-name="Grupo 636">
        <path id="Trazado_4489" data-name="Trazado 4489" d="M5301.3,1100.123l-.425-.032-.884,3.388.425.032Z" fill="#858585"/>
      </g>
      <g id="Grupo_637" data-name="Grupo 637">
        <path id="Trazado_4490" data-name="Trazado 4490" d="M5300.627,1100.072l-.425-.033-.884,3.389.426.032Z" fill="#858585"/>
      </g>
      <g id="Grupo_638" data-name="Grupo 638">
        <path id="Trazado_4491" data-name="Trazado 4491" d="M5299.96,1100.021l-.426-.033-.883,3.389.424.032Z" fill="#858585"/>
      </g>
      <g id="Grupo_639" data-name="Grupo 639">
        <path id="Trazado_4492" data-name="Trazado 4492" d="M5299.291,1099.97l-.425-.032-.884,3.389.426.032Z" fill="#858585"/>
      </g>
      <g id="Grupo_640" data-name="Grupo 640">
        <path id="Trazado_4493" data-name="Trazado 4493" d="M5298.367,1092.862l-.425-.033-.885,3.389.426.032Z" fill="#858585"/>
      </g>
      <g id="Grupo_641" data-name="Grupo 641">
        <path id="Trazado_4494" data-name="Trazado 4494" d="M5297.7,1092.811l-.425-.032-.884,3.388.425.032Z" fill="#858585"/>
      </g>
      <g id="Grupo_642" data-name="Grupo 642">
        <path id="Trazado_4495" data-name="Trazado 4495" d="M5297.031,1092.76l-.426-.033-.884,3.389.425.033Z" fill="#858585"/>
      </g>
      <g id="Grupo_643" data-name="Grupo 643">
        <path id="Trazado_4496" data-name="Trazado 4496" d="M5296.362,1092.709l-.425-.032-.884,3.389.424.032Z" fill="#858585"/>
      </g>
      <g id="Grupo_644" data-name="Grupo 644">
        <path id="Trazado_4497" data-name="Trazado 4497" d="M5295.694,1092.659l-.424-.032-.885,3.388.425.033Z" fill="#858585"/>
      </g>
      <g id="Grupo_650" data-name="Grupo 650">
        <g id="Grupo_645" data-name="Grupo 645">
          <path id="Trazado_4498" data-name="Trazado 4498" d="M5303.02,1096.211a1.767,1.767,0,0,0,.021-.847l-2.309.69Z" fill="#afc5e7"/>
        </g>
        <g id="Grupo_646" data-name="Grupo 646">
          <path id="Trazado_4499" data-name="Trazado 4499" d="M5303.041,1095.364a1.585,1.585,0,0,0-.294-.631,1.75,1.75,0,0,0-.52-.447l-1.5,1.768Z" fill="#d4dae0"/>
        </g>
        <g id="Grupo_647" data-name="Grupo 647">
          <path id="Trazado_4500" data-name="Trazado 4500" d="M5302.227,1094.286a2.084,2.084,0,0,0-.887-.262,2.724,2.724,0,0,0-1.715.472l1.107,1.558Z" fill="#899aa7"/>
        </g>
        <g id="Grupo_648" data-name="Grupo 648">
          <path id="Trazado_4501" data-name="Trazado 4501" d="M5300.732,1096.054l-1.107-1.558a2.441,2.441,0,0,0-1.018,1.378,1.678,1.678,0,0,0,.274,1.477Z" fill="#839cd0"/>
        </g>
        <g id="Grupo_649" data-name="Grupo 649">
          <path id="Trazado_4502" data-name="Trazado 4502" d="M5298.881,1097.351a1.914,1.914,0,0,0,1.406.71,2.726,2.726,0,0,0,1.715-.473,2.438,2.438,0,0,0,1.018-1.377l-2.288-.157Z" fill="#1a5492"/>
        </g>
      </g>
      <g id="Grupo_668" data-name="Grupo 668">
        <g id="Grupo_651" data-name="Grupo 651">
          <path id="Trazado_4503" data-name="Trazado 4503" d="M5292.527,1098.148l.225-.862,2.472.189-.224.861Z" fill="#569f98"/>
        </g>
        <g id="Grupo_652" data-name="Grupo 652">
          <path id="Trazado_4504" data-name="Trazado 4504" d="M5292.19,1099.44l.224-.861,1.531.116-.225.862Z" fill="#c52170"/>
        </g>
        <g id="Grupo_653" data-name="Grupo 653">
          <path id="Trazado_4505" data-name="Trazado 4505" d="M5291.854,1100.733l.224-.861,2.708.206-.225.861Z" fill="#59287f"/>
        </g>
        <g id="Grupo_654" data-name="Grupo 654">
          <path id="Trazado_4506" data-name="Trazado 4506" d="M5291.516,1102.025l.225-.862,1.728.132-.225.862Z" fill="#4d8b3f"/>
        </g>
        <g id="Grupo_655" data-name="Grupo 655">
          <path id="Trazado_4507" data-name="Trazado 4507" d="M5295.777,1103.2l-4.642-.354,1.692-6.486,4.643.354Zm-4.332-.575,4.147.316,1.568-6.006-4.148-.315Z" fill="#858585"/>
        </g>
        <g id="Grupo_659" data-name="Grupo 659">
          <g id="Grupo_656" data-name="Grupo 656">
            <line id="Línea_33" data-name="Línea 33" y1="0.118" x2="0.031" transform="translate(5294.639 1102.876)" fill="none"/>
          </g>
          <g id="Grupo_657" data-name="Grupo 657">
            <path id="Trazado_4508" data-name="Trazado 4508" d="M5294.762,1102.644l-.059-.016.063-.24.059.015Zm.126-.481-.059-.015.062-.241.059.016Zm.125-.481-.059-.015.063-.24.059.015Zm.125-.481-.059-.015.063-.24.059.015Zm.126-.48-.059-.016.063-.24.059.015Zm.125-.481-.059-.015.063-.241.059.016Zm.125-.481-.059-.015.063-.24.059.015Zm.126-.48-.059-.016.063-.24.059.015Zm.125-.481-.059-.015.063-.241.059.016Zm.126-.481-.059-.015.062-.24.059.015Zm.125-.48-.059-.016.063-.24.059.015Zm.126-.481-.059-.015.062-.241.059.016Z" fill="#858585"/>
          </g>
          <g id="Grupo_658" data-name="Grupo 658">
            <line id="Línea_34" data-name="Línea 34" y1="0.118" x2="0.031" transform="translate(5296.237 1096.749)" fill="none"/>
          </g>
        </g>
        <g id="Grupo_663" data-name="Grupo 663">
          <g id="Grupo_660" data-name="Grupo 660">
            <line id="Línea_35" data-name="Línea 35" y1="0.118" x2="0.031" transform="translate(5293.456 1102.786)" fill="none"/>
          </g>
          <g id="Grupo_661" data-name="Grupo 661">
            <path id="Trazado_4509" data-name="Trazado 4509" d="M5293.578,1102.553l-.059-.015.063-.24.059.015Zm.126-.48-.059-.016.063-.24.058.015Zm.125-.481-.059-.015.063-.241.059.016Zm.125-.481-.059-.015.063-.24.059.015Zm.126-.48-.059-.016.063-.24.059.015Zm.125-.481-.059-.015.063-.241.059.016Zm.126-.481-.059-.015.062-.24.059.015Zm.125-.48-.059-.016.063-.24.059.015Zm.126-.481-.059-.015.062-.241.059.016Zm.125-.481-.059-.015.062-.24.059.015Zm.125-.48-.059-.016.063-.24.059.015Zm.126-.481-.059-.015.062-.241.059.016Z" fill="#858585"/>
          </g>
          <g id="Grupo_662" data-name="Grupo 662">
            <line id="Línea_36" data-name="Línea 36" y1="0.118" x2="0.031" transform="translate(5295.053 1096.659)" fill="none"/>
          </g>
        </g>
        <g id="Grupo_667" data-name="Grupo 667">
          <g id="Grupo_664" data-name="Grupo 664">
            <line id="Línea_37" data-name="Línea 37" y1="0.118" x2="0.031" transform="translate(5292.271 1102.696)" fill="none"/>
          </g>
          <g id="Grupo_665" data-name="Grupo 665">
            <path id="Trazado_4510" data-name="Trazado 4510" d="M5292.394,1102.463l-.059-.015.063-.24.059.015Zm.125-.48-.059-.016.063-.24.059.015Zm.126-.481-.059-.016.062-.24.059.016Zm.125-.481-.059-.015.063-.241.059.016Zm.126-.48-.059-.016.062-.24.059.015Zm.125-.481-.059-.015.063-.241.059.015Zm.125-.481-.059-.015.063-.24.059.015Zm.126-.481-.059-.015.063-.24.059.015Zm.125-.48-.059-.016.063-.24.059.015Zm.125-.481-.059-.015.063-.241.059.016Zm.126-.481-.059-.015.063-.24.059.015Zm.125-.48-.059-.016.063-.24.059.015Z" fill="#858585"/>
          </g>
          <g id="Grupo_666" data-name="Grupo 666">
            <line id="Línea_38" data-name="Línea 38" y1="0.118" x2="0.031" transform="translate(5293.869 1096.569)" fill="none"/>
          </g>
        </g>
      </g>
    </g>
    <g id="Grupo_670" data-name="Grupo 670">
      <path id="Trazado_4511" data-name="Trazado 4511" d="M5460.38,1091.562l-10.049-.477-17.67-.839-.964,19.8.647.039C5443.811,1106.054,5454.5,1099.9,5460.38,1091.562Z" fill="#858585"/>
      <path id="Trazado_4512" data-name="Trazado 4512" d="M5432.344,1110.082l19.525,1.155,7.9.467,1.135-20.118-.524-.024C5454.5,1099.9,5443.811,1106.054,5432.344,1110.082Z" fill="#9a9a9a"/>
      <path id="Trazado_4513" data-name="Trazado 4513" d="M5461.36,1092.89l-.456-1.3-1.135,20.118.592.456Z" fill="#585857"/>
      <path id="Trazado_4514" data-name="Trazado 4514" d="M5432.059,1110.471l-.344-.466,28.055,1.7.592.456Z" fill="#3e3e3d"/>
      <path id="Trazado_4515" data-name="Trazado 4515" d="M5457.3,1109.472l-21.9-1.186.895-15.84,21.575,1.331Z" fill="url(#linear-gradient-3)"/>
    </g>
    <g id="Grupo_707" data-name="Grupo 707">
      <g id="Grupo_671" data-name="Grupo 671">
        <path id="Trazado_4516" data-name="Trazado 4516" d="M5455.146,1095.1l-.741,12.142-16.37-.907.741-12.142Z" fill="#fff"/>
      </g>
      <g id="Grupo_672" data-name="Grupo 672">
        <path id="Trazado_4517" data-name="Trazado 4517" d="M5441.45,1095.244l-.619,10.135-1.364-.075.618-10.136Z" fill="#9a9a9a"/>
      </g>
      <g id="Grupo_673" data-name="Grupo 673">
        <path id="Trazado_4518" data-name="Trazado 4518" d="M5442.279,1098.732l.455.025.2-3.22-.456-.025Z" fill="#858585"/>
      </g>
      <g id="Grupo_674" data-name="Grupo 674">
        <path id="Trazado_4519" data-name="Trazado 4519" d="M5442.994,1098.772l.455.025.2-3.219-.455-.025Z" fill="#858585"/>
      </g>
      <g id="Grupo_675" data-name="Grupo 675">
        <path id="Trazado_4520" data-name="Trazado 4520" d="M5443.709,1098.811l.455.025.2-3.22-.455-.024Z" fill="#858585"/>
      </g>
      <g id="Grupo_676" data-name="Grupo 676">
        <path id="Trazado_4521" data-name="Trazado 4521" d="M5444.423,1098.851l.455.025.2-3.22-.454-.025Z" fill="#858585"/>
      </g>
      <g id="Grupo_677" data-name="Grupo 677">
        <path id="Trazado_4522" data-name="Trazado 4522" d="M5445.138,1098.891l.455.025.2-3.221-.455-.025Z" fill="#858585"/>
      </g>
      <g id="Grupo_678" data-name="Grupo 678">
        <path id="Trazado_4523" data-name="Trazado 4523" d="M5447.651,1105.61l.455.025.2-3.221-.455-.025Z" fill="#858585"/>
      </g>
      <g id="Grupo_679" data-name="Grupo 679">
        <path id="Trazado_4524" data-name="Trazado 4524" d="M5448.366,1105.65l.455.025.2-3.22-.455-.025Z" fill="#858585"/>
      </g>
      <g id="Grupo_680" data-name="Grupo 680">
        <path id="Trazado_4525" data-name="Trazado 4525" d="M5449.081,1105.69l.455.025.2-3.22-.454-.026Z" fill="#858585"/>
      </g>
      <g id="Grupo_681" data-name="Grupo 681">
        <path id="Trazado_4526" data-name="Trazado 4526" d="M5449.8,1105.729l.455.025.2-3.221-.454-.025Z" fill="#858585"/>
      </g>
      <g id="Grupo_682" data-name="Grupo 682">
        <path id="Trazado_4527" data-name="Trazado 4527" d="M5450.51,1105.768l.454.025.2-3.22-.455-.025Z" fill="#858585"/>
      </g>
      <g id="Grupo_688" data-name="Grupo 688">
        <g id="Grupo_683" data-name="Grupo 683">
          <path id="Trazado_4528" data-name="Trazado 4528" d="M5442.026,1102.5a1.612,1.612,0,0,0,.161.8l2.283-.684Z" fill="#afc5e7"/>
        </g>
        <g id="Grupo_684" data-name="Grupo 684">
          <path id="Trazado_4529" data-name="Trazado 4529" d="M5442.187,1103.3a1.966,1.966,0,0,0,.447.593,2.449,2.449,0,0,0,.644.416l1.192-1.693Z" fill="#d4dae0"/>
        </g>
        <g id="Grupo_685" data-name="Grupo 685">
          <path id="Trazado_4530" data-name="Trazado 4530" d="M5443.278,1104.311a2.782,2.782,0,0,0,.991.237,2.659,2.659,0,0,0,1.7-.469l-1.5-1.461Z" fill="#899aa7"/>
        </g>
        <g id="Grupo_686" data-name="Grupo 686">
          <path id="Trazado_4531" data-name="Trazado 4531" d="M5444.47,1102.618l1.5,1.461a1.771,1.771,0,0,0,.774-1.318,1.749,1.749,0,0,0-.609-1.4Z" fill="#839cd0"/>
        </g>
        <g id="Grupo_687" data-name="Grupo 687">
          <path id="Trazado_4532" data-name="Trazado 4532" d="M5446.138,1101.366a2.636,2.636,0,0,0-1.634-.655,2.673,2.673,0,0,0-1.7.47,1.766,1.766,0,0,0-.775,1.318l2.444.119Z" fill="#1a5492"/>
        </g>
      </g>
      <g id="Grupo_706" data-name="Grupo 706">
        <g id="Grupo_689" data-name="Grupo 689">
          <path id="Trazado_4533" data-name="Trazado 4533" d="M5452.655,1100.528l-.05.819-2.644-.147.049-.818Z" fill="#569f98"/>
        </g>
        <g id="Grupo_690" data-name="Grupo 690">
          <path id="Trazado_4534" data-name="Trazado 4534" d="M5452.73,1099.3l-.05.819-1.637-.091.05-.819Z" fill="#c52170"/>
        </g>
        <g id="Grupo_691" data-name="Grupo 691">
          <path id="Trazado_4535" data-name="Trazado 4535" d="M5452.8,1098.072l-.049.818-2.9-.161.05-.818Z" fill="#59287f"/>
        </g>
        <g id="Grupo_692" data-name="Grupo 692">
          <path id="Trazado_4536" data-name="Trazado 4536" d="M5452.88,1096.844l-.05.819-1.847-.1.05-.819Z" fill="#4d8b3f"/>
        </g>
        <g id="Grupo_693" data-name="Grupo 693">
          <path id="Trazado_4537" data-name="Trazado 4537" d="M5452.716,1102.229l-4.946-.274.378-6.179,4.945.273Zm-4.687-.5,4.457.247.348-5.693-4.456-.246Z" fill="#858585"/>
        </g>
        <g id="Grupo_697" data-name="Grupo 697">
          <g id="Grupo_694" data-name="Grupo 694">
            <line id="Línea_39" data-name="Línea 39" x1="0.007" y2="0.122" transform="translate(5449.374 1095.966)" fill="none"/>
          </g>
          <g id="Grupo_695" data-name="Grupo 695">
            <path id="Trazado_4538" data-name="Trazado 4538" d="M5449.072,1101.535l-.061,0,.015-.248.061,0Zm.03-.495-.061,0,.015-.248.061,0Zm.03-.495-.061,0,.016-.248.06,0Zm.031-.495-.061,0,.015-.248.061,0Zm.03-.495-.061,0,.015-.248.061,0Zm.03-.495-.061,0,.015-.247.061,0Zm.03-.5-.061,0,.015-.247.061,0Zm.03-.495-.06,0,.015-.247.061,0Zm.031-.495-.061,0,.015-.247.061,0Zm.03-.495-.061,0,.015-.247.061,0Zm.03-.495-.061,0,.015-.247.061,0Z" fill="#858585"/>
          </g>
          <g id="Grupo_696" data-name="Grupo 696">
            <line id="Línea_40" data-name="Línea 40" x1="0.007" y2="0.122" transform="translate(5449.019 1101.78)" fill="none"/>
          </g>
        </g>
        <g id="Grupo_701" data-name="Grupo 701">
          <g id="Grupo_698" data-name="Grupo 698">
            <line id="Línea_41" data-name="Línea 41" x1="0.007" y2="0.122" transform="translate(5450.64 1096.036)" fill="none"/>
          </g>
          <g id="Grupo_699" data-name="Grupo 699">
            <path id="Trazado_4539" data-name="Trazado 4539" d="M5450.338,1101.6l-.061,0,.016-.247.06,0Zm.031-.495-.061,0,.015-.247.061,0Zm.03-.495-.061,0,.015-.248.061,0Zm.03-.495-.061,0,.015-.248.061,0Zm.03-.494-.061,0,.015-.248.061,0Zm.03-.495-.06,0,.015-.248.06,0Zm.031-.495-.061,0,.015-.248.061,0Zm.03-.495-.061,0,.015-.247.061,0Zm.03-.495-.061,0,.015-.247.061,0Zm.03-.495-.061,0,.015-.247.061,0Zm.03-.495-.06,0,.015-.247.061,0Z" fill="#858585"/>
          </g>
          <g id="Grupo_700" data-name="Grupo 700">
            <line id="Línea_42" data-name="Línea 42" x1="0.007" y2="0.122" transform="translate(5450.286 1101.85)" fill="none"/>
          </g>
        </g>
        <g id="Grupo_705" data-name="Grupo 705">
          <g id="Grupo_702" data-name="Grupo 702">
            <line id="Línea_43" data-name="Línea 43" x1="0.007" y2="0.122" transform="translate(5451.907 1096.107)" fill="none"/>
          </g>
          <g id="Grupo_703" data-name="Grupo 703">
            <path id="Trazado_4540" data-name="Trazado 4540" d="M5451.6,1101.674l-.061,0,.015-.247.061,0Zm.03-.495-.061,0,.015-.247.061,0Zm.03-.495-.06,0,.015-.248.061,0Zm.031-.495-.061,0,.015-.248.061,0Zm.03-.494-.061,0,.015-.248.061,0Zm.03-.495-.061,0,.015-.248.061,0Zm.03-.495-.061,0,.015-.248.061,0Zm.03-.495-.06,0,.015-.247.061,0Zm.031-.495-.061,0,.015-.247.061,0Zm.03-.495-.061,0,.015-.247.061,0Zm.03-.495-.061,0,.015-.247.061,0Z" fill="#858585"/>
          </g>
          <g id="Grupo_704" data-name="Grupo 704">
            <line id="Línea_44" data-name="Línea 44" x1="0.007" y2="0.122" transform="translate(5451.552 1101.92)" fill="none"/>
          </g>
        </g>
      </g>
    </g>
    <path id="Trazado_4541" data-name="Trazado 4541" d="M5274.641,1076.76l-8.407-7.261-2.292-.524,4.145,11.631,3.5,4.561,8.165,2.061.3-9.281Z" fill="#584210"/>
    <path id="Trazado_4542" data-name="Trazado 4542" d="M5267.057,1092.691,5253.4,1084.2l.606-2.554-2.941-.384-3.366-7.349.775-.355,3.169,6.92,3.411.445-.683,2.877,13.133,8.169Z" fill="#8b7358"/>
    <path id="Trazado_4543" data-name="Trazado 4543" d="M5268.1,1090.77l-1.892-15.139-3.915-.525.65-2.752-3.184-3.053.59-.615,3.536,3.391-.546,2.31,3.633.487,1.974,15.791Z" fill="#8b7358"/>
    <g id="Grupo_709" data-name="Grupo 709">
      <g id="Grupo_708" data-name="Grupo 708">
        <path id="Trazado_4544" data-name="Trazado 4544" d="M5272.842,1109.309l2.02.244a5.884,5.884,0,0,1,4.027-1.993l2.863-3.164a1.408,1.408,0,0,1,1.987-.149l.429.367a1.406,1.406,0,0,1,.148,1.984l-1.559,1.593c3.014.882,6.432,1.783,5.427,6.6-1.067,5.119-4.708,4.278-7.876,3.869a16.511,16.511,0,0,1-1.914-.365,6.4,6.4,0,0,1-3.846-2.727l-2.091-.253Z" fill="#f8e8c9"/>
      </g>
      <rect id="Rectángulo_969" data-name="Rectángulo 969" width="1.166" height="6.464" transform="translate(5281.333 1112.142) rotate(-86.833)" fill="#eecb8f"/>
      <rect id="Rectángulo_970" data-name="Rectángulo 970" width="1.166" height="6.778" transform="translate(5281.367 1114.185) rotate(-84.899)" fill="#eecb8f"/>
      <rect id="Rectángulo_971" data-name="Rectángulo 971" width="1.166" height="7.063" transform="translate(5280.162 1116.472) rotate(-79.661)" fill="#eecb8f"/>
    </g>
    <path id="Trazado_4545" data-name="Trazado 4545" d="M5259.626,1104.432l-7.577-16.728-7.426,3.678,11.166,21.708,16.964,4.223,1.535-9.1Z" fill="#584210"/>
    <path id="Trazado_4546" data-name="Trazado 4546" d="M5518.18,1152.028l11.426-2.708-2.622,7.3-7.833,3.415-1.4-4.674Z" fill="#f1d5b7"/>
    <path id="Trazado_4547" data-name="Trazado 4547" d="M5540.715,1127.628c-.5-5.3-3.854-9.818-8.157-12.762-3.906-2.673-9.788-4.977-14.544-4.81a17.9,17.9,0,0,0-12.729,6c-3.231,3.782-2.488,7.306-2.607,11.857a63.445,63.445,0,0,0,.237,7.995l-2.324,4.61,3.394,1.177c1.281,4.458,3.708,8.493,8.045,10.67,7.927,3.979,17.835-1.46,19.437-3.046,3.064-3.031,6.457-5.781,7.324-9.929.441-2.109.533-4.272.943-6.378C5540.108,1131.089,5540.907,1129.637,5540.715,1127.628Z" fill="#f8e8c9"/>
    <path id="Trazado_4548" data-name="Trazado 4548" d="M5530.452,1149.912l-.876-4.066c-1.358-3.506.569-4.118,1.428-6.474.831-2.282,1.6-4.638.4-6.973-1.39-2.7-4.619-.185-5.9,1.564-1.71,2.332.03,7.951-2.136,6.657-.884-.529-1.323-5.065-1.607-6.026a18.792,18.792,0,0,0-1.537-3.919c-2.979-5.343-9.114-4.612-13.294-8.615-1.384-1.327-1.615-3.512-2.407-5.078a21.339,21.339,0,0,0-1.857,5.862c-1.118-.595-1.752-2.049-1.989-3.69-.339-2.358.142-5.1,1.191-6.25,3.133-3.421,8.023-4.992,12.32-6.282,6.281-1.886,16.9-2.949,22,2.25.691.705,1.383,1.475,2.041,2.3,5.255,6.566,9.339,13.985,7.151,22.856C5545.374,1134.024,5541.285,1148.134,5530.452,1149.912Z" fill="#452e10"/>
    <path id="Trazado_4549" data-name="Trazado 4549" d="M5507.567,1135.392c.423,1.78,1.921,2.95,3.346,2.611s2.237-2.056,1.814-3.837-1.921-2.95-3.346-2.612S5507.144,1133.611,5507.567,1135.392Z" fill="#fff"/>
    <path id="Trazado_4550" data-name="Trazado 4550" d="M5507.674,1135.457c.253,1.069,1.075,1.788,1.835,1.608s1.17-1.193.916-2.261-1.075-1.789-1.835-1.608S5507.42,1134.388,5507.674,1135.457Z" fill="#222221"/>
    <path id="Trazado_4551" data-name="Trazado 4551" d="M5509.45,1148.628a6.044,6.044,0,0,1-2.207-.452l.365-.976a5.357,5.357,0,0,0,3.731.108,7.926,7.926,0,0,0,3.969-2.24l.765.708a8.983,8.983,0,0,1-4.493,2.546A9.252,9.252,0,0,1,5509.45,1148.628Z" fill="#eecb8f"/>
    <path id="Trazado_4552" data-name="Trazado 4552" d="M5497.889,1076.869l-2-1.408-.866-.777.132-1.854c-4.768,2.516-7.814-.818-7.814-.818l-1.325,2.142-4.847,23.241Z" fill="#a86fa7"/>
    <path id="Trazado_4553" data-name="Trazado 4553" d="M5475.427,1114.452l21.9,13.287c4.8-4.449-3.394-17.937-3.394-17.937l2.848-5.646q2.314-4.593,4.631-9.184c.621-1.232,1.237-2.467,1.864-3.7.922-1.807.553-3.279-.1-5.144q-.633-1.816-1.264-3.633l-3.281-5.49-3.627-2.321a5.127,5.127,0,0,1,1.488,1.7l-14.925,19.967,5.15-23.783-4.077-.041-.951,2.354-3.652,9.032c-.555,1.373-1.118,2.744-1.666,4.12a5.333,5.333,0,0,0-.737,2.193,8.128,8.128,0,0,0,1.12,2.664l1.419,3.1-.484,6.787Z" fill="#a7acd5"/>
    <path id="Trazado_4554" data-name="Trazado 4554" d="M5474.443,1079.634l-13.6,3.876,3.5,6.937,11.854-3.819,2.305-2.47,4.144-11.632Z" fill="#a7acd5"/>
    <path id="Trazado_4555" data-name="Trazado 4555" d="M5482.437,1097.2a.36.36,0,0,1-.242-.626l10.1-9.154-.595-2.509a.354.354,0,0,1,.054-.287.36.36,0,0,1,.249-.153l2.981-.388,3.059-6.455a.359.359,0,1,1,.649.308l-3.142,6.631a.358.358,0,0,1-.278.2l-2.781.363.552,2.327a.358.358,0,0,1-.108.35l-10.258,9.3A.361.361,0,0,1,5482.437,1097.2Z" fill="#fff"/>
    <path id="Trazado_4556" data-name="Trazado 4556" d="M5481.194,1095.593h0a.358.358,0,0,1-.356-.362l.131-16.7a.359.359,0,0,1,.324-.355l2.031-.2-.5-2.131a.361.361,0,0,1,.1-.34l2.863-2.793a.359.359,0,1,1,.5.514l-2.718,2.652.552,2.334a.361.361,0,0,1-.315.44l-2.118.206-.129,16.376A.359.359,0,0,1,5481.194,1095.593Z" fill="#fff"/>
    <g id="Grupo_711" data-name="Grupo 711">
      <g id="Grupo_710" data-name="Grupo 710">
        <path id="Trazado_4557" data-name="Trazado 4557" d="M5472.574,1108.431l-1.976-.484a5.885,5.885,0,0,0-3.066-3.286l-1.563-3.97a1.409,1.409,0,0,0-1.807-.84l-.531.193a1.4,1.4,0,0,0-.837,1.8l.9,2.041c-3.13-.238-6.647-.6-7.407,4.267-.806,5.166,2.9,5.662,6,6.4a16.207,16.207,0,0,0,1.921.333,6.4,6.4,0,0,0,4.56-1.195l2.046.5Z" fill="#f8e8c9"/>
      </g>
      <rect id="Rectángulo_972" data-name="Rectángulo 972" width="1.166" height="6.464" transform="translate(5457.463 1106.146) rotate(-72.52)" fill="#eecb8f"/>
      <rect id="Rectángulo_973" data-name="Rectángulo 973" width="1.166" height="6.778" transform="translate(5456.347 1108.171) rotate(-74.451)" fill="#eecb8f"/>
      <rect id="Rectángulo_974" data-name="Rectángulo 974" width="1.166" height="7.063" transform="translate(5456.25 1111.288) rotate(-79.692)" fill="#eecb8f"/>
    </g>
    <path id="Trazado_4558" data-name="Trazado 4558" d="M5494.533,1091.256l-7.576,16.728-15.35-1.083-1.771,9.052,20.958.689,10.8-22.426Z" fill="#a7acd5"/>
    <path id="Trazado_4559" data-name="Trazado 4559" d="M5491.111,1117.174l-11.543-.379.034-1.042,10.875.357,2.873-5.762.933.465Z" fill="#fff"/>
    <path id="Trazado_4560" data-name="Trazado 4560" d="M5487.282,1108.529l-10.436-.736.073-1.04,9.712.685,7.427-16.4.95.43Z" fill="#fff"/>
    <path id="Trazado_4561" data-name="Trazado 4561" d="M5508.783,1048.442c-.427-4.482-3.26-8.3-6.9-10.794-3.3-2.261-8.279-4.21-12.3-4.069a15.141,15.141,0,0,0-10.766,5.075c-2.733,3.2-2.1,6.18-2.205,10.029-.044,1.7-.035,3.425.069,5.134l-1.835,5.528,2.871.995c1.084,3.771,3.136,7.184,6.805,9.025,6.705,3.366,15.085-1.235,16.44-2.576,2.591-2.564,5.461-4.89,6.195-8.4.373-1.783.451-3.613.8-5.394C5508.27,1051.369,5508.945,1050.141,5508.783,1048.442Z" fill="#f8e8c9"/>
    <path id="Trazado_4562" data-name="Trazado 4562" d="M5481.444,1045.12l.008-.005a6.37,6.37,0,0,0,1.312-1.124c1.652-1.9,2.494-4.467,3.655-6.528a19.7,19.7,0,0,0,1.579,7.265c1.572,3.254,4.213,5.621,5.433,9.089a12.386,12.386,0,0,1,.709,4.689c-.165,2.332-1.368,3.719-3.557,2.8.12,1.474,1.563,3.512,2.477,4.6,3.4,4.04,6.908,2.468,10.941.753,2.626-1.117,5.423-1.813,7.257-4.131a17.493,17.493,0,0,0,3.439-7.318,25.721,25.721,0,0,0-1.5-13.82c-1.708-4.117-3.474-8.143-7.5-10.524-4.9-2.9-10.844-4.438-16.058-1.7-4.773,2.507-10.338,2.85-13.85,7.4a6.133,6.133,0,0,0-1.35,4.1c-.012.589.705,6.977,1.309,6.826A19.459,19.459,0,0,0,5481.444,1045.12Z" fill="#7c6245"/>
    <path id="Trazado_4563" data-name="Trazado 4563" d="M5480.746,1055.009a2.3,2.3,0,1,0,1.534-3.246A2.572,2.572,0,0,0,5480.746,1055.009Z" fill="#fff"/>
    <path id="Trazado_4564" data-name="Trazado 4564" d="M5485.11,1053.973a3.8,3.8,0,0,0-1.136-1.519,1.814,1.814,0,0,0-2.894.688,3.785,3.785,0,0,0-.334,1.867,2.84,2.84,0,0,1-.083-2.038,2.436,2.436,0,0,1,.568-.932,2.022,2.022,0,0,1,2.11-.5,2.422,2.422,0,0,1,.927.577A2.835,2.835,0,0,1,5485.11,1053.973Z" fill="#222221"/>
    <path id="Trazado_4565" data-name="Trazado 4565" d="M5481.242,1055.739c.214.9.909,1.512,1.552,1.36s.99-1.009.775-1.913-.91-1.513-1.552-1.36S5481.027,1054.835,5481.242,1055.739Z" fill="#222221"/>
    <path id="Trazado_4566" data-name="Trazado 4566" d="M5481.772,1065.959a4.624,4.624,0,0,1-1.6-.27l.308-.825a3.562,3.562,0,0,0,3.445-.52l.623.623A3.953,3.953,0,0,1,5481.772,1065.959Z" fill="#e3ab82"/>
    <g id="Grupo_712" data-name="Grupo 712">
      <path id="Trazado_4567" data-name="Trazado 4567" d="M5282.671,1087.209a10.083,10.083,0,0,1-2.427-.014c-2.505-.3-2.8-4.067-2.705-6.092.075-1.645.041-4.473,1.618-5.47,1.67-1.056,6.975-.429,5.494,2.6,2.464.465,2.332,4.2,1.9,6.022C5286.087,1086.185,5284.442,1086.989,5282.671,1087.209Z" fill="#f8e8c9"/>
      <path id="Trazado_4568" data-name="Trazado 4568" d="M5281.566,1087.494a1.507,1.507,0,0,1-1.2-1.426,2.4,2.4,0,0,1,.177-1.211,2.147,2.147,0,0,1-.479-1.281,2.329,2.329,0,0,1,.415-1.505c-.029-.056-.057-.116-.084-.18a3.071,3.071,0,0,1-.077-2.187,1.2,1.2,0,0,1,1.6-.8.972.972,0,0,0,.252.049h0a1.284,1.284,0,0,0,1.158-.791l1.345.572a2.728,2.728,0,0,1-2.5,1.681h0a2.082,2.082,0,0,1-.526-.072,1.745,1.745,0,0,0,.189,1.133.731.731,0,0,1-.051,1.357c-.136.048-.271.326-.253.662,0,.045.03.443.264.5a.731.731,0,0,1,.133,1.375.828.828,0,0,0-.047.715.145.145,0,0,0-.069-.036Z" fill="#eecb8f"/>
      <path id="Trazado_4569" data-name="Trazado 4569" d="M5283.124,1083.1a6.49,6.49,0,0,1-2.237-.42l.513-1.369c.775.291,2.925.758,3.553-.555l1.319.63A3.26,3.26,0,0,1,5283.124,1083.1Z" fill="#eecb8f"/>
      <path id="Trazado_4570" data-name="Trazado 4570" d="M5283.672,1086.019a3.7,3.7,0,0,1-1.323-.314,3.406,3.406,0,0,0-.687-.212l.2-1.447a4.526,4.526,0,0,1,1.01.293c.594.226.845.3,1.122.121l.779,1.236A2.01,2.01,0,0,1,5283.672,1086.019Z" fill="#eecb8f"/>
    </g>
    <path id="Trazado_4571" data-name="Trazado 4571" d="M5263.807,1033.824a19.624,19.624,0,0,1-5.913-1.275.424.424,0,0,1,.278-.8c4.378,1.519,7.144,1.638,8.221.351a.424.424,0,1,1,.65.544A4.058,4.058,0,0,1,5263.807,1033.824Z" fill="#9a9a9a"/>
    <path id="Trazado_4572" data-name="Trazado 4572" d="M5262.087,1030.341c-.087,0-.165,0-.234,0-1.284-.038-3.027-.394-3.709-1.269a.424.424,0,1,1,.669-.521,4.649,4.649,0,0,0,3.065.943,3.349,3.349,0,0,0,2.295-.517.424.424,0,0,1,.636.56A3.91,3.91,0,0,1,5262.087,1030.341Z" fill="#9a9a9a"/>
    <path id="Trazado_4573" data-name="Trazado 4573" d="M5266.332,1062.218c-1.561,0-3.115-.515-3.69-1.379l.8-.534c.553.831,3.021,1.306,4.693.637l.358.9A5.913,5.913,0,0,1,5266.332,1062.218Z" fill="#eecb8f"/>
    <path id="Trazado_4574" data-name="Trazado 4574" d="M5262.288,1063.6l-.818-.509a9.741,9.741,0,0,0,1.719-4.855l.963.01A10.649,10.649,0,0,1,5262.288,1063.6Z" fill="#eecb8f"/>
    <path id="Trazado_4575" data-name="Trazado 4575" d="M5281.676,1080.109a2.224,2.224,0,0,1-.99-.233,4.36,4.36,0,0,1-1.846-2.432l1.394-.438a3.006,3.006,0,0,0,1.1,1.561.813.813,0,0,0,.676.016l.5,1.374A2.464,2.464,0,0,1,5281.676,1080.109Z" fill="#eecb8f"/>
    <g id="Grupo_713" data-name="Grupo 713">
      <path id="Trazado_4576" data-name="Trazado 4576" d="M5462.694,1083.113a3.341,3.341,0,0,0-3.74,1.371,3.745,3.745,0,0,0-.832,3.467,1.1,1.1,0,0,0-.237.229l-4.013,3.871a1.335,1.335,0,0,0,.137,1.739l.34.319a1.028,1.028,0,0,0,1.557-.155l3.7-3.422c1.842,1.723,4.588,2.1,6.022.193a4.225,4.225,0,0,0,.841-2.1A5.471,5.471,0,0,0,5462.694,1083.113Z" fill="#f8e8c9"/>
    </g>
    <path id="Trazado_4577" data-name="Trazado 4577" d="M5481.069,1049.109a2.1,2.1,0,0,1,1-.713,2.669,2.669,0,0,1,1.248-.128,2.516,2.516,0,0,1,1.167.467,1.8,1.8,0,0,1,.695,1.01,2.417,2.417,0,0,0-.836-.8,2.87,2.87,0,0,0-1.07-.357,3.129,3.129,0,0,0-1.132.049A3.082,3.082,0,0,0,5481.069,1049.109Z" fill="#222221"/>
    <path id="Trazado_4578" data-name="Trazado 4578" d="M5483.045,1051.655a5.635,5.635,0,0,0,.667-.664,2.6,2.6,0,0,0,.228-.338c.077-.131.15-.282.258-.464a.874.874,0,0,1,.184.57,1,1,0,0,1-.218.592,1.026,1.026,0,0,1-.521.346A.842.842,0,0,1,5483.045,1051.655Z" fill="#222221"/>
    <path id="Trazado_4579" data-name="Trazado 4579" d="M5484.2,1052.327a5.64,5.64,0,0,0,.667-.663,2.6,2.6,0,0,0,.228-.339c.077-.13.15-.282.258-.463a.872.872,0,0,1,.184.57,1,1,0,0,1-.218.591,1.024,1.024,0,0,1-.521.347A.836.836,0,0,1,5484.2,1052.327Z" fill="#222221"/>
    <g id="Grupo_714" data-name="Grupo 714">
      <path id="Trazado_4580" data-name="Trazado 4580" d="M5484.117,1061.485a2.937,2.937,0,1,0,2.274-3.577A2.989,2.989,0,0,0,5484.117,1061.485Z" fill="#f8e8c9"/>
      <path id="Trazado_4581" data-name="Trazado 4581" d="M5484.164,1061.475a2.889,2.889,0,1,0,2.237-3.518A2.941,2.941,0,0,0,5484.164,1061.475Z" fill="#f8e7c8"/>
      <path id="Trazado_4582" data-name="Trazado 4582" d="M5484.21,1061.466a2.842,2.842,0,1,0,2.2-3.46A2.892,2.892,0,0,0,5484.21,1061.466Z" fill="#f7e6c8"/>
      <path id="Trazado_4583" data-name="Trazado 4583" d="M5484.257,1061.456a2.794,2.794,0,1,0,2.163-3.4A2.846,2.846,0,0,0,5484.257,1061.456Z" fill="#f7e5c7"/>
      <path id="Trazado_4584" data-name="Trazado 4584" d="M5484.3,1061.447a2.746,2.746,0,1,0,2.126-3.344A2.8,2.8,0,0,0,5484.3,1061.447Z" fill="#f6e4c6"/>
      <path id="Trazado_4585" data-name="Trazado 4585" d="M5484.351,1061.437a2.7,2.7,0,1,0,2.089-3.286A2.747,2.747,0,0,0,5484.351,1061.437Z" fill="#f6e3c6"/>
      <path id="Trazado_4586" data-name="Trazado 4586" d="M5484.4,1061.428a2.65,2.65,0,1,0,2.052-3.228A2.7,2.7,0,0,0,5484.4,1061.428Z" fill="#f5e2c5"/>
      <path id="Trazado_4587" data-name="Trazado 4587" d="M5484.444,1061.418a2.6,2.6,0,1,0,2.015-3.169A2.65,2.65,0,0,0,5484.444,1061.418Z" fill="#f5e1c4"/>
      <path id="Trazado_4588" data-name="Trazado 4588" d="M5484.491,1061.409a2.555,2.555,0,1,0,1.978-3.112A2.6,2.6,0,0,0,5484.491,1061.409Z" fill="#f4e0c3"/>
      <path id="Trazado_4589" data-name="Trazado 4589" d="M5484.538,1061.4a2.507,2.507,0,1,0,1.941-3.053A2.552,2.552,0,0,0,5484.538,1061.4Z" fill="#f4dfc3"/>
      <path id="Trazado_4590" data-name="Trazado 4590" d="M5484.585,1061.39a2.459,2.459,0,1,0,1.9-2.995A2.5,2.5,0,0,0,5484.585,1061.39Z" fill="#f4dec2"/>
      <path id="Trazado_4591" data-name="Trazado 4591" d="M5484.632,1061.38a2.411,2.411,0,1,0,1.867-2.937A2.454,2.454,0,0,0,5484.632,1061.38Z" fill="#f3ddc1"/>
      <path id="Trazado_4592" data-name="Trazado 4592" d="M5484.678,1061.37a2.364,2.364,0,1,0,1.83-2.878A2.406,2.406,0,0,0,5484.678,1061.37Z" fill="#f3dcc1"/>
      <path id="Trazado_4593" data-name="Trazado 4593" d="M5484.725,1061.361a2.316,2.316,0,1,0,1.793-2.82A2.358,2.358,0,0,0,5484.725,1061.361Z" fill="#f2dbc0"/>
      <path id="Trazado_4594" data-name="Trazado 4594" d="M5484.772,1061.351a2.268,2.268,0,1,0,1.756-2.762A2.308,2.308,0,0,0,5484.772,1061.351Z" fill="#f2dabf"/>
      <path id="Trazado_4595" data-name="Trazado 4595" d="M5484.819,1061.342a2.22,2.22,0,1,0,1.719-2.7A2.261,2.261,0,0,0,5484.819,1061.342Z" fill="#f1d9bf"/>
      <path id="Trazado_4596" data-name="Trazado 4596" d="M5484.865,1061.332a2.173,2.173,0,1,0,1.683-2.645A2.213,2.213,0,0,0,5484.865,1061.332Z" fill="#f1d8be"/>
      <path id="Trazado_4597" data-name="Trazado 4597" d="M5484.912,1061.323a2.125,2.125,0,1,0,1.645-2.588A2.163,2.163,0,0,0,5484.912,1061.323Z" fill="#f0d7bd"/>
      <path id="Trazado_4598" data-name="Trazado 4598" d="M5484.959,1061.313a2.077,2.077,0,1,0,1.608-2.529A2.114,2.114,0,0,0,5484.959,1061.313Z" fill="#f0d6bc"/>
      <path id="Trazado_4599" data-name="Trazado 4599" d="M5485.006,1061.3a2.029,2.029,0,1,0,1.571-2.471A2.065,2.065,0,0,0,5485.006,1061.3Z" fill="#f0d5bc"/>
      <path id="Trazado_4600" data-name="Trazado 4600" d="M5485.053,1061.294a1.981,1.981,0,1,0,1.534-2.413A2.015,2.015,0,0,0,5485.053,1061.294Z" fill="#efd4bb"/>
      <path id="Trazado_4601" data-name="Trazado 4601" d="M5485.1,1061.285a1.934,1.934,0,1,0,1.5-2.355A1.97,1.97,0,0,0,5485.1,1061.285Z" fill="#efd3ba"/>
      <path id="Trazado_4602" data-name="Trazado 4602" d="M5485.146,1061.275a1.886,1.886,0,1,0,1.46-2.3A1.919,1.919,0,0,0,5485.146,1061.275Z" fill="#eed3ba"/>
      <path id="Trazado_4603" data-name="Trazado 4603" d="M5485.193,1061.266a1.838,1.838,0,1,0,1.423-2.239A1.871,1.871,0,0,0,5485.193,1061.266Z" fill="#eed2b9"/>
      <path id="Trazado_4604" data-name="Trazado 4604" d="M5485.24,1061.256a1.79,1.79,0,1,0,1.386-2.18A1.822,1.822,0,0,0,5485.24,1061.256Z" fill="#edd1b8"/>
      <path id="Trazado_4605" data-name="Trazado 4605" d="M5485.286,1061.247a1.743,1.743,0,1,0,1.35-2.122A1.774,1.774,0,0,0,5485.286,1061.247Z" fill="#edd0b8"/>
      <path id="Trazado_4606" data-name="Trazado 4606" d="M5485.333,1061.237a1.7,1.7,0,1,0,1.313-2.064A1.725,1.725,0,0,0,5485.333,1061.237Z" fill="#edcfb7"/>
      <path id="Trazado_4607" data-name="Trazado 4607" d="M5485.38,1061.228a1.647,1.647,0,1,0,1.275-2.006A1.678,1.678,0,0,0,5485.38,1061.228Z" fill="#ecceb6"/>
      <path id="Trazado_4608" data-name="Trazado 4608" d="M5485.427,1061.218a1.6,1.6,0,1,0,1.238-1.947A1.628,1.628,0,0,0,5485.427,1061.218Z" fill="#eccdb5"/>
      <path id="Trazado_4609" data-name="Trazado 4609" d="M5485.474,1061.209a1.551,1.551,0,1,0,1.2-1.89A1.578,1.578,0,0,0,5485.474,1061.209Z" fill="#ebccb5"/>
      <path id="Trazado_4610" data-name="Trazado 4610" d="M5485.52,1061.2a1.5,1.5,0,1,0,1.165-1.831A1.531,1.531,0,0,0,5485.52,1061.2Z" fill="#ebcbb4"/>
      <path id="Trazado_4611" data-name="Trazado 4611" d="M5485.567,1061.19a1.456,1.456,0,1,0,1.128-1.773A1.482,1.482,0,0,0,5485.567,1061.19Z" fill="#eacab3"/>
      <path id="Trazado_4612" data-name="Trazado 4612" d="M5485.614,1061.18a1.409,1.409,0,1,0,1.09-1.715A1.434,1.434,0,0,0,5485.614,1061.18Z" fill="#eac9b3"/>
      <path id="Trazado_4613" data-name="Trazado 4613" d="M5485.661,1061.171a1.36,1.36,0,1,0,1.053-1.657A1.385,1.385,0,0,0,5485.661,1061.171Z" fill="#e9c8b2"/>
      <path id="Trazado_4614" data-name="Trazado 4614" d="M5485.708,1061.161a1.312,1.312,0,1,0,1.016-1.6A1.336,1.336,0,0,0,5485.708,1061.161Z" fill="#e9c7b1"/>
      <path id="Trazado_4615" data-name="Trazado 4615" d="M5485.754,1061.151a1.265,1.265,0,1,0,.98-1.54A1.289,1.289,0,0,0,5485.754,1061.151Z" fill="#e9c6b1"/>
      <path id="Trazado_4616" data-name="Trazado 4616" d="M5485.8,1061.142a1.217,1.217,0,1,0,.943-1.482A1.24,1.24,0,0,0,5485.8,1061.142Z" fill="#e8c5b0"/>
      <path id="Trazado_4617" data-name="Trazado 4617" d="M5485.848,1061.132a1.169,1.169,0,1,0,.9-1.424A1.19,1.19,0,0,0,5485.848,1061.132Z" fill="#e8c4af"/>
      <path id="Trazado_4618" data-name="Trazado 4618" d="M5485.9,1061.123a1.121,1.121,0,1,0,.868-1.366A1.142,1.142,0,0,0,5485.9,1061.123Z" fill="#e7c3ae"/>
      <path id="Trazado_4619" data-name="Trazado 4619" d="M5485.941,1061.113a1.074,1.074,0,1,0,.832-1.307A1.094,1.094,0,0,0,5485.941,1061.113Z" fill="#e7c2ae"/>
      <path id="Trazado_4620" data-name="Trazado 4620" d="M5485.988,1061.1a1.026,1.026,0,1,0,.8-1.25A1.045,1.045,0,0,0,5485.988,1061.1Z" fill="#e6c1ad"/>
      <path id="Trazado_4621" data-name="Trazado 4621" d="M5486.035,1061.094a.978.978,0,1,0,.758-1.191A1,1,0,0,0,5486.035,1061.094Z" fill="#e6c0ac"/>
      <path id="Trazado_4622" data-name="Trazado 4622" d="M5486.082,1061.085a.93.93,0,1,0,.72-1.133A.947.947,0,0,0,5486.082,1061.085Z" fill="#e5bfac"/>
      <path id="Trazado_4623" data-name="Trazado 4623" d="M5486.129,1061.075a.882.882,0,1,0,.683-1.075A.9.9,0,0,0,5486.129,1061.075Z" fill="#e5beab"/>
    </g>
    <path id="Trazado_4624" data-name="Trazado 4624" d="M5463.386,1091.108a1.583,1.583,0,0,1-.886-2.9l1.8-1.339.514.689-1.815,1.352a.725.725,0,1,0,.793,1.214l1.8-1.339.513.69-1.814,1.351A1.611,1.611,0,0,1,5463.386,1091.108Z" fill="#eecb8f"/>
    <g id="Grupo_715" data-name="Grupo 715">
      <path id="Trazado_4625" data-name="Trazado 4625" d="M5268.226,1175.921l10.02.888,17.621,1.563-1.726,19.745-.646-.049C5282.678,1192.524,5272.92,1184.979,5268.226,1175.921Z" fill="#858585"/>
      <path id="Trazado_4626" data-name="Trazado 4626" d="M5293.5,1198.068l-19.5-1.5-7.891-.607,1.6-20.086.523.047C5272.92,1184.979,5282.678,1192.524,5293.5,1198.068Z" fill="#9a9a9a"/>
      <path id="Trazado_4627" data-name="Trazado 4627" d="M5267.074,1177.1l.628-1.231-1.543,20.1-.667.337Z" fill="#585857"/>
      <path id="Trazado_4628" data-name="Trazado 4628" d="M5293.725,1198.492l.4-.415-28.026-2.117-.648.372Z" fill="#3e3e3d"/>
      <path id="Trazado_4629" data-name="Trazado 4629" d="M5268.85,1194.082l21.863,1.792,1.259-15.815-21.557-1.6Z" fill="url(#linear-gradient-4)"/>
    </g>
    <g id="Grupo_752" data-name="Grupo 752">
      <g id="Grupo_716" data-name="Grupo 716">
        <path id="Trazado_4630" data-name="Trazado 4630" d="M5272.918,1180.152l-.886,12.133,16.344,1.286.886-12.132Z" fill="#fff"/>
      </g>
      <g id="Grupo_717" data-name="Grupo 717">
        <path id="Trazado_4631" data-name="Trazado 4631" d="M5286.473,1182.121l-.739,10.128,1.362.107.74-10.128Z" fill="#9a9a9a"/>
      </g>
      <g id="Grupo_718" data-name="Grupo 718">
        <path id="Trazado_4632" data-name="Trazado 4632" d="M5285.185,1185.468l-.454-.036.234-3.218.455.036Z" fill="#858585"/>
      </g>
      <g id="Grupo_719" data-name="Grupo 719">
        <path id="Trazado_4633" data-name="Trazado 4633" d="M5284.472,1185.411l-.454-.036.234-3.217.454.036Z" fill="#858585"/>
      </g>
      <g id="Grupo_720" data-name="Grupo 720">
        <path id="Trazado_4634" data-name="Trazado 4634" d="M5283.758,1185.355l-.454-.036.235-3.217.454.036Z" fill="#858585"/>
      </g>
      <g id="Grupo_721" data-name="Grupo 721">
        <path id="Trazado_4635" data-name="Trazado 4635" d="M5283.044,1185.3l-.455-.035.236-3.218.453.036Z" fill="#858585"/>
      </g>
      <g id="Grupo_722" data-name="Grupo 722">
        <path id="Trazado_4636" data-name="Trazado 4636" d="M5282.331,1185.244l-.455-.036.236-3.218.454.036Z" fill="#858585"/>
      </g>
      <g id="Grupo_723" data-name="Grupo 723">
        <path id="Trazado_4637" data-name="Trazado 4637" d="M5278.943,1191.567l-.454-.035.234-3.219.455.036Z" fill="#858585"/>
      </g>
      <g id="Grupo_724" data-name="Grupo 724">
        <path id="Trazado_4638" data-name="Trazado 4638" d="M5278.229,1191.511l-.454-.036.235-3.218.454.036Z" fill="#858585"/>
      </g>
      <g id="Grupo_725" data-name="Grupo 725">
        <path id="Trazado_4639" data-name="Trazado 4639" d="M5277.517,1191.456l-.455-.036.235-3.218.454.035Z" fill="#858585"/>
      </g>
      <g id="Grupo_726" data-name="Grupo 726">
        <path id="Trazado_4640" data-name="Trazado 4640" d="M5276.8,1191.4l-.454-.036.235-3.218.454.036Z" fill="#858585"/>
      </g>
      <g id="Grupo_727" data-name="Grupo 727">
        <path id="Trazado_4641" data-name="Trazado 4641" d="M5276.089,1191.342l-.453-.035.234-3.218.454.035Z" fill="#858585"/>
      </g>
      <g id="Grupo_733" data-name="Grupo 733">
        <g id="Grupo_728" data-name="Grupo 728">
          <path id="Trazado_4642" data-name="Trazado 4642" d="M5284.934,1189.234a1.622,1.622,0,0,1-.267.774l-2.171-.982Z" fill="#afc5e7"/>
        </g>
        <g id="Grupo_729" data-name="Grupo 729">
          <path id="Trazado_4643" data-name="Trazado 4643" d="M5284.667,1190.008a1.946,1.946,0,0,1-.523.529,2.448,2.448,0,0,1-.693.327l-.955-1.838Z" fill="#d4dae0"/>
        </g>
        <g id="Grupo_730" data-name="Grupo 730">
          <path id="Trazado_4644" data-name="Trazado 4644" d="M5283.451,1190.864a2.819,2.819,0,0,1-1.014.1,2.673,2.673,0,0,1-1.626-.693l1.685-1.248Z" fill="#899aa7"/>
        </g>
        <g id="Grupo_731" data-name="Grupo 731">
          <path id="Trazado_4645" data-name="Trazado 4645" d="M5282.5,1189.026l-1.685,1.248a1.768,1.768,0,0,1-.591-1.41,1.743,1.743,0,0,1,.789-1.3Z" fill="#839cd0"/>
        </g>
        <g id="Grupo_732" data-name="Grupo 732">
          <path id="Trazado_4646" data-name="Trazado 4646" d="M5281.009,1187.563a2.633,2.633,0,0,1,1.708-.43,2.664,2.664,0,0,1,1.625.692,1.769,1.769,0,0,1,.592,1.409l-2.438-.208Z" fill="#1a5492"/>
        </g>
      </g>
      <g id="Grupo_751" data-name="Grupo 751">
        <g id="Grupo_734" data-name="Grupo 734">
          <path id="Trazado_4647" data-name="Trazado 4647" d="M5274.662,1185.863l-.059.818,2.64.208.06-.817Z" fill="#569f98"/>
        </g>
        <g id="Grupo_735" data-name="Grupo 735">
          <path id="Trazado_4648" data-name="Trazado 4648" d="M5274.752,1184.636l-.06.818,1.634.128.06-.818Z" fill="#c52170"/>
        </g>
        <g id="Grupo_736" data-name="Grupo 736">
          <path id="Trazado_4649" data-name="Trazado 4649" d="M5274.842,1183.409l-.061.818,2.892.227.06-.817Z" fill="#59287f"/>
        </g>
        <g id="Grupo_737" data-name="Grupo 737">
          <path id="Trazado_4650" data-name="Trazado 4650" d="M5274.931,1182.182l-.06.818,1.844.145.06-.818Z" fill="#4d8b3f"/>
        </g>
        <g id="Grupo_738" data-name="Grupo 738">
          <path id="Trazado_4651" data-name="Trazado 4651" d="M5279.313,1187.929l-4.937-.388.45-6.176,4.937.389Zm-4.676-.613,4.45.35.415-5.687-4.45-.351Z" fill="#858585"/>
        </g>
        <g id="Grupo_742" data-name="Grupo 742">
          <g id="Grupo_739" data-name="Grupo 739">
            <line id="Línea_45" data-name="Línea 45" x1="0.009" y2="0.122" transform="translate(5278.507 1181.779)" fill="none"/>
          </g>
          <g id="Grupo_740" data-name="Grupo 740">
            <path id="Trazado_4652" data-name="Trazado 4652" d="M5278.14,1187.343l-.061-.005.018-.247.061.005Zm.036-.495-.061,0,.018-.247.061,0Zm.036-.494-.061-.005.018-.247.061,0Zm.036-.495-.061,0,.018-.247.061,0Zm.036-.494-.061-.005.018-.247.061,0Zm.037-.495-.061,0,.018-.248.061.005Zm.035-.494-.06-.005.018-.247.061,0Zm.037-.495-.061,0,.018-.248.061.005Zm.036-.494-.061-.005.018-.247.061,0Zm.036-.495-.061,0,.018-.248.061.005Zm.036-.494-.061-.005.018-.247.061,0Z" fill="#858585"/>
          </g>
          <g id="Grupo_741" data-name="Grupo 741">
            <line id="Línea_46" data-name="Línea 46" x1="0.009" y2="0.122" transform="translate(5278.082 1187.588)" fill="none"/>
          </g>
        </g>
        <g id="Grupo_746" data-name="Grupo 746">
          <g id="Grupo_743" data-name="Grupo 743">
            <line id="Línea_47" data-name="Línea 47" x1="0.009" y2="0.122" transform="translate(5277.243 1181.679)" fill="none"/>
          </g>
          <g id="Grupo_744" data-name="Grupo 744">
            <path id="Trazado_4653" data-name="Trazado 4653" d="M5276.876,1187.243l-.061-.005.018-.247.061,0Zm.036-.495-.061,0,.018-.247.061,0Zm.036-.494-.061-.005.018-.247.061,0Zm.036-.495-.061,0,.018-.247.061,0Zm.036-.494-.061-.005.018-.247.061,0Zm.037-.495-.061,0,.018-.248.061.005Zm.035-.494-.06-.005.018-.247.061.005Zm.037-.495-.061,0,.018-.247.061,0Zm.036-.494-.061-.005.018-.247.061,0Zm.036-.495-.061,0,.018-.247.061,0Zm.036-.494-.061-.005.018-.247.061,0Z" fill="#858585"/>
          </g>
          <g id="Grupo_745" data-name="Grupo 745">
            <line id="Línea_48" data-name="Línea 48" x1="0.009" y2="0.122" transform="translate(5276.818 1187.488)" fill="none"/>
          </g>
        </g>
        <g id="Grupo_750" data-name="Grupo 750">
          <g id="Grupo_747" data-name="Grupo 747">
            <line id="Línea_49" data-name="Línea 49" x1="0.009" y2="0.122" transform="translate(5275.978 1181.579)" fill="none"/>
          </g>
          <g id="Grupo_748" data-name="Grupo 748">
            <path id="Trazado_4654" data-name="Trazado 4654" d="M5275.611,1187.143l-.061,0,.018-.247.061,0Zm.036-.494-.061,0,.018-.248.061,0Zm.036-.495-.06,0,.018-.247.06,0Zm.037-.494-.061-.005.018-.247.061,0Zm.036-.495-.061,0,.018-.247.061,0Zm.036-.494-.061-.005.018-.247.061,0Zm.036-.495-.061,0,.018-.248.061.005Zm.036-.494-.061-.005.018-.247.061,0Zm.036-.495-.061,0,.018-.248.061,0Zm.036-.494-.061-.005.018-.247.061,0Zm.036-.495-.061,0,.018-.248.061.005Z" fill="#858585"/>
          </g>
          <g id="Grupo_749" data-name="Grupo 749">
            <line id="Línea_50" data-name="Línea 50" x1="0.009" y2="0.122" transform="translate(5275.554 1187.389)" fill="none"/>
          </g>
        </g>
      </g>
    </g>
    <path id="Trazado_4655" data-name="Trazado 4655" d="M5256.192,1188.256c.079.261,4.653-2.027,4.993-2.181.849-.383,1.7-.768,2.578-1.08a10.774,10.774,0,0,0,1.935-.63c.945-.564,1.312-1.812,2.376-2.218.655-.251,1.117.025,1.184.668.075.722-.463,1.21-.647,1.826a9.719,9.719,0,0,1,2.731,1.409c.812.436,1.7.81,2.547,1.174.529.227,1.272.412,1.535.993.634,1.4-1.148,1.185-1.867.992a8,8,0,0,1-3.118-1.638c.018,1.1.163,2.212-.7,2.987a5.587,5.587,0,0,1-4.575,1.133,16.424,16.424,0,0,0-1.831-.735,4.207,4.207,0,0,0-.972.139c-.447.062-5.054.873-5.146.567Z" fill="#f8e8c9"/>
    <g id="Grupo_754" data-name="Grupo 754">
      <g id="Grupo_753" data-name="Grupo 753">
        <path id="Trazado_4656" data-name="Trazado 4656" d="M5265.973,1173.523l1.462.7a4.692,4.692,0,0,0,1.851,3.071l.565,3.358a1.125,1.125,0,0,0,1.272.953l.446-.063a1.12,1.12,0,0,0,.952-1.269l-.363-1.742c2.4.7,5.09,1.567,6.487-2.108,1.482-3.9-1.327-4.9-3.632-5.986a13.285,13.285,0,0,0-1.444-.576,5.1,5.1,0,0,0-3.758.18l-1.514-.728Z" fill="#f8e8c9"/>
      </g>
      <rect id="Rectángulo_975" data-name="Rectángulo 975" width="0.931" height="5.158" transform="translate(5272.441 1176.078) rotate(-60.578)" fill="#eecb8f"/>
      <rect id="Rectángulo_976" data-name="Rectángulo 976" width="0.931" height="5.409" transform="matrix(0.462, -0.887, 0.887, 0.462, 5273.37, 1174.734)" fill="#eecb8f"/>
      <rect id="Rectángulo_977" data-name="Rectángulo 977" width="0.931" height="5.635" transform="matrix(0.379, -0.926, 0.926, 0.379, 5273.62, 1172.715)" fill="#eecb8f"/>
    </g>
    <path id="Trazado_4657" data-name="Trazado 4657" d="M5257.681,1165.055l12.263,3.512-3.166,6.105-10.767-2.651-6.674-3.407-4.145-11.631Z" fill="#cba862"/>
    <path id="Trazado_4658" data-name="Trazado 4658" d="M5258.552,1186.341l-16.043,1.351-7.769-13-8.444,2.871,12.328,18.914,21.448-2.533Z" fill="#cba862"/>
    <path id="Trazado_4659" data-name="Trazado 4659" d="M5238.365,1197.029l-12.5-19.186.873-.569,12.152,18.643,9.159-1.081.122,1.035Z" fill="#a5805a"/>
    <path id="Trazado_4660" data-name="Trazado 4660" d="M5242.229,1188.239l-7.936-13.283.9-.535,7.6,12.724,7.238-.609.087,1.039Z" fill="#a5805a"/>
    <path id="Trazado_4661" data-name="Trazado 4661" d="M5251.816,1140.783l-2.715-5.152c-.177-1.7-.451-3.412-.772-5.077-.729-3.78-.6-6.823-3.817-9.532a15.143,15.143,0,0,0-11.452-3.244c-3.992.52-8.58,3.257-11.47,6.028-3.182,3.053-5.351,7.286-5.039,11.778.119,1.7.986,2.8,1.565,4.357.633,1.7,1.009,3.492,1.67,5.191a12.486,12.486,0,0,0,6.02,6.153c2.474,1.147,5.409,1.485,8.026,2.189a18.334,18.334,0,0,0,4.639.809c1.985.009,3.72.321,5.428-.959a12.912,12.912,0,0,0,3.24-4.52,19.1,19.1,0,0,0,1.975-6.551Z" fill="#f8e8c9"/>
    <path id="Trazado_4662" data-name="Trazado 4662" d="M5232.9,1135.055c-.762,2.091-.324,4.484-.315,6.695a56.6,56.6,0,0,0,.49,8,68.142,68.142,0,0,0,1.2,7.7c.6,2.257,2.136,3.577,3.367,5.464a6.825,6.825,0,0,1-3.31-.867,4.126,4.126,0,0,0,1.9,1.81c-1.254.133-3.215,0-4.169-.927.11,1.121,1.389,1.833,1.528,2.87-1.581.832-3.822-.559-5.082-1.434-2.382-1.654-3.957-5.575-5.617-7.961-2.236-3.215-2.948-6.766-4.838-10.212-2-3.654-4.1-7.324-4.991-11.441-2.013-9.324,3.4-20.219,13.222-21.779,3.334-.529,6.76.3,10.055.6a34.459,34.459,0,0,1,3.85.507,9.1,9.1,0,0,1,4.208,1.7,10.034,10.034,0,0,1,2.958,4.846c.441,1.41,1.316,4.071.773,5.51a8.09,8.09,0,0,1-3.52-5.37c.212,1.54-1.734,5.015-2.694,6.174a6.33,6.33,0,0,1-.474.516,25.033,25.033,0,0,1-2.3,1.789c-1.079.827-2.573,1.393-3.532,2.3-.054-1.313.752-2.65.635-4.015-.345,1.161-1.3,2.055-1.746,3.181C5233.937,1132.137,5233.422,1133.619,5232.9,1135.055Z" fill="#68533a"/>
    <path id="Trazado_4663" data-name="Trazado 4663" d="M5245.285,1137.472a2.3,2.3,0,1,1-2.045-2.951A2.57,2.57,0,0,1,5245.285,1137.472Z" fill="#fff"/>
    <path id="Trazado_4664" data-name="Trazado 4664" d="M5240.811,1137.164a2.845,2.845,0,0,1,.526-1.97,2.442,2.442,0,0,1,.82-.721,2.021,2.021,0,0,1,2.163.149,2.429,2.429,0,0,1,.714.826,2.839,2.839,0,0,1,.251,2.024,3.791,3.791,0,0,0-.635-1.787,1.813,1.813,0,0,0-2.967-.205A3.778,3.778,0,0,0,5240.811,1137.164Z" fill="#222221"/>
    <path id="Trazado_4665" data-name="Trazado 4665" d="M5245.4,1136.7c-.064.926-.65,1.641-1.309,1.595s-1.142-.833-1.078-1.76.65-1.641,1.309-1.595S5245.468,1135.774,5245.4,1136.7Z" fill="#222221"/>
    <path id="Trazado_4666" data-name="Trazado 4666" d="M5245.242,1148.512a3.569,3.569,0,0,1-2.079-.593l.513-.717a3.561,3.561,0,0,0,3.483-.051l.439.764A4.882,4.882,0,0,1,5245.242,1148.512Z" fill="#e3ab82"/>
    <path id="Trazado_4667" data-name="Trazado 4667" d="M5244,1131.7a3.08,3.08,0,0,0-1.132-.289,3.121,3.121,0,0,0-1.126.137,2.864,2.864,0,0,0-1,.527,2.394,2.394,0,0,0-.693.925,1.792,1.792,0,0,1,.519-1.111,2.5,2.5,0,0,1,1.076-.652,2.673,2.673,0,0,1,1.252-.078A2.116,2.116,0,0,1,5244,1131.7Z" fill="#222221"/>
    <path id="Trazado_4668" data-name="Trazado 4668" d="M5242.468,1134.539a.829.829,0,0,1-.583.14,1.017,1.017,0,0,1-.57-.256.994.994,0,0,1-.312-.548.865.865,0,0,1,.088-.592c.136.161.233.3.33.415a2.708,2.708,0,0,0,.28.3A5.814,5.814,0,0,0,5242.468,1134.539Z" fill="#222221"/>
    <path id="Trazado_4669" data-name="Trazado 4669" d="M5241.441,1135.392a.84.84,0,0,1-.583.14,1.023,1.023,0,0,1-.571-.257.989.989,0,0,1-.311-.548.865.865,0,0,1,.087-.592c.136.161.234.3.331.415a2.706,2.706,0,0,0,.28.3A5.774,5.774,0,0,0,5241.441,1135.392Z" fill="#222221"/>
    <g id="Grupo_755" data-name="Grupo 755">
      <path id="Trazado_4670" data-name="Trazado 4670" d="M5243.02,1144.412a2.937,2.937,0,1,1-2.829-3.156A2.99,2.99,0,0,1,5243.02,1144.412Z" fill="#f8e8c9"/>
      <path id="Trazado_4671" data-name="Trazado 4671" d="M5242.972,1144.411a2.89,2.89,0,1,1-2.783-3.1A2.941,2.941,0,0,1,5242.972,1144.411Z" fill="#f8e7c8"/>
      <path id="Trazado_4672" data-name="Trazado 4672" d="M5242.925,1144.409a2.842,2.842,0,1,1-2.737-3.054A2.893,2.893,0,0,1,5242.925,1144.409Z" fill="#f7e6c8"/>
      <path id="Trazado_4673" data-name="Trazado 4673" d="M5242.877,1144.407a2.794,2.794,0,1,1-2.691-3A2.844,2.844,0,0,1,5242.877,1144.407Z" fill="#f7e5c7"/>
      <path id="Trazado_4674" data-name="Trazado 4674" d="M5242.829,1144.405a2.746,2.746,0,1,1-2.645-2.95A2.8,2.8,0,0,1,5242.829,1144.405Z" fill="#f6e4c6"/>
      <path id="Trazado_4675" data-name="Trazado 4675" d="M5242.781,1144.4a2.7,2.7,0,1,1-2.6-2.9A2.745,2.745,0,0,1,5242.781,1144.4Z" fill="#f6e3c6"/>
      <path id="Trazado_4676" data-name="Trazado 4676" d="M5242.734,1144.4a2.651,2.651,0,1,1-2.553-2.848A2.7,2.7,0,0,1,5242.734,1144.4Z" fill="#f5e2c5"/>
      <path id="Trazado_4677" data-name="Trazado 4677" d="M5242.686,1144.4a2.6,2.6,0,1,1-2.507-2.8A2.648,2.648,0,0,1,5242.686,1144.4Z" fill="#f5e1c4"/>
      <path id="Trazado_4678" data-name="Trazado 4678" d="M5242.638,1144.4a2.555,2.555,0,1,1-2.46-2.745A2.6,2.6,0,0,1,5242.638,1144.4Z" fill="#f4e0c3"/>
      <path id="Trazado_4679" data-name="Trazado 4679" d="M5242.591,1144.4a2.507,2.507,0,1,1-2.415-2.694A2.553,2.553,0,0,1,5242.591,1144.4Z" fill="#f4dfc3"/>
      <path id="Trazado_4680" data-name="Trazado 4680" d="M5242.543,1144.4a2.46,2.46,0,1,1-2.369-2.643A2.5,2.5,0,0,1,5242.543,1144.4Z" fill="#f4dec2"/>
      <path id="Trazado_4681" data-name="Trazado 4681" d="M5242.5,1144.393a2.411,2.411,0,1,1-2.323-2.591A2.456,2.456,0,0,1,5242.5,1144.393Z" fill="#f3ddc1"/>
      <path id="Trazado_4682" data-name="Trazado 4682" d="M5242.447,1144.391a2.364,2.364,0,1,1-2.276-2.539A2.4,2.4,0,0,1,5242.447,1144.391Z" fill="#f3dcc1"/>
      <path id="Trazado_4683" data-name="Trazado 4683" d="M5242.4,1144.39a2.316,2.316,0,1,1-2.231-2.489A2.358,2.358,0,0,1,5242.4,1144.39Z" fill="#f2dbc0"/>
      <path id="Trazado_4684" data-name="Trazado 4684" d="M5242.352,1144.388a2.268,2.268,0,1,1-2.185-2.437A2.309,2.309,0,0,1,5242.352,1144.388Z" fill="#f2dabf"/>
      <path id="Trazado_4685" data-name="Trazado 4685" d="M5242.3,1144.386a2.221,2.221,0,1,1-2.138-2.386A2.26,2.26,0,0,1,5242.3,1144.386Z" fill="#f1d9bf"/>
      <path id="Trazado_4686" data-name="Trazado 4686" d="M5242.257,1144.385a2.173,2.173,0,1,1-2.093-2.335A2.212,2.212,0,0,1,5242.257,1144.385Z" fill="#f1d8be"/>
      <path id="Trazado_4687" data-name="Trazado 4687" d="M5242.209,1144.383a2.125,2.125,0,1,1-2.047-2.283A2.163,2.163,0,0,1,5242.209,1144.383Z" fill="#f0d7bd"/>
      <path id="Trazado_4688" data-name="Trazado 4688" d="M5242.161,1144.381a2.077,2.077,0,1,1-2-2.232A2.114,2.114,0,0,1,5242.161,1144.381Z" fill="#f0d6bc"/>
      <path id="Trazado_4689" data-name="Trazado 4689" d="M5242.113,1144.379a2.029,2.029,0,1,1-1.954-2.18A2.065,2.065,0,0,1,5242.113,1144.379Z" fill="#f0d5bc"/>
      <path id="Trazado_4690" data-name="Trazado 4690" d="M5242.066,1144.378a1.982,1.982,0,1,1-1.909-2.13A2.017,2.017,0,0,1,5242.066,1144.378Z" fill="#efd4bb"/>
      <path id="Trazado_4691" data-name="Trazado 4691" d="M5242.018,1144.376a1.934,1.934,0,1,1-1.863-2.078A1.968,1.968,0,0,1,5242.018,1144.376Z" fill="#efd3ba"/>
      <path id="Trazado_4692" data-name="Trazado 4692" d="M5241.97,1144.374a1.886,1.886,0,1,1-1.816-2.026A1.919,1.919,0,0,1,5241.97,1144.374Z" fill="#eed3ba"/>
      <path id="Trazado_4693" data-name="Trazado 4693" d="M5241.923,1144.372a1.839,1.839,0,1,1-1.771-1.975A1.872,1.872,0,0,1,5241.923,1144.372Z" fill="#eed2b9"/>
      <path id="Trazado_4694" data-name="Trazado 4694" d="M5241.875,1144.371a1.791,1.791,0,1,1-1.725-1.924A1.824,1.824,0,0,1,5241.875,1144.371Z" fill="#edd1b8"/>
      <path id="Trazado_4695" data-name="Trazado 4695" d="M5241.827,1144.369a1.742,1.742,0,1,1-1.678-1.872A1.773,1.773,0,0,1,5241.827,1144.369Z" fill="#edd0b8"/>
      <path id="Trazado_4696" data-name="Trazado 4696" d="M5241.779,1144.367a1.695,1.695,0,1,1-1.632-1.821A1.725,1.725,0,0,1,5241.779,1144.367Z" fill="#edcfb7"/>
      <path id="Trazado_4697" data-name="Trazado 4697" d="M5241.732,1144.366a1.647,1.647,0,1,1-1.587-1.77A1.676,1.676,0,0,1,5241.732,1144.366Z" fill="#ecceb6"/>
      <path id="Trazado_4698" data-name="Trazado 4698" d="M5241.684,1144.364a1.6,1.6,0,1,1-1.54-1.719A1.629,1.629,0,0,1,5241.684,1144.364Z" fill="#eccdb5"/>
      <path id="Trazado_4699" data-name="Trazado 4699" d="M5241.636,1144.362a1.551,1.551,0,1,1-1.494-1.667A1.58,1.58,0,0,1,5241.636,1144.362Z" fill="#ebccb5"/>
      <path id="Trazado_4700" data-name="Trazado 4700" d="M5241.589,1144.36a1.5,1.5,0,1,1-1.449-1.615A1.531,1.531,0,0,1,5241.589,1144.36Z" fill="#ebcbb4"/>
      <path id="Trazado_4701" data-name="Trazado 4701" d="M5241.541,1144.359a1.456,1.456,0,1,1-1.4-1.565A1.483,1.483,0,0,1,5241.541,1144.359Z" fill="#eacab3"/>
      <path id="Trazado_4702" data-name="Trazado 4702" d="M5241.493,1144.357a1.408,1.408,0,1,1-1.356-1.513A1.434,1.434,0,0,1,5241.493,1144.357Z" fill="#eac9b3"/>
      <path id="Trazado_4703" data-name="Trazado 4703" d="M5241.445,1144.355a1.36,1.36,0,1,1-1.31-1.462A1.385,1.385,0,0,1,5241.445,1144.355Z" fill="#e9c8b2"/>
      <path id="Trazado_4704" data-name="Trazado 4704" d="M5241.4,1144.353a1.313,1.313,0,1,1-1.265-1.41A1.336,1.336,0,0,1,5241.4,1144.353Z" fill="#e9c7b1"/>
      <path id="Trazado_4705" data-name="Trazado 4705" d="M5241.35,1144.352a1.265,1.265,0,1,1-1.218-1.359A1.287,1.287,0,0,1,5241.35,1144.352Z" fill="#e9c6b1"/>
      <path id="Trazado_4706" data-name="Trazado 4706" d="M5241.3,1144.35a1.217,1.217,0,1,1-1.172-1.308A1.239,1.239,0,0,1,5241.3,1144.35Z" fill="#e8c5b0"/>
      <path id="Trazado_4707" data-name="Trazado 4707" d="M5241.255,1144.348a1.17,1.17,0,1,1-1.127-1.256A1.191,1.191,0,0,1,5241.255,1144.348Z" fill="#e8c4af"/>
      <path id="Trazado_4708" data-name="Trazado 4708" d="M5241.207,1144.347a1.122,1.122,0,1,1-1.08-1.205A1.142,1.142,0,0,1,5241.207,1144.347Z" fill="#e7c3ae"/>
      <path id="Trazado_4709" data-name="Trazado 4709" d="M5241.159,1144.345a1.074,1.074,0,1,1-1.034-1.154A1.094,1.094,0,0,1,5241.159,1144.345Z" fill="#e7c2ae"/>
      <path id="Trazado_4710" data-name="Trazado 4710" d="M5241.111,1144.343a1.025,1.025,0,1,1-.988-1.1A1.044,1.044,0,0,1,5241.111,1144.343Z" fill="#e6c1ad"/>
      <path id="Trazado_4711" data-name="Trazado 4711" d="M5241.064,1144.341a.978.978,0,1,1-.943-1.051A1,1,0,0,1,5241.064,1144.341Z" fill="#e6c0ac"/>
      <path id="Trazado_4712" data-name="Trazado 4712" d="M5241.016,1144.34a.93.93,0,1,1-.9-1A.948.948,0,0,1,5241.016,1144.34Z" fill="#e5bfac"/>
      <path id="Trazado_4713" data-name="Trazado 4713" d="M5240.968,1144.338a.882.882,0,1,1-.85-.948A.9.9,0,0,1,5240.968,1144.338Z" fill="#e5beab"/>
    </g>
    <path id="Trazado_4714" data-name="Trazado 4714" d="M5215.01,1133.97l-.267-.628a20.1,20.1,0,0,1,4.544-1.155,21.9,21.9,0,0,0,3.875-.912c2.85-1.055,5.315-3.267,7.35-5.292.45-.448.927-.9,1.388-1.333a25.4,25.4,0,0,0,3.738-4.078l.567.38a25.868,25.868,0,0,1-3.837,4.194c-.458.432-.931.879-1.375,1.321-2.087,2.076-4.621,4.347-7.594,5.448a22.363,22.363,0,0,1-4,.944A19.658,19.658,0,0,0,5215.01,1133.97Z" fill="#342800"/>
    <path id="Trazado_4715" data-name="Trazado 4715" d="M5219.391,1147.623c-.947-2.663-3.5-8.13-1.969-11.024l-4.486-1.75a4.406,4.406,0,0,0-.227,2.513c.3,2.056,1.344,4.163,1.807,6.216a20.426,20.426,0,0,0,2.709,7.149c1.241,1.9,3.286,5.047,5.691,5.571A80.961,80.961,0,0,1,5219.391,1147.623Z" fill="#68533a"/>
    <path id="Trazado_4716" data-name="Trazado 4716" d="M5222.61,1156.449a81.465,81.465,0,0,1-3.54-8.712c-.137-.384-.312-.839-.5-1.32-1.128-2.934-2.832-7.369-1.453-9.977l.6.318c-1.234,2.335.4,6.595,1.487,9.414.187.486.363.944.5,1.337a80.857,80.857,0,0,0,3.509,8.638Z" fill="#342800"/>
    <path id="Trazado_4717" data-name="Trazado 4717" d="M5213.556,1137.739a3.555,3.555,0,0,0,3.75-.987c1.032-1.061,1.195-2.361-.1-3.324-.692-.517-1.9-.411-2.693-.582a1.656,1.656,0,0,1-1.378-1.557c-1.5.157-1.885,2.012-1.868,3.227A3.068,3.068,0,0,0,5213.556,1137.739Z" fill="#a21c26"/>
    <path id="Trazado_4718" data-name="Trazado 4718" d="M5216.124,1129.285c-.048,0-.1,0-.144,0l.039-.681c1.6.1,4.221-1.919,5.629-3l.253-.193a11.619,11.619,0,0,0,2.328-2.652c.163-.235.355-.5.559-.777a12.971,12.971,0,0,0,1.827-2.987l.652.2a13.291,13.291,0,0,1-1.928,3.188c-.2.275-.39.533-.55.763a12.17,12.17,0,0,1-2.474,2.8l-.251.193C5220.522,1127.325,5217.968,1129.285,5216.124,1129.285Z" fill="#342800"/>
    <g id="Grupo_756" data-name="Grupo 756">
      <path id="Trazado_4719" data-name="Trazado 4719" d="M5261.9,1043.121a3.931,3.931,0,0,1,3.106.167,3.268,3.268,0,0,0-5.364,1.972A3.939,3.939,0,0,1,5261.9,1043.121Z" fill="#222221"/>
      <path id="Trazado_4720" data-name="Trazado 4720" d="M5259.64,1045.566a.305.305,0,0,1-.3-.354,3.584,3.584,0,0,1,2.3-2.8,3.541,3.541,0,0,1,1.23-.22,3.59,3.59,0,0,1,2.3.84.3.3,0,0,1-.162.564h0a.3.3,0,0,1-.134-.031,3.672,3.672,0,0,0-2.866-.155,3.618,3.618,0,0,0-2.084,1.974A.3.3,0,0,1,5259.64,1045.566Z" fill="#222221"/>
    </g>
    <g id="Grupo_757" data-name="Grupo 757">
      <path id="Trazado_4721" data-name="Trazado 4721" d="M5509.751,1127.924a3.768,3.768,0,0,0-2.564.831,3.131,3.131,0,0,1,5.05.211A3.758,3.758,0,0,0,5509.751,1127.924Z" fill="#5e4f44"/>
      <path id="Trazado_4722" data-name="Trazado 4722" d="M5512.237,1129.086a.123.123,0,0,1-.085-.035,3.759,3.759,0,0,0-4.888-.2.12.12,0,0,1-.175-.162,3.1,3.1,0,0,1,2.681-1.226,3.131,3.131,0,0,1,2.555,1.42.121.121,0,0,1-.083.207Zm-2.657-1.286c.058,0,.117,0,.176,0a4.055,4.055,0,0,1,1.526.362,3.157,3.157,0,0,0-3.105-.118A4.056,4.056,0,0,1,5509.58,1127.8Z" fill="#5e4f44"/>
    </g>
    <path id="Trazado_4723" data-name="Trazado 4723" d="M5265.4,1116.011l-9.958-2.479-11.271-21.915.911-.468,11.059,21.5,9.507,2.367Z" fill="#8b7358"/>
    <path id="Trazado_4724" data-name="Trazado 4724" d="M5270.862,1107.863l-11.6-3-7.678-16.951.933-.422,7.476,16.5,11.127,2.874Z" fill="#8b7358"/>
  </g>
</svg>
