<svg xmlns="http://www.w3.org/2000/svg" width="353.524" height="253.282" viewBox="0 0 353.524 253.282">
  <g id="Grupo_897" data-name="Grupo 897" transform="translate(-5187.224 -5207.473)">
    <path id="Trazado_4969" data-name="Trazado 4969" d="M5193.85,5426.594c5.339-6.25,21.346,4.771,26.1,8.275-2.227-4.084-4.031-7.795-5.429-10.876-5.223-.96-33.461-6.582-26.074-14.589,6.956-7.54,21.051,8.474,25.528,13.372-1.558-3.515-2.525-6.054-2.931-7.163-5.705-8.447-20.869-33.766-15.189-38.407,5.74-4.691,13.993,27.49,16.5,37.946.275.75.811,2.167,1.62,4.108-1.078-8.078-4.129-32.864,2.2-33.222,6.7-.379-.112,28.608-1.6,34.635,1.112,2.588,2.613,5.871,4.52,9.6-.238-6.115-.594-27.071,5.57-29.356,6.529-2.42-3.221,24.856-5.164,30.145a163.3,163.3,0,0,0,8.455,14.472.693.693,0,1,1-1.158.76q-.7-1.069-1.371-2.126c-4.678,1.583-26.615,8.69-23.683,1.74,2.8-6.634,18.7-3.429,23.3-2.347-1.672-2.665-3.191-5.259-4.558-7.727C5215.363,5435.483,5188.137,5433.281,5193.85,5426.594Z" fill="#7791eb"/>
    <g id="Grupo_843" data-name="Grupo 843">
      <path id="Trazado_4970" data-name="Trazado 4970" d="M5495.856,5380.234c1.222.033,43.9-59.356,32.554-69.441S5495.856,5380.234,5495.856,5380.234Z" fill="#4c62bc"/>
      <path id="Trazado_4971" data-name="Trazado 4971" d="M5493.558,5386c.037-1.361,12.14-60.225-.663-61.486S5493.558,5386,5493.558,5386Z" fill="#4c62bc"/>
      <path id="Trazado_4972" data-name="Trazado 4972" d="M5491.591,5390c1.536-.265,33.909-39.1,47.24-23.383S5491.591,5390,5491.591,5390Z" fill="#4c62bc"/>
      <path id="Trazado_4973" data-name="Trazado 4973" d="M5480.522,5409.752s37.513-27.11,47.8-14S5480.522,5409.752,5480.522,5409.752Z" fill="#4c62bc"/>
      <path id="Trazado_4974" data-name="Trazado 4974" d="M5484.462,5403.134s5.008-48.56-7.212-53.677S5484.462,5403.134,5484.462,5403.134Z" fill="#4c62bc"/>
      <path id="Trazado_4975" data-name="Trazado 4975" d="M5471.381,5423.107s36.941-8.33,42.016,5.254S5471.381,5423.107,5471.381,5423.107Z" fill="#4c62bc"/>
      <g id="Grupo_842" data-name="Grupo 842">
        <path id="Trazado_4976" data-name="Trazado 4976" d="M5469.374,5427.73a1.187,1.187,0,0,0,.968-.5,268.561,268.561,0,0,0,29.665-52.62,1.191,1.191,0,1,0-2.22-.862,266.128,266.128,0,0,1-29.379,52.093,1.192,1.192,0,0,0,.966,1.886Z" fill="#4c62bc"/>
      </g>
    </g>
    <g id="Grupo_844" data-name="Grupo 844">
      <path id="Trazado_4977" data-name="Trazado 4977" d="M5486,5366.085c-6.367-38.91-14.353-45.984-12.836-56.242,0,0-5.2,12.734-11.217,19.1s-29.006,32.9-31.128,71.806,16.979,49.875,16.979,49.875S5492.367,5404.994,5486,5366.085Z" fill="#bfc6da"/>
      <path id="Trazado_4978" data-name="Trazado 4978" d="M5449,5411.985a1.2,1.2,0,0,1,.072-.562c1.165-9.112,2.859-19.492,5.315-30.8-.012-.035-.029-.067-.038-.1l-5.567-22.442a1.191,1.191,0,0,1,2.312-.573l4.454,17.956a361.581,361.581,0,0,1,10.367-36.051,1.19,1.19,0,1,1,2.251.776,360.025,360.025,0,0,0-10.724,37.655l17.371-9.324a1.191,1.191,0,0,1,1.126,2.1l-19.179,10.295c-2.265,10.391-3.88,19.992-5.03,28.539l23-14.69a1.191,1.191,0,0,1,1.282,2.007l-24.689,15.765c-2.9,23.132-2.352,37.776-2.341,38.041a1.189,1.189,0,0,1-1.138,1.241l-.052,0a1.192,1.192,0,0,1-1.189-1.14C5446.6,5450.407,5446.032,5435.5,5449,5411.985Z" fill="#91a5e9"/>
    </g>
    <path id="Trazado_4979" data-name="Trazado 4979" d="M5442.492,5454.869s45.984-1.768,53.766-49.521C5496.258,5405.348,5459.824,5395.444,5442.492,5454.869Z" fill="#91a5e9"/>
    <g id="Grupo_866" data-name="Grupo 866">
      <path id="Trazado_4980" data-name="Trazado 4980" d="M5384.464,5207.473a7.766,7.766,0,1,0,7.767,7.767A7.767,7.767,0,0,0,5384.464,5207.473Zm0,11.9a4.137,4.137,0,1,1,4.137-4.137A4.137,4.137,0,0,1,5384.464,5219.377Z" fill="#121f63"/>
      <rect id="Rectángulo_986" data-name="Rectángulo 986" width="157.556" height="236.769" rx="68.602" transform="translate(5306.944 5218.506)" fill="#203497"/>
      <rect id="Rectángulo_987" data-name="Rectángulo 987" width="155.04" height="234.592" rx="15.612" transform="translate(5306.944 5218.506)" fill="#4c62bc"/>
      <rect id="Rectángulo_988" data-name="Rectángulo 988" width="130.071" height="199.751" transform="translate(5315.962 5238.447) rotate(-2.755)" fill="#bfc6da"/>
      <rect id="Rectángulo_989" data-name="Rectángulo 989" width="130.071" height="199.751" transform="translate(5320.687 5238.883)" fill="#fff"/>
      <g id="Grupo_845" data-name="Grupo 845">
        <path id="Trazado_4981" data-name="Trazado 4981" d="M5347.954,5233.749h-2.322V5221.99a1.161,1.161,0,0,1,1.161-1.161h14.372v2.323h-13.211Z" fill="#121f63"/>
      </g>
      <g id="Grupo_846" data-name="Grupo 846">
        <path id="Trazado_4982" data-name="Trazado 4982" d="M5420.974,5233.749h2.323V5221.99a1.162,1.162,0,0,0-1.162-1.161h-14.371v2.323h13.21Z" fill="#121f63"/>
      </g>
      <rect id="Rectángulo_990" data-name="Rectángulo 990" width="65.326" height="12.194" rx="6.097" transform="translate(5351.801 5215.893)" fill="#cfd7ed"/>
      <path id="Trazado_4983" data-name="Trazado 4983" d="M5400.589,5247.081h-8.507a7.488,7.488,0,0,0-14.8,0h-8.507a1.161,1.161,0,1,0,0,2.323h9.569a1.161,1.161,0,0,0,1.161-1.162,5.177,5.177,0,1,1,10.354,0,1.161,1.161,0,0,0,1.161,1.162h9.569a1.161,1.161,0,0,0,0-2.323Z" fill="#121f63"/>
      <g id="Grupo_847" data-name="Grupo 847">
        <path id="Trazado_4984" data-name="Trazado 4984" d="M5367.552,5251.6h-20.9a3.194,3.194,0,0,1-3.194-3.194v-16.259a3.194,3.194,0,0,1,6.388,0v13.065h17.71a3.194,3.194,0,1,1,0,6.388Z" fill="#203497"/>
      </g>
      <g id="Grupo_848" data-name="Grupo 848">
        <path id="Trazado_4985" data-name="Trazado 4985" d="M5401.376,5251.6h20.9a3.2,3.2,0,0,0,3.194-3.194v-16.259a3.194,3.194,0,1,0-6.387,0v13.065h-17.711a3.194,3.194,0,0,0,0,6.388Z" fill="#203497"/>
      </g>
      <rect id="Rectángulo_991" data-name="Rectángulo 991" width="40.841" height="40.841" rx="20.42" transform="translate(5330.559 5258.766)" fill="#cfd7ed"/>
      <g id="Grupo_850" data-name="Grupo 850">
        <path id="Trazado_4986" data-name="Trazado 4986" d="M5349.143,5262.708c.415.311.822-.974,2.444-.974s4.028-.4,5.975,3.952,1.547,4.811,2.979,5.441,2.749.974,2.863,2.864-.916,3.093,0,4.124,3.093.63,3.38,3.322-.985,2.9.03,4.3a2.031,2.031,0,0,1-1.162,3.179,1.5,1.5,0,0,1-1.331-.3s-.258,1.589-1.461,1.632-1.546-.6-1.546-.6-.8,1.08-1.418,1.117c-1.417.086-1.589-.473-1.906-.945,0,0-.64,1.214-1.487,1.288-.733.065-1.633-1.374-1.633-1.374s.129,1.755-1.117,1.72c-1.58-.045-1.5-1.291-1.5-1.291s-.645,1.475-1.8,1.272a1.486,1.486,0,0,1-1.226-1.347s-.638,1.6-1.824,1.312a1.825,1.825,0,0,1-1.418-1.237s-.387,1.418-1.546.945a2.154,2.154,0,0,1-1.246-1.761s-1.236,1.7-2.512.85a2.479,2.479,0,0,1-.8-2.439,3.728,3.728,0,0,1-2.148.515c-1.166-.231-2.037-1.481-.687-3.05,1.589-1.847-.6-4.167.043-5.283s2.019-1.289,2.277-2.793-.559-3.622.945-4.5,1.761-.058,2.448-2.206-.172-5.584,2.449-7.131S5348.57,5262.278,5349.143,5262.708Z" fill="#7f5e40"/>
        <g id="Grupo_849" data-name="Grupo 849">
          <path id="Trazado_4987" data-name="Trazado 4987" d="M5355.344,5293.078a7.491,7.491,0,0,1-7.09.129c.5-2.873.8-7.47.95-10.431.087-1.687.126-2.842.126-2.842h4.752c.023.8.092,1.842.186,2.988C5354.624,5287.253,5355.344,5293.078,5355.344,5293.078Z" fill="#e9c0ad"/>
          <path id="Trazado_4988" data-name="Trazado 4988" d="M5354.268,5282.922a5.021,5.021,0,0,1-2.154,1.221,3.564,3.564,0,0,1-2.91-1.367c.087-1.687.126-2.842.126-2.842h4.752C5354.1,5280.734,5354.174,5281.776,5354.268,5282.922Z" fill="#be8b7d"/>
          <path id="Trazado_4989" data-name="Trazado 4989" d="M5356.172,5276.884c-.55,1.076.273,1.494-.271,2.355h0a6.836,6.836,0,0,1-1.418,1.552,4.654,4.654,0,0,1-2.9,1.063,4.587,4.587,0,0,1-2.69-.907,6.213,6.213,0,0,1-1.1-1.014v0c-.016-.071.3-1.96-.813-2.927-.983-.855.131-1.972.131-2.71,0-.687-.378-.688-.244-1.809.108-.9-.3-1.775-.221-2.619.081-.9,1.375-1.518,1.6-1.861.343-.515.405-1.064.609-1.02a.3.3,0,0,0,.281-.076c.228-.228,2.511-1.134,2.89-.222.476,1.146.1,1.706.487,2.292.645.982,1.764.948,2.578,1.66s.8,2.141.778,3.269C5355.862,5274.785,5356.818,5275.623,5356.172,5276.884Z" fill="#e9c0ad"/>
        </g>
      </g>
      <path id="Trazado_4990" data-name="Trazado 4990" d="M5348.969,5286.6s-7.4,3.184-8.636,4.853-5.008,8.159-5.008,8.159H5367.7s-2.891-6.333-5.371-8.159-7.781-4.853-7.781-4.853A7.284,7.284,0,0,1,5348.969,5286.6Z" fill="#121f63"/>
      <g id="Grupo_864" data-name="Grupo 864">
        <g id="Grupo_851" data-name="Grupo 851">
          <path id="Trazado_4991" data-name="Trazado 4991" d="M5400.882,5267.735v-8.851h2.494l1.976,6.912,1.977-6.912h2.507v8.851h-1.447v-7.262h-.194l-2.093,6.9h-1.5l-2.093-6.9h-.194v7.262Z" fill="#121f63"/>
          <path id="Trazado_4992" data-name="Trazado 4992" d="M5416.283,5266.572l.361-.039.027,1.047a13.421,13.421,0,0,1-2.611.3,2.48,2.48,0,0,1-2.06-.788,4.055,4.055,0,0,1-.627-2.52q0-3.437,2.8-3.437,2.712,0,2.713,2.959l-.09,1.008h-4.006a1.771,1.771,0,0,0,.349,1.175,1.646,1.646,0,0,0,1.254.375Q5415.313,5266.649,5416.283,5266.572Zm-.776-2.558a2.206,2.206,0,0,0-.3-1.338,1.24,1.24,0,0,0-1.027-.381,1.288,1.288,0,0,0-1.053.4,2.123,2.123,0,0,0-.342,1.318Z" fill="#121f63"/>
          <path id="Trazado_4993" data-name="Trazado 4993" d="M5423.583,5258.587v9.148h-1.4v-.336a3.867,3.867,0,0,1-1.731.478,2.191,2.191,0,0,1-1.854-.763,4.266,4.266,0,0,1-.588-2.558,4.178,4.178,0,0,1,.653-2.61,2.451,2.451,0,0,1,2.035-.814,10.091,10.091,0,0,1,1.473.168v-2.713Zm-1.628,7.8.22-.09v-3.825a8.781,8.781,0,0,0-1.435-.129q-1.305,0-1.3,2.17a3.188,3.188,0,0,0,.3,1.648,1.07,1.07,0,0,0,.963.458A3.412,3.412,0,0,0,5421.955,5266.391Z" fill="#121f63"/>
          <path id="Trazado_4994" data-name="Trazado 4994" d="M5425.353,5260.176v-1.486h1.408v1.486Zm0,7.559v-6.461h1.408v6.461Z" fill="#121f63"/>
          <path id="Trazado_4995" data-name="Trazado 4995" d="M5430.948,5261.132a8.582,8.582,0,0,1,1.615.181l.323.065-.052,1.111q-1.02-.1-1.512-.1a1.591,1.591,0,0,0-1.318.439,2.886,2.886,0,0,0-.335,1.654,3.116,3.116,0,0,0,.323,1.679,1.554,1.554,0,0,0,1.343.465l1.512-.1.039,1.125a12.417,12.417,0,0,1-1.964.232,2.442,2.442,0,0,1-2.074-.795,4.387,4.387,0,0,1-.6-2.6,4.091,4.091,0,0,1,.633-2.578A2.533,2.533,0,0,1,5430.948,5261.132Z" fill="#121f63"/>
          <path id="Trazado_4996" data-name="Trazado 4996" d="M5439.088,5263.264v2.946a.615.615,0,0,0,.148.42.718.718,0,0,0,.42.174l-.038,1.073a2.722,2.722,0,0,1-1.719-.478,4.91,4.91,0,0,1-2.08.478q-1.926,0-1.925-2.054a1.758,1.758,0,0,1,.523-1.422,2.854,2.854,0,0,1,1.609-.53l1.667-.141v-.466a.783.783,0,0,0-.892-.93q-.828,0-2.067.1l-.414.026-.052-1a11.251,11.251,0,0,1,2.591-.336,2.381,2.381,0,0,1,1.706.511A2.18,2.18,0,0,1,5439.088,5263.264Zm-2.9,1.6a.869.869,0,0,0-.891.97q0,.891.788.891a4.977,4.977,0,0,0,1.37-.207l.233-.078v-1.718Z" fill="#121f63"/>
          <path id="Trazado_4997" data-name="Trazado 4997" d="M5441,5267.735v-9.148h1.408v9.148Z" fill="#121f63"/>
        </g>
        <g id="Grupo_852" data-name="Grupo 852">
          <path id="Trazado_4998" data-name="Trazado 4998" d="M5357.1,5305.7h-26.541a1.452,1.452,0,1,1,0-2.9H5357.1a1.452,1.452,0,1,1,0,2.9Z" fill="#91a5e9"/>
        </g>
        <g id="Grupo_853" data-name="Grupo 853">
          <path id="Trazado_4999" data-name="Trazado 4999" d="M5357.1,5372.384h-26.541a1.451,1.451,0,1,1,0-2.9H5357.1a1.451,1.451,0,1,1,0,2.9Z" fill="#91a5e9"/>
        </g>
        <g id="Grupo_854" data-name="Grupo 854">
          <path id="Trazado_5000" data-name="Trazado 5000" d="M5409.143,5311.317h-78.584a1.451,1.451,0,1,1,0-2.9h78.584a1.451,1.451,0,0,1,0,2.9Z" fill="#91a5e9"/>
        </g>
        <g id="Grupo_855" data-name="Grupo 855">
          <path id="Trazado_5001" data-name="Trazado 5001" d="M5439.531,5311.317h-11.613a1.451,1.451,0,1,1,0-2.9h11.613a1.451,1.451,0,1,1,0,2.9Z" fill="#91a5e9"/>
        </g>
        <rect id="Rectángulo_992" data-name="Rectángulo 992" width="9.291" height="9.291" rx="4.645" transform="translate(5413.014 5302.026)" fill="#cfd7ed"/>
        <g id="Grupo_856" data-name="Grupo 856">
          <path id="Trazado_5002" data-name="Trazado 5002" d="M5375.076,5320.221h-44.517a1.452,1.452,0,1,1,0-2.9h44.517a1.452,1.452,0,1,1,0,2.9Z" fill="#91a5e9"/>
        </g>
        <g id="Grupo_857" data-name="Grupo 857">
          <path id="Trazado_5003" data-name="Trazado 5003" d="M5426.95,5320.221h-36a1.452,1.452,0,1,1,0-2.9h36a1.452,1.452,0,1,1,0,2.9Z" fill="#91a5e9"/>
        </g>
        <g id="Grupo_858" data-name="Grupo 858">
          <path id="Trazado_5004" data-name="Trazado 5004" d="M5439.531,5360.287H5330.559a1.452,1.452,0,1,1,0-2.9h108.972a1.452,1.452,0,1,1,0,2.9Z" fill="#91a5e9"/>
        </g>
        <g id="Grupo_859" data-name="Grupo 859">
          <path id="Trazado_5005" data-name="Trazado 5005" d="M5439.531,5366.336H5330.559a1.452,1.452,0,1,1,0-2.9h108.972a1.452,1.452,0,1,1,0,2.9Z" fill="#91a5e9"/>
        </g>
        <g id="Grupo_860" data-name="Grupo 860">
          <path id="Trazado_5006" data-name="Trazado 5006" d="M5438.08,5414.871H5330.559a1.452,1.452,0,0,1,0-2.9H5438.08a1.452,1.452,0,0,1,0,2.9Z" fill="#91a5e9"/>
        </g>
        <g id="Grupo_861" data-name="Grupo 861">
          <path id="Trazado_5007" data-name="Trazado 5007" d="M5439.531,5425.323H5386.5a.871.871,0,1,1,0-1.742h53.034a.871.871,0,0,1,0,1.742Z" fill="#91a5e9"/>
        </g>
        <g id="Grupo_862" data-name="Grupo 862">
          <path id="Trazado_5008" data-name="Trazado 5008" d="M5439.531,5429.581H5414.8a.871.871,0,0,1,0-1.742h24.727a.871.871,0,0,1,0,1.742Z" fill="#91a5e9"/>
        </g>
        <rect id="Rectángulo_993" data-name="Rectángulo 993" width="31.743" height="4.839" rx="2.419" transform="translate(5329.107 5324.382)" fill="#cfd7ed"/>
        <rect id="Rectángulo_994" data-name="Rectángulo 994" width="31.743" height="4.839" rx="2.419" transform="translate(5329.107 5333.383)" fill="#cfd7ed"/>
        <rect id="Rectángulo_995" data-name="Rectángulo 995" width="43.357" height="4.839" rx="2.419" transform="translate(5329.107 5379.208)" fill="#cfd7ed"/>
        <rect id="Rectángulo_996" data-name="Rectángulo 996" width="43.357" height="4.839" rx="2.419" transform="translate(5329.107 5388.208)" fill="#cfd7ed"/>
        <rect id="Rectángulo_997" data-name="Rectángulo 997" width="43.357" height="4.839" rx="2.419" transform="translate(5380.69 5388.208)" fill="#cfd7ed"/>
        <rect id="Rectángulo_998" data-name="Rectángulo 998" width="43.357" height="4.839" rx="2.419" transform="translate(5329.107 5397.547)" fill="#cfd7ed"/>
        <rect id="Rectángulo_999" data-name="Rectángulo 999" width="20.13" height="4.839" rx="2.419" transform="translate(5380.69 5397.547)" fill="#cfd7ed"/>
        <rect id="Rectángulo_1000" data-name="Rectángulo 1000" width="28.477" height="4.839" rx="2.419" transform="translate(5411.054 5397.547)" fill="#cfd7ed"/>
        <rect id="Rectángulo_1001" data-name="Rectángulo 1001" width="31.743" height="4.839" rx="2.419" transform="translate(5390.948 5324.382)" fill="#cfd7ed"/>
        <rect id="Rectángulo_1002" data-name="Rectángulo 1002" width="31.743" height="4.839" rx="2.419" transform="translate(5390.948 5333.383)" fill="#cfd7ed"/>
        <rect id="Rectángulo_1003" data-name="Rectángulo 1003" width="31.743" height="4.839" rx="2.419" transform="translate(5329.107 5342.383)" fill="#cfd7ed"/>
        <g id="Grupo_863" data-name="Grupo 863">
          <path id="Trazado_5009" data-name="Trazado 5009" d="M5405.993,5282.7h-1.408v-9.148h1.408v3.024a3.988,3.988,0,0,1,1.771-.478,1.939,1.939,0,0,1,1.763.73,4.622,4.622,0,0,1,.472,2.41v3.462h-1.409v-3.424a3.608,3.608,0,0,0-.219-1.486.938.938,0,0,0-.931-.439,3.891,3.891,0,0,0-1.24.207l-.207.077Z" fill="#121f63"/>
          <path id="Trazado_5010" data-name="Trazado 5010" d="M5411.7,5275.142v-1.487h1.408v1.487Zm0,7.558v-6.461h1.408v6.461Z" fill="#121f63"/>
          <path id="Trazado_5011" data-name="Trazado 5011" d="M5419.366,5277.57a18.8,18.8,0,0,0-2.21-.206,1.962,1.962,0,0,0-.949.162.551.551,0,0,0-.265.51.5.5,0,0,0,.291.49,6.443,6.443,0,0,0,1.369.33,3.152,3.152,0,0,1,1.531.588,1.835,1.835,0,0,1,.453,1.422,1.731,1.731,0,0,1-.653,1.5,3.2,3.2,0,0,1-1.906.478,11.43,11.43,0,0,1-1.99-.22l-.4-.064.052-1.176a19.155,19.155,0,0,0,2.235.207,2.065,2.065,0,0,0,.975-.168.59.59,0,0,0,.291-.555.555.555,0,0,0-.278-.537,5.5,5.5,0,0,0-1.331-.323,3.533,3.533,0,0,1-1.544-.549,1.631,1.631,0,0,1-.491-1.369,1.716,1.716,0,0,1,.679-1.487,2.891,2.891,0,0,1,1.738-.49,12.307,12.307,0,0,1,2.028.206l.4.078Z" fill="#121f63"/>
          <path id="Trazado_5012" data-name="Trazado 5012" d="M5424.483,5277.441H5422.7v2.843a3.04,3.04,0,0,0,.116,1.047q.116.258.6.258l1.059-.039.065,1.124a7.515,7.515,0,0,1-1.318.168,1.853,1.853,0,0,1-1.5-.5,3.165,3.165,0,0,1-.407-1.9v-3h-.827v-1.2h.827v-1.873h1.4v1.873h1.783Z" fill="#121f63"/>
          <path id="Trazado_5013" data-name="Trazado 5013" d="M5426.052,5276.938a3.344,3.344,0,0,1,4.432,0,4,4,0,0,1,.665,2.519,4.158,4.158,0,0,1-.646,2.533,3.358,3.358,0,0,1-4.47,0,4.158,4.158,0,0,1-.646-2.533A4.01,4.01,0,0,1,5426.052,5276.938Zm1.053,4.2a1.57,1.57,0,0,0,2.326,0,3.585,3.585,0,0,0,.3-1.693,3.237,3.237,0,0,0-.316-1.667,1.578,1.578,0,0,0-2.287,0,3.225,3.225,0,0,0-.317,1.667A3.585,3.585,0,0,0,5427.1,5281.137Z" fill="#121f63"/>
          <path id="Trazado_5014" data-name="Trazado 5014" d="M5432.61,5282.7v-6.461h1.4v.776a6.13,6.13,0,0,1,2.2-.917v1.408a9.057,9.057,0,0,0-1.9.569l-.284.116v4.509Z" fill="#121f63"/>
          <path id="Trazado_5015" data-name="Trazado 5015" d="M5436.744,5276.239h1.382l1.37,5.259h.349l1.369-5.259h1.4l-2.455,9.239h-1.383l.776-2.778h-1.111Z" fill="#121f63"/>
        </g>
      </g>
      <path id="Trazado_5016" data-name="Trazado 5016" d="M5417.127,5222.112v2.613a3.36,3.36,0,0,1-3.362,3.362h-58.6a3.361,3.361,0,0,1-3.362-3.362v-2.613a3.361,3.361,0,0,0,3.362,3.362h58.6A3.36,3.36,0,0,0,5417.127,5222.112Z" fill="#b2b8c9"/>
      <g id="Grupo_865" data-name="Grupo 865">
        <path id="Trazado_5017" data-name="Trazado 5017" d="M5412.336,5219.632h-56.18a1.125,1.125,0,0,1,0-2.251h56.18a1.125,1.125,0,1,1,0,2.251Z" fill="#fff"/>
      </g>
    </g>
    <g id="Grupo_867" data-name="Grupo 867">
      <path id="Trazado_5018" data-name="Trazado 5018" d="M5332.263,5454.827h-87.811l-28.752-.106V5282.535h18.676v5.424s-5.483,3.708-3.409,8.228c2.346,5.171,9.936,5.124,11.538.5s-3.516-8.733-3.516-8.733l.206-5.424h12.422l.08,5.125s-3.948,2.419-4.214,6.466c-.3,4.4,9.371,8.076,12.182,3.616,4.374-6.925-2.253-9.757-2.253-9.757l-.379-5.45h13.944l-.252,5.41s-3.882,3.264-3.882,6.879,8.567,9.591,12.854,2.174c3.33-5.723-3.662-9.485-3.662-9.485l-.166-4.978h12.821l.8,6.168s-4.314,2.22-4.314,6.626c0,4.427,6.281,7.112,9.89,2.572s-1.057-9.544-1.057-9.544l.18-5.822h11.784l.285,5.424s-4.273.5-2.465,7.53,12.807,6.626,12.807-.6-5.264-7.384-5.264-7.384l.372-4.965h15.732l.8,28.433v.007Z" fill="#e5e5e6"/>
      <path id="Trazado_5019" data-name="Trazado 5019" d="M5332.263,5454.827h-87.811l83.79-143.852Z" fill="#cfd7ed"/>
      <rect id="Rectángulo_1004" data-name="Rectángulo 1004" width="90.004" height="5.7" rx="2.85" transform="translate(5229.76 5318.301)" fill="#91a5e9"/>
      <rect id="Rectángulo_1005" data-name="Rectángulo 1005" width="76.501" height="5.7" rx="2.85" transform="translate(5229.76 5331.375)" fill="#91a5e9"/>
      <path id="Trazado_5020" data-name="Trazado 5020" d="M5313.053,5374.381H5232.61a2.85,2.85,0,0,1-2.85-2.85h0a2.85,2.85,0,0,1,2.85-2.85h80.443a2.85,2.85,0,0,1,2.85,2.85h0A2.85,2.85,0,0,1,5313.053,5374.381Z" fill="#91a5e9"/>
      <rect id="Rectángulo_1006" data-name="Rectángulo 1006" width="38.733" height="5.7" rx="2.85" transform="translate(5229.76 5381.212)" fill="#91a5e9"/>
      <rect id="Rectángulo_1007" data-name="Rectángulo 1007" width="61.533" height="5.7" rx="2.85" transform="translate(5229.76 5405.388)" fill="#91a5e9"/>
    </g>
    <g id="Grupo_870" data-name="Grupo 870">
      <path id="Trazado_5021" data-name="Trazado 5021" d="M5241.361,5437.449l-35.544,16.464a9.262,9.262,0,0,1-7.786-16.807l35.541-16.465a9.263,9.263,0,0,1,7.789,16.808Z" fill="#7791eb"/>
      <path id="Trazado_5022" data-name="Trazado 5022" d="M5193.521,5449.4a9.259,9.259,0,0,1,4.511-12.3l17.77-8.233,7.787,16.81-17.77,8.232A9.264,9.264,0,0,1,5193.521,5449.4Z" fill="#bfc6da"/>
      <path id="Trazado_5023" data-name="Trazado 5023" d="M5241.361,5437.449l-35.544,16.464a9.218,9.218,0,0,1-7.514.119c48.647-20.79,47.567-28.881,47.567-28.881A9.262,9.262,0,0,1,5241.361,5437.449Z" fill="#172461" opacity="0.32"/>
      <g id="Grupo_868" data-name="Grupo 868" opacity="0.76">
        <path id="Trazado_5024" data-name="Trazado 5024" d="M5199.2,5441.879l-.814.376a1.248,1.248,0,1,1-1.048-2.265l.814-.377a1.248,1.248,0,0,1,1.048,2.266Z" fill="#fff"/>
      </g>
      <g id="Grupo_869" data-name="Grupo 869" opacity="0.76">
        <path id="Trazado_5025" data-name="Trazado 5025" d="M5207.027,5438.26l-4.319,2a1.248,1.248,0,1,1-1.048-2.266l4.32-2a1.248,1.248,0,1,1,1.047,2.266Z" fill="#fff"/>
      </g>
    </g>
    <g id="Grupo_873" data-name="Grupo 873">
      <path id="Trazado_5026" data-name="Trazado 5026" d="M5263.469,5445.887v.006c0,.156,0,.312-.013.465,0,.1-.012.2-.022.3a9.259,9.259,0,0,1-9.23,8.5h-39.167a9.229,9.229,0,0,1-6.6-2.765,8.994,8.994,0,0,1-.661-.749,9.26,9.26,0,0,1,7.261-15.013H5254.2a9.265,9.265,0,0,1,8.909,6.725h0c.081.287.15.58.2.88.015.084.031.172.043.256.019.118.035.234.047.356.013.1.022.2.028.3.007.072.013.144.016.219s.006.131.009.2C5263.465,5445.668,5263.469,5445.778,5263.469,5445.887Z" fill="#7791eb"/>
      <path id="Trazado_5027" data-name="Trazado 5027" d="M5263.468,5445.891a9.26,9.26,0,0,1-9.263,9.263H5234.62v-18.525h19.585A9.263,9.263,0,0,1,5263.468,5445.891Z" fill="#bfc6da"/>
      <path id="Trazado_5028" data-name="Trazado 5028" d="M5263.469,5445.765v.128c0,.156,0,.312-.013.465,0,.1-.012.2-.022.3a9.463,9.463,0,0,1-9.424,8.5h-38.973a9.229,9.229,0,0,1-6.6-2.765c53.861,4.475,54.676-9.037,54.676-9.037h0c.081.287.15.58.2.88.015.084.031.172.043.256.019.118.035.234.047.356.013.1.022.2.028.3.007.072.013.144.016.219s.006.131.009.2S5263.469,5445.7,5263.469,5445.765Z" fill="#172461" opacity="0.32"/>
      <g id="Grupo_871" data-name="Grupo 871" opacity="0.76">
        <path id="Trazado_5029" data-name="Trazado 5029" d="M5214.174,5442.017h-.9a1.248,1.248,0,0,1,0-2.5h.9a1.248,1.248,0,1,1,0,2.5Z" fill="#fff"/>
      </g>
      <g id="Grupo_872" data-name="Grupo 872" opacity="0.76">
        <path id="Trazado_5030" data-name="Trazado 5030" d="M5222.795,5442.017h-4.759a1.248,1.248,0,0,1,0-2.5h4.759a1.248,1.248,0,0,1,0,2.5Z" fill="#fff"/>
      </g>
    </g>
    <g id="Grupo_876" data-name="Grupo 876">
      <path id="Trazado_5031" data-name="Trazado 5031" d="M5495.118,5379.454v71.876a3.822,3.822,0,0,1-3.822,3.822h-28.073a3.826,3.826,0,0,1-3.822-3.822v-71.876Z" fill="#e5e5e6"/>
      <path id="Trazado_5032" data-name="Trazado 5032" d="M5500.449,5368.483v13.9H5454.07v-13.9a4.221,4.221,0,0,1,4.222-4.222h37.935A4.221,4.221,0,0,1,5500.449,5368.483Z" fill="#bfc6da"/>
      <rect id="Rectángulo_1008" data-name="Rectángulo 1008" width="35.717" height="33.227" transform="translate(5459.401 5395.982)" fill="#91a5e9"/>
      <circle id="Elipse_67" data-name="Elipse 67" cx="12.727" cy="12.727" r="12.727" transform="translate(5464.532 5399.868)" fill="#7791eb"/>
      <path id="Trazado_5033" data-name="Trazado 5033" d="M5480.1,5409.752v-5.687h-5.687v5.687h-5.687v5.687h5.687v5.687h5.687v-5.687h5.687v-5.687Z" fill="#fff"/>
      <path id="Trazado_5034" data-name="Trazado 5034" d="M5495.118,5379.454v71.876a3.822,3.822,0,0,1-3.822,3.822h-28.073a3.812,3.812,0,0,1-3.209-1.748c8.183.8,21.306-1.679,25-5.369,4.4-4.4.778-68.581.778-68.581Z" fill="#172461" opacity="0.23"/>
      <g id="Grupo_874" data-name="Grupo 874" opacity="0.46">
        <path id="Trazado_5035" data-name="Trazado 5035" d="M5465.286,5392.95a2.4,2.4,0,0,1-2.4-2.4v-3.021a2.4,2.4,0,1,1,4.8,0v3.021A2.4,2.4,0,0,1,5465.286,5392.95Z" fill="#fff"/>
      </g>
      <g id="Grupo_875" data-name="Grupo 875" opacity="0.46">
        <path id="Trazado_5036" data-name="Trazado 5036" d="M5465.286,5439.328a2.4,2.4,0,0,1-2.4-2.4v-37.061a2.4,2.4,0,1,1,4.8,0v37.061A2.4,2.4,0,0,1,5465.286,5439.328Z" fill="#fff"/>
      </g>
      <path id="Trazado_5037" data-name="Trazado 5037" d="M5500.449,5368.483v13.9H5454.07V5377.4c21.789,1.955,35.917,1.244,40.092-2.132s2.065-11.008,2.065-11.008A4.221,4.221,0,0,1,5500.449,5368.483Z" fill="#91a5e9"/>
      <rect id="Rectángulo_1009" data-name="Rectángulo 1009" width="3.598" height="18.125" transform="translate(5459.822 5364.261)" fill="#91a5e9"/>
      <rect id="Rectángulo_1010" data-name="Rectángulo 1010" width="3.604" height="18.125" transform="translate(5465.084 5364.261)" fill="#91a5e9"/>
      <rect id="Rectángulo_1011" data-name="Rectángulo 1011" width="3.598" height="18.125" transform="translate(5470.351 5364.261)" fill="#91a5e9"/>
      <rect id="Rectángulo_1012" data-name="Rectángulo 1012" width="3.593" height="18.125" transform="translate(5475.618 5364.261)" fill="#91a5e9"/>
      <rect id="Rectángulo_1013" data-name="Rectángulo 1013" width="3.598" height="18.125" transform="translate(5480.879 5364.261)" fill="#91a5e9"/>
      <rect id="Rectángulo_1014" data-name="Rectángulo 1014" width="3.604" height="18.125" transform="translate(5486.141 5364.261)" fill="#91a5e9"/>
      <rect id="Rectángulo_1015" data-name="Rectángulo 1015" width="3.598" height="18.125" transform="translate(5491.408 5364.261)" fill="#91a5e9"/>
    </g>
    <g id="Grupo_878" data-name="Grupo 878">
      <path id="Trazado_5038" data-name="Trazado 5038" d="M5271.462,5341.967v-.8a8.644,8.644,0,0,0-8.643-8.643h-18.276a8.644,8.644,0,0,0-8.643,8.643v.8a8.644,8.644,0,0,0,8.643,8.644h17.985c1.6,1.057,6.853,4.5,6.547,3.884-.246-.5-1.1-3.435-1.608-5.242A8.636,8.636,0,0,0,5271.462,5341.967Z" fill="#203497"/>
      <g id="Grupo_877" data-name="Grupo 877">
        <circle id="Elipse_68" data-name="Elipse 68" cx="1.371" cy="1.371" r="1.371" transform="translate(5247.512 5340.803)" fill="#7791eb"/>
        <circle id="Elipse_69" data-name="Elipse 69" cx="1.371" cy="1.371" r="1.371" transform="translate(5252.182 5343.403) rotate(-84.345)" fill="#7791eb"/>
        <circle id="Elipse_70" data-name="Elipse 70" cx="1.371" cy="1.371" r="1.371" transform="translate(5257.108 5340.803)" fill="#7791eb"/>
      </g>
    </g>
    <g id="Grupo_880" data-name="Grupo 880">
      <path id="Trazado_5039" data-name="Trazado 5039" d="M5328.8,5332.648v-.8a8.644,8.644,0,0,1,8.644-8.644h18.275a8.643,8.643,0,0,1,8.644,8.644v.8a8.644,8.644,0,0,1-8.644,8.643h-17.985c-1.6,1.057-6.853,4.5-6.547,3.884.247-.5,1.1-3.435,1.609-5.242A8.634,8.634,0,0,1,5328.8,5332.648Z" fill="#172461"/>
      <g id="Grupo_879" data-name="Grupo 879">
        <circle id="Elipse_71" data-name="Elipse 71" cx="1.371" cy="1.371" r="1.371" transform="translate(5350.007 5331.483)" fill="#7791eb"/>
        <circle id="Elipse_72" data-name="Elipse 72" cx="1.371" cy="1.371" r="1.371" transform="translate(5345.209 5331.483)" fill="#7791eb"/>
        <circle id="Elipse_73" data-name="Elipse 73" cx="1.371" cy="1.371" r="1.371" transform="translate(5340.411 5331.483)" fill="#7791eb"/>
      </g>
    </g>
    <g id="Grupo_886" data-name="Grupo 886">
      <path id="Trazado_5040" data-name="Trazado 5040" d="M5337.5,5458.7a3.738,3.738,0,0,1-1.2-2.4,25.771,25.771,0,0,1-.313-5.558l3.121-.933s1.15,1.876,2.091,3.63c.387.718.736,1.415.959,1.953C5342.924,5457.242,5339.4,5459.892,5337.5,5458.7Z" fill="#4c62bc"/>
      <path id="Trazado_5041" data-name="Trazado 5041" d="M5341.2,5453.435a16.3,16.3,0,0,0-4.9,2.861,25.771,25.771,0,0,1-.313-5.558l3.121-.933S5340.258,5451.681,5341.2,5453.435Z" fill="#203497"/>
      <path id="Trazado_5042" data-name="Trazado 5042" d="M5321.7,5456.2c-.2,1.463-.6,2.822-1.354,3.3-1.9,1.192-5.42-1.457-4.655-3.312.138-.336.329-.736.544-1.163.975-1.923,2.5-4.419,2.5-4.419l3.121.933A28.051,28.051,0,0,1,5321.7,5456.2Z" fill="#4c62bc"/>
      <path id="Trazado_5043" data-name="Trazado 5043" d="M5321.7,5456.2c-1.285-1.4-3.937-1.348-5.465-1.179.975-1.923,2.5-4.419,2.5-4.419l3.121.933A28.051,28.051,0,0,1,5321.7,5456.2Z" fill="#203497"/>
      <path id="Trazado_5044" data-name="Trazado 5044" d="M5328.312,5367.795a7.6,7.6,0,0,1-6.341.065c.282-2.377.434-4.521.553-6.6.054-.95.1-1.887.151-2.826.09-1.7.132-2.869.132-2.869l4.449.052c.021.809.088,1.861.18,3.02.016.214.034.427.052.642C5327.834,5363.471,5328.312,5367.795,5328.312,5367.795Z" fill="#e9c0ad"/>
      <path id="Trazado_5045" data-name="Trazado 5045" d="M5326.158,5416.086s-.864,5.659-1.418,10.677c-.217,1.977-.386,3.852-.437,5.243-.275,7.806-.331,21.527-.331,21.527a11.723,11.723,0,0,1-8.754.4c.178-14.49.456-24.075.692-30.087.244-6.29.445-8.671.445-8.671Z" fill="#172461"/>
      <path id="Trazado_5046" data-name="Trazado 5046" d="M5326.158,5416.086s-.864,5.659-1.418,10.677c-2.148-2-6.12-2.686-8.83-2.917.244-6.29.445-8.671.445-8.671Z" fill="#131e45"/>
      <path id="Trazado_5047" data-name="Trazado 5047" d="M5342.264,5451.843c-5.4,3.306-8.494,2.371-8.494,2.371s-1.608-12.643-3.837-22.671c-.45-2.027-.874-3.792-1.261-5.32a65,65,0,0,0-2.514-8.325l10.42-1.812a97.4,97.4,0,0,0,.755,10.558c.26,2.032.61,4.168,1.079,6.223C5339.675,5438.4,5342.264,5451.843,5342.264,5451.843Z" fill="#172461"/>
      <path id="Trazado_5048" data-name="Trazado 5048" d="M5337.333,5426.644a24.887,24.887,0,0,0-8.661-.421,65,65,0,0,0-2.514-8.325l10.42-1.812A97.4,97.4,0,0,0,5337.333,5426.644Z" fill="#131e45"/>
      <path id="Trazado_5049" data-name="Trazado 5049" d="M5322.271,5362.044l2.421,3.143,3.2-3.976,3.594,1.976-10.788,21.829-.222-21.342Z" fill="#4c62bc"/>
      <path id="Trazado_5050" data-name="Trazado 5050" d="M5316.845,5367.344l-.866,43.21c-1.3,1.155-3.768,1.282-5.572,1.192a18.907,18.907,0,0,1-2.194-.23c-.59-4.393,3.755-29.841,5.962-37.331.339-1.155.638-2.117.9-2.914C5316.514,5366.881,5316.845,5367.344,5316.845,5367.344Z" fill="#e5e5e6"/>
      <path id="Trazado_5051" data-name="Trazado 5051" d="M5316.342,5375.547l-.363,35.007c-1.3,1.155-3.768,1.282-5.572,1.192Z" fill="#bfc6da"/>
      <path id="Trazado_5052" data-name="Trazado 5052" d="M5302.976,5399.529l3.135,14.056.5.439,15-20.385-.576-.2Z" fill="#39291c"/>
      <path id="Trazado_5053" data-name="Trazado 5053" d="M5303.549,5399.882l18.061-6.244,2.371,14.593-17.367,5.792Z" fill="#9b7b53"/>
      <path id="Trazado_5054" data-name="Trazado 5054" d="M5322.078,5421.34a11.127,11.127,0,0,1-6.992-.125,11.8,11.8,0,0,1-2.03-.85c2.184-5.426,3.31-52.271,3.789-53.021a23.774,23.774,0,0,1,1.656-1.907c1.166-1.259,2.5-2.631,2.5-2.631s.678,7.326,1.2,13.377S5322.078,5421.34,5322.078,5421.34Z" fill="#e5e5e6"/>
      <path id="Trazado_5055" data-name="Trazado 5055" d="M5322.078,5421.34a11.127,11.127,0,0,1-6.992-.125c1.2-.169,2.316-.519,2.642-1.216.778-1.68,2.8-35.815,3.115-37.934s-1.653-8.214-1.653-8.214l1.653-2.318-1.653.663-.689-6.759c1.166-1.259,2.5-2.631,2.5-2.631s.678,7.326,1.2,13.377S5322.078,5421.34,5322.078,5421.34Z" fill="#bfc6da"/>
      <path id="Trazado_5056" data-name="Trazado 5056" d="M5341.379,5422.956c-1.089.318-2.173.572-3.243.774a41.9,41.9,0,0,1-18.927-1.124c-.281-14.686,2.516-42.075,2.516-42.075l7.729-18.915,3.24,1.927v0l4.252,2.528s.615,2.056,1.492,6.289c.792,3.813,1.8,9.393,2.766,16.822C5343.241,5404.858,5341.379,5422.956,5341.379,5422.956Z" fill="#e5e5e6"/>
      <path id="Trazado_5057" data-name="Trazado 5057" d="M5341.379,5422.956c-1.089.318-2.173.572-3.243.774.008-.186.019-.374.032-.567,1.15-15.847-2.093-46.641-2.181-47.237l2.451-3.564c.792,3.813,1.8,9.393,2.766,16.822C5343.241,5404.858,5341.379,5422.956,5341.379,5422.956Z" fill="#bfc6da"/>
      <path id="Trazado_5058" data-name="Trazado 5058" d="M5332.695,5397.236s-1.2.848,1.864,4.954,3.211,3.434,3.486,3.085,1.288-4.524-1.24-6.618S5332.695,5397.236,5332.695,5397.236Z" fill="#cfd7ed"/>
      <path id="Trazado_5059" data-name="Trazado 5059" d="M5326.946,5403.589s-.9,11.667,5.1,11.584,5.439-10.9,5.439-10.9Z" fill="#bfc6da"/>
      <path id="Trazado_5060" data-name="Trazado 5060" d="M5337.487,5404.272l-.946-.061-5.937-.384c-.408,2.578-3.3,3.042-2.74,1.947s.758-4.135,2.149-5.5a7.351,7.351,0,0,1,2.384-1.412,12.874,12.874,0,0,1,1.744-.549C5337.627,5396.87,5340.674,5402.214,5337.487,5404.272Z" fill="#e9c0ad"/>
      <path id="Trazado_5061" data-name="Trazado 5061" d="M5337.487,5404.272l-.946-.061a9.86,9.86,0,0,0-4.144-5.346,12.874,12.874,0,0,1,1.744-.549C5337.627,5396.87,5340.674,5402.214,5337.487,5404.272Z" fill="#be8b7d"/>
      <path id="Trazado_5062" data-name="Trazado 5062" d="M5336.946,5366.073s4.035,2.123,6.852,13.885,3.963,13.48,2.758,14.774-8.511,10.543-8.511,10.543a12.034,12.034,0,0,0-5.35-8.039s5.813-6.123,5.751-7.2-2.23-11.558-2.66-15.687C5335.481,5371.422,5335.874,5366.135,5336.946,5366.073Z" fill="#e5e5e6"/>
      <path id="Trazado_5063" data-name="Trazado 5063" d="M5309.8,5412.331c-.886.492-.949,1.814-.512,2.129s4.709-1.571,4.77-2.2S5313.7,5410.168,5309.8,5412.331Z" fill="#e9c0ad"/>
      <g id="Grupo_882" data-name="Grupo 882">
        <path id="Trazado_5064" data-name="Trazado 5064" d="M5318.716,5349.137s-1.142-.819-.561-1.733,1.619-2.377,4.9-2.128a26.53,26.53,0,0,1,5.219.592c1.2.332,1.686,2.626,1.811,5.45a11.8,11.8,0,0,1-1,5.514,4.982,4.982,0,0,1-1.6,2.45l-7.755-8.472Z" fill="#39291c"/>
        <path id="Trazado_5065" data-name="Trazado 5065" d="M5327.488,5359.282a4.861,4.861,0,0,1-1.125.923,8.715,8.715,0,0,1-3.839,1.058c.054-.95.1-1.887.151-2.826.09-1.7.132-2.869.132-2.869l4.449.052c.021.809.088,1.861.18,3.02C5327.452,5358.854,5327.47,5359.067,5327.488,5359.282Z" fill="#be8b7d"/>
        <g id="Grupo_881" data-name="Grupo 881">
          <path id="Trazado_5066" data-name="Trazado 5066" d="M5327.225,5353.517c.146-3.616-1.841-6.446-4.429-6.551a4.632,4.632,0,0,0-3.934,1.939,8.71,8.71,0,0,0-1.018,4.418c-.147,3.616,1.833,6.633,4.421,6.738a5.367,5.367,0,0,0,3.143-1.179c.975-.867.951-1.332,1.475-2.658.879-.016,1.319-1.349,1.387-2.1C5328.346,5353.3,5327.225,5353.52,5327.225,5353.517Z" fill="#e9c0ad"/>
        </g>
        <path id="Trazado_5067" data-name="Trazado 5067" d="M5321.239,5348.515a21.655,21.655,0,0,0,4.111.436c.635-.1,1.589,3.644.654,5.14-.043.069-.239.378-.283.447.124.048.984.47,1.228.546a3.776,3.776,0,0,1,.276-1.567,16.67,16.67,0,0,0,1.049-4.13,15.142,15.142,0,0,0-1.086-2.425l-4.133-1.094-3.125.872-1.214,2.4A2.6,2.6,0,0,1,5321.239,5348.515Z" fill="#39291c"/>
      </g>
      <g id="Grupo_885" data-name="Grupo 885">
        <path id="Trazado_5068" data-name="Trazado 5068" d="M5322.082,5353.025a1.186,1.186,0,0,1,1.364-.193l.664.225s-.069.725-1.284.547c-.976-.144-.887-.385-.887-.385S5322.041,5353.068,5322.082,5353.025Z" fill="#fff"/>
        <path id="Trazado_5069" data-name="Trazado 5069" d="M5321.754,5352.1a13.24,13.24,0,0,1,2.472.11c1.148.145.411-.653-.59-.834a5.954,5.954,0,0,0-1.9.04C5321.487,5351.459,5321.623,5352.1,5321.754,5352.1Z" fill="#39291c"/>
        <path id="Trazado_5070" data-name="Trazado 5070" d="M5322.141,5353.1a.453.453,0,1,0,.517-.377A.453.453,0,0,0,5322.141,5353.1Z"/>
        <g id="Grupo_883" data-name="Grupo 883">
          <path id="Trazado_5071" data-name="Trazado 5071" d="M5321.888,5353.129a1.107,1.107,0,0,1,.11-.132,1.347,1.347,0,0,1,.122-.115,1.416,1.416,0,0,1,.274-.18,1.175,1.175,0,0,1,.608-.115c.052,0,.1.014.152.021s.094.02.141.029c.093.021.186.043.279.066a4.582,4.582,0,0,1,.555.137v0a.211.211,0,0,1,0,.2l-.015.016a.247.247,0,0,1-.3.061.353.353,0,0,0-.049-.023c-.087-.033-.176-.064-.265-.093s-.179-.058-.269-.085c-.045-.013-.092-.029-.134-.039s-.085-.023-.128-.028a.988.988,0,0,0-.517.06,1.137,1.137,0,0,0-.243.138,1.18,1.18,0,0,0-.112.092.969.969,0,0,0-.1.1l0,.006a.069.069,0,0,1-.117-.008A.106.106,0,0,1,5321.888,5353.129Z"/>
        </g>
        <path id="Trazado_5072" data-name="Trazado 5072" d="M5319.8,5353.079a.967.967,0,0,0-1.186-.271l-.585.186s.043.726,1.108.619c.855-.087.784-.332.784-.332S5319.835,5353.124,5319.8,5353.079Z" fill="#fff"/>
        <path id="Trazado_5073" data-name="Trazado 5073" d="M5319.877,5352.1a11.331,11.331,0,0,0-1.8,0c-.9.127-.39-.6.488-.657a7.721,7.721,0,0,1,1.367.012C5320.1,5351.488,5319.97,5352.1,5319.877,5352.1Z" fill="#39291c"/>
        <path id="Trazado_5074" data-name="Trazado 5074" d="M5319.216,5353.124a.453.453,0,1,1-.5-.4A.453.453,0,0,1,5319.216,5353.124Z"/>
        <g id="Grupo_884" data-name="Grupo 884">
          <path id="Trazado_5075" data-name="Trazado 5075" d="M5319.968,5353.194a1.229,1.229,0,0,0-.093-.138,1.423,1.423,0,0,0-.1-.122,1.284,1.284,0,0,0-.234-.2.953.953,0,0,0-.529-.15,1.22,1.22,0,0,0-.133.012c-.044,0-.082.015-.124.022a1.943,1.943,0,0,0-.245.049c-.5.169-.526.245-.488.305l.012.017a.2.2,0,0,0,.257.077l.044-.02c.077-.027.155-.053.233-.077s.158-.047.237-.069c.039-.01.08-.024.118-.031a1.1,1.1,0,0,1,.112-.02.772.772,0,0,1,.45.089,1.046,1.046,0,0,1,.209.151,1.14,1.14,0,0,1,.1.1,1.216,1.216,0,0,1,.083.109l0,.006a.056.056,0,0,0,.1,0A.122.122,0,0,0,5319.968,5353.194Z"/>
        </g>
        <path id="Trazado_5076" data-name="Trazado 5076" d="M5320.24,5356.339a1.014,1.014,0,0,1-.3.018.913.913,0,0,1-.3-.08.7.7,0,0,1-.264-.207.784.784,0,0,1-.09-.149c-.011-.027-.02-.054-.029-.081a.4.4,0,0,1-.023-.085.521.521,0,0,1,.067-.38.654.654,0,0,1,.278-.231,1.108,1.108,0,0,1,.306-.092,1.428,1.428,0,0,1,.307-.017.117.117,0,0,1,.11.125.116.116,0,0,1-.095.108l-.008,0a1.83,1.83,0,0,0-.485.147.415.415,0,0,0-.153.126.228.228,0,0,0-.034.165.238.238,0,0,0,.01.053c0,.018.008.037.013.054a.512.512,0,0,0,.047.1.5.5,0,0,0,.155.167,1.28,1.28,0,0,0,.489.19h0a.033.033,0,0,1,.027.04A.033.033,0,0,1,5320.24,5356.339Z" fill="#be8b7d"/>
        <path id="Trazado_5077" data-name="Trazado 5077" d="M5321.169,5357.982c.1.251-1.275.26-1.179,0S5321.073,5357.73,5321.169,5357.982Z" fill="#be8b7d"/>
        <path id="Trazado_5078" data-name="Trazado 5078" d="M5319.837,5357.457c.086.192.252.249.85.108s.317-.578-.033-.592-.638-.1-.8,0S5319.773,5357.316,5319.837,5357.457Z" fill="#a06d60"/>
      </g>
      <path id="Trazado_5079" data-name="Trazado 5079" d="M5332.694,5363.542v0l-2.021,6.729h-2.26l1.322,2.12-8.009,8.136,7.728-18.915Z" fill="#bfc6da"/>
      <path id="Trazado_5080" data-name="Trazado 5080" d="M5307.4,5402.3l1.625,7.45,3.751-1.266-1.755-7.477Z" fill="#fff"/>
    </g>
    <g id="Grupo_896" data-name="Grupo 896">
      <path id="Trazado_5081" data-name="Trazado 5081" d="M5285.469,5354.567c.695.67,1.679-.443,2.5.418a5.379,5.379,0,0,1,.881,6.276c-1.539,3.016-5.369,5.92-7.322,5.646s-4.6.086-5.343-.188.8,2.3.422,4.452-2.561,6.875-1.838,8.734a4.132,4.132,0,0,0,2.755,2.856c1.248.479,1.351-.576,1.679-.439s-1.225,2.624-3.271,2.529-4.61-.856-5.2-2.449-3.062-4.533-3.13-5.986.988-10.9,3.327-11.355,3.69.58,3.739.228-.95-1.334-1.241-2.526.573-6.419,1.824-7.766,4.652-3.721,6.963-2.94S5284.774,5353.9,5285.469,5354.567Z" fill="#39291c"/>
      <path id="Trazado_5082" data-name="Trazado 5082" d="M5277.9,5380.012c3.17,1.842,11.019-4.847,11.019-4.847-.082-1.6-2.657-4.048-5.56-4.088-.932-.013-1.661-.046-1.646-1.077.014-1.009.006-2,.009-3,.006-1.807.029-3.044.029-3.044l-3.957-.191c-.06.855-.173,1.965-.313,3.187q-.039.337-.079.676c-.135,1.143-.278,2.3-.416,3.375-.069.539-2.155.9-2.137,1.561C5274.935,5375.71,5277.9,5380.012,5277.9,5380.012Z" fill="#e9c0ad"/>
      <path id="Trazado_5083" data-name="Trazado 5083" d="M5277.4,5367.628a4.706,4.706,0,0,0,.952,1.039,6.914,6.914,0,0,0,3.359,1.333c0-1.009.006-2,.009-3,.006-1.807.029-3.044.029-3.044l-3.957-.191c-.06.855-.173,1.965-.313,3.187Q5277.439,5367.289,5277.4,5367.628Z" fill="#be8b7d"/>
      <g id="Grupo_887" data-name="Grupo 887">
        <path id="Trazado_5084" data-name="Trazado 5084" d="M5276.463,5363.176a1.757,1.757,0,0,0,1.255,1.481c.5,1.795,2.1,3.808,3.994,4.039a2.987,2.987,0,0,0,.318.022c2.539.035,4.637-2.855,4.687-6.455,0-.045,0-.089,0-.134-.362-1.314-.451-3.371-1.489-4.572-.419-.485-1.277-1.014-1.425-.416a10.242,10.242,0,0,1-1.8,3.056c-.919,1.176-2.423,2.388-3.226,2.464a3.193,3.193,0,0,1-1.249-.526v.011A1.031,1.031,0,0,0,5276.463,5363.176Z" fill="#e9c0ad"/>
      </g>
      <path id="Trazado_5085" data-name="Trazado 5085" d="M5284.691,5459.993c.08.22.186.352.332.368a4.377,4.377,0,0,0,3.565-1.752l0,0a2.763,2.763,0,0,0,.225-.373,3.622,3.622,0,0,0-.327-2.651,14.938,14.938,0,0,0-1.117-2.162l-2.385-.4s-.288,1.9-.414,3.77A10.108,10.108,0,0,0,5284.691,5459.993Z" fill="#91a5e9"/>
      <path id="Trazado_5086" data-name="Trazado 5086" d="M5284.574,5456.787a9.794,9.794,0,0,0,3.916-1.206,14.938,14.938,0,0,0-1.117-2.162l-2.385-.4S5284.7,5454.92,5284.574,5456.787Z" fill="#7791eb"/>
      <path id="Trazado_5087" data-name="Trazado 5087" d="M5284.691,5459.993c.08.22.186.352.332.368a4.377,4.377,0,0,0,3.565-1.752C5288.462,5458.693,5285.924,5460.394,5284.691,5459.993Z" fill="#7791eb"/>
      <path id="Trazado_5088" data-name="Trazado 5088" d="M5273.416,5460.455c-.12.2-.249.311-.4.3a4.378,4.378,0,0,1-3.172-2.391l0,0a2.85,2.85,0,0,1-.15-.41,3.622,3.622,0,0,1,.82-2.542,14.942,14.942,0,0,1,1.5-1.913l2.418.054s-.075,1.923-.3,3.78A10.085,10.085,0,0,1,5273.416,5460.455Z" fill="#91a5e9"/>
      <path id="Trazado_5089" data-name="Trazado 5089" d="M5274.134,5457.328a9.772,9.772,0,0,1-3.619-1.921,14.942,14.942,0,0,1,1.5-1.913l2.418.054S5274.361,5455.471,5274.134,5457.328Z" fill="#7791eb"/>
      <path id="Trazado_5090" data-name="Trazado 5090" d="M5293.934,5407.332c-.59-4.071-1.284-8.835-1.965-13.487v0c-1.546-10.565-3.018-20.556-3.018-20.556l-5.815-1.673-4.413,7.76-3-7.3-5.458,2.027c-.145.185-.287.372-.424.564l-.883,42.569s0,16.093,1.546,37.785a13.328,13.328,0,0,0,3.427.469,7.41,7.41,0,0,0,2.737-.469s2.74-25.482,3.368-38.573a.121.121,0,0,1,.241-.009c.717,6.754,1.746,34.451,2.228,38.445a9.688,9.688,0,0,0,3.871.586h0a6.159,6.159,0,0,0,2.291-.586S5294.494,5411.208,5293.934,5407.332Z" fill="#203497"/>
      <path id="Trazado_5091" data-name="Trazado 5091" d="M5295.228,5416.382c-5.021-3.345-12.862-6.893-25.025-9.33l-.042-2.886a93.776,93.776,0,0,0,23.773,3.166C5294.494,5411.208,5294.96,5414.456,5295.228,5416.382Z" fill="#172461"/>
      <path id="Trazado_5092" data-name="Trazado 5092" d="M5294.195,5396.183l-1.211-7.864-.321-2.082c-1.864-1.8-1.431-9.084-1.079-12.766a6.843,6.843,0,0,0-1.3-1.216,14.838,14.838,0,0,0-3.986-1.235c-.777-.117-3.138-.171-3.138-.171-1.807,1.234-2.138,7.826-1.777,16.06v0c.13,2.971.351,6.155.626,9.377q.081.976.171,1.96c1.272,14.016,3.408,28.116,3.408,28.116a7.12,7.12,0,0,0,3.616.562h0a66.91,66.91,0,0,0,9.552-1.148Z" fill="#e5e5e6"/>
      <path id="Trazado_5093" data-name="Trazado 5093" d="M5288.781,5389.465s.323-9.711.7-9.711,0,10.351,0,10.351Z" fill="#bfc6da"/>
      <path id="Trazado_5094" data-name="Trazado 5094" d="M5294.195,5396.183a16.1,16.1,0,0,1-4.795,1.9,20.184,20.184,0,0,1-7.22.163q-.092-.983-.171-1.96l10.975-7.969Z" fill="#bfc6da"/>
      <g id="Grupo_888" data-name="Grupo 888">
        <circle id="Elipse_74" data-name="Elipse 74" cx="0.555" cy="0.555" r="0.555" transform="translate(5282.467 5387.873)" fill="#bfc6da"/>
        <path id="Trazado_5095" data-name="Trazado 5095" d="M5284.131,5396.255a.555.555,0,1,1-.555-.555A.556.556,0,0,1,5284.131,5396.255Z" fill="#bfc6da"/>
        <path id="Trazado_5096" data-name="Trazado 5096" d="M5285.033,5405.68a.555.555,0,1,1-.555-.555A.555.555,0,0,1,5285.033,5405.68Z" fill="#bfc6da"/>
        <circle id="Elipse_75" data-name="Elipse 75" cx="0.555" cy="0.555" r="0.555" transform="translate(5285.336 5416.683)" fill="#bfc6da"/>
      </g>
      <path id="Trazado_5097" data-name="Trazado 5097" d="M5277.369,5427.664a69.252,69.252,0,0,1-10.908-.01s.229-10.315.779-24.334v0c.066-1.672.135-3.4.209-5.164q.059-1.492.129-3.021c.028-.651.059-1.285.089-1.9.306-6.276.688-10.949,1.5-18.043a16.515,16.515,0,0,1,1.262-1.73,5.116,5.116,0,0,1,1.481-1.059,31.157,31.157,0,0,1,4.146-.815l.392,16.76.1,4.411.125,5.291Z" fill="#e5e5e6"/>
      <path id="Trazado_5098" data-name="Trazado 5098" d="M5270.789,5390.957s.859-9.58.636-9.8-1.124,9.612-.944,9.833A.17.17,0,0,0,5270.789,5390.957Z" fill="#bfc6da"/>
      <path id="Trazado_5099" data-name="Trazado 5099" d="M5276.68,5398.046a27.57,27.57,0,0,1-5.253.843,7.953,7.953,0,0,1-3.978-.736q.059-1.492.129-3.021c.028-.651.059-1.285.089-1.9l8.888-.476Z" fill="#bfc6da"/>
      <path id="Trazado_5100" data-name="Trazado 5100" d="M5281.7,5388.427s4.293-.7,6.282.943-6.6,3.322-6.6,3.322Z" fill="#e9c0ad"/>
      <path id="Trazado_5101" data-name="Trazado 5101" d="M5293.283,5376.672a9.572,9.572,0,0,0-.813-1.989,8.076,8.076,0,0,0-1.371-1.718c-1.093,11.371-1.868,16.207-1.868,16.207-1.268,1.417-12.93,1.32-12.93,1.32-.069.919-.095,4.7-.1,5.954,0,.257,0,.409,0,.409q1.732.378,3.265.609c13.367,2.013,15.76-3.882,15.76-3.882A94.863,94.863,0,0,0,5293.283,5376.672Z" fill="#e5e5e6"/>
      <path id="Trazado_5102" data-name="Trazado 5102" d="M5283.923,5393.085c-.206.269-3.24,2.418-5.294,4.244-1.023-.155-1.275-.222-2.43-.474,0,0,4.164-6.069,4.166-6.326l2.656-.132S5284.18,5392.746,5283.923,5393.085Z" fill="#bfc6da"/>
      <path id="Trazado_5103" data-name="Trazado 5103" d="M5276.3,5390.493s-2.7-2.53-5.819.494c-1.711,1.66,7.084,2.414,7.084,2.414Z" fill="#e9c0ad"/>
      <path id="Trazado_5104" data-name="Trazado 5104" d="M5281.733,5387.873s-10.107,4.631-11.252,3.114a94.123,94.123,0,0,0-.557-16.883c-.294.392-.573.8-.834,1.209a34.594,34.594,0,0,0-1.795,3.253,42.774,42.774,0,0,0-2.145,17.689s5.162,5.929,18.426-3.563C5283.576,5392.692,5282.532,5388.821,5281.733,5387.873Z" fill="#e5e5e6"/>
      <g id="Grupo_892" data-name="Grupo 892">
        <g id="Grupo_889" data-name="Grupo 889">
          <path id="Trazado_5105" data-name="Trazado 5105" d="M5287.07,5376.265c-.25-5.521-4.607-6.063-5.388-6.116a2.483,2.483,0,0,0,.133.554,6.469,6.469,0,0,1,2.421.642c1.413.908,2.184,2.572,2.292,4.945a81.724,81.724,0,0,1,.064,8.64.271.271,0,0,0,.261.281h.01a.271.271,0,0,0,.271-.261A82.3,82.3,0,0,0,5287.07,5376.265Z" fill="#172461"/>
          <path id="Trazado_5106" data-name="Trazado 5106" d="M5272.636,5376.579c.01-.046.02-.093.03-.143.1-.484.227-1.295.38-2.413.383-2.791,3.17-3.245,3.939-3.318a2.619,2.619,0,0,0,.177-.556c-.042,0-4.155.169-4.654,3.8-.233,1.7-.362,2.357-.426,2.613-2.31.2-2.863,4.306-2.886,4.484a.271.271,0,0,0,.166.284c-.232.845-1.412,5.247-.97,6.132a2.37,2.37,0,0,0,1.455,1.126.442.442,0,0,0-.02.127.474.474,0,1,0,.075-.254,2.27,2.27,0,0,1-1.388-1.06c-.418-.836.772-5.277.984-6.052a.27.27,0,0,0,.237-.234c.005-.039.513-3.837,2.387-4.011a1.973,1.973,0,0,1,.269,0,1.721,1.721,0,0,1,1.271.6c.953,1.082.878,3.3.769,4.067a.271.271,0,0,0,.192.3c-.046,1.144-.283,5.683-1.151,6.269a1.989,1.989,0,0,1-1.812,0,.465.465,0,1,0-.084.114,2.841,2.841,0,0,0,1.092.249,1.546,1.546,0,0,0,.88-.252c.932-.629,1.166-5.209,1.211-6.377a.272.272,0,0,0,.21-.226c0-.03.412-3.012-.9-4.5A2.237,2.237,0,0,0,5272.636,5376.579Z" fill="#172461"/>
        </g>
        <g id="Grupo_890" data-name="Grupo 890">
          <circle id="Elipse_76" data-name="Elipse 76" cx="1.351" cy="1.351" r="1.351" transform="translate(5285.512 5383.754)" fill="#fff"/>
          <path id="Trazado_5107" data-name="Trazado 5107" d="M5287.136,5383.712a1.518,1.518,0,0,0-.273-.026,1.493,1.493,0,0,0-.27.026,1.418,1.418,0,1,0,.543,0Zm-.273,2.677a1.284,1.284,0,0,1-.254-2.543,1.335,1.335,0,0,1,.508,0,1.284,1.284,0,0,1-.254,2.543Z" fill="#172461"/>
        </g>
        <g id="Grupo_891" data-name="Grupo 891">
          <path id="Trazado_5108" data-name="Trazado 5108" d="M5287.745,5385.1a.883.883,0,1,1-.882-.882A.882.882,0,0,1,5287.745,5385.1Z" fill="#fff"/>
          <path id="Trazado_5109" data-name="Trazado 5109" d="M5286.863,5384.154a.951.951,0,1,0,.95.951A.952.952,0,0,0,5286.863,5384.154Zm0,1.765a.814.814,0,1,1,.815-.814A.815.815,0,0,1,5286.863,5385.919Z" fill="#172461"/>
        </g>
      </g>
      <path id="Trazado_5110" data-name="Trazado 5110" d="M5286.5,5406.48s4.13-.553,7.16-.8l.651,3.2-7.519.661Z" fill="#bfc6da"/>
      <path id="Trazado_5111" data-name="Trazado 5111" d="M5268.085,5408.578a9.5,9.5,0,0,0,.027,1.868c1.123-.021,5.791-.1,6.277.005.554.121,0-3.8,0-3.8H5268.1A18.8,18.8,0,0,0,5268.085,5408.578Z" fill="#bfc6da"/>
      <path id="Trazado_5112" data-name="Trazado 5112" d="M5273.416,5460.455c-.12.2-.249.311-.4.3a4.378,4.378,0,0,1-3.172-2.391C5269.957,5458.469,5272.129,5460.617,5273.416,5460.455Z" fill="#7791eb"/>
      <path id="Trazado_5113" data-name="Trazado 5113" d="M5270.481,5390.987a6.693,6.693,0,0,0-.654.611c-.381.388-.276,1.9.1,1.9,1.559.022,3.044-2.444,4.247-2.721S5270.481,5390.987,5270.481,5390.987Z" fill="#e9c0ad"/>
      <g id="Grupo_895" data-name="Grupo 895">
        <path id="Trazado_5114" data-name="Trazado 5114" d="M5282.775,5362a1.165,1.165,0,0,0-1.294-.394l-.677.116s-.044.714,1.161.726c.968.01.919-.238.919-.238S5282.808,5362.048,5282.775,5362Z" fill="#fff"/>
        <path id="Trazado_5115" data-name="Trazado 5115" d="M5283.1,5360.659a4.307,4.307,0,0,0-2.5-.177c-1.082.341-.29-.279.693-.457a5.794,5.794,0,0,1,1.821-.008C5283.346,5360.064,5283.223,5360.662,5283.1,5360.659Z" fill="#39291c"/>
        <path id="Trazado_5116" data-name="Trazado 5116" d="M5282.588,5362.009a.444.444,0,1,1-.445-.444A.445.445,0,0,1,5282.588,5362.009Z"/>
        <g id="Grupo_893" data-name="Grupo 893">
          <path id="Trazado_5117" data-name="Trazado 5117" d="M5282.948,5362.131a1.075,1.075,0,0,0-.087-.145,1.165,1.165,0,0,0-.1-.131,1.332,1.332,0,0,0-.238-.215,1.157,1.157,0,0,0-.573-.205c-.05-.006-.1,0-.15,0s-.094,0-.142.008c-.093.006-.186.013-.28.021l-.128.012a1.65,1.65,0,0,1,.272-.2,1.307,1.307,0,0,1,.175-.089c.03-.013.061-.022.092-.033l.046-.016.047-.011a1.194,1.194,0,0,1,.389-.027h0s.007,0,.008-.007a.01.01,0,0,0-.006-.012,1.231,1.231,0,0,0-.4-.053h-.051l-.051.007c-.034.005-.069.008-.1.015a1.524,1.524,0,0,0-.2.057,1.7,1.7,0,0,0-.384.2,2.157,2.157,0,0,0-.178.136c-.029.024-.057.049-.085.076l0,0a.165.165,0,0,0-.024.194l.012.017a.242.242,0,0,0,.278.1c.021-.007.039-.012.051-.015.089-.018.18-.034.27-.049s.183-.029.274-.042c.045-.005.093-.014.136-.017s.086-.009.128-.007a.966.966,0,0,1,.493.136,1.153,1.153,0,0,1,.214.171.974.974,0,0,1,.094.106.987.987,0,0,1,.08.116l0,.006a.067.067,0,0,0,.115.011A.109.109,0,0,0,5282.948,5362.131Z"/>
        </g>
        <path id="Trazado_5118" data-name="Trazado 5118" d="M5285.014,5362a.95.95,0,0,1,1.127-.394l.591.116s.038.714-1.012.726c-.844.01-.8-.238-.8-.238S5284.985,5362.048,5285.014,5362Z" fill="#fff"/>
        <path id="Trazado_5119" data-name="Trazado 5119" d="M5284.938,5360.666a2.193,2.193,0,0,1,1.768,0c.794.411.187-.254-.524-.5a3.061,3.061,0,0,0-1.3-.136C5284.718,5360.064,5284.847,5360.66,5284.938,5360.666Z" fill="#39291c"/>
        <path id="Trazado_5120" data-name="Trazado 5120" d="M5285.645,5361.911a.445.445,0,1,0,.445-.444A.445.445,0,0,0,5285.645,5361.911Z"/>
        <g id="Grupo_894" data-name="Grupo 894">
          <path id="Trazado_5121" data-name="Trazado 5121" d="M5284.864,5362.131a1.25,1.25,0,0,1,.075-.145,1.273,1.273,0,0,1,.088-.131,1.226,1.226,0,0,1,.208-.215.927.927,0,0,1,.5-.205,1.172,1.172,0,0,1,.131,0c.043,0,.082,0,.123.008.081.006.163.013.244.021l.112.012a1.512,1.512,0,0,0-.237-.2,1.1,1.1,0,0,0-.153-.089c-.026-.013-.053-.022-.08-.033l-.04-.016-.041-.011a.909.909,0,0,0-.339-.027h0s-.006,0-.007-.007a.012.012,0,0,1,.005-.012.949.949,0,0,1,.35-.053h.045l.044.007c.03.005.06.008.089.015a1.136,1.136,0,0,1,.176.057,1.417,1.417,0,0,1,.335.2,1.737,1.737,0,0,1,.155.136c.025.024.05.049.074.076l0,0a.185.185,0,0,1,.021.194l-.01.017a.2.2,0,0,1-.242.1l-.045-.015c-.078-.018-.157-.034-.236-.049s-.159-.029-.239-.042c-.039-.005-.081-.014-.118-.017a1.065,1.065,0,0,0-.111-.007.76.76,0,0,0-.43.136,1.07,1.07,0,0,0-.187.171,1.129,1.129,0,0,0-.082.106,1.339,1.339,0,0,0-.069.116l0,.006a.055.055,0,0,1-.1.011A.119.119,0,0,1,5284.864,5362.131Z"/>
        </g>
        <path id="Trazado_5122" data-name="Trazado 5122" d="M5284.581,5364.979a.98.98,0,0,0,.295.017.9.9,0,0,0,.3-.078.684.684,0,0,0,.26-.2.781.781,0,0,0,.088-.147c.011-.026.019-.052.029-.079a.413.413,0,0,0,.022-.084.507.507,0,0,0-.066-.372.637.637,0,0,0-.273-.227,1.125,1.125,0,0,0-.3-.091,1.446,1.446,0,0,0-.3-.016.116.116,0,0,0-.015.229l.008,0a1.771,1.771,0,0,1,.476.144.4.4,0,0,1,.151.124.225.225,0,0,1,.033.162.251.251,0,0,1-.01.051c0,.018-.007.037-.012.054a.511.511,0,0,1-.047.1.485.485,0,0,1-.151.164,1.259,1.259,0,0,1-.48.186h0a.034.034,0,0,0,0,.066Z" fill="#be8b7d"/>
        <path id="Trazado_5123" data-name="Trazado 5123" d="M5284.542,5366.878c.1.251-1.275.261-1.179,0S5284.446,5366.627,5284.542,5366.878Z" fill="#be8b7d"/>
        <path id="Trazado_5124" data-name="Trazado 5124" d="M5283.351,5365.818s1.251-.389,1.453-.107-.709.791-1.062.637C5283.279,5366.147,5283,5365.845,5283.351,5365.818Z" fill="#a06d60"/>
      </g>
    </g>
  </g>
</svg>
