<svg xmlns="http://www.w3.org/2000/svg" xmlns:xlink="http://www.w3.org/1999/xlink" width="803.116" height="375.853" viewBox="0 0 803.116 375.853">
  <defs>
    <clipPath id="clip-path">
      <path id="Trazado_4789" data-name="Trazado 4789" d="M5247.739,2254.813c0-45.157-23.064-70.817,15.868-87.736,7.648-3.323,37.1-55.732,45.537-57.249,6.358-1.144,59.337-6.126,66.024-6.126,10.52,0,13.1,22.964,22.734,25.723,38.556,11.042,107.766,30.53,116.4,70.044,1.659,7.594-36.964,44.892-36.964,52.984,0,5.057-10.071,12.393-10.732,17.269a109.98,109.98,0,0,1-157.6,83.684l-6.91-3.725-9.039-5.361-7.993-6.963s-10.293,30.784-10.633,29.082-5.482-30.819-5.482-30.819l6.2-8.19A109.508,109.508,0,0,1,5247.739,2254.813Z" fill="none"/>
    </clipPath>
  </defs>
  <g id="Grupo_3439" data-name="Grupo 3439" transform="translate(-295.441 -2087.102)">
    <rect id="Rectángulo_978" data-name="Rectángulo 978" width="803.116" height="144.06" rx="12" transform="translate(295.441 2318.895)" fill="#414651" opacity="0.2"/>
    <path id="Trazado_4725" data-name="Trazado 4725" d="M5358.781,2119.816q-6.589,0-13.147.646t-13.019,1.931q-6.464,1.285-12.768,3.2t-12.393,4.434q-6.089,2.522-11.9,5.627t-11.29,6.767q-5.479,3.662-10.572,7.841t-9.753,8.839q-4.659,4.66-8.839,9.753t-7.841,10.572q-3.661,5.479-6.767,11.29t-5.628,11.9q-2.522,6.087-4.434,12.393t-3.2,12.768q-1.285,6.462-1.931,13.02t-.646,13.146q0,6.59.646,13.147t1.931,13.02q1.285,6.462,3.2,12.768t4.434,12.393q2.521,6.087,5.628,11.9t6.767,11.289q3.661,5.48,7.841,10.573t8.839,9.752q4.659,4.66,9.753,8.84t10.572,7.84q5.478,3.662,11.29,6.767t11.9,5.628q6.087,2.522,12.393,4.434t12.768,3.2q6.461,1.285,13.019,1.932t13.147.646q6.59,0,13.147-.646t13.02-1.932q6.461-1.284,12.768-3.2t12.393-4.434q6.087-2.521,11.9-5.628t11.29-6.767q5.48-3.66,10.572-7.84t9.753-8.84q4.659-4.659,8.839-9.752t7.841-10.573q3.662-5.478,6.767-11.289t5.628-11.9q2.522-6.089,4.434-12.393t3.2-12.768q1.285-6.463,1.932-13.02t.645-13.147q0-6.588-.645-13.146t-1.932-13.02q-1.285-6.463-3.2-12.768t-4.434-12.393q-2.521-6.089-5.628-11.9t-6.767-11.29q-3.66-5.478-7.841-10.572t-8.839-9.753q-4.659-4.659-9.753-8.839t-10.572-7.841q-5.478-3.66-11.29-6.767t-11.9-5.627q-6.089-2.521-12.393-4.434t-12.768-3.2q-6.464-1.286-13.02-1.931T5358.781,2119.816Z" transform="translate(-4670.824 -12)" fill="#414651"/>
    <circle id="Elipse_60" data-name="Elipse 60" cx="119.699" cy="119.699" r="119.699" transform="translate(567.166 2123.334)" fill="#fff"/>
    <g id="Grupo_795" data-name="Grupo 795" transform="translate(-4670.824 -12)">
      <g id="Grupo_761" data-name="Grupo 761">
        <g id="Grupo_760" data-name="Grupo 760">
          <g id="Grupo_759" data-name="Grupo 759">
            <circle id="Elipse_61" data-name="Elipse 61" cx="109.934" cy="109.934" r="109.934" transform="translate(5202.218 2254.573) rotate(-45)" fill="#e6b54a"/>
          </g>
        </g>
      </g>
      <g id="Grupo_794" data-name="Grupo 794">
        <g id="Grupo_793" data-name="Grupo 793" clip-path="url(#clip-path)">
          <g id="Grupo_792" data-name="Grupo 792">
            <ellipse id="Elipse_62" data-name="Elipse 62" cx="126.963" cy="8.894" rx="126.963" ry="8.894" transform="translate(5264.54 2475.338)" opacity="0.1"/>
            <g id="Grupo_762" data-name="Grupo 762">
              <path id="Trazado_4726" data-name="Trazado 4726" d="M5499.723,2204.406a2.412,2.412,0,0,0-3.1-1.257l4.01-1.2c1.384-.413,2.281-1.5,1.907-2.753s-1.721-1.671-3.1-1.257l3.509-1.048a2.368,2.368,0,1,0-1.347-4.512l-3.009.9a2.367,2.367,0,1,0-1.346-4.511l-18.695,5.583,2.99-5.828a2.708,2.708,0,0,0-.97-3.731l-.069-.006a2.787,2.787,0,0,0-3.614,1.522l-7.272,10.5c-2.383,2.759-4.729,6.1-3.376,10.635a8.788,8.788,0,0,0,11.031,5.856l4.512-1.348,3.258-.972,12.783-3.819A2.41,2.41,0,0,0,5499.723,2204.406Z" fill="#e4a083"/>
              <path id="Trazado_4727" data-name="Trazado 4727" d="M5473.651,2224.581l3.932-9.041c-3.814-9.285-13.555-8.844-13.555-8.844-1.853,2.332-3.712,5.606-5.28,7.769C5462.336,2214.735,5468.475,2216.512,5473.651,2224.581Z" fill="#e7e9ed"/>
              <path id="Trazado_4728" data-name="Trazado 4728" d="M5406.021,2206.961s5.611,1.83,33.185,34.282c0,0,13.343-17.88,20.144-29.215,0,0,13.4,2.986,16.1,10.72,0,0-6.387,25.885-20.861,43.48,0,0-14.994,21.552-53.85-11.99C5400.742,2254.238,5396.568,2222.516,5406.021,2206.961Z" fill="#252526"/>
            </g>
            <g id="Grupo_764" data-name="Grupo 764">
              <path id="Trazado_4729" data-name="Trazado 4729" d="M5455.919,2325s7.169-19.876-12.964-18.6-83.269,7.052-83.269,7.052v11.5Z" fill="#314d7c"/>
              <path id="Trazado_4730" data-name="Trazado 4730" d="M5431.735,2402.95s9.85-27.307-17.811-25.551-114.4,9.688-114.4,9.688v15.806Z" fill="#314d7c"/>
              <path id="Trazado_4731" data-name="Trazado 4731" d="M5299.2,2387.167l-45.223-188.455h98.348s19.319,23.609,5.269,49.075c0,0,25.168,40.453,5.12,68.552,0,0,20.626,33.9,7.753,64.352Z" fill="#4169a3"/>
              <path id="Trazado_4732" data-name="Trazado 4732" d="M5304.924,2386.871s5.688-47.642-12.753-65.2c0,0,6.148-55.321-14.049-73.762,0,0,3.513-42.588-24.148-48.954L5299.2,2387.4Z" fill="#314d7c"/>
              <path id="Trazado_4733" data-name="Trazado 4733" d="M5354.737,2247.906s-6.207-.692-16.1-1.231c.939-3.678,3-14.7-2.559-25.111,0,0,3.256,17.522-.078,24.976-7.452-.358-16.647-.6-26.691-.431.621-4.218,1.349-14.794-4.776-24.225,0,0,4.493,16.308,2.24,24.278-8.6.206-17.754.726-26.917,1.744,0,0,11.931.966,26.73,1.539,1.931,3.452,7.306,13.784,7.471,22.081,0,0,2.763-8.33-4.258-21.965,8.573.288,17.854.419,26.21.149,1.782,4.027,5.853,14.207,5.337,22.125,0,0,3.46-8.062-2.372-22.241A102.847,102.847,0,0,0,5354.737,2247.906Z" fill="#314d7c"/>
              <path id="Trazado_4734" data-name="Trazado 4734" d="M5360.884,2316.18s-7.373-.422-17.763-.384c1.353-3.471,4.91-14.7-.754-25.3,0,0,1.648,18.086-2.13,25.323-6.822.081-14.672.373-22.486,1.093.1-.308,4.62-14.122-3.156-26.095,0,0,4.145,19.685.088,26.371l.017.028a122.846,122.846,0,0,0-20.772,3.794s9.87-.047,22.556-.558c2.359,4.542,6.215,13,6.355,20.007,0,0,2.512-7.59-3.359-20.134,6.739-.3,14.081-.734,21.062-1.356,1.848,4.227,5.7,14.084,5.195,21.8,0,0,3.429-8-2.3-22.068A158.346,158.346,0,0,0,5360.884,2316.18Z" fill="#314d7c"/>
              <g id="Grupo_763" data-name="Grupo 763">
                <path id="Trazado_4735" data-name="Trazado 4735" d="M5357.593,2402.744v64.872h-11.417l-3.952-64.872Z" fill="#ccd6d5"/>
                <path id="Trazado_4736" data-name="Trazado 4736" d="M5406.966,2465.887l-103.259-5.738v10.083h103.1Z" fill="#99a1a0"/>
                <path id="Trazado_4737" data-name="Trazado 4737" d="M5390.74,2476.98a7.244,7.244,0,1,1,7.244,7.244A7.243,7.243,0,0,1,5390.74,2476.98Z" fill="#323b39"/>
                <path id="Trazado_4738" data-name="Trazado 4738" d="M5305.563,2476.98a7.244,7.244,0,1,1,7.244,7.244A7.244,7.244,0,0,1,5305.563,2476.98Z" fill="#323b39"/>
                <path id="Trazado_4739" data-name="Trazado 4739" d="M5334.98,2476.98a7.244,7.244,0,1,1,7.244,7.244A7.244,7.244,0,0,1,5334.98,2476.98Z" fill="#323b39"/>
                <path id="Trazado_4740" data-name="Trazado 4740" d="M5357.593,2402.744v14.381l-13.867,10.332-1.5-24.713Z" fill="#99a1a0"/>
              </g>
            </g>
            <g id="Grupo_767" data-name="Grupo 767">
              <path id="Trazado_4741" data-name="Trazado 4741" d="M5415.379,2369.263s-5.993,17.439-51.508,10.812v-24.938h50.3Z" fill="#202122"/>
              <g id="Grupo_765" data-name="Grupo 765">
                <path id="Trazado_4742" data-name="Trazado 4742" d="M5487.027,2397.2s4.992,10.949,11.092,16.94l46.548-31.095s-5.36-11.1-25.645,2.48l-18.9-.1Z" fill="#2c2d2f"/>
                <path id="Trazado_4743" data-name="Trazado 4743" d="M5500.734,2418.054l15-10.021-1.629-2.852a56.674,56.674,0,0,0,17.291-7.776c4.306-2.876,15.912-10.405,15.912-10.405l-2.642-3.956-46.548,31.095Z" fill="#1b1c1c"/>
                <path id="Trazado_4744" data-name="Trazado 4744" d="M5520.356,2384.683s5.493,6.736,21.376-4.369C5541.732,2380.314,5535.138,2375.248,5520.356,2384.683Z" fill="#4a4b4d"/>
              </g>
              <path id="Trazado_4745" data-name="Trazado 4745" d="M5505.9,2380.25s-1.482,20.054-25.547,23.978c0,0-45.589-40.258-61.4-54.5,0,0-37.611,31.854-56.314,32.055-28.964.311-31.668-33.666-31.663-45.471l23.537,1.441c25.46-13.678,68.814-33.546,85.641-18.715C5460.733,2337.176,5505.9,2380.25,5505.9,2380.25Z" fill="#242526"/>
              <g id="Grupo_766" data-name="Grupo 766">
                <path id="Trazado_4746" data-name="Trazado 4746" d="M5414.882,2458.966s-1.932,11.789-.187,20.16h55.978s1.712-12.123-22.7-12.095l-15.662-10.587Z" fill="#2c2d2f"/>
                <path id="Trazado_4747" data-name="Trazado 4747" d="M5415.141,2483.834h17.593l.229-3.189a58.226,58.226,0,0,0,18.922,3.183c5.178,0,19.234.232,19.234.232v-4.934h-55.978Z" fill="#1b1c1c"/>
                <path id="Trazado_4748" data-name="Trazado 4748" d="M5449.548,2467.16s.826,8.653,20.2,8.242C5469.75,2475.4,5467.081,2467.526,5449.548,2467.16Z" fill="#4a4b4d"/>
              </g>
              <path id="Trazado_4749" data-name="Trazado 4749" d="M5408.719,2459.733s17.369,5.184,32.541-1.406c0,0-2.287-58.94-1.783-72.187.711-18.707-2.937-39.2-19.43-36.806C5396.907,2352.7,5401.914,2386.018,5408.719,2459.733Z" fill="#202122"/>
            </g>
            <g id="Grupo_769" data-name="Grupo 769">
              <path id="Trazado_4750" data-name="Trazado 4750" d="M5363.535,2194.168s-11.069-4.688-25.737,2.45l-2.911,9.268,32.558-3.017Z" fill="#b7babe"/>
              <path id="Trazado_4751" data-name="Trazado 4751" d="M5366.845,2200.648s-13.3-1.717-31.126,2.884l22.868,46.919Z" fill="#e4a083"/>
              <g id="Grupo_768" data-name="Grupo 768">
                <path id="Trazado_4752" data-name="Trazado 4752" d="M5361.185,2193.952l1.548,12.855-21.3,2.565-2.015-16.723A42.19,42.19,0,0,0,5361.185,2193.952Z" fill="#e4a083"/>
                <path id="Trazado_4753" data-name="Trazado 4753" d="M5339.422,2192.649l-1.552-12.883,21.3-2.565,2.018,16.751A42.19,42.19,0,0,1,5339.422,2192.649Z" fill="#d78b73"/>
              </g>
              <path id="Trazado_4754" data-name="Trazado 4754" d="M5345.653,2208.566a3.671,3.671,0,0,1,2.256,2.484c.244,1.112-.3,6.595,1.711,9.824s8.62,20.152,8.62,20.152.382-18.556.934-21.1-.155-7.341-1.484-8.926.325-3.576.325-3.576l8.208-8.291,8.634,3.643s6.429,39.171-9.44,94.106c0,0-29.929-51.425-39.688-88.7l11.362-6.351Z" fill="#e7e9ed"/>
              <path id="Trazado_4755" data-name="Trazado 4755" d="M5298.959,2216.428s16.99-6.233,31.5-10.832c6.473,32.15,33.466,84.553,33.466,84.553s10.548-70.331,9.143-88.5c6.84.436,23.942,3.206,32.951,5.313,0,0-.338,13.556-7.347,61.914a479.239,479.239,0,0,0,4.1,48.2c-7.838,2.882-9.635,3.53-20.359,8.9a109.324,109.324,0,0,1-15.4,6.619s.172,25.926-9.678,27.849c-10.3,2.011-16.159,1.171-28.207-2.179-1.557-12.421-1.911-61.941-8.552-81.018C5320.573,2277.242,5304.2,2231.893,5298.959,2216.428Z" fill="#2c2d2f"/>
              <path id="Trazado_4756" data-name="Trazado 4756" d="M5332.011,2204.668l5.08-2.839,8.562,6.737a3.88,3.88,0,0,1,.461.222l-6.986,11.679S5334.243,2215.486,5332.011,2204.668Z" fill="#cacccf"/>
              <path id="Trazado_4757" data-name="Trazado 4757" d="M5357.8,2207.724a3.568,3.568,0,0,1,.216-.3l8.208-8.291,4.291,1.81c.175,2.681.4,10.4-4.526,17.389Z" fill="#cacccf"/>
              <path id="Trazado_4758" data-name="Trazado 4758" d="M5363.522,2194.038l5.929,4.967s1.152,7.118-4.058,15.219l-7.378-6.8A21.69,21.69,0,0,0,5363.522,2194.038Z" fill="#eceff2"/>
              <path id="Trazado_4759" data-name="Trazado 4759" d="M5337.78,2196.423l-4.913,5.973s.175,7.207,6.783,14.213l6-8.043A21.7,21.7,0,0,1,5337.78,2196.423Z" fill="#eceff2"/>
              <path id="Trazado_4760" data-name="Trazado 4760" d="M5370.053,2199.825l5.816,2.068s3.355,9.342,7.929,30.2l-6.958,4.06,5.675,4.6s-9.172,34.073-17.9,51.957c0,0-22.947-27.821-32-46.159l4.1-7.473-8.987-1.8s-1.208-23.824-.267-30.726l4.431-3.2s5.488,28.289,31.705,82.353C5363.6,2285.714,5373.439,2222.191,5370.053,2199.825Z" fill="#1b1c1c"/>
              <rect id="Rectángulo_979" data-name="Rectángulo 979" width="18.833" height="2.093" transform="matrix(1, -0.022, 0.022, 1, 5334.458, 2333.461)" fill="#1b1c1c"/>
              <rect id="Rectángulo_980" data-name="Rectángulo 980" width="18.834" height="2.093" transform="translate(5318.633 2243.26) rotate(-6.145)" fill="#1b1c1c"/>
            </g>
            <path id="Trazado_4761" data-name="Trazado 4761" d="M5381.631,2324.794s7.169-19.774-12.964-18.495-87.107,7.331-87.107,7.331l2.692,11.164Z" fill="#314d7c"/>
            <g id="Grupo_775" data-name="Grupo 775">
              <path id="Trazado_4762" data-name="Trazado 4762" d="M5298.959,2216.428s-25.6,8.964,1.959,77.936c8.79,22,61.792,16.332,61.792,16.332s12.885-6.823,6.434-20.2c-2.976-6.173-31.843-7.693-40.456-9.088C5328.688,2281.407,5320.282,2226.048,5298.959,2216.428Z" fill="#353536"/>
              <path id="Trazado_4763" data-name="Trazado 4763" d="M5356.42,2295.75s-4.962,12.556,6.029,13.88c8.4,1.012,10.754-6.184,10.752-10.468,0-2.106-.7-8.294-5.755-9.254S5358.3,2291.216,5356.42,2295.75Z" fill="#e7e9ed"/>
              <g id="Grupo_774" data-name="Grupo 774">
                <path id="Trazado_4764" data-name="Trazado 4764" d="M5371.818,2293.1a9.161,9.161,0,0,0-9.1,9.2h0a9.16,9.16,0,0,0,9.7,8.575l9.124-.3c5.19-.173,6.224-4.192,6.06-9.1h0c-.163-4.909-2.016-8.831-7.207-8.658Z" fill="#e4a083"/>
                <g id="Grupo_770" data-name="Grupo 770">
                  <path id="Trazado_4765" data-name="Trazado 4765" d="M5382.431,2296.952a2.575,2.575,0,0,0,.524,1.3c3.155,4.023,3.632,14.7,3.549,18.476a2.329,2.329,0,0,0,2.025,2.474,2.123,2.123,0,0,0,2.127-2.221c.034-1.582.2-15.635-4.629-21.793a1.921,1.921,0,0,0-2.934-.25A2.455,2.455,0,0,0,5382.431,2296.952Z" fill="#e4a083"/>
                </g>
                <g id="Grupo_771" data-name="Grupo 771">
                  <path id="Trazado_4766" data-name="Trazado 4766" d="M5379,2298.557a2.4,2.4,0,0,0,.329,1.142c4.071,6.956,2.509,20.037,2.493,20.168a2.348,2.348,0,0,0,1.959,2.641,2.279,2.279,0,0,0,2.539-2.024c.075-.6,1.788-14.846-3.116-23.223a2.225,2.225,0,0,0-3.116-.8A2.369,2.369,0,0,0,5379,2298.557Z" fill="#e4a083"/>
                </g>
                <g id="Grupo_772" data-name="Grupo 772">
                  <path id="Trazado_4767" data-name="Trazado 4767" d="M5376.552,2303.234a2.755,2.755,0,0,0,.143.843c2.1,6.157,1.367,13.743,1.36,13.82a2.31,2.31,0,0,0,1.773,2.617,2.1,2.1,0,0,0,2.242-2.057c.036-.358.852-8.857-1.617-16.1a1.946,1.946,0,0,0-2.625-1.327A2.378,2.378,0,0,0,5376.552,2303.234Z" fill="#e4a083"/>
                </g>
                <g id="Grupo_773" data-name="Grupo 773">
                  <path id="Trazado_4768" data-name="Trazado 4768" d="M5372.489,2304.1a2.515,2.515,0,0,0,.105.671,32.821,32.821,0,0,1,1.3,10.693,2.322,2.322,0,0,0,2,2.551,2.236,2.236,0,0,0,2.367-2.141,37.88,37.88,0,0,0-1.5-12.534,2.171,2.171,0,0,0-2.756-1.528A2.341,2.341,0,0,0,5372.489,2304.1Z" fill="#e4a083"/>
                </g>
              </g>
            </g>
            <g id="Grupo_791" data-name="Grupo 791">
              <g id="Grupo_784" data-name="Grupo 784">
                <path id="Trazado_4769" data-name="Trazado 4769" d="M5378.031,2145.286s10.506-14.27,10.506-16.782-12.742-24-17.488-19.928-6.843,9.569-25.152,4.73c0,0-5.23-1.962-10.2,3.008s-10.986,7.945-9.416,12.212c0,0-6.463,4.094-5.455,9.413s4.408,20.515,4.408,20.515l19.369,9.653Z" fill="#b55f30"/>
                <path id="Trazado_4770" data-name="Trazado 4770" d="M5333.169,2139.857c2.093-5.668-6.888-11.331-6.888-11.331,16.654,8.986,33.656,1.129,46.106-5.291s16.15,5.269,16.15,5.269c0,2.512-10.506,16.782-10.506,16.782l-33.428,22.821-19.369-9.653s-1.827-8.166-3.2-14.622C5326.418,2144.1,5331.9,2143.3,5333.169,2139.857Z" fill="#984a29"/>
                <path id="Trazado_4771" data-name="Trazado 4771" d="M5363.933,2132.4a50.99,50.99,0,0,0,8.735-3.619c4.621-2.442,6.486-4.194,9.416-3.052,5.537,2.158-6.626,16.044-6.626,16.044Z" fill="#853f24"/>
                <g id="Grupo_783" data-name="Grupo 783">
                  <g id="Grupo_776" data-name="Grupo 776">
                    <path id="Trazado_4772" data-name="Trazado 4772" d="M5324.866,2134.325c4.488,0,5.691-3.03,5.706-3.066a.393.393,0,0,0-.734-.279h0c-.059.151-1.507,3.673-7.714,2.212a.393.393,0,0,0-.179.765A12.785,12.785,0,0,0,5324.866,2134.325Z" fill="#984a29"/>
                  </g>
                  <g id="Grupo_777" data-name="Grupo 777">
                    <path id="Trazado_4773" data-name="Trazado 4773" d="M5323.762,2140.464c8.162,0,10.2-6.707,10.22-6.781a.392.392,0,0,0-.754-.218c-.087.3-2.242,7.313-11.572,6.068a.392.392,0,0,0-.1.778A16.6,16.6,0,0,0,5323.762,2140.464Z" fill="#984a29"/>
                  </g>
                  <g id="Grupo_778" data-name="Grupo 778">
                    <path id="Trazado_4774" data-name="Trazado 4774" d="M5336.613,2132.929c16.174,0,29.406-7.476,34.027-12.288,6.487-6.757,11.55-2.087,11.762-1.884a.393.393,0,1,0,.541-.569c-.057-.055-5.848-5.4-12.869,1.909-4.618,4.811-18.044,12.335-34.386,12.039a.393.393,0,0,0-.014.785C5335.988,2132.926,5336.3,2132.929,5336.613,2132.929Z" fill="#984a29"/>
                  </g>
                  <g id="Grupo_779" data-name="Grupo 779">
                    <path id="Trazado_4775" data-name="Trazado 4775" d="M5331.021,2131.372l.035,0c27.87-2.443,36.274-12.457,39.863-16.732a5.533,5.533,0,0,1,3.916-2.271,5.473,5.473,0,0,1,3.682,1.447.392.392,0,0,0,.552-.558,6.186,6.186,0,0,0-4.27-1.673,6.28,6.28,0,0,0-4.482,2.55c-3.526,4.2-11.783,14.04-39.33,16.455a.393.393,0,0,0,.034.784Z" fill="#984a29"/>
                  </g>
                  <g id="Grupo_780" data-name="Grupo 780">
                    <path id="Trazado_4776" data-name="Trazado 4776" d="M5328.623,2130.073l.051,0c27.833-3.618,35.765-14.889,36.089-15.366a.393.393,0,0,0-.649-.441c-.078.114-8.106,11.462-35.541,15.028a.393.393,0,0,0,.05.782Z" fill="#984a29"/>
                  </g>
                  <g id="Grupo_781" data-name="Grupo 781">
                    <path id="Trazado_4777" data-name="Trazado 4777" d="M5327.6,2129.415a.408.408,0,0,0,.109-.015c23.218-6.642,22.558-14.345,22.518-14.669a.392.392,0,0,0-.779.091c.009.094.441,7.416-21.955,13.823a.392.392,0,0,0,.107.77Z" fill="#984a29"/>
                  </g>
                  <g id="Grupo_782" data-name="Grupo 782">
                    <path id="Trazado_4778" data-name="Trazado 4778" d="M5326.853,2128.788a.394.394,0,0,0,.134-.023c13.156-4.763,11.545-13.712,11.528-13.8a.392.392,0,0,0-.77.152c.065.34,1.469,8.389-11.026,12.912a.392.392,0,0,0,.134.761Z" fill="#984a29"/>
                  </g>
                </g>
              </g>
              <g id="Grupo_790" data-name="Grupo 790">
                <g id="Grupo_785" data-name="Grupo 785">
                  <path id="Trazado_4779" data-name="Trazado 4779" d="M5327.561,2156.336l3.37,2.842c.708-1.683,1.472-9.231,2.412-10.8,4.622-7.733,1.744-14.161,1.744-14.161,19.793,2.591,25.561-2.52,31.564-1.855,8.245.913,10,5.819,10,5.819,2.082,7.76,1.464,11.707,1.464,11.707.016,9.2.208,24.812-6.113,34.141-2.666,3.935-6.036,7.237-11.691,8.123-24.632,3.857-30.963-20.242-30.963-20.242s-7.72,2.057-9.294-9.323C5318.752,2153.157,5327.561,2156.336,5327.561,2156.336Z" fill="#e4a083"/>
                  <path id="Trazado_4780" data-name="Trazado 4780" d="M5360.112,2136.823c-10.376,3.557-19.706.031-22.583-.952a12.514,12.514,0,0,1-3.307,10.861c3.34-6.979.865-12.519.865-12.519,19.793,2.591,25.561-2.52,31.564-1.855,8.245.913,10,5.819,10,5.819.1.357.179.7.264,1.038C5373.674,2137.221,5367.3,2134.36,5360.112,2136.823Z" fill="#d78b73"/>
                  <path id="Trazado_4781" data-name="Trazado 4781" d="M5331.223,2169.067c2.093,6.1,9.9,21.144,26.728,20.228,9.109-.495,13.731-6.5,16.767-10.7a24.724,24.724,0,0,1-2.713,5.43c-2.666,3.935-6.036,7.237-11.691,8.123-24.632,3.857-30.963-20.242-30.963-20.242s-5.91,1.65-8.525-5.879C5325.422,2173.666,5331.223,2169.067,5331.223,2169.067Z" fill="#d78b73"/>
                </g>
                <path id="Trazado_4782" data-name="Trazado 4782" d="M5364.592,2159.308c.02,2.118,1.306,3.736,2.874,3.61s2.819-1.946,2.8-4.066-1.308-3.736-2.874-3.61S5364.57,2157.187,5364.592,2159.308Z" fill="#4a332b"/>
                <path id="Trazado_4783" data-name="Trazado 4783" d="M5343.061,2158.681c.02,2.119,1.307,3.737,2.874,3.611s2.82-1.946,2.8-4.065-1.308-3.736-2.873-3.611S5343.039,2156.562,5343.061,2158.681Z" fill="#4a332b"/>
                <g id="Grupo_786" data-name="Grupo 786">
                  <path id="Trazado_4784" data-name="Trazado 4784" d="M5356.957,2171.335c4.764,1.925,7.331-.317,7.522-2.57a3.231,3.231,0,0,0-2.116-3.322c-2.9-1.133-4.948-5.6-4.969-5.642h0a9.571,9.571,0,0,0,4.7,7.024c.8.463,1.292.952,1.231,1.678-.107,1.263-1.933,3.149-6.372,2.832Z" fill="#c47b66"/>
                </g>
                <g id="Grupo_787" data-name="Grupo 787">
                  <path id="Trazado_4785" data-name="Trazado 4785" d="M5374.271,2150.754l.208-2.289a24.171,24.171,0,0,0-11-1.4l-.051,3.59C5368.158,2149.54,5374.195,2150.745,5374.271,2150.754Z" fill="#984a29"/>
                </g>
                <g id="Grupo_788" data-name="Grupo 788">
                  <path id="Trazado_4786" data-name="Trazado 4786" d="M5339.15,2151.035c3.994-1.709,11.127-.922,11.2-.935l-.246-3.335c-.286.043-6.753-.713-11.3,2.207Z" fill="#984a29"/>
                </g>
                <g id="Grupo_789" data-name="Grupo 789">
                  <path id="Trazado_4787" data-name="Trazado 4787" d="M5348.677,2174.647s8.964,1.831,17.3,0c0,0-1.476,7.667-8.65,7.651C5350.564,2182.283,5348.755,2176.129,5348.677,2174.647Z" fill="#982c2c"/>
                  <path id="Trazado_4788" data-name="Trazado 4788" d="M5357.517,2178.309c5.514,0,7.133-2.287,7.827-3.533-6.47,1.277-11.685.514-16.228-.048C5349.607,2176.112,5352.319,2178.309,5357.517,2178.309Z" fill="#fff"/>
                </g>
              </g>
            </g>
          </g>
        </g>
      </g>
    </g>
    <text id="En_el_siguiente_enlace_se_presenta_un_video_que_muestra_el_proceso_que_se_lleva_en_una_institución_el_manejo_de_las_historias_clínicas." data-name="En el siguiente enlace se presenta un video que muestra el proceso que se lleva en una institución el manejo de las historias clínicas." transform="translate(317.318 2390.289)" fill="#444242" font-size="16" font-family="OpenSans, Open Sans"><tspan x="6.239" y="17">En el siguiente enlace se presenta un video que muestra el proceso que se lleva en una institución el </tspan><tspan x="262.622" y="39">manejo de las historias clínicas.</tspan></text>
  </g>
</svg>
