<svg xmlns="http://www.w3.org/2000/svg" xmlns:xlink="http://www.w3.org/1999/xlink" width="436.216" height="298.535" viewBox="0 0 436.216 298.535">
  <defs>
    <linearGradient id="linear-gradient" x1="6.291" y1="-0.008" x2="7.334" y2="-0.008" gradientUnits="objectBoundingBox">
      <stop offset="0" stop-color="#a37bfa"/>
      <stop offset="1" stop-color="#e093e3"/>
    </linearGradient>
    <linearGradient id="linear-gradient-2" x1="5.977" y1="-0.543" x2="7.058" y2="-0.543" xlink:href="#linear-gradient"/>
    <linearGradient id="linear-gradient-3" x1="53.698" y1="52.073" x2="54.174" y2="52.073" gradientUnits="objectBoundingBox">
      <stop offset="0" stop-color="#903acf"/>
      <stop offset="1" stop-color="#cf4a78"/>
    </linearGradient>
    <linearGradient id="linear-gradient-4" x1="22.649" y1="0.209" x2="22.167" y2="0.758" gradientUnits="objectBoundingBox">
      <stop offset="0" stop-color="#89d6fc"/>
      <stop offset="1" stop-color="#3d42f1"/>
    </linearGradient>
    <linearGradient id="linear-gradient-5" x1="3.132" y1="0.106" x2="-0.765" y2="1.69" gradientUnits="objectBoundingBox">
      <stop offset="0" stop-color="#faf453"/>
      <stop offset="1" stop-color="#bb3e64"/>
    </linearGradient>
    <linearGradient id="linear-gradient-6" x1="2.137" y1="0.628" x2="0.278" y2="0.698" xlink:href="#linear-gradient-4"/>
    <linearGradient id="linear-gradient-7" x1="1.807" y1="0.645" x2="0.059" y2="0.684" xlink:href="#linear-gradient-4"/>
    <linearGradient id="linear-gradient-8" x1="1.621" y1="0.57" x2="-0.125" y2="0.829" xlink:href="#linear-gradient-5"/>
    <linearGradient id="linear-gradient-9" x1="4.635" y1="1.028" x2="-8.148" y2="1.916" xlink:href="#linear-gradient-5"/>
    <linearGradient id="linear-gradient-10" x1="54.123" y1="125.206" x2="54.599" y2="125.206" xlink:href="#linear-gradient-3"/>
    <linearGradient id="linear-gradient-11" x1="-11.213" y1="2.045" x2="-11.694" y2="2.594" xlink:href="#linear-gradient-4"/>
    <linearGradient id="linear-gradient-12" x1="0.955" y1="-0.323" x2="-0.391" y2="2.114" xlink:href="#linear-gradient-4"/>
    <linearGradient id="linear-gradient-13" x1="0" y1="0.5" x2="1" y2="0.5" xlink:href="#linear-gradient-4"/>
    <linearGradient id="linear-gradient-14" x1="0.903" y1="-0.012" x2="-0.558" y2="1.832" xlink:href="#linear-gradient-4"/>
    <linearGradient id="linear-gradient-15" x1="0.969" y1="0.019" x2="-0.255" y2="1.281" gradientUnits="objectBoundingBox">
      <stop offset="0" stop-color="#32387f"/>
      <stop offset="1" stop-color="#1a1643"/>
    </linearGradient>
    <linearGradient id="linear-gradient-16" x1="-0.187" y1="1.215" x2="0.831" y2="0.14" xlink:href="#linear-gradient-3"/>
    <linearGradient id="linear-gradient-17" x1="1.519" y1="-0.775" x2="-1.484" y2="2.907" xlink:href="#linear-gradient-15"/>
    <linearGradient id="linear-gradient-18" x1="1.004" y1="-2.464" x2="-0.074" y2="4.125" xlink:href="#linear-gradient-15"/>
    <linearGradient id="linear-gradient-19" x1="0.727" y1="-2.869" x2="0.282" y2="3.71" xlink:href="#linear-gradient-4"/>
    <linearGradient id="linear-gradient-22" x1="1.099" y1="-0.392" x2="-2.674" y2="5.225" xlink:href="#linear-gradient-5"/>
    <linearGradient id="linear-gradient-23" x1="1.155" y1="-1.755" x2="-0.889" y2="6.276" xlink:href="#linear-gradient-5"/>
    <linearGradient id="linear-gradient-24" x1="1.064" y1="-0.324" x2="-2.149" y2="4.373" xlink:href="#linear-gradient-3"/>
    <linearGradient id="linear-gradient-25" x1="1.318" y1="-6.478" x2="-1.677" y2="19.07" xlink:href="#linear-gradient-3"/>
    <linearGradient id="linear-gradient-26" x1="1.476" y1="-8.015" x2="-1.506" y2="17.619" xlink:href="#linear-gradient-3"/>
    <linearGradient id="linear-gradient-27" x1="1.037" y1="-0.34" x2="-2.355" y2="4.973" xlink:href="#linear-gradient-4"/>
    <linearGradient id="linear-gradient-28" x1="1.117" y1="-0.316" x2="-1.724" y2="3.447" xlink:href="#linear-gradient-5"/>
    <linearGradient id="linear-gradient-29" x1="1.519" y1="-0.775" x2="-1.484" y2="2.907" xlink:href="#linear-gradient-15"/>
    <linearGradient id="linear-gradient-30" x1="1.004" y1="-2.464" x2="-0.074" y2="4.125" xlink:href="#linear-gradient-15"/>
    <linearGradient id="linear-gradient-31" x1="0.727" y1="-2.869" x2="0.282" y2="3.71" xlink:href="#linear-gradient-4"/>
    <linearGradient id="linear-gradient-32" x1="2.578" y1="-2.211" x2="-1.787" y2="3.403" xlink:href="#linear-gradient-3"/>
    <linearGradient id="linear-gradient-33" x1="463.679" y1="-0.484" x2="460.844" y2="6.012" xlink:href="#linear-gradient-15"/>
    <linearGradient id="linear-gradient-34" x1="1834.401" y1="0.5" x2="1835.401" y2="0.5" gradientUnits="objectBoundingBox">
      <stop offset="0" stop-color="#e7b579"/>
      <stop offset="1" stop-color="#d87861"/>
    </linearGradient>
    <linearGradient id="linear-gradient-35" x1="556.229" y1="0.031" x2="553.332" y2="0.887" xlink:href="#linear-gradient-15"/>
    <linearGradient id="linear-gradient-36" x1="1142.439" y1="-2.223" x2="1135.421" y2="5.384" xlink:href="#linear-gradient-15"/>
    <linearGradient id="linear-gradient-37" x1="2116.151" y1="0.5" x2="2117.151" y2="0.5" xlink:href="#linear-gradient-34"/>
    <linearGradient id="linear-gradient-38" x1="391.257" y1="-0.035" x2="389.216" y2="0.806" xlink:href="#linear-gradient-15"/>
    <linearGradient id="linear-gradient-39" x1="0.447" y1="-0.002" x2="0.951" y2="2.371" xlink:href="#linear-gradient-5"/>
    <linearGradient id="linear-gradient-40" x1="0.154" y1="-0.492" x2="0.5" y2="0.348" xlink:href="#linear-gradient-34"/>
    <linearGradient id="linear-gradient-41" x1="0.237" y1="0.04" x2="1.266" y2="1.767" xlink:href="#linear-gradient-34"/>
    <linearGradient id="linear-gradient-42" x1="1.523" y1="1.716" x2="-0.353" y2="-0.451" xlink:href="#linear-gradient-34"/>
    <linearGradient id="linear-gradient-43" x1="0.25" y1="-0.472" x2="1.516" y2="5.598" xlink:href="#linear-gradient-5"/>
    <linearGradient id="linear-gradient-44" x1="282.445" y1="0.5" x2="283.445" y2="0.5" xlink:href="#linear-gradient-34"/>
    <linearGradient id="linear-gradient-45" x1="265.744" y1="-0.062" x2="266.258" y2="2.428" gradientUnits="objectBoundingBox">
      <stop offset="0" stop-color="#bdfffa"/>
      <stop offset="1" stop-color="#bcfff9"/>
    </linearGradient>
    <linearGradient id="linear-gradient-46" x1="1393.812" y1="-3.496" x2="1393.239" y2="1.804" xlink:href="#linear-gradient-4"/>
    <linearGradient id="linear-gradient-47" x1="730.082" y1="-1.235" x2="729.938" y2="1.146" xlink:href="#linear-gradient-4"/>
    <linearGradient id="linear-gradient-48" x1="910.321" y1="0.5" x2="911.321" y2="0.5" xlink:href="#linear-gradient-34"/>
    <linearGradient id="linear-gradient-49" x1="716.68" y1="0.5" x2="717.68" y2="0.5" xlink:href="#linear-gradient-34"/>
    <linearGradient id="linear-gradient-50" x1="127.91" y1="128.284" x2="127.589" y2="127.219" xlink:href="#linear-gradient-34"/>
    <linearGradient id="linear-gradient-51" x1="97.174" y1="97.037" x2="97.379" y2="98.216" xlink:href="#linear-gradient-15"/>
    <linearGradient id="linear-gradient-52" x1="413.606" y1="619.329" x2="412.663" y2="614.683" xlink:href="#linear-gradient-34"/>
    <linearGradient id="linear-gradient-53" x1="548.581" y1="0.238" x2="547.746" y2="0.678" xlink:href="#linear-gradient-34"/>
    <linearGradient id="linear-gradient-54" x1="-339.128" y1="-584.046" x2="-339.318" y2="-580.326" gradientUnits="objectBoundingBox">
      <stop offset="0" stop-color="#ad286b"/>
      <stop offset="1" stop-color="#45296b"/>
    </linearGradient>
    <linearGradient id="linear-gradient-55" x1="653.175" y1="0.225" x2="656.578" y2="-1.251" xlink:href="#linear-gradient-34"/>
    <linearGradient id="linear-gradient-56" x1="-163.511" y1="-647.42" x2="-163.732" y2="-644.311" xlink:href="#linear-gradient-54"/>
    <linearGradient id="linear-gradient-57" x1="239.677" y1="55.295" x2="239.047" y2="58.201" xlink:href="#linear-gradient-3"/>
    <linearGradient id="linear-gradient-58" x1="-393.235" y1="-49.887" x2="-392.917" y2="-49.141" xlink:href="#linear-gradient-15"/>
    <linearGradient id="linear-gradient-59" x1="704.545" y1="0.088" x2="702.009" y2="2.712" xlink:href="#linear-gradient-5"/>
    <linearGradient id="linear-gradient-60" x1="-271.659" y1="0.5" x2="-270.659" y2="0.5" xlink:href="#linear-gradient-34"/>
    <linearGradient id="linear-gradient-61" x1="-1262.065" y1="-88.419" x2="-1261.881" y2="-89.499" xlink:href="#linear-gradient-34"/>
    <linearGradient id="linear-gradient-62" x1="-729.034" y1="-232.805" x2="-727.467" y2="-235.08" xlink:href="#linear-gradient-34"/>
    <linearGradient id="linear-gradient-63" x1="-472.922" y1="-326.614" x2="-472.414" y2="-324.38" xlink:href="#linear-gradient-15"/>
    <linearGradient id="linear-gradient-64" x1="-2981.606" y1="-761.839" x2="-2975.2" y2="-769.287" xlink:href="#linear-gradient-34"/>
    <linearGradient id="linear-gradient-65" x1="-375.987" y1="-202.34" x2="-376.727" y2="-199.902" xlink:href="#linear-gradient-4"/>
    <linearGradient id="linear-gradient-66" x1="227.334" y1="0.565" x2="232.409" y2="-0.107" xlink:href="#linear-gradient-15"/>
    <linearGradient id="linear-gradient-67" x1="-2973.418" y1="-0.304" x2="-2975.259" y2="1.582" xlink:href="#linear-gradient-4"/>
    <linearGradient id="linear-gradient-68" x1="82.66" y1="128.172" x2="83.668" y2="128.172" xlink:href="#linear-gradient-3"/>
    <linearGradient id="linear-gradient-69" x1="157.337" y1="244.087" x2="158.066" y2="242.166" xlink:href="#linear-gradient-3"/>
    <linearGradient id="linear-gradient-70" x1="-0.076" y1="1.031" x2="0.732" y2="0.196" xlink:href="#linear-gradient-15"/>
    <linearGradient id="linear-gradient-71" x1="0.357" y1="0.146" x2="1.041" y2="1.261" xlink:href="#linear-gradient-4"/>
    <linearGradient id="linear-gradient-72" x1="3.289" y1="0.263" x2="-0.028" y2="0.545" xlink:href="#linear-gradient-4"/>
    <linearGradient id="linear-gradient-73" x1="1.65" y1="0.446" x2="-0.101" y2="0.528" xlink:href="#linear-gradient-4"/>
    <clipPath id="clip-path">
      <path id="Trazado_4933" data-name="Trazado 4933" d="M5560.614,4337.517c-.634-.645-2.015-3.132-3.2-9.563a146.1,146.1,0,0,1,0-45.4c1.184-6.431,2.565-8.917,3.2-9.562.634.645,2.015,3.131,3.2,9.562,1.145,6.215,10.173,14.276,10.173,22.7s-9.028,16.483-10.173,22.7C5562.629,4334.385,5561.248,4336.872,5560.614,4337.517Z" fill="none"/>
    </clipPath>
    <linearGradient id="linear-gradient-74" x1="1.279" y1="-0.542" x2="0.243" y2="0.874" xlink:href="#linear-gradient-5"/>
    <linearGradient id="linear-gradient-75" x1="0.525" y1="0.934" x2="0.436" y2="-0.664" xlink:href="#linear-gradient-15"/>
    <linearGradient id="linear-gradient-76" x1="-209.667" y1="0.5" x2="-208.667" y2="0.5" xlink:href="#linear-gradient-4"/>
    <linearGradient id="linear-gradient-77" x1="-215.724" y1="0.5" x2="-214.724" y2="0.5" xlink:href="#linear-gradient-15"/>
    <linearGradient id="linear-gradient-78" x1="-744.159" y1="0.5" x2="-743.16" y2="0.5" xlink:href="#linear-gradient-34"/>
    <linearGradient id="linear-gradient-79" x1="-547.037" y1="0.5" x2="-546.037" y2="0.5" xlink:href="#linear-gradient-4"/>
    <linearGradient id="linear-gradient-80" x1="-372.708" y1="0.5" x2="-371.708" y2="0.5" xlink:href="#linear-gradient-15"/>
    <linearGradient id="linear-gradient-81" x1="-622.703" y1="0.5" x2="-621.703" y2="0.5" xlink:href="#linear-gradient-34"/>
    <linearGradient id="linear-gradient-82" x1="-79.166" y1="1.193" x2="-77.502" y2="0.002" xlink:href="#linear-gradient-15"/>
    <linearGradient id="linear-gradient-83" x1="0.839" y1="0.144" x2="-0.655" y2="1.22" xlink:href="#linear-gradient-5"/>
    <linearGradient id="linear-gradient-84" x1="-466.747" y1="5.021" x2="-466.389" y2="4.213" xlink:href="#linear-gradient-4"/>
    <linearGradient id="linear-gradient-85" x1="-416.539" y1="0.1" x2="-418.928" y2="1.142" xlink:href="#linear-gradient-34"/>
    <linearGradient id="linear-gradient-86" x1="1.724" y1="-0.116" x2="-1.573" y2="1.755" xlink:href="#linear-gradient-5"/>
    <linearGradient id="linear-gradient-87" x1="1.061" y1="0.306" x2="-3.354" y2="2.503" xlink:href="#linear-gradient-5"/>
    <linearGradient id="linear-gradient-88" x1="-222.151" y1="0.5" x2="-221.151" y2="0.5" xlink:href="#linear-gradient-34"/>
    <linearGradient id="linear-gradient-89" x1="-299.145" y1="-0.004" x2="-299.16" y2="1.888" xlink:href="#linear-gradient-34"/>
    <linearGradient id="linear-gradient-90" x1="-42.422" y1="0.5" x2="-41.422" y2="0.5" xlink:href="#linear-gradient-15"/>
    <linearGradient id="linear-gradient-91" x1="-46.216" y1="0.5" x2="-45.216" y2="0.5" xlink:href="#linear-gradient"/>
    <linearGradient id="linear-gradient-92" x1="-41.534" y1="0.5" x2="-40.534" y2="0.5" xlink:href="#linear-gradient-15"/>
    <linearGradient id="linear-gradient-93" x1="-338.645" y1="103.331" x2="-340.165" y2="104.668" xlink:href="#linear-gradient-34"/>
    <linearGradient id="linear-gradient-94" x1="-191.129" y1="65.852" x2="-190.107" y2="65.852" xlink:href="#linear-gradient-15"/>
    <linearGradient id="linear-gradient-95" x1="-918.751" y1="294.644" x2="-915.46" y2="292.288" xlink:href="#linear-gradient-34"/>
    <linearGradient id="linear-gradient-96" x1="-295.092" y1="-1.223" x2="-296.785" y2="3.819" xlink:href="#linear-gradient-34"/>
    <linearGradient id="linear-gradient-97" x1="-620.421" y1="0.5" x2="-619.421" y2="0.5" xlink:href="#linear-gradient-34"/>
  </defs>
  <g id="Grupo_841" data-name="Grupo 841" transform="translate(-5137.769 -4154.985)">
    <path id="Trazado_4790" data-name="Trazado 4790" d="M5452.646,4170.431c26.518,24.109,103.365-15.74,108.627,34.071,6.162,58.324-70.877,85.175-40.223,122.932s7.991,87.087-95.1,98.881-275.066-19.185-242.007-79.851,6.115-60.258,1.14-84.662,8.572-80.942,93.871-45.666S5385.494,4109.381,5452.646,4170.431Z" opacity="0.26" fill="url(#linear-gradient)"/>
    <path id="Trazado_4791" data-name="Trazado 4791" d="M5367.014,4192.765c26.513,17.585,88.58-27.723,99.9,15.276,13.256,50.347-50.729,84.277-18.749,113.281s18.732,75.34-70.136,99.562-243.94,20.185-223.1-37.5-2.744-53.7-10.394-74.441-3.372-72.176,76.222-52.7S5299.875,4148.234,5367.014,4192.765Z" opacity="0.26" fill="url(#linear-gradient-2)"/>
    <g id="Grupo_796" data-name="Grupo 796" opacity="0.93">
      <path id="Trazado_4792" data-name="Trazado 4792" d="M5222.1,4450.018s-.213-17.822-17.616-32.137c-16.146-13.282-55.855-43.5-64.9-63.033-.4-.866-1.782-.285-1.8.76-.206,11.2,1.422,38.821,20,62.6C5181.743,4448.872,5222.1,4450.018,5222.1,4450.018Z" fill="url(#linear-gradient-3)"/>
      <path id="Trazado_4793" data-name="Trazado 4793" d="M5145.81,4373.475s.061.409.234,1.162c.091.375.191.84.35,1.378.074.269.153.559.238.868l.3.976c.111.342.214.707.347,1.081l.425,1.173c.277.821.661,1.678,1.039,2.6.184.465.4.933.634,1.412l.7,1.483c.486,1.009,1.064,2.039,1.629,3.129q.945,1.582,1.963,3.292c.746,1.1,1.478,2.253,2.3,3.4q.636.841,1.288,1.706c.445.568.845,1.181,1.339,1.732l1.442,1.711c.493.569.953,1.176,1.5,1.718q.792.834,1.6,1.68.4.424.806.851l.4.429.429.405c1.155,1.077,2.3,2.189,3.5,3.268l3.741,3.11c1.27,1.015,2.6,2.021,3.894,3.035,2.616,2,5.256,3.959,7.877,5.874s5.223,3.762,7.756,5.534l7.308,5.115c2.326,1.629,4.53,3.163,6.532,4.634.5.368,1,.718,1.469,1.08l1.378,1.068c.9.681,1.719,1.392,2.5,2.028s1.467,1.3,2.125,1.881c.635.606,1.195,1.188,1.713,1.7a26.2,26.2,0,0,1,2.157,2.609l.7.971a.2.2,0,0,1-.323.246l-.012-.015-.739-.916a28.851,28.851,0,0,0-2.239-2.448c-.529-.484-1.1-1.033-1.747-1.6-.672-.546-1.372-1.163-2.166-1.772-1.58-1.229-3.414-2.547-5.445-3.953s-4.255-2.9-6.613-4.472l-7.426-4.96c-2.557-1.752-5.188-3.579-7.836-5.475s-5.3-3.882-7.934-5.885c-1.306-1.017-2.611-2.007-3.911-3.042l-3.781-3.2c-1.207-1.109-2.366-2.252-3.531-3.358l-.434-.417-.407-.44-.807-.88-1.594-1.743c-.543-.562-1-1.19-1.492-1.778s-.96-1.187-1.433-1.771l-.354-.437-.327-.453q-.324-.453-.644-.9-.636-.9-1.257-1.775c-.8-1.186-1.509-2.386-2.231-3.52-.666-1.17-1.283-2.315-1.87-3.414-.53-1.13-1.072-2.195-1.523-3.238l-.633-1.534c-.207-.5-.4-.981-.561-1.462-.332-.957-.67-1.84-.9-2.685-.126-.418-.247-.82-.363-1.2s-.2-.758-.29-1.109-.172-.684-.25-1-.127-.613-.184-.889c-.12-.55-.187-1.025-.251-1.407-.118-.768-.15-1.18-.15-1.18a.025.025,0,0,1,.022-.028A.028.028,0,0,1,5145.81,4373.475Z" fill="#fff" opacity="0.45"/>
    </g>
    <g id="Grupo_797" data-name="Grupo 797" opacity="0.93">
      <path id="Trazado_4794" data-name="Trazado 4794" d="M5160.559,4248.912a1.621,1.621,0,0,1,3.142-.113c4.459,15.671,17.436,56.4,37.255,77.958,32.27,35.111,53.868,92.236,33.388,121.939C5234.344,4448.7,5122.526,4428.543,5160.559,4248.912Z" fill="url(#linear-gradient-4)"/>
      <path id="Trazado_4795" data-name="Trazado 4795" d="M5164.223,4271.272l.066.49c.057.319.127.778.246,1.4.22,1.244.586,3.062,1.052,5.375s1.067,5.116,1.8,8.321c.713,3.209,1.591,6.813,2.54,10.746.979,3.925,2.049,8.175,3.275,12.645,1.2,4.478,2.568,9.171,3.992,14.021,1.459,4.841,2.99,9.836,4.67,14.871q.628,1.888,1.26,3.791.657,1.893,1.319,3.8c.864,2.543,1.808,5.068,2.727,7.6s1.92,5.037,2.859,7.552q1.474,3.747,2.968,7.441c1.039,2.441,2.027,4.881,3.079,7.258l1.574,3.541q.392.879.779,1.752l.807,1.722,1.6,3.4q.4.84.792,1.673.411.825.819,1.64c1.1,2.165,2.1,4.326,3.212,6.359l1.6,3.029.781,1.481.806,1.437c1.078,1.892,2.084,3.742,3.114,5.48l3,4.963c.974,1.562,1.939,3.019,2.824,4.4q.669,1.033,1.3,2,.658.943,1.268,1.818l2.236,3.2c.672.969,1.339,1.784,1.88,2.523l1.4,1.858,1.166,1.547.006.007a.2.2,0,0,1-.322.249l-1.208-1.521c-.394-.5-.881-1.107-1.452-1.827l-.92-1.159c-.326-.414-.68-.849-1.02-1.333l-2.3-3.169-1.308-1.8q-.647-.957-1.339-1.981c-.912-1.372-1.915-2.812-2.913-4.368l-3.069-4.947c-1.054-1.732-2.085-3.577-3.189-5.465q-.409-.71-.826-1.433l-.8-1.477-1.639-3.022c-2.2-4.093-4.382-8.485-6.534-13.075l-.817-1.726q-.393-.875-.788-1.755l-1.593-3.547c-1.065-2.381-2.066-4.825-3.117-7.27q-1.512-3.694-3.006-7.453l-1.439-3.781c-.479-1.262-.964-2.524-1.414-3.8-.913-2.545-1.851-5.08-2.709-7.631l-1.31-3.81-1.25-3.8c-1.667-5.053-3.186-10.064-4.631-14.92-1.4-4.868-2.711-9.588-3.872-14.084-1.183-4.49-2.213-8.758-3.154-12.7-1.844-7.893-3.176-14.515-4.053-19.16-.431-2.325-.747-4.155-.944-5.407-.1-.621-.17-1.122-.219-1.448l-.056-.493a.2.2,0,0,1,.4-.051Z" fill="#fff" opacity="0.43"/>
    </g>
    <g id="Grupo_798" data-name="Grupo 798">
      <path id="Trazado_4796" data-name="Trazado 4796" d="M5536.683,4272.118l6.8.354a6.306,6.306,0,0,1,5.978,6.325l-.683,161.235a6.618,6.618,0,0,1-6.689,6.589l-46.658-.508Z" fill="url(#linear-gradient-5)"/>
      <path id="Trazado_4797" data-name="Trazado 4797" d="M5455.213,4273.1l86.075-5.065a3.055,3.055,0,0,1,3.233,3.115l-3.573,166.176a6.387,6.387,0,0,1-6.574,6.245l-60.555-1.8Z" fill="url(#linear-gradient-6)"/>
      <path id="Trazado_4798" data-name="Trazado 4798" d="M5459.847,4276.55l75.642-10.457a3.211,3.211,0,0,1,3.65,3.217L5537.21,4436.9a4.439,4.439,0,0,1-4.262,4.384l-55.707,2.213Z" fill="url(#linear-gradient-7)"/>
      <path id="Trazado_4799" data-name="Trazado 4799" d="M5439.853,4268.43l82.987-6.039a7.188,7.188,0,0,1,7.711,7.1l1.792,171.1a6.282,6.282,0,0,1-6.217,6.348l-76.562.8a6.8,6.8,0,0,1-6.856-6.362l-10.559-164.1A8.324,8.324,0,0,1,5439.853,4268.43Z" fill="url(#linear-gradient-8)"/>
      <rect id="Rectángulo_983" data-name="Rectángulo 983" width="12.91" height="51.06" rx="6.455" transform="translate(5524.193 4278.703) rotate(-0.6)" fill="url(#linear-gradient-9)"/>
    </g>
    <g id="Grupo_799" data-name="Grupo 799" opacity="0.93">
      <path id="Trazado_4800" data-name="Trazado 4800" d="M5467.456,4448.392s.129-10.771,10.646-19.422c9.758-8.027,33.756-26.288,39.223-38.1.242-.523,1.077-.172,1.089.46.124,6.77-.859,23.461-12.088,37.832C5491.847,4447.7,5467.456,4448.392,5467.456,4448.392Z" fill="url(#linear-gradient-10)"/>
      <path id="Trazado_4801" data-name="Trazado 4801" d="M5513.6,4402.138s-.014.25-.075.717a18.506,18.506,0,0,1-.369,2,26.912,26.912,0,0,1-.891,3.049c-.189.585-.448,1.185-.7,1.829s-.586,1.287-.9,1.978c-.348.672-.713,1.373-1.112,2.087-.432.694-.857,1.427-1.335,2.153-.5.708-.988,1.462-1.552,2.181s-1.135,1.459-1.765,2.168-1.265,1.44-1.96,2.126-1.409,1.371-2.141,2.047l-2.292,1.949c-.792.63-1.577,1.224-2.367,1.839-1.594,1.211-3.2,2.421-4.807,3.559s-3.2,2.243-4.751,3.3c-1.562,1.033-3.071,2.033-4.5,2.98s-2.793,1.818-4.02,2.661-2.351,1.613-3.312,2.341c-.482.361-.908.726-1.317,1.05-.393.338-.74.663-1.063.95a17.987,17.987,0,0,0-1.369,1.448l-.454.543-.012.015a.2.2,0,0,1-.323-.247l.416-.6a15.633,15.633,0,0,1,1.288-1.608c.31-.315.647-.673,1.028-1.046.4-.356.809-.76,1.276-1.158.935-.8,2-1.682,3.213-2.572s2.523-1.852,3.925-2.842l4.4-3.109c1.526-1.075,3.094-2.2,4.671-3.356s3.171-2.337,4.75-3.548c.783-.612,1.587-1.224,2.35-1.833l2.252-1.863c.72-.646,1.411-1.312,2.107-1.957.678-.661,1.31-1.353,1.956-2.011s1.195-1.38,1.78-2.048c.3-.329.541-.7.812-1.035s.526-.683.784-1.018c.5-.681.947-1.372,1.4-2.026l1.205-1.966c.349-.651.705-1.266,1.006-1.87.282-.612.6-1.174.825-1.731s.475-1.068.65-1.56c.192-.486.364-.935.5-1.348.285-.821.466-1.481.583-1.932s.159-.7.159-.7a.025.025,0,0,1,.029-.021A.029.029,0,0,1,5513.6,4402.138Z" fill="#fff" opacity="0.45"/>
    </g>
    <g id="Grupo_800" data-name="Grupo 800" opacity="0.93">
      <path id="Trazado_4802" data-name="Trazado 4802" d="M5504.65,4326.852a.98.98,0,0,0-1.9-.068c-2.694,9.471-10.537,34.083-22.515,47.115-19.5,21.219-32.555,55.743-20.178,73.694C5460.057,4447.593,5527.635,4435.414,5504.65,4326.852Z" fill="url(#linear-gradient-11)"/>
      <path id="Trazado_4803" data-name="Trazado 4803" d="M5502.761,4340.388l-.032.3c-.029.2-.071.5-.127.884-.115.759-.3,1.868-.549,3.275-.517,2.811-1.3,6.821-2.393,11.6-.561,2.385-1.176,4.968-1.882,7.686s-1.474,5.578-2.316,8.524c-.871,2.938-1.787,5.97-2.792,9.027l-.753,2.3q-.395,1.149-.79,2.305c-.517,1.544-1.083,3.078-1.634,4.618s-1.143,3.064-1.723,4.586l-1.824,4.507c-.638,1.478-1.245,2.956-1.892,4.4s-1.268,2.87-1.939,4.249c-1.306,2.776-2.627,5.433-3.972,7.9-1.328,2.479-2.67,4.777-3.932,6.882l-1.868,2.986c-.608.939-1.222,1.806-1.779,2.633-.281.412-.554.81-.817,1.194l-.8,1.085c-.512.694-.982,1.332-1.406,1.909-.868,1.138-1.6,2-2.071,2.6l-.739.914a.2.2,0,0,1-.321-.249l0-.007.7-.94c.45-.617,1.13-1.5,1.961-2.66.4-.587.851-1.236,1.338-1.942l.759-1.1c.25-.39.508-.8.775-1.212.53-.838,1.1-1.722,1.689-2.667l1.8-3c1.213-2.115,2.5-4.422,3.775-6.911s2.578-5.131,3.86-7.9c.658-1.375,1.257-2.807,1.9-4.237s1.229-2.91,1.854-4.384q.886-2.234,1.786-4.5c.565-1.52,1.176-3.028,1.729-4.559s1.129-3.053,1.652-4.588q.4-1.149.8-2.291.382-1.149.763-2.289c1.018-3.04,1.946-6.055,2.83-8.978.866-2.928,1.705-5.758,2.437-8.461.749-2.7,1.4-5.262,2-7.632.578-2.374,1.125-4.547,1.565-6.483s.817-3.627,1.113-5.021.52-2.492.657-3.242c.068-.368.119-.649.154-.839l.042-.3,0-.022a.2.2,0,0,1,.4.05Z" fill="#fff" opacity="0.43"/>
    </g>
    <g id="Grupo_801" data-name="Grupo 801">
      <path id="Trazado_4804" data-name="Trazado 4804" d="M5231.683,4352.466H5323.2a5.283,5.283,0,0,0,5.284-5.284V4210.11a5.284,5.284,0,0,0-5.269-5.284l-92.25-.247a5.283,5.283,0,0,0-5.3,5.312l.732,137.32A5.283,5.283,0,0,0,5231.683,4352.466Z" fill="url(#linear-gradient-12)"/>
      <path id="Trazado_4805" data-name="Trazado 4805" d="M5236.168,4211.342l81.831.5a5.361,5.361,0,0,1,5.328,5.386l-.571,123.027a5.36,5.36,0,0,1-5.263,5.336l-79.51,1.451a5.363,5.363,0,0,1-5.459-5.286l-1.751-124.981A5.363,5.363,0,0,1,5236.168,4211.342Z" fill="url(#linear-gradient-13)"/>
      <rect id="Rectángulo_984" data-name="Rectángulo 984" width="66.259" height="3.772" rx="1.604" transform="translate(5239.495 4216.631)" fill="#fff" opacity="0.6"/>
      <path id="Trazado_4806" data-name="Trazado 4806" d="M5246.53,4225.331h0a1.605,1.605,0,0,0,1.572,1.517l55.141,1a1.6,1.6,0,0,0,1.633-1.6v-.131a1.6,1.6,0,0,0-1.578-1.6l-55.141-.874A1.6,1.6,0,0,0,5246.53,4225.331Z" fill="#fff" opacity="0.6"/>
      <path id="Trazado_4807" data-name="Trazado 4807" d="M5240.9,4342.9a4.634,4.634,0,0,1-4.622-4.54l-1.789-100.621a4.63,4.63,0,0,1,4.532-4.7l74.452-1.449h.092a4.624,4.624,0,0,1,4.62,4.535l1.918,101.175a4.624,4.624,0,0,1-4.566,4.71l-74.581.9Zm-4.785-105.19,1.789,100.621a3,3,0,0,0,3,2.944h.036l74.58-.9a3,3,0,0,0,2.961-3.053l-1.919-101.175a3,3,0,0,0-3.055-2.94l-74.451,1.45a3,3,0,0,0-2.938,3.049Z" fill="#fff" opacity="0.61"/>
      <path id="Trazado_4808" data-name="Trazado 4808" d="M5317.494,4243.33H5236.27a.813.813,0,0,1,0-1.626h81.224a.813.813,0,0,1,0,1.626Z" fill="#fff" opacity="0.61"/>
    </g>
    <g id="Grupo_802" data-name="Grupo 802">
      <path id="Trazado_4809" data-name="Trazado 4809" d="M5364.659,4275.271h-91.517a5.284,5.284,0,0,1-5.284-5.284v-88.365a5.284,5.284,0,0,1,5.269-5.284l92.25-.248a5.284,5.284,0,0,1,5.3,5.312l-.732,88.613A5.283,5.283,0,0,1,5364.659,4275.271Z" fill="url(#linear-gradient-14)"/>
      <path id="Trazado_4810" data-name="Trazado 4810" d="M5360.175,4182.854l-81.832.5a5.36,5.36,0,0,0-5.328,5.386l.571,74.32a5.361,5.361,0,0,0,5.263,5.335l79.51,1.451a5.363,5.363,0,0,0,5.459-5.286l1.751-76.274A5.361,5.361,0,0,0,5360.175,4182.854Z" fill="#fff" opacity="0.6"/>
      <rect id="Rectángulo_985" data-name="Rectángulo 985" width="66.259" height="3.772" rx="1.604" transform="translate(5290.589 4188.142)" fill="#fff" opacity="0.6"/>
      <path id="Trazado_4811" data-name="Trazado 4811" d="M5349.812,4196.842h0a1.6,1.6,0,0,1-1.572,1.517l-55.141,1a1.6,1.6,0,0,1-1.633-1.6v-.13a1.6,1.6,0,0,1,1.578-1.6l55.141-.874A1.6,1.6,0,0,1,5349.812,4196.842Z" fill="#fff" opacity="0.6"/>
      <path id="Trazado_4812" data-name="Trazado 4812" d="M5355.441,4265.7h-.056l-74.581-.9a4.623,4.623,0,0,1-4.566-4.71l1.919-52.482a4.621,4.621,0,0,1,4.712-4.519l74.451,1.449a4.629,4.629,0,0,1,4.532,4.7v.013l-1.789,51.914A4.631,4.631,0,0,1,5355.441,4265.7Zm-72.664-60.981a3,3,0,0,0-2.995,2.939l-1.919,52.482a3,3,0,0,0,2.961,3.039l74.581.9a2.991,2.991,0,0,0,3.032-2.943l1.789-51.92a3,3,0,0,0-2.938-3.043l-74.451-1.449Z" fill="#fff"/>
      <path id="Trazado_4813" data-name="Trazado 4813" d="M5360.073,4214.841h-81.225a.813.813,0,0,1,0-1.626h81.225a.813.813,0,0,1,0,1.626Z" fill="#fff"/>
    </g>
    <g id="Grupo_806" data-name="Grupo 806">
      <g id="Grupo_804" data-name="Grupo 804">
        <path id="Trazado_4814" data-name="Trazado 4814" d="M5211.144,4287.806h99.782a10.337,10.337,0,0,1,10.324,9.812l7.366,144.666a7.625,7.625,0,0,1-7.475,8.01l-114.363,2.078a7.235,7.235,0,0,1-7.368-7.234v-145.6A11.733,11.733,0,0,1,5211.144,4287.806Z" fill="url(#linear-gradient-15)"/>
        <path id="Trazado_4815" data-name="Trazado 4815" d="M5223.492,4449.913h0l-12.8-.166a7.891,7.891,0,0,1-7.76-7.861v-19.32a.273.273,0,0,1,.546,0v19.32a7.344,7.344,0,0,0,7.221,7.315l12.8.166a.273.273,0,0,1,0,.546Z" fill="#fff"/>
        <path id="Trazado_4816" data-name="Trazado 4816" d="M5203.205,4416.855a.274.274,0,0,1-.273-.274v-3.129a.273.273,0,0,1,.546,0v3.129A.274.274,0,0,1,5203.205,4416.855Z" fill="#fff"/>
        <g id="Grupo_803" data-name="Grupo 803">
          <path id="Trazado_4817" data-name="Trazado 4817" d="M5211.451,4288.273c13.626,1.847,60.483,7.563,99.224,4.589a3.152,3.152,0,0,1,3.394,2.972l7.723,145.311a3.627,3.627,0,0,1-3.408,3.814c-16.293.965-83.4,4.692-107.33,2.185a2.873,2.873,0,0,1-2.571-2.844l-.9-152.628A3.408,3.408,0,0,1,5211.451,4288.273Z" fill="url(#linear-gradient-16)"/>
          <path id="Trazado_4818" data-name="Trazado 4818" d="M5212.91,4292.042c13.113,1.778,58.206,7.278,95.488,4.416a3.033,3.033,0,0,1,3.266,2.861l7.432,139.839a3.491,3.491,0,0,1-3.279,3.671c-15.68.927-80.256,4.515-103.289,2.1a2.764,2.764,0,0,1-2.474-2.736l-.864-146.882A3.28,3.28,0,0,1,5212.91,4292.042Z" fill="#fff" opacity="0.6"/>
          <path id="Trazado_4819" data-name="Trazado 4819" d="M5221.329,4306.1l1.393,29.98a1.905,1.905,0,0,0,1.849,1.818c5.553.157,22.854.579,32.623.069a2.128,2.128,0,0,0,2.016-2.057c.186-5.623.594-21.987-.687-28.828a2.4,2.4,0,0,0-2.281-1.954l-32.818-1.148A2.027,2.027,0,0,0,5221.329,4306.1Z" fill="#fff" opacity="0.13"/>
          <circle id="Elipse_63" data-name="Elipse 63" cx="6.445" cy="6.445" r="6.445" transform="translate(5233.769 4310.369)" fill="#fff" opacity="0.78"/>
          <path id="Trazado_4820" data-name="Trazado 4820" d="M5230.424,4335.735h20.532a1.59,1.59,0,0,0,1.336-2.451,13.251,13.251,0,0,0-11.713-6.557,14.312,14.312,0,0,0-11.515,6.393A1.661,1.661,0,0,0,5230.424,4335.735Z" fill="#fff" opacity="0.78"/>
          <path id="Trazado_4821" data-name="Trazado 4821" d="M5304.6,4308.7l-.059-2.012-38.326-.683.949,2.694Z" fill="#fff" opacity="0.78"/>
          <path id="Trazado_4822" data-name="Trazado 4822" d="M5266.22,4311.6l.949,2.694H5304.6l-.059-2.011Z" fill="#fff" opacity="0.78"/>
          <path id="Trazado_4823" data-name="Trazado 4823" d="M5266.22,4317.27l.949,2.694H5304.6l-.059-2.012Z" fill="#fff" opacity="0.78"/>
          <path id="Trazado_4824" data-name="Trazado 4824" d="M5290.946,4322.252c2.775-.213,7.973-.311,10.834-.351a2.594,2.594,0,0,1,2.561,1.983,42.314,42.314,0,0,1,1.218,10.476,2.3,2.3,0,0,1-2.324,2.255l-10.559-.114a2.536,2.536,0,0,1-2.5-2.3l-.928-9.933A1.848,1.848,0,0,1,5290.946,4322.252Z" fill="#fff" opacity="0.78"/>
          <path id="Trazado_4825" data-name="Trazado 4825" d="M5285.538,4327.3l-.029-2.011-18.943-.683.469,2.694Z" fill="#fff" opacity="0.78"/>
          <path id="Trazado_4826" data-name="Trazado 4826" d="M5266.523,4331.23l.567,2.676,18.49-.677-.1-2.009Z" fill="#fff" opacity="0.78"/>
          <path id="Trazado_4827" data-name="Trazado 4827" d="M5308.1,4347.309l-.133-2.011-86.648-.683,2.146,2.694Z" fill="#fff" opacity="0.78"/>
          <path id="Trazado_4828" data-name="Trazado 4828" d="M5221.319,4350.2l2.146,2.694H5308.1l-.133-2.011Z" fill="#fff" opacity="0.78"/>
          <path id="Trazado_4829" data-name="Trazado 4829" d="M5222.108,4359.544c2.027-.155,5.823-.227,7.913-.256a1.892,1.892,0,0,1,1.869,1.448,30.833,30.833,0,0,1,.89,7.651,1.682,1.682,0,0,1-1.7,1.646l-7.711-.083a1.852,1.852,0,0,1-1.824-1.679l-.678-7.254A1.349,1.349,0,0,1,5222.108,4359.544Z" fill="#fff" opacity="0.78"/>
          <path id="Trazado_4830" data-name="Trazado 4830" d="M5235.2,4362.474l.534,3.556H5256.8l-.033-2.654Z" fill="#fff" opacity="0.78"/>
          <path id="Trazado_4831" data-name="Trazado 4831" d="M5264.118,4359.544c2.027-.155,5.823-.227,7.913-.256a1.892,1.892,0,0,1,1.869,1.448,30.829,30.829,0,0,1,.89,7.651,1.682,1.682,0,0,1-1.7,1.646l-7.711-.083a1.851,1.851,0,0,1-1.824-1.679l-.678-7.254A1.35,1.35,0,0,1,5264.118,4359.544Z" fill="#fff" opacity="0.78"/>
          <path id="Trazado_4832" data-name="Trazado 4832" d="M5277.21,4362.474l.534,3.556h21.066l-.033-2.654Z" fill="#fff" opacity="0.78"/>
          <path id="Trazado_4833" data-name="Trazado 4833" d="M5303.582,4384.652l-.129-2.011-84.222-.683,2.085,2.694Z" fill="#fff" opacity="0.78"/>
          <path id="Trazado_4834" data-name="Trazado 4834" d="M5219.231,4387.547l2.085,2.695h82.266l-.129-2.012Z" fill="#fff" opacity="0.6"/>
          <path id="Trazado_4835" data-name="Trazado 4835" d="M5219.231,4393.217l2.085,2.694h82.266l-.129-2.011Z" fill="#fff" opacity="0.6"/>
        </g>
        <path id="Trazado_4836" data-name="Trazado 4836" d="M5267.224,4268.082c-3.6-2.508-6.739-2.458-8.945-1.807a4.4,4.4,0,0,0-3.125,4.626l.951,10.385,11.322,1S5274.292,4273,5267.224,4268.082Zm-4.979,8.378a2.823,2.823,0,1,1,2.823-2.823A2.823,2.823,0,0,1,5262.245,4276.46Z" fill="url(#linear-gradient-17)"/>
        <path id="Trazado_4837" data-name="Trazado 4837" d="M5257.236,4276.918a.274.274,0,0,1-.272-.249l-.151-1.654a.273.273,0,1,1,.544-.049l.151,1.654a.271.271,0,0,1-.247.3Zm-.3-3.241a.274.274,0,0,1-.272-.249l-.115-1.255a4.2,4.2,0,0,1,2.978-4.407,8.461,8.461,0,0,1,4.138-.17.273.273,0,0,1-.109.535,7.933,7.933,0,0,0-3.874.158,3.653,3.653,0,0,0-2.589,3.834l.115,1.256a.271.271,0,0,1-.247.3Z" fill="#fff"/>
        <path id="Trazado_4838" data-name="Trazado 4838" d="M5240.653,4288v-5.221a3.186,3.186,0,0,1,3.3-3.184l36,1.233a3.1,3.1,0,0,1,2.987,2.912l.3,5.016Z" fill="url(#linear-gradient-18)"/>
        <path id="Trazado_4839" data-name="Trazado 4839" d="M5254.076,4281.559h-1.548a.273.273,0,0,1,0-.546h1.548a.273.273,0,0,1,0,.546Z" fill="#fff"/>
        <path id="Trazado_4840" data-name="Trazado 4840" d="M5242.6,4286.358a.274.274,0,0,1-.274-.274v-2.112a2.962,2.962,0,0,1,2.96-2.959h5.692a.273.273,0,0,1,0,.546h-5.692a2.416,2.416,0,0,0-2.413,2.413v2.112A.274.274,0,0,1,5242.6,4286.358Z" fill="#fff"/>
        <path id="Trazado_4841" data-name="Trazado 4841" d="M5229.374,4286.086h62.948a4.651,4.651,0,0,1,4.585,3.859l.053.307a4,4,0,0,1-3.937,4.678h-64.581a2.6,2.6,0,0,1-2.595-2.723l.139-2.89A3.393,3.393,0,0,1,5229.374,4286.086Z" fill="url(#linear-gradient-19)"/>
      </g>
      <g id="Grupo_805" data-name="Grupo 805">
        <path id="Trazado_4842" data-name="Trazado 4842" d="M5274.72,4440.356h-.073l-26.628-.255a7.158,7.158,0,0,1-7.305-6.089l-2.341-22.342a4.856,4.856,0,0,1,1.147-3.651,5.844,5.844,0,0,1,4.074-2.01h0c2.244-.153,5.4-.423,8.748-.707,7.042-.6,15.808-1.346,20.739-1.408a7.443,7.443,0,0,1,7.457,5.216c1.387,5.128,1.265,14.837,1,25.179C5281.454,4437.649,5278.4,4440.356,5274.72,4440.356Zm-30.986-32.307a3.789,3.789,0,0,0-2.649,1.286,2.828,2.828,0,0,0-.678,2.122l2.341,22.342a5.122,5.122,0,0,0,5.291,4.257l26.628.255h.054c2.58,0,4.716-1.818,4.774-4.074.26-10.186.384-19.73-.931-24.594a5.493,5.493,0,0,0-5.457-3.7c-4.858.061-13.582.8-20.592,1.4-3.353.286-6.521.556-8.781.71Z" fill="#fff"/>
        <path id="Trazado_4843" data-name="Trazado 4843" d="M5246.6,4410.355c5.594-.382,17.752-1.617,23.518-1.689a5.155,5.155,0,0,1,5.159,3.565c1.113,4.115.966,12.317.773,19.887a4.43,4.43,0,0,1-4.683,4.053l-21.279-.205a4.915,4.915,0,0,1-5.033-4.133l-1.871-17.854A3.456,3.456,0,0,1,5246.6,4410.355Z" fill="#fff" opacity="0.6"/>
      </g>
      <path id="Trazado_4844" data-name="Trazado 4844" d="M5273.422,4399.712c-3.175,1.764-9.062,8.777-14.494,15.9-3.462-5.9-7.023-10.955-9.076-10.955-4.942,0-4.562,2.661-.76,10.264.961,1.922,2.5,4.935,4.317,8.151-3.743,5.207-6.477,9.313-6.6,9.717-3.278,10.928,3.873,5.646,11.267-2.12,4.423,6.445,8.947,10.536,10.4,3.26,0,0-2.006-4.29-4.759-9.585a76.856,76.856,0,0,0,7.04-9.423C5274.563,4408.076,5280.265,4395.911,5273.422,4399.712Z" fill="url(#linear-gradient-13)"/>
    </g>
    <g id="Grupo_810" data-name="Grupo 810">
      <g id="Grupo_808" data-name="Grupo 808">
        <path id="Trazado_4845" data-name="Trazado 4845" d="M5316.317,4230.992h134.231a13.905,13.905,0,0,1,13.888,13.2l9.908,194.61a10.255,10.255,0,0,1-10.055,10.775l-153.846,2.8a9.734,9.734,0,0,1-9.911-9.733V4246.776A15.784,15.784,0,0,1,5316.317,4230.992Z" fill="url(#linear-gradient-15)"/>
        <path id="Trazado_4846" data-name="Trazado 4846" d="M5332.928,4449.063h0l-17.215-.222a10.617,10.617,0,0,1-10.439-10.575v-25.991a.367.367,0,0,1,.735,0v25.991a9.879,9.879,0,0,0,9.714,9.84l17.214.222a.367.367,0,0,1,0,.735Z" fill="#fff"/>
        <path id="Trazado_4847" data-name="Trazado 4847" d="M5305.638,4404.592a.367.367,0,0,1-.368-.367v-4.209a.367.367,0,1,1,.735,0v4.209A.367.367,0,0,1,5305.638,4404.592Z" fill="#fff"/>
        <g id="Grupo_807" data-name="Grupo 807">
          <path id="Trazado_4848" data-name="Trazado 4848" d="M5316.73,4231.62c18.33,2.485,81.364,10.173,133.479,6.173a4.239,4.239,0,0,1,4.566,4l10.389,195.478a4.879,4.879,0,0,1-4.583,5.131c-21.919,1.3-112.188,6.311-144.385,2.939a3.866,3.866,0,0,1-3.459-3.826l-1.208-205.32A4.585,4.585,0,0,1,5316.73,4231.62Z" fill="#666"/>
          <path id="Trazado_4849" data-name="Trazado 4849" d="M5318.693,4236.69c17.64,2.393,78.3,9.791,128.453,5.941a4.08,4.08,0,0,1,4.394,3.848l10,188.117a4.7,4.7,0,0,1-4.411,4.937c-21.093,1.249-107.963,6.074-138.948,2.829a3.72,3.72,0,0,1-3.328-3.682l-1.162-197.589A4.412,4.412,0,0,1,5318.693,4236.69Z" fill="#fff" opacity="0.6"/>
          <path id="Trazado_4850" data-name="Trazado 4850" d="M5330.018,4255.6l1.874,40.33a2.564,2.564,0,0,0,2.488,2.446c7.469.21,30.744.778,43.885.093a2.863,2.863,0,0,0,2.712-2.768c.251-7.563.8-29.577-.924-38.78a3.232,3.232,0,0,0-3.068-2.628l-44.148-1.544A2.726,2.726,0,0,0,5330.018,4255.6Z" fill="#fff" opacity="0.78"/>
          <circle id="Elipse_64" data-name="Elipse 64" cx="8.67" cy="8.67" r="8.67" transform="translate(5346.752 4261.344)" fill="url(#linear-gradient-22)"/>
          <path id="Trazado_4851" data-name="Trazado 4851" d="M5342.253,4295.468h27.621a2.138,2.138,0,0,0,1.8-3.3c-2.346-3.671-7.254-9.064-15.756-8.821a19.258,19.258,0,0,0-15.491,8.6A2.235,2.235,0,0,0,5342.253,4295.468Z" fill="url(#linear-gradient-23)"/>
          <path id="Trazado_4852" data-name="Trazado 4852" d="M5442.043,4259.105l-.079-2.706-51.557-.919,1.277,3.625Z" fill="#fff" opacity="0.6"/>
          <path id="Trazado_4853" data-name="Trazado 4853" d="M5390.407,4263l1.277,3.625h50.359l-.079-2.706Z" fill="#fff" opacity="0.6"/>
          <path id="Trazado_4854" data-name="Trazado 4854" d="M5390.407,4270.627l1.277,3.625h50.359l-.079-2.706Z" fill="#fff" opacity="0.6"/>
          <path id="Trazado_4855" data-name="Trazado 4855" d="M5423.669,4277.33c3.734-.286,10.726-.419,14.575-.473a3.489,3.489,0,0,1,3.444,2.668,56.845,56.845,0,0,1,1.639,14.093,3.1,3.1,0,0,1-3.126,3.033l-14.2-.153a3.411,3.411,0,0,1-3.359-3.094l-1.249-13.362A2.485,2.485,0,0,1,5423.669,4277.33Z" fill="url(#linear-gradient-24)"/>
          <path id="Trazado_4856" data-name="Trazado 4856" d="M5416.395,4284.126l-.039-2.706-25.482-.919.631,3.625Z" fill="url(#linear-gradient-25)"/>
          <path id="Trazado_4857" data-name="Trazado 4857" d="M5390.815,4289.408l.763,3.6,24.874-.91-.138-2.7Z" fill="url(#linear-gradient-26)"/>
          <path id="Trazado_4858" data-name="Trazado 4858" d="M5446.746,4311.037l-.179-2.706-116.562-.919,2.886,3.625Z" fill="#fff" opacity="0.6"/>
          <path id="Trazado_4859" data-name="Trazado 4859" d="M5330.005,4314.931l2.886,3.625h113.854l-.179-2.706Z" fill="#fff" opacity="0.6"/>
          <path id="Trazado_4860" data-name="Trazado 4860" d="M5331.066,4327.5c2.727-.209,7.834-.306,10.645-.345a2.548,2.548,0,0,1,2.515,1.948,41.508,41.508,0,0,1,1.2,10.293,2.263,2.263,0,0,1-2.283,2.215l-10.373-.112a2.492,2.492,0,0,1-2.454-2.259l-.912-9.759A1.816,1.816,0,0,1,5331.066,4327.5Z" fill="url(#linear-gradient-27)"/>
          <path id="Trazado_4861" data-name="Trazado 4861" d="M5348.678,4331.438l.718,4.783h28.339l-.044-3.571Z" fill="#fff" opacity="0.6"/>
          <path id="Trazado_4862" data-name="Trazado 4862" d="M5387.579,4327.5c2.727-.209,7.834-.306,10.645-.345a2.547,2.547,0,0,1,2.515,1.948,41.5,41.5,0,0,1,1.2,10.293,2.262,2.262,0,0,1-2.283,2.215l-10.373-.112a2.492,2.492,0,0,1-2.454-2.259l-.912-9.759A1.815,1.815,0,0,1,5387.579,4327.5Z" fill="url(#linear-gradient-28)"/>
          <path id="Trazado_4863" data-name="Trazado 4863" d="M5405.191,4331.438l.718,4.783h28.339l-.044-3.571Z" fill="#fff" opacity="0.6"/>
          <path id="Trazado_4864" data-name="Trazado 4864" d="M5440.668,4361.273l-.174-2.706-113.3-.918,2.805,3.625Z" fill="#fff" opacity="0.6"/>
          <path id="Trazado_4865" data-name="Trazado 4865" d="M5327.2,4365.167l2.805,3.625h110.667l-.174-2.706Z" fill="#fff" opacity="0.6"/>
          <path id="Trazado_4866" data-name="Trazado 4866" d="M5327.2,4372.794l2.805,3.625h110.667l-.174-2.706Z" fill="#fff" opacity="0.6"/>
        </g>
        <path id="Trazado_4867" data-name="Trazado 4867" d="M5391.757,4204.458c-4.848-3.373-9.064-3.306-12.032-2.431a5.92,5.92,0,0,0-4.2,6.224l1.279,13.97,15.231,1.352S5401.266,4211.073,5391.757,4204.458Zm-6.7,11.27a3.8,3.8,0,1,1,3.8-3.8A3.8,3.8,0,0,1,5385.06,4215.728Z" fill="url(#linear-gradient-29)"/>
        <path id="Trazado_4868" data-name="Trazado 4868" d="M5378.322,4216.344a.368.368,0,0,1-.366-.334l-.2-2.225a.367.367,0,1,1,.731-.066l.2,2.225a.366.366,0,0,1-.332.4Zm-.4-4.359a.368.368,0,0,1-.365-.335l-.155-1.689a5.651,5.651,0,0,1,4.006-5.928,11.372,11.372,0,0,1,5.567-.229.367.367,0,1,1-.148.72,10.674,10.674,0,0,0-5.211.214,4.913,4.913,0,0,0-3.482,5.157l.155,1.689a.368.368,0,0,1-.333.4Z" fill="#fff"/>
        <path id="Trazado_4869" data-name="Trazado 4869" d="M5356.014,4231.249v-7.024a4.286,4.286,0,0,1,4.433-4.283l48.425,1.659a4.169,4.169,0,0,1,4.018,3.916l.4,6.749Z" fill="url(#linear-gradient-30)"/>
        <path id="Trazado_4870" data-name="Trazado 4870" d="M5374.071,4222.588h-2.083a.367.367,0,0,1,0-.735h2.083a.367.367,0,0,1,0,.735Z" fill="#fff"/>
        <path id="Trazado_4871" data-name="Trazado 4871" d="M5358.635,4229.044a.367.367,0,0,1-.367-.368v-2.841a3.986,3.986,0,0,1,3.981-3.982h7.656a.367.367,0,1,1,0,.735h-7.656a3.25,3.25,0,0,0-3.246,3.247v2.841A.368.368,0,0,1,5358.635,4229.044Z" fill="#fff"/>
        <path id="Trazado_4872" data-name="Trazado 4872" d="M5340.841,4228.678l84.68,0a6.259,6.259,0,0,1,6.167,5.191l.072.415a5.375,5.375,0,0,1-5.3,6.292h-86.877a3.5,3.5,0,0,1-3.491-3.663l.187-3.888A4.563,4.563,0,0,1,5340.841,4228.678Z" fill="url(#linear-gradient-31)"/>
      </g>
      <g id="Grupo_809" data-name="Grupo 809">
        <path id="Trazado_4873" data-name="Trazado 4873" d="M5411.208,4436.207h-.117l-42.677-.409c-6.1-.059-11.131-4.255-11.709-9.758l-3.751-35.808a7.785,7.785,0,0,1,1.837-5.852,9.373,9.373,0,0,1,6.531-3.223h0c3.6-.245,8.659-.677,14.02-1.133,11.287-.962,25.336-2.157,33.24-2.256,5.735-.029,10.6,3.365,11.95,8.359,2.224,8.22,2.029,23.78,1.6,40.356C5422,4431.868,5417.109,4436.207,5411.208,4436.207Zm-49.662-51.779a6.072,6.072,0,0,0-4.246,2.061,4.533,4.533,0,0,0-1.087,3.4l3.752,35.809c.4,3.846,4.049,6.779,8.481,6.823l42.677.409h.086c4.136,0,7.56-2.914,7.653-6.53.416-16.325.615-31.622-1.493-39.418-.945-3.493-4.58-5.924-8.746-5.937-7.786.1-21.768,1.288-33,2.245-5.375.458-10.452.89-14.074,1.138Z" fill="#fff"/>
        <path id="Trazado_4874" data-name="Trazado 4874" d="M5366.137,4388.123c8.965-.612,28.452-2.591,37.694-2.706a8.263,8.263,0,0,1,8.269,5.713c1.784,6.6,1.547,19.741,1.238,31.874-.093,3.634-3.43,6.534-7.506,6.5l-34.1-.327c-4.194-.041-7.676-2.9-8.066-6.625l-3-28.615C5360.352,4390.972,5362.813,4388.351,5366.137,4388.123Z" fill="#fff" opacity="0.6"/>
        <path id="Trazado_4875" data-name="Trazado 4875" d="M5367.954,4393.739h0a6.549,6.549,0,0,1,9.035,2.458l8.418,15.09a2.1,2.1,0,0,0,3.756-.163l20.879-46.483a2.331,2.331,0,0,1,4.456,1.007c-.213,14.218-3.985,41.245-26.7,63.867,0,0-12.52-4.866-22.6-27.005A6.871,6.871,0,0,1,5367.954,4393.739Z" fill="url(#linear-gradient-32)"/>
      </g>
    </g>
    <g id="Grupo_815" data-name="Grupo 815">
      <path id="Trazado_4876" data-name="Trazado 4876" d="M5447.269,4447.256s.373,2.115.557,4.21a1.444,1.444,0,0,1-1.381,1.563c-2.789.117-8.755.342-10.9.247a.469.469,0,0,1-.413-.643h0a1.051,1.051,0,0,1,.538-.567l9.854-4.529Z" fill="url(#linear-gradient-33)"/>
      <path id="Trazado_4877" data-name="Trazado 4877" d="M5447.575,4446.013l-.3,2.53a3.14,3.14,0,0,1-2.906-.1l.715-2.82Z" fill="url(#linear-gradient-34)"/>
      <path id="Trazado_4878" data-name="Trazado 4878" d="M5447.349,4398.433c.13.661.7,32.98-2.758,47.464a.492.492,0,0,0,.288.572,8.589,8.589,0,0,0,2.814.572.849.849,0,0,0,.84-.608c.987-3.361,5.719-20.2,6.336-36.281.69-17.971,0-.611,0-.611l-.4-11.109Z" fill="url(#linear-gradient-35)"/>
      <path id="Trazado_4879" data-name="Trazado 4879" d="M5458.6,4448.359a15.235,15.235,0,0,1,1.171,3.907.879.879,0,0,1-.775,1.054c-.921.091-2.339.207-3.474.2a.877.877,0,0,1-.869-.979,7.4,7.4,0,0,1,1.728-4.06Z" fill="url(#linear-gradient-36)"/>
      <path id="Trazado_4880" data-name="Trazado 4880" d="M5459.128,4445.1l-.7,3.828a2.472,2.472,0,0,1-2.066.141l.335-4.117Z" fill="url(#linear-gradient-37)"/>
      <path id="Trazado_4881" data-name="Trazado 4881" d="M5461.023,4399.425c2.826,17.052-.613,42.145-1.773,47.057a.764.764,0,0,1-.618.581,5.138,5.138,0,0,1-2.21-.088.7.7,0,0,1-.5-.646c-.155-3.971.125-28.347-2.508-37.981a2.184,2.184,0,0,0-.844-1.207l-5.11-3.633-.392-5.872Z" fill="url(#linear-gradient-38)"/>
      <g id="Grupo_811" data-name="Grupo 811">
        <path id="Trazado_4882" data-name="Trazado 4882" d="M5443.019,4367.114a79.6,79.6,0,0,1,17.81,2.224c2.524,14.727.442,31.714.442,31.714-6.556,1.719-13.95-1.051-13.95-1.051-1.09-6.156-6.173-23.48-6.173-23.48a27.879,27.879,0,0,1-10.352-3.285,18.157,18.157,0,0,0,3.588-7.506A28.41,28.41,0,0,0,5443.019,4367.114Z" fill="url(#linear-gradient-39)"/>
        <path id="Trazado_4883" data-name="Trazado 4883" d="M5418.007,4354.642a1.621,1.621,0,0,1,1.885-.529c1.246,5.263,7.78,9.531,14.492,11.617a18.157,18.157,0,0,1-3.588,7.506C5419.656,4366.972,5418.007,4354.642,5418.007,4354.642Z" fill="url(#linear-gradient-40)"/>
      </g>
      <g id="Grupo_812" data-name="Grupo 812">
        <path id="Trazado_4884" data-name="Trazado 4884" d="M5418.209,4354.9c-.087.276.921.7,1.515-.434.02-.542.35-2.866.026-3.308a43.334,43.334,0,0,0-5.072-5.3.8.8,0,0,0-.1,1.106l1.623,1.692a7.871,7.871,0,0,0-.947,1.873,2.272,2.272,0,0,0,.226,1.675c.285.513.674,1.18,1.042,1.7A2.246,2.246,0,0,0,5418.209,4354.9Z" fill="url(#linear-gradient-41)"/>
        <path id="Trazado_4885" data-name="Trazado 4885" d="M5416.911,4349.748l1.48,1.254.464,1.249-1.319,1.463a17,17,0,0,0-.773-3.014C5416.434,4350.164,5416.6,4349.9,5416.911,4349.748Z" fill="url(#linear-gradient-42)"/>
      </g>
      <path id="Trazado_4886" data-name="Trazado 4886" d="M5457.581,4377.537l3.248-8.2s7.909,5.373,9.21,12.187a18.716,18.716,0,0,0-6.876,1.843C5462.579,4380.15,5457.581,4377.537,5457.581,4377.537Z" fill="url(#linear-gradient-43)"/>
      <path id="Trazado_4887" data-name="Trazado 4887" d="M5450.67,4385.252s8.88,5.018,11.876.733a3.365,3.365,0,0,0,.617-2.617,18.716,18.716,0,0,1,6.876-1.843,9.406,9.406,0,0,1-1.022,6.447c-5.248,9.6-19.522-.531-19.522-.531Z" fill="url(#linear-gradient-44)"/>
      <g id="Grupo_813" data-name="Grupo 813">
        <path id="Trazado_4888" data-name="Trazado 4888" d="M5451.737,4391.6l-4.847-16.925a.493.493,0,0,0-.417-.355c-.878-.1-3.422-.39-6.36-.639a72.052,72.052,0,0,0-10.1-.335.5.5,0,0,0-.4.712c1.4,2.825,7.14,14.317,10.016,18.082a.5.5,0,0,0,.4.2l11.244-.1A.5.5,0,0,0,5451.737,4391.6Z" fill="url(#linear-gradient-45)"/>
        <path id="Trazado_4889" data-name="Trazado 4889" d="M5439.61,4372.215l-3.513-.586a.252.252,0,0,0-.281.328l.347,1.054a.254.254,0,0,0,.207.171l3.381.452a.252.252,0,0,0,.279-.308l-.216-.92A.252.252,0,0,0,5439.61,4372.215Z" fill="url(#linear-gradient-46)"/>
        <path id="Trazado_4890" data-name="Trazado 4890" d="M5442.241,4375.189l-.289-1.507a.348.348,0,0,0-.307-.281l-7.1-.72a.348.348,0,0,0-.374.428l.451,1.878a.348.348,0,0,0,.321.267l6.935.349A.348.348,0,0,0,5442.241,4375.189Z" fill="url(#linear-gradient-47)"/>
        <path id="Trazado_4891" data-name="Trazado 4891" d="M5450.566,4387.512s.675-2.776.4-3.761-.8-2.251-2.559-1.97a25.674,25.674,0,0,0-3.833,1.022,1.006,1.006,0,0,0,1.441.869l-.829.642s.119,1.027,1.248.478l-.771.851a.9.9,0,0,0,1.315.3C5447.812,4385.4,5448.21,4387.846,5450.566,4387.512Z" fill="url(#linear-gradient-48)"/>
      </g>
      <path id="Trazado_4892" data-name="Trazado 4892" d="M5451.6,4360.24l2.694,7.792a.279.279,0,0,1-.128.338,6.336,6.336,0,0,1-6.569-.442,1.328,1.328,0,0,1-.609-.944l-.872-6.744Z" fill="url(#linear-gradient-49)"/>
      <g id="Grupo_814" data-name="Grupo 814">
        <path id="Trazado_4893" data-name="Trazado 4893" d="M5445.733,4353.025s-2.958,5.569-2.579,7.819,4.046,2.088,7.248.261l2.237-6.014Z" fill="url(#linear-gradient-50)"/>
        <path id="Trazado_4894" data-name="Trazado 4894" d="M5450.26,4358.151a.228.228,0,0,1-.1-.335,5.99,5.99,0,0,0,.823-1.748s.532-.341-1.353-.792-4.7-1.152-5.289-2.757c-.576-1.565.938-5.5,3.353-2.364a.23.23,0,0,0,.364,0,2.366,2.366,0,0,1,2.883-.936,2.171,2.171,0,0,1,1.486,2.1.228.228,0,0,0,.27.234,2.647,2.647,0,0,1,3.091,1.441c.631,1.387.221,2.171-.153,2.555a.229.229,0,0,0,.1.38,1.377,1.377,0,0,1,.972,1.572c-.08,1.456-1.708,1.327-2.171,1.261a.228.228,0,0,0-.2.072c-.4.44-2.187,2.307-4.125,2.532a.232.232,0,0,1-.243-.306l.839-2.437a.229.229,0,0,0-.125-.286Z" fill="url(#linear-gradient-51)"/>
        <path id="Trazado_4895" data-name="Trazado 4895" d="M5449.923,4358.5s2.107-1.445,2.261-.228-1.9,1.763-2.913,1.309Z" fill="url(#linear-gradient-52)"/>
      </g>
    </g>
    <g id="Grupo_820" data-name="Grupo 820">
      <path id="Trazado_4896" data-name="Trazado 4896" d="M5468.737,4280.517c.028-.011,15.256-26.677,17.313-29.187a1.6,1.6,0,0,1,1.424-.572l4.25.506,4.994,10.8-8.319-4.844c.823,5.692-9.863,14.152-13.528,17.239a.842.842,0,0,0-.066,1.226l1.463,1.532a16.8,16.8,0,0,1-8.3,4.721Z" fill="url(#linear-gradient-53)"/>
      <path id="Trazado_4897" data-name="Trazado 4897" d="M5475.422,4276.392a2.157,2.157,0,0,1,1.25,1.133.952.952,0,0,1-.358,1.1c-1.538,1.1-6.61,4.658-8.95,5.355a.265.265,0,0,1-.332-.312,8.437,8.437,0,0,1,1.761-3.219l-.113.227a.326.326,0,0,0,.451.429C5470.7,4280.218,5473.885,4278.284,5475.422,4276.392Z" fill="url(#linear-gradient-54)"/>
      <path id="Trazado_4898" data-name="Trazado 4898" d="M5474.668,4287.062c.026-.016,2.31-5.521,2.336-5.537a96.931,96.931,0,0,1,8.712-26.55,1.6,1.6,0,0,1,1.279-.849l4.265-.364,7.076,9.568-9.127-3.061c1.958,5.409-6.795,15.856-9.759,19.621a.841.841,0,0,0,.183,1.214l1.743,1.2a16.813,16.813,0,0,1-7.175,6.3Z" fill="url(#linear-gradient-55)"/>
      <path id="Trazado_4899" data-name="Trazado 4899" d="M5480.38,4281.67a2.152,2.152,0,0,1,1.453.857.951.951,0,0,1-.128,1.146c-1.283,1.39-5.531,5.9-7.682,7.055a.264.264,0,0,1-.387-.238,8.421,8.421,0,0,1,1.072-3.509l-.064.245a.325.325,0,0,0,.528.329C5476.526,4286.373,5479.257,4283.833,5480.38,4281.67Z" fill="url(#linear-gradient-56)"/>
      <g id="Grupo_816" data-name="Grupo 816">
        <path id="Trazado_4900" data-name="Trazado 4900" d="M5511.223,4251.747s3.858,5.738,4.174,8.356-1.067,3.523-5.1,3.857c-12.016.993-17.94-2.608-17.94-2.608-.822-5.242-1.407-6.575-8.272-9.425,0,0,8.683.69,10.431.012S5511.223,4251.747,5511.223,4251.747Z" fill="url(#linear-gradient-57)"/>
      </g>
      <g id="Grupo_818" data-name="Grupo 818">
        <path id="Trazado_4901" data-name="Trazado 4901" d="M5495.838,4219.6s2.687-3.179,5.544.722c.517.706,2.505.123,3.233,1.6a1.877,1.877,0,0,0,2.026,1.043c2.084-.384,5.492-.417,7.174,2.85,1.284,2.493.293,3.953-.991,4.785a2.1,2.1,0,0,0-.709,2.819c.547.929.649,2.186-.763,3.7-3.164,3.392-9.427-2.152-9.427-2.152l-4.973-11.751Z" fill="url(#linear-gradient-58)"/>
        <path id="Trazado_4902" data-name="Trazado 4902" d="M5500.789,4250.988a87.915,87.915,0,0,1-6.7-7.112,6.012,6.012,0,0,1-1.018-5.411,74.849,74.849,0,0,1,2.967-7.473c.251-.84,5.289-.805,5.289-.805s9.913,6.433,13.807,17.331l-4.374,1.362a51.139,51.139,0,0,0-5.145-7.1s4.425,5.846,4.581,8.239Z" fill="url(#linear-gradient-59)"/>
        <path id="Trazado_4903" data-name="Trazado 4903" d="M5492.229,4252.676,5495.6,4249l3.9,1.05s4.546.7,7.147,0l2.6-.705,5.878-1.83.924,2.61a1.574,1.574,0,0,1-.574,1.805,10.406,10.406,0,0,1-1.485.924c-.774.339-17.834.107-17.834.107Z" fill="url(#linear-gradient-60)"/>
        <path id="Trazado_4904" data-name="Trazado 4904" d="M5497.861,4224.13l3.385,6.3c-.223,1.374-3.685,1.413-4.219.592a.814.814,0,0,1-.107-.277l-2.025-4.207c-.087-.41,1.038-1.792,1.408-1.989l1.345-.717C5498.167,4223.552,5496,4223.531,5497.861,4224.13Z" fill="url(#linear-gradient-61)"/>
        <g id="Grupo_817" data-name="Grupo 817">
          <path id="Trazado_4905" data-name="Trazado 4905" d="M5491.008,4222.652a7.452,7.452,0,0,0,1.29,4.832c1.672,2.7,3.337,2.582,4.183,1.618a5.946,5.946,0,0,0,1.4-5.268C5497.418,4221.136,5491.586,4219.94,5491.008,4222.652Z" fill="url(#linear-gradient-62)"/>
          <path id="Trazado_4906" data-name="Trazado 4906" d="M5495.855,4224.127s-2.707-3.556-4.786-.456l.035,1.07s-2.7-.126-2.409-2.617,2.5-4.193,5.558-3.342,4.846,1.821,5.192,3.944-1.389,1.777-1.389,1.777-.662-1.465-1.462-1.565-.511,1.059-.511,1.059Z" fill="url(#linear-gradient-63)"/>
          <path id="Trazado_4907" data-name="Trazado 4907" d="M5496.476,4224.032s-1.4-1.82-.126-2.2,1.229,1.783,1.146,2.586Z" fill="url(#linear-gradient-64)"/>
        </g>
      </g>
      <g id="Grupo_819" data-name="Grupo 819">
        <path id="Trazado_4908" data-name="Trazado 4908" d="M5503.4,4254.129h-.035l-15.528-.017a.695.695,0,0,1,0-1.39l15.527.017a.695.695,0,0,1,.034,1.389Z" fill="url(#linear-gradient-65)"/>
        <path id="Trazado_4909" data-name="Trazado 4909" d="M5473.882,4240.032h12.931a2.464,2.464,0,0,1,2.229,1.413l5.978,12.676h-16.07a1.5,1.5,0,0,1-1.393-.947l-4.635-11.73A1.032,1.032,0,0,1,5473.882,4240.032Z" fill="url(#linear-gradient-66)"/>
        <path id="Trazado_4910" data-name="Trazado 4910" d="M5482.992,4246.531c.28.871.073,1.716-.462,1.889s-1.2-.394-1.477-1.265-.074-1.716.462-1.888S5482.712,4245.66,5482.992,4246.531Z" fill="url(#linear-gradient-67)"/>
      </g>
    </g>
    <g id="Grupo_824" data-name="Grupo 824">
      <g id="Grupo_821" data-name="Grupo 821">
        <path id="Trazado_4911" data-name="Trazado 4911" d="M5248.992,4260.278a.407.407,0,0,1-.258-.093c-.415-.343-.839-.68-1.26-1a.407.407,0,1,1,.494-.646c.428.328.861.672,1.283,1.021a.406.406,0,0,1-.259.72Z" fill="#dec2f6"/>
        <path id="Trazado_4912" data-name="Trazado 4912" d="M5179.5,4294.51a.406.406,0,0,1-.405-.392q-.028-.758-.028-1.517c0-.6.013-1.223.039-1.836a.407.407,0,0,1,.813.035c-.026.6-.039,1.207-.039,1.8q0,.746.027,1.488a.406.406,0,0,1-.392.421Zm.59-8.684a.365.365,0,0,1-.069-.006.406.406,0,0,1-.332-.47c.191-1.1.426-2.2.7-3.279a.406.406,0,1,1,.787.2c-.269,1.057-.5,2.14-.686,3.217A.407.407,0,0,1,5180.087,4285.826Zm2.35-8.382a.405.405,0,0,1-.378-.555c.407-1.036.86-2.069,1.346-3.069a.407.407,0,0,1,.731.355c-.477.981-.921,1.994-1.321,3.011A.4.4,0,0,1,5182.437,4277.444Zm3.994-7.731a.4.4,0,0,1-.222-.066.407.407,0,0,1-.118-.563c.611-.932,1.266-1.851,1.946-2.73a.407.407,0,1,1,.643.5c-.667.862-1.31,1.763-1.909,2.677A.4.4,0,0,1,5186.431,4269.713Zm5.493-6.747a.406.406,0,0,1-.287-.694c.786-.784,1.615-1.549,2.464-2.272a.406.406,0,0,1,.527.619c-.833.709-1.646,1.459-2.417,2.229A.407.407,0,0,1,5191.924,4262.966Zm6.758-5.48a.407.407,0,0,1-.222-.747c.93-.609,1.9-1.188,2.875-1.723a.406.406,0,1,1,.39.712c-.958.526-1.907,1.094-2.821,1.691A.4.4,0,0,1,5198.682,4257.486Zm44.551-1.213a.41.41,0,0,1-.2-.054c-.944-.546-1.923-1.062-2.909-1.534a.406.406,0,1,1,.351-.733c1,.48,2,1.006,2.965,1.563a.406.406,0,0,1-.2.758Zm-36.819-2.782a.406.406,0,0,1-.148-.784c1.036-.408,2.1-.78,3.165-1.1a.406.406,0,0,1,.237.777c-1.043.32-2.088.684-3.1,1.084A.409.409,0,0,1,5206.414,4253.491Zm28.878-.782a.382.382,0,0,1-.128-.021c-1.037-.344-2.1-.651-3.16-.914a.407.407,0,1,1,.2-.79c1.08.268,2.163.582,3.22.933a.406.406,0,0,1-.128.792Zm-20.5-1.559a.406.406,0,0,1-.068-.807c1.1-.189,2.217-.335,3.325-.437a.411.411,0,0,1,.441.368.406.406,0,0,1-.368.442c-1.086.1-2.183.243-3.261.428A.42.42,0,0,1,5214.8,4251.15Zm12-.327a.378.378,0,0,1-.047,0c-1.086-.126-2.189-.21-3.28-.25a.407.407,0,0,1,.03-.813c1.112.041,2.237.127,3.343.256a.406.406,0,0,1-.046.81Z" fill="#dec2f6"/>
        <path id="Trazado_4913" data-name="Trazado 4913" d="M5180.333,4301.5a.408.408,0,0,1-.4-.325c-.108-.529-.209-1.072-.3-1.613a.406.406,0,1,1,.8-.133c.088.531.186,1.064.293,1.582a.407.407,0,0,1-.317.48A.368.368,0,0,1,5180.333,4301.5Z" fill="#dec2f6"/>
      </g>
      <g id="Grupo_822" data-name="Grupo 822">
        <path id="Trazado_4914" data-name="Trazado 4914" d="M5199.094,4328.8a.406.406,0,0,1-.219-.064c-.464-.3-.924-.6-1.366-.908a.407.407,0,1,1,.463-.669c.434.3.885.6,1.341.892a.406.406,0,0,1-.219.749Z" fill="#dec2f6"/>
        <path id="Trazado_4915" data-name="Trazado 4915" d="M5221.936,4335.471c-.55,0-1.108-.011-1.66-.032a.407.407,0,0,1,.032-.813c1.082.043,2.179.043,3.238,0a.4.4,0,0,1,.422.39.4.4,0,0,1-.39.422C5223.038,4335.46,5222.486,4335.471,5221.936,4335.471Zm6.908-.569a.406.406,0,0,1-.067-.807c1.057-.176,2.124-.4,3.171-.652a.406.406,0,0,1,.193.789c-1.066.262-2.153.486-3.23.664A.4.4,0,0,1,5228.844,4334.9Zm-13.831,0a.406.406,0,0,1-.067-.006c-1.078-.179-2.165-.4-3.231-.666a.407.407,0,0,1,.194-.79c1.046.258,2.113.478,3.17.655a.406.406,0,0,1-.066.807Zm22.1-2.242a.406.406,0,0,1-.146-.786c1-.385,2.006-.813,2.975-1.273a.407.407,0,1,1,.349.735c-.988.468-2.008.9-3.033,1.3A.389.389,0,0,1,5237.109,4332.656Zm-30.362-.006a.407.407,0,0,1-.145-.027c-1.024-.392-2.044-.828-3.034-1.295a.407.407,0,1,1,.347-.735c.971.459,1.973.887,2.977,1.271a.406.406,0,0,1-.145.786Zm38.011-3.845a.406.406,0,0,1-.219-.749c.907-.576,1.8-1.2,2.661-1.841a.407.407,0,1,1,.489.65c-.877.658-1.79,1.289-2.713,1.877A.405.405,0,0,1,5244.758,4328.805Zm6.723-5.3a.407.407,0,0,1-.283-.7c.775-.749,1.527-1.536,2.237-2.338a.407.407,0,0,1,.609.539c-.724.818-1.491,1.62-2.28,2.383A.405.405,0,0,1,5251.481,4323.5Zm5.517-6.545a.405.405,0,0,1-.336-.635c.6-.887,1.184-1.809,1.719-2.741a.407.407,0,0,1,.705.4c-.546.949-1.135,1.89-1.752,2.794A.4.4,0,0,1,5257,4316.959Zm4.085-7.525a.4.4,0,0,1-.157-.032.405.405,0,0,1-.218-.531c.328-.784.637-1.589.918-2.394.074-.212.146-.425.217-.638a.407.407,0,0,1,.772.257c-.072.216-.146.433-.222.649-.286.82-.6,1.641-.935,2.439A.408.408,0,0,1,5261.083,4309.434Zm2.5-8.191a.417.417,0,0,1-.08-.008.406.406,0,0,1-.319-.478c.21-1.056.381-2.131.509-3.2a.406.406,0,1,1,.807.1c-.13,1.086-.3,2.182-.519,3.258A.407.407,0,0,1,5263.588,4301.243Zm.811-8.527a.407.407,0,0,1-.407-.4c-.007-1.075-.057-2.162-.147-3.232a.405.405,0,0,1,.37-.44.41.41,0,0,1,.439.371c.093,1.091.144,2.2.151,3.3a.406.406,0,0,1-.4.409Z" fill="#dec2f6"/>
        <path id="Trazado_4916" data-name="Trazado 4916" d="M5263.467,4284.179a.406.406,0,0,1-.4-.322c-.111-.516-.234-1.044-.367-1.567a.407.407,0,0,1,.789-.2c.135.534.26,1.071.372,1.6a.4.4,0,0,1-.312.482A.423.423,0,0,1,5263.467,4284.179Z" fill="#dec2f6"/>
      </g>
      <g id="Grupo_823" data-name="Grupo 823">
        <path id="Trazado_4917" data-name="Trazado 4917" d="M5248.852,4274.087a.51.51,0,0,0-.527-.268l-6.133.92a27.054,27.054,0,0,0-6.708-5.622l-.171-6.2a.511.511,0,0,0-.357-.472l-7.1-2.23a.51.51,0,0,0-.562.183l-3.684,4.984a27.015,27.015,0,0,0-8.718.774l-4.5-4.262a.51.51,0,0,0-.586-.082l-6.6,3.442a.508.508,0,0,0-.268.527l.92,6.133a26.984,26.984,0,0,0-5.622,6.708l-6.2.171a.509.509,0,0,0-.472.356l-2.23,7.1a.509.509,0,0,0,.183.562l4.984,3.684a26.994,26.994,0,0,0,.774,8.718l-4.262,4.505a.508.508,0,0,0-.082.586l3.441,6.595a.512.512,0,0,0,.527.268l6.133-.92a27.018,27.018,0,0,0,6.709,5.621l.171,6.2a.509.509,0,0,0,.356.472l7.1,2.23a.51.51,0,0,0,.562-.184l3.684-4.983a27.039,27.039,0,0,0,8.718-.775l4.5,4.263a.509.509,0,0,0,.585.081l6.595-3.441a.507.507,0,0,0,.268-.527l-.919-6.133a27,27,0,0,0,5.621-6.708l6.2-.171a.508.508,0,0,0,.471-.357l2.23-7.1a.51.51,0,0,0-.183-.563l-4.984-3.684a27.016,27.016,0,0,0-.774-8.718l4.263-4.5a.509.509,0,0,0,.081-.586Z" fill="url(#linear-gradient-68)"/>
        <path id="Trazado_4918" data-name="Trazado 4918" d="M5221.6,4299.707a7.213,7.213,0,1,1,6.156-3.431A7.175,7.175,0,0,1,5221.6,4299.707Zm.023-13.211a6.058,6.058,0,0,0-1.4.165,5.963,5.963,0,1,0,1.4-.165Z" fill="#fff"/>
        <path id="Trazado_4919" data-name="Trazado 4919" d="M5221.492,4311.123a18.563,18.563,0,1,1,13.845-30.907l-.911.81a17.343,17.343,0,1,0,3.587,16.727h0c.067-.214.13-.429.189-.646a17.472,17.472,0,0,0,.51-2.679l0-.016c.01-.093.02-.186.028-.279l1.214.113a18.6,18.6,0,0,1-.78,3.873h0c-.033.1-.066.207-.1.31a18.589,18.589,0,0,1-17.583,12.694Z" fill="#fff"/>
      </g>
    </g>
    <g id="Grupo_828" data-name="Grupo 828">
      <g id="Grupo_825" data-name="Grupo 825">
        <path id="Trazado_4920" data-name="Trazado 4920" d="M5284.952,4308.635a.407.407,0,0,1-.258-.093c-.411-.339-.837-.666-1.266-.971a.406.406,0,1,1,.47-.662c.446.315.887.654,1.313,1.006a.406.406,0,0,1-.259.72Z" fill="#dec2f6"/>
        <path id="Trazado_4921" data-name="Trazado 4921" d="M5249.047,4322.8a.309.309,0,0,1-.052,0,.406.406,0,0,1-.351-.455,22.471,22.471,0,0,1,.727-3.444.406.406,0,1,1,.779.23,21.855,21.855,0,0,0-.7,3.319A.407.407,0,0,1,5249.047,4322.8Zm2.958-8.517a.4.4,0,0,1-.208-.057.408.408,0,0,1-.141-.558,22.432,22.432,0,0,1,2.04-2.867.406.406,0,1,1,.623.522,21.6,21.6,0,0,0-1.965,2.763A.406.406,0,0,1,5252,4314.286Zm6.12-6.615a.406.406,0,0,1-.236-.737,22.539,22.539,0,0,1,3.018-1.809.406.406,0,1,1,.362.728,21.8,21.8,0,0,0-2.909,1.743A.4.4,0,0,1,5258.125,4307.671Zm20.587-2.656a.4.4,0,0,1-.143-.026c-.173-.065-.347-.129-.522-.19a22.123,22.123,0,0,0-2.735-.762.406.406,0,0,1,.167-.795,22.581,22.581,0,0,1,2.836.79c.181.063.362.129.541.2a.407.407,0,0,1-.144.787Zm-12.331-.962a.406.406,0,0,1-.084-.8,22.428,22.428,0,0,1,3.489-.453.4.4,0,0,1,.427.385.407.407,0,0,1-.385.427,21.677,21.677,0,0,0-3.363.437A.412.412,0,0,1,5266.381,4304.053Z" fill="#dec2f6"/>
        <path id="Trazado_4922" data-name="Trazado 4922" d="M5249.311,4330.032a.406.406,0,0,1-.4-.325c-.111-.539-.2-1.089-.273-1.632a.407.407,0,0,1,.807-.1c.067.524.155,1.053.262,1.573a.405.405,0,0,1-.317.479A.391.391,0,0,1,5249.311,4330.032Z" fill="#dec2f6"/>
      </g>
      <g id="Grupo_826" data-name="Grupo 826">
        <path id="Trazado_4923" data-name="Trazado 4923" d="M5259.717,4344.614a.4.4,0,0,1-.2-.056c-.474-.279-.944-.578-1.4-.892a.406.406,0,1,1,.463-.668c.436.3.888.591,1.345.859a.407.407,0,0,1-.207.757Z" fill="#dec2f6"/>
        <path id="Trazado_4924" data-name="Trazado 4924" d="M5273.624,4347.5a.406.406,0,0,1-.05-.809,21.834,21.834,0,0,0,3.267-.668.407.407,0,1,1,.224.782,22.694,22.694,0,0,1-3.391.692Zm-5.514-.01a.479.479,0,0,1-.052,0,22.372,22.372,0,0,1-3.388-.706.406.406,0,0,1,.227-.78,21.694,21.694,0,0,0,3.265.68.406.406,0,0,1-.052.81Zm13.913-2.835a.406.406,0,0,1-.205-.757,21.865,21.865,0,0,0,2.743-1.9.407.407,0,0,1,.512.632,22.678,22.678,0,0,1-2.846,1.968A.413.413,0,0,1,5282.023,4344.653Zm6.6-5.915a.406.406,0,0,1-.327-.648,21.68,21.68,0,0,0,1.77-2.827.406.406,0,0,1,.72.377,22.515,22.515,0,0,1-1.836,2.933A.407.407,0,0,1,5288.625,4338.738Zm3.731-8.045a.4.4,0,0,1-.095-.011.407.407,0,0,1-.3-.489,21.667,21.667,0,0,0,.519-3.295.406.406,0,1,1,.81.064,22.364,22.364,0,0,1-.538,3.419A.407.407,0,0,1,5292.356,4330.693Z" fill="#dec2f6"/>
        <path id="Trazado_4925" data-name="Trazado 4925" d="M5292.616,4321.809a.406.406,0,0,1-.4-.336c-.093-.523-.206-1.047-.336-1.558a.407.407,0,1,1,.788-.2c.135.53.252,1.075.348,1.618a.406.406,0,0,1-.329.471A.442.442,0,0,1,5292.616,4321.809Z" fill="#dec2f6"/>
      </g>
      <g id="Grupo_827" data-name="Grupo 827">
        <path id="Trazado_4926" data-name="Trazado 4926" d="M5284.88,4315.608a.265.265,0,0,0-.274-.139l-3.184.477a14.03,14.03,0,0,0-3.482-2.918l-.089-3.216a.264.264,0,0,0-.185-.245l-3.684-1.158a.267.267,0,0,0-.292.095l-1.912,2.588a14,14,0,0,0-4.525.4l-2.338-2.213a.265.265,0,0,0-.305-.042l-3.423,1.786a.264.264,0,0,0-.139.274l.477,3.183a14.03,14.03,0,0,0-2.918,3.482l-3.216.089a.263.263,0,0,0-.245.185l-1.157,3.684a.264.264,0,0,0,.1.292l2.587,1.912a14.037,14.037,0,0,0,.4,4.526l-2.213,2.338a.264.264,0,0,0-.042.3l1.786,3.423a.266.266,0,0,0,.274.14l3.183-.478a14.007,14.007,0,0,0,3.483,2.918l.088,3.216a.265.265,0,0,0,.185.245l3.684,1.158a.264.264,0,0,0,.292-.1l1.912-2.587a14.021,14.021,0,0,0,4.526-.4l2.338,2.212a.264.264,0,0,0,.3.043l3.424-1.787a.263.263,0,0,0,.139-.273l-.478-3.184a14.044,14.044,0,0,0,2.919-3.482l3.215-.089a.262.262,0,0,0,.245-.185l1.158-3.684a.264.264,0,0,0-.1-.292l-2.587-1.912a14.017,14.017,0,0,0-.4-4.525l2.213-2.339a.266.266,0,0,0,.042-.3Z" fill="url(#linear-gradient-69)"/>
        <path id="Trazado_4927" data-name="Trazado 4927" d="M5270.734,4329.2a4.042,4.042,0,1,1,3.447-1.924h0a4.06,4.06,0,0,1-3.447,1.924Zm.013-6.859a2.819,2.819,0,1,0,2.4,4.3h0a2.818,2.818,0,0,0-2.4-4.3Z" fill="#fff"/>
        <path id="Trazado_4928" data-name="Trazado 4928" d="M5270.678,4335.127a9.928,9.928,0,0,1-9.482-12.909,9.929,9.929,0,0,1,16.888-3.623l-.912.81a8.707,8.707,0,1,0,1.8,8.4l0-.011h0v0a8.793,8.793,0,0,0,.35-1.689l.012-.115,1.214.112a10.056,10.056,0,0,1-.417,2.071h0a9.858,9.858,0,0,1-4.482,5.607q-.195.113-.4.219A9.891,9.891,0,0,1,5270.678,4335.127Z" fill="#fff"/>
      </g>
    </g>
    <g id="Grupo_831" data-name="Grupo 831">
      <path id="Trazado_4929" data-name="Trazado 4929" d="M5485.091,4318.582s11.485,30.29,15.113,36.591c4.212,7.314,16.513,2.653,15.9-3.468s-14.984-31.422-14.984-31.422Z" fill="url(#linear-gradient-70)"/>
      <path id="Trazado_4930" data-name="Trazado 4930" d="M5500.609,4296.518l59.4-24.749-.75,66.976-60.606-16.2Z" fill="url(#linear-gradient-71)"/>
      <ellipse id="Elipse_65" data-name="Elipse 65" cx="7.013" cy="34.419" rx="7.013" ry="34.419" transform="translate(5553.068 4271.032)" fill="url(#linear-gradient-72)"/>
      <path id="Trazado_4931" data-name="Trazado 4931" d="M5560.614,4337.517c-.634-.645-2.015-3.132-3.2-9.563a146.1,146.1,0,0,1,0-45.4c1.184-6.431,2.565-8.917,3.2-9.562.634.645,2.015,3.131,3.2,9.562a146.016,146.016,0,0,1,0,45.4C5562.629,4334.385,5561.248,4336.872,5560.614,4337.517Z" fill="url(#linear-gradient-73)"/>
      <g id="Grupo_830" data-name="Grupo 830">
        <g id="Grupo_829" data-name="Grupo 829" clip-path="url(#clip-path)">
          <path id="Trazado_4932" data-name="Trazado 4932" d="M5569.6,4305c0,5.849-3.151,10.59-9.386,10.59s-11.29-4.741-11.29-10.59,5.054-10.589,11.29-10.589S5569.6,4299.152,5569.6,4305Z" fill="url(#linear-gradient-74)"/>
        </g>
      </g>
      <path id="Trazado_4934" data-name="Trazado 4934" d="M5489.1,4295.079a39.962,39.962,0,0,1,13.38.662,71.451,71.451,0,0,0,.527,27.969h-14.684a4.759,4.759,0,0,1-4.7-4.014c-.732-4.635-1.626-12.426-.672-18.684A7.04,7.04,0,0,1,5489.1,4295.079Z" fill="url(#linear-gradient-75)"/>
      <path id="Trazado_4935" data-name="Trazado 4935" d="M5497.909,4302.257h-11.441a1.359,1.359,0,0,1-1.141-2.1.61.61,0,0,1,1.024.662.132.132,0,0,0,0,.142.13.13,0,0,0,.122.073h11.441a.14.14,0,0,0,.14-.139v-.814a.14.14,0,0,0-.14-.14h-11.526a.609.609,0,0,1,0-1.219h11.526a1.36,1.36,0,0,1,1.359,1.359v.814A1.36,1.36,0,0,1,5497.909,4302.257Z" fill="#fff"/>
      <path id="Trazado_4936" data-name="Trazado 4936" d="M5496.889,4307.324h-11.441a1.36,1.36,0,0,1-1.141-2.1.61.61,0,1,1,1.024.662.134.134,0,0,0,0,.143.131.131,0,0,0,.122.072h11.441a.139.139,0,0,0,.139-.139v-.815a.139.139,0,0,0-.139-.139h-11.526a.61.61,0,0,1,0-1.219h11.526a1.36,1.36,0,0,1,1.359,1.358v.815A1.361,1.361,0,0,1,5496.889,4307.324Z" fill="#fff"/>
      <path id="Trazado_4937" data-name="Trazado 4937" d="M5510.982,4295.021a.609.609,0,0,1-.231-1.174l42.087-17.2a.61.61,0,1,1,.461,1.129l-42.087,17.2A.6.6,0,0,1,5510.982,4295.021Z" fill="#fff"/>
      <path id="Trazado_4938" data-name="Trazado 4938" d="M5503.671,4298.01a.609.609,0,0,1-.231-1.174l2.782-1.138a.61.61,0,0,1,.462,1.129l-2.783,1.137A.6.6,0,0,1,5503.671,4298.01Z" fill="#fff"/>
      <path id="Trazado_4939" data-name="Trazado 4939" d="M5497.909,4313.258h-11.441a1.359,1.359,0,0,1-1.141-2.1.61.61,0,1,1,1.024.662.133.133,0,0,0,0,.143.132.132,0,0,0,.122.073h11.441a.14.14,0,0,0,.14-.14v-.814a.14.14,0,0,0-.14-.14h-11.526a.609.609,0,0,1,0-1.219h11.526a1.36,1.36,0,0,1,1.359,1.359v.814A1.36,1.36,0,0,1,5497.909,4313.258Z" fill="#fff"/>
      <path id="Trazado_4940" data-name="Trazado 4940" d="M5498.981,4319.845H5487.54a1.36,1.36,0,0,1-1.142-2.1.61.61,0,1,1,1.025.662.138.138,0,0,0,.117.215h11.441a.139.139,0,0,0,.139-.139v-.814a.14.14,0,0,0-.139-.14h-11.526a.61.61,0,1,1,0-1.219h11.526a1.36,1.36,0,0,1,1.358,1.359v.814A1.36,1.36,0,0,1,5498.981,4319.845Z" fill="#fff"/>
      <path id="Trazado_4941" data-name="Trazado 4941" d="M5509.2,4355.657a7.784,7.784,0,0,1-1.66-.18,7.673,7.673,0,0,1-5.416-4.387l-9.141-20.307a.61.61,0,0,1,1.113-.5l9.14,20.307a6.467,6.467,0,0,0,4.564,3.7,6.324,6.324,0,0,0,5.569-1.423q.127-.111.255-.228a.61.61,0,1,1,.823.9q-.138.126-.275.246A7.513,7.513,0,0,1,5509.2,4355.657Z" fill="#fff"/>
      <path id="Trazado_4942" data-name="Trazado 4942" d="M5492.188,4328.14a.61.61,0,0,1-.556-.36l-1.02-2.265a.61.61,0,0,1,1.112-.5l1.02,2.265a.61.61,0,0,1-.306.806A.6.6,0,0,1,5492.188,4328.14Z" fill="#fff"/>
      <path id="Trazado_4943" data-name="Trazado 4943" d="M5567.931,4305.011a.61.61,0,0,1-.608-.566c-.2-2.769-1.146-4.826-2.823-6.117-2.913-2.243-7.124-1.474-7.166-1.467a.609.609,0,0,1-.23-1.2c.193-.037,4.777-.884,8.133,1.692,1.969,1.512,3.08,3.868,3.3,7a.611.611,0,0,1-.565.652Z" fill="#fff"/>
    </g>
    <g id="Grupo_840" data-name="Grupo 840">
      <g id="Grupo_839" data-name="Grupo 839">
        <g id="Grupo_837" data-name="Grupo 837">
          <g id="Grupo_832" data-name="Grupo 832">
            <path id="Trazado_4944" data-name="Trazado 4944" d="M5182.032,4451.572c-2.026.176-5.543.46-8.315.582a8,8,0,0,1-3.178-.311c0,.062,0,.121,0,.176a.573.573,0,0,0,.545.541,97.2,97.2,0,0,0,10.887.011.408.408,0,0,0,.332-.613A3.439,3.439,0,0,0,5182.032,4451.572Z" fill="url(#linear-gradient-76)"/>
            <path id="Trazado_4945" data-name="Trazado 4945" d="M5173.717,4452.154c2.772-.122,6.289-.406,8.315-.582-1.992-2.444-8.315-4.091-8.315-4.091h-1.786a7.485,7.485,0,0,0-1.392,4.362A8,8,0,0,0,5173.717,4452.154Z" fill="url(#linear-gradient-77)"/>
            <path id="Trazado_4946" data-name="Trazado 4946" d="M5171.63,4444.566l.168,3.307a.755.755,0,0,0,.644.71,2.941,2.941,0,0,0,1.342-.111.892.892,0,0,0,.6-.687l.578-3.219Z" fill="url(#linear-gradient-78)"/>
          </g>
          <g id="Grupo_834" data-name="Grupo 834">
            <g id="Grupo_833" data-name="Grupo 833">
              <path id="Trazado_4947" data-name="Trazado 4947" d="M5148.436,4452.129a1.6,1.6,0,0,1-1.443-1.067l0,.013a1.141,1.141,0,0,0,.77,1.3,5.025,5.025,0,0,0,2.13.334,2.116,2.116,0,0,0,1.6-.737l.005-.007A5.354,5.354,0,0,1,5148.436,4452.129Z" fill="url(#linear-gradient-79)"/>
              <path id="Trazado_4948" data-name="Trazado 4948" d="M5152.579,4444.545h-1.473c-2.243-.046-3.652,4.685-4.113,6.517a1.6,1.6,0,0,0,1.443,1.067,5.354,5.354,0,0,0,3.057-.162,14.061,14.061,0,0,0,2.1-5.293A1.858,1.858,0,0,0,5152.579,4444.545Z" fill="url(#linear-gradient-80)"/>
            </g>
            <path id="Trazado_4949" data-name="Trazado 4949" d="M5151.295,4441.475l-.817,3.253a.88.88,0,0,0,.459,1,3.129,3.129,0,0,0,1.693.41.735.735,0,0,0,.6-.491l1.2-3.422Z" fill="url(#linear-gradient-81)"/>
          </g>
          <path id="Trazado_4950" data-name="Trazado 4950" d="M5150.32,4442.415c1.017.9,4.327,1.022,4.327,1.022,11.92-28.61,16.8-32.675,16.8-32.675-1.721,10.8-.277,34.706-.277,34.706a7.151,7.151,0,0,0,4.5,0,184.309,184.309,0,0,1,6.087-45.252c-8.056-.181-12.341-2.938-13.74-4.044C5161.3,4407,5150.32,4442.415,5150.32,4442.415Z" fill="url(#linear-gradient-82)"/>
          <path id="Trazado_4951" data-name="Trazado 4951" d="M5170.062,4363.27c-1.525,7.606-.978,21.221-.619,27.431.1,1.745-1.118,4.165-2.1,5.815a.519.519,0,0,0,.209.729,35.946,35.946,0,0,0,13.709,3.8.922.922,0,0,0,.929-.69,180.206,180.206,0,0,1,10.38-29.388C5186.409,4361.133,5170.062,4363.27,5170.062,4363.27Z" fill="url(#linear-gradient-83)"/>
          <path id="Trazado_4952" data-name="Trazado 4952" d="M5172.257,4410.085a.375.375,0,0,1-.2-.056.381.381,0,0,1-.128-.524,11.969,11.969,0,0,1,4.726-4.1.381.381,0,1,1,.332.687,11.427,11.427,0,0,0-4.406,3.813A.382.382,0,0,1,5172.257,4410.085Z" fill="url(#linear-gradient-84)"/>
          <g id="Grupo_835" data-name="Grupo 835">
            <path id="Trazado_4953" data-name="Trazado 4953" d="M5160.5,4385.1a26.172,26.172,0,0,0,4.832,11.515l1.1-.9a33.988,33.988,0,0,1-.549-11A13.194,13.194,0,0,0,5160.5,4385.1Z" fill="url(#linear-gradient-85)"/>
            <path id="Trazado_4954" data-name="Trazado 4954" d="M5171.765,4372.655l-1.7-9.385s-11.38,8.7-9.565,21.83a13.194,13.194,0,0,1,5.384-.387C5166.4,4380.5,5167.956,4375.924,5171.765,4372.655Z" fill="url(#linear-gradient-86)"/>
          </g>
          <g id="Grupo_836" data-name="Grupo 836">
            <path id="Trazado_4955" data-name="Trazado 4955" d="M5192.567,4370.967l-4.393,9.46c.71,5.712,3.779,8.182,7.087,9.129a20.088,20.088,0,0,1,1.475-6.161C5192.509,4379.031,5192.567,4370.967,5192.567,4370.967Z" fill="url(#linear-gradient-87)"/>
            <path id="Trazado_4956" data-name="Trazado 4956" d="M5196.736,4383.4a20.088,20.088,0,0,0-1.475,6.161c8.827,3.425,11.162-3.217,11.162-3.217l-1.631-.288A9.248,9.248,0,0,1,5196.736,4383.4Z" fill="url(#linear-gradient-88)"/>
          </g>
          <path id="Trazado_4957" data-name="Trazado 4957" d="M5188.52,4359.287l-2.121,7.8a1.516,1.516,0,0,1-2.028,1.009,30.55,30.55,0,0,1-3.057-1.4,2.044,2.044,0,0,1-.721-2.937l4.409-6.575Z" fill="url(#linear-gradient-89)"/>
        </g>
        <path id="Trazado_4958" data-name="Trazado 4958" d="M5210.468,4381.122l-54.342,19.779a4.16,4.16,0,0,0-2.364,5.632l.165.363a3.868,3.868,0,0,0,5.144,1.909l52.766-24.41Z" fill="url(#linear-gradient-90)"/>
        <ellipse id="Elipse_66" data-name="Elipse 66" cx="26.826" cy="26.342" rx="26.826" ry="26.342" transform="translate(5208.621 4342.883)" opacity="0.5" fill="url(#linear-gradient-91)"/>
        <path id="Trazado_4959" data-name="Trazado 4959" d="M5235.446,4339.913c-16.485,0-29.85,13.123-29.85,29.312s13.365,29.311,29.85,29.311,29.85-13.123,29.85-29.311S5251.932,4339.913,5235.446,4339.913Zm0,54.318a25.01,25.01,0,1,1,25.466-25.006A25.239,25.239,0,0,1,5235.446,4394.231Z" fill="url(#linear-gradient-92)"/>
        <path id="Trazado_4960" data-name="Trazado 4960" d="M5207.866,4372.86a.2.2,0,0,1-.2-.179c-.088-.693-.151-1.4-.185-2.1a.2.2,0,0,1,.194-.214.2.2,0,0,1,.214.194c.034.691.1,1.388.183,2.07a.2.2,0,0,1-.177.229Zm.2-8.2a.221.221,0,0,1-.036,0,.2.2,0,0,1-.165-.237,26.953,26.953,0,0,1,1.61-5.512,27.9,27.9,0,0,1,25.966-17.187,28.288,28.288,0,0,1,15.037,4.3.2.2,0,0,1,.064.282.2.2,0,0,1-.281.064,27.885,27.885,0,0,0-14.82-4.234,27.494,27.494,0,0,0-25.587,16.932h0a26.6,26.6,0,0,0-1.586,5.429A.205.205,0,0,1,5208.071,4364.664Z" fill="#fff"/>
        <g id="Grupo_838" data-name="Grupo 838">
          <path id="Trazado_4961" data-name="Trazado 4961" d="M5193.159,4353.364c.02.134-1.768,8.9-1.768,8.9l-4.982-1.127.461-8.557S5192.836,4351.122,5193.159,4353.364Z" fill="url(#linear-gradient-93)"/>
          <path id="Trazado_4962" data-name="Trazado 4962" d="M5187.99,4354.483l-.6,4.485a.637.637,0,0,0,0,.172c.051.352.312,1.549,1.521,1.206a5.7,5.7,0,0,1,2.8-.365.631.631,0,0,1,.434.731,27.263,27.263,0,0,1-1.146,4.083.631.631,0,0,1-.766.372,20.4,20.4,0,0,1-4.391-1.8.633.633,0,0,1-.308-.569c.048-1.133.18-4.575.069-5.54-.1-.905-1.216-1.448-1.7-1.642a.62.62,0,0,1-.346-.348,1.638,1.638,0,0,1,1.1-2.388.633.633,0,0,0,.4-.819,1.64,1.64,0,0,1,.92-2.268,2.317,2.317,0,0,1,2.763.665.633.633,0,0,0,.806.1.5.5,0,0,1,.569.019.624.624,0,0,0,.882-.267,1.885,1.885,0,0,1,2.192-1.093c2.233.382,2.486,2.856,1.9,4.306s-2.986.9-4.188.166a2.7,2.7,0,0,0-2.616.338A.625.625,0,0,0,5187.99,4354.483Z" fill="url(#linear-gradient-94)"/>
          <path id="Trazado_4963" data-name="Trazado 4963" d="M5185.4,4358.9s.918-2.57-.025-3.2-2.339-.3-2.032,1.559C5183.729,4359.573,5185.4,4358.9,5185.4,4358.9Z" fill="url(#linear-gradient-95)"/>
        </g>
        <path id="Trazado_4964" data-name="Trazado 4964" d="M5165.976,4395.561l5.137-.418,2.225,2.051s-.526.727-2.172.309a23.611,23.611,0,0,0-3.9-.521s-2.271,1.024-2.3-.892Z" fill="url(#linear-gradient-96)"/>
        <path id="Trazado_4965" data-name="Trazado 4965" d="M5205.769,4387.554c.444.347,1.966-.377,2.9-.878a1.072,1.072,0,0,0,.518-1.267c-.224-.706-.6-1.619-1.057-1.734C5207.363,4383.484,5203.938,4386.124,5205.769,4387.554Z" fill="url(#linear-gradient-97)"/>
        <path id="Trazado_4966" data-name="Trazado 4966" d="M5157.2,4408.048a.2.2,0,0,1-.067-.011c-2.125-.734-2.618-1.99-2.659-2.914a3.238,3.238,0,0,1,2.111-3.119l6.525-2.544a.2.2,0,0,1,.264.116.2.2,0,0,1-.116.265l-6.525,2.544a2.83,2.83,0,0,0-1.85,2.72c.05,1.16.852,2.016,2.384,2.546a.2.2,0,0,1-.067.4Z" fill="#fff"/>
        <path id="Trazado_4967" data-name="Trazado 4967" d="M5165.193,4399.07a.2.2,0,0,1-.075-.394l.846-.33a.2.2,0,1,1,.148.381l-.845.329A.2.2,0,0,1,5165.193,4399.07Z" fill="#fff"/>
      </g>
    </g>
    <path id="Trazado_4968" data-name="Trazado 4968" d="M5431.924,4345.646a.919.919,0,0,1-.919-.919v-.116c0-.36,0-.72-.015-1.078a.919.919,0,1,1,1.838-.05c.01.375.016.751.016,1.128v.116A.919.919,0,0,1,5431.924,4345.646Zm-.193-4.06a.92.92,0,0,1-.914-.83q-.059-.6-.133-1.188a.919.919,0,0,1,1.823-.231q.078.62.14,1.24a.921.921,0,0,1-.826,1C5431.791,4341.584,5431.761,4341.586,5431.731,4341.586Zm-.593-4.021a.92.92,0,0,1-.9-.741q-.115-.587-.248-1.168a.919.919,0,0,1,1.792-.408q.138.607.259,1.219a.919.919,0,0,1-.723,1.08A.9.9,0,0,1,5431.138,4337.565Zm-.974-3.944a.919.919,0,0,1-.881-.658q-.17-.573-.355-1.139a.919.919,0,0,1,1.747-.572q.193.591.37,1.188a.922.922,0,0,1-.881,1.181Zm-1.33-3.838a.919.919,0,0,1-.855-.58q-.22-.555-.455-1.1a.919.919,0,0,1,1.69-.724q.245.571.474,1.149a.919.919,0,0,1-.516,1.193A.906.906,0,0,1,5428.834,4329.783Zm-1.658-3.706a.918.918,0,0,1-.823-.509q-.267-.534-.547-1.063a.919.919,0,1,1,1.625-.86q.291.549.567,1.1a.92.92,0,0,1-.822,1.33Zm-1.956-3.558a.917.917,0,0,1-.788-.445q-.308-.512-.629-1.017a.919.919,0,1,1,1.552-.985q.333.524.652,1.054a.918.918,0,0,1-.787,1.393Zm-2.227-3.394a.918.918,0,0,1-.75-.387q-.346-.487-.7-.968a.919.919,0,0,1,1.474-1.1q.37.5.728,1a.92.92,0,0,1-.748,1.452Zm-2.472-3.222a.916.916,0,0,1-.709-.334q-.381-.461-.773-.917a.919.919,0,1,1,1.393-1.2q.4.468.8.945a.919.919,0,0,1-.708,1.5Zm-2.694-3.04a.915.915,0,0,1-.667-.287q-.413-.435-.834-.861a.919.919,0,0,1,1.307-1.293q.435.441.861.889a.919.919,0,0,1-.667,1.552Zm-2.9-2.851a.914.914,0,0,1-.622-.243c-.294-.271-.592-.54-.892-.805a.92.92,0,1,1,1.22-1.376q.461.411.917.828a.92.92,0,0,1-.623,1.6Zm-3.078-2.653a.911.911,0,0,1-.576-.2q-.468-.376-.944-.745a.919.919,0,1,1,1.127-1.453q.489.379.971.767a.919.919,0,0,1-.578,1.635Zm-3.245-2.448a.92.92,0,0,1-.529-.168q-.492-.346-.99-.683a.919.919,0,1,1,1.03-1.523q.511.346,1.019.7a.92.92,0,0,1-.53,1.671Zm-3.4-2.233a.911.911,0,0,1-.479-.136q-.513-.313-1.032-.617a.919.919,0,1,1,.928-1.587q.534.313,1.064.636a.92.92,0,0,1-.481,1.7Zm-3.538-2.008a.913.913,0,0,1-.426-.1q-.532-.279-1.07-.548a.919.919,0,0,1,.821-1.644q.554.276,1.1.564a.919.919,0,0,1-.428,1.733Zm-3.659-1.771a.9.9,0,0,1-.375-.081q-.552-.246-1.1-.483a.919.919,0,1,1,.724-1.69q.568.243,1.131.5a.919.919,0,0,1-.376,1.758Zm-117.019-1.1-.73,0a.919.919,0,0,1,.006-1.838h0l.719,0h.493a.919.919,0,0,1,0,1.838Zm3.338-.044a.919.919,0,0,1-.022-1.838q.606-.013,1.212-.033a.919.919,0,0,1,.057,1.837c-.408.013-.816.025-1.225.034Zm-6.907-.011h-.029q-.614-.02-1.227-.046a.919.919,0,1,1,.077-1.836q.6.026,1.208.044a.919.919,0,0,1-.029,1.838Zm10.967-.133a.919.919,0,0,1-.042-1.837l1.213-.061a.919.919,0,0,1,.1,1.836q-.612.031-1.223.061Zm-15.025-.073-.066,0q-.613-.044-1.228-.1a.919.919,0,0,1,.153-1.832q.6.05,1.205.093a.919.919,0,0,1-.064,1.836Zm19.083-.159a.919.919,0,0,1-.061-1.836c.4-.027.809-.055,1.213-.084a.919.919,0,0,1,.131,1.833q-.61.045-1.221.085C5292.491,4297.378,5292.471,4297.378,5292.45,4297.378Zm101.809-.038a.907.907,0,0,1-.329-.062q-.562-.216-1.129-.422a.919.919,0,1,1,.631-1.727q.58.212,1.157.433a.92.92,0,0,1-.33,1.778Zm-124.939-.179a.894.894,0,0,1-.108-.006q-.612-.07-1.223-.15a.919.919,0,1,1,.236-1.823q.6.078,1.2.147a.919.919,0,0,1-.1,1.832Zm27.184-.089a.919.919,0,0,1-.076-1.835q.6-.049,1.21-.1a.919.919,0,0,1,.163,1.831q-.61.054-1.22.1C5296.556,4297.071,5296.529,4297.072,5296.5,4297.072Zm4.047-.369a.919.919,0,0,1-.089-1.834c.4-.04.807-.08,1.211-.122a.919.919,0,0,1,.186,1.829q-.607.063-1.217.122C5300.612,4296.7,5300.581,4296.7,5300.551,4296.7Zm-35.258-.108a1.015,1.015,0,0,1-.152-.012c-.407-.068-.812-.139-1.218-.213a.919.919,0,0,1,.332-1.808q.593.108,1.188.207a.919.919,0,0,1-.15,1.826Zm39.3-.314a.919.919,0,0,1-.1-1.833l1.21-.134a.919.919,0,1,1,.205,1.826l-1.214.135A.885.885,0,0,1,5304.594,4296.281Zm85.834-.3a.911.911,0,0,1-.284-.045q-.574-.186-1.149-.365a.919.919,0,1,1,.543-1.756q.588.183,1.175.373a.919.919,0,0,1-.285,1.793Zm-81.8-.163a.919.919,0,0,1-.106-1.832l1.209-.144a.919.919,0,0,1,.22,1.825l-1.213.145A1.044,1.044,0,0,1,5308.632,4295.819Zm-47.33,0a.931.931,0,0,1-.2-.023q-.6-.136-1.206-.283a.919.919,0,0,1,.437-1.786q.584.144,1.173.276a.919.919,0,0,1-.2,1.816Zm51.365-.488a.92.92,0,0,1-.112-1.832l1.209-.151a.919.919,0,1,1,.229,1.824l-1.211.151A.832.832,0,0,1,5312.667,4295.329Zm73.868-.509a.922.922,0,0,1-.242-.032q-.582-.159-1.166-.309a.919.919,0,1,1,.457-1.78q.6.152,1.192.315a.919.919,0,0,1-.241,1.806Zm-69.834,0a.919.919,0,0,1-.115-1.831l1.209-.154a.919.919,0,1,1,.233,1.823l-1.21.155A.946.946,0,0,1,5316.7,4294.82Zm-59.337-.02a.9.9,0,0,1-.259-.038q-.6-.174-1.187-.361a.919.919,0,0,1,.554-1.753c.381.121.765.237,1.15.35a.919.919,0,0,1-.258,1.8Zm63.369-.494a.919.919,0,0,1-.115-1.831l1.21-.154a.919.919,0,1,1,.232,1.823l-1.21.154A.86.86,0,0,1,5320.733,4294.306Zm61.857-.462a.913.913,0,0,1-.2-.022q-.59-.132-1.18-.255a.919.919,0,1,1,.377-1.8q.6.126,1.2.26a.919.919,0,0,1-.2,1.816Zm-57.825-.048a.919.919,0,0,1-.112-1.831l1.211-.151a.92.92,0,1,1,.225,1.825l-1.209.15A.9.9,0,0,1,5324.765,4293.8Zm-71.261-.278a.93.93,0,0,1-.322-.058q-.582-.218-1.158-.448a.919.919,0,0,1,.682-1.707q.558.222,1.12.433a.919.919,0,0,1-.322,1.78Zm75.3-.215a.919.919,0,0,1-.108-1.832l1.213-.144a.919.919,0,0,1,.214,1.826l-1.209.143A.849.849,0,0,1,5328.8,4293.3Zm49.806-.259a.884.884,0,0,1-.163-.014q-.594-.106-1.19-.206a.919.919,0,0,1,.3-1.813c.4.068.808.137,1.212.209a.919.919,0,0,1-.161,1.824Zm-45.769-.207a.919.919,0,0,1-.1-1.833l1.215-.132a.919.919,0,1,1,.2,1.827l-1.21.133C5332.906,4292.835,5332.871,4292.837,5332.837,4292.837Zm4.042-.427a.919.919,0,0,1-.09-1.833q.609-.062,1.218-.119a.919.919,0,0,1,.175,1.83c-.4.038-.806.078-1.21.118A.852.852,0,0,1,5336.879,4292.41Zm37.713,0a.862.862,0,0,1-.127-.008q-.6-.082-1.2-.159a.919.919,0,0,1,.231-1.824c.406.052.813.106,1.219.162a.919.919,0,0,1-.125,1.829Zm-33.665-.375a.919.919,0,0,1-.078-1.834l1.221-.1a.919.919,0,1,1,.146,1.832l-1.21.1C5340.98,4292.033,5340.953,4292.034,5340.927,4292.034Zm-91.172-.089a.914.914,0,0,1-.389-.087q-.564-.264-1.12-.543a.919.919,0,0,1,.823-1.644q.535.269,1.077.523a.919.919,0,0,1-.391,1.751Zm120.8-.017a.773.773,0,0,1-.094-.005c-.4-.04-.8-.079-1.2-.115a.919.919,0,1,1,.165-1.831q.612.056,1.223.117a.919.919,0,0,1-.091,1.834Zm-25.578-.206a.919.919,0,0,1-.061-1.836c.407-.027.814-.054,1.223-.079a.919.919,0,1,1,.113,1.834l-1.212.079C5345.021,4291.722,5345,4291.722,5344.979,4291.722Zm21.528-.133-.062,0q-.6-.04-1.208-.075a.919.919,0,0,1,.1-1.835q.614.035,1.226.076a.919.919,0,0,1-.061,1.836Zm-17.469-.1a.919.919,0,0,1-.043-1.837c.408-.019.816-.038,1.224-.054a.919.919,0,1,1,.075,1.836q-.606.026-1.212.054Zm13.41-.106h-.034q-.6-.021-1.21-.038a.92.92,0,0,1-.894-.944.929.929,0,0,1,.944-.894q.614.017,1.227.039a.919.919,0,0,1-.033,1.838Zm-9.348-.042a.919.919,0,0,1-.023-1.838q.613-.015,1.227-.026a.919.919,0,0,1,.032,1.838q-.606.01-1.213.026Zm5.284-.047h-.007c-.4,0-.79-.007-1.2,0l-.013-1.838c.422,0,.822,0,1.226,0a.919.919,0,0,1-.007,1.838Zm-112.228-1.235a.908.908,0,0,1-.463-.126c-.358-.209-.713-.424-1.066-.643a.92.92,0,0,1,.972-1.561q.507.316,1.022.617a.919.919,0,0,1-.465,1.713Zm-3.4-2.219a.92.92,0,0,1-.54-.175c-.335-.244-.668-.493-1-.748a.919.919,0,0,1,1.125-1.453q.472.365.952.713a.919.919,0,0,1-.541,1.663Zm-3.155-2.554a.919.919,0,0,1-.615-.237q-.462-.418-.913-.852a.919.919,0,1,1,1.275-1.324q.428.414.87.811a.919.919,0,0,1-.617,1.6Zm-2.86-2.885a.916.916,0,0,1-.689-.31q-.417-.471-.813-.955a.919.919,0,0,1,1.421-1.166q.375.458.769.9a.919.919,0,0,1-.688,1.528Zm-2.5-3.2a.917.917,0,0,1-.758-.4q-.355-.516-.691-1.045a.919.919,0,1,1,1.551-.986q.319.5.654.99a.919.919,0,0,1-.756,1.44Zm-2.1-3.478a.918.918,0,0,1-.814-.492q-.292-.554-.563-1.116a.919.919,0,1,1,1.654-.8q.259.535.536,1.061a.92.92,0,0,1-.813,1.348Zm-1.686-3.7a.92.92,0,0,1-.857-.585c-.151-.388-.3-.778-.435-1.171a.919.919,0,0,1,1.733-.612q.2.561.414,1.115a.919.919,0,0,1-.855,1.253Zm-1.274-3.857a.92.92,0,0,1-.887-.678q-.163-.6-.309-1.209a.919.919,0,1,1,1.788-.427c.092.386.191.77.295,1.153a.922.922,0,0,1-.887,1.161Zm-.867-3.969a.92.92,0,0,1-.906-.768q-.1-.615-.186-1.233a.919.919,0,1,1,1.821-.247q.081.59.179,1.178a.919.919,0,0,1-.756,1.057A.894.894,0,0,1,5228.313,4264.2Zm-.471-4.035a.919.919,0,0,1-.916-.856q-.043-.621-.068-1.243a.92.92,0,0,1,1.838-.074q.023.6.064,1.191a.919.919,0,0,1-.854.98Zm-.086-4.061h-.023a.919.919,0,0,1-.9-.941c.011-.415.026-.829.048-1.244a.919.919,0,1,1,1.836.1q-.031.6-.046,1.192A.919.919,0,0,1,5227.756,4256.1Zm.285-4.053a.994.994,0,0,1-.107-.006.92.92,0,0,1-.807-1.019q.072-.617.159-1.233a.92.92,0,0,1,1.821.259q-.086.593-.154,1.186A.919.919,0,0,1,5228.041,4252.047Zm.648-4.011a1.032,1.032,0,0,1-.188-.019.92.92,0,0,1-.713-1.087q.126-.609.269-1.215a.92.92,0,0,1,1.79.422q-.138.582-.259,1.166A.92.92,0,0,1,5228.689,4248.036Zm1-3.937a.939.939,0,0,1-.268-.04.919.919,0,0,1-.611-1.147q.18-.6.378-1.185a.919.919,0,1,1,1.743.582q-.189.565-.363,1.138A.919.919,0,0,1,5229.693,4244.1Zm1.356-3.831a.92.92,0,0,1-.851-1.265q.235-.577.485-1.147a.919.919,0,1,1,1.683.74c-.16.364-.315.731-.465,1.1A.919.919,0,0,1,5231.049,4240.268Zm1.7-3.688a.92.92,0,0,1-.814-1.344q.288-.553.591-1.1a.92.92,0,0,1,1.606.9q-.292.52-.566,1.05A.922.922,0,0,1,5232.753,4236.58Zm2.049-3.509a.92.92,0,0,1-.769-1.421q.34-.522.7-1.034a.919.919,0,1,1,1.51,1.048q-.34.489-.666.989A.917.917,0,0,1,5234.8,4233.071Zm2.387-3.288a.919.919,0,0,1-.715-1.5q.391-.485.8-.958a.919.919,0,0,1,1.394,1.2c-.258.3-.513.606-.762.915A.918.918,0,0,1,5237.189,4229.783Zm2.706-3.032a.919.919,0,0,1-.657-1.562q.437-.445.885-.878a.919.919,0,1,1,1.276,1.322q-.429.416-.848.843A.916.916,0,0,1,5239.9,4226.751Zm2.972-2.772a.92.92,0,0,1-.6-1.619q.474-.4.957-.794a.919.919,0,1,1,1.156,1.429q-.464.376-.92.764A.91.91,0,0,1,5242.867,4223.979Zm3.2-2.5a.919.919,0,0,1-.535-1.667q.507-.362,1.022-.709a.919.919,0,1,1,1.028,1.524q-.5.335-.983.681A.91.91,0,0,1,5246.071,4221.479Zm3.4-2.218a.92.92,0,0,1-.471-1.71q.534-.316,1.075-.621a.919.919,0,1,1,.9,1.6c-.348.195-.693.4-1.036.6A.907.907,0,0,1,5249.475,4219.261Zm3.573-1.934a.919.919,0,0,1-.406-1.744q.557-.273,1.12-.533a.919.919,0,0,1,.771,1.668q-.545.253-1.081.515A.915.915,0,0,1,5253.048,4217.327Zm3.713-1.647a.919.919,0,0,1-.341-1.773q.576-.23,1.156-.446a.919.919,0,1,1,.643,1.722c-.374.14-.747.283-1.118.431A.9.9,0,0,1,5256.761,4215.68Zm3.827-1.364a.919.919,0,0,1-.276-1.795q.591-.186,1.186-.36a.919.919,0,0,1,.514,1.765q-.576.168-1.147.348A.911.911,0,0,1,5260.588,4214.316Zm3.916-1.081a.919.919,0,0,1-.213-1.813q.6-.144,1.209-.274a.919.919,0,0,1,.387,1.8c-.391.084-.781.173-1.169.265A.916.916,0,0,1,5264.5,4213.235Zm25.409-.455a.974.974,0,0,1-.182-.018q-.587-.119-1.179-.223a.919.919,0,0,1,.323-1.81c.407.073.812.149,1.218.23a.919.919,0,0,1-.18,1.821Zm-21.426-.347a.919.919,0,0,1-.149-1.826c.408-.067.815-.131,1.224-.189a.919.919,0,1,1,.262,1.819q-.593.086-1.186.184A.931.931,0,0,1,5268.487,4212.433Zm17.416-.311a.962.962,0,0,1-.118-.007q-.6-.077-1.193-.141a.919.919,0,0,1,.2-1.828c.411.044.82.093,1.229.145a.919.919,0,0,1-.115,1.831Zm-13.386-.215a.919.919,0,0,1-.087-1.834q.616-.059,1.234-.105a.919.919,0,1,1,.138,1.833q-.6.045-1.2.1C5272.576,4211.906,5272.546,4211.907,5272.517,4211.907Zm9.339-.166h-.055q-.6-.037-1.2-.06a.92.92,0,0,1-.882-.955.9.9,0,0,1,.955-.882q.618.024,1.236.062a.919.919,0,0,1-.054,1.836Zm-5.283-.084a.919.919,0,0,1-.025-1.838c.413-.011.825-.019,1.238-.022h.007a.919.919,0,0,1,.007,1.838c-.4,0-.8.01-1.2.022Z" fill="#fff"/>
  </g>
</svg>
