<svg xmlns="http://www.w3.org/2000/svg" xmlns:xlink="http://www.w3.org/1999/xlink" width="326.488" height="314.326" viewBox="0 0 326.488 314.326">
  <defs>
    <clipPath id="clip-path">
      <path id="Trazado_5968" data-name="Trazado 5968" d="M3894.283,7060.639h-247.75l-.64,179.925h247.75Z" fill="#373b3b"/>
    </clipPath>
    <clipPath id="clip-path-2">
      <path id="Trazado_5971" data-name="Trazado 5971" d="M3902.056,7043.59H3638.881a6.669,6.669,0,0,0-6.664,6.641l-.714,200.742a6.611,6.611,0,0,0,6.616,6.64h263.175a6.668,6.668,0,0,0,6.664-6.64l.714-200.742A6.612,6.612,0,0,0,3902.056,7043.59Z" fill="none"/>
    </clipPath>
    <clipPath id="clip-path-3">
      <path id="Trazado_5987" data-name="Trazado 5987" d="M3819.479,7127.479h0a24.147,24.147,0,0,0-24.388,0h0c-1.989,4.561,1.113,8.018,4.549,11.812,1.742,1.924,7.515,6.84,7.644,6.949v0l0,0v0c.128-.109,5.9-5.025,7.644-6.949C3818.366,7135.5,3821.469,7132.04,3819.479,7127.479Z" fill="none"/>
    </clipPath>
    <clipPath id="clip-path-4">
      <rect id="Rectángulo_1111" data-name="Rectángulo 1111" width="54.998" height="52.822" transform="translate(3691.204 7028.96)" fill="none"/>
    </clipPath>
  </defs>
  <g id="Grupo_3436" data-name="Grupo 3436" transform="translate(-549.651 -637.054)">
    <g id="Grupo_1094" data-name="Grupo 1094" transform="translate(-3081.852 -6353.108)">
      <ellipse id="Elipse_87" data-name="Elipse 87" cx="135.53" cy="5.75" rx="135.53" ry="5.75" transform="translate(3643.058 7292.989)" fill="#73c7c7" opacity="0.69"/>
      <g id="Grupo_1093" data-name="Grupo 1093">
        <g id="Grupo_1092" data-name="Grupo 1092">
          <path id="Trazado_5952" data-name="Trazado 5952" d="M3812.128,7255.282h-60.923l-4.859,37.631H3817.1Z" fill="#8d8d8d"/>
          <path id="Trazado_5953" data-name="Trazado 5953" d="M3809.578,7255.282h-60.923l-4.859,37.631h70.751Z" fill="#d4d4d4"/>
          <path id="Trazado_5954" data-name="Trazado 5954" d="M3809.578,7255.282h-60.923l-2.134,19.427h65.247Z" fill="#c5c5c5"/>
        </g>
        <path id="Trazado_5955" data-name="Trazado 5955" d="M3738.341,7297.166h0a6.04,6.04,0,0,1,5.811-6.257h89.973a6.061,6.061,0,0,1,5.829,6.257H3738.341Z" fill="#cacaca"/>
        <path id="Trazado_5956" data-name="Trazado 5956" d="M3721.879,7297.166h0a6.039,6.039,0,0,1,5.81-6.257h89.974a6.061,6.061,0,0,1,5.829,6.257H3721.879Z" fill="#f1f1f1"/>
      </g>
    </g>
    <g id="Grupo_1097" data-name="Grupo 1097" transform="translate(-3081.852 -6353.108)">
      <g id="Grupo_1095" data-name="Grupo 1095">
        <path id="Trazado_5957" data-name="Trazado 5957" d="M3957.991,7168.717h0c-11.539,0-20.892-8.827-20.889-19.715l.02-84.072v-13.507c0-12.723-6.546-23.037-14.621-23.037h-2.008c-8.075,0-21.324,10.314-21.324,23.037h-63.707V7132.9H3794.91v35.816Z" fill="#5e7d7f"/>
        <path id="Trazado_5958" data-name="Trazado 5958" d="M3940.271,7168.717h0c-10.285,0-18.622-8.827-18.62-19.715l.019-84.072v-13.507c0-12.723-5.835-23.037-13.033-23.037h-1.79c-7.2,0-19.006,10.314-19.006,23.037h-56.785V7132.9H3794.91v35.816Z" fill="#a2c7bf" opacity="0.31"/>
        <path id="Trazado_5959" data-name="Trazado 5959" d="M3924.046,7028.386h-134.02c-10.871,0-19.683,10.314-19.683,23.037v1.136h-.046v179.775c0,12.722-4.923,23.037-13.868,23.037H3891c8.945,0,16.2-10.315,16.2-23.037V7052.559h-.007v-1.136C3907.193,7038.7,3913.176,7028.386,3924.046,7028.386Z" fill="#ebf4f2"/>
        <path id="Trazado_5960" data-name="Trazado 5960" d="M3908.126,7028.8h-134.02c-10.871,0-19.683,10.314-19.683,23.037v1.136h-.047v179.774c0,12.723-4.922,23.037-13.868,23.037h134.574c8.946,0,16.2-10.314,16.2-23.037V7052.97h-.007v-1.136C3891.273,7039.111,3897.255,7028.8,3908.126,7028.8Z" fill="#dcdcdc" opacity="0.59"/>
      </g>
      <g id="Grupo_1096" data-name="Grupo 1096">
        <path id="Trazado_5961" data-name="Trazado 5961" d="M3883.171,7232.334V7227.7h.032V7013.2c0-12.723-8.156-23.037-18.216-23.037h-2.5c-10.061,0-26.566,10.314-26.566,23.037h-79.368v81.477h-50.521v137.658c0,12.723,11.407,23.036,25.478,23.036H3902.04C3887.968,7255.37,3883.171,7245.057,3883.171,7232.334Z" fill="#6b8183"/>
        <path id="Trazado_5962" data-name="Trazado 5962" d="M3862.694,7232.334V7227.7h.032V7013.2c0-12.723-8.127-23.037-18.153-23.037h-2.493c-10.026,0-26.474,10.314-26.474,23.037h-59.228v81.477h-50.347v137.658c0,12.723,11.368,23.036,25.39,23.036H3881.5C3867.476,7255.37,3862.694,7245.057,3862.694,7232.334Z" fill="#a2c7bf" opacity="0.31"/>
      </g>
    </g>
    <g id="Grupo_1103" data-name="Grupo 1103" transform="translate(-3081.852 -6353.108)">
      <g id="Grupo_1102" data-name="Grupo 1102">
        <g id="Grupo_1098" data-name="Grupo 1098">
          <path id="Trazado_5963" data-name="Trazado 5963" d="M3911.344,7044.145H3642.537a6.746,6.746,0,0,0-6.817,6.623l-1.041,200.222a6.662,6.662,0,0,0,6.747,6.623h268.807a6.746,6.746,0,0,0,6.817-6.623l1.042-200.222A6.662,6.662,0,0,0,3911.344,7044.145Z" fill="#d4d4d4"/>
        </g>
        <path id="Trazado_5964" data-name="Trazado 5964" d="M3902.056,7043.59H3638.881a6.669,6.669,0,0,0-6.664,6.641l-.714,200.742a6.611,6.611,0,0,0,6.616,6.64h263.175a6.668,6.668,0,0,0,6.664-6.64l.714-200.742A6.612,6.612,0,0,0,3902.056,7043.59Z" fill="#292929"/>
        <g id="Grupo_1101" data-name="Grupo 1101">
          <path id="Trazado_5965" data-name="Trazado 5965" d="M3894.283,7060.639h-247.75l-.64,179.925h247.75Z" fill="#373b3b"/>
          <g id="Grupo_1100" data-name="Grupo 1100" clip-path="url(#clip-path)">
            <g id="Grupo_1099" data-name="Grupo 1099" opacity="0.06">
              <path id="Trazado_5966" data-name="Trazado 5966" d="M3710.514,7305.109l-68.652-59.6,167.1-270.816,68.652,59.6Z" fill="#fff"/>
              <path id="Trazado_5967" data-name="Trazado 5967" d="M3736.636,7328.59l-20.9-18.147,167.1-270.816,20.9,18.147Z" fill="#fff"/>
            </g>
          </g>
        </g>
        <path id="Trazado_5969" data-name="Trazado 5969" d="M3772.647,7051.761a2.241,2.241,0,1,1-2.2-2.622A2.452,2.452,0,0,1,3772.647,7051.761Z" fill="#7f7f7f" opacity="0.46"/>
      </g>
    </g>
    <g id="Grupo_1105" data-name="Grupo 1105" transform="translate(-3081.852 -6353.108)">
      <g id="Grupo_1104" data-name="Grupo 1104" clip-path="url(#clip-path-2)">
        <path id="Trazado_5970" data-name="Trazado 5970" d="M3721.548,7015.328c-14.059,0-25.457,9.738-25.457,21.749v181.012l.011,5.1a11.588,11.588,0,0,0,11.588,11.562h3.147l.02.022.021-.022h14.709l.02.022.021-.022h14.709l.02.022.021-.022h14.709l.02.022.021-.022h14.709l.02.022.021-.022h14.708l.021.022.021-.022h14.708l.021.022.021-.022h14.709l.02.022.021-.022h14.709l.02.022.021-.022h14.709l.02.022.021-.022h14.709l.02.022.021-.022h3.121a11.588,11.588,0,0,0,11.588-11.588V7037.077c0-12.011,7.737-21.749,21.8-21.749Z" fill="#292929" opacity="0.85"/>
      </g>
    </g>
    <path id="Trazado_5972" data-name="Trazado 5972" d="M3693.919,6990.162c-14.06,0-25.457,9.737-25.457,21.749v173.011l.007,17.826a8.863,8.863,0,0,0,8.863,8.854l159.265-.02a8.862,8.862,0,0,0,8.861-8.862V7011.911c0-12.012,7.737-21.749,21.8-21.749Z" transform="translate(-3081.852 -6353.108)" fill="#f2f2f2"/>
    <g id="Grupo_1123" data-name="Grupo 1123" transform="translate(-3081.852 -6353.108)">
      <g id="Grupo_1122" data-name="Grupo 1122">
        <g id="Grupo_1115" data-name="Grupo 1115">
          <g id="Grupo_1106" data-name="Grupo 1106">
            <path id="Trazado_5973" data-name="Trazado 5973" d="M3818.239,7037.83h-61.05a2.1,2.1,0,0,1-2.1-2.1h0a2.1,2.1,0,0,1,2.1-2.1h61.05a2.1,2.1,0,0,1,2.1,2.1h0A2.1,2.1,0,0,1,3818.239,7037.83Z" fill="#7c7c7c"/>
            <path id="Trazado_5974" data-name="Trazado 5974" d="M3818.239,7049.327h-61.05a2.1,2.1,0,0,1-2.1-2.1h0a2.1,2.1,0,0,1,2.1-2.1h61.05a2.1,2.1,0,0,1,2.1,2.1h0A2.1,2.1,0,0,1,3818.239,7049.327Z" fill="#7c7c7c"/>
          </g>
          <g id="Grupo_1107" data-name="Grupo 1107">
            <path id="Trazado_5975" data-name="Trazado 5975" d="M3818.239,7069.494h-61.05a2.1,2.1,0,0,1-2.1-2.1h0a2.1,2.1,0,0,1,2.1-2.1h61.05a2.1,2.1,0,0,1,2.1,2.1h0A2.1,2.1,0,0,1,3818.239,7069.494Z" fill="#a8b9c1"/>
            <path id="Trazado_5976" data-name="Trazado 5976" d="M3818.239,7080.992h-61.05a2.1,2.1,0,0,1-2.1-2.1h0a2.1,2.1,0,0,1,2.1-2.1h61.05a2.1,2.1,0,0,1,2.1,2.1h0A2.1,2.1,0,0,1,3818.239,7080.992Z" fill="#a8b9c1"/>
            <path id="Trazado_5977" data-name="Trazado 5977" d="M3818.239,7096.943H3694.227a2.1,2.1,0,0,1-2.1-2.1h0a2.1,2.1,0,0,1,2.1-2.1h124.012a2.1,2.1,0,0,1,2.1,2.1h0A2.1,2.1,0,0,1,3818.239,7096.943Z" fill="#a8b9c1"/>
            <path id="Trazado_5978" data-name="Trazado 5978" d="M3818.239,7107.185H3694.227a2.1,2.1,0,0,1-2.1-2.1h0a2.1,2.1,0,0,1,2.1-2.1h124.012a2.1,2.1,0,0,1,2.1,2.1h0A2.1,2.1,0,0,1,3818.239,7107.185Z" fill="#a8b9c1"/>
          </g>
          <g id="Grupo_1109" data-name="Grupo 1109">
            <path id="Trazado_5979" data-name="Trazado 5979" d="M3761.455,7139.034h-28.929a2.1,2.1,0,0,1-2.1-2.1h0a2.1,2.1,0,0,1,2.1-2.1h28.929a2.1,2.1,0,0,1,2.1,2.1h0A2.1,2.1,0,0,1,3761.455,7139.034Z" fill="#a8b9c1"/>
            <rect id="Rectángulo_1107" data-name="Rectángulo 1107" width="57.903" height="4.194" rx="2.097" transform="translate(3730.428 7123.343)" fill="#a8b9c1"/>
            <g id="Grupo_1108" data-name="Grupo 1108">
              <path id="Trazado_5980" data-name="Trazado 5980" d="M3717.709,7147.1h-24.531v-24.53h24.531Zm-21.583-2.947h18.636v-18.636h-18.636Z" fill="#a8b9c1"/>
              <path id="Trazado_5981" data-name="Trazado 5981" d="M3704.807,7140.415l-6.064-4.9,2.254-2.446,3.478,2.812,6.091-6.61,2.587,2.092Z" fill="#c7d644"/>
            </g>
          </g>
          <g id="Grupo_1111" data-name="Grupo 1111">
            <path id="Trazado_5982" data-name="Trazado 5982" d="M3805.057,7176.459h-72.531a2.1,2.1,0,0,1-2.1-2.1h0a2.1,2.1,0,0,1,2.1-2.1h72.531a2.1,2.1,0,0,1,2.1,2.1h0A2.1,2.1,0,0,1,3805.057,7176.459Z" fill="#a8b9c1"/>
            <rect id="Rectángulo_1108" data-name="Rectángulo 1108" width="89.908" height="4.194" rx="2.097" transform="translate(3730.428 7160.768)" fill="#a8b9c1"/>
            <g id="Grupo_1110" data-name="Grupo 1110">
              <path id="Trazado_5983" data-name="Trazado 5983" d="M3717.709,7184.53h-24.531V7160h24.531Zm-21.583-2.947h18.636v-18.637h-18.636Z" fill="#a8b9c1"/>
              <path id="Trazado_5984" data-name="Trazado 5984" d="M3704.807,7177.839l-6.064-4.9,2.254-2.446,3.478,2.812,6.091-6.61,2.587,2.091Z" fill="#c7d644"/>
            </g>
          </g>
          <g id="Grupo_1114" data-name="Grupo 1114">
            <g id="Grupo_1113" data-name="Grupo 1113" clip-path="url(#clip-path-3)">
              <path id="Trazado_5985" data-name="Trazado 5985" d="M3819.479,7127.479h0a24.147,24.147,0,0,0-24.388,0h0c-1.989,4.561,1.113,8.018,4.549,11.812,1.742,1.924,7.515,6.84,7.644,6.949v0l0,0v0c.128-.109,5.9-5.025,7.644-6.949C3818.366,7135.5,3821.469,7132.04,3819.479,7127.479Z" fill="#da0140"/>
              <g id="Grupo_1112" data-name="Grupo 1112">
                <path id="Trazado_5986" data-name="Trazado 5986" d="M3810.542,7138.936l-1.084-.054-2.2-9.734-1.815,7.4-1.071.072-.842-2.15-.421.952-.515.335h-7.025a.563.563,0,0,1,0-1.126h6.658l.819-1.853,1.04.022.686,1.753,1.961-8,1.1.01,2.282,10.1.546-1.642.535-.385h7.323a.563.563,0,0,1,0,1.126H3811.6Z" fill="#fff"/>
              </g>
            </g>
          </g>
        </g>
        <g id="Grupo_1121" data-name="Grupo 1121">
          <rect id="Rectángulo_1109" data-name="Rectángulo 1109" width="51.914" height="49.859" rx="3.647" transform="translate(3692.094 7031.922)" fill="#daebeb"/>
          <g id="Grupo_1120" data-name="Grupo 1120">
            <g id="Grupo_1119" data-name="Grupo 1119" clip-path="url(#clip-path-4)">
              <g id="Grupo_1118" data-name="Grupo 1118">
                <path id="Trazado_5988" data-name="Trazado 5988" d="M3737.941,7084.746l-4.258.8a83.021,83.021,0,0,1-30.744,0l-4.258-.8,2.8-10.768a6.628,6.628,0,0,1,5.435-4.885l2.059-.307a63.171,63.171,0,0,1,18.666,0l2.06.307a6.628,6.628,0,0,1,5.435,4.885Z" fill="#c02c4d"/>
                <g id="Grupo_1117" data-name="Grupo 1117">
                  <path id="Trazado_5989" data-name="Trazado 5989" d="M3708.561,7073.015s0-8.847,9.754-8.847,9.754,2.722,9.754,2.722l1.815-11.569h-24.5Z" fill="#322513"/>
                  <g id="Grupo_1116" data-name="Grupo 1116">
                    <path id="Trazado_5990" data-name="Trazado 5990" d="M3722.979,7069.145l-.019.018a6.58,6.58,0,0,1-9.309-.018h0l.716-5.846h7.9Z" fill="#efd3a8"/>
                    <path id="Trazado_5991" data-name="Trazado 5991" d="M3722.015,7061.274a11.533,11.533,0,0,1-3.7.59h0a11.538,11.538,0,0,1-3.7-.59l-.606,4.948a21.967,21.967,0,0,0,8.74,1.048Z" fill="#efd3a8" opacity="0.68"/>
                  </g>
                  <path id="Rectángulo_1110" data-name="Rectángulo 1110" d="M4.483,0H15.025a4.483,4.483,0,0,1,4.483,4.483V18.04a6.989,6.989,0,0,1-6.989,6.989H6.988A6.988,6.988,0,0,1,0,18.04V4.483A4.483,4.483,0,0,1,4.483,0Z" transform="translate(3708.561 7040.501)" fill="#efd3a8"/>
                  <path id="Trazado_5992" data-name="Trazado 5992" d="M3711.546,7057.519h0c.78-6.56,2.758-11.83,9.633-14.954l.174-.162-4.408-4.712-10.281,11.064Z" fill="#efd3a8" opacity="0.68"/>
                  <path id="Trazado_5993" data-name="Trazado 5993" d="M3726.232,7057.519a12.271,12.271,0,0,1-3.232,6.814,9.754,9.754,0,0,0,5.069-8.558V7040.5s-2.265,1.519-1.731,7a44.226,44.226,0,0,1,.162,7.911Z" fill="#efd3a8" opacity="0.68"/>
                  <path id="Trazado_5994" data-name="Trazado 5994" d="M3706.878,7074.792l1.683-20.267,2.185,3.72.3-1.077c-1.841-9.488,3.645-14.367,12.914-14.882h0l2.212,5.783a28.636,28.636,0,0,1,1.282,4.355,17.613,17.613,0,0,1-.724,9.587l-2.575,7.134h0a19.735,19.735,0,0,0,8.9-16.494v-3.795a14.745,14.745,0,0,0-14.745-14.744h0a14.745,14.745,0,0,0-14.745,14.744v4.494a70.516,70.516,0,0,0,2.752,19.51l.556,1.932" fill="#3f3019"/>
                </g>
              </g>
            </g>
          </g>
        </g>
      </g>
    </g>
  </g>
</svg>
