<svg xmlns="http://www.w3.org/2000/svg" width="303.542" height="318.825" viewBox="0 0 303.542 318.825">
  <g id="Grupo_3438" data-name="Grupo 3438" transform="translate(-548.113 -7546.986)">
    <g id="Grupo_1406" data-name="Grupo 1406" transform="translate(-3081.852 -6353.108)">
      <g id="Grupo_1372" data-name="Grupo 1372">
        <g id="Grupo_1363" data-name="Grupo 1363">
          <rect id="Rectángulo_1364" data-name="Rectángulo 1364" width="111.839" height="73.431" rx="8.853" transform="translate(3722.601 14029.726)" fill="#363d42"/>
          <path id="Rectángulo_1365" data-name="Rectángulo 1365" d="M3.45,0H61.974a3.45,3.45,0,0,1,3.45,3.45v96.932a3.45,3.45,0,0,1-3.45,3.45H3.449A3.449,3.449,0,0,1,0,100.384V3.45A3.45,3.45,0,0,1,3.45,0Z" transform="translate(3830.437 14033.729) rotate(90)" fill="#a3bd31"/>
          <path id="Trazado_6523" data-name="Trazado 6523" d="M3845.763,14126.859H3711.277c-3.6,0-5.7-1.021-5.683-2.433v-4.121l14.676-14.315c1.311-1.344,5.225-2.391,8.8-2.391h98.909c3.57,0,7.485,1.047,8.8,2.391l14.675,14.275v4.151C3851.475,14125.834,3849.373,14126.859,3845.763,14126.859Z" fill="#363d42"/>
          <path id="Trazado_6524" data-name="Trazado 6524" d="M3845.763,14122.711H3711.277c-4.855,0-6.982-1.854-4.867-4.021l13.86-14.211c1.311-1.344,5.225-2.39,8.8-2.39h98.909c3.57,0,7.485,1.046,8.8,2.39l13.859,14.211C3852.746,14120.857,3850.618,14122.711,3845.763,14122.711Z" fill="#fff"/>
          <path id="Trazado_6525" data-name="Trazado 6525" d="M3718.649,14110.873l6.042-6.672c.643-.71,2.7-1.273,4.614-1.273h98.43c1.912,0,3.971.563,4.614,1.273l6.042,6.672c.816.9-.311,1.65-2.538,1.65H3721.187C3718.96,14112.523,3717.833,14111.774,3718.649,14110.873Z" fill="#e8e3e8"/>
          <path id="Trazado_6526" data-name="Trazado 6526" d="M3754.447,14119.132l1.245-3.847c.323-1,2.409-1.785,4.668-1.785h36.32c2.259,0,4.345.788,4.668,1.785l1.245,3.847c.37,1.143-1.359,2.094-3.872,2.094h-40.4C3755.806,14121.226,3754.078,14120.274,3754.447,14119.132Z" fill="#e8e3e8"/>
        </g>
        <g id="Grupo_1371" data-name="Grupo 1371">
          <g id="Grupo_1369" data-name="Grupo 1369">
            <rect id="Rectángulo_1366" data-name="Rectángulo 1366" width="75.746" height="105.124" rx="6.84" transform="translate(3740.647 13990.528)" fill="#272e38"/>
            <rect id="Rectángulo_1367" data-name="Rectángulo 1367" width="75.746" height="105.124" rx="6.84" transform="translate(3740.647 13988.013)" fill="#3a4049"/>
            <rect id="Rectángulo_1368" data-name="Rectángulo 1368" width="96.892" height="67.514" transform="translate(3812.277 13992.129) rotate(90)" fill="#fff"/>
            <rect id="Rectángulo_1369" data-name="Rectángulo 1369" width="1.249" height="67.514" transform="translate(3812.277 14087.771) rotate(90)" fill="#dfe4e7"/>
            <g id="Grupo_1364" data-name="Grupo 1364">
              <rect id="Rectángulo_1370" data-name="Rectángulo 1370" width="11.673" height="11.673" rx="4.284" transform="translate(3752.478 14047.116)" fill="#c84321"/>
              <path id="Trazado_6527" data-name="Trazado 6527" d="M3766.275,14047.116v1.295h36.732v-1.295Zm0,3.89h36.732v-1.295h-36.732Zm0,2.594h36.732v-1.295h-36.732Zm0,2.6h36.732v-1.295h-36.732Zm0,2.595h30.814v-1.3h-30.814Z" fill="#c4d4f5"/>
              <path id="Trazado_6528" data-name="Trazado 6528" d="M3759.909,14050.026a2.109,2.109,0,0,1-3.189,0,2.113,2.113,0,0,0-2.114,2.113c0,.81,1.778,2.656,2.872,3.717a1.2,1.2,0,0,0,1.673,0c1.094-1.061,2.872-2.907,2.872-3.717A2.113,2.113,0,0,0,3759.909,14050.026Z" fill="#fff"/>
            </g>
            <g id="Grupo_1365" data-name="Grupo 1365">
              <path id="Rectángulo_1371" data-name="Rectángulo 1371" d="M4.283,0H7.39a4.284,4.284,0,0,1,4.284,4.284V7.39A4.283,4.283,0,0,1,7.39,11.673H4.284A4.284,4.284,0,0,1,0,7.39V4.283A4.283,4.283,0,0,1,4.283,0Z" transform="translate(3752.478 14029.801)" fill="#83cf48"/>
              <path id="Trazado_6529" data-name="Trazado 6529" d="M3766.275,14029.8v1.295h36.732v-1.295Zm0,3.891h36.732v-1.295h-36.732Zm0,2.594h36.732v-1.295h-36.732Zm0,2.595h36.732v-1.295h-36.732Zm0,2.594h30.814v-1.295h-30.814Z" fill="#c4d4f5"/>
              <path id="Trazado_6530" data-name="Trazado 6530" d="M3762.543,14034.183h-2.774v-2.773h-2.911v2.773h-2.774v2.91h2.774v2.773h2.911v-2.773h2.774Z" fill="#fff"/>
            </g>
            <g id="Grupo_1366" data-name="Grupo 1366">
              <path id="Rectángulo_1372" data-name="Rectángulo 1372" d="M4.283,0H7.39a4.283,4.283,0,0,1,4.283,4.283V7.39A4.283,4.283,0,0,1,7.39,11.673H4.284A4.284,4.284,0,0,1,0,7.39V4.283A4.283,4.283,0,0,1,4.283,0Z" transform="translate(3752.478 14064.419)" fill="#e7ad47"/>
              <path id="Trazado_6531" data-name="Trazado 6531" d="M3766.275,14064.419v1.295h36.732v-1.295Zm0,3.89h36.732v-1.3h-36.732Zm0,2.595h36.732v-1.295h-36.732Zm0,2.595h36.732v-1.295h-36.732Zm0,2.594h30.814v-1.295h-30.814Z" fill="#c4d4f5"/>
              <path id="Trazado_6532" data-name="Trazado 6532" d="M3762.459,14069.564h-1.072l-1.163-1.737h0l0,0a.593.593,0,0,0-.093-.094.619.619,0,0,0-.073-.072h0a.585.585,0,0,0-.219-.09,6.454,6.454,0,0,0-.232,0,.59.59,0,0,0-.218.09h0a.519.519,0,0,0-.081.081.576.576,0,0,0-.086.085l0,0h0l-2.3,3.438-.843-1.259a.606.606,0,0,0-.5-.269h-1.4a.6.6,0,1,0,0,1.21h1.072l1.166,1.742a.6.6,0,0,0,1.005,0l2.3-3.443.843,1.26a.607.607,0,0,0,.5.269h1.4a.6.6,0,1,0,0-1.21Z" fill="#fff"/>
            </g>
            <g id="Grupo_1368" data-name="Grupo 1368">
              <path id="Trazado_6533" data-name="Trazado 6533" d="M3761.131,14015.053c1.974,0,3.575-2.82,3.575-4.8a3.576,3.576,0,1,0-7.151,0C3757.555,14012.232,3759.156,14015.053,3761.131,14015.053Zm0,1.629a7.7,7.7,0,0,0-4.429,1.395,1.44,1.44,0,0,0,.307,2.535,12.27,12.27,0,0,0,8.243,0,1.44,1.44,0,0,0,.307-2.535A7.7,7.7,0,0,0,3761.131,14016.682Z" fill="#8aa6c2"/>
              <g id="Grupo_1367" data-name="Grupo 1367">
                <path id="Trazado_6534" data-name="Trazado 6534" d="M3799.132,14012.933h-26.443a1.832,1.832,0,0,1,0-3.663h26.443a1.832,1.832,0,1,1,0,3.663Z" fill="#8aa6c2"/>
                <path id="Trazado_6535" data-name="Trazado 6535" d="M3790.993,14018.735h-18.3a1.832,1.832,0,0,1,0-3.663h18.3a1.832,1.832,0,0,1,0,3.663Z" fill="#8aa6c2"/>
              </g>
            </g>
          </g>
          <g id="Grupo_1370" data-name="Grupo 1370">
            <path id="Trazado_6536" data-name="Trazado 6536" d="M3794.842,13984.021h-8.44c0-.062,0-.122,0-.184a7.886,7.886,0,0,0-15.772,0c0,.062,0,.122,0,.184H3762.2a2.659,2.659,0,0,0-2.659,2.658v8.8a2.658,2.658,0,0,0,2.659,2.658h32.644a2.659,2.659,0,0,0,2.66-2.658v-8.8A2.659,2.659,0,0,0,3794.842,13984.021Zm-16.322,3.251a3.435,3.435,0,1,1,3.435-3.435A3.434,3.434,0,0,1,3778.52,13987.272Z" fill="#b2bad7" fill-rule="evenodd"/>
            <path id="Trazado_6537" data-name="Trazado 6537" d="M3794.842,13984.021h-8.44c0-.062,0-.122,0-.184a7.886,7.886,0,0,0-15.772,0c0,.062,0,.122,0,.184H3762.2a2.659,2.659,0,0,0-2.659,2.658v.755a2.659,2.659,0,0,1,2.659-2.659h8.441c0-.062,0-.121,0-.184a7.886,7.886,0,0,1,15.772,0c0,.063,0,.122,0,.184h8.44a2.659,2.659,0,0,1,2.66,2.659v-.755A2.659,2.659,0,0,0,3794.842,13984.021Zm-16.322,3.251a3.435,3.435,0,0,1-3.413-3.058,3.619,3.619,0,0,0-.021.377,3.435,3.435,0,1,0,6.869,0,3.368,3.368,0,0,0-.022-.377A3.434,3.434,0,0,1,3778.52,13987.272Z" fill="#cfd4e6" fill-rule="evenodd"/>
            <path id="Trazado_6538" data-name="Trazado 6538" d="M3759.539,13994.022v1.461a2.658,2.658,0,0,0,2.659,2.658h32.644a2.659,2.659,0,0,0,2.66-2.658v-1.461Z" fill="#939fc5" fill-rule="evenodd"/>
          </g>
        </g>
      </g>
      <g id="Grupo_1397" data-name="Grupo 1397">
        <g id="Grupo_1375" data-name="Grupo 1375">
          <g id="Grupo_1374" data-name="Grupo 1374">
            <g id="Grupo_1373" data-name="Grupo 1373">
              <path id="Trazado_6539" data-name="Trazado 6539" d="M3905.294,14029.143c-.1-.361-.2-.725-.3-1.086" fill="none" stroke="#b8b8b8" stroke-linecap="round" stroke-linejoin="round" stroke-width="3"/>
              <path id="Trazado_6540" data-name="Trazado 6540" d="M3903.271,14022.478a130.658,130.658,0,0,0-8.483-19.838" fill="none" stroke="#b8b8b8" stroke-linecap="round" stroke-linejoin="round" stroke-width="3" stroke-dasharray="4.139 10.346"/>
              <path id="Trazado_6541" data-name="Trazado 6541" d="M3893.394,14000.074q-.276-.494-.554-.983" fill="none" stroke="#b8b8b8" stroke-linecap="round" stroke-linejoin="round" stroke-width="3"/>
            </g>
          </g>
        </g>
        <g id="Grupo_1378" data-name="Grupo 1378">
          <g id="Grupo_1377" data-name="Grupo 1377">
            <g id="Grupo_1376" data-name="Grupo 1376">
              <path id="Trazado_6542" data-name="Trazado 6542" d="M3892.84,14129q.279-.491.554-.983" fill="none" stroke="#b8b8b8" stroke-linecap="round" stroke-linejoin="round" stroke-width="3"/>
              <path id="Trazado_6543" data-name="Trazado 6543" d="M3896.124,14122.858a130.59,130.59,0,0,0,8.037-20.022" fill="none" stroke="#b8b8b8" stroke-linecap="round" stroke-linejoin="round" stroke-width="3" stroke-dasharray="4.139 10.346"/>
              <path id="Trazado_6544" data-name="Trazado 6544" d="M3904.991,14100.035c.1-.362.2-.725.3-1.087" fill="none" stroke="#b8b8b8" stroke-linecap="round" stroke-linejoin="round" stroke-width="3"/>
            </g>
          </g>
        </g>
        <g id="Grupo_1381" data-name="Grupo 1381">
          <g id="Grupo_1380" data-name="Grupo 1380">
            <g id="Grupo_1379" data-name="Grupo 1379">
              <path id="Trazado_6545" data-name="Trazado 6545" d="M3813.422,14190.82c.363-.1.726-.2,1.087-.3" fill="none" stroke="#b8b8b8" stroke-linecap="round" stroke-linejoin="round" stroke-width="3"/>
              <path id="Trazado_6546" data-name="Trazado 6546" d="M3820.088,14188.8a130.617,130.617,0,0,0,19.842-8.484" fill="none" stroke="#b8b8b8" stroke-linecap="round" stroke-linejoin="round" stroke-width="3" stroke-dasharray="4.139 10.348"/>
              <path id="Trazado_6547" data-name="Trazado 6547" d="M3842.5,14178.917q.493-.275.983-.554" fill="none" stroke="#b8b8b8" stroke-linecap="round" stroke-linejoin="round" stroke-width="3"/>
            </g>
          </g>
        </g>
        <g id="Grupo_1384" data-name="Grupo 1384">
          <g id="Grupo_1383" data-name="Grupo 1383">
            <g id="Grupo_1382" data-name="Grupo 1382">
              <path id="Trazado_6548" data-name="Trazado 6548" d="M3713.561,14178.363q.49.278.983.554" fill="none" stroke="#b8b8b8" stroke-linecap="round" stroke-linejoin="round" stroke-width="3"/>
              <path id="Trazado_6549" data-name="Trazado 6549" d="M3719.7,14181.647a130.643,130.643,0,0,0,20.026,8.038" fill="none" stroke="#b8b8b8" stroke-linecap="round" stroke-linejoin="round" stroke-width="3" stroke-dasharray="4.139 10.348"/>
              <path id="Trazado_6550" data-name="Trazado 6550" d="M3742.531,14190.516c.362.1.724.2,1.087.3" fill="none" stroke="#b8b8b8" stroke-linecap="round" stroke-linejoin="round" stroke-width="3"/>
            </g>
          </g>
        </g>
        <g id="Grupo_1387" data-name="Grupo 1387">
          <g id="Grupo_1386" data-name="Grupo 1386">
            <g id="Grupo_1385" data-name="Grupo 1385">
              <path id="Trazado_6551" data-name="Trazado 6551" d="M3651.746,14098.948q.15.543.3,1.086" fill="none" stroke="#b8b8b8" stroke-linecap="round" stroke-linejoin="round" stroke-width="3"/>
              <path id="Trazado_6552" data-name="Trazado 6552" d="M3653.77,14105.613a130.654,130.654,0,0,0,8.482,19.838" fill="none" stroke="#b8b8b8" stroke-linecap="round" stroke-linejoin="round" stroke-width="3" stroke-dasharray="4.139 10.346"/>
              <path id="Trazado_6553" data-name="Trazado 6553" d="M3663.647,14128.017q.275.494.554.983" fill="none" stroke="#b8b8b8" stroke-linecap="round" stroke-linejoin="round" stroke-width="3"/>
            </g>
          </g>
        </g>
        <g id="Grupo_1390" data-name="Grupo 1390">
          <g id="Grupo_1389" data-name="Grupo 1389">
            <g id="Grupo_1388" data-name="Grupo 1388">
              <path id="Trazado_6554" data-name="Trazado 6554" d="M3664.2,13999.091q-.279.491-.554.983" fill="none" stroke="#b8b8b8" stroke-linecap="round" stroke-linejoin="round" stroke-width="3"/>
              <path id="Trazado_6555" data-name="Trazado 6555" d="M3660.917,14005.233a130.679,130.679,0,0,0-8.038,20.022" fill="none" stroke="#b8b8b8" stroke-linecap="round" stroke-linejoin="round" stroke-width="3" stroke-dasharray="4.139 10.346"/>
              <path id="Trazado_6556" data-name="Trazado 6556" d="M3652.05,14028.057c-.1.361-.2.725-.3,1.086" fill="none" stroke="#b8b8b8" stroke-linecap="round" stroke-linejoin="round" stroke-width="3"/>
            </g>
          </g>
        </g>
        <g id="Grupo_1393" data-name="Grupo 1393">
          <g id="Grupo_1392" data-name="Grupo 1392">
            <g id="Grupo_1391" data-name="Grupo 1391">
              <path id="Trazado_6557" data-name="Trazado 6557" d="M3743.618,13937.272q-.545.148-1.087.3" fill="none" stroke="#b8b8b8" stroke-linecap="round" stroke-linejoin="round" stroke-width="3"/>
              <path id="Trazado_6558" data-name="Trazado 6558" d="M3736.952,13939.295a130.52,130.52,0,0,0-19.841,8.485" fill="none" stroke="#b8b8b8" stroke-linecap="round" stroke-linejoin="round" stroke-width="3" stroke-dasharray="4.139 10.348"/>
              <path id="Trazado_6559" data-name="Trazado 6559" d="M3714.544,13949.175q-.492.275-.983.554" fill="none" stroke="#b8b8b8" stroke-linecap="round" stroke-linejoin="round" stroke-width="3"/>
            </g>
          </g>
        </g>
        <g id="Grupo_1396" data-name="Grupo 1396">
          <g id="Grupo_1395" data-name="Grupo 1395">
            <g id="Grupo_1394" data-name="Grupo 1394">
              <path id="Trazado_6560" data-name="Trazado 6560" d="M3843.479,13949.729q-.49-.278-.983-.554" fill="none" stroke="#b8b8b8" stroke-linecap="round" stroke-linejoin="round" stroke-width="3"/>
              <path id="Trazado_6561" data-name="Trazado 6561" d="M3837.336,13946.444a130.537,130.537,0,0,0-20.025-8.039" fill="none" stroke="#b8b8b8" stroke-linecap="round" stroke-linejoin="round" stroke-width="3" stroke-dasharray="4.139 10.348"/>
              <path id="Trazado_6562" data-name="Trazado 6562" d="M3814.509,13937.575q-.542-.155-1.087-.3" fill="none" stroke="#b8b8b8" stroke-linecap="round" stroke-linejoin="round" stroke-width="3"/>
            </g>
          </g>
        </g>
      </g>
      <g id="Grupo_1398" data-name="Grupo 1398">
        <path id="Trazado_6563" data-name="Trazado 6563" d="M3791.069,14172.106a15.283,15.283,0,0,1-25.087,0,15.327,15.327,0,0,0-15.326,15.324,10.349,10.349,0,0,0,1.151,4.1l5.958,9.039c7.191,8.98,17.672,18.352,20.755,18.352s13.563-9.374,20.753-18.352l5.961-9.039a10.342,10.342,0,0,0,1.15-4.1A15.317,15.317,0,0,0,3791.069,14172.106Z" fill="#c84321" fill-rule="evenodd"/>
        <path id="Trazado_6564" data-name="Trazado 6564" d="M3802.162,14192.705h-13.847c-.058,0-.112.014-.169.017a2.826,2.826,0,0,0-.34.035,2.533,2.533,0,0,0-.25.065,2.654,2.654,0,0,0-.268.084,2.734,2.734,0,0,0-.249.119c-.078.041-.157.078-.232.126s-.146.105-.218.162a2.7,2.7,0,0,0-.21.173,2.573,2.573,0,0,0-.184.205c-.058.066-.117.132-.17.205a2.671,2.671,0,0,0-.159.27c-.032.058-.072.108-.1.168l-2.348,5.08-2.349-5.081-4.9-10.591a2.808,2.808,0,0,0-5.1,0l-4.145,8.963h-12.05a2.808,2.808,0,1,0,0,5.615h13.851a2.771,2.771,0,0,0,.7-.1c.057-.015.112-.034.17-.052a2.721,2.721,0,0,0,.537-.24c.037-.021.075-.038.111-.061a2.762,2.762,0,0,0,.529-.447c.039-.042.072-.087.108-.131a2.779,2.779,0,0,0,.344-.525c.013-.026.035-.046.048-.073l2.349-5.081,2.349,5.08,4.9,10.592a2.809,2.809,0,0,0,5.1,0l4.143-8.962h12.052a2.808,2.808,0,0,0,0-5.615Z" fill="#fff"/>
      </g>
      <g id="Grupo_1399" data-name="Grupo 1399">
        <path id="Trazado_6565" data-name="Trazado 6565" d="M3930.709,14041.874h-41.444a2.825,2.825,0,0,0-2.8,2.859v49.852a2.823,2.823,0,0,0,2.8,2.856h41.444a2.823,2.823,0,0,0,2.8-2.856v-49.852A2.825,2.825,0,0,0,3930.709,14041.874Z" fill="#a3bd31" fill-rule="evenodd"/>
        <rect id="Rectángulo_1373" data-name="Rectángulo 1373" width="38.218" height="46.231" transform="translate(3890.878 14046.286)" fill="#fff"/>
        <path id="Trazado_6566" data-name="Trazado 6566" d="M3919.176,14092.516v-9.92h9.92Z" fill="#9ba0aa" fill-rule="evenodd"/>
        <path id="Trazado_6567" data-name="Trazado 6567" d="M3929.1,14082.6v9.92h-9.92Z" fill="#b8bdc9" fill-rule="evenodd"/>
        <rect id="Rectángulo_1374" data-name="Rectángulo 1374" width="20.849" height="8.407" rx="2.206" transform="translate(3899.562 14040.423)" fill="#ced4e3"/>
        <path id="Trazado_6568" data-name="Trazado 6568" d="M3915.811,14040.423a5.824,5.824,0,1,1-5.824-5.824A5.825,5.825,0,0,1,3915.811,14040.423Z" fill="#ced4e3" fill-rule="evenodd"/>
        <path id="Trazado_6569" data-name="Trazado 6569" d="M3909.987,14042.78a2.357,2.357,0,1,1,2.357-2.357A2.36,2.36,0,0,1,3909.987,14042.78Z" fill="#579ae9" fill-rule="evenodd"/>
        <path id="Trazado_6570" data-name="Trazado 6570" d="M3899.562,14044.627v2a2.212,2.212,0,0,0,2.206,2.206h16.438a2.211,2.211,0,0,0,2.2-2.206v-2Z" fill="#b8bdc9" fill-rule="evenodd"/>
        <rect id="Rectángulo_1375" data-name="Rectángulo 1375" width="22.058" height="1.765" transform="translate(3904.391 14054.886)" fill="#9ba0aa"/>
        <rect id="Rectángulo_1376" data-name="Rectángulo 1376" width="22.058" height="1.765" transform="translate(3904.391 14063.677)" fill="#9ba0aa"/>
        <rect id="Rectángulo_1377" data-name="Rectángulo 1377" width="11.42" height="1.765" transform="translate(3904.391 14072.467)" fill="#9ba0aa"/>
        <path id="Trazado_6571" data-name="Trazado 6571" d="M3897.433,14058.383a1.031,1.031,0,0,1-.732-.3l-2.356-2.357a1.035,1.035,0,0,1,1.463-1.463l1.625,1.625,2.429-2.429a1.034,1.034,0,0,1,1.463,1.463l-3.161,3.161A1.031,1.031,0,0,1,3897.433,14058.383Z" fill="#66ab65"/>
        <path id="Trazado_6572" data-name="Trazado 6572" d="M3897.433,14067.174a1.031,1.031,0,0,1-.732-.3l-2.356-2.357a1.034,1.034,0,0,1,1.463-1.462l1.625,1.625,2.429-2.429a1.034,1.034,0,0,1,1.463,1.462l-3.161,3.161A1.031,1.031,0,0,1,3897.433,14067.174Z" fill="#66ab65"/>
        <path id="Trazado_6573" data-name="Trazado 6573" d="M3897.433,14075.964a1.031,1.031,0,0,1-.732-.3l-2.356-2.356a1.035,1.035,0,0,1,1.463-1.463l1.625,1.625,2.429-2.429a1.034,1.034,0,0,1,1.463,1.463l-3.161,3.16A1.031,1.031,0,0,1,3897.433,14075.964Z" fill="#66ab65"/>
      </g>
      <rect id="Rectángulo_1378" data-name="Rectángulo 1378" width="10.733" height="6.707" transform="translate(3641.687 14039.96)" fill="#d9e4fc"/>
      <path id="Trazado_6574" data-name="Trazado 6574" d="M3660.213,14050.246a13.371,13.371,0,0,0-9.487-3.93h-7.346a13.416,13.416,0,0,0-13.415,13.416v25.365a6.708,6.708,0,0,0,6.707,6.706h20.762a6.709,6.709,0,0,0,6.708-6.706v-25.365A13.374,13.374,0,0,0,3660.213,14050.246Z" fill="#def4fb"/>
      <rect id="Rectángulo_1379" data-name="Rectángulo 1379" width="16.098" height="4.024" rx="1.342" transform="translate(3639.004 14036.287)" fill="#fff"/>
      <path id="Trazado_6575" data-name="Trazado 6575" d="M3637.663,14060.846v21.465h18.781v-21.465Zm14.757,12.625h-10.733a1.342,1.342,0,0,1,0-2.684h10.733a1.342,1.342,0,0,1,0,2.684Zm0-5.365h-10.733a1.342,1.342,0,0,1,0-2.685h10.733a1.342,1.342,0,0,1,0,2.685Z" fill="#a5bbf0"/>
      <path id="Trazado_6576" data-name="Trazado 6576" d="M3876.542,14003.126a14.332,14.332,0,0,1-14.316-14.314v-15.668a2.946,2.946,0,0,1,5.892,0v15.668a8.422,8.422,0,1,0,16.845,0v-7.419a2.946,2.946,0,0,1,5.892,0v7.419A14.33,14.33,0,0,1,3876.542,14003.126Z" fill="#bcbfc3"/>
      <path id="Trazado_6577" data-name="Trazado 6577" d="M3865.17,13974.417c-10.61,0-18.366-15.291-18.366-23.25,0-5.983,4.1-7.2,8.072-8.372.975-.289,1.984-.587,3.059-.969a2.356,2.356,0,1,1,1.581,4.439c-1.2.427-2.315.758-3.3,1.05-4.106,1.215-4.7,1.542-4.7,3.852,0,5.946,6.46,18.536,13.653,18.536s13.655-12.59,13.655-18.536c0-2.309-.589-2.635-4.692-3.851-.988-.292-2.108-.623-3.305-1.051a2.356,2.356,0,0,1,1.581-4.439c1.076.384,2.085.683,3.063.971,3.965,1.174,8.066,2.39,8.066,8.37C3883.538,13959.126,3875.781,13974.417,3865.17,13974.417Z" fill="#d9e4fc"/>
      <g id="Grupo_1400" data-name="Grupo 1400">
        <path id="Trazado_6578" data-name="Trazado 6578" d="M3860.7,13948.529a2.357,2.357,0,0,1-2.285-1.792l-1.179-4.771a2.357,2.357,0,0,1,4.576-1.13l1.178,4.771a2.359,2.359,0,0,1-2.29,2.922Z" fill="#fff"/>
        <path id="Trazado_6579" data-name="Trazado 6579" d="M3869.642,13948.529a2.358,2.358,0,0,1-2.29-2.922l1.178-4.771a2.356,2.356,0,1,1,4.575,1.13l-1.178,4.771A2.357,2.357,0,0,1,3869.642,13948.529Z" fill="#fff"/>
      </g>
      <path id="Trazado_6580" data-name="Trazado 6580" d="M3896.159,13976.567a8.249,8.249,0,1,1-8.25-8.248A8.25,8.25,0,0,1,3896.159,13976.567Z" fill="#d9e4fc"/>
      <path id="Trazado_6581" data-name="Trazado 6581" d="M3891.445,13976.567a3.535,3.535,0,1,1-3.535-3.535A3.535,3.535,0,0,1,3891.445,13976.567Z" fill="#fff"/>
      <g id="Grupo_1401" data-name="Grupo 1401">
        <path id="Trazado_6582" data-name="Trazado 6582" d="M3677.072,13949.77a24.68,24.68,0,0,0,16.974,0v7.583h4.714v-9.938a2.358,2.358,0,0,0-2.357-2.357h-21.687a2.358,2.358,0,0,0-2.357,2.357v9.938h4.713Z" fill="#fff"/>
        <path id="Trazado_6583" data-name="Trazado 6583" d="M3709.127,13958.949h-7.807a2.358,2.358,0,0,0-2.357-2.357h-4.714a2.358,2.358,0,0,0-2.356,2.357h-12.668a2.358,2.358,0,0,0-2.356-2.357h-4.714a2.358,2.358,0,0,0-2.357,2.357h-7.806a5.908,5.908,0,0,0-5.892,5.892v26.38a5.91,5.91,0,0,0,5.892,5.893h47.135a5.911,5.911,0,0,0,5.892-5.893v-26.38A5.909,5.909,0,0,0,3709.127,13958.949Z" fill="#c84321" fill-rule="evenodd"/>
        <path id="Trazado_6584" data-name="Trazado 6584" d="M3689.487,13974.1v-7.855h-7.855v7.855h-7.856v7.857h7.856v7.854h7.855v-7.854h7.856v-7.857Z" fill="#fff"/>
        <path id="Trazado_6585" data-name="Trazado 6585" d="M3715.019,13968.338v-3.5a5.91,5.91,0,0,0-5.892-5.892h-4.7A12.573,12.573,0,0,0,3715.019,13968.338Z" fill="#d9e4fc"/>
        <path id="Trazado_6586" data-name="Trazado 6586" d="M3704.5,13997.113h4.624a5.91,5.91,0,0,0,5.892-5.893v-3.206A12.575,12.575,0,0,0,3704.5,13997.113Z" fill="#d9e4fc"/>
        <path id="Trazado_6587" data-name="Trazado 6587" d="M3666.7,13958.949h-4.7a5.909,5.909,0,0,0-5.892,5.892v3.5A12.575,12.575,0,0,0,3666.7,13958.949Z" fill="#d9e4fc"/>
        <path id="Trazado_6588" data-name="Trazado 6588" d="M3656.1,13988.015v3.206a5.909,5.909,0,0,0,5.892,5.893h4.624A12.574,12.574,0,0,0,3656.1,13988.015Z" fill="#d9e4fc"/>
      </g>
      <g id="Grupo_1402" data-name="Grupo 1402">
        <path id="Trazado_6589" data-name="Trazado 6589" d="M3669.05,14181.616a6.536,6.536,0,0,1-6.529-6.528v-38.157h13.058v38.157A6.536,6.536,0,0,1,3669.05,14181.616Z" fill="#fff"/>
        <path id="Trazado_6590" data-name="Trazado 6590" d="M3674.45,14133.525h-10.8a2.264,2.264,0,1,0,0,4.528h0v0h10.8v0a2.264,2.264,0,1,0,0-4.528Z" fill="#fff"/>
        <path id="Trazado_6591" data-name="Trazado 6591" d="M3669.05,14178.783a3.7,3.7,0,0,1-3.694-3.7v-37.029h7.389v37.029A3.7,3.7,0,0,1,3669.05,14178.783Z" fill="#c4d4f5"/>
        <path id="Trazado_6592" data-name="Trazado 6592" d="M3669.05,14178.783a3.7,3.7,0,0,1-3.694-3.7V14151.7h7.389v23.385A3.7,3.7,0,0,1,3669.05,14178.783Z" fill="#83cf48"/>
        <path id="Trazado_6593" data-name="Trazado 6593" d="M3685.56,14181.616a6.536,6.536,0,0,1-6.529-6.528v-38.157h13.057v38.157A6.535,6.535,0,0,1,3685.56,14181.616Z" fill="#fff"/>
        <path id="Trazado_6594" data-name="Trazado 6594" d="M3690.96,14133.525h-10.8a2.264,2.264,0,1,0,0,4.528h0v0h10.8v0a2.264,2.264,0,1,0,0-4.528Z" fill="#fff"/>
        <path id="Trazado_6595" data-name="Trazado 6595" d="M3685.56,14178.783a3.7,3.7,0,0,1-3.7-3.7v-37.029h7.389v37.029A3.7,3.7,0,0,1,3685.56,14178.783Z" fill="#c4d4f5"/>
        <path id="Trazado_6596" data-name="Trazado 6596" d="M3685.56,14178.783a3.7,3.7,0,0,1-3.7-3.7v-26.8h7.389v26.8A3.7,3.7,0,0,1,3685.56,14178.783Z" fill="#e7ad47"/>
        <path id="Trazado_6597" data-name="Trazado 6597" d="M3702.069,14181.616a6.535,6.535,0,0,1-6.528-6.528v-38.157H3708.6v38.157A6.535,6.535,0,0,1,3702.069,14181.616Z" fill="#fff"/>
        <path id="Trazado_6598" data-name="Trazado 6598" d="M3707.469,14133.525h-10.8a2.264,2.264,0,1,0,0,4.528h0v0h10.8v0a2.264,2.264,0,1,0,0-4.528Z" fill="#fff"/>
        <path id="Trazado_6599" data-name="Trazado 6599" d="M3702.069,14178.783a3.7,3.7,0,0,1-3.694-3.7v-37.029h7.389v37.029A3.7,3.7,0,0,1,3702.069,14178.783Z" fill="#c4d4f5"/>
        <path id="Trazado_6600" data-name="Trazado 6600" d="M3702.069,14178.783a3.7,3.7,0,0,1-3.694-3.7v-16.562h7.389v16.563A3.7,3.7,0,0,1,3702.069,14178.783Z" fill="#c84321" fill-rule="evenodd"/>
      </g>
      <g id="Grupo_1403" data-name="Grupo 1403">
        <path id="Trazado_6601" data-name="Trazado 6601" d="M3893.674,14159.665v-22.149h-15.9v22.149l-15.437,17.081a4.005,4.005,0,0,0-.871,3.8l.645,1.454a4,4,0,0,0,3.661,2.379h39.9a4.008,4.008,0,0,0,3.66-2.38l.645-1.454a4,4,0,0,0-.871-3.8Z" fill="#fff"/>
        <path id="Trazado_6602" data-name="Trazado 6602" d="M3865.774,14180.378l-.435-.979,16.442-18.192v-19.687h7.888v19.687l16.442,18.192-.435.979Z" fill="#d9e4fc"/>
        <path id="Trazado_6603" data-name="Trazado 6603" d="M3893.674,14132.45h-15.9a2.939,2.939,0,0,0,0,5.879h0v0h15.9v0a2.939,2.939,0,0,0,0-5.879Z" fill="#d9e4fc"/>
        <path id="Trazado_6604" data-name="Trazado 6604" d="M3865.339,14179.4l.435.979h39.9l.435-.979-9.453-10.459h-21.867Z" fill="#688a8d"/>
        <path id="Trazado_6605" data-name="Trazado 6605" d="M3879.817,14172.681a2.221,2.221,0,1,1-2.221-2.221A2.221,2.221,0,0,1,3879.817,14172.681Z" fill="#dee0eb"/>
        <path id="Trazado_6606" data-name="Trazado 6606" d="M3892.366,14172.681a2.221,2.221,0,1,1-2.221-2.221A2.221,2.221,0,0,1,3892.366,14172.681Z" fill="#dee0eb"/>
        <path id="Trazado_6607" data-name="Trazado 6607" d="M3883.06,14176.714a1.555,1.555,0,1,1-1.555-1.555A1.554,1.554,0,0,1,3883.06,14176.714Z" fill="#dee0eb"/>
        <path id="Trazado_6608" data-name="Trazado 6608" d="M3896.613,14172.546a1.555,1.555,0,1,1-1.554-1.555A1.555,1.555,0,0,1,3896.613,14172.546Z" fill="#dee0eb"/>
      </g>
      <g id="Grupo_1404" data-name="Grupo 1404">
        <rect id="Rectángulo_1380" data-name="Rectángulo 1380" width="22.677" height="33.559" rx="3.245" transform="translate(3849.581 14150.825)" fill="#d9e4fc"/>
        <rect id="Rectángulo_1381" data-name="Rectángulo 1381" width="9.762" height="2.278" transform="translate(3856.038 14148.547)" fill="#d9e4fc"/>
        <rect id="Rectángulo_1382" data-name="Rectángulo 1382" width="16.187" height="27.07" transform="translate(3852.825 14154.069)" fill="#688a8d"/>
        <path id="Trazado_6609" data-name="Trazado 6609" d="M3869.42,14145.982a3.181,3.181,0,0,1-3.245,3.092h-10.512a3.1,3.1,0,1,1,0-6.186h10.512A3.181,3.181,0,0,1,3869.42,14145.982Z" fill="#fff"/>
        <path id="Trazado_6610" data-name="Trazado 6610" d="M3859.476,14164.266a2.815,2.815,0,1,1-2.815-2.814A2.815,2.815,0,0,1,3859.476,14164.266Z" fill="#fff"/>
        <path id="Trazado_6611" data-name="Trazado 6611" d="M3864.641,14169.524a2.815,2.815,0,1,1-2.815-2.815A2.814,2.814,0,0,1,3864.641,14169.524Z" fill="#fff"/>
        <path id="Trazado_6612" data-name="Trazado 6612" d="M3867.2,14161.661a2.815,2.815,0,1,1-2.815-2.815A2.814,2.814,0,0,1,3867.2,14161.661Z" fill="#fff"/>
        <path id="Trazado_6613" data-name="Trazado 6613" d="M3860.128,14175.154a2.815,2.815,0,1,1-2.815-2.815A2.814,2.814,0,0,1,3860.128,14175.154Z" fill="#fff"/>
        <path id="Trazado_6614" data-name="Trazado 6614" d="M3867.8,14177.388a2.815,2.815,0,1,1-2.815-2.815A2.815,2.815,0,0,1,3867.8,14177.388Z" fill="#fff"/>
      </g>
      <path id="Trazado_6615" data-name="Trazado 6615" d="M3778.52,13962.3c-7.1,0-23.929-.406-23.929-7.541,0-4.356.4-10.048,2.1-14.083,4.855-5.533,19.054-7.5,21.826-11.7,2.775,4.2,16.993,6.188,21.826,11.7a32.65,32.65,0,0,1,1.976,9.915c.283,4.383.543,6.258-2.327,8.176C3796.485,13961.107,3789.259,13962.3,3778.52,13962.3Z" fill="#f0f3ff"/>
      <path id="Trazado_6616" data-name="Trazado 6616" d="M3773.263,13937.435l5.257,17.049,5.257-17.049A12.617,12.617,0,0,1,3773.263,13937.435Z" fill="#6b76a1"/>
      <path id="Trazado_6617" data-name="Trazado 6617" d="M3800.288,13940.529c1.756,4.3,2.162,9.6,2.162,14.226,0,3.853-4.811,5.436-8.568,6.288C3794.86,13952.706,3793.256,13940.877,3800.288,13940.529Z" fill="#bcbfc3"/>
      <g id="Grupo_1405" data-name="Grupo 1405">
        <path id="Trazado_6618" data-name="Trazado 6618" d="M3771.624,13931.737a28.519,28.519,0,0,0-7.205,7.368,10.592,10.592,0,0,1,4.506,2.619c-1.662,1.367-2.308,3.475-3.183,5.279,5.067,1.8,9.088,5.376,12.778,9.509C3777.384,13947.355,3772.884,13940.237,3771.624,13931.737Z" fill="#c6c8d1"/>
        <path id="Trazado_6619" data-name="Trazado 6619" d="M3785.416,13931.737a28.522,28.522,0,0,1,7.206,7.368,10.588,10.588,0,0,0-4.507,2.619c1.662,1.367,2.308,3.475,3.183,5.279-5.067,1.8-9.088,5.376-12.778,9.509C3780.635,13947.355,3784.156,13940.237,3785.416,13931.737Z" fill="#c6c8d1"/>
      </g>
      <path id="Trazado_6620" data-name="Trazado 6620" d="M3778.484,13940.051c-4.023,0-7.461-3.125-7.461-5.205,1.449-3.108,1.472-6.27,1.4-9.836,1.059,0,1.5-.229,3.386-1.263,2.5-1.359,3.11-1.225,5.695.191,1.82,1,2.2,1.071,3.038,1.071-.071,3.589-.039,6.769,1.4,9.836C3785.945,13936.929,3782.5,13940.051,3778.484,13940.051Z" fill="#cd9a77"/>
      <path id="Trazado_6621" data-name="Trazado 6621" d="M3754.591,13954.755c0-4.6.409-9.969,2.161-14.225,7.056.335,5.433,12.273,6.407,20.513C3759.431,13960.2,3754.591,13958.609,3754.591,13954.755Z" fill="#bcbfc3"/>
      <path id="Trazado_6622" data-name="Trazado 6622" d="M3770.652,13930.426c-7.371-8.245-8.094-27.2,7.887-27.134,7.219.072,11.975,4.252,12.538,12.473.3,5.153-2.53,11.871-5.046,14.662-2.456,2.748-6.09,4.519-7.612,4.577C3776.977,13935.033,3773.26,13933.346,3770.652,13930.426Z" fill="#ebae86"/>
      <path id="Trazado_6623" data-name="Trazado 6623" d="M3766.168,13921.044c-1.542-4.158-1.537-12.236,1.2-15.745,1.783-2.292,4.358-1.948,4.922-1.476a1.182,1.182,0,0,1,.334,1.009c0,7.912-4.48,10.018-4.48,17.372C3767.352,13921.726,3767.783,13921.98,3766.168,13921.044Z" fill="#5c5c5c"/>
      <path id="Trazado_6624" data-name="Trazado 6624" d="M3783.874,13904.865a1.214,1.214,0,0,1,.334-1.04c.567-.478,3.138-.814,4.923,1.474,2.694,3.463,2.8,11.923,1.433,15.632-2,1.136-1.563.88-2.21,1.269C3788.354,13914.87,3783.874,13912.683,3783.874,13904.865Z" fill="#5c5c5c"/>
      <path id="Trazado_6625" data-name="Trazado 6625" d="M3770.6,13910.292c-2.419-6.884,1.119-10.2,8.253-10.2,4.322.012,8.03,1.05,10.651,4.49a15.594,15.594,0,0,1,1.847,4.022,10.963,10.963,0,0,0,.837,2.021c.573.777.42,1.717-.716,2.3a20.246,20.246,0,0,1-5.323,1.836C3781.3,13915.6,3772.025,13914.431,3770.6,13910.292Z" fill="#747474"/>
      <path id="Trazado_6626" data-name="Trazado 6626" d="M3772.1,13931.423a26.546,26.546,0,0,0-6.706,6.858,11.948,11.948,0,0,1,4.558,2.8,12.882,12.882,0,0,0-3.326,4.55c4.716,1.678,8.458,5,11.893,8.851C3777.463,13945.959,3773.274,13939.335,3772.1,13931.423Z" fill="#fff"/>
      <path id="Trazado_6627" data-name="Trazado 6627" d="M3784.939,13931.423a26.546,26.546,0,0,1,6.706,6.858,11.951,11.951,0,0,0-4.558,2.8,12.883,12.883,0,0,1,3.326,4.55c-4.716,1.678-8.458,5-11.893,8.851C3780.488,13945.959,3783.766,13939.335,3784.939,13931.423Z" fill="#fff"/>
    </g>
  </g>
</svg>
