<svg xmlns="http://www.w3.org/2000/svg" width="324.632" height="316.133" viewBox="0 0 324.632 316.133">
  <g id="Grupo_945" data-name="Grupo 945" transform="translate(-5204.388 -7849.839)">
    <ellipse id="Elipse_77" data-name="Elipse 77" cx="153.528" cy="13.147" rx="153.528" ry="13.147" transform="translate(5221.965 8139.679)" fill="#b2dac8"/>
    <g id="Grupo_942" data-name="Grupo 942">
      <g id="Grupo_941" data-name="Grupo 941">
        <path id="Trazado_5526" data-name="Trazado 5526" d="M5432.144,8048.946a.467.467,0,0,1-.085-.028.445.445,0,0,1-.225-.587c26.153-58.527,48.349-99.366,62.5-114.994.314-.348.541-.6.632-.728a.445.445,0,1,1,.728.51c-.123.175-.341.416-.7.814-14.088,15.561-36.23,56.317-62.346,114.76A.442.442,0,0,1,5432.144,8048.946Z" fill="#b2dac8"/>
        <path id="Trazado_5527" data-name="Trazado 5527" d="M5503.06,7931.278c-1.663,1.744-9.235,4.363-9.733,3.889s1.753-8.164,3.416-9.909a4.363,4.363,0,1,1,6.317,6.02Z" fill="#b2dac8"/>
        <path id="Trazado_5528" data-name="Trazado 5528" d="M5488.564,7935.364c.4,2.432-2.122,10.232-2.816,10.346s-5.59-6.459-5.992-8.892a4.464,4.464,0,0,1,8.808-1.454Z" fill="#b2dac8"/>
        <path id="Trazado_5529" data-name="Trazado 5529" d="M5495.247,7950.434c-2.46-.156-9.491-4.371-9.446-5.073s7.553-3.992,10.013-3.836a4.464,4.464,0,0,1-.567,8.909Z" fill="#b2dac8"/>
        <path id="Trazado_5530" data-name="Trazado 5530" d="M5462.456,7973.025c1.11,3.986-1.69,17.457-2.827,17.774s-10.5-9.768-11.608-13.754a7.492,7.492,0,1,1,14.435-4.02Z" fill="#b2dac8"/>
        <path id="Trazado_5531" data-name="Trazado 5531" d="M5476.335,7996.963c-4.133.184-16.628-5.577-16.681-6.757s11.881-8.028,16.015-8.212a7.492,7.492,0,1,1,.666,14.969Z" fill="#b2dac8"/>
        <path id="Trazado_5532" data-name="Trazado 5532" d="M5449.825,7986.875c2.4,4.459,2.685,21.295,1.413,21.979s-15.163-8.833-17.561-13.292a9.168,9.168,0,1,1,16.148-8.687Z" fill="#b2dac8"/>
        <path id="Trazado_5533" data-name="Trazado 5533" d="M5470.014,8018.467c-5.055-.3-19.539-8.882-19.454-10.325s15.473-8.276,20.528-7.98a9.168,9.168,0,0,1-1.074,18.3Z" fill="#b2dac8"/>
        <path id="Trazado_5534" data-name="Trazado 5534" d="M5440.663,8005.879c2.4,4.459,2.686,21.294,1.413,21.979s-15.162-8.833-17.561-13.293a9.168,9.168,0,1,1,16.148-8.686Z" fill="#b2dac8"/>
        <path id="Trazado_5535" data-name="Trazado 5535" d="M5460.852,8037.471c-5.055-.3-19.539-8.883-19.454-10.326s15.473-8.276,20.528-7.979a9.168,9.168,0,0,1-1.074,18.305Z" fill="#b2dac8"/>
        <path id="Trazado_5536" data-name="Trazado 5536" d="M5422.971,8028.962c3.917,3.21,10.594,18.667,9.678,19.784s-17.384-2.392-21.3-5.6a9.168,9.168,0,0,1,11.622-14.183Z" fill="#b2dac8"/>
        <path id="Trazado_5537" data-name="Trazado 5537" d="M5452.48,8056.356c-5.052.338-20.5-6.37-20.592-7.812s14.317-10.146,19.369-10.484a9.168,9.168,0,1,1,1.223,18.3Z" fill="#b2dac8"/>
        <path id="Trazado_5538" data-name="Trazado 5538" d="M5480.5,7947.1c.408,2.471-2.155,10.4-2.861,10.512s-5.68-6.563-6.088-9.034a4.535,4.535,0,1,1,8.949-1.478Z" fill="#b2dac8"/>
        <path id="Trazado_5539" data-name="Trazado 5539" d="M5486.946,7962.519c-2.5-.159-9.643-4.441-9.6-5.155s7.674-4.056,10.173-3.9a4.535,4.535,0,0,1-.575,9.052Z" fill="#b2dac8"/>
        <path id="Trazado_5540" data-name="Trazado 5540" d="M5471.632,7957.818c.865,3.452-1.841,14.97-2.826,15.217s-8.807-8.631-9.673-12.082a6.443,6.443,0,0,1,12.5-3.135Z" fill="#b2dac8"/>
        <path id="Trazado_5541" data-name="Trazado 5541" d="M5482.39,7979.947c-3.551-.226-13.7-6.309-13.635-7.323s10.9-5.762,14.453-5.537a6.443,6.443,0,0,1-.818,12.86Z" fill="#b2dac8"/>
      </g>
    </g>
    <g id="Grupo_944" data-name="Grupo 944">
      <g id="Grupo_943" data-name="Grupo 943">
        <path id="Trazado_5542" data-name="Trazado 5542" d="M5310.487,8051.068a.184.184,0,0,0,.04-.014.209.209,0,0,0,.1-.279c-12.948-27.279-23.841-46.271-30.673-53.478-.152-.16-.261-.276-.305-.336a.21.21,0,0,0-.338.248c.06.081.165.192.339.376,6.8,7.175,17.67,26.129,30.6,53.37A.209.209,0,0,0,5310.487,8051.068Z" fill="#18898e"/>
        <path id="Trazado_5543" data-name="Trazado 5543" d="M5275.821,7996.421c.8.8,4.4,1.956,4.625,1.727s-.914-3.826-1.715-4.63a2.055,2.055,0,0,0-2.91,2.9Z" fill="#18898e"/>
        <path id="Trazado_5544" data-name="Trazado 5544" d="M5282.691,7998.189c-.162,1.15,1.11,4.8,1.438,4.842s2.563-3.1,2.726-4.252a2.1,2.1,0,1,0-4.164-.59Z" fill="#18898e"/>
        <path id="Trazado_5545" data-name="Trazado 5545" d="M5279.707,8005.358c1.156-.1,4.422-2.161,4.393-2.491s-3.6-1.8-4.756-1.7a2.1,2.1,0,1,0,.363,4.189Z" fill="#18898e"/>
        <path id="Trazado_5546" data-name="Trazado 5546" d="M5295.393,8015.642c-.48,1.89.984,8.2,1.523,8.34s4.838-4.713,5.318-6.6a3.529,3.529,0,0,0-6.841-1.738Z" fill="#18898e"/>
        <path id="Trazado_5547" data-name="Trazado 5547" d="M5289.115,8027.066c1.949.042,7.771-2.806,7.783-3.363s-5.682-3.652-7.631-3.694a3.529,3.529,0,0,0-.152,7.057Z" fill="#18898e"/>
        <path id="Trazado_5548" data-name="Trazado 5548" d="M5301.491,8022.029c-1.082,2.126-1.035,10.057-.428,10.365s7.045-4.323,8.126-6.449a4.318,4.318,0,0,0-7.7-3.916Z" fill="#18898e"/>
        <path id="Trazado_5549" data-name="Trazado 5549" d="M5292.324,8037.124c2.378-.194,9.106-4.394,9.05-5.072s-7.376-3.731-9.753-3.536a4.318,4.318,0,1,0,.7,8.608Z" fill="#18898e"/>
        <path id="Trazado_5550" data-name="Trazado 5550" d="M5306.01,8030.879c-1.081,2.126-1.034,10.057-.427,10.366s7.044-4.324,8.126-6.45a4.319,4.319,0,0,0-7.7-3.916Z" fill="#18898e"/>
        <path id="Trazado_5551" data-name="Trazado 5551" d="M5296.844,8045.975c2.377-.2,9.106-4.394,9.05-5.073s-7.376-3.731-9.753-3.536a4.319,4.319,0,1,0,.7,8.609Z" fill="#18898e"/>
        <path id="Trazado_5552" data-name="Trazado 5552" d="M5314.591,8041.559c-1.81,1.553-4.787,8.9-4.344,9.421s8.161-1.314,9.971-2.868a4.319,4.319,0,1,0-5.627-6.553Z" fill="#18898e"/>
        <path id="Trazado_5553" data-name="Trazado 5553" d="M5300.99,8054.778c2.383.1,9.584-3.222,9.614-3.9s-6.852-4.623-9.235-4.728a4.319,4.319,0,0,0-.379,8.63Z" fill="#18898e"/>
        <path id="Trazado_5554" data-name="Trazado 5554" d="M5286.617,8003.628c-.165,1.168,1.128,4.872,1.461,4.919s2.6-3.152,2.769-4.32a2.136,2.136,0,1,0-4.23-.6Z" fill="#18898e"/>
        <path id="Trazado_5555" data-name="Trazado 5555" d="M5283.747,8010.96c1.175-.1,4.493-2.2,4.464-2.531s-3.658-1.828-4.833-1.726a2.136,2.136,0,1,0,.369,4.257Z" fill="#18898e"/>
        <path id="Trazado_5556" data-name="Trazado 5556" d="M5290.907,8008.581c-.37,1.634,1.029,7.03,1.495,7.135s4.055-4.16,4.425-5.794a3.035,3.035,0,1,0-5.92-1.341Z" fill="#18898e"/>
        <path id="Trazado_5557" data-name="Trazado 5557" d="M5286.08,8019.118c1.67-.145,6.384-3.119,6.342-3.6s-5.2-2.6-6.866-2.451a3.035,3.035,0,0,0,.524,6.047Z" fill="#18898e"/>
      </g>
    </g>
    <path id="Trazado_5558" data-name="Trazado 5558" d="M5432.036,8117.674s-39.772-63.12,78.918-112.722C5510.954,8004.952,5512.9,8137.431,5432.036,8117.674Z" fill="#18898e"/>
    <path id="Trazado_5559" data-name="Trazado 5559" d="M5511.1,8004.739l-82.628,104.23C5422.333,8090.107,5418.752,8043.332,5511.1,8004.739Z" fill="#62c1c6"/>
    <path id="Trazado_5560" data-name="Trazado 5560" d="M5431.96,8104.776a.2.2,0,0,1-.128-.045.208.208,0,0,1-.034-.292l79.139-99.829a.206.206,0,0,1,.292-.034.208.208,0,0,1,.034.292l-79.14,99.829A.205.205,0,0,1,5431.96,8104.776Z" fill="#0a3f64"/>
    <path id="Trazado_5561" data-name="Trazado 5561" d="M5469.785,8057.062a.208.208,0,0,1-.033-.413l34.9-5.831a.208.208,0,1,1,.068.41l-34.9,5.831A.2.2,0,0,1,5469.785,8057.062Z" fill="#0a3f64"/>
    <path id="Trazado_5562" data-name="Trazado 5562" d="M5452.834,8078.446a.214.214,0,0,1-.035,0,.207.207,0,0,1-.17-.239l5.826-34.247a.209.209,0,0,1,.239-.17.207.207,0,0,1,.17.24l-5.826,34.246A.207.207,0,0,1,5452.834,8078.446Z" fill="#0a3f64"/>
    <path id="Trazado_5563" data-name="Trazado 5563" d="M5433.876,8134.448s-6.954-44.718,71.072-43.772C5504.948,8090.676,5474.149,8164.911,5433.876,8134.448Z" fill="#0e7777"/>
    <path id="Trazado_5564" data-name="Trazado 5564" d="M5504.948,8090.676l-71.072,43.772S5467.769,8169.364,5504.948,8090.676Z" fill="#18898e"/>
    <path id="Trazado_5565" data-name="Trazado 5565" d="M5469.623,8111.806a.208.208,0,0,1-.02-.414l19.168-1.894a.212.212,0,0,1,.227.187.209.209,0,0,1-.187.227l-19.167,1.894Z" fill="#0e7777"/>
    <path id="Trazado_5566" data-name="Trazado 5566" d="M5466.967,8130.024h0l-25.489-.051a.208.208,0,0,1,0-.415h0l25.488.051a.208.208,0,0,1,0,.415Z" fill="#0e7777"/>
    <path id="Trazado_5567" data-name="Trazado 5567" d="M5305.488,8116.459s38.368-60.892-76.133-108.743C5229.355,8007.716,5227.476,8135.518,5305.488,8116.459Z" fill="#18898e"/>
    <path id="Trazado_5568" data-name="Trazado 5568" d="M5229.215,8007.51l79.711,100.551C5314.848,8089.865,5318.3,8044.741,5229.215,8007.51Z" fill="#b2dac8"/>
    <path id="Trazado_5569" data-name="Trazado 5569" d="M5305.561,8104.023a.205.205,0,0,1-.163-.079l-76.346-96.3a.208.208,0,0,1,.325-.258l76.346,96.306a.206.206,0,0,1-.033.291A.212.212,0,0,1,5305.561,8104.023Z" fill="#0a3f64"/>
    <path id="Trazado_5570" data-name="Trazado 5570" d="M5269.071,8057.993l-.034,0-33.673-5.626a.208.208,0,1,1,.069-.409l33.672,5.625a.208.208,0,0,1-.034.412Z" fill="#0a3f64"/>
    <path id="Trazado_5571" data-name="Trazado 5571" d="M5285.424,8078.622a.207.207,0,0,1-.2-.172l-5.621-33.038a.208.208,0,1,1,.41-.07l5.62,33.038a.206.206,0,0,1-.17.239A.137.137,0,0,1,5285.424,8078.622Z" fill="#0a3f64"/>
    <path id="Trazado_5572" data-name="Trazado 5572" d="M5308.1,8128.506s-2.755-59.831-103.707-38.058C5204.388,8090.448,5263.881,8178.622,5308.1,8128.506Z" fill="#62c1c6"/>
    <path id="Trazado_5573" data-name="Trazado 5573" d="M5204.388,8090.448l103.707,38.058S5273.329,8182.718,5204.388,8090.448Z" fill="#18898e"/>
    <path id="Trazado_5574" data-name="Trazado 5574" d="M5458.139,7906.339c-1.538-.388-3.369-1.34-3.234-2.921.121-1.414,1.81-2.143,3.23-2.114s2.854.5,4.234.165c1.8-.436,2.995-2.091,4.1-3.578a14.375,14.375,0,0,1,4.181-4.1,5.9,5.9,0,0,1,5.635-.341c1.32.724,2.234,2.092,3.63,2.654,1.889.761,3.978-.164,5.955-.651s4.628-.157,5.227,1.789c.5,1.628-.735,3.7.415,4.957,5.891,6.43-5.659,4.217-9.863,4.506C5473.832,7907.239,5465.858,7908.285,5458.139,7906.339Z" fill="#fff"/>
    <path id="Trazado_5575" data-name="Trazado 5575" d="M5353.914,7874.47a3.82,3.82,0,0,1-1.435,4.968,5.6,5.6,0,0,1-5.477-.07A10.732,10.732,0,0,0,5344.3,7878c-2.437-.514-5.431,2.456-7.705.734-1.971-1.493-1.037-2.85.468-4.007C5341.552,7871.279,5348.941,7875.919,5353.914,7874.47Z" fill="#fff"/>
    <path id="Trazado_5576" data-name="Trazado 5576" d="M5377.475,7930.593a3.82,3.82,0,0,1-1.435,4.968,5.594,5.594,0,0,1-5.477-.069,10.758,10.758,0,0,0-2.706-1.366c-2.437-.513-5.431,2.456-7.7.734-1.971-1.493-1.038-2.85.468-4.007C5365.112,7927.4,5372.5,7932.042,5377.475,7930.593Z" fill="#fff"/>
    <path id="Trazado_5577" data-name="Trazado 5577" d="M5454.208,7952.465a11.259,11.259,0,0,1-3.7,1.034l-2.846.457a15.415,15.415,0,0,1-6.449.113c-1.493-.412-2.763-1.274-4.293-1.59a29.99,29.99,0,0,0-4.716-.119,4.34,4.34,0,0,1-1.316-.219,1.786,1.786,0,0,1-1.258-1.91,2.136,2.136,0,0,1,1.952-1.485c1.265-.11,2.794.591,3.677-.146a3.936,3.936,0,0,0,.632-.934,3.867,3.867,0,0,1,2.089-1.264c2.622-.8,4.807-.236,7.432.061a28.077,28.077,0,0,0,5.174-.243c2.248-.149,4.54.114,5.337,2.072A3.441,3.441,0,0,1,5454.208,7952.465Z" fill="#fff"/>
    <path id="Trazado_5578" data-name="Trazado 5578" d="M5272,7992.421a11.276,11.276,0,0,1-3.7,1.033l-2.847.458a15.417,15.417,0,0,1-6.448.112c-1.494-.412-2.764-1.274-4.293-1.589a29.7,29.7,0,0,0-4.716-.119,4.36,4.36,0,0,1-1.316-.22,1.787,1.787,0,0,1-1.259-1.91,2.14,2.14,0,0,1,1.953-1.485c1.265-.11,2.794.591,3.677-.145a3.957,3.957,0,0,0,.632-.935,3.877,3.877,0,0,1,2.088-1.264c2.622-.805,4.807-.236,7.433.061a28.038,28.038,0,0,0,5.174-.243c2.248-.149,4.54.114,5.337,2.073A3.442,3.442,0,0,1,5272,7992.421Z" fill="#fff"/>
    <path id="Trazado_5579" data-name="Trazado 5579" d="M5353.97,7900.914c-23.618-30.506-54.78,6.888-54.78,6.888s-31.163-37.394-54.78-6.888,54.78,89.223,54.78,89.223S5377.588,7931.42,5353.97,7900.914Z" fill="#fdd44e"/>
    <path id="Trazado_5580" data-name="Trazado 5580" d="M5299.026,7946.942l-.072,0a.925.925,0,0,1-.847-.819l-2.315-20.572-4.39,20.661a.925.925,0,0,1-.9.733h-8.2a.925.925,0,0,1-.828-.511l-2.168-4.337-2.428,4.372a.925.925,0,0,1-.809.476h-4.92a.924.924,0,0,1-.872-.617l-5.119-14.5-6.282,14.562a.921.921,0,0,1-.848.558H5234.4a.925.925,0,1,1,0-1.849h23.01l6.975-16.171a.943.943,0,0,1,.88-.558.925.925,0,0,1,.841.616l5.687,16.113h3.722l3.016-5.429a.924.924,0,0,1,1.635.035l2.7,5.394h6.88l5.421-25.51a.909.909,0,0,1,.95-.731.924.924,0,0,1,.873.82l2.416,21.469,2.334-8.49a.924.924,0,0,1,1.8.064l2.476,12.378h9.726l7.663-23.31a.925.925,0,0,1,1.789.126l4.129,23.184h2.908l4.012-8.334a.925.925,0,0,1,1.729.17l2.117,8.164h13.389a.925.925,0,1,1,0,1.849h-14.1a.924.924,0,0,1-.9-.693l-1.663-6.413-3.169,6.583a.925.925,0,0,1-.834.523h-4.264a.924.924,0,0,1-.91-.762l-3.622-20.335-6.726,20.461a.927.927,0,0,1-.879.636h-11.153a.924.924,0,0,1-.907-.744l-1.859-9.3-2.574,9.361A.926.926,0,0,1,5299.026,7946.942Z" fill="#fff"/>
    <path id="Trazado_5581" data-name="Trazado 5581" d="M5421.5,7928.7s3.87-9.664.753-22.618l-2.6.72s1.337,11.823-3.392,19.739Z" fill="#fb9391"/>
    <path id="Trazado_5582" data-name="Trazado 5582" d="M5393.307,7929.274s-1.59-10.288,4.369-22.205l2.374,1.288s-3.969,11.217-1.147,20Z" fill="#fb9391"/>
    <path id="Trazado_5583" data-name="Trazado 5583" d="M5419.038,7963.039l1.495,16.273-24.675,2.13,2.361-21.95Z" fill="#18898e"/>
    <path id="Trazado_5584" data-name="Trazado 5584" d="M5419.867,7907.508a44.9,44.9,0,0,1-2.04-4.008c-.318-.945-1.327-1.625-.873-1.983s1.734,1.071,1.734,1.071.3-2.006.3-2.636.283-1.759.744-1.8.257,2.992.257,2.992.423-2.533.841-2.658.354,3.177.354,3.177a16.878,16.878,0,0,1,.53-2.916c.212-.192.466.071.587,1.063a9.522,9.522,0,0,1-.011,2.037,21.642,21.642,0,0,1,.491-2.11c.124-.212.449-.415.474,1.074a12.858,12.858,0,0,1-1.082,5.735Z" fill="#fb9391"/>
    <path id="Trazado_5585" data-name="Trazado 5585" d="M5399.812,7908.668s2.25-1.64,3-2.29,1.97-.722,1.762-1.261-2.038.037-2.038.037.765-1.879,1.088-2.42.654-1.657.276-1.924-1.747,2.443-1.747,2.443.928-2.4.632-2.716-1.925,2.553-1.925,2.553a16.837,16.837,0,0,0,1.031-2.779c-.084-.273-.436-.176-1.047.615a9.5,9.5,0,0,0-1.029,1.758,21.524,21.524,0,0,0,.654-2.066c0-.245-.175-.585-.955.683a15.117,15.117,0,0,0-1.957,6Z" fill="#fb9391"/>
    <path id="Trazado_5586" data-name="Trazado 5586" d="M5420.425,7963.656s-2.313-20.51-1.85-22.978,5.089-12.249,5.089-12.249l-7.865-3.929s-3.09,9.393-7.559,8.776-7.091-2.159-8.479-7.556l-8.79,4.767s5.551,6.35,5.4,13.591.154,21.627.154,21.627S5414.1,7967.82,5420.425,7963.656Z" fill="#f7a705"/>
    <path id="Trazado_5587" data-name="Trazado 5587" d="M5402.857,7924.21s-.363-.674-.719-.446c-.908.582-.138,1.507.411,1.747Z" fill="#ea6868"/>
    <path id="Trazado_5588" data-name="Trazado 5588" d="M5402.882,7921.849h.005c0-.067.007-.134.014-.2a5.2,5.2,0,1,1,9.72,3.013c-.591,1.169-1.108,2.167-1.633,2.988a7.435,7.435,0,0,0-1.13,4.579l.1,1.264c-3.338,1.4-4.647-.3-4.647-.3l.15-2.291a.577.577,0,0,0-.49-.607h0C5401.038,7929.673,5402.72,7923.627,5402.882,7921.849Z" fill="#fb9391"/>
    <path id="Trazado_5589" data-name="Trazado 5589" d="M5413.693,7922.992l-1.725,3.377-.925-.274-.153-4.573Z" fill="#0a3f64"/>
    <path id="Trazado_5590" data-name="Trazado 5590" d="M5410.908,7925.97a.768.768,0,0,1,.437-.328,1.3,1.3,0,0,1,1.41.261c.578.7-.855,2.265-2.044,1.311C5410.711,7927.214,5410.382,7926.82,5410.908,7925.97Z" fill="#fb9391"/>
    <path id="Trazado_5591" data-name="Trazado 5591" d="M5403.9,7919.913s-.792.455-1.262,3.583c0,0,.066-3.529.491-3.879S5403.9,7919.913,5403.9,7919.913Z" fill="#0a3f64"/>
    <path id="Trazado_5592" data-name="Trazado 5592" d="M5414.145,7921.883a5.462,5.462,0,0,0-.378-2.258,1.431,1.431,0,0,0,1.068.069c.33-.159.437-.724.1-.868-.195-.084-.42.016-.632,0-.485-.031-.726-.6-.786-1.086s-.084-1.042-.473-1.333a.809.809,0,0,0-.423-.156,2.6,2.6,0,0,0-.107,1.681,6.8,6.8,0,0,0-1.722-2.1,2.674,2.674,0,0,0-1.937-.734c-.247.508.593.943.6,1.508a12.232,12.232,0,0,0-3.562-1.067,2.455,2.455,0,0,0-.955.006.955.955,0,0,0-.694.6.749.749,0,0,0,.616.919,7.832,7.832,0,0,0-1.921.644.991.991,0,1,0,.022,1.415.954.954,0,0,0-.554.891.756.756,0,0,0,.568.54,2.2,2.2,0,0,0,.822.009l4.15-.468a4.578,4.578,0,0,0-1.451,1.739,1.935,1.935,0,1,1,3.737.961.452.452,0,0,0,.124.237c.233.2.524-.151.8-.287a.993.993,0,0,1,1.026.259c.493.415.788.934,1.346.363A2.51,2.51,0,0,0,5414.145,7921.883Z" fill="#0a3f64"/>
    <path id="Trazado_5593" data-name="Trazado 5593" d="M5388,7854.9a3.105,3.105,0,0,0-2.134,2.84v27.409a17.278,17.278,0,0,0,7.125,14.057l16.1,10.318a3.4,3.4,0,0,0,3.6,0l16.1-10.318a17.278,17.278,0,0,0,7.125-14.057v-27.336a3.125,3.125,0,0,0-2.238-2.878C5414.121,7848.237,5406.279,7848.057,5388,7854.9Z" fill="#b2dac8"/>
    <path id="Trazado_5594" data-name="Trazado 5594" d="M5433.679,7854.933c-9.521-3.26-16.265-4.971-22.788-5.084v60.188a3.344,3.344,0,0,0,1.8-.515l16.1-10.318a17.278,17.278,0,0,0,7.125-14.057v-27.336A3.125,3.125,0,0,0,5433.679,7854.933Z" fill="#18898e"/>
    <rect id="Rectángulo_1024" data-name="Rectángulo 1024" width="9.991" height="34.894" transform="translate(5405.808 7859.326)" fill="#fff"/>
    <rect id="Rectángulo_1025" data-name="Rectángulo 1025" width="9.991" height="34.894" transform="translate(5429.09 7871.777) rotate(90)" fill="#fff"/>
    <path id="Trazado_5595" data-name="Trazado 5595" d="M5437.464,7971.486l-130.581-.913a2.375,2.375,0,0,0-2.392,2.359l-1.2,172.126a2.375,2.375,0,0,0,2.359,2.392l130.363.912a2.377,2.377,0,0,0,2.393-2.36l1.205-172.342A2.159,2.159,0,0,0,5437.464,7971.486Z" fill="#0a3f64"/>
    <rect id="Rectángulo_1026" data-name="Rectángulo 1026" width="126.192" height="167.033" transform="translate(5308.352 7975.188)" fill="#fff"/>
    <path id="Trazado_5596" data-name="Trazado 5596" d="M5400.7,7966.091l-20.12-.141c.027-.27.045-.542.047-.818a9.008,9.008,0,1,0-18.015-.126c0,.276.013.549.036.819l-20.12-.141a6.945,6.945,0,0,0-6.993,6.9l-.066,9.466a1.6,1.6,0,0,0,1.593,1.616l68.851.481a1.605,1.605,0,0,0,1.617-1.593l.066-9.466A6.945,6.945,0,0,0,5400.7,7966.091Zm-29.12,4.71a5.732,5.732,0,1,1,5.772-5.692A5.732,5.732,0,0,1,5371.583,7970.8Z" fill="#b2dac8"/>
    <rect id="Rectángulo_1027" data-name="Rectángulo 1027" width="54.148" height="1.377" rx="0.611" transform="translate(5314.992 7993.084)" fill="#b2dac8"/>
    <rect id="Rectángulo_1028" data-name="Rectángulo 1028" width="54.148" height="1.377" rx="0.611" transform="translate(5314.992 8003.179)" fill="#b2dac8"/>
    <rect id="Rectángulo_1029" data-name="Rectángulo 1029" width="54.148" height="1.377" rx="0.611" transform="translate(5336.559 8043.561)" fill="#b2dac8"/>
    <rect id="Rectángulo_1030" data-name="Rectángulo 1030" width="54.148" height="1.377" rx="0.611" transform="translate(5336.559 8054.574)" fill="#b2dac8"/>
    <rect id="Rectángulo_1031" data-name="Rectángulo 1031" width="74.798" height="1.377" rx="0.611" transform="translate(5336.559 8049.067)" fill="#b2dac8"/>
    <rect id="Rectángulo_1032" data-name="Rectángulo 1032" width="54.148" height="1.377" rx="0.611" transform="translate(5314.992 8030.712)" fill="#b2dac8"/>
    <rect id="Rectángulo_1033" data-name="Rectángulo 1033" width="54.148" height="1.377" rx="0.611" transform="translate(5371.434 8003.179)" fill="#b2dac8"/>
    <rect id="Rectángulo_1034" data-name="Rectángulo 1034" width="110.591" height="1.377" rx="0.611" transform="translate(5314.992 8010.063)" fill="#b2dac8"/>
    <rect id="Rectángulo_1035" data-name="Rectángulo 1035" width="110.591" height="1.377" rx="0.611" transform="translate(5314.992 8017.863)" fill="#b2dac8"/>
    <rect id="Rectángulo_1036" data-name="Rectángulo 1036" width="110.591" height="1.377" rx="0.611" transform="translate(5314.992 8024.288)" fill="#b2dac8"/>
    <path id="Trazado_5597" data-name="Trazado 5597" d="M5330.594,8057.491h-15.6a.623.623,0,0,1-.622-.623v-15.6a.622.622,0,0,1,.622-.622h15.6a.622.622,0,0,1,.622.622v15.6A.623.623,0,0,1,5330.594,8057.491Zm-14.98-1.245h14.357v-14.357h-14.357Z" fill="#b2dac8"/>
    <path id="Trazado_5598" data-name="Trazado 5598" d="M5321.733,8055.08l-.05,0a.829.829,0,0,1-.735-.557,27.089,27.089,0,0,0-4.293-7.864.831.831,0,0,1,1.308-1.024,28.889,28.889,0,0,1,3.881,6.587,43.327,43.327,0,0,1,11.453-13.445.83.83,0,0,1,1.018,1.311,41.539,41.539,0,0,0-11.836,14.526A.83.83,0,0,1,5321.733,8055.08Z" fill="#fdd44e"/>
    <rect id="Rectángulo_1037" data-name="Rectángulo 1037" width="54.148" height="1.377" rx="0.611" transform="translate(5336.559 8078.436)" fill="#b2dac8"/>
    <rect id="Rectángulo_1038" data-name="Rectángulo 1038" width="74.798" height="1.377" rx="0.611" transform="translate(5336.559 8072.929)" fill="#b2dac8"/>
    <path id="Trazado_5599" data-name="Trazado 5599" d="M5330.594,8085.024h-15.6a.623.623,0,0,1-.622-.623v-15.6a.622.622,0,0,1,.622-.622h15.6a.622.622,0,0,1,.622.622v15.6A.623.623,0,0,1,5330.594,8085.024Zm-14.98-1.245h14.357v-14.357h-14.357Z" fill="#b2dac8"/>
    <path id="Trazado_5600" data-name="Trazado 5600" d="M5321.733,8082.613l-.05,0a.828.828,0,0,1-.735-.557,27.116,27.116,0,0,0-4.293-7.865.83.83,0,0,1,1.308-1.023,28.9,28.9,0,0,1,3.881,6.587,43.325,43.325,0,0,1,11.453-13.445.83.83,0,0,1,1.018,1.311,41.539,41.539,0,0,0-11.836,14.526A.83.83,0,0,1,5321.733,8082.613Z" fill="#fdd44e"/>
    <rect id="Rectángulo_1039" data-name="Rectángulo 1039" width="54.148" height="1.377" rx="0.611" transform="translate(5336.559 8096.791)" fill="#b2dac8"/>
    <rect id="Rectángulo_1040" data-name="Rectángulo 1040" width="74.798" height="1.377" rx="0.611" transform="translate(5336.559 8102.298)" fill="#b2dac8"/>
    <path id="Trazado_5601" data-name="Trazado 5601" d="M5330.594,8110.721h-15.6a.622.622,0,0,1-.622-.622v-15.6a.623.623,0,0,1,.622-.623h15.6a.623.623,0,0,1,.622.623v15.6A.622.622,0,0,1,5330.594,8110.721Zm-14.98-1.245h14.357v-14.357h-14.357Z" fill="#b2dac8"/>
    <path id="Trazado_5602" data-name="Trazado 5602" d="M5321.733,8108.31h-.05a.831.831,0,0,1-.735-.558,27.114,27.114,0,0,0-4.293-7.864.83.83,0,1,1,1.308-1.023,28.9,28.9,0,0,1,3.881,6.586A43.327,43.327,0,0,1,5333.3,8092a.83.83,0,0,1,1.018,1.312,41.521,41.521,0,0,0-11.836,14.526A.829.829,0,0,1,5321.733,8108.31Z" fill="#fdd44e"/>
    <rect id="Rectángulo_1041" data-name="Rectángulo 1041" width="54.148" height="1.377" rx="0.611" transform="translate(5336.559 8121.571)" fill="#b2dac8"/>
    <rect id="Rectángulo_1042" data-name="Rectángulo 1042" width="54.148" height="1.377" rx="0.611" transform="translate(5336.559 8132.584)" fill="#b2dac8"/>
    <rect id="Rectángulo_1043" data-name="Rectángulo 1043" width="74.798" height="1.377" rx="0.611" transform="translate(5336.559 8127.077)" fill="#b2dac8"/>
    <path id="Trazado_5603" data-name="Trazado 5603" d="M5330.594,8135.5h-15.6a.623.623,0,0,1-.622-.623v-15.6a.622.622,0,0,1,.622-.622h15.6a.622.622,0,0,1,.622.622v15.6A.623.623,0,0,1,5330.594,8135.5Zm-14.98-1.246h14.357V8119.9h-14.357Z" fill="#b2dac8"/>
    <path id="Trazado_5604" data-name="Trazado 5604" d="M5321.733,8133.089h-.05a.827.827,0,0,1-.735-.558,27.127,27.127,0,0,0-4.293-7.864.83.83,0,0,1,1.308-1.023,28.9,28.9,0,0,1,3.881,6.587,43.32,43.32,0,0,1,11.453-13.445.83.83,0,0,1,1.018,1.311,41.539,41.539,0,0,0-11.836,14.526A.829.829,0,0,1,5321.733,8133.089Z" fill="#fdd44e"/>
    <path id="Trazado_5605" data-name="Trazado 5605" d="M5459.034,8138.058s.075,5.227.034,5.3.382.729.382.729l1.649.295,1.5-.692s-.133-4.859.024-5.626S5459.034,8138.058,5459.034,8138.058Z" fill="#fb9391"/>
    <path id="Trazado_5606" data-name="Trazado 5606" d="M5462.6,8143.692a4.286,4.286,0,0,1-3.525-.435s-6.328,2.372-6.135,4.175c0,0-.27.538,2.472.422s7-.238,7.117-.3S5463.184,8147.779,5462.6,8143.692Z" fill="#0a3f64"/>
    <path id="Trazado_5607" data-name="Trazado 5607" d="M5478.368,8138.058s.075,5.227.034,5.3.382.729.382.729l1.649.295,1.5-.692s-.132-4.859.025-5.626S5478.368,8138.058,5478.368,8138.058Z" fill="#fb9391"/>
    <path id="Trazado_5608" data-name="Trazado 5608" d="M5481.937,8143.692a4.286,4.286,0,0,1-3.525-.435s-6.328,2.372-6.134,4.175c0,0-.27.538,2.472.422s7-.238,7.117-.3S5482.518,8147.779,5481.937,8143.692Z" fill="#0a3f64"/>
    <path id="Trazado_5609" data-name="Trazado 5609" d="M5479.979,8082.182l2.223,60.651-4.279-.158-9.889-40.636-5.166,41.218-4.486-.424-1.956-57.957,5.6-2.171Z" fill="#0a3f64"/>
    <path id="Trazado_5610" data-name="Trazado 5610" d="M5444.048,8065.761a25.281,25.281,0,0,0,0-3.4c-.147-.912.386-1.9-.14-2s-.959,1.626-.959,1.626-1.112-1.514-1.383-2.032-.99-1.318-1.384-1.149,1.081,2.562,1.081,2.562-1.44-1.893-1.837-1.815,1.082,2.756,1.082,2.756a15.6,15.6,0,0,0-1.693-2.16c-.256-.066-.351.259-.022,1.124a8.84,8.84,0,0,0,.888,1.664,19.955,19.955,0,0,0-1.313-1.516c-.193-.121-.547-.146.076,1.084a14.238,14.238,0,0,0,3.788,4.526Z" fill="#fb9391"/>
    <path id="Trazado_5611" data-name="Trazado 5611" d="M5465.847,8045.5s-.342-.755-.744-.535c-1.024.562-.261,1.619.314,1.919Z" fill="#ea6868"/>
    <path id="Trazado_5612" data-name="Trazado 5612" d="M5466.051,8042.952l.005,0c.009-.072.018-.144.029-.217a5.636,5.636,0,1,1,10.281,3.983c-.726,1.218-1.359,2.258-1.988,3.106a8.049,8.049,0,0,0-1.563,4.865l.011,1.374c-3.713,1.269-5-.676-5-.676l.333-2.465a.625.625,0,0,0-.484-.692l-.006,0C5463.474,8051.27,5465.743,8044.862,5466.051,8042.952Z" fill="#fb9391"/>
    <path id="Trazado_5613" data-name="Trazado 5613" d="M5477.65,8044.995l-2.117,3.521-.979-.366.176-4.954Z" fill="#0a3f64"/>
    <path id="Trazado_5614" data-name="Trazado 5614" d="M5467.294,8040.935s-.89.433-1.631,3.778c0,0,.335-3.808.82-4.155S5467.294,8040.935,5467.294,8040.935Z" fill="#0a3f64"/>
    <path id="Trazado_5615" data-name="Trazado 5615" d="M5474.417,8048a.837.837,0,0,1,.5-.322,1.41,1.41,0,0,1,1.5.388c.574.793-1.093,2.383-2.307,1.264C5474.111,8049.335,5473.785,8048.884,5474.417,8048Z" fill="#fb9391"/>
    <path id="Trazado_5616" data-name="Trazado 5616" d="M5473.173,8055.411l-5.6-.387-2.821,9.243-1.244,18.019s4.972,2.847,11.97.056l-.519-21.222Z" fill="#62c1c6"/>
    <path id="Trazado_5617" data-name="Trazado 5617" d="M5473.173,8055.411s8.208,4.162,9.71,6.577c1.387,2.23,1.312.2,4.908,12.424a4.947,4.947,0,0,1-.932,4.545,3.335,3.335,0,0,1-1.63,1.058l-4.466,1.324,1.44,35.7h-9.784Z" fill="#fff"/>
    <path id="Trazado_5618" data-name="Trazado 5618" d="M5467.57,8055.024s-8.7,2.994-10.522,5.18-2.618,56.129-2.618,56.129h8.2Z" fill="#fff"/>
    <path id="Trazado_5619" data-name="Trazado 5619" d="M5471.284,8056.34l-1.1,1.609.414,23.863-3.519,4.893-1.989-5.4,3.917-23.58-.6-1.727,1.982-.585Z" fill="#fdd44e"/>
    <path id="Trazado_5620" data-name="Trazado 5620" d="M5473.173,8055.411l-.356-.95-2.7.739-2.111-1.152-.437.977.345,1.757,2.078-1.154,1.843,1.545Z" fill="#62c1c6"/>
    <path id="Trazado_5621" data-name="Trazado 5621" d="M5476.2,8038.114c-.149-.176-.437-.329-.585-.152a.4.4,0,0,0-.066.264,2.482,2.482,0,0,0,.134.8,5.058,5.058,0,0,0-3.876-1.7c-1.457-.079-2.925.139-4.373-.032-.575-.068-1.263-.157-1.634.287a.992.992,0,0,0-.023,1.132,1.754,1.754,0,0,0,.969.684.786.786,0,0,0-1.063,1.044,1.582,1.582,0,0,0,1.277.66,44.627,44.627,0,0,0,4.743.462l-.73.511a.592.592,0,0,0-.213.211.44.44,0,0,0,.042.4,1.174,1.174,0,0,0,.892.536,4.741,4.741,0,0,0,1.077-.042,8.477,8.477,0,0,1,1.574,0,.786.786,0,0,1,.314.076,1,1,0,0,1,.293.323,4.551,4.551,0,0,0,2.194,1.367c.253.1.593.171.753-.049a.609.609,0,0,0,.088-.3,7.053,7.053,0,0,0-.625-3.682.4.4,0,0,0,.715.073c.25-.4-.251-.784-.535-.976-.259-.176-.514-.227-.7-.5C5476.563,8039.066,5476.566,8038.54,5476.2,8038.114Z" fill="#0a3f64"/>
    <path id="Trazado_5622" data-name="Trazado 5622" d="M5476.366,8057.15l-2.133,6.728,1.612.809-2.988,13.251.315-22.527Z" fill="#e8f0fd"/>
    <path id="Trazado_5623" data-name="Trazado 5623" d="M5459.236,8058.6a9.626,9.626,0,0,0-4.325,4.669c-1.42,3.323-3.45,8.521-5.734,9.169-1.821.517-4.435-7.315-4.435-7.315l-4.244,1.157s1.522,15.72,9.682,14.884c5.186-.531,7.648-11.669,7.648-11.669Z" fill="#fff"/>
    <path id="Trazado_5624" data-name="Trazado 5624" d="M5464.168,8056.308l1.188,6.958-1.708.579,1.466,14.357,2.456-23.176Z" fill="#e8f0fd"/>
    <rect id="Rectángulo_1044" data-name="Rectángulo 1044" width="12.552" height="17.329" rx="0.313" transform="translate(5455.668 8066.307) rotate(-3.079)" fill="#0e7777"/>
    <rect id="Rectángulo_1045" data-name="Rectángulo 1045" width="5.077" height="1.079" transform="translate(5459.592 8065.271) rotate(-3.08)" fill="#b2dac8"/>
    <path id="Trazado_5625" data-name="Trazado 5625" d="M5462.965,8065.089a.84.84,0,1,0-.793.884A.84.84,0,0,0,5462.965,8065.089Z" fill="#b2dac8"/>
    <path id="Trazado_5626" data-name="Trazado 5626" d="M5473.024,8078.176a25.627,25.627,0,0,0-3.245-1.2c-.921-.182-1.678-1.042-1.957-.575s1.21,1.49,1.21,1.49-1.837.524-2.426.6-1.607.477-1.586.913,2.826-.124,2.826-.124-2.315.7-2.381,1.108,3.011-.055,3.011-.055a15.82,15.82,0,0,0-2.659.85c-.154.22.123.426,1.064.418a8.951,8.951,0,0,0,1.9-.257,20.4,20.4,0,0,0-1.911.715c-.183.141-.332.469,1.061.311a14.5,14.5,0,0,0,5.657-2.008Z" fill="#fb9391"/>
    <path id="Trazado_5627" data-name="Trazado 5627" d="M5468.766,8076.118l.1,1.82-1.725-.239-.138-1.509.534-.732Z" fill="#0e7777"/>
    <path id="Trazado_5628" data-name="Trazado 5628" d="M5473.982,8082.315a.1.1,0,0,1-.1-.081l-1.062-4.536a.1.1,0,0,1,.055-.116l7.721-3.766-1.723-5.07a.1.1,0,0,1,.065-.132.1.1,0,0,1,.131.065l1.753,5.157a.1.1,0,0,1-.053.126l-7.729,3.77,1.023,4.364,6.687-.86a.108.108,0,0,1,.117.09.1.1,0,0,1-.09.116l-6.78.872Z" fill="#18898e"/>
    <path id="Trazado_5629" data-name="Trazado 5629" d="M5290.251,8137.6s1.19,6.959,1.236,7.044-.435.83-.435.83l-1.878.337-1.714-.788s-.989-5.61-1.168-6.483S5290.251,8137.6,5290.251,8137.6Z" fill="#fb9391"/>
    <path id="Trazado_5630" data-name="Trazado 5630" d="M5287.46,8145.024a4.884,4.884,0,0,0,4.015-.5s7.209,2.7,6.989,4.756c0,0,.307.612-2.817.48s-7.976-.271-8.107-.343S5286.8,8149.679,5287.46,8145.024Z" fill="#0a3f64"/>
    <path id="Trazado_5631" data-name="Trazado 5631" d="M5268.848,8137.6s-1.837,6.959-1.791,7.044-.434.83-.434.83l-1.878.337-1.715-.788s.935-5.725.756-6.6S5268.848,8137.6,5268.848,8137.6Z" fill="#fb9391"/>
    <path id="Trazado_5632" data-name="Trazado 5632" d="M5263.03,8145.024a4.887,4.887,0,0,0,4.016-.5s7.208,2.7,6.988,4.756c0,0,.307.612-2.817.48s-7.976-.271-8.106-.343S5262.369,8149.679,5263.03,8145.024Z" fill="#0a3f64"/>
    <path id="Trazado_5633" data-name="Trazado 5633" d="M5288.316,8094.1l3.766,47.627h-6.472s-6.842-37.635-7.813-37.8-7.9,37.8-7.9,37.8h-7.428l3.8-48.859Z" fill="#0e7777"/>
    <path id="Trazado_5634" data-name="Trazado 5634" d="M5273.711,8056.99s9.883,1.159,11.974,2.589,2.641,24.98,2.641,24.98l.33,10.452s-12.985,4.4-23.549,0l-.551-10.452s-4.937-23.876-1.526-24.853S5273.711,8056.99,5273.711,8056.99Z" fill="#fdd44e"/>
    <path id="Trazado_5635" data-name="Trazado 5635" d="M5261.685,8099.013s.7,2.9.87,3.949,1.111,1.952.568,2.249-1.639-1.44-1.639-1.44-.675,2.064-.786,2.729-.612,1.806-1.106,1.763.264-3.2.264-3.2-.9,2.6-1.363,2.656.194-3.417.194-3.417a17.985,17.985,0,0,1-1.081,2.983c-.257.164-.478-.159-.429-1.227a10.19,10.19,0,0,1,.375-2.148,23.091,23.091,0,0,1-.895,2.14c-.169.2-.548.357-.308-1.218a16.028,16.028,0,0,1,2.467-6.265Z" fill="#fb9391"/>
    <path id="Trazado_5636" data-name="Trazado 5636" d="M5297.727,8091.332s2.664,1.335,3.576,1.89,2.207.415,2.082,1.021-2.158.319-2.158.319,1.138,1.849,1.574,2.364.981,1.635.629,1.983-2.273-2.273-2.273-2.273,1.4,2.366,1.145,2.757-2.482-2.357-2.482-2.357a17.984,17.984,0,0,1,1.577,2.753c-.041.3-.43.263-1.213-.466a10.122,10.122,0,0,1-1.4-1.674,23,23,0,0,1,1.053,2.066c.045.259-.081.649-1.128-.553a16.059,16.059,0,0,1-3.184-5.933Z" fill="#fb9391"/>
    <path id="Trazado_5637" data-name="Trazado 5637" d="M5279.039,8047.643s.389-.721.77-.477c.972.623.147,1.613-.44,1.87Z" fill="#ea6868"/>
    <path id="Trazado_5638" data-name="Trazado 5638" d="M5279.012,8045.116l-.005,0c0-.072-.008-.144-.014-.216a5.569,5.569,0,1,0-10.405,3.226c.632,1.25,1.185,2.319,1.748,3.2a7.954,7.954,0,0,1,1.209,4.9l-.1,1.354c3.573,1.5,4.973-.325,4.973-.325l-.16-2.453a.618.618,0,0,1,.525-.649h.005C5280.986,8053.491,5279.186,8047.02,5279.012,8045.116Z" fill="#fb9391"/>
    <path id="Trazado_5639" data-name="Trazado 5639" d="M5267.44,8046.34l1.847,3.615.99-.293.164-4.9Z" fill="#0e7777"/>
    <path id="Trazado_5640" data-name="Trazado 5640" d="M5270.421,8049.528a.827.827,0,0,0-.467-.352,1.4,1.4,0,0,0-1.51.28c-.619.743.916,2.424,2.189,1.4C5270.633,8050.859,5270.985,8050.437,5270.421,8049.528Z" fill="#fb9391"/>
    <path id="Trazado_5641" data-name="Trazado 5641" d="M5277.924,8043.044s.848.487,1.351,3.835c0,0-.071-3.777-.526-4.152S5277.924,8043.044,5277.924,8043.044Z" fill="#131375"/>
    <path id="Trazado_5642" data-name="Trazado 5642" d="M5268.886,8039.38c1.107-1.24,3.144-1.133,4.458-2.151a7.685,7.685,0,0,1-1.691,2.27l5.857-1.7a13.048,13.048,0,0,1-1.974,1.646,24.878,24.878,0,0,0,4.573-.029.892.892,0,0,1-.054.8c-.57,1.413-1.274,2.965-2.687,3.537a4.287,4.287,0,0,1-1.386.268c-1.869.1-3.934-.357-5.479.7-.716.49-1.6,2.186-2.625,1.941C5266.97,8046.446,5265.453,8043.226,5268.886,8039.38Z" fill="#0e7777"/>
    <path id="Trazado_5643" data-name="Trazado 5643" d="M5262.7,8059.9c-3,3.1-6.074,15.249-6.4,23.746a62.449,62.449,0,0,0,1.572,15.914l3.955-.246s3.932-17.406,3.111-22.7C5264.454,8073.484,5262.7,8059.9,5262.7,8059.9Z" fill="#fdd44e"/>
    <path id="Trazado_5644" data-name="Trazado 5644" d="M5285.685,8059.579c3.137,2.234,7.027,17.623,8.216,20.357s5.349,11.7,5.349,11.7l-3.721,2.87s-8.868-11.035-11.57-17.057S5285.685,8059.579,5285.685,8059.579Z" fill="#fdd44e"/>
    <path id="Rectángulo_1046" data-name="Rectángulo 1046" d="M0,0H20.554a0,0,0,0,1,0,0V99.689a9.128,9.128,0,0,1-9.128,9.128h-2.3A9.128,9.128,0,0,1,0,99.69V0A0,0,0,0,1,0,0Z" transform="translate(5404.466 8039.799)" fill="#62c1c6"/>
    <path id="Rectángulo_1047" data-name="Rectángulo 1047" d="M3.221,0H28.215a3.222,3.222,0,0,1,3.222,3.222v.811a3.222,3.222,0,0,1-3.222,3.222H3.222A3.222,3.222,0,0,1,0,4.033V3.221A3.221,3.221,0,0,1,3.221,0Z" transform="translate(5399.176 8033.753)" fill="#62c1c6"/>
    <path id="Trazado_5645" data-name="Trazado 5645" d="M5404.466,8103.88v34.459a10.277,10.277,0,1,0,20.554,0V8103.88Z" fill="#f7a705"/>
    <path id="Trazado_5646" data-name="Trazado 5646" d="M5386.034,8065.795a4.683,4.683,0,0,1-1.957-2.18c-.412-1.467.838-3.032.4-4.49-.352-1.16-1.628-1.771-2.261-2.8a13.34,13.34,0,0,1-.887-3.21c-1.068-3.48-5.034-4.251-8.078-3.134a7.126,7.126,0,0,0-1.3.633,5.5,5.5,0,0,0-2.612,3.833c-.141,1.109.12,2.387-.668,3.31-.724.85-1.924.907-2.89,1.32a3.9,3.9,0,0,0-2.253,2.466c-.338,1.321.188,2.906-.669,3.967-.611.758-1.645.909-2.455,1.361a4.579,4.579,0,0,0-2.049,2.279,3.847,3.847,0,0,0,1.644,4.745,5.7,5.7,0,0,0,2.756.5,15.711,15.711,0,0,0,5.3-1.029c1.656-.634,3.251-1.56,5.02-1.684a17.6,17.6,0,0,1,4.543.7,19.623,19.623,0,0,1,4.419,1.016c.615.28,1.182.66,1.806.921a2.727,2.727,0,0,0,1.974.156,1.421,1.421,0,0,0,.94-1.59c-.081-.3-.282-.547-.383-.837-.456-1.307,1.208-2.46,1.247-3.844A3.213,3.213,0,0,0,5386.034,8065.795Z" fill="#0a3f64"/>
    <path id="Trazado_5647" data-name="Trazado 5647" d="M5370.664,8140.562s.12,8.732,1.038,9.687c.523.544,10.936,1.688,11.23.293s-7.634-3.3-8.221-5.872a16.357,16.357,0,0,1-.294-4.991Z" fill="#fb9391"/>
    <path id="Trazado_5648" data-name="Trazado 5648" d="M5394.64,8138.982s2.2,4.844,2.642,5.725.881,3.964,1.762,4.074,10.349,1.1,10.57-.441-8.368-4.074-8.919-5.285-2.642-6.275-2.642-6.275Z" fill="#fb9391"/>
    <path id="Trazado_5649" data-name="Trazado 5649" d="M5369.132,8088s-4.918,8.221-5.358,12.478,2.716,20.186,2.679,21.213-.446,3.377-.021,4.992,3.067,6.459,2.7,7.78.661,7.634.661,7.634h5.725s-.734-7.487,0-10.717.734-8.514.734-10.716v-16.442s3.524,6.753,3.671,7.633a21.537,21.537,0,0,0,1.468,4.7c1.174,3.083,3.816,5.579,4.257,6.9a20.88,20.88,0,0,0,1.321,3.964c.734,1.321,2.5,1.908,3.23,5.138s3.67,7.78,3.67,7.78l6.313-2.2s-4.7-12.184-4.7-12.625-2.2-2.789-2.2-7.046-2.643-9.983-3.377-11.011-7.487-19.3-10.2-20.552S5369.132,8088,5369.132,8088Z" fill="#0a3f64"/>
    <path id="Trazado_5650" data-name="Trazado 5650" d="M5372.179,8065.433a12.474,12.474,0,0,0-10.24,5.835,41.384,41.384,0,0,0-3.854,8.478l6.386,2.312.661-2.532s1.652,8.037,3.3,8.7,2.753-.551,3.744-.661,4.184.881,6.826.11,2.752-2.752,3.083-5.064.771-4.4.771-4.4l.991.77,5.1-5.1s-5.985-6.126-9.288-7.117A42.571,42.571,0,0,0,5372.179,8065.433Z" fill="#18898e"/>
    <path id="Trazado_5651" data-name="Trazado 5651" d="M5359.377,8080.213a74.336,74.336,0,0,0,0,10.14c.433,3.3,3.957,10.423,3.957,10.423l2.128-2.2s-3.534-9.858-1.73-16.784Z" fill="#fb9391"/>
    <path id="Trazado_5652" data-name="Trazado 5652" d="M5380.678,8058.03s.495-.546.775-.25c.714.753-.289,1.455-.857,1.553Z" fill="#ea6868"/>
    <path id="Trazado_5653" data-name="Trazado 5653" d="M5376.695,8049.887a5.005,5.005,0,0,0-5.244,6.319,21.657,21.657,0,0,0,1.322,4.419,4.981,4.981,0,0,1,.329,3.634l-.368,1.22c2.661,1.877,4.14.629,4.14.629l.437-2.88h0c3.171.1,3.629-5.71,3.887-7.409h-.005c.012-.064.024-.127.034-.191A5.006,5.006,0,0,0,5376.695,8049.887Z" fill="#fb9391"/>
    <path id="Trazado_5654" data-name="Trazado 5654" d="M5375.576,8054.87a21.306,21.306,0,0,0-1.962,1.74,5.4,5.4,0,0,0-1.621,2.214,6.466,6.466,0,0,1-1.382-2.7,4.752,4.752,0,0,1-.257-1.39,5.24,5.24,0,0,1,.525-1.926,5.466,5.466,0,0,1,1.351-2.184,4.134,4.134,0,0,1,1.532-.749,7.043,7.043,0,0,1,3.953-.064,5.071,5.071,0,0,1,3.058,2.424c.8,1.525.634,3.352.45,5.063a5.064,5.064,0,0,0-.808-2.029,4.287,4.287,0,0,0-.847-1.146,21.182,21.182,0,0,1-1.894-1.459A5.931,5.931,0,0,1,5375.576,8054.87Z" fill="#0a3f64"/>
    <path id="Trazado_5655" data-name="Trazado 5655" d="M5372.75,8057.822a.745.745,0,0,0-.332-.407,1.255,1.255,0,0,0-1.378-.081c-.7.516.278,2.314,1.608,1.7C5372.648,8059.03,5373.046,8058.737,5372.75,8057.822Z" fill="#fb9391"/>
    <path id="Trazado_5656" data-name="Trazado 5656" d="M5382.859,8078.243a.039.039,0,0,0,.038-.035c.2-2.188-1.493-5.276-1.51-5.307a.038.038,0,0,0-.067.037c.017.031,1.7,3.1,1.5,5.263a.038.038,0,0,0,.035.041Z" fill="#0a3f64"/>
    <path id="Trazado_5657" data-name="Trazado 5657" d="M5370.718,8079.694a6.86,6.86,0,0,0,3.464-1.091.038.038,0,0,0-.043-.063c-.03.021-3.021,2.059-5.611.476a.038.038,0,0,0-.039.065A4.211,4.211,0,0,0,5370.718,8079.694Z" fill="#0a3f64"/>
    <path id="Trazado_5658" data-name="Trazado 5658" d="M5370.976,8146.887c5.329,2.715,7.106,1.794,7.695.928,2.182,1.074,4.414,1.975,4.255,2.727-.293,1.4-10.706.251-11.23-.293A8.381,8.381,0,0,1,5370.976,8146.887Z" fill="#0e7777"/>
    <path id="Trazado_5659" data-name="Trazado 5659" d="M5405.384,8145.547c2.209.986,4.341,2.015,4.23,2.793-.221,1.542-9.689.551-10.57.441-.8-.1-1.236-2.648-1.639-3.777C5402.1,8147.633,5404.473,8146.326,5405.384,8145.547Z" fill="#0e7777"/>
    <path id="Trazado_5660" data-name="Trazado 5660" d="M5364.9,8098.145a24.411,24.411,0,0,1,2.613,1.977c.616.642,1.689.808,1.458,1.269s-1.807-.206-1.807-.206.52,1.733.76,2.242.44,1.526.082,1.732-1.343-2.319-1.343-2.319.62,2.206.33,2.466-1.492-2.431-1.492-2.431a15.132,15.132,0,0,1,.679,2.556c-.1.235-.4.119-.878-.636a8.5,8.5,0,0,1-.764-1.648,18.931,18.931,0,0,1,.4,1.89c-.019.218-.205.5-.789-.688a13.729,13.729,0,0,1-1.285-5.538Z" fill="#fb9391"/>
    <path id="Trazado_5661" data-name="Trazado 5661" d="M5402.727,8073.127a24.389,24.389,0,0,0,2.754-1.776c.661-.594,1.744-.679,1.548-1.156s-1.817.07-1.817.07.648-1.689.926-2.178.552-1.49.21-1.721-1.513,2.211-1.513,2.211.784-2.153.514-2.434-1.67,2.313-1.67,2.313a15.008,15.008,0,0,0,.868-2.5c-.08-.242-.392-.149-.922.568a8.443,8.443,0,0,0-.885,1.586,19.168,19.168,0,0,0,.544-1.854c0-.219-.166-.519-.838.627a13.723,13.723,0,0,0-1.695,5.427Z" fill="#fb9391"/>
    <path id="Trazado_5662" data-name="Trazado 5662" d="M5384.888,8077.937s4.829,5.785,8.765,5.151,9.285-10.206,9.285-10.206l-1.9-1.162s-5.931,6.487-8,6.073-5-3-5-3Z" fill="#fb9391"/>
  </g>
</svg>
