<svg xmlns="http://www.w3.org/2000/svg" xmlns:xlink="http://www.w3.org/1999/xlink" width="803.116" height="489.363" viewBox="0 0 803.116 489.363">
  <defs>
    <clipPath id="clip-path">
      <path id="Trazado_4292" data-name="Trazado 4292" d="M6840.406,10160.637c0-45.156-23.063-70.815,15.869-87.734,7.648-3.324,37.1-55.733,45.537-57.25,6.358-1.145,59.336-6.126,66.024-6.126,10.52,0,13.1,22.964,22.734,25.723,38.556,11.042,107.766,30.53,116.4,70.044,1.659,7.594-36.964,44.892-36.964,52.984,0,5.057-10.071,12.393-10.732,17.269a109.981,109.981,0,0,1-157.6,83.685l-6.91-3.726-9.039-5.361-7.993-6.963s-10.293,30.784-10.633,29.082-5.483-30.818-5.483-30.818l6.2-8.19A109.514,109.514,0,0,1,6840.406,10160.637Z" fill="none"/>
    </clipPath>
  </defs>
  <g id="Grupo_3435" data-name="Grupo 3435" transform="translate(-360.442 -10011.555)">
    <rect id="Rectángulo_905" data-name="Rectángulo 905" width="803.116" height="257.569" rx="12" transform="translate(360.442 10243.349)" fill="#414651" opacity="0.2"/>
    <path id="Trazado_4247" data-name="Trazado 4247" d="M6951.449,10025.64q-6.59,0-13.147.646t-13.02,1.931q-6.462,1.286-12.768,3.2t-12.393,4.434q-6.087,2.522-11.9,5.627t-11.29,6.768q-5.48,3.661-10.572,7.841t-9.753,8.839q-4.659,4.661-8.839,9.753t-7.841,10.572q-3.662,5.48-6.767,11.29t-5.628,11.9q-2.522,6.086-4.434,12.393t-3.2,12.768q-1.285,6.463-1.932,13.021t-.645,13.146q0,6.589.645,13.146t1.932,13.02q1.285,6.463,3.2,12.769t4.434,12.393q2.521,6.088,5.628,11.9t6.767,11.289q3.66,5.479,7.841,10.572t8.839,9.753q4.659,4.66,9.753,8.84t10.572,7.84q5.478,3.661,11.29,6.767t11.9,5.628q6.089,2.522,12.393,4.435t12.768,3.2q6.463,1.285,13.02,1.932t13.147.646q6.589,0,13.146-.646t13.02-1.932q6.463-1.285,12.768-3.2t12.393-4.435q6.089-2.521,11.9-5.628t11.29-6.767q5.479-3.661,10.572-7.84t9.753-8.84q4.659-4.66,8.839-9.753t7.841-10.572q3.66-5.479,6.767-11.289t5.627-11.9q2.523-6.088,4.435-12.393t3.2-12.769q1.285-6.463,1.931-13.02t.646-13.146q0-6.589-.646-13.146T7083,10133.6q-1.285-6.463-3.2-12.768t-4.435-12.393q-2.521-6.089-5.627-11.9t-6.767-11.29q-3.662-5.479-7.841-10.572t-8.839-9.753q-4.659-4.658-9.753-8.839t-10.572-7.841q-5.479-3.661-11.29-6.768t-11.9-5.627q-6.087-2.521-12.393-4.434t-12.768-3.2q-6.462-1.285-13.02-1.931T6951.449,10025.64Z" transform="translate(-6198.492 6.629)" fill="#414651"/>
    <circle id="Elipse_39" data-name="Elipse 39" cx="119.699" cy="119.699" r="119.699" transform="translate(632.166 10047.787)" fill="#fff"/>
    <g id="Grupo_544" data-name="Grupo 544" transform="translate(-6199.492 6.629)">
      <g id="Grupo_517" data-name="Grupo 517">
        <g id="Grupo_516" data-name="Grupo 516">
          <g id="Grupo_515" data-name="Grupo 515">
            <circle id="Elipse_40" data-name="Elipse 40" cx="109.934" cy="109.934" r="109.934" transform="translate(6794.886 10160.396) rotate(-45)" fill="#e6b54a"/>
          </g>
        </g>
      </g>
      <g id="Grupo_543" data-name="Grupo 543">
        <g id="Grupo_542" data-name="Grupo 542" clip-path="url(#clip-path)">
          <g id="Grupo_541" data-name="Grupo 541">
            <path id="Trazado_4248" data-name="Trazado 4248" d="M7006.075,10123.806s13.951,6.282,35.522,61.171c0,0,8.978,22.475-44.42,51.787,0,0-6.069-5.732-4.886-16.385l24.81-27.83-19.8-25.7S6994.993,10136,7006.075,10123.806Z" fill="#252526"/>
            <ellipse id="Elipse_41" data-name="Elipse 41" cx="83.65" cy="9.069" rx="83.65" ry="9.069" transform="translate(6872.577 10463.943)" opacity="0.1"/>
            <g id="Grupo_518" data-name="Grupo 518">
              <path id="Trazado_4249" data-name="Trazado 4249" d="M6930.62,10468.109h-30.407s-1.787-8.09,4.559-18.76l20.488.259S6931.154,10457.973,6930.62,10468.109Z" fill="#2c2d2f"/>
              <rect id="Rectángulo_906" data-name="Rectángulo 906" width="30.407" height="4.801" transform="translate(6900.351 10468.108)" fill="#1b1c1c"/>
              <path id="Trazado_4250" data-name="Trazado 4250" d="M6903.947,10459.643c0,2.08,5.136,3.768,11.47,3.768s11.469-1.687,11.469-3.768-5.135-3.767-11.469-3.767S6903.947,10457.562,6903.947,10459.643Z" fill="#4a4b4d"/>
            </g>
            <g id="Grupo_519" data-name="Grupo 519">
              <path id="Trazado_4251" data-name="Trazado 4251" d="M6960.894,10447.488s-2.355,12.085-.578,20.621h57.259s1.956-12.428-22.939-12.4l-15.971-10.795Z" fill="#2c2d2f"/>
              <path id="Trazado_4252" data-name="Trazado 4252" d="M6960.632,10472.91h19.534l.233-3.317a52.137,52.137,0,0,0,18.5,3.216c5.279,0,18.816.2,18.816.2v-4.9h-57.081Z" fill="#1b1c1c"/>
              <path id="Trazado_4253" data-name="Trazado 4253" d="M6996.244,10455.781s.841,8.821,20.6,8.4C7016.844,10464.184,7014.122,10456.153,6996.244,10455.781Z" fill="#4a4b4d"/>
            </g>
            <g id="Grupo_521" data-name="Grupo 521">
              <g id="Grupo_520" data-name="Grupo 520">
                <path id="Trazado_4254" data-name="Trazado 4254" d="M6989.3,10241.386l1.067,207.964s-15.559,7.817-30.229,1.717l-5.606-165.547-4.331-.2-21.182,165.771s-11.2,5.029-27.74-1.068l16.787-208.634Z" fill="#2c2d2f"/>
                <path id="Trazado_4255" data-name="Trazado 4255" d="M6989.958,10372.962l.41,76.44s-15.559,7.792-30.229,1.689l-3.463-102.263C6964.888,10381.493,6982.73,10376.55,6989.958,10372.962Z" fill="#1b1c1c"/>
                <path id="Trazado_4256" data-name="Trazado 4256" d="M6908.786,10360.859c10.989,29.8,25.525,10.678,31.761.02l-11.527,90.213s-11.2,5.078-27.74-1.019Z" fill="#1b1c1c"/>
              </g>
              <path id="Trazado_4257" data-name="Trazado 4257" d="M6918.067,10241.386H6989.3l.205,39.791a101.7,101.7,0,0,1-34.94,5.3l-.033-.953-4.331-.2-.127,1a123.862,123.862,0,0,1-35.044-7.188Z" fill="#1b1c1c"/>
            </g>
            <g id="Grupo_523" data-name="Grupo 523">
              <path id="Trazado_4258" data-name="Trazado 4258" d="M6964.14,10106.82s-10.8-5.8-26.362.066l-3.828,9.136h33.341Z" fill="#b7babe"/>
              <path id="Trazado_4259" data-name="Trazado 4259" d="M6966.891,10113.711s-13.345-3-31.874,0l18.8,49.79Z" fill="#e4a083"/>
              <g id="Grupo_522" data-name="Grupo 522">
                <path id="Trazado_4260" data-name="Trazado 4260" d="M6961.774,10106.379l.362,13.2-21.863.6-.472-17.169A43.022,43.022,0,0,0,6961.774,10106.379Z" fill="#e4a083"/>
                <path id="Trazado_4261" data-name="Trazado 4261" d="M6939.8,10103.009l-.364-13.227,21.864-.6.473,17.2A43.022,43.022,0,0,1,6939.8,10103.009Z" fill="#d78b73"/>
              </g>
              <path id="Trazado_4262" data-name="Trazado 4262" d="M6944.63,10119.756a3.746,3.746,0,0,1,2.056,2.734c.143,1.151-.921,6.669.813,10.136s6.856,21.272,6.856,21.272,2.134-18.8,2.934-21.339.533-7.469-.667-9.2.667-3.6.667-3.6l9.114-7.646,8.423,4.512s2.843,40.377-18.438,94.663c0,0-25.55-55.031-31.952-93.8l12.134-5.379Z" fill="#e7e9ed"/>
              <path id="Trazado_4263" data-name="Trazado 4263" d="M6896.479,10123.346s17.837-4.729,33-8.035c3.548,33.254,26.025,89,26.025,89s17.326-70.418,17.61-89c6.9,1.088,24.008,5.509,32.957,8.5,0,0-1.619,13.733-13.285,62.175,0,0-2.854,58.214-1.674,85.1-3.02,3.245-13.556,6.045-23.558,4.707-9.2-1.231-11.825-26.224-11.825-26.224s-3.353,24.467-13.534,25.492c-10.65,1.073-16.518-.331-28.435-4.865-.413-12.759,3.887-63.072-1.061-83.067C6912.7,10187.126,6900.342,10139.54,6896.479,10123.346Z" fill="#2c2d2f"/>
              <path id="Trazado_4264" data-name="Trazado 4264" d="M6931.145,10114.515l5.425-2.4,8.06,7.646a3.829,3.829,0,0,1,.446.27l-8.192,11.2S6932.393,10125.709,6931.145,10114.515Z" fill="#cacccf"/>
              <path id="Trazado_4265" data-name="Trazado 4265" d="M6957.041,10120.045c.143-.182.248-.289.248-.289l9.114-7.646,4.186,2.241c-.074,2.739-.569,10.6-6.232,17.23Z" fill="#cacccf"/>
              <path id="Trazado_4266" data-name="Trazado 4266" d="M6964.14,10106.687l5.552,5.6s.5,7.335-5.552,15.07l-6.851-7.6A22.118,22.118,0,0,0,6964.14,10106.687Z" fill="#eceff2"/>
              <path id="Trazado_4267" data-name="Trazado 4267" d="M6937.778,10106.687l-5.552,5.6s-.5,7.335,5.552,15.07l6.852-7.6A22.116,22.116,0,0,1,6937.778,10106.687Z" fill="#eceff2"/>
              <path id="Trazado_4268" data-name="Trazado 4268" d="M6970.225,10113.177l5.712,2.646s2.527,9.8,5.21,31.407l-7.448,3.467,5.329,5.211s-12.518,33.731-23.063,51.069c0,0-20.682-30.407-28.15-49.879l4.866-7.2-8.956-2.667s1.015-24.3,2.619-31.224l4.8-2.83s2.911,29.239,24.443,86.6C6955.588,10199.776,6971.559,10136.205,6970.225,10113.177Z" fill="#1b1c1c"/>
              <rect id="Rectángulo_907" data-name="Rectángulo 907" width="2.134" height="19.204" transform="matrix(0.07, -0.998, 0.998, 0.07, 6921.362, 10247.645)" fill="#1b1c1c"/>
              <rect id="Rectángulo_908" data-name="Rectángulo 908" width="19.205" height="2.134" transform="matrix(1, -0.015, 0.015, 1, 6913.93, 10152.44)" fill="#1b1c1c"/>
              <rect id="Rectángulo_909" data-name="Rectángulo 909" width="19.204" height="2.134" transform="translate(6968.308 10246.844) rotate(-3.902)" fill="#1b1c1c"/>
            </g>
            <g id="Grupo_524" data-name="Grupo 524">
              <path id="Trazado_4269" data-name="Trazado 4269" d="M6904.685,10223.673l4.6-3.6,3.632.548c3.335-1.272,4.716-3.581,6.4-3.929a14.89,14.89,0,0,0,4.245-2.263c1.68,2.288-1.238,4.986-1.238,4.986.233-.059.466-.12.7-.181.575-.147,1.152-.3,1.728-.444.735-.185,1.467-.383,2.2-.565.712-.176,1.417-.379,2.133-.543a12.625,12.625,0,0,1,1.67-.32,7.12,7.12,0,0,1,1.747.122c.73.106,4.6,1.26,5.245,1.373.3.051.925.155.925.157a2.552,2.552,0,0,1,.083,2.175c-.588,1.215-2.313,1.282-3.2,1.177a15.005,15.005,0,0,1-2.2-.536,1.788,1.788,0,0,0-1.367-.137,14.952,14.952,0,0,0-1.611.454q-1.752.486-3.5,1l-.8.231s5.772.749,7.578,1.159c1.353.3,5.292,3.725,5.292,3.725,2.845,2.44-1.349,3.659-1.349,3.659a1.782,1.782,0,0,1,.556,1,1.1,1.1,0,0,1-.352.741,2.683,2.683,0,0,1-1.116.665,4.224,4.224,0,0,1-2.327.258,5.215,5.215,0,0,1-.657-.188c-.211-.073-.421-.158-.628-.247-.264-.112-.522-.235-.782-.362a20.825,20.825,0,0,1-2.356-1.294c-.091-.062-.3-.274-.414-.273l-4.449-.03c1.539.74,3.225,3.371,5.316,4.508a4.021,4.021,0,0,1,.9.63,1.379,1.379,0,0,1,.514,1.013c-.031.389-.382.521-.644.639a4.443,4.443,0,0,1-2.684.251,5.62,5.62,0,0,1-1.392-.457,6.5,6.5,0,0,1-.96-.561,3.747,3.747,0,0,1-.4-.31c-2.849-2.857-5.931-4.2-9.676-2.017-5.4,3.152-10.176-4.889-10.176-4.889Z" fill="#e4a083"/>
              <path id="Trazado_4270" data-name="Trazado 4270" d="M6894.107,10225.369l8.145,5.892c10.081-1.769,11.77-11.566,11.77-11.566-1.917-2.355-4.772-4.923-6.583-6.957C6906.386,10216.252,6903.273,10221.978,6894.107,10225.369Z" fill="#e7e9ed"/>
              <path id="Trazado_4271" data-name="Trazado 4271" d="M6896.479,10123.346s-9.374,1.2-34.114,54.734c0,0-12.672,19.313,32.579,48.709,0,0,13.81-4.079,13.25-14.783l-21.816-24.937,22.608-25.3S6906.83,10136.16,6896.479,10123.346Z" fill="#2c2d2f"/>
            </g>
            <g id="Grupo_540" data-name="Grupo 540">
              <g id="Grupo_533" data-name="Grupo 533">
                <path id="Trazado_4272" data-name="Trazado 4272" d="M6978.807,10054.076s10.712-14.552,10.712-17.113-12.993-24.477-17.833-20.32-6.977,9.758-25.647,4.823c0,0-5.332-2-10.4,3.067s-11.2,8.1-9.6,12.453c0,0-6.59,4.174-5.562,9.6s4.5,20.92,4.5,20.92l19.75,9.843Z" fill="#b55f30"/>
                <path id="Trazado_4273" data-name="Trazado 4273" d="M6933.06,10048.539c2.134-5.779-7.024-11.553-7.024-11.553,16.983,9.162,34.32,1.149,47.015-5.4s16.468,5.374,16.468,5.374c0,2.562-10.712,17.113-10.712,17.113l-34.088,23.27-19.75-9.843s-1.862-8.328-3.263-14.91C6926.176,10052.867,6931.765,10052.048,6933.06,10048.539Z" fill="#984a29"/>
                <path id="Trazado_4274" data-name="Trazado 4274" d="M6964.431,10040.937a51.845,51.845,0,0,0,8.906-3.689c4.712-2.489,6.614-4.276,9.6-3.112,5.646,2.2-6.757,16.36-6.757,16.36Z" fill="#853f24"/>
                <g id="Grupo_532" data-name="Grupo 532">
                  <g id="Grupo_525" data-name="Grupo 525">
                    <path id="Trazado_4275" data-name="Trazado 4275" d="M6924.594,10042.9c4.575,0,5.8-3.09,5.817-3.126a.4.4,0,1,0-.747-.285h0c-.06.153-1.536,3.745-7.866,2.257a.4.4,0,0,0-.184.779A13.073,13.073,0,0,0,6924.594,10042.9Z" fill="#984a29"/>
                  </g>
                  <g id="Grupo_526" data-name="Grupo 526">
                    <path id="Trazado_4276" data-name="Trazado 4276" d="M6923.469,10049.158c8.322,0,10.4-6.839,10.42-6.914a.4.4,0,0,0-.769-.222c-.088.3-2.285,7.455-11.8,6.187a.4.4,0,0,0-.107.793A16.9,16.9,0,0,0,6923.469,10049.158Z" fill="#984a29"/>
                  </g>
                  <g id="Grupo_527" data-name="Grupo 527">
                    <path id="Trazado_4277" data-name="Trazado 4277" d="M6936.573,10041.475c16.492,0,29.985-7.623,34.7-12.529,6.614-6.891,11.778-2.128,11.994-1.921a.4.4,0,0,0,.552-.58c-.058-.057-5.964-5.512-13.123,1.945-4.709,4.905-18.4,12.578-35.063,12.276a.4.4,0,1,0-.014.8Q6936.095,10041.475,6936.573,10041.475Z" fill="#984a29"/>
                  </g>
                  <g id="Grupo_528" data-name="Grupo 528">
                    <path id="Trazado_4278" data-name="Trazado 4278" d="M6930.87,10039.887l.036,0c28.419-2.491,36.989-12.7,40.648-17.062a5.644,5.644,0,0,1,3.994-2.315,5.576,5.576,0,0,1,3.754,1.476.4.4,0,1,0,.562-.568,6.3,6.3,0,0,0-4.353-1.706,6.4,6.4,0,0,0-4.57,2.6c-3.6,4.284-12.016,14.317-40.1,16.779a.4.4,0,0,0,.034.8Z" fill="#984a29"/>
                  </g>
                  <g id="Grupo_529" data-name="Grupo 529">
                    <path id="Trazado_4279" data-name="Trazado 4279" d="M6928.424,10038.562l.053,0c28.38-3.688,36.47-15.181,36.8-15.669a.4.4,0,1,0-.662-.448c-.08.116-8.265,11.688-36.242,15.324a.4.4,0,0,0,.051.8Z" fill="#984a29"/>
                  </g>
                  <g id="Grupo_530" data-name="Grupo 530">
                    <path id="Trazado_4280" data-name="Trazado 4280" d="M6927.387,10037.892a.4.4,0,0,0,.11-.016c23.675-6.773,23-14.627,22.962-14.958a.4.4,0,0,0-.795.093c.008.1.449,7.563-22.387,14.1a.4.4,0,0,0,.11.784Z" fill="#984a29"/>
                  </g>
                  <g id="Grupo_531" data-name="Grupo 531">
                    <path id="Trazado_4281" data-name="Trazado 4281" d="M6926.62,10037.253a.383.383,0,0,0,.136-.024c13.416-4.856,11.774-13.981,11.755-14.073a.4.4,0,1,0-.784.154c.066.348,1.5,8.555-11.243,13.167a.4.4,0,0,0,.136.776Z" fill="#984a29"/>
                  </g>
                </g>
              </g>
              <g id="Grupo_539" data-name="Grupo 539">
                <g id="Grupo_534" data-name="Grupo 534">
                  <path id="Trazado_4282" data-name="Trazado 4282" d="M6927.342,10065.343l3.437,2.9c.721-1.716,1.5-9.413,2.459-11.018,4.713-7.885,1.779-14.439,1.779-14.439,20.182,2.643,26.063-2.57,32.185-1.892,8.407.932,10.2,5.934,10.2,5.934,2.123,7.913,1.493,11.938,1.493,11.938.016,9.377.212,25.3-6.234,34.813-2.719,4.013-6.155,7.38-11.921,8.283-25.117,3.933-31.573-20.641-31.573-20.641s-7.872,2.1-9.476-9.507C6918.36,10062.1,6927.342,10065.343,6927.342,10065.343Z" fill="#e4a083"/>
                  <path id="Trazado_4283" data-name="Trazado 4283" d="M6960.533,10045.445c-10.579,3.627-20.093.031-23.027-.972a12.763,12.763,0,0,1-3.372,11.076c3.406-7.117.883-12.766.883-12.766,20.182,2.643,26.063-2.57,32.185-1.892,8.407.932,10.2,5.934,10.2,5.934.1.364.184.711.27,1.059C6974.363,10045.852,6967.86,10042.934,6960.533,10045.445Z" fill="#d78b73"/>
                  <path id="Trazado_4284" data-name="Trazado 4284" d="M6931.077,10078.324c2.134,6.224,10.091,21.561,27.254,20.627,9.288-.5,14-6.633,17.1-10.911a25.235,25.235,0,0,1-2.767,5.537c-2.719,4.013-6.155,7.38-11.921,8.283-25.117,3.933-31.573-20.641-31.573-20.641s-6.026,1.684-8.693-6C6925.161,10083.014,6931.077,10078.324,6931.077,10078.324Z" fill="#d78b73"/>
                </g>
                <path id="Trazado_4285" data-name="Trazado 4285" d="M6965.1,10068.373c.021,2.16,1.333,3.81,2.931,3.681s2.874-1.983,2.853-4.145-1.333-3.811-2.93-3.683S6965.08,10066.211,6965.1,10068.373Z" fill="#4a332b"/>
                <path id="Trazado_4286" data-name="Trazado 4286" d="M6943.147,10067.734c.021,2.16,1.333,3.811,2.931,3.682s2.876-1.984,2.854-4.145-1.335-3.811-2.931-3.683S6943.125,10065.573,6943.147,10067.734Z" fill="#4a332b"/>
                <g id="Grupo_535" data-name="Grupo 535">
                  <path id="Trazado_4287" data-name="Trazado 4287" d="M6957.317,10080.637c4.857,1.963,7.475-.322,7.67-2.62a3.293,3.293,0,0,0-2.158-3.388c-2.959-1.155-5.045-5.706-5.066-5.753h0a9.759,9.759,0,0,0,4.8,7.163c.812.472,1.317.97,1.256,1.71-.109,1.288-1.971,3.211-6.5,2.888Z" fill="#c47b66"/>
                </g>
                <g id="Grupo_536" data-name="Grupo 536">
                  <path id="Trazado_4288" data-name="Trazado 4288" d="M6974.972,10059.651l.212-2.334a24.631,24.631,0,0,0-11.212-1.428l-.052,3.66C6968.739,10058.413,6974.894,10059.641,6974.972,10059.651Z" fill="#984a29"/>
                </g>
                <g id="Grupo_537" data-name="Grupo 537">
                  <path id="Trazado_4289" data-name="Trazado 4289" d="M6939.159,10059.938c4.072-1.744,11.347-.941,11.417-.954l-.251-3.4c-.292.044-6.886-.727-11.518,2.25Z" fill="#984a29"/>
                </g>
                <g id="Grupo_538" data-name="Grupo 538">
                  <path id="Trazado_4290" data-name="Trazado 4290" d="M6948.874,10084.014s9.141,1.867,17.64,0c0,0-1.506,7.818-8.82,7.8C6950.8,10091.8,6948.954,10085.526,6948.874,10084.014Z" fill="#fff"/>
                </g>
              </g>
            </g>
            <path id="Trazado_4291" data-name="Trazado 4291" d="M6976.479,10224.626s14.381-4.983,14.432-5.031l-10.378.31a3.774,3.774,0,0,1-3.654-1.862,1.512,1.512,0,0,1,.3-1.924l14.073-.856a3.8,3.8,0,0,1,3.281,2.561c.045.133,1.424-1.275,5.136,14.5,1.078,4.578-4.107,6.312-4.107,6.312-4.307,1.392-5.707-.889-6.239-2.567l-4.468,1.884a5.763,5.763,0,0,1-3.7.294c-1.382-.726-1.273-1.382-1.273-1.382s11.384-6.6,11.331-6.848l-9.269,2.736a4.211,4.211,0,0,1-4.183-.031c-1.161-.83-1.259-1.422-1.037-1.686l12.371-5.357-8.8,1.938c-1.47.033-2.5-.107-3.421-1.1A2.377,2.377,0,0,1,6976.479,10224.626Z" fill="#e4a083"/>
          </g>
        </g>
      </g>
    </g>
    <text id="Estimado_aprendiz_hemos_estado_indagando_sobre_diferentes_normatividades_y_nos_hemos_podido_dar_cuenta_que_constantemente_están_en_modificación_por_lo_que_usted_debe_estar_continuamente_actualizándose_en_el_tema._A_continuación_podemos_encontrar_una_d" data-name="Estimado aprendiz, hemos estado indagando sobre diferentes normatividades y nos hemos podido dar cuenta que constantemente están en modificación, por lo que usted debe estar continuamente actualizándose en el tema. 

A continuación, podemos encontrar una d" transform="translate(382.318 10314.742)" fill="#444242" font-size="16" font-family="OpenSans, Open Sans"><tspan x="0" y="17">Estimado aprendiz, hemos estado indagando sobre diferentes normatividades y nos hemos podido </tspan><tspan x="0" y="39">dar cuenta que constantemente están en modificación, por lo que usted debe estar continuamente </tspan><tspan x="0" y="61">actualizándose en el tema. </tspan><tspan x="0" y="83"></tspan><tspan x="0" y="105">A continuación, podemos encontrar una de esas modificaciones. </tspan><tspan font-family="OpenSans-Bold, Open Sans" font-weight="700"><tspan x="0" y="127"></tspan></tspan></text>
  </g>
</svg>
