<svg xmlns="http://www.w3.org/2000/svg" xmlns:xlink="http://www.w3.org/1999/xlink" width="803.116" height="419.187" viewBox="0 0 803.116 419.187">
  <defs>
    <clipPath id="clip-path">
      <path id="Trazado_4246" data-name="Trazado 4246" d="M6815.406,756.074c0-45.156-23.063-70.816,15.869-87.735,7.648-3.324,37.1-55.732,45.537-57.249,6.358-1.144,59.336-6.126,66.024-6.126,10.52,0,13.1,22.964,22.734,25.723,38.556,11.042,107.766,30.53,116.4,70.044,1.659,7.594-36.964,44.892-36.964,52.984,0,5.056-10.071,12.393-10.732,17.269a109.979,109.979,0,0,1-157.6,83.683l-6.91-3.724-9.039-5.361-7.993-6.963S6842.438,869.4,6842.1,867.7s-5.483-30.819-5.483-30.819l6.2-8.191A109.511,109.511,0,0,1,6815.406,756.074Z" fill="none"/>
    </clipPath>
  </defs>
  <g id="Grupo_3436" data-name="Grupo 3436" transform="translate(-335.442 -606.992)">
    <rect id="Rectángulo_898" data-name="Rectángulo 898" width="803.116" height="182.209" rx="12" transform="translate(335.442 838.786)" fill="#414651" opacity="0.2"/>
    <path id="Trazado_4201" data-name="Trazado 4201" d="M6926.449,621.078q-6.59,0-13.147.646t-13.02,1.931q-6.462,1.285-12.768,3.2t-12.393,4.434q-6.087,2.523-11.9,5.628t-11.29,6.767q-5.48,3.66-10.572,7.841t-9.753,8.839q-4.659,4.659-8.839,9.753t-7.841,10.572q-3.662,5.478-6.767,11.29t-5.628,11.9q-2.522,6.089-4.434,12.394t-3.2,12.768q-1.285,6.462-1.932,13.02t-.645,13.146q0,6.59.645,13.147t1.932,13.02q1.285,6.462,3.2,12.768t4.434,12.393q2.521,6.087,5.628,11.9t6.767,11.29q3.66,5.478,7.841,10.572t8.839,9.753q4.659,4.659,9.753,8.839t10.572,7.841q5.478,3.661,11.29,6.767t11.9,5.628q6.089,2.521,12.393,4.434t12.768,3.2q6.463,1.285,13.02,1.932t13.147.646q6.589,0,13.146-.646t13.02-1.932q6.463-1.285,12.768-3.2t12.393-4.434q6.089-2.522,11.9-5.628t11.29-6.767q5.479-3.66,10.572-7.841t9.753-8.839q4.659-4.659,8.839-9.753t7.841-10.572q3.66-5.478,6.767-11.29t5.627-11.9q2.523-6.089,4.435-12.393t3.2-12.768q1.285-6.464,1.931-13.02t.646-13.147q0-6.59-.646-13.146T7058,729.037q-1.285-6.463-3.2-12.768t-4.435-12.394q-2.521-6.087-5.627-11.9t-6.767-11.29q-3.662-5.478-7.841-10.572t-8.839-9.753q-4.659-4.659-9.753-8.839t-10.572-7.841q-5.479-3.66-11.29-6.767t-11.9-5.628q-6.087-2.521-12.393-4.434t-12.768-3.2q-6.462-1.286-13.02-1.931T6926.449,621.078Z" transform="translate(-6198.492 6.629)" fill="#414651"/>
    <circle id="Elipse_36" data-name="Elipse 36" cx="119.699" cy="119.699" r="119.699" transform="translate(607.166 643.225)" fill="#fff"/>
    <g id="Grupo_514" data-name="Grupo 514" transform="translate(-6198.492 6.629)">
      <g id="Grupo_487" data-name="Grupo 487">
        <g id="Grupo_486" data-name="Grupo 486">
          <g id="Grupo_485" data-name="Grupo 485">
            <circle id="Elipse_37" data-name="Elipse 37" cx="109.934" cy="109.934" r="109.934" transform="translate(6769.886 755.834) rotate(-45)" fill="#e6b54a"/>
          </g>
        </g>
      </g>
      <g id="Grupo_513" data-name="Grupo 513">
        <g id="Grupo_512" data-name="Grupo 512" clip-path="url(#clip-path)">
          <g id="Grupo_511" data-name="Grupo 511">
            <path id="Trazado_4202" data-name="Trazado 4202" d="M6981.075,719.244s13.951,6.282,35.522,61.171c0,0,8.978,22.474-44.42,51.787,0,0-6.069-5.733-4.886-16.385l24.81-27.83-19.8-25.7S6969.993,731.432,6981.075,719.244Z" fill="#252526"/>
            <ellipse id="Elipse_38" data-name="Elipse 38" cx="83.65" cy="9.069" rx="83.65" ry="9.069" transform="translate(6847.577 1059.381)" opacity="0.1"/>
            <g id="Grupo_488" data-name="Grupo 488">
              <path id="Trazado_4203" data-name="Trazado 4203" d="M6905.62,1063.546h-30.407s-1.787-8.089,4.559-18.758l20.488.258S6906.154,1053.411,6905.62,1063.546Z" fill="#2c2d2f"/>
              <rect id="Rectángulo_899" data-name="Rectángulo 899" width="30.407" height="4.801" transform="translate(6875.351 1063.547)" fill="#1b1c1c"/>
              <path id="Trazado_4204" data-name="Trazado 4204" d="M6878.947,1055.081c0,2.08,5.136,3.766,11.47,3.766s11.469-1.686,11.469-3.766-5.135-3.768-11.469-3.768S6878.947,1053,6878.947,1055.081Z" fill="#4a4b4d"/>
            </g>
            <g id="Grupo_489" data-name="Grupo 489">
              <path id="Trazado_4205" data-name="Trazado 4205" d="M6935.894,1042.925s-2.355,12.086-.578,20.621h57.259s1.956-12.426-22.939-12.4l-15.971-10.8Z" fill="#2c2d2f"/>
              <path id="Trazado_4206" data-name="Trazado 4206" d="M6935.632,1068.348h19.534l.233-3.317a52.136,52.136,0,0,0,18.5,3.216c5.279,0,18.816.2,18.816.2v-4.9h-57.081Z" fill="#1b1c1c"/>
              <path id="Trazado_4207" data-name="Trazado 4207" d="M6971.244,1051.218s.841,8.822,20.6,8.4C6991.844,1059.622,6989.122,1051.59,6971.244,1051.218Z" fill="#4a4b4d"/>
            </g>
            <g id="Grupo_491" data-name="Grupo 491">
              <g id="Grupo_490" data-name="Grupo 490">
                <path id="Trazado_4208" data-name="Trazado 4208" d="M6964.3,836.824l1.067,207.964s-15.559,7.817-30.229,1.716l-5.606-165.547-4.331-.2-21.182,165.772s-11.2,5.029-27.74-1.068l16.787-208.634Z" fill="#2c2d2f"/>
                <path id="Trazado_4209" data-name="Trazado 4209" d="M6964.958,968.4l.41,76.44s-15.559,7.791-30.229,1.69l-3.463-102.263C6939.888,976.93,6957.73,971.987,6964.958,968.4Z" fill="#1b1c1c"/>
                <path id="Trazado_4210" data-name="Trazado 4210" d="M6883.786,956.3c10.989,29.8,25.525,10.678,31.761.02l-11.527,90.213s-11.2,5.078-27.74-1.019Z" fill="#1b1c1c"/>
              </g>
              <path id="Trazado_4211" data-name="Trazado 4211" d="M6893.067,836.824H6964.3l.205,39.791a101.707,101.707,0,0,1-34.94,5.3l-.033-.954-4.331-.2-.127,1a123.8,123.8,0,0,1-35.044-7.187Z" fill="#1b1c1c"/>
            </g>
            <g id="Grupo_493" data-name="Grupo 493">
              <path id="Trazado_4212" data-name="Trazado 4212" d="M6939.14,702.258s-10.8-5.8-26.362.066l-3.828,9.136h33.341Z" fill="#b7babe"/>
              <path id="Trazado_4213" data-name="Trazado 4213" d="M6941.891,709.148s-13.345-2.994-31.874,0l18.8,49.79Z" fill="#e4a083"/>
              <g id="Grupo_492" data-name="Grupo 492">
                <path id="Trazado_4214" data-name="Trazado 4214" d="M6936.774,701.817l.362,13.2-21.863.6-.472-17.17A43.017,43.017,0,0,0,6936.774,701.817Z" fill="#e4a083"/>
                <path id="Trazado_4215" data-name="Trazado 4215" d="M6914.8,698.446l-.364-13.226,21.864-.6.473,17.2A43.017,43.017,0,0,1,6914.8,698.446Z" fill="#d78b73"/>
              </g>
              <path id="Trazado_4216" data-name="Trazado 4216" d="M6919.63,715.194a3.744,3.744,0,0,1,2.056,2.734c.143,1.152-.921,6.668.813,10.136s6.856,21.272,6.856,21.272,2.134-18.8,2.934-21.339.533-7.468-.667-9.2.667-3.6.667-3.6l9.114-7.646,8.423,4.512s2.843,40.377-18.438,94.662c0,0-25.55-55.03-31.952-93.795l12.134-5.379Z" fill="#e7e9ed"/>
              <path id="Trazado_4217" data-name="Trazado 4217" d="M6871.479,718.784s17.837-4.73,33-8.035c3.548,33.252,26.025,89,26.025,89s17.326-70.417,17.61-89c6.9,1.087,24.008,5.508,32.957,8.495,0,0-1.619,13.732-13.285,62.173,0,0-2.854,58.215-1.674,85.1-3.02,3.245-13.556,6.046-23.558,4.707C6933.361,870,6930.733,845,6930.733,845s-3.353,24.467-13.534,25.493c-10.65,1.073-16.518-.331-28.435-4.866-.413-12.758,3.887-63.072-1.061-83.067C6887.7,782.564,6875.342,734.978,6871.479,718.784Z" fill="#2c2d2f"/>
              <path id="Trazado_4218" data-name="Trazado 4218" d="M6906.145,709.953l5.425-2.405,8.06,7.646a3.893,3.893,0,0,1,.446.269l-8.192,11.2S6907.393,721.146,6906.145,709.953Z" fill="#cacccf"/>
              <path id="Trazado_4219" data-name="Trazado 4219" d="M6932.041,715.482c.143-.181.248-.288.248-.288l9.114-7.646,4.186,2.242c-.074,2.739-.569,10.6-6.232,17.229Z" fill="#cacccf"/>
              <path id="Trazado_4220" data-name="Trazado 4220" d="M6939.14,702.124l5.552,5.6s.5,7.335-5.552,15.07l-6.851-7.6A22.12,22.12,0,0,0,6939.14,702.124Z" fill="#eceff2"/>
              <path id="Trazado_4221" data-name="Trazado 4221" d="M6912.778,702.124l-5.552,5.6s-.5,7.335,5.552,15.07l6.852-7.6A22.118,22.118,0,0,1,6912.778,702.124Z" fill="#eceff2"/>
              <path id="Trazado_4222" data-name="Trazado 4222" d="M6945.225,708.615l5.712,2.646s2.527,9.8,5.21,31.407l-7.448,3.467,5.329,5.211s-12.518,33.732-23.063,51.07c0,0-20.682-30.408-28.15-49.879l4.866-7.2-8.956-2.667s1.015-24.3,2.619-31.224l4.8-2.829s2.911,29.238,24.443,86.6C6930.588,795.214,6946.559,731.642,6945.225,708.615Z" fill="#1b1c1c"/>
              <rect id="Rectángulo_900" data-name="Rectángulo 900" width="2.134" height="19.204" transform="matrix(0.07, -0.998, 0.998, 0.07, 6896.362, 843.082)" fill="#1b1c1c"/>
              <rect id="Rectángulo_901" data-name="Rectángulo 901" width="19.205" height="2.134" transform="matrix(1, -0.015, 0.015, 1, 6888.93, 747.879)" fill="#1b1c1c"/>
              <rect id="Rectángulo_902" data-name="Rectángulo 902" width="19.204" height="2.134" transform="translate(6943.308 842.281) rotate(-3.902)" fill="#1b1c1c"/>
            </g>
            <g id="Grupo_494" data-name="Grupo 494">
              <path id="Trazado_4223" data-name="Trazado 4223" d="M6879.685,819.111l4.6-3.6,3.632.547c3.335-1.272,4.716-3.581,6.4-3.928a14.877,14.877,0,0,0,4.245-2.262c1.68,2.288-1.238,4.986-1.238,4.986.233-.059.466-.12.7-.181.575-.147,1.152-.3,1.728-.444.735-.185,1.467-.383,2.2-.566.712-.175,1.417-.378,2.133-.542a12.656,12.656,0,0,1,1.67-.321,7.144,7.144,0,0,1,1.747.122c.73.107,4.6,1.26,5.245,1.372.3.051.925.156.925.159a2.55,2.55,0,0,1,.083,2.174c-.588,1.215-2.313,1.283-3.2,1.177a15.169,15.169,0,0,1-2.2-.536,1.789,1.789,0,0,0-1.367-.137,15.079,15.079,0,0,0-1.611.454q-1.752.488-3.5,1l-.8.231s5.772.749,7.578,1.158c1.353.306,5.292,3.725,5.292,3.725,2.845,2.441-1.349,3.66-1.349,3.66a1.778,1.778,0,0,1,.556,1,1.1,1.1,0,0,1-.352.741,2.687,2.687,0,0,1-1.116.665,4.22,4.22,0,0,1-2.327.258,5.436,5.436,0,0,1-.657-.188c-.211-.074-.421-.159-.628-.247-.264-.113-.522-.236-.782-.363a20.729,20.729,0,0,1-2.356-1.294c-.091-.061-.3-.274-.414-.274l-4.449-.029c1.539.74,3.225,3.37,5.316,4.507a4.014,4.014,0,0,1,.9.63,1.378,1.378,0,0,1,.514,1.013c-.031.389-.382.52-.644.639a4.456,4.456,0,0,1-2.684.251,5.658,5.658,0,0,1-1.392-.457,6.457,6.457,0,0,1-.96-.562,3.638,3.638,0,0,1-.4-.309c-2.849-2.857-5.931-4.2-9.676-2.016-5.4,3.151-10.176-4.889-10.176-4.889Z" fill="#e4a083"/>
              <path id="Trazado_4224" data-name="Trazado 4224" d="M6869.107,820.807l8.145,5.891c10.081-1.768,11.77-11.566,11.77-11.566-1.917-2.356-4.772-4.923-6.583-6.958C6881.386,811.69,6878.273,817.416,6869.107,820.807Z" fill="#e7e9ed"/>
              <path id="Trazado_4225" data-name="Trazado 4225" d="M6871.479,718.784s-9.374,1.2-34.114,54.734c0,0-12.672,19.313,32.579,48.708,0,0,13.81-4.078,13.25-14.782l-21.816-24.937,22.608-25.3S6881.83,731.6,6871.479,718.784Z" fill="#2c2d2f"/>
            </g>
            <g id="Grupo_510" data-name="Grupo 510">
              <g id="Grupo_503" data-name="Grupo 503">
                <path id="Trazado_4226" data-name="Trazado 4226" d="M6953.807,649.513s10.712-14.551,10.712-17.112-12.993-24.477-17.833-20.321-6.977,9.758-25.647,4.823c0,0-5.332-2-10.4,3.068s-11.2,8.1-9.6,12.452c0,0-6.59,4.175-5.562,9.6s4.5,20.919,4.5,20.919l19.75,9.844Z" fill="#b55f30"/>
                <path id="Trazado_4227" data-name="Trazado 4227" d="M6908.06,643.977c2.134-5.78-7.024-11.554-7.024-11.554,16.983,9.163,34.32,1.151,47.015-5.4s16.468,5.374,16.468,5.374c0,2.561-10.712,17.112-10.712,17.112l-34.088,23.271-19.75-9.844s-1.862-8.327-3.263-14.91C6901.176,648.3,6906.765,647.486,6908.06,643.977Z" fill="#984a29"/>
                <path id="Trazado_4228" data-name="Trazado 4228" d="M6939.431,636.375a51.9,51.9,0,0,0,8.906-3.69c4.712-2.49,6.614-4.277,9.6-3.112,5.646,2.2-6.757,16.36-6.757,16.36Z" fill="#853f24"/>
                <g id="Grupo_502" data-name="Grupo 502">
                  <g id="Grupo_495" data-name="Grupo 495">
                    <path id="Trazado_4229" data-name="Trazado 4229" d="M6899.594,638.336c4.575,0,5.8-3.089,5.817-3.127a.4.4,0,0,0-.747-.284h0c-.06.154-1.536,3.745-7.866,2.256a.4.4,0,0,0-.184.779A13.008,13.008,0,0,0,6899.594,638.336Z" fill="#984a29"/>
                  </g>
                  <g id="Grupo_496" data-name="Grupo 496">
                    <path id="Trazado_4230" data-name="Trazado 4230" d="M6898.469,644.6c8.322,0,10.4-6.839,10.42-6.914a.4.4,0,0,0-.769-.223c-.088.3-2.285,7.457-11.8,6.188a.4.4,0,0,0-.107.793A17.137,17.137,0,0,0,6898.469,644.6Z" fill="#984a29"/>
                  </g>
                  <g id="Grupo_497" data-name="Grupo 497">
                    <path id="Trazado_4231" data-name="Trazado 4231" d="M6911.573,636.913c16.492,0,29.985-7.623,34.7-12.531,6.614-6.889,11.778-2.127,11.994-1.921a.4.4,0,1,0,.552-.58c-.058-.055-5.964-5.511-13.123,1.947-4.709,4.9-18.4,12.578-35.063,12.276a.4.4,0,0,0-.014.8Q6911.095,636.913,6911.573,636.913Z" fill="#984a29"/>
                  </g>
                  <g id="Grupo_498" data-name="Grupo 498">
                    <path id="Trazado_4232" data-name="Trazado 4232" d="M6905.87,635.324h.036c28.419-2.491,36.989-12.7,40.648-17.062a5.637,5.637,0,0,1,3.994-2.315,5.578,5.578,0,0,1,3.754,1.475.4.4,0,1,0,.562-.569,6.3,6.3,0,0,0-4.353-1.705,6.4,6.4,0,0,0-4.57,2.6c-3.6,4.285-12.016,14.318-40.1,16.78a.4.4,0,0,0,.034.8Z" fill="#984a29"/>
                  </g>
                  <g id="Grupo_499" data-name="Grupo 499">
                    <path id="Trazado_4233" data-name="Trazado 4233" d="M6903.424,634a.471.471,0,0,0,.053,0c28.38-3.689,36.47-15.181,36.8-15.669a.4.4,0,0,0-.662-.449c-.08.116-8.265,11.688-36.242,15.324a.4.4,0,0,0,.051.8Z" fill="#984a29"/>
                  </g>
                  <g id="Grupo_500" data-name="Grupo 500">
                    <path id="Trazado_4234" data-name="Trazado 4234" d="M6902.387,633.329a.385.385,0,0,0,.11-.015c23.675-6.773,23-14.627,22.962-14.958a.4.4,0,0,0-.795.092c.008.1.449,7.563-22.387,14.1a.4.4,0,0,0,.11.784Z" fill="#984a29"/>
                  </g>
                  <g id="Grupo_501" data-name="Grupo 501">
                    <path id="Trazado_4235" data-name="Trazado 4235" d="M6901.62,632.691a.4.4,0,0,0,.136-.024c13.416-4.857,11.774-13.983,11.755-14.074a.4.4,0,0,0-.784.154c.066.347,1.5,8.554-11.243,13.167a.4.4,0,0,0,.136.777Z" fill="#984a29"/>
                  </g>
                </g>
              </g>
              <g id="Grupo_509" data-name="Grupo 509">
                <g id="Grupo_504" data-name="Grupo 504">
                  <path id="Trazado_4236" data-name="Trazado 4236" d="M6902.342,660.781l3.437,2.9c.721-1.716,1.5-9.412,2.459-11.016,4.713-7.885,1.779-14.44,1.779-14.44,20.182,2.643,26.063-2.57,32.185-1.892,8.407.932,10.2,5.933,10.2,5.933,2.123,7.914,1.493,11.939,1.493,11.939.016,9.376.212,25.3-6.234,34.813-2.719,4.012-6.155,7.38-11.921,8.283-25.117,3.933-31.573-20.64-31.573-20.64s-7.872,2.1-9.476-9.507C6893.36,657.539,6902.342,660.781,6902.342,660.781Z" fill="#e4a083"/>
                  <path id="Trazado_4237" data-name="Trazado 4237" d="M6935.533,640.883c-10.579,3.627-20.093.032-23.027-.971a12.76,12.76,0,0,1-3.372,11.075c3.406-7.116.883-12.765.883-12.765,20.182,2.643,26.063-2.57,32.185-1.892,8.407.932,10.2,5.933,10.2,5.933.1.365.184.712.27,1.06C6949.363,641.29,6942.86,638.372,6935.533,640.883Z" fill="#d78b73"/>
                  <path id="Trazado_4238" data-name="Trazado 4238" d="M6906.077,673.762c2.134,6.223,10.091,21.561,27.254,20.627,9.288-.505,14-6.633,17.1-10.911a25.248,25.248,0,0,1-2.767,5.537c-2.719,4.012-6.155,7.38-11.921,8.283-25.117,3.933-31.573-20.64-31.573-20.64s-6.026,1.682-8.693-5.995C6900.161,678.452,6906.077,673.762,6906.077,673.762Z" fill="#d78b73"/>
                </g>
                <path id="Trazado_4239" data-name="Trazado 4239" d="M6940.1,663.811c.021,2.16,1.333,3.809,2.931,3.681s2.874-1.984,2.853-4.145-1.333-3.81-2.93-3.682S6940.08,661.649,6940.1,663.811Z" fill="#4a332b"/>
                <path id="Trazado_4240" data-name="Trazado 4240" d="M6918.147,663.172c.021,2.161,1.333,3.81,2.931,3.682s2.876-1.985,2.854-4.145-1.335-3.81-2.931-3.682S6918.125,661.011,6918.147,663.172Z" fill="#4a332b"/>
                <g id="Grupo_505" data-name="Grupo 505">
                  <path id="Trazado_4241" data-name="Trazado 4241" d="M6932.317,676.075c4.857,1.963,7.475-.323,7.67-2.62a3.293,3.293,0,0,0-2.158-3.388c-2.959-1.156-5.045-5.706-5.066-5.753h0a9.76,9.76,0,0,0,4.8,7.163c.812.472,1.317.97,1.256,1.71-.109,1.288-1.971,3.211-6.5,2.888Z" fill="#c47b66"/>
                </g>
                <g id="Grupo_506" data-name="Grupo 506">
                  <path id="Trazado_4242" data-name="Trazado 4242" d="M6949.972,655.088l.212-2.334a24.666,24.666,0,0,0-11.212-1.427l-.052,3.661C6943.739,653.85,6949.894,655.079,6949.972,655.088Z" fill="#984a29"/>
                </g>
                <g id="Grupo_507" data-name="Grupo 507">
                  <path id="Trazado_4243" data-name="Trazado 4243" d="M6914.159,655.375c4.072-1.743,11.347-.94,11.417-.953l-.251-3.4c-.292.044-6.886-.727-11.518,2.25Z" fill="#984a29"/>
                </g>
                <g id="Grupo_508" data-name="Grupo 508">
                  <path id="Trazado_4244" data-name="Trazado 4244" d="M6923.874,679.452s9.141,1.867,17.64,0c0,0-1.506,7.818-8.82,7.8C6925.8,687.239,6923.954,680.963,6923.874,679.452Z" fill="#fff"/>
                </g>
              </g>
            </g>
            <path id="Trazado_4245" data-name="Trazado 4245" d="M6951.479,820.064s14.381-4.983,14.432-5.031l-10.378.309a3.775,3.775,0,0,1-3.654-1.862,1.514,1.514,0,0,1,.3-1.925l14.073-.855a3.8,3.8,0,0,1,3.281,2.56c.045.133,1.424-1.275,5.136,14.5,1.078,4.578-4.107,6.313-4.107,6.313-4.307,1.391-5.707-.889-6.239-2.568l-4.468,1.884a5.765,5.765,0,0,1-3.7.294c-1.382-.725-1.273-1.382-1.273-1.382s11.384-6.6,11.331-6.847l-9.269,2.736a4.215,4.215,0,0,1-4.183-.031c-1.161-.831-1.259-1.422-1.037-1.686l12.371-5.358-8.8,1.938c-1.47.032-2.5-.107-3.421-1.1A2.378,2.378,0,0,1,6951.479,820.064Z" fill="#e4a083"/>
          </g>
        </g>
      </g>
    </g>
    <text id="Estimado_aprendiz_ya_hemos_hablado_del_Plan_Básico_de_Atención._A_continuación_retomaremos_más_a_fondo_el_tema_y_para_esto_iniciaremos_con_la_apropiación_de_la_Resolución_5269_de_2017_Por_la_cual_se_actualizan_los_servicios_y_tecnologías_de_salud_financi" data-name="Estimado aprendiz ya hemos hablado del Plan Básico de Atención. A continuación, retomaremos más a fondo el tema, y para esto iniciaremos con la apropiación de la Resolución 5269 de 2017 Por la cual se actualizan los servicios y tecnologías de salud financi" transform="translate(357.318 910.179)" fill="#444242" font-size="16" font-family="OpenSans, Open Sans"><tspan x="2.614" y="17">Estimado aprendiz ya hemos hablado del Plan Básico de Atención. A continuación, retomaremos más </tspan><tspan x="1.189" y="39">a fondo el tema, y para esto iniciaremos con la apropiación de la </tspan><tspan y="39" font-family="OpenSans-Bold, Open Sans" font-weight="700">Resolución 5269 de 2017</tspan><tspan y="39" xml:space="preserve"> Por la cual </tspan><tspan x="9.564" y="61">se actualizan los servicios y tecnologías de salud financiados con recursos de la Unidad de Pago por </tspan><tspan x="315.814" y="83">Capitación. (UPC)</tspan></text>
  </g>
</svg>
