<svg xmlns="http://www.w3.org/2000/svg" width="702.494" height="438.707" viewBox="0 0 702.494 438.707">
  <g id="Grupo_340" data-name="Grupo 340" transform="translate(-8169.319 -2679.311)">
    <path id="Trazado_3761" data-name="Trazado 3761" d="M8823.736,2799.14c-16.807,1.2-34.389,43.366-11.921,75.517s52.269,14.4,58.688-9.389S8859.5,2796.585,8823.736,2799.14Z" fill="#eef8fd"/>
    <path id="Trazado_3762" data-name="Trazado 3762" d="M8411.355,2700.532c-.491,8.688,19.952,20.471,37.9,11.078s10.816-25.831-.947-30.685S8412.4,2682.042,8411.355,2700.532Z" fill="#eef8fd"/>
    <path id="Trazado_3763" data-name="Trazado 3763" d="M8203.6,2814.859c-11.979-4.159-33.376,8.8-34.248,34.643-.842,24.978,16.709,33.54,31.744,21.808C8213.632,2861.524,8225.178,2822.351,8203.6,2814.859Z" fill="#eef8fd"/>
    <path id="Trazado_3764" data-name="Trazado 3764" d="M8668.483,3086.4s135.326,8.627,170.519-67.911c34.084-74.13-65.969-132.453-50-203.887,22.764-101.85-41.026-133.422-154.637-103.04s-133.325,32.559-133.325,32.559l-34.441-16.343-31.749-1.164s-77.547-39.125-148.873-17.986c-64.322,19.063-56.171,80.546-56.171,80.546s12.551,57.682-37.713,135.352c-40.493,62.571-47.295,196.042,258.8,156.846l90.007,24.777Z" fill="#eef8fd"/>
    <g id="Grupo_245" data-name="Grupo 245">
      <g id="Grupo_210" data-name="Grupo 210">
        <g id="Grupo_209" data-name="Grupo 209">
          <path id="Trazado_3765" data-name="Trazado 3765" d="M8431.872,3014.277c-51.773-31.3-65.28-60.4-80.92-94.083-4.031-8.684-8.2-17.664-13.2-27.084-11.442-21.554-23.677-37.983-37.4-50.225-13.788-12.3-28.05-19.46-40.183-24.843-27.375-12.145-36.971-27.365-37.065-27.517l-2.162,1.325c.4.648,10.03,16.013,38.2,28.51,29.979,13.3,53.212,30.31,76.373,73.939,4.971,9.361,9.124,18.309,13.143,26.963,15.813,34.065,29.472,63.483,81.907,95.186Z" fill="#cee8f9"/>
        </g>
      </g>
      <g id="Grupo_212" data-name="Grupo 212">
        <g id="Grupo_211" data-name="Grupo 211">
          <path id="Trazado_3766" data-name="Trazado 3766" d="M8201.248,2764.563c-7.731,5.843-1.844,20.51,7.289,30.659,8.673,9.638,18.781,12.155,23.946,8.757,5.3-3.484,7.083-14.136-2.894-27.233C8218.281,2761.9,8206.566,2760.544,8201.248,2764.563Z" fill="#cee8f9"/>
        </g>
      </g>
      <g id="Grupo_214" data-name="Grupo 214">
        <g id="Grupo_213" data-name="Grupo 213">
          <path id="Trazado_3767" data-name="Trazado 3767" d="M8192.09,2828.067c.156,9.69,15.472,13.591,29.054,12.205,12.9-1.316,20.9-7.992,21.2-14.167.313-6.333-7.233-14.059-23.694-13.732C8199.99,2812.743,8191.983,2821.4,8192.09,2828.067Z" fill="#cee8f9"/>
        </g>
      </g>
      <g id="Grupo_216" data-name="Grupo 216">
        <g id="Grupo_215" data-name="Grupo 215">
          <path id="Trazado_3768" data-name="Trazado 3768" d="M8261.821,2764.465c-9.283,2.782-8.879,18.581-3.857,31.277,4.77,12.057,13.365,17.94,19.392,16.556,6.181-1.418,11.566-10.78,6.781-26.533C8278.714,2767.907,8268.206,2762.552,8261.821,2764.465Z" fill="#cee8f9"/>
        </g>
      </g>
      <g id="Grupo_218" data-name="Grupo 218">
        <g id="Grupo_217" data-name="Grupo 217">
          <path id="Trazado_3769" data-name="Trazado 3769" d="M8238.7,2863.142c1.3,9.6,16.974,11.661,30.3,8.675,12.651-2.836,19.8-10.413,19.37-16.581-.44-6.326-8.849-13.1-25.156-10.826C8244.732,2846.99,8237.808,2856.537,8238.7,2863.142Z" fill="#cee8f9"/>
        </g>
      </g>
      <g id="Grupo_220" data-name="Grupo 220">
        <g id="Grupo_219" data-name="Grupo 219">
          <path id="Trazado_3770" data-name="Trazado 3770" d="M8338.4,2790.595c-8.106-5.312-19.935,5.17-26.415,17.187-6.154,11.412-5.121,21.777-.184,25.5,5.065,3.816,15.7,1.91,24.669-11.9C8346.644,2805.737,8343.976,2794.249,8338.4,2790.595Z" fill="#cee8f9"/>
        </g>
      </g>
      <g id="Grupo_222" data-name="Grupo 222">
        <g id="Grupo_221" data-name="Grupo 221">
          <path id="Trazado_3771" data-name="Trazado 3771" d="M8272.295,2900.424c1.3,9.6,16.973,11.661,30.3,8.675,12.652-2.836,19.8-10.412,19.371-16.58-.439-6.326-8.85-13.1-25.156-10.827C8278.322,2884.272,8271.4,2893.819,8272.295,2900.424Z" fill="#cee8f9"/>
        </g>
      </g>
      <g id="Grupo_224" data-name="Grupo 224">
        <g id="Grupo_223" data-name="Grupo 223">
          <path id="Trazado_3772" data-name="Trazado 3772" d="M8378.21,2846.457c-5.612-7.9-20.447-2.45-30.861,6.379-9.89,8.384-12.705,18.413-9.462,23.677,3.326,5.4,13.92,7.5,27.308-2.087C8380.369,2863.561,8382.07,2851.891,8378.21,2846.457Z" fill="#cee8f9"/>
        </g>
      </g>
      <g id="Grupo_226" data-name="Grupo 226">
        <g id="Grupo_225" data-name="Grupo 225">
          <path id="Trazado_3773" data-name="Trazado 3773" d="M8307.61,2968.773c6.464,7.221,20.593.14,29.95-9.8,8.887-9.442,10.559-19.723,6.744-24.59-3.911-4.991-14.674-5.888-26.9,5.139C8303.546,2952.019,8303.164,2963.806,8307.61,2968.773Z" fill="#cee8f9"/>
        </g>
      </g>
      <g id="Grupo_228" data-name="Grupo 228">
        <g id="Grupo_227" data-name="Grupo 227">
          <path id="Trazado_3774" data-name="Trazado 3774" d="M8408.032,2902.6c-3.807-8.913-19.46-6.737-31.513-.321-11.444,6.092-16.325,15.294-14.274,21.127,2.1,5.982,12.01,10.283,27.128,3.76C8406.508,2919.77,8410.65,2908.728,8408.032,2902.6Z" fill="#cee8f9"/>
        </g>
      </g>
      <g id="Grupo_230" data-name="Grupo 230">
        <g id="Grupo_229" data-name="Grupo 229">
          <path id="Trazado_3775" data-name="Trazado 3775" d="M8343.51,3012.2c6.523,5.681,18.255-2.152,25.444-11.992,6.828-9.344,7.172-18.634,3.257-22.523-4.016-3.989-13.647-3.594-23.258,7.523C8338.059,2997.809,8339.024,3008.291,8343.51,3012.2Z" fill="#cee8f9"/>
        </g>
      </g>
      <g id="Grupo_232" data-name="Grupo 232">
        <g id="Grupo_231" data-name="Grupo 231">
          <path id="Trazado_3776" data-name="Trazado 3776" d="M8430.775,2961.56c-.141-8.649-13.811-12.13-25.934-10.892-11.513,1.176-18.648,7.134-18.921,12.646-.279,5.653,6.457,12.548,21.15,12.256C8423.725,2975.238,8430.871,2967.509,8430.775,2961.56Z" fill="#cee8f9"/>
        </g>
      </g>
      <g id="Grupo_234" data-name="Grupo 234">
        <g id="Grupo_233" data-name="Grupo 233">
          <rect id="Rectángulo_810" data-name="Rectángulo 810" width="16.508" height="2.536" transform="translate(8241.195 2822.382) rotate(-19.475)" fill="#cee8f9"/>
        </g>
      </g>
      <g id="Grupo_236" data-name="Grupo 236">
        <g id="Grupo_235" data-name="Grupo 235">
          <rect id="Rectángulo_811" data-name="Rectángulo 811" width="2.536" height="14.545" transform="translate(8273.192 2811.865)" fill="#cee8f9"/>
        </g>
      </g>
      <g id="Grupo_238" data-name="Grupo 238">
        <g id="Grupo_237" data-name="Grupo 237">
          <path id="Trazado_3777" data-name="Trazado 3777" d="M8314.981,2834.268l-2.118-1.4-9.463,14.352-16.179,6.01.883,2.378,16.957-6.3Z" fill="#cee8f9"/>
        </g>
      </g>
      <g id="Grupo_240" data-name="Grupo 240">
        <g id="Grupo_239" data-name="Grupo 239">
          <path id="Trazado_3778" data-name="Trazado 3778" d="M8339.992,2877.625l-2.271-1.128-5.148,10.365-11.5,3.572.753,2.423,12.533-3.894Z" fill="#cee8f9"/>
        </g>
      </g>
      <g id="Grupo_242" data-name="Grupo 242">
        <g id="Grupo_241" data-name="Grupo 241">
          <path id="Trazado_3779" data-name="Trazado 3779" d="M8364.979,2924.732l-1.939-1.635-7.856,9.316-11.436,1.92.42,2.5,12.354-2.074Z" fill="#cee8f9"/>
        </g>
      </g>
      <g id="Grupo_244" data-name="Grupo 244">
        <g id="Grupo_243" data-name="Grupo 243">
          <path id="Trazado_3780" data-name="Trazado 3780" d="M8387.079,2966.581l-.488-2.489-11.693,2.294-4.921,10.9,2.312,1.044,4.383-9.706Z" fill="#cee8f9"/>
        </g>
      </g>
    </g>
    <g id="Grupo_264" data-name="Grupo 264">
      <g id="Grupo_247" data-name="Grupo 247">
        <g id="Grupo_246" data-name="Grupo 246">
          <path id="Trazado_3781" data-name="Trazado 3781" d="M8712.575,3033.162c22.185-10.164,39.3-21.418,52.323-34.405,13.083-13.046,21.064-26.866,27.146-38.664,13.723-26.619,29.479-35.31,29.635-35.394l-1.2-2.237c-.67.358-16.572,9.079-30.693,36.469-15.029,29.151-33.365,51.351-78.273,71.925Z" fill="#cee8f9"/>
        </g>
      </g>
      <g id="Grupo_249" data-name="Grupo 249">
        <g id="Grupo_248" data-name="Grupo 248">
          <path id="Trazado_3782" data-name="Trazado 3782" d="M8848.874,2904.4c-5.382-8.06-20.368-3.039-31.033,5.486-10.128,8.1-13.229,18.039-10.14,23.394,3.169,5.493,13.7,7.9,27.355-1.3C8850.538,2921.558,8852.576,2909.942,8848.874,2904.4Z" fill="#cee8f9"/>
        </g>
      </g>
      <g id="Grupo_251" data-name="Grupo 251">
        <g id="Grupo_250" data-name="Grupo 250">
          <path id="Trazado_3783" data-name="Trazado 3783" d="M8786.013,2891.548c-9.683-.41-14.471,14.652-13.881,28.292.562,12.954,6.758,21.326,12.905,21.991,6.3.682,14.457-6.4,15.092-22.853C8800.849,2900.329,8792.673,2891.83,8786.013,2891.548Z" fill="#cee8f9"/>
        </g>
      </g>
      <g id="Grupo_253" data-name="Grupo 253">
        <g id="Grupo_252" data-name="Grupo 252">
          <path id="Trazado_3784" data-name="Trazado 3784" d="M8845.434,2964.874c-2.234-9.43-18.03-9.949-31-5.677-12.314,4.057-18.689,12.295-17.66,18.392,1.056,6.253,10.087,12.176,26.093,8.32C8841.012,2981.537,8846.971,2971.36,8845.434,2964.874Z" fill="#cee8f9"/>
        </g>
      </g>
      <g id="Grupo_255" data-name="Grupo 255">
        <g id="Grupo_254" data-name="Grupo 254">
          <path id="Trazado_3785" data-name="Trazado 3785" d="M8748.276,2936.035c-9.663.741-12.633,16.263-10.43,29.738,2.093,12.8,9.238,20.374,15.42,20.306,6.342-.07,13.6-8.07,12.277-24.481C8764.048,2943,8754.922,2935.525,8748.276,2936.035Z" fill="#cee8f9"/>
        </g>
      </g>
      <g id="Grupo_257" data-name="Grupo 257">
        <g id="Grupo_256" data-name="Grupo 256">
          <path id="Trazado_3786" data-name="Trazado 3786" d="M8814.877,3039.8c5.776-7.781-4-20.2-15.616-27.373-11.033-6.81-21.439-6.384-25.441-1.671-4.105,4.833-2.823,15.557,10.434,25.321C8799.28,3047.142,8810.9,3045.15,8814.877,3039.8Z" fill="#cee8f9"/>
        </g>
      </g>
      <g id="Grupo_259" data-name="Grupo 259">
        <g id="Grupo_258" data-name="Grupo 258">
          <rect id="Rectángulo_812" data-name="Rectángulo 812" width="2.536" height="16.508" transform="translate(8786.384 2941.605) rotate(-16.127)" fill="#cee8f9"/>
        </g>
      </g>
      <g id="Grupo_261" data-name="Grupo 261">
        <g id="Grupo_260" data-name="Grupo 260">
          <rect id="Rectángulo_813" data-name="Rectángulo 813" width="2.536" height="14.545" transform="translate(8782.783 2975.135) rotate(-86.606)" fill="#cee8f9"/>
        </g>
      </g>
      <g id="Grupo_263" data-name="Grupo 263">
        <g id="Grupo_262" data-name="Grupo 262">
          <path id="Trazado_3787" data-name="Trazado 3787" d="M8772.646,3013.867l1.518-2.033-13.774-10.285-5.056-16.5-2.425.742,5.3,17.3Z" fill="#cee8f9"/>
        </g>
      </g>
    </g>
    <path id="Trazado_3788" data-name="Trazado 3788" d="M8564,3073.8c-80.5-.836-271.662,1.655-271.6,14.366.065,12.819,160.229,11.832,160.229,11.832s-48.212,2.024-48.212,10.981,124.337,10.394,249.983-1.731c73.982-7.14,47.582-16.389,47.582-16.389s31.713-1.476,31.729-6.274C8733.738,3079.5,8653.5,3074.727,8564,3073.8Z" fill="#ebebeb"/>
    <g id="Grupo_271" data-name="Grupo 271">
      <g id="Grupo_270" data-name="Grupo 270">
        <g id="Grupo_266" data-name="Grupo 266">
          <g id="Grupo_265" data-name="Grupo 265">
            <path id="Trazado_3789" data-name="Trazado 3789" d="M8306.047,3078.635a38.246,38.246,0,0,1-16.181-22.225c-3.758-13.207-1.681-29.324,5.7-44.219a83.87,83.87,0,0,1,36.693-37.034,5.505,5.505,0,0,1,5.028,9.795c-30.345,15.577-42.745,47.657-36.832,68.446,4.293,15.09,17.45,22.535,37.049,20.964,12.724-1.021,58.973-22.239,225.756-152.88,95.329-74.672,184.847-149.761,185.739-150.51a5.5,5.5,0,1,1,7.079,8.432c-.895.751-90.535,75.945-186.008,150.729-56.116,43.956-103.252,79.183-140.1,104.7-47.415,32.841-77.373,49.36-91.587,50.5-12.854,1.031-23.71-1.209-32.269-6.658Z" fill="#24374b"/>
          </g>
        </g>
        <g id="Grupo_269" data-name="Grupo 269">
          <g id="Grupo_268" data-name="Grupo 268">
            <g id="Grupo_267" data-name="Grupo 267">
              <path id="Trazado_3790" data-name="Trazado 3790" d="M8719.876,2803.372c-22.413-27.431-123.883-140.341-285.03-76.754,17.507,8.425,93.325,38.6,81.926,123.111,27.947-.868,102.123,48.669,96.364,133.517,29.79,7.543,78,43.828,76.4,102.369C8689.531,3085.615,8818.315,2975.016,8719.876,2803.372Z" fill="#c2d8ff"/>
            </g>
          </g>
        </g>
        <path id="Trazado_3791" data-name="Trazado 3791" d="M8721.285,2805.866c-.468-.831-.932-1.661-1.409-2.494-.991-1.213-2.14-2.6-3.439-4.121a101.818,101.818,0,0,0-50.652-19.007c-17.7-1.639-36.755,1.008-56.634,7.868-44.395,15.32-78.479,45.969-92.125,59.625q-.119.991-.253,1.992c.552-.017,1.125-.012,1.712.01,13.332-13.387,47.246-44.055,91.465-59.314,42.118-14.535,78.709-9.965,108.751,13.578,7.274,90.673-46.27,139.06-105.473,177.72-.027.507-.058,1.013-.092,1.523.522.132,1.051.275,1.584.425C8674.046,2944.907,8727.69,2896.405,8721.285,2805.866Z" fill="#82b5db"/>
      </g>
    </g>
    <g id="Grupo_273" data-name="Grupo 273">
      <g id="Grupo_272" data-name="Grupo 272">
        <path id="Trazado_3792" data-name="Trazado 3792" d="M8469.358,2760.694c-24.489-12.485-42.5,14.726-44.419,18.207-1.915-3.481-19.834-31.177-44.42-18.207-31.306,16.515-14.612,64.036,43.74,99.416C8482.612,2824.73,8500.891,2776.77,8469.358,2760.694Z" fill="#dd503e"/>
      </g>
      <path id="Trazado_3793" data-name="Trazado 3793" d="M8474.34,2814.581H8448.3l-4.478,8.255-8.662-47.644-11.36,63.258-10.687-43.686-6.2,19.744h-31.585v1.158c.25.386.512.772.77,1.158h32.517l4.221-13.447,11.313,46.239,11.025-61.4,7.547,41.51,6.957-12.827h23.116Q8473.594,2815.736,8474.34,2814.581Z" fill="#fff"/>
    </g>
    <g id="Grupo_276" data-name="Grupo 276">
      <path id="Trazado_3794" data-name="Trazado 3794" d="M8412.009,2887.334l13.879,198.537,135.485-.142,6.591-201.825Z" fill="#cfd1d2"/>
      <path id="Trazado_3795" data-name="Trazado 3795" d="M8553.427,3077.913l4.884.351,3.724-186.552-10.257,8.014Z" fill="#e5e5e6"/>
      <path id="Trazado_3796" data-name="Trazado 3796" d="M8419.46,2894.4l142.574-2.686-7.094,187.674-121.951-.5Z" fill="#fff"/>
      <g id="Grupo_274" data-name="Grupo 274">
        <path id="Trazado_3797" data-name="Trazado 3797" d="M8440.576,3025.638l28.524-.9.432-20.819-30.312,1.764Z" fill="#f0f1f1"/>
        <path id="Trazado_3798" data-name="Trazado 3798" d="M8437.467,2979.906l1.172,17.225,31.031.187.408-19.7Z" fill="#f0f1f1"/>
        <path id="Trazado_3799" data-name="Trazado 3799" d="M8470.866,2939.65l.554-26.665-38.473.425,1.86,27.373Z" fill="#f0f1f1"/>
        <path id="Trazado_3800" data-name="Trazado 3800" d="M8435.355,2948.841l1.568,23.078,33.266.344.561-27.006Z" fill="#f0f1f1"/>
        <path id="Trazado_3801" data-name="Trazado 3801" d="M8440.957,3031.247l1.72,23.485,25.817-.8.639-22.659Z" fill="#f0f1f1"/>
      </g>
      <path id="Trazado_3802" data-name="Trazado 3802" d="M8542.719,2900.01a42.954,42.954,0,0,0-3.77-15.467l-7.05.221-10.4,3.343,18.273,7.659Z" fill="#e5e5e6"/>
      <path id="Trazado_3803" data-name="Trazado 3803" d="M8437.1,2925.269l6.354-2.082,7.633,8.435,8.471-17.09h7.707l-14.812,22.567Z" fill="#dd503e"/>
      <path id="Trazado_3804" data-name="Trazado 3804" d="M8437.1,2956.974l6.354-2.082,7.633,8.436,8.471-17.09h7.707l-14.812,22.568Z" fill="#dd503e"/>
      <path id="Trazado_3805" data-name="Trazado 3805" d="M8437.1,2985l6.354-2.081,7.633,8.435,8.471-17.09h7.707l-14.812,22.567Z" fill="#dd503e"/>
      <path id="Trazado_3806" data-name="Trazado 3806" d="M8437.1,3011.514l6.354-2.082,7.633,8.436,8.471-17.09h7.707l-14.812,22.567Z" fill="#dd503e"/>
      <path id="Trazado_3807" data-name="Trazado 3807" d="M8437.1,3039.684l6.354-2.082,7.633,8.435,8.471-17.09h7.707l-14.812,22.567Z" fill="#dd503e"/>
      <path id="Trazado_3808" data-name="Trazado 3808" d="M8476.953,2912.985v6.951l59.973-1.944v-5.007Z" fill="#e0e1e1"/>
      <path id="Trazado_3809" data-name="Trazado 3809" d="M8476.953,2922.832v6.951h76.989v-5.194Z" fill="#e0e1e1"/>
      <path id="Trazado_3810" data-name="Trazado 3810" d="M8476.953,2932.679v6.951h42.191v-5.481Z" fill="#e0e1e1"/>
      <path id="Trazado_3811" data-name="Trazado 3811" d="M8476,2946.5v6.4l68.386-1.79v-4.61Z" fill="#e0e1e1"/>
      <path id="Trazado_3812" data-name="Trazado 3812" d="M8476,2955.56v6.4h53.472v-4.782Z" fill="#e0e1e1"/>
      <path id="Trazado_3813" data-name="Trazado 3813" d="M8476,2964.626v6.4h63.414v-5.046Z" fill="#e0e1e1"/>
      <path id="Trazado_3814" data-name="Trazado 3814" d="M8474.788,2981.368v6.4h53.473v-4.782Z" fill="#e0e1e1"/>
      <path id="Trazado_3815" data-name="Trazado 3815" d="M8474.788,2990.433v6.4h76.989v-5.046Z" fill="#e0e1e1"/>
      <path id="Trazado_3816" data-name="Trazado 3816" d="M8474.788,3003.923v6.4h42.444v-4.782Z" fill="#e0e1e1"/>
      <path id="Trazado_3817" data-name="Trazado 3817" d="M8474.788,3012.988v6.4h64.623v-5.046Z" fill="#e0e1e1"/>
      <path id="Trazado_3818" data-name="Trazado 3818" d="M8474.788,3047.439v6.4h51.431v-5.046Z" fill="#e0e1e1"/>
      <path id="Trazado_3819" data-name="Trazado 3819" d="M8474.788,3031.247v6.4h59.461V3032.6Z" fill="#e0e1e1"/>
      <path id="Trazado_3820" data-name="Trazado 3820" d="M8446.218,2886.582c-2.708,9.355-2,15.249-2,15.249l5.583-6.368,8.286-5.823v-3.319Z" fill="#e5e5e6"/>
      <path id="Trazado_3821" data-name="Trazado 3821" d="M8490.657,2836.27a20.286,20.286,0,1,0,20.914,19.64A20.288,20.288,0,0,0,8490.657,2836.27Zm-.782,31.308a10.086,10.086,0,1,1,9.764-10.4A10.087,10.087,0,0,1,8489.875,2867.578Z" fill="#5584b1"/>
      <path id="Trazado_3822" data-name="Trazado 3822" d="M8444.22,2901.831s8.8-32.018,47.453-33.232,51.046,31.411,51.046,31.411Z" fill="#5584b1"/>
      <g id="Grupo_275" data-name="Grupo 275">
        <path id="Trazado_3823" data-name="Trazado 3823" d="M8471.874,2876.312l4.1,4.014a27.8,27.8,0,0,1,10.557-8.009A40.962,40.962,0,0,0,8471.874,2876.312Z" fill="#363636"/>
        <path id="Trazado_3824" data-name="Trazado 3824" d="M8461.815,2882.616a54.292,54.292,0,0,0-13.432,16.442l19.177-.6a43.8,43.8,0,0,1,4.647-12.586Z" fill="#363636"/>
      </g>
    </g>
    <g id="Grupo_278" data-name="Grupo 278">
      <path id="Trazado_3825" data-name="Trazado 3825" d="M8631.858,2876.548s35.123,103.692,116.548,97.43c0,0,50.894-43.756-.037-149.909C8748.369,2824.069,8680.607,2810.714,8631.858,2876.548Z" fill="#476e92"/>
      <g id="Grupo_277" data-name="Grupo 277">
        <rect id="Rectángulo_814" data-name="Rectángulo 814" width="19.347" height="71.673" transform="translate(8687.295 2867.806) rotate(-25.631)" fill="#fff"/>
        <rect id="Rectángulo_815" data-name="Rectángulo 815" width="19.347" height="71.673" transform="matrix(0.433, 0.902, -0.902, 0.433, 8739.644, 2871.708)" fill="#fff"/>
      </g>
      <path id="Trazado_3826" data-name="Trazado 3826" d="M8748.406,2973.978s23.858-20.517,22.555-67.532c-82.774,11.608-123.182-30.055-131.269-39.636q-3.983,4.555-7.834,9.738s12.85,37.928,41.018,66.522c15.043,15.147,35.86,24.907,60.778,30.843A89.5,89.5,0,0,0,8748.406,2973.978Z" fill="#363636"/>
      <path id="Trazado_3827" data-name="Trazado 3827" d="M8749.819,2977.382l-1.145.088a90.8,90.8,0,0,1-54.632-13.07c-13.432-8.054-25.962-19.722-37.242-34.68a205.4,205.4,0,0,1-28.26-52.048l-.588-1.736,1.09-1.472c14.073-19.006,31.072-33.375,50.523-42.707a126.386,126.386,0,0,1,48.352-12.171,96.026,96.026,0,0,1,21.128,1.047l1.721.339.76,1.582c11.78,24.554,19.118,47.865,21.81,69.285,2.172,17.282,1.343,33.392-2.462,47.882-6.558,24.976-19.631,36.437-20.184,36.913ZM8635.8,2877.134a204.625,204.625,0,0,0,26.706,48.511c24.064,31.84,52.453,46.951,84.4,44.927,2.788-2.81,12.293-13.506,17.334-33.158,5.446-21.234,6.647-57.512-18.237-110.173a99.728,99.728,0,0,0-18-.646,119.33,119.33,0,0,0-45.4,11.478C8664.7,2846.661,8648.959,2859.8,8635.8,2877.134Z" fill="#fff"/>
    </g>
    <path id="Trazado_3828" data-name="Trazado 3828" d="M8666.16,2964.437l1.19-1.616s-.024-.149-.062-.428a55.142,55.142,0,0,1,.86-19.2l-3.111-3.385c-4.023,6.719-12.589,25.466-.834,49.044l3.318-6.72,5.019-4.071Z" fill="#7da9cb"/>
    <g id="Grupo_279" data-name="Grupo 279">
      <path id="Trazado_3829" data-name="Trazado 3829" d="M8664.685,3046.214l-.34,2.155,9.84,37.485,1.615-.624s1.985-31.814-4.536-39.016-5.671-.624-5.671-.624Z" fill="#f2d1cd"/>
      <path id="Trazado_3830" data-name="Trazado 3830" d="M8675.838,3084.408s2.92,1.645.68,11.427h-1.161l-.284-5.713a22.6,22.6,0,0,0-2.269,5.713h-9.3s.823-2.013,4.991-2.722c0,0,1.639-5.49,5.353-8.553Z" fill="#dd503e"/>
      <path id="Trazado_3831" data-name="Trazado 3831" d="M8675.838,3084.408c-.593-.825-1.23-1.086-1.991.152-3.714,3.063-5.353,8.553-5.353,8.553l1.729.284S8673.059,3086.506,8675.838,3084.408Z" fill="#f2d1cd"/>
      <path id="Trazado_3832" data-name="Trazado 3832" d="M8679.061,3041.081l-1.417,2.042,11.5,42.731,1.616-.624s.59-30.763-4.537-39.016c-4.667-7.514-5.659-6.409-5.659-6.409Z" fill="#f2d1cd"/>
      <path id="Trazado_3833" data-name="Trazado 3833" d="M8690.8,3084.408s2.921,1.645.681,11.427h-1.162l-.283-5.713a22.615,22.615,0,0,0-2.27,5.713h-9.3s.822-2.013,4.99-2.722c0,0,1.64-5.49,5.354-8.553Z" fill="#dd503e"/>
      <path id="Trazado_3834" data-name="Trazado 3834" d="M8690.8,3084.408c-.624-1.02-1.292-.847-1.99.152-3.714,3.063-5.353,8.553-5.353,8.553l1.729.284S8688.02,3086.506,8690.8,3084.408Z" fill="#f2d1cd"/>
      <path id="Trazado_3835" data-name="Trazado 3835" d="M8685.078,3044.428c-2.394-3.6-3.582-4.472-4.12-4.643l-.66.246-1.237,1.05-1.417,2.042,1.407,5.229A13.183,13.183,0,0,1,8685.078,3044.428Z" fill="#ecb6ae"/>
      <path id="Trazado_3836" data-name="Trazado 3836" d="M8671.264,3046.214a21.952,21.952,0,0,0-2.251-2.2c-1.174.193-2.507.422-3.447.614a6.016,6.016,0,0,0,.027.966l-.908.624-.34,2.155.592,2.255a23.744,23.744,0,0,1,7.33-3A8.188,8.188,0,0,0,8671.264,3046.214Z" fill="#ecb6ae"/>
      <path id="Trazado_3837" data-name="Trazado 3837" d="M8664.933,2958.955s-2.686-4.725.717-7.788,6.691.908,10.548,1.758,8.62.491,9.755,6.824-.908,6.22,2.438,13.082-1.928,10.094-.794,14.12,3.971,8.394-.282,11.342-11-1.531-11-1.531l-.283-10.775,1.758-8.109-2.236-6.106-.259-9.773-6.748-5.7A18.057,18.057,0,0,0,8664.933,2958.955Z" fill="#243748"/>
      <path id="Trazado_3838" data-name="Trazado 3838" d="M8665.763,3008.365l-2.836,1.271s-6.124,22,.682,38.733l23.308-5.728s5.16-27.334-7.316-34.99-9.269-.4-9.269-.4l-4.512,1.417Z" fill="#3c6082"/>
      <path id="Trazado_3839" data-name="Trazado 3839" d="M8668.428,2972.717v7.429l-9.754,9.584s.41,5.671,5.536,6.295a72.956,72.956,0,0,1-1.283,13.611,18.367,18.367,0,0,0,16.673-1.985,58.84,58.84,0,0,1,1.021-14.461c1.531-6.976,1.361-17.637,1.361-17.637l-9.527-5.445-4.084,1.362Z" fill="#acd3ef"/>
      <path id="Trazado_3840" data-name="Trazado 3840" d="M8680.961,2936.2l-1.039-1.23a19.348,19.348,0,0,1-2.179-8.17c-.015-4.253,2.367,2.892,2.367,2.892s.511-10.846,2-11.058.766,2.892.766,2.892.936-3.785,1.786-3.7.213,4.976.213,4.976.893-3.1,1.616-2.807-.936,5.4-.936,5.4.681-2.722,1.7-2.3-1.233,7.571-3.743,11.058l-.888.936Z" fill="#f2d1cd"/>
      <path id="Trazado_3841" data-name="Trazado 3841" d="M8675.343,2971.759l-3.409-1.477-3.562,1.187.057,1.248v7.429l-6.783,6.665c.579.927,2.054,2.427,4.969.594,3.97-2.5,8.45-10.775,8.45-10.775Z" fill="#f2d1cd"/>
      <path id="Trazado_3842" data-name="Trazado 3842" d="M8675.16,2971.679l-3.227-1.4-3.562,1.187.057,1.248v5.343A15.562,15.562,0,0,0,8675.16,2971.679Z" fill="#ecb6ae"/>
      <path id="Trazado_3843" data-name="Trazado 3843" d="M8669.732,2955.817s-6.352,1.7-8.96,10.549l2.269.567s-3.176,6.124,3.516,7.259,11.229-4.764,11.229-4.764l-.68-11s-4.425-2.041-4.537-2.609S8669.732,2955.817,8669.732,2955.817Z" fill="#f2d1cd"/>
      <path id="Trazado_3844" data-name="Trazado 3844" d="M8668.542,2955.307v.991s-2.489,5.2,3.345,8.653l1.085,3.99c-1.476,3.639-1.217,6.42,2.092,7.689l7.352-7.107-3.042-11.891-5.331-2.608h-3.913Z" fill="#243748"/>
      <path id="Trazado_3845" data-name="Trazado 3845" d="M8671.887,2964.951s1.078-2.045,2.382-.684-1.02,6.465-3.742,4.991-.851-2.949-.851-2.949l1.386-.814Z" fill="#f2d1cd"/>
      <path id="Trazado_3846" data-name="Trazado 3846" d="M8679.373,2935.09l4.14-.936s13.544,27.68-2.116,54.118l-8.856-5.375,2.523-6.267S8685.781,2961.971,8679.373,2935.09Z" fill="#acd3ef"/>
    </g>
    <g id="Grupo_282" data-name="Grupo 282">
      <g id="Grupo_281" data-name="Grupo 281">
        <path id="Trazado_3847" data-name="Trazado 3847" d="M8383.146,3095.835a6.957,6.957,0,0,1,1.937-3.227h1.643a10.485,10.485,0,0,1,7.98,3.227Z" fill="#2f4a64"/>
        <g id="Grupo_280" data-name="Grupo 280">
          <path id="Trazado_3848" data-name="Trazado 3848" d="M8419.7,3087.913l.821.7,1,4.812h1.937l-.881-5.985h-2Z" fill="#f2d1cd"/>
          <path id="Trazado_3849" data-name="Trazado 3849" d="M8411.759,3013.844l-.681,1.276s9.857,37.937,12.675,75.61h-3.961s-16.812-54.485-19.981-62.935,5.986-8.274,5.986-8.274l-1.332-7.13Z" fill="#3c6082"/>
          <path id="Trazado_3850" data-name="Trazado 3850" d="M8404.677,3042.463l2.378-20.123-5.365,10.916C8402.533,3035.8,8403.554,3038.954,8404.677,3042.463Z" fill="#304b65"/>
          <path id="Trazado_3851" data-name="Trazado 3851" d="M8385.464,3089.057l-.382,3.55h1.644l.587-3.99Z" fill="#f2d1cd"/>
          <path id="Trazado_3852" data-name="Trazado 3852" d="M8394.618,3014.626l-2.552,2.881s-6.778,29.212-7.57,73.223h2.992s15.718-58.843,21.83-71.121l-4.138-4.983Z" fill="#3c6082"/>
          <path id="Trazado_3853" data-name="Trazado 3853" d="M8400.692,2974.322s-3.278-.6-3.841-.66-3.861.088-3.861.088-22.812,7.658-32.788,29.722c0,0,6.048,11.613,29.65,13.965l.149-2.011s-10.592-6.52-12.9-14.83c0,0,1.976-3.7,7.688-7.1a49.407,49.407,0,0,0,4.284-4.049l4.166-7.335-1.129-4.929Z" fill="#48759f"/>
          <path id="Trazado_3854" data-name="Trazado 3854" d="M8382.031,2989.858l2.758,3.638s7.626,13.966,6.351,24.088c0,0,12.9-1.056,21.435-2.112,0,0,.088-22.446,2.729-33.624a47.859,47.859,0,0,0-11.274-5.63l-1.488,5.63-6.954,3.785-6.337-1.5-4.8,3.609Z" fill="#48759f"/>
          <path id="Trazado_3855" data-name="Trazado 3855" d="M8394.222,2972.738l-1.231,1.012s7.394,14.347,11.663,25.13c0,0-1.344-17.734-3.961-24.558l-4.552-1.937h-1.171Z" fill="#fff"/>
          <path id="Trazado_3856" data-name="Trazado 3856" d="M8395.322,2974.454l-2.333-.7,6.712,6.161,1.222-6.011-4.368.29Z" fill="#dd503e"/>
          <path id="Trazado_3857" data-name="Trazado 3857" d="M8403.06,2984.86l-3.908-7.105.5,9.648c1.753,3.771,3.556,7.828,5,11.477C8404.653,2998.88,8404.116,2991.8,8403.06,2984.86Z" fill="#dd503e"/>
          <path id="Trazado_3858" data-name="Trazado 3858" d="M8400.622,2973.75l6.187,3.08-3.093,2.377,4.592,2.949-3.654,16.724S8402,2979.437,8400.622,2973.75Z" fill="#3a5c7e"/>
          <path id="Trazado_3859" data-name="Trazado 3859" d="M8390,3015.426l3.907-1.838,3.631,2.408s1.478,4.015,1.049,4.38-.646-.183-.646-.183.4.8.108,1.058-.949-.73-.949-.73.329,1.022-.072,1.059-.565-1.168-.565-1.168-.384,1.095-.712.584a5.288,5.288,0,0,1-1.843-3.412,5.854,5.854,0,0,1-4.057-.147Z" fill="#f2d1cd"/>
          <path id="Trazado_3860" data-name="Trazado 3860" d="M8399.943,2968.16l.749,6.162s.4,1.628-2.113,1.98-5.589-2.552-5.589-2.552l.516-8.934,4.677-.4v.749Z" fill="#f2d1cd"/>
          <path id="Trazado_3861" data-name="Trazado 3861" d="M8393.293,2968.509a11.184,11.184,0,0,0,7.219,4.334l-.536-4.413c-1.277-.652-2.276-1.106-2.276-1.106l-4.209-2.231Z" fill="#e4b7b3"/>
          <path id="Trazado_3862" data-name="Trazado 3862" d="M8402.892,2950.424s4.226,1.761,5.369,10.915l-2.684.616s.4,6.249-2.773,7.482-7.746.7-10.737-5.9a9.178,9.178,0,0,1,2.552-11.178c.352-.088,6.338-1.937,6.338-1.937Z" fill="#f2d1cd"/>
          <path id="Trazado_3863" data-name="Trazado 3863" d="M8405.732,2953.3s3.409-1.692,3.453-5.168-1.408-4.313-2.9-3.653-2.334,2.112-6.58,1.848-11.42-1.628-14.281,4.709a9.495,9.495,0,0,0,2.949,11.839c1.584,1.056,1.892,5.986,4.621,6.074s3.564-3.565,2.771-6.69l1.057-2.289-.176-.792s3.433-.528,4.8-2.9,1.323-3.829,2.773-4.885A22.927,22.927,0,0,1,8405.732,2953.3Z" fill="#243748"/>
          <path id="Trazado_3864" data-name="Trazado 3864" d="M8396.643,2959.182a1.75,1.75,0,0,0-.077-.217,1.546,1.546,0,0,0-2.212-.883c-1.8.748-.659,6.426,2.773,5.237s.44-3.124.44-3.124Z" fill="#f2d1cd"/>
          <path id="Trazado_3865" data-name="Trazado 3865" d="M8393.027,2973.425l-7.3,3.231,5.412,4.2-3.3,5.721,16.813,12.307C8401.841,2991.871,8397.656,2982.956,8393.027,2973.425Z" fill="#3a5c7e"/>
        </g>
        <path id="Trazado_3866" data-name="Trazado 3866" d="M8419.436,3095.835a6.967,6.967,0,0,1,1.937-3.227h1.643a10.488,10.488,0,0,1,7.981,3.227Z" fill="#2f4a64"/>
      </g>
      <path id="Trazado_3867" data-name="Trazado 3867" d="M8411.772,2988.317l3.53-6.469,3.462,2.137,1.174,16.793-9.886-5.235.86-4.631Z" fill="#48759f"/>
    </g>
    <g id="Grupo_303" data-name="Grupo 303">
      <g id="Grupo_293" data-name="Grupo 293">
        <g id="Grupo_284" data-name="Grupo 284">
          <g id="Grupo_283" data-name="Grupo 283">
            <rect id="Rectángulo_816" data-name="Rectángulo 816" width="16.973" height="49.308" rx="1.873" transform="translate(8305.194 2747.868) rotate(-50.39)" fill="#d9eff5"/>
          </g>
        </g>
        <g id="Grupo_286" data-name="Grupo 286">
          <g id="Grupo_285" data-name="Grupo 285">
            <rect id="Rectángulo_817" data-name="Rectángulo 817" width="16.973" height="49.308" rx="1.873" transform="translate(8305.194 2747.868) rotate(-50.39)" fill="#aad5e6"/>
          </g>
        </g>
        <g id="Grupo_288" data-name="Grupo 288">
          <g id="Grupo_287" data-name="Grupo 287">
            <rect id="Rectángulo_818" data-name="Rectángulo 818" width="14.413" height="13.939" rx="1.114" transform="matrix(0.638, -0.77, 0.77, 0.638, 8319.891, 2758.368)" fill="#f0f1f1"/>
          </g>
        </g>
        <g id="Grupo_290" data-name="Grupo 290">
          <g id="Grupo_289" data-name="Grupo 289">
            <path id="Trazado_3868" data-name="Trazado 3868" d="M8328.369,2748.123a1.114,1.114,0,0,1,1.569-.148l9.021,7.466a1.111,1.111,0,0,1,.3.4,1.091,1.091,0,0,1-.175.307l-7.768,9.387a1.115,1.115,0,0,1-1.569.148l-9.022-7.466a1.124,1.124,0,0,1-.3-.4,1.138,1.138,0,0,1,.175-.306Z" fill="#e1f1f6"/>
          </g>
        </g>
        <g id="Grupo_292" data-name="Grupo 292">
          <g id="Grupo_291" data-name="Grupo 291">
            <path id="Trazado_3869" data-name="Trazado 3869" d="M8320.6,2757.51a1.138,1.138,0,0,0-.175.306,1.124,1.124,0,0,0,.3.4l9.022,7.466a1.115,1.115,0,0,0,1.569-.148l7.768-9.387a1.091,1.091,0,0,0,.175-.307,1.111,1.111,0,0,0-.3-.4l-1.744-1.443c-9.218,13.574-15.829,2.562-15.829,2.562Z" fill="#f0f1f1"/>
          </g>
        </g>
      </g>
      <g id="Grupo_294" data-name="Grupo 294">
        <path id="Trazado_3870" data-name="Trazado 3870" d="M8333.206,2771.049l9.777-13.94-4.423-3.659h0l-9.8,11.414-.772,1.869Z" fill="#f0f1f1"/>
      </g>
      <g id="Grupo_295" data-name="Grupo 295">
        <path id="Trazado_3871" data-name="Trazado 3871" d="M8327.852,2744.587l-11.413,12.586,3.993,3.3,1.328-.735,10.5-11.509Z" fill="#f0f1f1"/>
      </g>
      <g id="Grupo_302" data-name="Grupo 302">
        <g id="Grupo_297" data-name="Grupo 297">
          <g id="Grupo_296" data-name="Grupo 296">
            <rect id="Rectángulo_819" data-name="Rectángulo 819" width="49.308" height="16.973" rx="1.873" transform="matrix(0.625, -0.781, 0.781, 0.625, 8307.925, 2771.167)" fill="#bce2f0"/>
          </g>
        </g>
        <g id="Grupo_299" data-name="Grupo 299">
          <g id="Grupo_298" data-name="Grupo 298">
            <path id="Trazado_3872" data-name="Trazado 3872" d="M8321.056,2758.6a1.115,1.115,0,0,1-.173-1.566l7.32-9.14a1.093,1.093,0,0,1,.393-.307,1.133,1.133,0,0,1,.31.17l9.511,7.617a1.114,1.114,0,0,1,.173,1.566l-7.321,9.14a.388.388,0,0,1-.7.137Z" fill="#fff"/>
          </g>
        </g>
        <g id="Grupo_301" data-name="Grupo 301">
          <g id="Grupo_300" data-name="Grupo 300">
            <path id="Trazado_3873" data-name="Trazado 3873" d="M8330.567,2766.218a.388.388,0,0,0,.7-.137l7.321-9.14a1.114,1.114,0,0,0-.173-1.566l-9.511-7.617a1.133,1.133,0,0,0-.31-.17,1.093,1.093,0,0,0-.393.307l-1.415,1.766c13.721,9,2.817,15.786,2.817,15.786Z" fill="#f6f6f6"/>
          </g>
        </g>
      </g>
    </g>
    <g id="Grupo_310" data-name="Grupo 310">
      <g id="Grupo_305" data-name="Grupo 305">
        <g id="Grupo_304" data-name="Grupo 304">
          <path id="Trazado_3874" data-name="Trazado 3874" d="M8725.226,2735.462a4.535,4.535,0,1,0-3.682-5.252A4.535,4.535,0,0,0,8725.226,2735.462Z" fill="#babcbe"/>
        </g>
      </g>
      <g id="Grupo_307" data-name="Grupo 307">
        <g id="Grupo_306" data-name="Grupo 306">
          <path id="Trazado_3875" data-name="Trazado 3875" d="M8729.159,2732.043a4.536,4.536,0,1,0-5.737,2.867A4.535,4.535,0,0,0,8729.159,2732.043Z" fill="#fff"/>
        </g>
      </g>
      <g id="Grupo_309" data-name="Grupo 309">
        <g id="Grupo_308" data-name="Grupo 308">
          <path id="Trazado_3876" data-name="Trazado 3876" d="M8722.967,2734.73a4.521,4.521,0,0,0,.455.18,4.833,4.833,0,0,0,.472.129l1.427-4.276,1.426-4.277a4.6,4.6,0,0,0-.454-.18,4.837,4.837,0,0,0-.472-.129l-1.427,4.277Z" fill="#d5d6d7"/>
        </g>
      </g>
    </g>
    <g id="Grupo_317" data-name="Grupo 317">
      <g id="Grupo_312" data-name="Grupo 312">
        <g id="Grupo_311" data-name="Grupo 311">
          <path id="Trazado_3877" data-name="Trazado 3877" d="M8249.35,2999.361a4.1,4.1,0,1,0-5.7,1.077A4.1,4.1,0,0,0,8249.35,2999.361Z" fill="#babcbe"/>
        </g>
      </g>
      <g id="Grupo_314" data-name="Grupo 314">
        <g id="Grupo_313" data-name="Grupo 313">
          <path id="Trazado_3878" data-name="Trazado 3878" d="M8248,2994.845a4.1,4.1,0,1,0,.224,5.8A4.1,4.1,0,0,0,8248,2994.845Z" fill="#fff"/>
        </g>
      </g>
      <g id="Grupo_316" data-name="Grupo 316">
        <g id="Grupo_315" data-name="Grupo 315">
          <path id="Trazado_3879" data-name="Trazado 3879" d="M8247.905,3000.95a4.049,4.049,0,0,0,.317-.308,3.841,3.841,0,0,0,.282-.341l-2.993-2.769-2.992-2.77a4.009,4.009,0,0,0-.317.308,3.671,3.671,0,0,0-.282.341l2.993,2.769Z" fill="#d5d6d7"/>
        </g>
      </g>
    </g>
    <g id="Grupo_324" data-name="Grupo 324">
      <g id="Grupo_319" data-name="Grupo 319">
        <g id="Grupo_318" data-name="Grupo 318">
          <path id="Trazado_3880" data-name="Trazado 3880" d="M8754.324,2734.074a7.479,7.479,0,1,0-8.631,6.115A7.48,7.48,0,0,0,8754.324,2734.074Z" fill="#babcbe"/>
        </g>
      </g>
      <g id="Grupo_321" data-name="Grupo 321">
        <g id="Grupo_320" data-name="Grupo 320">
          <path id="Trazado_3881" data-name="Trazado 3881" d="M8748.653,2727.617a7.479,7.479,0,1,0,4.774,9.437A7.478,7.478,0,0,0,8748.653,2727.617Z" fill="#fff"/>
        </g>
      </g>
      <g id="Grupo_323" data-name="Grupo 323">
        <g id="Grupo_322" data-name="Grupo 322">
          <path id="Trazado_3882" data-name="Trazado 3882" d="M8753.135,2737.8a7.345,7.345,0,0,0,.293-.751,7.6,7.6,0,0,0,.209-.779l-7.063-2.317-7.064-2.317a7.578,7.578,0,0,0-.293.751,7.838,7.838,0,0,0-.209.779l7.064,2.317Z" fill="#e5e5e6"/>
        </g>
      </g>
    </g>
    <g id="Grupo_331" data-name="Grupo 331">
      <g id="Grupo_326" data-name="Grupo 326">
        <g id="Grupo_325" data-name="Grupo 325">
          <path id="Trazado_3883" data-name="Trazado 3883" d="M8257.321,3033.267a8.128,8.128,0,1,0-10.74,4.094A8.127,8.127,0,0,0,8257.321,3033.267Z" fill="#babcbe"/>
        </g>
      </g>
      <g id="Grupo_328" data-name="Grupo 328">
        <g id="Grupo_327" data-name="Grupo 327">
          <path id="Trazado_3884" data-name="Trazado 3884" d="M8244.69,3024.724a8.127,8.127,0,1,0,11.091,3.021A8.128,8.128,0,0,0,8244.69,3024.724Z" fill="#fff"/>
        </g>
      </g>
      <g id="Grupo_330" data-name="Grupo 330">
        <g id="Grupo_329" data-name="Grupo 329">
          <path id="Trazado_3885" data-name="Trazado 3885" d="M8256.173,3028.529a8.571,8.571,0,0,0-.393-.784,8.137,8.137,0,0,0-.477-.735l-7.014,4.01-7.013,4.011a7.848,7.848,0,0,0,.869,1.519l7.013-4.011Z" fill="#d5d6d7"/>
        </g>
      </g>
    </g>
    <g id="Grupo_332" data-name="Grupo 332">
      <path id="Trazado_3886" data-name="Trazado 3886" d="M8242.6,2941.554l-16.349,2.475a4.668,4.668,0,0,0-3.916,5.314h0a4.668,4.668,0,0,0,5.313,3.916l16.35-2.476a4.668,4.668,0,0,0,3.916-5.314h0A4.667,4.667,0,0,0,8242.6,2941.554Z" fill="#fff"/>
      <path id="Trazado_3887" data-name="Trazado 3887" d="M8247.917,2945.469h0a4.667,4.667,0,0,0-5.314-3.915l-8.352,1.264,1.575,9.2,8.175-1.238A4.668,4.668,0,0,0,8247.917,2945.469Z" fill="#dd503e"/>
    </g>
    <g id="Grupo_333" data-name="Grupo 333">
      <path id="Trazado_3888" data-name="Trazado 3888" d="M8239.3,2923.073l11.576,11.807a4.668,4.668,0,0,0,6.6.066h0a4.667,4.667,0,0,0,.064-6.6l-11.576-11.808a4.667,4.667,0,0,0-6.6-.066h0A4.668,4.668,0,0,0,8239.3,2923.073Z" fill="#fff"/>
      <path id="Trazado_3889" data-name="Trazado 3889" d="M8239.37,2916.472h0a4.669,4.669,0,0,0-.066,6.6l5.914,6.032,6.54-6.663-5.788-5.9A4.667,4.667,0,0,0,8239.37,2916.472Z" fill="#5584b1"/>
    </g>
    <g id="Grupo_334" data-name="Grupo 334">
      <path id="Trazado_3890" data-name="Trazado 3890" d="M8274.26,2972.84l-12.439,10.894a4.667,4.667,0,0,0-.436,6.587h0a4.668,4.668,0,0,0,6.586.436l12.439-10.9a4.669,4.669,0,0,0,.436-6.587h0A4.666,4.666,0,0,0,8274.26,2972.84Z" fill="#fff"/>
      <path id="Trazado_3891" data-name="Trazado 3891" d="M8280.846,2973.275h0a4.666,4.666,0,0,0-6.586-.435l-6.354,5.565,6.285,6.9,6.22-5.447A4.669,4.669,0,0,0,8280.846,2973.275Z" fill="#5584b1"/>
    </g>
    <g id="Grupo_335" data-name="Grupo 335">
      <path id="Trazado_3892" data-name="Trazado 3892" d="M8696.936,2738.417l-7.849-14.385a4.625,4.625,0,0,0-6.275-1.844h0a4.624,4.624,0,0,0-1.845,6.275l7.85,14.385a4.623,4.623,0,0,0,6.274,1.844h0A4.624,4.624,0,0,0,8696.936,2738.417Z" fill="#fff"/>
      <path id="Trazado_3893" data-name="Trazado 3893" d="M8695.091,2744.692h0a4.624,4.624,0,0,0,1.845-6.275l-4.01-7.349-8.035,4.587,3.926,7.193A4.623,4.623,0,0,0,8695.091,2744.692Z" fill="#dd503e"/>
    </g>
    <g id="Grupo_336" data-name="Grupo 336">
      <path id="Trazado_3894" data-name="Trazado 3894" d="M8773.515,2812.922l3.97-15.9a4.627,4.627,0,0,0-3.367-5.608h0a4.627,4.627,0,0,0-5.608,3.368l-3.969,15.9a4.625,4.625,0,0,0,3.367,5.608h0A4.625,4.625,0,0,0,8773.515,2812.922Z" fill="#fff"/>
      <path id="Trazado_3895" data-name="Trazado 3895" d="M8767.907,2816.289h0a4.625,4.625,0,0,0,5.607-3.367l2.028-8.122-9.018-2.068-1.985,7.949A4.625,4.625,0,0,0,8767.907,2816.289Z" fill="#5584b1"/>
    </g>
    <g id="Grupo_339" data-name="Grupo 339">
      <g id="Grupo_338" data-name="Grupo 338">
        <g id="Grupo_337" data-name="Grupo 337">
          <path id="Trazado_3896" data-name="Trazado 3896" d="M8553.521,3036.9l1.407,10.034s-3.227,3.462-2.875,10.621,7.335,30.162,7.335,30.162h2.055s-.06-39.668,1.407-52.636-6.22.293-6.22.293Z" fill="#f2d1cd"/>
          <path id="Trazado_3897" data-name="Trazado 3897" d="M8566.375,3036.9l1.408,10.034s-3.228,3.462-2.875,10.621,7.335,30.162,7.335,30.162h2.054s-.059-39.668,1.408-52.636-6.22.293-6.22.293Z" fill="#f2d1cd"/>
          <path id="Trazado_3898" data-name="Trazado 3898" d="M8572.221,3087.725a3.859,3.859,0,0,0-1,2.945,30.23,30.23,0,0,0,1.123,5.165h.488a30.053,30.053,0,0,1,.225-4.161,32.762,32.762,0,0,1,1.679,4.161h5.31a4.034,4.034,0,0,0-2.933-2.153,10.841,10.841,0,0,0-2.854-5.957Z" fill="#ab4031"/>
          <path id="Trazado_3899" data-name="Trazado 3899" d="M8577.108,3093.682a10.841,10.841,0,0,0-2.854-5.957c-.866-.618-1.554-.648-2.034,0C8572.221,3087.725,8574.81,3093.656,8577.108,3093.682Z" fill="#f2d1cd"/>
          <path id="Trazado_3900" data-name="Trazado 3900" d="M8559.39,3087.725a3.859,3.859,0,0,0-1,2.945,30.329,30.329,0,0,0,1.123,5.165H8560a29.879,29.879,0,0,1,.225-4.161,32.665,32.665,0,0,1,1.678,4.161h5.31a4.031,4.031,0,0,0-2.932-2.153,10.849,10.849,0,0,0-2.854-5.957Z" fill="#ab4031"/>
          <path id="Trazado_3901" data-name="Trazado 3901" d="M8564.278,3093.682a10.849,10.849,0,0,0-2.854-5.957,1.328,1.328,0,0,0-2.035,0S8561.979,3093.656,8564.278,3093.682Z" fill="#f2d1cd"/>
          <path id="Trazado_3902" data-name="Trazado 3902" d="M8564.2,3001.164l-2.157,2.788s-17.076,1.672-10.892,36.88h26.192s2.2-24.235-3.33-36.088l-8.164-3.99Z" fill="#3c6082"/>
          <path id="Trazado_3903" data-name="Trazado 3903" d="M8569.339,2978.249l1.023-.484,5.193,1.849,5.589,7.614s.705,4.313-4.687,6.161l-2.443,11.355-11.971-.792-4.312-14.568-3.213-7.57,6.558-3.521Z" fill="#acd3ef"/>
          <path id="Trazado_3904" data-name="Trazado 3904" d="M8574.367,2980.846l1.188-1.232s10.958,7.922,14.083,10.034c0,0-4.352,10.941-15.488,14.471l-2.644-1.488,3.574-2.839s4.672-5.136,6.094-7.926l-3.551-2.394s-3.433-3.741-3.477-3.917S8574.367,2980.846,8574.367,2980.846Z" fill="#acd3ef"/>
          <path id="Trazado_3905" data-name="Trazado 3905" d="M8559.182,3003.017l3.907-1.838,3.631,2.408s1.479,4.014,1.049,4.379-.647-.182-.647-.182.4.8.11,1.058-.949-.73-.949-.73.329,1.022-.073,1.058-.565-1.167-.565-1.167-.384,1.094-.712.584a5.284,5.284,0,0,1-1.843-3.412,5.859,5.859,0,0,1-4.056-.147Z" fill="#f2d1cd"/>
          <path id="Trazado_3906" data-name="Trazado 3906" d="M8569.548,2977.743l.814.022,2.465,12.279-6.236-11.011-.739-1.51Z" fill="#fff"/>
          <path id="Trazado_3907" data-name="Trazado 3907" d="M8569.614,2970.086l.748,7.679s.353,2.949-4.8.9-4.944-4.269-4.944-4.269l5.45-5.392Z" fill="#f2d1cd"/>
          <path id="Trazado_3908" data-name="Trazado 3908" d="M8564.676,2970.388l.818,1.9a8.735,8.735,0,0,0,4.58,2.518l-.46-4.718-3.426-1.043-.164.011Z" fill="#e4b7b3"/>
          <path id="Trazado_3909" data-name="Trazado 3909" d="M8572.123,2953.457s3.462,2.875,4.166,11.149l-2.083.294s1.2,4.811-2.846,6.4-9.8-2.758-9.8-2.758l-.938-9.154,7.834-5.047Z" fill="#f2d1cd"/>
          <path id="Trazado_3910" data-name="Trazado 3910" d="M8547.257,2984.807l-7.878,6.954s3.924,10.784,19.654,13.414l.29-2.5a27.509,27.509,0,0,1-7.556-8.993l10.738-5.149Z" fill="#acd3ef"/>
          <path id="Trazado_3911" data-name="Trazado 3911" d="M8574.675,2957.477a6.221,6.221,0,0,0,1.614-5.957c-.821-3.873-2.582-5.34-7.658-3.7s-8.067-.469-13.115,4.46-2.111,9.741-2.7,14.025-5.956,5.417-8.458,13.306c-1.877,5.921,1.553,6.226.352,9.546a5.052,5.052,0,0,0,3.94,7c3.109.367,5.859-1.589,7.5-4.582s2.414-6.142,7.049-8.665,4.549-7.9,2.509-12.075a7.765,7.765,0,0,1,0-7.349l1.012-1.79a9.683,9.683,0,0,0,7.288-5.64Z" fill="#243748"/>
          <path id="Trazado_3912" data-name="Trazado 3912" d="M8566.724,2961.7s-1.056-2.373-2.522-.937-.353,5.427,2.171,5.074,1.115-2.229,1.115-2.229Z" fill="#f2d1cd"/>
          <path id="Trazado_3913" data-name="Trazado 3913" d="M8575.939,3003.922c.419,1.537,1.192,2.791-1.095,3.59s-.6-1.282-.6-1.282-1.837,1.629-2.157.987,2.072-2.293,2.072-2.293-2.69,1.11-2.657.341,2.922-1.913,2.922-1.913-2.534.652-2.384.076S8574.811,2999.784,8575.939,3003.922Z" fill="#f2d1cd"/>
        </g>
        <path id="Trazado_3914" data-name="Trazado 3914" d="M8577.7,3034.572c-4.38,3.059-9.966,5.126-15.895,2.636-13.324-5.595-4.27-31.3-4.27-31.3-4.563,3.279-10.41,11.979-6.38,34.922h26.193S8577.571,3038.34,8577.7,3034.572Z" fill="#304b65"/>
      </g>
      <path id="Trazado_3915" data-name="Trazado 3915" d="M8554.073,3040.832l.264,1.882c2.354-.487,5.557-.575,7.862,1.571.058-1.229.121-2.345.188-3.453Z" fill="#e4b7b3"/>
      <path id="Trazado_3916" data-name="Trazado 3916" d="M8575.238,3040.832h-8.312l.174,1.242a7.93,7.93,0,0,1,7.913,3.039c.068-1.508.144-2.943.225-4.28Z" fill="#e4b7b3"/>
    </g>
  </g>
</svg>
