<svg xmlns="http://www.w3.org/2000/svg" xmlns:xlink="http://www.w3.org/1999/xlink" width="152.442" height="152.444" viewBox="0 0 152.442 152.444">
  <defs>
    <clipPath id="clip-path">
      <rect id="Rectángulo_809" data-name="Rectángulo 809" width="29.597" height="23.127" transform="translate(8721.131 2192.504)" fill="none"/>
    </clipPath>
  </defs>
  <g id="Grupo_3442" data-name="Grupo 3442" transform="translate(-844.498 -2044.807)">
    <path id="Trazado_292" data-name="Trazado 292" d="M8736.371,2101.178q3.744,0,7.471.367t7.4,1.1q3.672.73,7.256,1.817t7.042,2.52q3.46,1.434,6.762,3.2t6.416,3.845q3.114,2.08,6.008,4.456t5.542,5.023q2.65,2.648,5.024,5.542t4.456,6.009q2.079,3.112,3.845,6.415t3.2,6.762q1.434,3.461,2.52,7.043t1.818,7.256q.731,3.672,1.1,7.4t.367,7.471q0,3.744-.367,7.471t-1.1,7.4q-.731,3.672-1.818,7.256t-2.52,7.043q-1.433,3.459-3.2,6.762t-3.845,6.415q-2.08,3.114-4.456,6.009t-5.024,5.542q-2.647,2.647-5.542,5.023t-6.008,4.456q-3.113,2.081-6.416,3.845t-6.762,3.2q-3.458,1.434-7.042,2.52t-7.256,1.818q-3.674.731-7.4,1.1t-7.471.368q-3.746,0-7.471-.368t-7.4-1.1q-3.674-.731-7.256-1.818t-7.043-2.52q-3.458-1.433-6.762-3.2t-6.416-3.845q-3.113-2.08-6.009-4.456t-5.542-5.023q-2.647-2.648-5.022-5.542t-4.456-6.009q-2.08-3.113-3.846-6.415t-3.2-6.762q-1.433-3.461-2.521-7.043t-1.816-7.256q-.731-3.672-1.1-7.4t-.366-7.471q0-3.744.366-7.471t1.1-7.4q.729-3.672,1.816-7.256t2.521-7.043q1.433-3.459,3.2-6.762t3.846-6.415q2.08-3.114,4.456-6.009t5.022-5.542q2.648-2.647,5.542-5.023t6.009-4.456q3.113-2.08,6.416-3.845t6.762-3.2q3.458-1.433,7.043-2.52t7.256-1.817q3.672-.731,7.4-1.1T8736.371,2101.178Z" transform="translate(-7815.651 -56.371)" fill="#e6b54a"/>
    <circle id="Elipse_9" data-name="Elipse 9" cx="71.597" cy="71.597" r="71.597" transform="translate(849.123 2049.432)" fill="#fff"/>
    <circle id="Elipse_10" data-name="Elipse 10" cx="65.13" cy="65.13" r="65.13" transform="translate(855.589 2055.898)" fill="#414651"/>
    <g id="Grupo_208" data-name="Grupo 208" transform="translate(-7815.651 -56.371)">
      <g id="Grupo_207" data-name="Grupo 207">
        <g id="Grupo_198" data-name="Grupo 198">
          <path id="Trazado_3758" data-name="Trazado 3758" d="M8767.581,2204.034a2.539,2.539,0,0,1-2.539,2.538h-58.228a2.537,2.537,0,0,1-2.535-2.538v-53.49a2.537,2.537,0,0,1,2.535-2.535h58.228a2.539,2.539,0,0,1,2.539,2.535Z" fill="#fff"/>
          <rect id="Rectángulo_787" data-name="Rectángulo 787" width="52.047" height="5.628" transform="translate(8709.906 2189.69)" fill="#393d45"/>
          <rect id="Rectángulo_788" data-name="Rectángulo 788" width="52.047" height="31.88" transform="translate(8709.906 2153.636)" fill="#e4e3e3"/>
          <g id="Grupo_197" data-name="Grupo 197">
            <g id="Grupo_195" data-name="Grupo 195">
              <g id="Grupo_194" data-name="Grupo 194">
                <rect id="Rectángulo_789" data-name="Rectángulo 789" width="15.004" height="3.75" transform="translate(8743.196 2176.139)" fill="#393d45"/>
                <rect id="Rectángulo_790" data-name="Rectángulo 790" width="3.749" height="3.749" transform="translate(8743.196 2170.515)" fill="#393d45"/>
                <rect id="Rectángulo_791" data-name="Rectángulo 791" width="3.749" height="3.753" transform="translate(8743.196 2164.888)" fill="#393d45"/>
                <rect id="Rectángulo_792" data-name="Rectángulo 792" width="3.749" height="3.749" transform="translate(8743.196 2159.264)" fill="#393d45"/>
                <rect id="Rectángulo_793" data-name="Rectángulo 793" width="3.749" height="3.749" transform="translate(8748.823 2170.515)" fill="#393d45"/>
                <rect id="Rectángulo_794" data-name="Rectángulo 794" width="3.749" height="3.753" transform="translate(8748.823 2164.888)" fill="#393d45"/>
                <rect id="Rectángulo_795" data-name="Rectángulo 795" width="3.749" height="3.749" transform="translate(8748.823 2159.264)" fill="#393d45"/>
                <rect id="Rectángulo_796" data-name="Rectángulo 796" width="3.753" height="3.749" transform="translate(8754.448 2170.515)" fill="#393d45"/>
                <rect id="Rectángulo_797" data-name="Rectángulo 797" width="3.753" height="3.753" transform="translate(8754.448 2164.888)" fill="#393d45"/>
                <rect id="Rectángulo_798" data-name="Rectángulo 798" width="3.753" height="3.749" transform="translate(8754.448 2159.264)" fill="#393d45"/>
              </g>
            </g>
            <g id="Grupo_196" data-name="Grupo 196">
              <rect id="Rectángulo_799" data-name="Rectángulo 799" width="25.785" height="20.625" transform="translate(8713.659 2159.264)" fill="#7bb1d6"/>
              <rect id="Rectángulo_800" data-name="Rectángulo 800" width="18.283" height="15.001" transform="translate(8717.412 2164.888)" fill="#a8dcf4"/>
            </g>
          </g>
        </g>
        <g id="Grupo_206" data-name="Grupo 206">
          <g id="Grupo_205" data-name="Grupo 205" clip-path="url(#clip-path)">
            <g id="Grupo_204" data-name="Grupo 204">
              <path id="Trazado_3759" data-name="Trazado 3759" d="M8750.728,2213.46a2.162,2.162,0,0,1-2.176,2.17H8723.3a2.165,2.165,0,0,1-1.54-.637,2.132,2.132,0,0,1-.634-1.536v-40.052a2.151,2.151,0,0,1,.634-1.536,2.178,2.178,0,0,1,1.54-.637l25.247,0a2.169,2.169,0,0,1,2.176,2.17Z" fill="#cd6554" fill-rule="evenodd"/>
              <g id="Grupo_200" data-name="Grupo 200">
                <g id="Grupo_199" data-name="Grupo 199">
                  <rect id="Rectángulo_801" data-name="Rectángulo 801" width="0.949" height="6.941" transform="translate(8726.742 2176.763)" fill="#393d45"/>
                  <rect id="Rectángulo_802" data-name="Rectángulo 802" width="0.946" height="6.945" transform="translate(8726.745 2185.559)" fill="#393d45"/>
                  <rect id="Rectángulo_803" data-name="Rectángulo 803" width="0.947" height="6.941" transform="translate(8726.744 2194.362)" fill="#393d45"/>
                  <rect id="Rectángulo_804" data-name="Rectángulo 804" width="0.949" height="6.938" transform="translate(8726.742 2203.161)" fill="#393d45"/>
                </g>
              </g>
              <g id="Grupo_203" data-name="Grupo 203">
                <rect id="Rectángulo_805" data-name="Rectángulo 805" width="3.809" height="33.337" transform="translate(8732.128 2176.763)" fill="#fff"/>
                <g id="Grupo_202" data-name="Grupo 202">
                  <g id="Grupo_201" data-name="Grupo 201">
                    <path id="Trazado_3760" data-name="Trazado 3760" d="M8733.681,2195.082l0-2.578h.714l0,2.578Z" fill="#393d45" fill-rule="evenodd"/>
                    <rect id="Rectángulo_806" data-name="Rectángulo 806" width="0.708" height="5.722" transform="translate(8733.681 2196.148)" fill="#393d45"/>
                    <rect id="Rectángulo_807" data-name="Rectángulo 807" width="0.708" height="5.715" transform="translate(8733.679 2202.936)" fill="#393d45"/>
                  </g>
                </g>
              </g>
              <rect id="Rectángulo_808" data-name="Rectángulo 808" width="6.779" height="44.395" transform="translate(8738.567 2171.235)" fill="#393d45"/>
            </g>
          </g>
        </g>
      </g>
    </g>
  </g>
</svg>
