<svg xmlns="http://www.w3.org/2000/svg" width="167.59" height="167.59" viewBox="0 0 167.59 167.59">
  <g id="Grupo_1178" data-name="Grupo 1178" transform="translate(-3434.416 -851.45)">
    <rect id="Rectángulo_305" data-name="Rectángulo 305" width="167.59" height="167.59" rx="8.821" transform="translate(3434.416 851.45)" fill="#fff"/>
    <g id="Grupo_1177" data-name="Grupo 1177">
      <g id="Grupo_1167" data-name="Grupo 1167">
        <g id="Grupo_1165" data-name="Grupo 1165">
          <path id="Trazado_1826" data-name="Trazado 1826" d="M3521.771,909.535v6.524h-8.451v-6.524C3515.215,908.852,3520.238,908.868,3521.771,909.535Z" fill="#352836"/>
          <path id="Trazado_1827" data-name="Trazado 1827" d="M3524.162,900.273c0,6.344.241,6.047-2.391,9.262h-8.451c-2.735-2.979-2.423-2.6-2.423-9.262A29.77,29.77,0,0,1,3524.162,900.273Z" fill="#483c49"/>
        </g>
        <g id="Grupo_1166" data-name="Grupo 1166">
          <path id="Trazado_1828" data-name="Trazado 1828" d="M3540.535,865.549v31.17a3.55,3.55,0,0,1-3.551,3.554h-34.511c-4.467,0-6.054-1.592-6.054-3.555V865.55a3.556,3.556,0,0,1,3.556-3.556h37A3.556,3.556,0,0,1,3540.535,865.549Z" fill="#b5b8be"/>
          <path id="Trazado_1829" data-name="Trazado 1829" d="M3536.135,868.935V893.87a2.84,2.84,0,0,1-2.84,2.844h-27.608c-3.574,0-4.843-1.274-4.843-2.845V868.936a2.844,2.844,0,0,1,2.843-2.845h29.6A2.844,2.844,0,0,1,3536.135,868.935Z" fill="#fff"/>
        </g>
      </g>
      <g id="Grupo_1168" data-name="Grupo 1168">
        <path id="Trazado_1830" data-name="Trazado 1830" d="M3526.12,999.034c-3.435,7.448-2.513,7.275-8.45,7.275-5.739,0-4.756.3-8.637-7.275C3511.535,997.633,3523.362,997.146,3526.12,999.034Z" fill="#d9dbdc"/>
        <path id="Trazado_1831" data-name="Trazado 1831" d="M3535.253,992.267c-2.2,3.624-3.35,6.767-7.178,6.767h-20.25c-3.622,0-4.746-2.726-7.491-6.767C3503,991.215,3532.466,991,3535.253,992.267Z" fill="#b5b8be"/>
        <path id="Trazado_1832" data-name="Trazado 1832" d="M3545.464,992.267h-51.841v-5.778c13.758-1.869,40.633-1.917,51.841,0Z" fill="#d9dbdc"/>
      </g>
      <g id="Grupo_1171" data-name="Grupo 1171">
        <g id="Grupo_1169" data-name="Grupo 1169">
          <rect id="Rectángulo_306" data-name="Rectángulo 306" width="2.548" height="12.054" transform="translate(3544.262 985.743)" fill="#b5b8be"/>
          <rect id="Rectángulo_307" data-name="Rectángulo 307" width="2.547" height="12.054" transform="translate(3491.904 985.743)" fill="#b5b8be"/>
        </g>
        <g id="Grupo_1170" data-name="Grupo 1170">
          <path id="Trazado_1833" data-name="Trazado 1833" d="M3489.315,998.854v12.423c0,2.655,2.515,2.193,4.267,2.193,1,0,3.6.444,3.6-2.193V998.854c0-2.636-2.541-2.193-3.914-2.193C3491.847,996.661,3489.315,996.218,3489.315,998.854Z" fill="#483c49"/>
          <path id="Trazado_1834" data-name="Trazado 1834" d="M3549.4,998.854v12.423c0,2.655-2.515,2.193-4.267,2.193-1,0-3.6.444-3.6-2.193V998.854c0-2.636,2.54-2.193,3.914-2.193C3546.867,996.661,3549.4,996.218,3549.4,998.854Z" fill="#483c49"/>
        </g>
      </g>
      <g id="Grupo_1176" data-name="Grupo 1176">
        <g id="Grupo_1172" data-name="Grupo 1172">
          <rect id="Rectángulo_308" data-name="Rectángulo 308" width="51.012" height="52.13" transform="translate(3493.25 929.511)" fill="#d9dbdc"/>
          <rect id="Rectángulo_309" data-name="Rectángulo 309" width="13.283" height="48.216" transform="translate(3510.886 933.426)" fill="#483c49"/>
          <path id="Trazado_1835" data-name="Trazado 1835" d="M3501.789,933.687c-2.237,1.242-.125,4.639,2.4,3.314C3506.11,935.99,3504.026,932.444,3501.789,933.687Z" fill="#ed334b"/>
        </g>
        <g id="Grupo_1173" data-name="Grupo 1173">
          <path id="Trazado_1836" data-name="Trazado 1836" d="M3484.4,922.475c4.114-5.841,6.36-5.348,13.336-5.328a8.936,8.936,0,0,0-.982,2.973c-5.836-.086-6.519-.561-9.948,4.118-2.811,3.832-5.37,4.333,9.613,4.335,1.035-3.158,9.183-5.367,15.948-5.384v8.29C3479.8,931.429,3477.146,932.773,3484.4,922.475Z" fill="#b5b8be"/>
          <path id="Trazado_1837" data-name="Trazado 1837" d="M3548.368,924.238c-2.653-3.619-3.67-4.152-6.689-4.169a5.666,5.666,0,0,0-.4-2.935c4.136.056,6.186.7,9.5,5.341,7.316,10.255,4.6,8.954-27.967,9v-2.956c4.432-3.547,15.827-4.708,18.888.091C3553.213,928.528,3550.967,927.783,3548.368,924.238Z" fill="#b5b8be"/>
        </g>
        <g id="Grupo_1174" data-name="Grupo 1174">
          <path id="Trazado_1838" data-name="Trazado 1838" d="M3508.146,914.853c-10.608,0-12.286-2.952-11.727,13.72l45.275.041c.581-13.752,1.734-13.761-7.207-13.761Z" fill="#d9dbdc"/>
          <path id="Trazado_1839" data-name="Trazado 1839" d="M3518.757,923.567l.266-4.184h22.671a3.057,3.057,0,0,1,0,4.267Z" fill="#b5b8be"/>
        </g>
        <g id="Grupo_1175" data-name="Grupo 1175">
          <path id="Trazado_1840" data-name="Trazado 1840" d="M3527.238,934.917c-3.07,2.486-16.221,1.586-18.392,0-3.231-2.361-1.988-7.9,1.367-10.6s13.3-2.921,17.025.655S3529.891,932.77,3527.238,934.917Z" fill="#352836"/>
          <path id="Trazado_1841" data-name="Trazado 1841" d="M3521.771,926.84c-2.237,1.242-.125,4.639,2.4,3.313C3526.091,929.142,3524.008,925.6,3521.771,926.84Z" fill="#b5b8be"/>
        </g>
      </g>
      <path id="Trazado_1842" data-name="Trazado 1842" d="M3550.6,982.947c0,1.262.351,3.542-1.677,3.542h-60.27c-2.036,0-1.678-2.284-1.678-3.6,0-1.005-.336-3.293,1.678-3.293h60.27C3550.938,979.592,3550.6,981.87,3550.6,982.947Z" fill="#352836"/>
    </g>
  </g>
</svg>
