<svg xmlns="http://www.w3.org/2000/svg" width="167.59" height="167.59" viewBox="0 0 167.59 167.59">
  <g id="Grupo_2736" data-name="Grupo 2736" transform="translate(-340.218 -1082.989)">
    <g id="Grupo_1179" data-name="Grupo 1179" transform="translate(-3094.811 0)">
      <rect id="Rectángulo_310" data-name="Rectángulo 310" width="167.59" height="167.59" rx="8.821" transform="translate(3435.029 1082.989)" fill="#fff"/>
    </g>
    <g id="Grupo_1212" data-name="Grupo 1212" transform="translate(-3094.811 0)">
      <rect id="Rectángulo_322" data-name="Rectángulo 322" width="78.365" height="99.085" rx="8.583" transform="translate(3479.61 1128.984)" fill="#385165"/>
      <path id="Rectángulo_323" data-name="Rectángulo 323" d="M4.922,0H61.754a4.923,4.923,0,0,1,4.923,4.923V81.411a4.923,4.923,0,0,1-4.923,4.923H4.922A4.922,4.922,0,0,1,0,81.412V4.922A4.922,4.922,0,0,1,4.922,0Z" transform="translate(3485.454 1135.359)" fill="#fff"/>
      <path id="Trazado_1879" data-name="Trazado 1879" d="M3522.331,1116.561a3.548,3.548,0,1,1-7.078,0h-20.369v14.345H3542.7v-14.345Z" fill="#5da4b4"/>
      <rect id="Rectángulo_324" data-name="Rectángulo 324" width="47.816" height="3.944" transform="translate(3494.884 1126.961)" fill="#5da4b4"/>
      <path id="Trazado_1880" data-name="Trazado 1880" d="M3518.792,1109.463a6.375,6.375,0,1,0,6.376,6.376A6.376,6.376,0,0,0,3518.792,1109.463Zm0,8.982a2.606,2.606,0,1,1,2.607-2.606A2.606,2.606,0,0,1,3518.792,1118.445Z" fill="#5da4b4"/>
      <rect id="Rectángulo_325" data-name="Rectángulo 325" width="47.816" height="1.375" transform="translate(3494.884 1125.912)" fill="#5da4b4"/>
      <g id="Grupo_1205" data-name="Grupo 1205">
        <rect id="Rectángulo_326" data-name="Rectángulo 326" width="8.235" height="2.103" transform="translate(3499.068 1115.68)" fill="#5da4b4"/>
        <rect id="Rectángulo_327" data-name="Rectángulo 327" width="8.235" height="2.103" transform="translate(3530.281 1115.51)" fill="#5da4b4"/>
      </g>
      <g id="Grupo_1207" data-name="Grupo 1207">
        <path id="Trazado_1881" data-name="Trazado 1881" d="M3507.79,1165.577h-13.518a3.14,3.14,0,0,1-3.137-3.137v-12.987a3.14,3.14,0,0,1,3.137-3.137h13.518a3.141,3.141,0,0,1,3.138,3.137v12.987A3.141,3.141,0,0,1,3507.79,1165.577Zm-13.518-17.532a1.409,1.409,0,0,0-1.408,1.408v12.987a1.41,1.41,0,0,0,1.408,1.408h13.518a1.41,1.41,0,0,0,1.408-1.408v-12.987a1.409,1.409,0,0,0-1.408-1.408Z" fill="#a3b6c0"/>
        <g id="Grupo_1206" data-name="Grupo 1206">
          <rect id="Rectángulo_328" data-name="Rectángulo 328" width="11.689" height="2.391" transform="translate(3514.652 1148.243)" fill="#a3b6c0"/>
          <rect id="Rectángulo_329" data-name="Rectángulo 329" width="30.933" height="2.391" transform="translate(3514.652 1153.024)" fill="#a3b6c0"/>
          <rect id="Rectángulo_330" data-name="Rectángulo 330" width="30.933" height="2.391" transform="translate(3514.652 1157.673)" fill="#a3b6c0"/>
          <rect id="Rectángulo_331" data-name="Rectángulo 331" width="30.933" height="2.391" transform="translate(3514.652 1162.056)" fill="#a3b6c0"/>
        </g>
      </g>
      <path id="Trazado_1882" data-name="Trazado 1882" d="M3507.7,1152.865a.529.529,0,0,0-.154-.376l-.986-.986a.532.532,0,0,0-.751,0l-5.283,5.308-3.635-3.658a.534.534,0,0,0-.752,0l-1.049,1.05a.531.531,0,0,0,0,.751l5,5.019a.548.548,0,0,0,.752,0l6.708-6.732A.532.532,0,0,0,3507.7,1152.865Z" fill="#ee9931"/>
      <g id="Grupo_1209" data-name="Grupo 1209">
        <path id="Trazado_1883" data-name="Trazado 1883" d="M3507.79,1188.688h-13.518a3.14,3.14,0,0,1-3.137-3.137v-12.988a3.141,3.141,0,0,1,3.137-3.137h13.518a3.142,3.142,0,0,1,3.138,3.137v12.988A3.141,3.141,0,0,1,3507.79,1188.688Zm-13.518-17.532a1.409,1.409,0,0,0-1.408,1.407v12.988a1.409,1.409,0,0,0,1.408,1.408h13.518a1.409,1.409,0,0,0,1.408-1.408v-12.988a1.409,1.409,0,0,0-1.408-1.407Z" fill="#a3b6c0"/>
        <g id="Grupo_1208" data-name="Grupo 1208">
          <rect id="Rectángulo_332" data-name="Rectángulo 332" width="11.689" height="2.391" transform="translate(3514.652 1171.354)" fill="#a3b6c0"/>
          <rect id="Rectángulo_333" data-name="Rectángulo 333" width="30.933" height="2.391" transform="translate(3514.652 1176.135)" fill="#a3b6c0"/>
          <rect id="Rectángulo_334" data-name="Rectángulo 334" width="30.933" height="2.391" transform="translate(3514.652 1180.784)" fill="#a3b6c0"/>
          <rect id="Rectángulo_335" data-name="Rectángulo 335" width="30.933" height="2.391" transform="translate(3514.652 1185.167)" fill="#a3b6c0"/>
        </g>
      </g>
      <path id="Trazado_1884" data-name="Trazado 1884" d="M3507.7,1175.976a.529.529,0,0,0-.154-.376l-.986-.986a.532.532,0,0,0-.751,0l-5.283,5.307-3.635-3.657a.533.533,0,0,0-.752,0l-1.049,1.05a.531.531,0,0,0,0,.751l5,5.019a.548.548,0,0,0,.752,0l6.708-6.733A.528.528,0,0,0,3507.7,1175.976Z" fill="#ee9931"/>
      <g id="Grupo_1211" data-name="Grupo 1211">
        <path id="Trazado_1885" data-name="Trazado 1885" d="M3507.79,1211.268h-13.518a3.141,3.141,0,0,1-3.137-3.137v-12.988a3.14,3.14,0,0,1,3.137-3.137h13.518a3.141,3.141,0,0,1,3.138,3.137v12.988A3.142,3.142,0,0,1,3507.79,1211.268Zm-13.518-17.532a1.409,1.409,0,0,0-1.408,1.407v12.988a1.409,1.409,0,0,0,1.408,1.407h13.518a1.409,1.409,0,0,0,1.408-1.407v-12.988a1.409,1.409,0,0,0-1.408-1.407Z" fill="#a3b6c0"/>
        <g id="Grupo_1210" data-name="Grupo 1210">
          <rect id="Rectángulo_336" data-name="Rectángulo 336" width="11.689" height="2.391" transform="translate(3514.652 1193.933)" fill="#a3b6c0"/>
          <rect id="Rectángulo_337" data-name="Rectángulo 337" width="30.933" height="2.391" transform="translate(3514.652 1198.715)" fill="#a3b6c0"/>
          <rect id="Rectángulo_338" data-name="Rectángulo 338" width="30.933" height="2.391" transform="translate(3514.652 1203.364)" fill="#a3b6c0"/>
          <rect id="Rectángulo_339" data-name="Rectángulo 339" width="30.933" height="2.391" transform="translate(3514.652 1207.747)" fill="#a3b6c0"/>
        </g>
      </g>
      <path id="Trazado_1886" data-name="Trazado 1886" d="M3507.7,1198.555a.533.533,0,0,0-.154-.376l-.986-.985a.532.532,0,0,0-.751,0l-5.283,5.307-3.635-3.657a.533.533,0,0,0-.752,0l-1.049,1.049a.532.532,0,0,0,0,.752l5,5.018a.546.546,0,0,0,.752,0l6.708-6.732A.531.531,0,0,0,3507.7,1198.555Z" fill="#ee9931"/>
    </g>
  </g>
</svg>
